#Arrow_01_1111_32.obj

v -0.02345276 -0.0007014275 -0.01774334
v 0.09165049 -0.2174621 0.4254412
v 0.004528046 -0.009880066 -0.02733549
v 0.06366968 -0.2082834 0.4350334
v 0.004528046 -0.009880066 -0.02733549
v 0.103807 -0.1907544 0.4353466
v 0.01668501 0.01682758 -0.01743013
v 0.09165049 -0.2174621 0.4254412
v 0.01668501 0.01682758 -0.01743013
v 0.07582617 -0.1815758 0.4449388
v -0.01129627 0.02600622 -0.007837978
v 0.103807 -0.1907544 0.4353466
v -0.01129627 0.02600622 -0.007837978
v 0.06366968 -0.2082834 0.4350334
v -0.02345276 -0.0007014275 -0.01774334
v 0.07582617 -0.1815758 0.4449388
v 0.103807 -0.1907544 0.4353466
v 0.06366968 -0.2082834 0.4350334
v 0.07582617 -0.1815758 0.4449388
v 0.09165049 -0.2174621 0.4254412
v 0.03052807 -0.1860704 0.4343853
v 0.04632521 -0.1308489 0.2661045
v 0.007514477 -0.1312375 0.3147832
v 0.0693388 -0.1856823 0.3857066
v 0.09790707 -0.1608887 0.283796
v 0.1209207 -0.2157221 0.403398
v 0.09790707 -0.1608887 0.283796
v 0.1284146 -0.1992579 0.4095042
v 0.105401 -0.1444249 0.2899022
v 0.1209207 -0.2157221 0.403398
v 0.1284146 -0.1992579 0.4095042
v 0.05381918 -0.1143847 0.2722106
v 0.105401 -0.1444249 0.2899022
v 0.07683277 -0.1692181 0.3918127
v 0.01500845 -0.1147733 0.3208894
v 0.03802204 -0.1696062 0.4404915
v 0.01500845 -0.1147733 0.3208894
v 0.03052807 -0.1860704 0.4343853
v 0.007514477 -0.1312375 0.3147832
v 0.03802204 -0.1696062 0.4404915
v 0.1284146 -0.1992579 0.4095042
v 0.0693388 -0.1856823 0.3857066
v 0.07683277 -0.1692181 0.3918127
v 0.1209207 -0.2157221 0.403398
v 0.01500845 -0.1147733 0.3208894
v 0.04632521 -0.1308489 0.2661045
v 0.05381918 -0.1143847 0.2722106
v 0.007514477 -0.1312375 0.3147832
v 0.03802204 -0.1696062 0.4404915
v 0.0693388 -0.1856823 0.3857066
v 0.03052807 -0.1860704 0.4343853
v 0.07683277 -0.1692181 0.3918127
v 0.105401 -0.1444249 0.2899022
v 0.04632521 -0.1308489 0.2661045
v 0.09790707 -0.1608887 0.283796
v 0.05381918 -0.1143847 0.2722106

vn -0.3925781 -0.3198242 0.8623047
vn -0.3925781 -0.3198242 0.8623047
vn -0.3925781 -0.3198242 0.8623047
vn -0.3925781 -0.3198242 0.8623047
vn 0.9033203 -0.3098145 0.2963867
vn 0.9033203 -0.3098145 0.2963867
vn 0.9033203 -0.3098145 0.2963867
vn 0.9033203 -0.3098145 0.2963867
vn 0.3925781 0.3198242 -0.8623047
vn 0.3925781 0.3198242 -0.8623047
vn 0.3925781 0.3198242 -0.8623047
vn 0.3925781 0.3198242 -0.8623047
vn -0.9033203 0.3098145 -0.2963867
vn -0.9033203 0.3098145 -0.2963867
vn -0.9033203 0.3098145 -0.2963867
vn -0.9033203 0.3098145 -0.2963867
vn 0.1722412 0.8955078 0.4104004
vn 0.1722412 0.8955078 0.4104004
vn 0.1722412 0.8955078 0.4104004
vn 0.1722412 0.8955078 0.4104004
vn -0.3925781 -0.3198242 0.8623047
vn -0.3925781 -0.3198242 0.8623047
vn -0.3925781 -0.3198242 0.8623047
vn -0.3925781 -0.3198242 0.8623047
vn -0.3925781 -0.3198242 0.8623047
vn -0.3925781 -0.3198242 0.8623047
vn 0.9033203 -0.3098145 0.2963867
vn 0.9033203 -0.3098145 0.2963867
vn 0.9033203 -0.3098145 0.2963867
vn 0.9033203 -0.3098145 0.2963867
vn 0.3925781 0.3198242 -0.8623047
vn 0.3925781 0.3198242 -0.8623047
vn 0.3925781 0.3198242 -0.8623047
vn 0.3925781 0.3198242 -0.8623047
vn 0.3925781 0.3198242 -0.8623047
vn 0.3925781 0.3198242 -0.8623047
vn -0.9033203 0.3098145 -0.2963867
vn -0.9033203 0.3098145 -0.2963867
vn -0.9033203 0.3098145 -0.2963867
vn -0.9033203 0.3098145 -0.2963867
vn -0.3994141 0.9038086 0.1534424
vn -0.3994141 0.9038086 0.1534424
vn -0.3994141 0.9038086 0.1534424
vn -0.3994141 0.9038086 0.1534424
vn -0.6762695 -0.5351563 -0.5063477
vn -0.6762695 -0.5351563 -0.5063477
vn -0.6762695 -0.5351563 -0.5063477
vn -0.6762695 -0.5351563 -0.5063477
vn 0.6762695 0.5351563 0.5063477
vn 0.6762695 0.5351563 0.5063477
vn 0.6762695 0.5351563 0.5063477
vn 0.6762695 0.5351563 0.5063477
vn 0.3994141 -0.9038086 -0.1534424
vn 0.3994141 -0.9038086 -0.1534424
vn 0.3994141 -0.9038086 -0.1534424
vn 0.3994141 -0.9038086 -0.1534424

vt 0.4182129 0.03396606
vt 0.4221191 0.03396606
vt 0.4221191 0.03396606
vt 0.4182129 0.03396606
vt 0.4221191 0.03396606
vt 0.4221191 0.05322266
vt 0.4221191 0.05322266
vt 0.4221191 0.03396606
vt 0.4221191 0.05322266
vt 0.4182129 0.05322266
vt 0.4182129 0.05322266
vt 0.4221191 0.05322266
vt 0.4182129 0.05322266
vt 0.4182129 0.03396606
vt 0.4182129 0.03396606
vt 0.4182129 0.05322266
vt 0.4221191 0.05322266
vt 0.4182129 0.03396606
vt 0.4182129 0.05322266
vt 0.4221191 0.03396606
vt 0.5131836 0.875
vt 0.5151367 0.875
vt 0.5131836 0.875
vt 0.5151367 0.875
vt 0.5170898 0.875
vt 0.5170898 0.875
vt 0.5170898 0.875
vt 0.5170898 0.894043
vt 0.5170898 0.894043
vt 0.5170898 0.875
vt 0.5170898 0.894043
vt 0.5151367 0.894043
vt 0.5170898 0.894043
vt 0.5151367 0.894043
vt 0.5131836 0.894043
vt 0.5131836 0.894043
vt 0.5131836 0.894043
vt 0.5131836 0.875
vt 0.5131836 0.875
vt 0.5131836 0.894043
vt 0.5170898 0.894043
vt 0.5151367 0.875
vt 0.5151367 0.894043
vt 0.5170898 0.875
vt 0.5131836 0.894043
vt 0.5151367 0.875
vt 0.5151367 0.894043
vt 0.5131836 0.875
vt 0.5131836 0.894043
vt 0.5151367 0.875
vt 0.5131836 0.875
vt 0.5151367 0.894043
vt 0.5170898 0.894043
vt 0.5151367 0.875
vt 0.5170898 0.875
vt 0.5151367 0.894043

g Arrow_01_1111_32
usemtl Arrow_01_1111_32
usemap Arrow_01_1111_32
f 1/1/1 3/3/3 2/2/2
f 2/2/2 4/4/4 1/1/1
f 5/5/5 7/7/7 6/6/6
f 6/6/6 8/8/8 5/5/5
f 9/9/9 11/11/11 10/10/10
f 10/10/10 12/12/12 9/9/9
f 13/13/13 15/15/15 14/14/14
f 14/14/14 16/16/16 13/13/13
f 17/17/17 19/19/19 18/18/18
f 18/18/18 20/20/20 17/17/17
f 21/21/21 23/23/23 22/22/22
f 22/22/22 24/24/24 21/21/21
f 24/24/24 22/22/22 25/25/25
f 25/25/25 26/26/26 24/24/24
f 27/27/27 29/29/29 28/28/28
f 28/28/28 30/30/30 27/27/27
f 31/31/31 33/33/33 32/32/32
f 32/32/32 34/34/34 31/31/31
f 34/34/34 32/32/32 35/35/35
f 35/35/35 36/36/36 34/34/34
f 37/37/37 39/39/39 38/38/38
f 38/38/38 40/40/40 37/37/37
f 41/41/41 43/43/43 42/42/42
f 42/42/42 44/44/44 41/41/41
f 45/45/45 47/47/47 46/46/46
f 46/46/46 48/48/48 45/45/45
f 49/49/49 51/51/51 50/50/50
f 50/50/50 52/52/52 49/49/49
f 53/53/53 55/55/55 54/54/54
f 54/54/54 56/56/56 53/53/53
