#Blood_01_(1)_1169_51.obj

v 0.1904173 0.1696614 0.002941404
v 0.1724276 0.1771572 0.002938815
v 0.166431 0.2056404 0.002928977
v 0.2076568 0.2243785 0.002922506
v 0.2256466 0.217633 0.002924835
v 0.2393985 0.1928189 0.002933405
v 0.1827141 0.1605458 0.002944552
v 0.2226478 0.1434268 0.002950445
v 0.2346402 0.1569186 0.002945805
v 0.2114046 0.1434268 0.002950445
v 0.1880857 0.1467735 0.002949308
v 0.1124625 0.09395608 0.002967551
v 0.1461933 0.09770395 0.002966257
v 0.1289526 0.09245652 0.002968069
v -0.1408885 0.1636652 0.002943474
v 0.0929744 0.09920253 0.002965739
v -0.01046519 0.1389295 0.002951999
v -0.03145206 0.1441765 0.002950187
v 0.003026692 0.1464251 0.002949429
v -0.09666423 0.1996431 0.002931048
v -0.1281458 0.1854017 0.002935967
v -0.04719361 0.1906484 0.002934155
v -0.03969787 0.1779068 0.002938556
v -0.05618741 0.2033916 0.002929754
v 0.1124626 0.1501721 0.002948135
v 0.1252049 0.1464257 0.002949428
v 0.134949 0.1449256 0.002949928
v 0.1461927 0.123938 0.002957177
v 0.1039277 0.1642963 0.002943257
v 0.09822145 0.2221303 0.002923282
v 0.109711 0.1721471 0.002940545
v 0.1139612 0.1951461 0.002932602
v 0.116728 0.1834827 0.002936631
v 0.1139612 0.2093877 0.002927683
v 0.06673868 0.2183825 0.002924576
v 0.01352086 0.1644147 0.002943216
v 0.03225976 0.1928972 0.002933378
v 0.0764837 0.2258787 0.002921987
v 0.08838316 0.2310142 0.002920213
v 0.0929744 0.09920253 0.002965739
v -0.1356417 0.1419273 0.002950964
v -0.1408885 0.1636652 0.002943474
v -0.1333926 0.1171922 0.002959507
v -0.1333926 0.09770418 0.002966257
v -0.2548208 0.01225402 0.002995769
v -0.1603769 0.08121412 0.002971952
v -0.2255883 0.06547213 0.002977389
v -0.2038018 0.08074506 0.002972114
v -0.2473251 0.0354901 0.002987744
v -0.2120963 -0.02222609 0.003007679
v -0.2008531 -0.0252245 0.003008714
v -0.1912769 -0.03138992 0.003010843
v 0.08397866 0.09470544 0.002967292
v -0.1903597 -0.04321362 0.003014928
v 0.08173051 0.07746541 0.002973247
v 0.1034677 0.06397346 0.002977906
v -0.2457796 -0.01942695 0.003006712
v -0.2613234 -0.002948172 0.00300102
v -0.2277956 -0.02316842 0.003008005
v -0.2210911 -0.09118473 0.003031477
v -0.2038516 -0.05895406 0.003020363
v -0.213596 -0.06719941 0.003023211
v 0.07723282 -0.008733789 0.003003018
v 0.08173127 -0.02972087 0.003010267
v 0.08922587 0.01525203 0.002994734
v 0.1042172 0.03324105 0.002988522
v 0.02251565 -0.1436544 0.003049618
v 0.009773433 -0.1698889 0.003058679
v 0.03375898 -0.1234161 0.003042629
v 0.04275411 -0.1151714 0.003039781
v 0.0667394 -0.1174201 0.003040557
v -0.005217955 -0.2073659 0.003071623
v 0.1147111 -0.1384078 0.003047806
v 0.1057158 -0.05145865 0.003017775
v 0.07423498 -0.1339103 0.003046253
v 0.1409459 -0.08518855 0.003029405
v 0.1327013 -0.06495021 0.003022434
v 0.1356987 -0.1129225 0.003039003
v 0.06299157 -0.1796334 0.003062045
v 0.1094641 -0.1563963 0.00305402
v 0.09072514 -0.1796323 0.003062045
v 0.05399776 -0.1586454 0.003054796
v 0.05624591 -0.1414053 0.003048841
v -0.1273965 -0.1661406 0.003057384
v -0.1626257 -0.166141 0.003057384
v -0.09441502 -0.1796333 0.003062045
v -0.2128454 -0.1481518 0.00305117
v -0.2210907 -0.1211675 0.00304185
v -0.1956056 -0.1683902 0.003058161
v -0.06743205 -0.211864 0.003073177
v -0.08841884 -0.2006202 0.003069293
v -0.04419468 -0.2126134 0.003073436

vn 0 1 -2.384186E-07
vn 0 1 -2.384186E-07
vn 0 1 -2.384186E-07
vn 0 1 -2.384186E-07
vn 0 1 -2.384186E-07
vn -1.192093E-07 1 -1.788139E-07
vn 5.960464E-08 1 2.384186E-07
vn -4.768372E-07 1 -1.192093E-07
vn -8.34465E-07 1 -1.907349E-06
vn -6.556511E-07 1 3.576279E-07
vn 7.748604E-07 1 2.980232E-07
vn 0 1 -2.384186E-07
vn 3.576279E-07 1 -5.960464E-08
vn 0 1 -2.384186E-07
vn -3.576279E-07 1 0
vn 2.026558E-06 1 -9.536743E-07
vn 2.44379E-06 1 -1.251698E-06
vn 1.728535E-06 1 -8.940697E-07
vn -9.536743E-07 1 5.960464E-08
vn -1.788139E-07 1 -1.192093E-07
vn 0 1 -2.384186E-07
vn -4.172325E-07 1 -1.788139E-07
vn -1.788139E-06 1 -1.132488E-06
vn 0 1 -2.384186E-07
vn 0 1 -2.384186E-07
vn 5.960464E-07 1 1.192093E-07
vn 1.847744E-06 1 8.940697E-07
vn 1.430511E-06 1 4.768372E-07
vn 0 1 -2.384186E-07
vn 0 1 -2.384186E-07
vn 0 1 -2.384186E-07
vn 0 1 -2.384186E-07
vn 0 1 -2.384186E-07
vn 0 1 -2.384186E-07
vn 0 1 -2.384186E-07
vn 0 1 -2.384186E-07
vn 0 1 -2.384186E-07
vn 0 1 -2.384186E-07
vn 0 1 -2.384186E-07
vn 2.026558E-06 1 -9.536743E-07
vn -5.960464E-07 1 -5.960464E-08
vn -3.576279E-07 1 0
vn 3.576279E-07 1 -4.768372E-07
vn 2.980232E-07 1 -4.768372E-07
vn 0 1 -2.384186E-07
vn 5.960464E-08 1 -4.172325E-07
vn 0 1 -2.384186E-07
vn 0 1 -2.384186E-07
vn 0 1 -2.384186E-07
vn 0 1 -2.384186E-07
vn 0 1 -2.384186E-07
vn 0 1 -2.384186E-07
vn -2.980232E-07 1 2.980232E-07
vn -1.788139E-07 1 1.192093E-07
vn 0 1 -2.384186E-07
vn 0 1 -2.384186E-07
vn 0 1 -2.384186E-07
vn 0 1 -2.384186E-07
vn 0 1 -2.384186E-07
vn 1.192093E-07 1 -5.960464E-08
vn -2.980232E-07 1 1.847744E-06
vn -3.576279E-07 1 9.536743E-07
vn 0 1 -2.384186E-07
vn 0 1 -2.384186E-07
vn 0 1 -2.384186E-07
vn 0 1 -2.384186E-07
vn 0 1 -2.384186E-07
vn 0 1 -2.384186E-07
vn -1.192093E-07 1 -1.072884E-06
vn 0 1 -2.384186E-07
vn 0 1 -2.384186E-07
vn 0 1 -2.384186E-07
vn 0 1 -2.384186E-07
vn 0 1 -2.384186E-07
vn 0 1 -2.384186E-07
vn 1.192093E-07 1 -5.960464E-08
vn -1.311302E-06 1 -5.960464E-08
vn 1.192093E-07 1 -1.609325E-06
vn 0 1 -2.384186E-07
vn 0 1 -2.384186E-07
vn 0 1 -2.384186E-07
vn 0 1 -2.384186E-07
vn 0 1 -2.384186E-07
vn 3.576279E-07 1 -3.576279E-07
vn 1.788139E-07 1 -3.576279E-07
vn 1.192093E-07 1 -2.980232E-07
vn 3.576279E-07 1 -2.384186E-07
vn 1.609325E-06 1 1.013279E-06
vn 0 1 -2.384186E-07
vn 0 1 -2.384186E-07
vn 0 1 -2.384186E-07
vn 0 1 -2.384186E-07

vt 0.04931641 0.8833008
vt 0.04937744 0.8833008
vt 0.04937744 0.8833008
vt 0.04928589 0.8837891
vt 0.04922485 0.8837891
vt 0.04922485 0.8833008
vt 0.04931641 0.8833008
vt 0.04922485 0.8833008
vt 0.04919434 0.8833008
vt 0.04925537 0.8833008
vt 0.04934692 0.8833008
vt 0.04953003 0.8828125
vt 0.04943848 0.8828125
vt 0.04946899 0.8828125
vt 0.0501709 0.8833008
vt 0.04956055 0.8828125
vt 0.04983521 0.8833008
vt 0.04989624 0.8833008
vt 0.04980469 0.8833008
vt 0.05004883 0.8833008
vt 0.05014038 0.8833008
vt 0.04992676 0.8833008
vt 0.04989624 0.8833008
vt 0.04995728 0.8833008
vt 0.04953003 0.8833008
vt 0.04949951 0.8833008
vt 0.04946899 0.8833008
vt 0.04943848 0.8828125
vt 0.04953003 0.8833008
vt 0.04956055 0.8837891
vt 0.04953003 0.8833008
vt 0.04949951 0.8833008
vt 0.04953003 0.8833008
vt 0.04949951 0.8833008
vt 0.04962158 0.8837891
vt 0.04977417 0.8833008
vt 0.04971313 0.8833008
vt 0.04962158 0.8837891
vt 0.04959106 0.8837891
vt 0.04956055 0.8828125
vt 0.05014038 0.8833008
vt 0.0501709 0.8833008
vt 0.05014038 0.8828125
vt 0.05014038 0.8828125
vt 0.05044556 0.8823242
vt 0.05020142 0.8828125
vt 0.05038452 0.8828125
vt 0.05032349 0.8828125
vt 0.05044556 0.8823242
vt 0.050354 0.8823242
vt 0.05032349 0.8823242
vt 0.05029297 0.8823242
vt 0.04959106 0.8828125
vt 0.05029297 0.8818359
vt 0.04959106 0.8828125
vt 0.04953003 0.8828125
vt 0.05041504 0.8823242
vt 0.05044556 0.8823242
vt 0.05038452 0.8823242
vt 0.05038452 0.8818359
vt 0.05032349 0.8818359
vt 0.050354 0.8818359
vt 0.04962158 0.8823242
vt 0.04959106 0.8823242
vt 0.04959106 0.8823242
vt 0.04953003 0.8823242
vt 0.04974365 0.8813477
vt 0.04977417 0.8813477
vt 0.04971313 0.8818359
vt 0.04968262 0.8818359
vt 0.04962158 0.8818359
vt 0.04980469 0.8813477
vt 0.04949951 0.8813477
vt 0.04953003 0.8818359
vt 0.04962158 0.8813477
vt 0.04943848 0.8818359
vt 0.04946899 0.8818359
vt 0.04946899 0.8818359
vt 0.0496521 0.8813477
vt 0.04953003 0.8813477
vt 0.04956055 0.8813477
vt 0.04968262 0.8813477
vt 0.0496521 0.8813477
vt 0.05014038 0.8813477
vt 0.05023193 0.8813477
vt 0.05004883 0.8813477
vt 0.050354 0.8813477
vt 0.05038452 0.8818359
vt 0.05029297 0.8813477
vt 0.04998779 0.8808594
vt 0.05001831 0.8813477
vt 0.04992676 0.8808594

g Blood_01_(1)_1169_51
usemtl Blood_01_(1)_1169_51
usemap Blood_01_(1)_1169_51
f 1/1/1 3/3/3 2/2/2
f 1/1/1 4/4/4 3/3/3
f 1/1/1 5/5/5 4/4/4
f 1/1/1 6/6/6 5/5/5
f 1/1/1 7/7/7 6/6/6
f 7/7/7 8/8/8 6/6/6
f 8/8/8 9/9/9 6/6/6
f 7/7/7 10/10/10 8/8/8
f 7/7/7 11/11/11 10/10/10
f 12/12/12 14/14/14 13/13/13
f 12/12/12 13/13/13 15/15/15
f 16/16/16 12/12/12 15/15/15
f 13/13/13 17/17/17 15/15/15
f 17/17/17 18/18/18 15/15/15
f 13/13/13 19/19/19 17/17/17
f 18/18/18 20/20/20 15/15/15
f 20/20/20 21/21/21 15/15/15
f 18/18/18 22/22/22 20/20/20
f 18/18/18 23/23/23 22/22/22
f 22/22/22 24/24/24 20/20/20
f 13/13/13 25/25/25 19/19/19
f 13/13/13 26/26/26 25/25/25
f 13/13/13 27/27/27 26/26/26
f 13/13/13 28/28/28 27/27/27
f 25/25/25 29/29/29 19/19/19
f 29/29/29 30/30/30 19/19/19
f 29/29/29 31/31/31 30/30/30
f 31/31/31 32/32/32 30/30/30
f 31/31/31 33/33/33 32/32/32
f 32/32/32 34/34/34 30/30/30
f 30/30/30 35/35/35 19/19/19
f 35/35/35 36/36/36 19/19/19
f 35/35/35 37/37/37 36/36/36
f 30/30/30 38/38/38 35/35/35
f 30/30/30 39/39/39 38/38/38
f 40/40/40 42/42/42 41/41/41
f 40/40/40 41/41/41 43/43/43
f 40/40/40 43/43/43 44/44/44
f 40/40/40 44/44/44 45/45/45
f 44/44/44 46/46/46 45/45/45
f 46/46/46 47/47/47 45/45/45
f 46/46/46 48/48/48 47/47/47
f 47/47/47 49/49/49 45/45/45
f 40/40/40 45/45/45 50/50/50
f 40/40/40 50/50/50 51/51/51
f 40/40/40 51/51/51 52/52/52
f 53/53/53 40/40/40 52/52/52
f 53/53/53 52/52/52 54/54/54
f 53/53/53 54/54/54 55/55/55
f 54/54/54 56/56/56 55/55/55
f 45/45/45 57/57/57 50/50/50
f 45/45/45 58/58/58 57/57/57
f 57/57/57 59/59/59 50/50/50
f 54/54/54 60/60/60 56/56/56
f 54/54/54 61/61/61 60/60/60
f 61/61/61 62/62/62 60/60/60
f 60/60/60 63/63/63 56/56/56
f 60/60/60 64/64/64 63/63/63
f 63/63/63 65/65/65 56/56/56
f 65/65/65 66/66/66 56/56/56
f 60/60/60 67/67/67 64/64/64
f 60/60/60 68/68/68 67/67/67
f 67/67/67 69/69/69 64/64/64
f 69/69/69 70/70/70 64/64/64
f 70/70/70 71/71/71 64/64/64
f 60/60/60 72/72/72 68/68/68
f 71/71/71 73/73/73 64/64/64
f 73/73/73 74/74/74 64/64/64
f 71/71/71 75/75/75 73/73/73
f 73/73/73 76/76/76 74/74/74
f 76/76/76 77/77/77 74/74/74
f 73/73/73 78/78/78 76/76/76
f 75/75/75 79/79/79 73/73/73
f 79/79/79 80/80/80 73/73/73
f 79/79/79 81/81/81 80/80/80
f 82/82/82 79/79/79 75/75/75
f 75/75/75 83/83/83 82/82/82
f 60/60/60 84/84/84 72/72/72
f 60/60/60 85/85/85 84/84/84
f 84/84/84 86/86/86 72/72/72
f 60/60/60 87/87/87 85/85/85
f 60/60/60 88/88/88 87/87/87
f 87/87/87 89/89/89 85/85/85
f 86/86/86 90/90/90 72/72/72
f 86/86/86 91/91/91 90/90/90
f 90/90/90 92/92/92 72/72/72
