#Blood_01_(2)_1164_8.obj

v 0.1904168 0.1696616 0.002941404
v 0.1724272 0.1771565 0.002938815
v 0.1664309 0.2056399 0.002928977
v 0.2076566 0.2243794 0.002922505
v 0.2256456 0.2176328 0.002924835
v 0.2393984 0.1928185 0.002933405
v 0.1827147 0.1605463 0.002944551
v 0.2226477 0.1434266 0.002950445
v 0.234641 0.1569187 0.002945805
v 0.2114044 0.143427 0.002950445
v 0.1880857 0.1467741 0.002949308
v 0.1124624 0.09395611 0.002967551
v 0.1461926 0.09770393 0.002966257
v 0.1289529 0.09245677 0.002968069
v -0.1408886 0.163665 0.002943474
v 0.09297427 0.09920289 0.002965739
v -0.01046496 0.1389291 0.002951999
v -0.0314526 0.144176 0.002950186
v 0.003026819 0.146425 0.002949429
v -0.09666406 0.1996438 0.002931048
v -0.1281458 0.185402 0.002935967
v -0.04719323 0.1906493 0.002934155
v -0.03969736 0.1779065 0.002938556
v -0.05618845 0.2033913 0.002929754
v 0.1124623 0.1501726 0.002948135
v 0.1252047 0.1464251 0.002949429
v 0.1349495 0.1449255 0.002949928
v 0.1461926 0.1239385 0.002957176
v 0.1039278 0.1642968 0.002943256
v 0.09822085 0.2221307 0.002923282
v 0.1097107 0.1721465 0.002940545
v 0.1139618 0.1951462 0.002932602
v 0.1167289 0.1834823 0.00293663
v 0.1139621 0.209388 0.002927683
v 0.06673972 0.2183823 0.002924576
v 0.01352079 0.1644142 0.002943216
v 0.03225951 0.1928977 0.002933378
v 0.07648412 0.2258781 0.002921987
v 0.0883827 0.2310144 0.002920213
v 0.09297427 0.09920289 0.002965739
v -0.1356414 0.1419273 0.002950964
v -0.1408886 0.163665 0.002943474
v -0.1333929 0.1171922 0.002959506
v -0.1333927 0.09770408 0.002966257
v -0.2548209 0.0122541 0.002995769
v -0.1603766 0.08121379 0.002971952
v -0.2255885 0.06547264 0.002977389
v -0.2038017 0.08074494 0.002972114
v -0.2473254 0.03549007 0.002987744
v -0.2120966 -0.02222584 0.003007679
v -0.2008527 -0.02522407 0.003008714
v -0.1912768 -0.03139054 0.003010843
v 0.0839793 0.09470518 0.002967292
v -0.190359 -0.04321327 0.003014927
v 0.0817311 0.07746566 0.002973246
v 0.1034678 0.0639734 0.002977906
v -0.2457796 -0.01942611 0.003006712
v -0.2613234 -0.002947791 0.00300102
v -0.2277961 -0.02316863 0.003008004
v -0.221091 -0.09118474 0.003031477
v -0.2038513 -0.0589541 0.003020364
v -0.2135951 -0.06719922 0.00302321
v 0.07723349 -0.008733758 0.003003018
v 0.08173081 -0.02972101 0.003010267
v 0.08922614 0.01525259 0.002994734
v 0.104217 0.03324153 0.002988521
v 0.02251541 -0.1436543 0.003049618
v 0.009773082 -0.1698887 0.003058679
v 0.03375886 -0.123416 0.003042628
v 0.04275367 -0.1151709 0.00303978
v 0.06673966 -0.1174193 0.003040557
v -0.00521812 -0.2073664 0.003071623
v 0.1147114 -0.1384074 0.003047806
v 0.1057165 -0.05145812 0.003017775
v 0.07423525 -0.1339102 0.003046253
v 0.1409458 -0.08518838 0.003029405
v 0.1327007 -0.06495083 0.003022434
v 0.1356987 -0.1129225 0.003039003
v 0.06299152 -0.1796331 0.003062045
v 0.1094643 -0.1563966 0.00305402
v 0.09072563 -0.1796332 0.003062045
v 0.05399727 -0.1586456 0.003054796
v 0.05624591 -0.1414054 0.003048841
v -0.1273964 -0.1661408 0.003057384
v -0.1626252 -0.1661409 0.003057384
v -0.09441525 -0.1796333 0.003062045
v -0.2128458 -0.1481517 0.00305117
v -0.2210913 -0.1211673 0.00304185
v -0.1956057 -0.1683896 0.003058161
v -0.06743114 -0.2118641 0.003073177
v -0.08841901 -0.2006202 0.003069293
v -0.04419542 -0.2126138 0.003073436

vn 0 1 -2.384186E-07
vn 0 1 -2.384186E-07
vn 0 1 -2.384186E-07
vn 0 1 -2.384186E-07
vn 0 1 -2.384186E-07
vn -1.192093E-07 1 -1.788139E-07
vn 5.960464E-08 1 2.384186E-07
vn -4.768372E-07 1 -1.192093E-07
vn -8.34465E-07 1 -1.907349E-06
vn -6.556511E-07 1 3.576279E-07
vn 7.748604E-07 1 2.980232E-07
vn 0 1 -2.384186E-07
vn 3.576279E-07 1 -5.960464E-08
vn 0 1 -2.384186E-07
vn -3.576279E-07 1 0
vn 2.026558E-06 1 -9.536743E-07
vn 2.44379E-06 1 -1.251698E-06
vn 1.728535E-06 1 -8.940697E-07
vn -9.536743E-07 1 5.960464E-08
vn -1.788139E-07 1 -1.192093E-07
vn 0 1 -2.384186E-07
vn -4.172325E-07 1 -1.788139E-07
vn -1.788139E-06 1 -1.132488E-06
vn 0 1 -2.384186E-07
vn 0 1 -2.384186E-07
vn 5.960464E-07 1 1.192093E-07
vn 1.847744E-06 1 8.940697E-07
vn 1.430511E-06 1 4.768372E-07
vn 0 1 -2.384186E-07
vn 0 1 -2.384186E-07
vn 0 1 -2.384186E-07
vn 0 1 -2.384186E-07
vn 0 1 -2.384186E-07
vn 0 1 -2.384186E-07
vn 0 1 -2.384186E-07
vn 0 1 -2.384186E-07
vn 0 1 -2.384186E-07
vn 0 1 -2.384186E-07
vn 0 1 -2.384186E-07
vn 2.026558E-06 1 -9.536743E-07
vn -5.960464E-07 1 -5.960464E-08
vn -3.576279E-07 1 0
vn 3.576279E-07 1 -4.768372E-07
vn 2.980232E-07 1 -4.768372E-07
vn 0 1 -2.384186E-07
vn 5.960464E-08 1 -4.172325E-07
vn 0 1 -2.384186E-07
vn 0 1 -2.384186E-07
vn 0 1 -2.384186E-07
vn 0 1 -2.384186E-07
vn 0 1 -2.384186E-07
vn 0 1 -2.384186E-07
vn -2.980232E-07 1 2.980232E-07
vn -1.788139E-07 1 1.192093E-07
vn 0 1 -2.384186E-07
vn 0 1 -2.384186E-07
vn 0 1 -2.384186E-07
vn 0 1 -2.384186E-07
vn 0 1 -2.384186E-07
vn 1.192093E-07 1 -5.960464E-08
vn -2.980232E-07 1 1.847744E-06
vn -3.576279E-07 1 9.536743E-07
vn 0 1 -2.384186E-07
vn 0 1 -2.384186E-07
vn 0 1 -2.384186E-07
vn 0 1 -2.384186E-07
vn 0 1 -2.384186E-07
vn 0 1 -2.384186E-07
vn -1.192093E-07 1 -1.072884E-06
vn 0 1 -2.384186E-07
vn 0 1 -2.384186E-07
vn 0 1 -2.384186E-07
vn 0 1 -2.384186E-07
vn 0 1 -2.384186E-07
vn 0 1 -2.384186E-07
vn 1.192093E-07 1 -5.960464E-08
vn -1.311302E-06 1 -5.960464E-08
vn 1.192093E-07 1 -1.609325E-06
vn 0 1 -2.384186E-07
vn 0 1 -2.384186E-07
vn 0 1 -2.384186E-07
vn 0 1 -2.384186E-07
vn 0 1 -2.384186E-07
vn 3.576279E-07 1 -3.576279E-07
vn 1.788139E-07 1 -3.576279E-07
vn 1.192093E-07 1 -2.980232E-07
vn 3.576279E-07 1 -2.384186E-07
vn 1.609325E-06 1 1.013279E-06
vn 0 1 -2.384186E-07
vn 0 1 -2.384186E-07
vn 0 1 -2.384186E-07
vn 0 1 -2.384186E-07

vt 0.04931641 0.8833008
vt 0.04937744 0.8833008
vt 0.04937744 0.8833008
vt 0.04928589 0.8837891
vt 0.04922485 0.8837891
vt 0.04922485 0.8833008
vt 0.04931641 0.8833008
vt 0.04922485 0.8833008
vt 0.04919434 0.8833008
vt 0.04925537 0.8833008
vt 0.04934692 0.8833008
vt 0.04953003 0.8828125
vt 0.04943848 0.8828125
vt 0.04946899 0.8828125
vt 0.0501709 0.8833008
vt 0.04956055 0.8828125
vt 0.04983521 0.8833008
vt 0.04989624 0.8833008
vt 0.04980469 0.8833008
vt 0.05004883 0.8833008
vt 0.05014038 0.8833008
vt 0.04992676 0.8833008
vt 0.04989624 0.8833008
vt 0.04995728 0.8833008
vt 0.04953003 0.8833008
vt 0.04949951 0.8833008
vt 0.04946899 0.8833008
vt 0.04943848 0.8828125
vt 0.04953003 0.8833008
vt 0.04956055 0.8837891
vt 0.04953003 0.8833008
vt 0.04949951 0.8833008
vt 0.04953003 0.8833008
vt 0.04949951 0.8833008
vt 0.04962158 0.8837891
vt 0.04977417 0.8833008
vt 0.04971313 0.8833008
vt 0.04962158 0.8837891
vt 0.04959106 0.8837891
vt 0.04956055 0.8828125
vt 0.05014038 0.8833008
vt 0.0501709 0.8833008
vt 0.05014038 0.8828125
vt 0.05014038 0.8828125
vt 0.05044556 0.8823242
vt 0.05020142 0.8828125
vt 0.05038452 0.8828125
vt 0.05032349 0.8828125
vt 0.05044556 0.8823242
vt 0.050354 0.8823242
vt 0.05032349 0.8823242
vt 0.05029297 0.8823242
vt 0.04959106 0.8828125
vt 0.05029297 0.8818359
vt 0.04959106 0.8828125
vt 0.04953003 0.8828125
vt 0.05041504 0.8823242
vt 0.05044556 0.8823242
vt 0.05038452 0.8823242
vt 0.05038452 0.8818359
vt 0.05032349 0.8818359
vt 0.050354 0.8818359
vt 0.04962158 0.8823242
vt 0.04959106 0.8823242
vt 0.04959106 0.8823242
vt 0.04953003 0.8823242
vt 0.04974365 0.8813477
vt 0.04977417 0.8813477
vt 0.04971313 0.8818359
vt 0.04968262 0.8818359
vt 0.04962158 0.8818359
vt 0.04980469 0.8813477
vt 0.04949951 0.8813477
vt 0.04953003 0.8818359
vt 0.04962158 0.8813477
vt 0.04943848 0.8818359
vt 0.04946899 0.8818359
vt 0.04946899 0.8818359
vt 0.0496521 0.8813477
vt 0.04953003 0.8813477
vt 0.04956055 0.8813477
vt 0.04968262 0.8813477
vt 0.0496521 0.8813477
vt 0.05014038 0.8813477
vt 0.05023193 0.8813477
vt 0.05004883 0.8813477
vt 0.050354 0.8813477
vt 0.05038452 0.8818359
vt 0.05029297 0.8813477
vt 0.04998779 0.8808594
vt 0.05001831 0.8813477
vt 0.04992676 0.8808594

g Blood_01_(2)_1164_8
usemtl Blood_01_(2)_1164_8
usemap Blood_01_(2)_1164_8
f 1/1/1 3/3/3 2/2/2
f 1/1/1 4/4/4 3/3/3
f 1/1/1 5/5/5 4/4/4
f 1/1/1 6/6/6 5/5/5
f 1/1/1 7/7/7 6/6/6
f 7/7/7 8/8/8 6/6/6
f 8/8/8 9/9/9 6/6/6
f 7/7/7 10/10/10 8/8/8
f 7/7/7 11/11/11 10/10/10
f 12/12/12 14/14/14 13/13/13
f 12/12/12 13/13/13 15/15/15
f 16/16/16 12/12/12 15/15/15
f 13/13/13 17/17/17 15/15/15
f 17/17/17 18/18/18 15/15/15
f 13/13/13 19/19/19 17/17/17
f 18/18/18 20/20/20 15/15/15
f 20/20/20 21/21/21 15/15/15
f 18/18/18 22/22/22 20/20/20
f 18/18/18 23/23/23 22/22/22
f 22/22/22 24/24/24 20/20/20
f 13/13/13 25/25/25 19/19/19
f 13/13/13 26/26/26 25/25/25
f 13/13/13 27/27/27 26/26/26
f 13/13/13 28/28/28 27/27/27
f 25/25/25 29/29/29 19/19/19
f 29/29/29 30/30/30 19/19/19
f 29/29/29 31/31/31 30/30/30
f 31/31/31 32/32/32 30/30/30
f 31/31/31 33/33/33 32/32/32
f 32/32/32 34/34/34 30/30/30
f 30/30/30 35/35/35 19/19/19
f 35/35/35 36/36/36 19/19/19
f 35/35/35 37/37/37 36/36/36
f 30/30/30 38/38/38 35/35/35
f 30/30/30 39/39/39 38/38/38
f 40/40/40 42/42/42 41/41/41
f 40/40/40 41/41/41 43/43/43
f 40/40/40 43/43/43 44/44/44
f 40/40/40 44/44/44 45/45/45
f 44/44/44 46/46/46 45/45/45
f 46/46/46 47/47/47 45/45/45
f 46/46/46 48/48/48 47/47/47
f 47/47/47 49/49/49 45/45/45
f 40/40/40 45/45/45 50/50/50
f 40/40/40 50/50/50 51/51/51
f 40/40/40 51/51/51 52/52/52
f 53/53/53 40/40/40 52/52/52
f 53/53/53 52/52/52 54/54/54
f 53/53/53 54/54/54 55/55/55
f 54/54/54 56/56/56 55/55/55
f 45/45/45 57/57/57 50/50/50
f 45/45/45 58/58/58 57/57/57
f 57/57/57 59/59/59 50/50/50
f 54/54/54 60/60/60 56/56/56
f 54/54/54 61/61/61 60/60/60
f 61/61/61 62/62/62 60/60/60
f 60/60/60 63/63/63 56/56/56
f 60/60/60 64/64/64 63/63/63
f 63/63/63 65/65/65 56/56/56
f 65/65/65 66/66/66 56/56/56
f 60/60/60 67/67/67 64/64/64
f 60/60/60 68/68/68 67/67/67
f 67/67/67 69/69/69 64/64/64
f 69/69/69 70/70/70 64/64/64
f 70/70/70 71/71/71 64/64/64
f 60/60/60 72/72/72 68/68/68
f 71/71/71 73/73/73 64/64/64
f 73/73/73 74/74/74 64/64/64
f 71/71/71 75/75/75 73/73/73
f 73/73/73 76/76/76 74/74/74
f 76/76/76 77/77/77 74/74/74
f 73/73/73 78/78/78 76/76/76
f 75/75/75 79/79/79 73/73/73
f 79/79/79 80/80/80 73/73/73
f 79/79/79 81/81/81 80/80/80
f 82/82/82 79/79/79 75/75/75
f 75/75/75 83/83/83 82/82/82
f 60/60/60 84/84/84 72/72/72
f 60/60/60 85/85/85 84/84/84
f 84/84/84 86/86/86 72/72/72
f 60/60/60 87/87/87 85/85/85
f 60/60/60 88/88/88 87/87/87
f 87/87/87 89/89/89 85/85/85
f 86/86/86 90/90/90 72/72/72
f 86/86/86 91/91/91 90/90/90
f 90/90/90 92/92/92 72/72/72
