#Ground_Lava_03_(7)_487_163.obj

v 4.24771E-06 -16.00001 1.908457E-06
v 16 1.396754E-05 2.565712E-21
v 16 -15.99999 1.908457E-06
v 0 0 0
v 16 16 -1.908457E-06
v -16 -16 1.908457E-06
v -4.24771E-06 16.00001 -1.908457E-06
v -16 -1.396754E-05 -2.565712E-21
v -16 15.99999 -1.908457E-06

vn 0 1 -1.192093E-07
vn 0 1 -1.192093E-07
vn 0 1 -1.192093E-07
vn 0 1 -1.192093E-07
vn 0 1 -1.192093E-07
vn 0 1 -1.192093E-07
vn 0 1 -1.192093E-07
vn 0 1 -1.192093E-07
vn 0 1 -1.192093E-07

vt 0.5 0
vt 1 0.5
vt 1 0
vt 0.5 0.5
vt 1 1
vt 0 0
vt 0.5 1
vt 0 0.5
vt 0 1

g Ground_Lava_03_(7)_487_163
usemtl Ground_Lava_03_(7)_487_163
usemap Ground_Lava_03_(7)_487_163
f 1/1/1 3/3/3 2/2/2
f 2/2/2 4/4/4 1/1/1
f 4/4/4 2/2/2 5/5/5
f 6/6/6 1/1/1 4/4/4
f 5/5/5 7/7/7 4/4/4
f 4/4/4 8/8/8 6/6/6
f 8/8/8 4/4/4 7/7/7
f 7/7/7 9/9/9 8/8/8
