#Ground_Grass_01_(6)_570_59.obj

v -8.988709E-06 -16 1.908325E-06
v 16 -2.699341E-06 -4.958439E-22
v 16.00001 -16 1.908325E-06
v 0 0 0
v 16.00001 16 -1.908325E-06
v -16.00001 -16 1.908325E-06
v 1.044245E-05 16 -1.908325E-06
v -16 -2.13629E-06 -3.924166E-22
v -16.00001 16 -1.908325E-06

vn 0 1 -1.192093E-07
vn 0 1 -1.192093E-07
vn 0 1 -1.192093E-07
vn 0 1 -1.192093E-07
vn 0 1 -1.192093E-07
vn 0 1 -1.192093E-07
vn 0 1 -1.192093E-07
vn 0 1 -1.192093E-07
vn 0 1 -1.192093E-07

vt 0.5 0
vt 1 0.5
vt 1 0
vt 0.5 0.5
vt 1 1
vt 0 0
vt 0.5 1
vt 0 0.5
vt 0 1

g Ground_Grass_01_(6)_570_59
usemtl Ground_Grass_01_(6)_570_59
usemap Ground_Grass_01_(6)_570_59
f 1/1/1 3/3/3 2/2/2
f 2/2/2 4/4/4 1/1/1
f 4/4/4 2/2/2 5/5/5
f 6/6/6 1/1/1 4/4/4
f 5/5/5 7/7/7 4/4/4
f 4/4/4 8/8/8 6/6/6
f 8/8/8 4/4/4 7/7/7
f 7/7/7 9/9/9 8/8/8
