#Ground_Snow_01_(2)_420_128.obj

v -4.135468E-06 -16 1.908624E-06
v 16.00001 -2.570303E-07 -4.721413E-23
v 16 -16 1.908624E-06
v 0 0 0
v 16 15.99999 -1.908624E-06
v -16.00001 -16 1.908624E-06
v 4.135468E-06 16 -1.908624E-06
v -16.00001 2.570303E-07 4.721413E-23
v -16 16 -1.908624E-06

vn 0 1 -1.192093E-07
vn 0 1 -1.192093E-07
vn 0 1 -1.192093E-07
vn 0 1 -1.192093E-07
vn 0 1 -1.192093E-07
vn 0 1 -1.192093E-07
vn 0 1 -1.192093E-07
vn 0 1 -1.192093E-07
vn 0 1 -1.192093E-07

vt 0.5 0
vt 1 0.5
vt 1 0
vt 0.5 0.5
vt 1 1
vt 0 0
vt 0.5 1
vt 0 0.5
vt 0 1

g Ground_Snow_01_(2)_420_128
usemtl Ground_Snow_01_(2)_420_128
usemap Ground_Snow_01_(2)_420_128
f 1/1/1 3/3/3 2/2/2
f 2/2/2 4/4/4 1/1/1
f 4/4/4 2/2/2 5/5/5
f 6/6/6 1/1/1 4/4/4
f 5/5/5 7/7/7 4/4/4
f 4/4/4 8/8/8 6/6/6
f 8/8/8 4/4/4 7/7/7
f 7/7/7 9/9/9 8/8/8
