#Mountain_04_Volcano_(4)_566_76.obj

v 0.0420277 1.080907 1.900603
v -0.08693359 1.154337 0.04932237
v 0.0364195 1.368865 0.04932237
v -0.08693359 1.154337 0.04932237
v 0.0420277 1.080907 1.900603
v -0.05169261 0.7345212 2.291653
v 0.9165942 0.8163239 1.499514E-16
v 0.4563718 1.034328 2.002959
v 0.9824781 1.372659 2.521452E-16
v 0.3308663 0.6638228 2.466116
v -1.178411 -0.4750405 -8.726067E-17
v -0.6723107 -0.6490352 1.597351
v -1.222534 -1.061018 -1.948994E-16
v -0.5055541 -0.3615288 1.737091
v 1.505163 -0.392938 -7.21792E-17
v 0.941235 -0.5321862 0.5843766
v 1.157263 -0.2369086 0.5890837
v 1.187045 -0.8326778 -1.529554E-16
v -0.1270086 0.3942049 3.36358
v -0.174877 0.1422802 3.308246
v -0.2452661 0.2715216 3.362437
v 0.057358 0.3562871 3.303188
v 0.04656967 0.09360934 3.234861
v 0.127748 0.2270446 3.248998
v -0.07950076 -0.6539004 1.581477
v 0.4862427 -1.339942 -2.461353E-16
v -0.06463481 -1.170294 -2.149726E-16
v 0.393869 -0.9132334 1.405242
v 0.04656967 0.09360934 3.234861
v -0.07950076 -0.6539004 1.581477
v -0.6723107 -0.6490352 1.597351
v -0.5055541 -0.3615288 1.737091
v -0.3560787 -0.8584124 1.499554
v -1.222534 -1.061018 -1.948994E-16
v -0.3560787 -0.8584124 1.499554
v -0.4060744 -1.37266 -2.521454E-16
v -0.6723107 -0.6490352 1.597351
v -0.3560787 -0.8584124 1.499554
v -0.06463481 -1.170294 -2.149726E-16
v -0.4060744 -1.37266 -2.521454E-16
v -0.07950076 -0.6539004 1.581477
v 0.04656967 0.09360934 3.234861
v -0.5055541 -0.3615288 1.737091
v -0.174877 0.1422802 3.308246
v -0.07950076 -0.6539004 1.581477
v -0.05169261 0.7345212 2.291653
v 0.4563718 1.034328 2.002959
v 0.3308663 0.6638228 2.466116
v 0.0420277 1.080907 1.900603
v 0.4563718 1.034328 2.002959
v 0.0364195 1.368865 0.04932237
v 0.9824781 1.372659 2.521452E-16
v 0.0420277 1.080907 1.900603
v -0.1270086 0.3942049 3.36358
v 0.3308663 0.6638228 2.466116
v 0.057358 0.3562871 3.303188
v -0.05169261 0.7345212 2.291653
v 0.3308663 0.6638228 2.466116
v 0.127748 0.2270446 3.248998
v 0.057358 0.3562871 3.303188
v 0.9868657 0.007652814 0.8037668
v 0.9165942 0.8163239 1.499514E-16
v 1.156222 0.05005385 9.194443E-18
v -0.05169261 0.7345212 2.291653
v -0.413831 1.194834 0.04932237
v -0.08693359 1.154337 0.04932237
v -0.1270086 0.3942049 3.36358
v 1.157263 -0.2369086 0.5890837
v 0.6846299 -0.4354201 0.7953009
v 0.9868657 0.007652814 0.8037668
v 0.941235 -0.5321862 0.5843766
v 0.8377473 -0.867925 -1.5943E-16
v 0.941235 -0.5321862 0.5843766
v 1.187045 -0.8326778 -1.529554E-16
v 0.6846299 -0.4354201 0.7953009
v 0.9868657 0.007652814 0.8037668
v 0.04656967 0.09360934 3.234861
v 0.127748 0.2270446 3.248998
v 0.6846299 -0.4354201 0.7953009
v 1.157263 -0.2369086 0.5890837
v 1.156222 0.05005385 9.194443E-18
v 1.505163 -0.392938 -7.21792E-17
v 0.9868657 0.007652814 0.8037668
v 0.4862427 -1.339942 -2.461353E-16
v 0.6846299 -0.4354201 0.7953009
v 0.8377473 -0.867925 -1.5943E-16
v 0.393869 -0.9132334 1.405242
v 0.04656967 0.09360934 3.234861
v -0.8029932 0.8018169 0.02484592
v -1.06152 0.4137277 1.461127
v -1.505164 0.6243777 1.146926E-16
v -0.413831 1.194834 0.04932237
v -0.1270086 0.3942049 3.36358
v -0.2452661 0.2715216 3.362437
v -1.06152 0.4137277 1.461127
v -1.381165 -0.1502364 -2.759708E-17
v -1.505164 0.6243777 1.146926E-16
v -1.178411 -0.4750405 -8.726067E-17
v -0.5055541 -0.3615288 1.737091
v -0.2452661 0.2715216 3.362437
v -0.174877 0.1422802 3.308246

vn -0.9477539 0.07891846 -0.309082
vn -0.8920898 0.07989502 -0.4445801
vn -0.8852539 0.07989502 -0.458252
vn -0.8920898 0.07989502 -0.4445801
vn -0.9477539 0.07891846 -0.309082
vn -0.9506836 0.07879639 -0.3005371
vn 0.9702148 0.2337646 0.06451416
vn 0.9736328 0.2288818 0.008232117
vn 0.9697266 0.2342529 0.0715332
vn 0.9736328 0.2282715 0.001056671
vn -0.9487305 0.3105469 -0.05996704
vn -0.9072266 0.317627 -0.276123
vn -0.9506836 0.3083496 -0.02941895
vn -0.894043 0.3173828 -0.3164063
vn 0.7021484 0.5385742 0.4663086
vn 0.7011719 0.5366211 0.4694824
vn 0.699707 0.5341797 0.4741211
vn 0.7026367 0.5405273 0.4626465
vn 0.2646484 0.9335938 0.2418213
vn 0.2646484 0.9335938 0.2418213
vn 0.2646484 0.9335938 0.2418213
vn 0.2646484 0.9335938 0.2418213
vn 0.2646484 0.9335938 0.2418213
vn 0.2646484 0.9335938 0.2418213
vn -0.2946777 0.3574219 0.8862305
vn -0.2631836 0.2856445 0.9213867
vn -0.2404785 0.2954102 0.9248047
vn -0.3330078 0.2949219 0.8955078
vn -0.2775879 0.4108887 0.8686523
vn 0.03942871 0.9067383 0.4194336
vn 0.03961182 0.9033203 0.4274902
vn 0.04000854 0.8945313 0.4453125
vn 0.03881836 0.9179688 0.3952637
vn -0.3154297 0.3234863 0.8920898
vn -0.371582 0.3503418 0.8598633
vn -0.2988281 0.3154297 0.9008789
vn -0.3972168 0.3623047 0.8432617
vn 0.5517578 0.2692871 0.7895508
vn 0.5307617 0.2680664 0.8041992
vn 0.5273438 0.2678223 0.8061523
vn 0.5551758 0.2695313 0.7871094
vn -0.109314 0.3378906 0.9350586
vn -0.3547363 0.3967285 0.8466797
vn -0.0581665 0.3227539 0.9448242
vn -0.3776855 0.4008789 0.8344727
vn -0.1413574 0.6191406 -0.7724609
vn -0.1314697 0.6293945 -0.7661133
vn -0.1616211 0.5986328 -0.784668
vn -0.1091919 0.6508789 -0.7514648
vn 0.009262085 0.1574707 -0.9873047
vn -0.03012085 0.1658936 -0.9858398
vn -0.03878784 0.1677246 -0.9848633
vn 0.02932739 0.1530762 -0.987793
vn 0.1916504 0.3862305 -0.9023438
vn 0.0216217 0.3166504 -0.9482422
vn 0.2739258 0.4157715 -0.8671875
vn -0.005210876 0.3046875 -0.9526367
vn 0.9262695 0.3115234 -0.2125244
vn 0.8769531 0.3759766 -0.2993164
vn 0.8515625 0.3952637 -0.3439941
vn 0.9116211 0.2386475 -0.3342285
vn 0.9116211 0.2246094 -0.3444824
vn 0.9189453 0.2119141 -0.3325195
vn -0.4382324 0.2458496 -0.8647461
vn 0.04855347 0.1860352 -0.9814453
vn 0.07763672 0.1807861 -0.9804688
vn -0.4604492 0.2471924 -0.8525391
vn 0.5117188 0.7895508 0.3393555
vn 0.5126953 0.7871094 0.3430176
vn 0.5097656 0.7944336 0.3303223
vn 0.5151367 0.7802734 0.3549805
vn 0.123291 0.4851074 0.8657227
vn 0.1137085 0.4865723 0.8662109
vn 0.1262207 0.4846191 0.8657227
vn 0.1107178 0.4873047 0.8662109
vn 0.8032227 0.3208008 0.5019531
vn 0.8129883 0.3242188 0.4836426
vn 0.8144531 0.324707 0.480957
vn 0.8027344 0.3205566 0.5029297
vn 0.8203125 0.2346191 -0.5214844
vn 0.7651367 0.267334 -0.5859375
vn 0.7255859 0.2873535 -0.6254883
vn 0.8588867 0.2077637 -0.4682617
vn 0.8427734 0.3249512 0.4294434
vn 0.9199219 0.2497559 0.3017578
vn 0.746582 0.4321289 0.5063477
vn 0.9453125 0.2495117 0.2091064
vn 0.9438477 0.2885742 0.15979
vn -0.5683594 0.130249 -0.8125
vn -0.515625 0.2258301 -0.8266602
vn -0.2880859 0.2111816 -0.934082
vn -0.6713867 0.1270752 -0.7299805
vn -0.6640625 0.3183594 -0.6767578
vn -0.706543 0.3400879 -0.6201172
vn -0.8251953 0.3283691 0.4599609
vn -0.8564453 0.3295898 0.3969727
vn -0.9438477 0.2670898 0.1942139
vn -0.7768555 0.3579102 0.5180664
vn -0.7958984 0.3293457 0.5083008
vn -0.7568359 0.3312988 0.5634766
vn -0.734375 0.3381348 0.5883789

vt 0.05465698 0.5629883
vt 0.06033325 0
vt 0.03668213 0
vt 0.06033325 0
vt 0.05465698 0.5629883
vt 0.03198242 0.6826172
vt 0.8544922 0
vt 0.9165039 0.6020508
vt 0.9165039 0
vt 0.9165039 0.7368164
vt 0.3510742 0
vt 0.416748 0.5092773
vt 0.416748 0
vt 0.416748 0.6367188
vt 0.75 0
vt 0.6762695 0.1887207
vt 0.75 0.1905518
vt 0.6547852 0
vt 0.6665039 1
vt 0.08331299 1
vt 0.25 1
vt 0.9165039 1
vt 0.5834961 1
vt 0.75 1
vt 0.546875 0.590332
vt 0.5834961 0
vt 0.5361328 0
vt 0.5834961 0.4189453
vt 0.5834961 1
vt 0.546875 0.590332
vt 0.416748 0.5092773
vt 0.416748 0.6367188
vt 0.5341797 0.467041
vt 0.416748 0
vt 0.5341797 0.467041
vt 0.5053711 0
vt 0.416748 0.5092773
vt 0.5341797 0.467041
vt 0.5361328 0
vt 0.5053711 0
vt 0.546875 0.590332
vt 0.5834961 1
vt 0.416748 0.6367188
vt 0.416748 1
vt 0.546875 0.590332
vt 0.03198242 0.6826172
vt -0.08331299 0.6020508
vt -0.08331299 0.7368164
vt 0.05465698 0.5629883
vt -0.08331299 0.6020508
vt 0.03668213 0
vt -0.08331299 0
vt 0.05465698 0.5629883
vt 0.08331299 1
vt -0.08331299 0.7368164
vt -0.08331299 1
vt 0.03198242 0.6826172
vt 0.9165039 0.7368164
vt 0.75 1
vt 0.9165039 1
vt 0.75 0.3112793
vt 0.8544922 0
vt 0.7978516 0
vt 0.03198242 0.6826172
vt 0.08331299 0
vt 0.06033325 0
vt 0.08331299 1
vt 0.75 0.1905518
vt 0.6884766 0.3085938
vt 0.75 0.3112793
vt 0.6762695 0.1887207
vt 0.6293945 0
vt 0.6762695 0.1887207
vt 0.6547852 0
vt 0.6884766 0.3085938
vt 0.75 0.3112793
vt 0.5834961 1
vt 0.75 1
vt 0.6884766 0.3085938
vt 0.75 0.1905518
vt 0.7978516 0
vt 0.75 0
vt 0.75 0.3112793
vt 0.5834961 0
vt 0.6884766 0.3085938
vt 0.6293945 0
vt 0.5834961 0.4189453
vt 0.5834961 1
vt 0.1660156 0
vt 0.25 0.435791
vt 0.25 0
vt 0.08331299 0
vt 0.08331299 1
vt 0.25 1
vt 0.25 0.435791
vt 0.3110352 0
vt 0.25 0
vt 0.3510742 0
vt 0.416748 0.6367188
vt 0.25 1
vt 0.416748 1

g Mountain_04_Volcano_(4)_566_76
usemtl Mountain_04_Volcano_(4)_566_76
usemap Mountain_04_Volcano_(4)_566_76
f 1/1/1 3/3/3 2/2/2
f 4/4/4 6/6/6 5/5/5
f 7/7/7 9/9/9 8/8/8
f 8/8/8 10/10/10 7/7/7
f 11/11/11 13/13/13 12/12/12
f 12/12/12 14/14/14 11/11/11
f 15/15/15 17/17/17 16/16/16
f 16/16/16 18/18/18 15/15/15
f 19/19/19 21/21/21 20/20/20
f 20/20/20 22/22/22 19/19/19
f 22/22/22 20/20/20 23/23/23
f 23/23/23 24/24/24 22/22/22
f 25/25/25 27/27/27 26/26/26
f 26/26/26 28/28/28 25/25/25
f 28/28/28 29/29/29 25/25/25
f 30/30/30 32/32/32 31/31/31
f 31/31/31 33/33/33 30/30/30
f 34/34/34 36/36/36 35/35/35
f 35/35/35 37/37/37 34/34/34
f 38/38/38 40/40/40 39/39/39
f 39/39/39 41/41/41 38/38/38
f 42/42/42 44/44/44 43/43/43
f 43/43/43 45/45/45 42/42/42
f 46/46/46 48/48/48 47/47/47
f 47/47/47 49/49/49 46/46/46
f 50/50/50 52/52/52 51/51/51
f 51/51/51 53/53/53 50/50/50
f 54/54/54 56/56/56 55/55/55
f 55/55/55 57/57/57 54/54/54
f 58/58/58 60/60/60 59/59/59
f 59/59/59 61/61/61 58/58/58
f 62/62/62 58/58/58 61/61/61
f 61/61/61 63/63/63 62/62/62
f 64/64/64 66/66/66 65/65/65
f 65/65/65 67/67/67 64/64/64
f 68/68/68 70/70/70 69/69/69
f 69/69/69 71/71/71 68/68/68
f 72/72/72 74/74/74 73/73/73
f 73/73/73 75/75/75 72/72/72
f 76/76/76 78/78/78 77/77/77
f 77/77/77 79/79/79 76/76/76
f 80/80/80 82/82/82 81/81/81
f 81/81/81 83/83/83 80/80/80
f 84/84/84 86/86/86 85/85/85
f 85/85/85 87/87/87 84/84/84
f 85/85/85 88/88/88 87/87/87
f 89/89/89 91/91/91 90/90/90
f 92/92/92 89/89/89 90/90/90
f 90/90/90 93/93/93 92/92/92
f 90/90/90 94/94/94 93/93/93
f 95/95/95 97/97/97 96/96/96
f 95/95/95 96/96/96 98/98/98
f 98/98/98 99/99/99 95/95/95
f 100/100/100 95/95/95 99/99/99
f 99/99/99 101/101/101 100/100/100
