#Mountain_05_(3)_358_29.obj

v -4.194438 3.73795 -2.240292E-07
v -7.160106 1.713943 1.266889
v -7.665712 1.715765 -1.028321E-07
v -7.160106 1.713943 1.266889
v -4.194438 3.73795 -2.240292E-07
v -3.933566 3.677025 1.31277
v -7.254385 0.09803909 -5.875843E-09
v -7.160106 1.713943 1.266889
v -6.854489 0.1266451 1.188133
v -7.160106 1.713943 1.266889
v -7.254385 0.09803909 -5.875843E-09
v -7.665712 1.715765 -1.028321E-07
v 3.665561 -2.792712 2.025192
v 6.156198 -2.111067 1.903582
v 5.057959 -2.911883 2.005747
v 6.156198 -2.111067 1.903582
v 3.665561 -2.792712 2.025192
v 6.808693 0.05541276 1.847594
v 6.027656 2.450163 -1.468474E-07
v 7.66571 0.1829346 1.190308
v 6.030297 2.431468 1.334739
v 7.66571 0.1829346 1.190308
v 6.027656 2.450163 -1.468474E-07
v 7.664265 0.1545429 -9.262212E-09
v 6.820557 -2.677267 1.604586E-07
v 5.309934 -3.712569 1.392306
v 6.840151 -2.588094 1.264772
v 5.309934 -3.712569 1.392306
v 6.820557 -2.677267 1.604586E-07
v 5.29036 -3.835663 2.298857E-07
v -3.933566 3.677025 1.31277
v -1.70941 3.249512 2.029638
v -3.601105 2.925804 2.003494
v -1.70941 3.249512 2.029638
v -3.933566 3.677025 1.31277
v -2.041349 3.910073 1.316083
v -7.160106 1.713943 1.266889
v -3.601105 2.925804 2.003494
v -6.175473 1.341343 1.885148
v -3.601105 2.925804 2.003494
v -7.160106 1.713943 1.266889
v -3.933566 3.677025 1.31277
v -4.095047 -3.787009 1.314834
v -5.235808 -1.69664 1.877561
v -3.676631 -3.064917 1.995974
v -5.235808 -1.69664 1.877561
v -4.095047 -3.787009 1.314834
v -6.215343 -1.962352 1.209017
v 3.379786 -3.55097 1.370015
v 2.698069 -1.994801 2.001729
v 3.665561 -2.792712 2.025192
v 2.698069 -1.994801 2.001729
v 3.379786 -3.55097 1.370015
v 2.563112 -2.877886 1.327934
v 6.030297 2.431468 1.334739
v 6.808693 0.05541276 1.847594
v 5.621321 1.662613 1.970607
v 6.808693 0.05541276 1.847594
v 6.030297 2.431468 1.334739
v 7.66571 0.1829346 1.190308
v -6.215343 -1.962352 1.209017
v -4.903863 -0.680847 1.881354
v -5.235808 -1.69664 1.877561
v -4.903863 -0.680847 1.881354
v -6.215343 -1.962352 1.209017
v -5.818845 -0.7554328 1.199843
v 2.563112 -2.877886 1.327934
v 0.9772561 -2.664853 2.044155
v 2.698069 -1.994801 2.001729
v 0.9772561 -2.664853 2.044155
v 2.563112 -2.877886 1.327934
v 1.519777 -3.28609 1.342203
v 1.200387 -4.013341 1.371663
v -1.721833 -3.588947 2.053878
v 0.7337856 -3.31543 2.070017
v -1.721833 -3.588947 2.053878
v 1.200387 -4.013341 1.371663
v -1.810346 -4.398074 1.340716
v -6.854489 0.1266451 1.188133
v -6.175473 1.341343 1.885148
v -6.145761 0.6678348 1.84846
v -6.175473 1.341343 1.885148
v -6.854489 0.1266451 1.188133
v -7.160106 1.713943 1.266889
v 3.478029 2.897262 1.349744
v 4.602208 1.61883 1.984561
v 3.020836 2.256282 2.027464
v 4.602208 1.61883 1.984561
v 3.478029 2.897262 1.349744
v 4.761544 2.375829 1.331748
v -1.553585 4.357331 1.335883
v 0.37524 3.63005 2.069616
v -1.255427 3.675368 2.051443
v 0.37524 3.63005 2.069616
v -1.553585 4.357331 1.335883
v 0.5697155 4.42591 1.371162
v 1.391991 3.880753 1.362431
v 2.32968 3.012331 2.061684
v 1.141683 3.124538 2.055678
v 2.32968 3.012331 2.061684
v 1.391991 3.880753 1.362431
v 2.700606 3.75619 1.380967
v -2.041349 3.910073 1.316083
v -1.255427 3.675368 2.051443
v -1.70941 3.249512 2.029638
v -1.255427 3.675368 2.051443
v -2.041349 3.910073 1.316083
v -1.553585 4.357331 1.335883
v -1.810346 -4.398074 1.340716
v -3.676631 -3.064917 1.995974
v -1.721833 -3.588947 2.053878
v -3.676631 -3.064917 1.995974
v -1.810346 -4.398074 1.340716
v -4.095047 -3.787009 1.314834
v 4.602208 1.61883 1.984561
v 3.665561 -2.792712 2.025192
v 2.698069 -1.994801 2.001729
v 3.020836 2.256282 2.027464
v 0.9772561 -2.664853 2.044155
v 1.141683 3.124538 2.055678
v 4.602208 1.61883 1.984561
v 6.808693 0.05541276 1.847594
v 3.665561 -2.792712 2.025192
v 6.808693 0.05541276 1.847594
v 4.602208 1.61883 1.984561
v 5.621321 1.662613 1.970607
v -1.721833 -3.588947 2.053878
v 0.9772561 -2.664853 2.044155
v 0.7337856 -3.31543 2.070017
v 0.9772561 -2.664853 2.044155
v -1.721833 -3.588947 2.053878
v 1.141683 3.124538 2.055678
v 3.020836 2.256282 2.027464
v 1.141683 3.124538 2.055678
v 2.32968 3.012331 2.061684
v -1.255427 3.675368 2.051443
v -1.721833 -3.588947 2.053878
v -3.676631 -3.064917 1.995974
v -4.903863 -0.680847 1.881354
v -1.70941 3.249512 2.029638
v 1.141683 3.124538 2.055678
v -1.255427 3.675368 2.051443
v 0.37524 3.63005 2.069616
v -1.255427 3.675368 2.051443
v 1.141683 3.124538 2.055678
v -1.721833 -3.588947 2.053878
v -4.903863 -0.680847 1.881354
v -3.676631 -3.064917 1.995974
v -5.235808 -1.69664 1.877561
v -3.676631 -3.064917 1.995974
v -1.70941 3.249512 2.029638
v -1.255427 3.675368 2.051443
v -3.601105 2.925804 2.003494
v -4.903863 -0.680847 1.881354
v -5.550163 0.5868791 1.871905
v -4.903863 -0.680847 1.881354
v -3.601105 2.925804 2.003494
v -1.70941 3.249512 2.029638
v -3.601105 2.925804 2.003494
v -6.145761 0.6678348 1.84846
v -6.175473 1.341343 1.885148
v -6.145761 0.6678348 1.84846
v -3.601105 2.925804 2.003494
v -5.550163 0.5868791 1.871905
v 2.988737 -0.954172 3.558371
v 4.927302 -1.195458 3.473651
v 4.273016 -1.765045 3.533748
v 4.927302 -1.195458 3.473651
v 2.988737 -0.954172 3.558371
v 5.275126 0.2154035 3.436962
v -2.726503 2.226575 3.111868
v -1.627333 2.100533 3.639845
v -2.490649 1.783755 3.623822
v -1.627333 2.100533 3.639845
v -2.726503 2.226575 3.111868
v -1.736828 2.531922 3.136091
v -4.2586 1.670022 3.040777
v -2.490649 1.783755 3.623822
v -3.781435 1.271405 3.570411
v -2.490649 1.783755 3.623822
v -4.2586 1.670022 3.040777
v -2.726503 2.226575 3.111868
v -2.762824 -2.637125 3.153882
v -3.24927 -1.241542 3.622845
v -2.524919 -2.152814 3.694746
v -3.24927 -1.241542 3.622845
v -2.762824 -2.637125 3.153882
v -3.835068 -1.467505 3.049566
v 2.86206 -1.444476 3.07532
v 1.87546 -0.5585145 3.591151
v 2.988737 -0.954172 3.558371
v 1.87546 -0.5585145 3.591151
v 2.86206 -1.444476 3.07532
v 1.842499 -1.12021 3.100537
v 4.318974 1.08161 3.011747
v 5.275126 0.2154035 3.436962
v 4.085329 0.5904669 3.488198
v 5.275126 0.2154035 3.436962
v 4.318974 1.08161 3.011747
v 5.85276 0.3365159 2.925532
v -3.835068 -1.467505 3.049566
v -2.919594 -0.4388394 3.613438
v -3.24927 -1.241542 3.622845
v -2.919594 -0.4388394 3.613438
v -3.835068 -1.467505 3.049566
v -3.472837 -0.5373331 3.051367
v 1.842499 -1.12021 3.100537
v 0.8233244 -1.077235 3.643888
v 1.87546 -0.5585145 3.591151
v 0.8233244 -1.077235 3.643888
v 1.842499 -1.12021 3.100537
v 1.200467 -1.435826 3.127697
v 0.2291423 -2.617825 3.18853
v -0.963268 -2.359019 3.726504
v -0.08700194 -2.196543 3.711949
v -0.963268 -2.359019 3.726504
v 0.2291423 -2.617825 3.18853
v -0.9861142 -2.878272 3.200277
v -3.472837 -0.5373331 3.051367
v -3.322778 0.5950935 3.583383
v -2.919594 -0.4388394 3.613438
v -3.322778 0.5950935 3.583383
v -3.472837 -0.5373331 3.051367
v -3.648597 0.1871675 3.038027
v -4.378532 0.6425603 2.999554
v -3.781435 1.271405 3.570411
v -3.885536 0.8564682 3.556608
v -3.781435 1.271405 3.570411
v -4.378532 0.6425603 2.999554
v -4.2586 1.670022 3.040777
v -3.648597 0.1871675 3.038027
v -3.885536 0.8564682 3.556608
v -3.322778 0.5950935 3.583383
v -3.885536 0.8564682 3.556608
v -3.648597 0.1871675 3.038027
v -4.378532 0.6425603 2.999554
v 2.248857 2.168181 3.102164
v 2.789413 1.051331 3.539411
v 1.990716 1.749046 3.575721
v 2.789413 1.051331 3.539411
v 2.248857 2.168181 3.102164
v 2.852975 1.52686 3.06729
v 2.852975 1.52686 3.06729
v 4.085329 0.5904669 3.488198
v 2.789413 1.051331 3.539411
v 4.085329 0.5904669 3.488198
v 2.852975 1.52686 3.06729
v 4.318974 1.08161 3.011747
v -0.9990019 2.846009 3.15303
v -0.01927121 2.45252 3.640304
v -0.918726 2.408836 3.648573
v -0.01927121 2.45252 3.640304
v -0.9990019 2.846009 3.15303
v 0.05885154 2.944874 3.156976
v 0.6070421 2.649024 3.140079
v 1.247642 2.167137 3.60621
v 0.492764 2.174582 3.62133
v 1.247642 2.167137 3.60621
v 0.6070421 2.649024 3.140079
v 1.438892 2.641031 3.13326
v 4.504386 -2.265428 3.044842
v 2.988737 -0.954172 3.558371
v 4.273016 -1.765045 3.533748
v 2.988737 -0.954172 3.558371
v 4.504386 -2.265428 3.044842
v 2.86206 -1.444476 3.07532
v -0.9861142 -2.878272 3.200277
v -2.524919 -2.152814 3.694746
v -0.963268 -2.359019 3.726504
v -2.524919 -2.152814 3.694746
v -0.9861142 -2.878272 3.200277
v -2.762824 -2.637125 3.153882
v -0.963268 -2.359019 3.726504
v 0.8233244 -1.077235 3.643888
v -0.08700194 -2.196543 3.711949
v 0.8233244 -1.077235 3.643888
v -0.963268 -2.359019 3.726504
v 0.492764 2.174582 3.62133
v 1.990716 1.749046 3.575721
v 0.492764 2.174582 3.62133
v 1.247642 2.167137 3.60621
v -0.918726 2.408836 3.648573
v -0.963268 -2.359019 3.726504
v -2.524919 -2.152814 3.694746
v 0.492764 2.174582 3.62133
v -0.918726 2.408836 3.648573
v -0.01927121 2.45252 3.640304
v -0.918726 2.408836 3.648573
v 0.492764 2.174582 3.62133
v -0.963268 -2.359019 3.726504
v -2.919594 -0.4388394 3.613438
v -2.524919 -2.152814 3.694746
v -3.24927 -1.241542 3.622845
v -2.524919 -2.152814 3.694746
v -2.919594 -0.4388394 3.613438
v -1.627333 2.100533 3.639845
v -2.524919 -2.152814 3.694746
v -1.627333 2.100533 3.639845
v -0.918726 2.408836 3.648573
v -2.490649 1.783755 3.623822
v -2.919594 -0.4388394 3.613438
v -3.322778 0.5950935 3.583383
v -2.919594 -0.4388394 3.613438
v -2.490649 1.783755 3.623822
v -1.627333 2.100533 3.639845
v -2.490649 1.783755 3.623822
v -3.885536 0.8564682 3.556608
v -3.781435 1.271405 3.570411
v -3.885536 0.8564682 3.556608
v -2.490649 1.783755 3.623822
v -3.322778 0.5950935 3.583383
v 4.759294 2.393443 -1.434481E-07
v 6.030297 2.431468 1.334739
v 4.761544 2.375829 1.331748
v 6.027656 2.450163 -1.468474E-07
v 1.356403 3.947883 -2.366115E-07
v 2.700606 3.75619 1.380967
v 1.391991 3.880753 1.362431
v 2.681238 3.818191 -2.288384E-07
v -1.948852 -4.5141 2.705469E-07
v -4.095047 -3.787009 1.314834
v -1.810346 -4.398074 1.340716
v -4.341542 -3.890433 2.331682E-07
v 5.29036 -3.835663 2.298857E-07
v 3.379786 -3.55097 1.370015
v 5.309934 -3.712569 1.392306
v 3.363269 -3.663091 2.195427E-07
v -4.341542 -3.890433 2.331682E-07
v -6.215343 -1.962352 1.209017
v -4.095047 -3.787009 1.314834
v -6.545239 -2.030145 1.216741E-07
v 7.664265 0.1545429 -9.262212E-09
v 6.840151 -2.588094 1.264772
v 7.66571 0.1829346 1.190308
v 6.820557 -2.677267 1.604586E-07
v 3.363269 -3.663091 2.195427E-07
v 2.563112 -2.877886 1.327934
v 3.379786 -3.55097 1.370015
v 2.547072 -2.969807 1.779916E-07
v 1.492746 -3.384923 2.028712E-07
v 1.200387 -4.013341 1.371663
v 1.519777 -3.28609 1.342203
v 1.162396 -4.129621 2.475037E-07
v -6.545239 -2.030145 1.216741E-07
v -5.818845 -0.7554328 1.199843
v -6.215343 -1.962352 1.209017
v -6.111476 -0.7985747 4.786152E-08
v -6.504948 -0.04193785 2.513576E-09
v -6.854489 0.1266451 1.188133
v -6.170843 -0.01196546 1.198651
v -7.254385 0.09803909 -5.875843E-09
v -6.111476 -0.7985747 4.786152E-08
v -6.170843 -0.01196546 1.198651
v -5.818845 -0.7554328 1.199843
v -6.504948 -0.04193785 2.513576E-09
v 2.547072 -2.969807 1.779916E-07
v 1.519777 -3.28609 1.342203
v 2.563112 -2.877886 1.327934
v 1.492746 -3.384923 2.028712E-07
v 2.681238 3.818191 -2.288384E-07
v 3.478029 2.897262 1.349744
v 2.700606 3.75619 1.380967
v 3.469428 2.930436 -1.756321E-07
v 3.469428 2.930436 -1.756321E-07
v 4.761544 2.375829 1.331748
v 3.478029 2.897262 1.349744
v 4.759294 2.393443 -1.434481E-07
v -2.185759 3.97922 -2.384895E-07
v -1.553585 4.357331 1.335883
v -2.041349 3.910073 1.316083
v -1.678718 4.442872 -2.662778E-07
v -1.678718 4.442872 -2.662778E-07
v 0.5697155 4.42591 1.371162
v -1.553585 4.357331 1.335883
v 0.5145206 4.514102 -2.705469E-07
v 0.5145206 4.514102 -2.705469E-07
v 1.391991 3.880753 1.362431
v 0.5697155 4.42591 1.371162
v 1.356403 3.947883 -2.366115E-07
v -4.194438 3.73795 -2.240292E-07
v -2.041349 3.910073 1.316083
v -3.933566 3.677025 1.31277
v -2.185759 3.97922 -2.384895E-07
v 1.162396 -4.129621 2.475037E-07
v -1.810346 -4.398074 1.340716
v 1.200387 -4.013341 1.371663
v -1.948852 -4.5141 2.705469E-07
v 2.700606 3.75619 1.380967
v 3.020836 2.256282 2.027464
v 2.32968 3.012331 2.061684
v 3.478029 2.897262 1.349744
v 6.840151 -2.588094 1.264772
v 5.057959 -2.911883 2.005747
v 6.156198 -2.111067 1.903582
v 5.309934 -3.712569 1.392306
v 7.66571 0.1829346 1.190308
v 6.156198 -2.111067 1.903582
v 6.808693 0.05541276 1.847594
v 6.840151 -2.588094 1.264772
v -5.818845 -0.7554328 1.199843
v -5.550163 0.5868791 1.871905
v -4.903863 -0.680847 1.881354
v -6.170843 -0.01196546 1.198651
v -6.170843 -0.01196546 1.198651
v -6.145761 0.6678348 1.84846
v -5.550163 0.5868791 1.871905
v -6.854489 0.1266451 1.188133
v 1.519777 -3.28609 1.342203
v 0.7337856 -3.31543 2.070017
v 0.9772561 -2.664853 2.044155
v 1.200387 -4.013341 1.371663
v 4.761544 2.375829 1.331748
v 5.621321 1.662613 1.970607
v 4.602208 1.61883 1.984561
v 6.030297 2.431468 1.334739
v 0.5697155 4.42591 1.371162
v 1.141683 3.124538 2.055678
v 0.37524 3.63005 2.069616
v 1.391991 3.880753 1.362431
v 5.309934 -3.712569 1.392306
v 3.665561 -2.792712 2.025192
v 5.057959 -2.911883 2.005747
v 3.379786 -3.55097 1.370015
v 2.886441 1.562051 1.829556
v 4.318974 1.08161 3.011747
v 2.852975 1.52686 3.06729
v 4.387318 1.101506 1.797948
v 0.5794481 2.731197 1.858766
v 1.438892 2.641031 3.13326
v 0.6070421 2.649024 3.140079
v 1.437534 2.723164 1.866857
v -2.895442 2.289202 1.812996
v -4.2586 1.670022 3.040777
v -4.525049 1.710682 1.777505
v -2.726503 2.226575 3.111868
v -1.736828 2.531922 3.136091
v -2.726503 2.226575 3.111868
v -1.855698 2.608158 1.830727
v -4.656627 0.6456763 1.743983
v -4.2586 1.670022 3.040777
v -4.378532 0.6425603 2.999554
v -4.525049 1.710682 1.777505
v -1.076323 -2.99293 1.864342
v -2.762824 -2.637125 3.153882
v -0.9861142 -2.878272 3.200277
v -2.940943 -2.74291 1.826358
v 4.582381 -2.35234 1.808486
v 2.86206 -1.444476 3.07532
v 4.504386 -2.265428 3.044842
v 2.893496 -1.508825 1.811552
v -2.940943 -2.74291 1.826358
v -3.835068 -1.467505 3.049566
v -2.762824 -2.637125 3.153882
v -4.080203 -1.533349 1.761586
v 5.955956 0.332816 1.731586
v 5.425344 -1.466443 2.952784
v 5.85276 0.3365159 2.925532
v 5.520916 -1.526937 1.74064
v 4.387318 1.101506 1.797948
v 5.85276 0.3365159 2.925532
v 4.318974 1.08161 3.011747
v 5.955956 0.332816 1.731586
v 2.893496 -1.508825 1.811552
v 1.842499 -1.12021 3.100537
v 2.86206 -1.444476 3.07532
v 1.845886 -1.175866 1.820386
v 1.185654 -1.50202 1.832828
v 0.2291423 -2.617825 3.18853
v 1.200467 -1.435826 3.127697
v 0.1852698 -2.722826 1.867194
v -4.080203 -1.533349 1.761586
v -3.472837 -0.5373331 3.051367
v -3.835068 -1.467505 3.049566
v -3.692059 -0.5744603 1.763973
v -3.877166 0.1737542 1.759634
v -4.378532 0.6425603 2.999554
v -3.648597 0.1871675 3.038027
v -4.656627 0.6456763 1.743983
v -3.692059 -0.5744603 1.763973
v -3.648597 0.1871675 3.038027
v -3.472837 -0.5373331 3.051367
v -3.877166 0.1737542 1.759634
v 1.845886 -1.175866 1.820386
v 1.200467 -1.435826 3.127697
v 1.842499 -1.12021 3.100537
v 1.185654 -1.50202 1.832828
v 1.437534 2.723164 1.866857
v 2.248857 2.168181 3.102164
v 1.438892 2.641031 3.13326
v 2.26891 2.229315 1.853532
v 2.26891 2.229315 1.853532
v 2.852975 1.52686 3.06729
v 2.248857 2.168181 3.102164
v 2.886441 1.562051 1.829556
v -1.855698 2.608158 1.830727
v -0.9990019 2.846009 3.15303
v -1.736828 2.531922 3.136091
v -1.08527 2.937354 1.847496
v -1.08527 2.937354 1.847496
v 0.05885154 2.944874 3.156976
v -0.9990019 2.846009 3.15303
v 0.01328289 3.041357 1.863065
v 0.01328289 3.041357 1.863065
v 0.6070421 2.649024 3.140079
v 0.05885154 2.944874 3.156976
v 0.5794481 2.731197 1.858766
v 5.520916 -1.526937 1.74064
v 4.504386 -2.265428 3.044842
v 5.425344 -1.466443 2.952784
v 4.582381 -2.35234 1.808486
v 0.1852698 -2.722826 1.867194
v -0.9861142 -2.878272 3.200277
v 0.2291423 -2.617825 3.18853
v -1.076323 -2.99293 1.864342
v 1.438892 2.641031 3.13326
v 1.990716 1.749046 3.575721
v 1.247642 2.167137 3.60621
v 2.248857 2.168181 3.102164
v 5.425344 -1.466443 2.952784
v 4.273016 -1.765045 3.533748
v 4.927302 -1.195458 3.473651
v 4.504386 -2.265428 3.044842
v 5.85276 0.3365159 2.925532
v 4.927302 -1.195458 3.473651
v 5.275126 0.2154035 3.436962
v 5.425344 -1.466443 2.952784
v 1.200467 -1.435826 3.127697
v -0.08700194 -2.196543 3.711949
v 0.8233244 -1.077235 3.643888
v 0.2291423 -2.617825 3.18853
v 0.05885154 2.944874 3.156976
v 0.492764 2.174582 3.62133
v -0.01927121 2.45252 3.640304
v 0.6070421 2.649024 3.140079
v -1.736828 2.531922 3.136091
v -0.918726 2.408836 3.648573
v -1.627333 2.100533 3.639845
v -0.9990019 2.846009 3.15303
v 2.988737 -0.954172 3.558371
v 4.085329 0.5904669 3.488198
v 5.275126 0.2154035 3.436962
v 2.789413 1.051331 3.539411
v 1.87546 -0.5585145 3.591151
v 1.990716 1.749046 3.575721
v 0.8233244 -1.077235 3.643888
v 0.492764 2.174582 3.62133

vn -0.277832 0.1010742 -0.9550781
vn -0.277832 0.1010742 -0.9550781
vn -0.277832 0.1010742 -0.9550781
vn -0.2983398 0.07177734 -0.9516602
vn -0.2983398 0.07177734 -0.9516602
vn -0.2983398 0.07177734 -0.9516602
vn -0.9853516 0.1657715 -0.03744507
vn -0.9853516 0.1657715 -0.03744507
vn -0.9853516 0.1657715 -0.03744507
vn -0.9814453 0.1906738 0.004432678
vn -0.9814453 0.1906738 0.004432678
vn -0.9814453 0.1906738 0.004432678
vn 0.0880127 0.980957 -0.1732178
vn 0.0880127 0.980957 -0.1732178
vn 0.0880127 0.980957 -0.1732178
vn 0.09326172 0.9956055 -0.00151062
vn 0.09326172 0.9956055 -0.00151062
vn 0.09326172 0.9956055 -0.00151062
vn 0.9272461 0.003335953 -0.3747559
vn 0.9272461 0.003335953 -0.3747559
vn 0.9272461 0.003335953 -0.3747559
vn 0.9306641 -0.007457733 -0.3662109
vn 0.9306641 -0.007457733 -0.3662109
vn 0.9306641 -0.007457733 -0.3662109
vn 0.3823242 0.02386475 0.9238281
vn 0.3823242 0.02386475 0.9238281
vn 0.3823242 0.02386475 0.9238281
vn 0.3925781 0.03115845 0.9194336
vn 0.3925781 0.03115845 0.9194336
vn 0.3925781 0.03115845 0.9194336
vn 0.05114746 0.5029297 -0.862793
vn 0.05114746 0.5029297 -0.862793
vn 0.05114746 0.5029297 -0.862793
vn 0.107666 0.4406738 -0.8911133
vn 0.107666 0.4406738 -0.8911133
vn 0.107666 0.4406738 -0.8911133
vn -0.2895508 0.5766602 -0.7641602
vn -0.2895508 0.5766602 -0.7641602
vn -0.2895508 0.5766602 -0.7641602
vn -0.2678223 0.5092773 -0.8178711
vn -0.2678223 0.5092773 -0.8178711
vn -0.2678223 0.5092773 -0.8178711
vn -0.737793 0.5112305 0.4406738
vn -0.737793 0.5112305 0.4406738
vn -0.737793 0.5112305 0.4406738
vn -0.706543 0.5463867 0.449707
vn -0.706543 0.5463867 0.449707
vn -0.706543 0.5463867 0.449707
vn -0.7055664 0.5043945 0.498291
vn -0.7055664 0.5043945 0.498291
vn -0.7055664 0.5043945 0.498291
vn -0.7246094 0.4865723 0.4882813
vn -0.7246094 0.4865723 0.4882813
vn -0.7246094 0.4865723 0.4882813
vn 0.8149414 0.5131836 -0.2687988
vn 0.8149414 0.5131836 -0.2687988
vn 0.8149414 0.5131836 -0.2687988
vn 0.8115234 0.5180664 -0.2705078
vn 0.8115234 0.5180664 -0.2705078
vn 0.8115234 0.5180664 -0.2705078
vn -0.715332 0.5390625 -0.4443359
vn -0.715332 0.5390625 -0.4443359
vn -0.715332 0.5390625 -0.4443359
vn -0.7148438 0.527832 -0.4587402
vn -0.7148438 0.527832 -0.4587402
vn -0.7148438 0.527832 -0.4587402
vn 0.1323242 0.4943848 0.859375
vn 0.1323242 0.4943848 0.859375
vn 0.1323242 0.4943848 0.859375
vn 0.1240845 0.487793 0.8642578
vn 0.1240845 0.487793 0.8642578
vn 0.1240845 0.487793 0.8642578
vn -0.1234741 0.4714355 0.8730469
vn -0.1234741 0.4714355 0.8730469
vn -0.1234741 0.4714355 0.8730469
vn -0.1119995 0.4882813 0.8657227
vn -0.1119995 0.4882813 0.8657227
vn -0.1119995 0.4882813 0.8657227
vn -0.8564453 0.5019531 -0.1185303
vn -0.8564453 0.5019531 -0.1185303
vn -0.8564453 0.5019531 -0.1185303
vn -0.8203125 0.5717773 0.01094055
vn -0.8203125 0.5717773 0.01094055
vn -0.8203125 0.5717773 0.01094055
vn 0.5297852 0.4960938 -0.6879883
vn 0.5297852 0.4960938 -0.6879883
vn 0.5297852 0.4960938 -0.6879883
vn 0.5195313 0.5048828 -0.6894531
vn 0.5195313 0.5048828 -0.6894531
vn 0.5195313 0.5048828 -0.6894531
vn 0.2336426 0.4294434 -0.8725586
vn 0.2336426 0.4294434 -0.8725586
vn 0.2336426 0.4294434 -0.8725586
vn 0.1674805 0.4919434 -0.8544922
vn 0.1674805 0.4919434 -0.8544922
vn 0.1674805 0.4919434 -0.8544922
vn 0.2849121 0.4902344 -0.8237305
vn 0.2849121 0.4902344 -0.8237305
vn 0.2849121 0.4902344 -0.8237305
vn 0.276123 0.4946289 -0.8242188
vn 0.276123 0.4946289 -0.8242188
vn 0.276123 0.4946289 -0.8242188
vn -0.463623 0.4428711 -0.7675781
vn -0.463623 0.4428711 -0.7675781
vn -0.463623 0.4428711 -0.7675781
vn -0.451416 0.4396973 -0.7763672
vn -0.451416 0.4396973 -0.7763672
vn -0.451416 0.4396973 -0.7763672
vn -0.4467773 0.4912109 0.7475586
vn -0.4467773 0.4912109 0.7475586
vn -0.4467773 0.4912109 0.7475586
vn -0.4257813 0.512207 0.7456055
vn -0.4257813 0.512207 0.7456055
vn -0.4257813 0.512207 0.7456055
vn -0.02145386 0.9995117 -0.03038025
vn -0.02145386 0.9995117 -0.03038025
vn -0.02145386 0.9995117 -0.03038025
vn 0.04971313 0.9985352 0.02911377
vn 0.04971313 0.9985352 0.02911377
vn 0.0256958 0.9995117 0.01129913
vn 0.1126099 0.9931641 0.03512573
vn 0.1126099 0.9931641 0.03512573
vn 0.1126099 0.9931641 0.03512573
vn 0.0007610321 0.9912109 0.1309814
vn 0.0007610321 0.9912109 0.1309814
vn 0.0007610321 0.9912109 0.1309814
vn -0.0009422302 0.9960938 -0.09014893
vn -0.0009422302 0.9960938 -0.09014893
vn -0.0009422302 0.9960938 -0.09014893
vn 0.007331848 1 0.006160736
vn 0.007331848 1 0.006160736
vn 0.007331848 1 0.006160736
vn -0.04571533 0.9941406 0.09985352
vn -0.04571533 0.9941406 0.09985352
vn -0.04571533 0.9941406 0.09985352
vn -0.05487061 0.9985352 -0.01818848
vn -0.05487061 0.9985352 -0.01818848
vn -0.05487061 0.9985352 -0.01818848
vn -0.1165771 0.9912109 -0.05917358
vn -0.1165771 0.9912109 -0.05917358
vn -0.04614258 0.9956055 0.08325195
vn -0.04614258 0.9956055 0.08325195
vn -0.04614258 0.9956055 0.08325195
vn -0.003000259 1 -0.001654625
vn -0.003000259 1 -0.001654625
vn -0.003000259 1 -0.001654625
vn -0.1100464 0.9921875 -0.0607605
vn -0.1100464 0.9921875 -0.0607605
vn -0.1100464 0.9921875 -0.0607605
vn -0.1099243 0.9921875 -0.05511475
vn -0.1099243 0.9921875 -0.05511475
vn -0.1099243 0.9921875 -0.05511475
vn -0.09912109 0.9951172 0.009399414
vn -0.09912109 0.9951172 0.009399414
vn -0.09912109 0.9951172 0.009399414
vn -0.03125 0.9980469 0.05517578
vn -0.03125 0.9980469 0.05517578
vn -0.03125 0.9980469 0.05517578
vn -0.04956055 0.9936523 0.09967041
vn -0.04956055 0.9936523 0.09967041
vn -0.04956055 0.9936523 0.09967041
vn -0.09124756 0.9956055 0.02024841
vn -0.09124756 0.9956055 0.02024841
vn -0.09124756 0.9956055 0.02024841
vn 0.1181641 0.9907227 -0.06878662
vn 0.1181641 0.9907227 -0.06878662
vn 0.1181641 0.9907227 -0.06878662
vn 0.09460449 0.9956055 -0.006561279
vn 0.09460449 0.9956055 -0.006561279
vn 0.09460449 0.9956055 -0.006561279
vn -0.1112671 0.4394531 -0.8916016
vn -0.1112671 0.4394531 -0.8916016
vn -0.1112671 0.4394531 -0.8916016
vn -0.06890869 0.4050293 -0.9116211
vn -0.06890869 0.4050293 -0.9116211
vn -0.06890869 0.4050293 -0.9116211
vn -0.1529541 0.4682617 -0.8701172
vn -0.1529541 0.4682617 -0.8701172
vn -0.1529541 0.4682617 -0.8701172
vn -0.1311035 0.4401855 -0.8881836
vn -0.1311035 0.4401855 -0.8881836
vn -0.1311035 0.4401855 -0.8881836
vn -0.8520508 0.4035645 0.3334961
vn -0.8520508 0.4035645 0.3334961
vn -0.8520508 0.4035645 0.3334961
vn -0.8051758 0.4650879 0.3681641
vn -0.8051758 0.4650879 0.3681641
vn -0.8051758 0.4650879 0.3681641
vn -0.4677734 0.4655762 0.7514648
vn -0.4677734 0.4655762 0.7514648
vn -0.4677734 0.4655762 0.7514648
vn -0.4377441 0.4902344 0.7539063
vn -0.4377441 0.4902344 0.7539063
vn -0.4377441 0.4902344 0.7539063
vn 0.487793 0.4960938 -0.7182617
vn 0.487793 0.4960938 -0.7182617
vn 0.487793 0.4960938 -0.7182617
vn 0.6279297 0.348877 -0.6958008
vn 0.6279297 0.348877 -0.6958008
vn 0.6279297 0.348877 -0.6958008
vn -0.7441406 0.3686523 -0.5571289
vn -0.7441406 0.3686523 -0.5571289
vn -0.7441406 0.3686523 -0.5571289
vn -0.7509766 0.3947754 -0.5297852
vn -0.7509766 0.3947754 -0.5297852
vn -0.7509766 0.3947754 -0.5297852
vn 0.2286377 0.4389648 0.8691406
vn 0.2286377 0.4389648 0.8691406
vn 0.2286377 0.4389648 0.8691406
vn 0.2218018 0.4338379 0.8730469
vn 0.2218018 0.4338379 0.8730469
vn 0.2218018 0.4338379 0.8730469
vn -0.04211426 0.4152832 0.9086914
vn -0.04211426 0.4152832 0.9086914
vn -0.04211426 0.4152832 0.9086914
vn -0.02194214 0.432373 0.9013672
vn -0.02194214 0.432373 0.9013672
vn -0.02194214 0.432373 0.9013672
vn -0.8916016 0.4440918 0.09002686
vn -0.8916016 0.4440918 0.09002686
vn -0.8916016 0.4440918 0.09002686
vn -0.9355469 0.3525391 -0.01860046
vn -0.9355469 0.3525391 -0.01860046
vn -0.9355469 0.3525391 -0.01860046
vn -0.8320313 0.3649902 -0.4177246
vn -0.8320313 0.3649902 -0.4177246
vn -0.8320313 0.3649902 -0.4177246
vn -0.8544922 0.4335938 -0.2856445
vn -0.8544922 0.4335938 -0.2856445
vn -0.8544922 0.4335938 -0.2856445
vn -0.5961914 0.4267578 0.6801758
vn -0.5961914 0.4267578 0.6801758
vn -0.5961914 0.4267578 0.6801758
vn -0.6884766 0.3786621 0.6186523
vn -0.6884766 0.3786621 0.6186523
vn -0.6884766 0.3786621 0.6186523
vn 0.7475586 0.4558105 -0.4829102
vn 0.7475586 0.4558105 -0.4829102
vn 0.7475586 0.4558105 -0.4829102
vn 0.8271484 0.3605957 -0.4311523
vn 0.8271484 0.3605957 -0.4311523
vn 0.8271484 0.3605957 -0.4311523
vn 0.5224609 0.4440918 -0.7275391
vn 0.5224609 0.4440918 -0.7275391
vn 0.5224609 0.4440918 -0.7275391
vn 0.4763184 0.4956055 -0.7260742
vn 0.4763184 0.4956055 -0.7260742
vn 0.4763184 0.4956055 -0.7260742
vn 0.1850586 0.4077148 -0.894043
vn 0.1850586 0.4077148 -0.894043
vn 0.1850586 0.4077148 -0.894043
vn 0.1314697 0.4484863 -0.8842773
vn 0.1314697 0.4484863 -0.8842773
vn 0.1314697 0.4484863 -0.8842773
vn 0.2423096 0.4465332 -0.8613281
vn 0.2423096 0.4465332 -0.8613281
vn 0.2423096 0.4465332 -0.8613281
vn 0.2313232 0.4523926 -0.8613281
vn 0.2313232 0.4523926 -0.8613281
vn 0.2313232 0.4523926 -0.8613281
vn -0.6831055 0.298584 0.6665039
vn -0.6831055 0.298584 0.6665039
vn -0.6831055 0.298584 0.6665039
vn -0.565918 0.4594727 0.6845703
vn -0.565918 0.4594727 0.6845703
vn -0.565918 0.4594727 0.6845703
vn -0.345459 0.442627 0.8276367
vn -0.345459 0.442627 0.8276367
vn -0.345459 0.442627 0.8276367
vn -0.3544922 0.432373 0.8291016
vn -0.3544922 0.432373 0.8291016
vn -0.3544922 0.432373 0.8291016
vn 0.03869629 0.9936523 -0.1038208
vn 0.03869629 0.9936523 -0.1038208
vn 0.03869629 0.9936523 -0.1038208
vn 0.07922363 0.9970703 -0.002408981
vn 0.07922363 0.9970703 -0.002408981
vn 0.07922363 0.9970703 -0.002408981
vn 0.01957703 0.996582 0.0824585
vn 0.01957703 0.996582 0.0824585
vn 0.01957703 0.996582 0.0824585
vn -0.02705383 0.9990234 -0.04055786
vn -0.02705383 0.9990234 -0.04055786
vn -0.02705383 0.9990234 -0.04055786
vn -0.0005226135 0.9956055 0.0960083
vn -0.0005230904 0.9956055 0.0960083
vn -0.0005226135 0.9956055 0.0960083
vn 0.05010986 0.9985352 -0.02053833
vn 0.05010986 0.9985352 -0.02053833
vn 0.05010986 0.9985352 -0.02053833
vn -0.09014893 0.9916992 -0.09283447
vn -0.09014893 0.9916992 -0.09283447
vn -0.09014893 0.9916992 -0.09283447
vn -0.1350098 0.9863281 -0.09313965
vn -0.1350098 0.9863281 -0.09313965
vn -0.1350098 0.9863281 -0.09313965
vn -0.02984619 0.9985352 -0.04238892
vn -0.02984619 0.9985352 -0.04238892
vn -0.02984619 0.9985352 -0.04238892
vn -0.1078491 0.9931641 -0.04013062
vn -0.1078491 0.9931641 -0.04013062
vn -0.1078491 0.9931641 -0.04013062
vn -0.03552246 0.9995117 -0.006458282
vn -0.03552246 0.9995117 -0.006458282
vn -0.03552246 0.9995117 -0.006458282
vn -0.0723877 0.996582 0.03387451
vn -0.0723877 0.996582 0.03387451
vn -0.0723877 0.996582 0.03387451
vn -0.09216309 0.9956055 -0.0218811
vn -0.09216309 0.9956055 -0.0218811
vn -0.09216309 0.9956055 -0.0218811
vn 0.1992188 0.006679535 -0.9799805
vn 0.1992188 0.006679535 -0.9799805
vn 0.1992188 0.006679535 -0.9799805
vn 0.1984863 0.007080078 -0.9799805
vn 0.3322754 0.02342224 -0.9428711
vn 0.3322754 0.02342224 -0.9428711
vn 0.3322754 0.02342224 -0.9428711
vn 0.3354492 0.02177429 -0.9418945
vn -0.4848633 0.05541992 0.8730469
vn -0.4848633 0.05541992 0.8730469
vn -0.4848633 0.05541992 0.8730469
vn -0.4780273 0.06192017 0.8759766
vn -0.3227539 0.04483032 0.9453125
vn -0.3227539 0.04483032 0.9453125
vn -0.3227539 0.04483032 0.9453125
vn -0.3273926 0.04147339 0.9438477
vn -0.8168945 0.09136963 0.5693359
vn -0.8168945 0.09136963 0.5693359
vn -0.8168945 0.09136963 0.5693359
vn -0.8061523 0.109375 0.581543
vn 0.8608398 0.002838135 0.5087891
vn 0.8608398 0.002838135 0.5087891
vn 0.8608398 0.002838135 0.5087891
vn 0.8608398 0.002656937 0.5087891
vn -0.8051758 0.03552246 0.5922852
vn -0.8051758 0.03552246 0.5922852
vn -0.8051758 0.03552246 0.5922852
vn -0.8120117 0.03044128 0.5825195
vn 0.7915039 0.005599976 0.6113281
vn 0.7915039 0.005599976 0.6113281
vn 0.7915039 0.005599976 0.6113281
vn 0.7885742 0.004554749 0.6147461
vn -0.8393555 0.1205444 -0.5302734
vn -0.8393555 0.1205444 -0.5302734
vn -0.8393555 0.1205444 -0.5302734
vn -0.8295898 0.1090088 -0.5473633
vn -0.4306641 0.0402832 0.9013672
vn -0.4306641 0.0402832 0.9013672
vn -0.4306641 0.0402832 0.9013672
vn -0.4157715 0.04293823 0.9086914
vn -0.9736328 0.1177368 0.1947021
vn -0.9736328 0.1177368 0.1947021
vn -0.9736328 0.1177368 0.1947021
vn -0.9643555 0.1290283 0.230957
vn 0.1287842 0.03016663 0.9912109
vn 0.1287842 0.03016663 0.9912109
vn 0.1287842 0.03016663 0.9912109
vn 0.130127 0.0307312 0.9912109
vn 0.8818359 0.009910583 -0.4711914
vn 0.8818359 0.009910583 -0.4711914
vn 0.8818359 0.009910583 -0.4711914
vn 0.8862305 0.005809784 -0.4631348
vn 0.5898438 0.01023865 -0.8076172
vn 0.5898438 0.01023865 -0.8076172
vn 0.5898438 0.01023865 -0.8076172
vn 0.5961914 0.005813599 -0.8027344
vn -0.4794922 0.05673218 -0.8754883
vn -0.4794922 0.05673218 -0.8754883
vn -0.4794922 0.05673218 -0.8754883
vn -0.4753418 0.05545044 -0.8779297
vn 0.2093506 0.03372192 -0.9770508
vn 0.2093506 0.03372192 -0.9770508
vn 0.2093506 0.03372192 -0.9770508
vn 0.2103271 0.03295898 -0.9770508
vn 0.737793 0.01576233 -0.6748047
vn 0.737793 0.01576233 -0.6748047
vn 0.737793 0.01576233 -0.6748047
vn 0.7421875 0.01322937 -0.6699219
vn 0.1213989 0.03536987 -0.9921875
vn 0.1213989 0.03536987 -0.9921875
vn 0.1213989 0.03536987 -0.9921875
vn 0.1245117 0.03277588 -0.9916992
vn -0.1177979 0.04049683 0.9921875
vn -0.1177979 0.04049683 0.9921875
vn -0.1177979 0.04049683 0.9921875
vn -0.1211548 0.03677368 0.9921875
vn 0.7807617 0.4914551 -0.385498
vn 0.7807617 0.4914551 -0.385498
vn 0.7807617 0.4914551 -0.385498
vn 0.7792969 0.4929199 -0.3869629
vn 0.3901367 0.5380859 0.7475586
vn 0.3901367 0.5380859 0.7475586
vn 0.3901367 0.5380859 0.7475586
vn 0.3857422 0.5332031 0.7529297
vn 0.7470703 0.5195313 0.4150391
vn 0.7470703 0.5195313 0.4150391
vn 0.7470703 0.5195313 0.4150391
vn 0.7460938 0.5244141 0.4099121
vn -0.8266602 0.5322266 0.1837158
vn -0.8266602 0.5322266 0.1837158
vn -0.8266602 0.5322266 0.1837158
vn -0.8374023 0.5205078 0.1662598
vn -0.3615723 0.4621582 0.8095703
vn -0.3615723 0.4621582 0.8095703
vn -0.3615723 0.4621582 0.8095703
vn -0.3942871 0.4599609 0.7954102
vn 0.7529297 0.4536133 0.4770508
vn 0.7529297 0.4536133 0.4770508
vn 0.7529297 0.4536133 0.4770508
vn 0.7280273 0.4453125 0.5214844
vn 0.1865234 0.5014648 -0.8447266
vn 0.1865234 0.5014648 -0.8447266
vn 0.1865234 0.5014648 -0.8447266
vn 0.1691895 0.5097656 -0.84375
vn 0.6542969 0.4831543 -0.581543
vn 0.6542969 0.4831543 -0.581543
vn 0.6542969 0.4831543 -0.581543
vn 0.6508789 0.4858398 -0.5834961
vn -0.2585449 0.5395508 0.8012695
vn -0.2585449 0.5395508 0.8012695
vn -0.2585449 0.5395508 0.8012695
vn -0.2873535 0.5146484 0.8076172
vn 0.5146484 0.01763916 -0.8574219
vn 0.5146484 0.01763916 -0.8574219
vn 0.5146484 0.01763916 -0.8574219
vn 0.5166016 0.01618958 -0.855957
vn 0.251709 0.03210449 -0.9672852
vn 0.251709 0.03210449 -0.9672852
vn 0.251709 0.03210449 -0.9672852
vn 0.2504883 0.03259277 -0.9677734
vn -0.09844971 0.05084229 -0.9936523
vn -0.09844971 0.05084229 -0.9936523
vn -0.09844971 0.05084229 -0.9936523
vn -0.107605 0.04528809 -0.9931641
vn -0.05670166 0.04251099 -0.9975586
vn -0.05670166 0.04251099 -0.9975586
vn -0.05444336 0.04150391 -0.9975586
vn -0.9331055 0.1101685 -0.3425293
vn -0.9331055 0.1101685 -0.3425293
vn -0.9331055 0.1101685 -0.3425293
vn -0.9301758 0.1065674 -0.3508301
vn -0.3720703 0.04733276 0.9267578
vn -0.3720703 0.04733276 0.9267578
vn -0.3720703 0.04733276 0.9267578
vn -0.3701172 0.04873657 0.9277344
vn -0.6499023 0.01745605 0.7597656
vn -0.6499023 0.01745605 0.7597656
vn -0.6499023 0.01745605 0.7597656
vn -0.6499023 0.01731873 0.7597656
vn -0.8808594 0.07672119 0.467041
vn -0.8808594 0.07672119 0.467041
vn -0.8808594 0.07672119 0.467041
vn -0.8720703 0.08728027 0.4812012
vn 0.8881836 0.04260254 0.4577637
vn 0.8881836 0.04260254 0.4577637
vn 0.8881836 0.04260254 0.4577637
vn 0.8891602 0.04425049 0.4558105
vn 0.6430664 0.01982117 -0.765625
vn 0.6430664 0.01982117 -0.765625
vn 0.6430664 0.01982117 -0.765625
vn 0.6450195 0.01777649 -0.7636719
vn -0.5239258 0.02061462 0.8515625
vn -0.5239258 0.02061462 0.8515625
vn -0.5239258 0.02061462 0.8515625
vn -0.5244141 0.02043152 0.8515625
vn 0.5966797 0.01184845 0.8022461
vn 0.5966797 0.01184845 0.8022461
vn 0.5966797 0.01184845 0.8022461
vn 0.5976563 0.01239014 0.8017578
vn -0.8139648 0.07958984 -0.5756836
vn -0.8139648 0.07958984 -0.5756836
vn -0.8139648 0.07958984 -0.5756836
vn -0.8066406 0.07373047 -0.5864258
vn -0.7211914 0.05233765 0.690918
vn -0.7211914 0.05233765 0.690918
vn -0.7211914 0.05233765 0.690918
vn -0.7099609 0.05670166 0.7021484
vn -0.9960938 0.08630371 -0.009521484
vn -0.9960938 0.08630371 -0.009521484
vn -0.9960938 0.08630371 -0.009521484
vn -0.9960938 0.0881958 -0.002922058
vn 0.2122803 0.02018738 0.9770508
vn 0.2122803 0.02018738 0.9770508
vn 0.2122803 0.02018738 0.9770508
vn 0.2133789 0.02047729 0.9765625
vn 0.6992188 0.02784729 -0.7143555
vn 0.6992188 0.02784729 -0.7143555
vn 0.6992188 0.02784729 -0.7143555
vn 0.7041016 0.02526855 -0.7099609
vn 0.8730469 0.0227356 -0.4873047
vn 0.8730469 0.0227356 -0.4873047
vn 0.8730469 0.0227356 -0.4873047
vn 0.8769531 0.01968384 -0.4804688
vn -0.1590576 0.04495239 -0.9863281
vn -0.1590576 0.04495239 -0.9863281
vn -0.1590576 0.04495239 -0.9863281
vn -0.1602783 0.04537964 -0.9858398
vn 0.1502686 0.03808594 -0.987793
vn 0.1502686 0.03808594 -0.987793
vn 0.1502686 0.03808594 -0.987793
vn 0.1483154 0.03897095 -0.9882813
vn 0.6748047 0.02453613 -0.737793
vn 0.6748047 0.02453613 -0.737793
vn 0.6748047 0.02453613 -0.737793
vn 0.6787109 0.02305603 -0.734375
vn 0.4584961 0.04498291 0.8876953
vn 0.4584961 0.04498291 0.8876953
vn 0.4584961 0.04498291 0.8876953
vn 0.4631348 0.04742432 0.8852539
vn -0.03265381 0.03552246 0.9990234
vn -0.03265381 0.03552246 0.9990234
vn -0.03265381 0.03552246 0.9990234
vn -0.03369141 0.0350647 0.9990234
vn 0.6293945 0.472168 -0.6171875
vn 0.6293945 0.472168 -0.6171875
vn 0.6293945 0.472168 -0.6171875
vn 0.6401367 0.4631348 -0.612793
vn 0.4584961 0.4650879 0.7573242
vn 0.4584961 0.4650879 0.7573242
vn 0.4584961 0.4650879 0.7573242
vn 0.4616699 0.4685059 0.753418
vn 0.7919922 0.4677734 0.3920898
vn 0.7919922 0.4677734 0.3920898
vn 0.7919922 0.4677734 0.3920898
vn 0.7924805 0.465332 0.3942871
vn 0.5693359 0.4492188 0.6884766
vn 0.5693359 0.4492188 0.6884766
vn 0.5693359 0.4492188 0.6884766
vn 0.5634766 0.4375 0.7006836
vn 0.6289063 0.4350586 -0.6445313
vn 0.6289063 0.4350586 -0.6445313
vn 0.6289063 0.4350586 -0.6445313
vn 0.6225586 0.4394531 -0.6474609
vn -0.1601563 0.4008789 -0.9018555
vn -0.1601563 0.4008789 -0.9018555
vn -0.1601563 0.4008789 -0.9018555
vn -0.1607666 0.4013672 -0.9018555
vn 0.07159424 0.9975586 -0.008377075
vn 0.09204102 0.9956055 -0.005348206
vn 0.09588623 0.9956055 -0.0008530617
vn 0.07159424 0.9975586 -0.008377075
vn 0.07159424 0.9975586 -0.008377075
vn 0.09429932 0.9956055 0.01477051
vn 0.09429932 0.9956055 0.01477051
vn 0.06921387 0.9975586 -0.003856659

vt 0.08331299 0
vt 0.25 0.7207031
vt 0.25 0
vt 0.25 0.7207031
vt 0.08331299 0
vt 0.08331299 0.7207031
vt 0.270752 0
vt 0.25 0.7207031
vt 0.270752 0.7207031
vt 0.25 0.7207031
vt 0.270752 0
vt 0.25 0
vt 0.3081055 1
vt 0.6298828 1
vt 0.5498047 1
vt 0.6298828 1
vt 0.3081055 1
vt 0.7089844 1
vt 0.75 0
vt 0.7084961 0.7207031
vt 0.75 0.7207031
vt 0.7084961 0.7207031
vt 0.75 0
vt 0.7084961 0
vt 0.6665039 0
vt 0.625 0.7207031
vt 0.6665039 0.7207031
vt 0.625 0.7207031
vt 0.6665039 0
vt 0.625 0
vt 0.9819336 1.762695
vt 0.7250977 1
vt 0.5292969 1
vt 0.7250977 1
vt 0.9819336 1.762695
vt 1.454102 1.486328
vt 0.2341309 0.9521484
vt 0.5292969 1
vt 0.282959 1
vt 0.5292969 1
vt 0.2341309 0.9521484
vt 0.489502 1.009766
vt 0.03985596 0.8569336
vt 0.1690674 1
vt 0.1290283 1
vt 0.1690674 1
vt 0.03985596 0.8569336
vt -0.004165649 0.9345703
vt 0.6152344 1.504883
vt 0.4018555 1
vt 0.3081055 1
vt 0.4018555 1
vt 0.6152344 1.504883
vt 0.6157227 1.433594
vt 0.75 0.7207031
vt 0.7089844 1
vt 0.7001953 1
vt 0.7089844 1
vt 0.75 0.7207031
vt 0.7084961 0.7207031
vt 0.1887207 0.8232422
vt -0.01275635 1
vt 0.1690674 1
vt -0.01275635 1
vt 0.1887207 0.8232422
vt 0.1418457 0.8330078
vt 0.3103027 0.8950195
vt 0.3088379 1
vt 0.4018555 1
vt 0.3088379 1
vt 0.3103027 0.8950195
vt 0.2214355 0.9052734
vt 0.189209 0.9379883
vt 0.1605225 1
vt 0.2553711 1
vt 0.1605225 1
vt 0.189209 0.9379883
vt 0.07696533 0.9790039
vt 0.2338867 1.320313
vt 0.282959 1
vt 0.2282715 1
vt 0.282959 1
vt 0.2338867 1.320313
vt 0.4331055 1.299805
vt 0.8334961 0.7207031
vt 0.7202148 1
vt 0.5800781 1
vt 0.7202148 1
vt 0.8334961 0.7207031
vt 0.7915039 0.7207031
vt 0.8359375 1.148438
vt 0.8569336 1
vt 0.7480469 1
vt 0.8569336 1
vt 0.8359375 1.148438
vt 0.9946289 1.094727
vt 0.8823242 1.151367
vt 0.8134766 1
vt 0.7431641 1
vt 0.8134766 1
vt 0.8823242 1.151367
vt 0.9770508 1.134766
vt 0.9882813 2.072266
vt 0.7480469 1
vt 0.7250977 1
vt 0.7480469 1
vt 0.9882813 2.072266
vt 1.302734 2.027344
vt 0.1854248 1.083984
vt 0.1290283 1
vt 0.1605225 1
vt 0.1290283 1
vt 0.1854248 1.083984
vt 0.1945801 1.058594
vt 0.7202148 1
vt 0.3081055 1
vt 0.4018555 1
vt 0.5800781 1
vt 0.3088379 1
vt 0.7431641 1
vt 0.7202148 1
vt 0.7089844 1
vt 0.3081055 1
vt 0.7089844 1
vt 0.7202148 1
vt 0.7001953 1
vt 0.1605225 1
vt 0.3088379 1
vt 0.2553711 1
vt 0.3088379 1
vt 0.1605225 1
vt 0.7431641 1
vt 0.5800781 1
vt 0.7431641 1
vt 0.8134766 1
vt 0.7480469 1
vt 0.1605225 1
vt 0.1290283 1
vt -0.01275635 1
vt 0.7250977 1
vt 0.7431641 1
vt 0.7480469 1
vt 0.8569336 1
vt 0.7480469 1
vt 0.7431641 1
vt 0.1605225 1
vt -0.01275635 1
vt 0.1290283 1
vt 0.1690674 1
vt 0.1290283 1
vt 0.7250977 1
vt 0.7480469 1
vt 0.5292969 1
vt -0.01275635 1
vt 0.2836914 1
vt -0.01275635 1
vt 0.5292969 1
vt 0.7250977 1
vt 0.5292969 1
vt 0.2282715 1
vt 0.282959 1
vt 0.2282715 1
vt 0.5292969 1
vt 0.2836914 1
vt 0.3081055 1
vt 0.6298828 1
vt 0.5498047 1
vt 0.6298828 1
vt 0.3081055 1
vt 0.7089844 1
vt 0.9819336 1.762695
vt 0.7250977 1
vt 0.5292969 1
vt 0.7250977 1
vt 0.9819336 1.762695
vt 1.454102 1.486328
vt 0.2341309 0.9521484
vt 0.5292969 1
vt 0.282959 1
vt 0.5292969 1
vt 0.2341309 0.9521484
vt 0.489502 1.009766
vt 0.03985596 0.8569336
vt 0.1690674 1
vt 0.1290283 1
vt 0.1690674 1
vt 0.03985596 0.8569336
vt -0.004165649 0.9345703
vt 0.6152344 1.504883
vt 0.4018555 1
vt 0.3081055 1
vt 0.4018555 1
vt 0.6152344 1.504883
vt 0.6157227 1.433594
vt 0.75 0.7207031
vt 0.7089844 1
vt 0.7001953 1
vt 0.7089844 1
vt 0.75 0.7207031
vt 0.7084961 0.7207031
vt 0.1887207 0.8232422
vt -0.01275635 1
vt 0.1690674 1
vt -0.01275635 1
vt 0.1887207 0.8232422
vt 0.1418457 0.8330078
vt 0.3103027 0.8950195
vt 0.3088379 1
vt 0.4018555 1
vt 0.3088379 1
vt 0.3103027 0.8950195
vt 0.2214355 0.9052734
vt 0.189209 0.9379883
vt 0.1605225 1
vt 0.2553711 1
vt 0.1605225 1
vt 0.189209 0.9379883
vt 0.07696533 0.9790039
vt 0.1689453 1.164063
vt 0.2836914 1
vt -0.01275635 1
vt 0.2836914 1
vt 0.1689453 1.164063
vt 0.2265625 1.162109
vt 0.2338867 1.320313
vt 0.282959 1
vt 0.2282715 1
vt 0.282959 1
vt 0.2338867 1.320313
vt 0.4331055 1.299805
vt 0.1967773 0.8188477
vt 0.2282715 1
vt 0.2836914 1
vt 0.2282715 1
vt 0.1967773 0.8188477
vt 0.1538086 0.8237305
vt 0.8334961 0.7207031
vt 0.7202148 1
vt 0.5800781 1
vt 0.7202148 1
vt 0.8334961 0.7207031
vt 0.7915039 0.7207031
vt 0.7915039 0.7207031
vt 0.7001953 1
vt 0.7202148 1
vt 0.7001953 1
vt 0.7915039 0.7207031
vt 0.75 0.7207031
vt 0.8359375 1.148438
vt 0.8569336 1
vt 0.7480469 1
vt 0.8569336 1
vt 0.8359375 1.148438
vt 0.9946289 1.094727
vt 0.8823242 1.151367
vt 0.8134766 1
vt 0.7431641 1
vt 0.8134766 1
vt 0.8823242 1.151367
vt 0.9770508 1.134766
vt 0.625 0.7207031
vt 0.3081055 1
vt 0.5498047 1
vt 0.3081055 1
vt 0.625 0.7207031
vt 0.5834961 0.7207031
vt 0.1854248 1.083984
vt 0.1290283 1
vt 0.1605225 1
vt 0.1290283 1
vt 0.1854248 1.083984
vt 0.1945801 1.058594
vt 0.1605225 1
vt 0.3088379 1
vt 0.2553711 1
vt 0.3088379 1
vt 0.1605225 1
vt 0.7431641 1
vt 0.5800781 1
vt 0.7431641 1
vt 0.8134766 1
vt 0.7480469 1
vt 0.1605225 1
vt 0.1290283 1
vt 0.7431641 1
vt 0.7480469 1
vt 0.8569336 1
vt 0.7480469 1
vt 0.7431641 1
vt 0.1605225 1
vt -0.01275635 1
vt 0.1290283 1
vt 0.1690674 1
vt 0.1290283 1
vt -0.01275635 1
vt 0.7250977 1
vt 0.1290283 1
vt 0.7250977 1
vt 0.7480469 1
vt 0.5292969 1
vt -0.01275635 1
vt 0.2836914 1
vt -0.01275635 1
vt 0.5292969 1
vt 0.7250977 1
vt 0.5292969 1
vt 0.2282715 1
vt 0.282959 1
vt 0.2282715 1
vt 0.5292969 1
vt 0.2836914 1
vt 0.7915039 0
vt 0.75 0.7207031
vt 0.7915039 0.7207031
vt 0.75 0
vt -0.0625 0
vt -0.08331299 0.7207031
vt -0.0625 0.7207031
vt -0.08331299 0
vt 0.4375 0
vt 0.416748 0.7207031
vt 0.4375 0.7207031
vt 0.416748 0
vt 0.625 0
vt 0.5834961 0.7207031
vt 0.625 0.7207031
vt 0.5834961 0
vt 0.416748 0
vt 0.333252 0.7207031
vt 0.416748 0.7207031
vt 0.333252 0
vt 0.7084961 0
vt 0.6665039 0.7207031
vt 0.7084961 0.7207031
vt 0.6665039 0
vt 0.5834961 0
vt 0.5 0.7207031
vt 0.5834961 0.7207031
vt 0.5 0
vt 0.479248 0
vt 0.458252 0.7207031
vt 0.479248 0.7207031
vt 0.458252 0
vt 0.333252 0
vt 0.291748 0.7207031
vt 0.333252 0.7207031
vt 0.291748 0
vt 0.28125 0
vt 0.270752 0.7207031
vt 0.28125 0.7207031
vt 0.270752 0
vt 0.291748 0
vt 0.28125 0.7207031
vt 0.291748 0.7207031
vt 0.28125 0
vt 0.5 0
vt 0.479248 0.7207031
vt 0.5 0.7207031
vt 0.479248 0
vt 0.9165039 0
vt 0.8334961 0.7207031
vt 0.9165039 0.7207031
vt 0.8334961 0
vt 0.8334961 0
vt 0.7915039 0.7207031
vt 0.8334961 0.7207031
vt 0.7915039 0
vt 0.04165649 0
vt 0 0.7207031
vt 0.04165649 0.7207031
vt 0 0
vt 0 0
vt -0.04165649 0.7207031
vt 0 0.7207031
vt -0.04165649 0
vt -0.04165649 0
vt -0.0625 0.7207031
vt -0.04165649 0.7207031
vt -0.0625 0
vt 0.08331299 0
vt 0.04165649 0.7207031
vt 0.08331299 0.7207031
vt 0.04165649 0
vt 0.458252 0
vt 0.4375 0.7207031
vt 0.458252 0.7207031
vt 0.4375 0
vt 0.9165039 0.7207031
vt 0.5800781 1
vt 0.8134766 1
vt 0.8334961 0.7207031
vt 0.6665039 0.7207031
vt 0.5498047 1
vt 0.6298828 1
vt 0.625 0.7207031
vt 0.7084961 0.7207031
vt 0.6298828 1
vt 0.7089844 1
vt 0.6665039 0.7207031
vt 0.1689453 1.164063
vt 0.2836914 1
vt -0.01275635 1
vt 0.2265625 1.162109
vt 0.1967773 0.8188477
vt 0.2282715 1
vt 0.2836914 1
vt 0.1538086 0.8237305
vt 0.2248535 0.7670898
vt 0.2553711 1
vt 0.3088379 1
vt 0.1106567 0.7758789
vt 0.7915039 0.7207031
vt 0.7001953 1
vt 0.7202148 1
vt 0.75 0.7207031
vt 0.8564453 0.8227539
vt 0.7431641 1
vt 0.8569336 1
vt 0.8164063 0.8295898
vt 0.625 0.7207031
vt 0.3081055 1
vt 0.5498047 1
vt 0.5834961 0.7207031
vt 0.7915039 0
vt 0.75 0.7207031
vt 0.7915039 0.7207031
vt 0.75 0
vt -0.0625 0
vt -0.08331299 0.7207031
vt -0.0625 0.7207031
vt -0.08331299 0
vt 0.08331299 0
vt 0.25 0.7207031
vt 0.25 0
vt 0.08331299 0.7207031
vt 0.04165649 0.7207031
vt 0.08331299 0.7207031
vt 0.04165649 0
vt 0.270752 0
vt 0.25 0.7207031
vt 0.270752 0.7207031
vt 0.25 0
vt 0.4375 0
vt 0.416748 0.7207031
vt 0.4375 0.7207031
vt 0.416748 0
vt 0.625 0
vt 0.5834961 0.7207031
vt 0.625 0.7207031
vt 0.5834961 0
vt 0.416748 0
vt 0.333252 0.7207031
vt 0.416748 0.7207031
vt 0.333252 0
vt 0.7084961 0
vt 0.6665039 0.7207031
vt 0.7084961 0.7207031
vt 0.6665039 0
vt 0.75 0
vt 0.7084961 0.7207031
vt 0.75 0.7207031
vt 0.7084961 0
vt 0.5834961 0
vt 0.5 0.7207031
vt 0.5834961 0.7207031
vt 0.5 0
vt 0.479248 0
vt 0.458252 0.7207031
vt 0.479248 0.7207031
vt 0.458252 0
vt 0.333252 0
vt 0.291748 0.7207031
vt 0.333252 0.7207031
vt 0.291748 0
vt 0.28125 0
vt 0.270752 0.7207031
vt 0.28125 0.7207031
vt 0.270752 0
vt 0.291748 0
vt 0.28125 0.7207031
vt 0.291748 0.7207031
vt 0.28125 0
vt 0.5 0
vt 0.479248 0.7207031
vt 0.5 0.7207031
vt 0.479248 0
vt 0.9165039 0
vt 0.8334961 0.7207031
vt 0.9165039 0.7207031
vt 0.8334961 0
vt 0.8334961 0
vt 0.7915039 0.7207031
vt 0.8334961 0.7207031
vt 0.7915039 0
vt 0.04165649 0
vt 0 0.7207031
vt 0.04165649 0.7207031
vt 0 0
vt 0 0
vt -0.04165649 0.7207031
vt 0 0.7207031
vt -0.04165649 0
vt -0.04165649 0
vt -0.0625 0.7207031
vt -0.04165649 0.7207031
vt -0.0625 0
vt 0.6665039 0
vt 0.625 0.7207031
vt 0.6665039 0.7207031
vt 0.625 0
vt 0.458252 0
vt 0.4375 0.7207031
vt 0.458252 0.7207031
vt 0.4375 0
vt 0.9165039 0.7207031
vt 0.5800781 1
vt 0.8134766 1
vt 0.8334961 0.7207031
vt 0.6665039 0.7207031
vt 0.5498047 1
vt 0.6298828 1
vt 0.625 0.7207031
vt 0.7084961 0.7207031
vt 0.6298828 1
vt 0.7089844 1
vt 0.6665039 0.7207031
vt 0.2248535 0.7670898
vt 0.2553711 1
vt 0.3088379 1
vt 0.1106567 0.7758789
vt 0.8564453 0.8227539
vt 0.7431641 1
vt 0.8569336 1
vt 0.8164063 0.8295898
vt 0.9882813 2.072266
vt 0.7480469 1
vt 0.7250977 1
vt 1.302734 2.027344
vt 0.3081055 1
vt 0.7001953 1
vt 0.7089844 1
vt 0.7202148 1
vt 0.4018555 1
vt 0.5800781 1
vt 0.3088379 1
vt 0.7431641 1

g Mountain_05_(3)_358_29
usemtl Mountain_05_(3)_358_29
usemap Mountain_05_(3)_358_29
f 1/1/1 3/3/3 2/2/2
f 4/4/4 6/6/6 5/5/5
f 7/7/7 9/9/9 8/8/8
f 10/10/10 12/12/12 11/11/11
f 13/13/13 15/15/15 14/14/14
f 16/16/16 18/18/18 17/17/17
f 19/19/19 21/21/21 20/20/20
f 22/22/22 24/24/24 23/23/23
f 25/25/25 27/27/27 26/26/26
f 28/28/28 30/30/30 29/29/29
f 31/31/31 33/33/33 32/32/32
f 34/34/34 36/36/36 35/35/35
f 37/37/37 39/39/39 38/38/38
f 40/40/40 42/42/42 41/41/41
f 43/43/43 45/45/45 44/44/44
f 46/46/46 48/48/48 47/47/47
f 49/49/49 51/51/51 50/50/50
f 52/52/52 54/54/54 53/53/53
f 55/55/55 57/57/57 56/56/56
f 58/58/58 60/60/60 59/59/59
f 61/61/61 63/63/63 62/62/62
f 64/64/64 66/66/66 65/65/65
f 67/67/67 69/69/69 68/68/68
f 70/70/70 72/72/72 71/71/71
f 73/73/73 75/75/75 74/74/74
f 76/76/76 78/78/78 77/77/77
f 79/79/79 81/81/81 80/80/80
f 82/82/82 84/84/84 83/83/83
f 85/85/85 87/87/87 86/86/86
f 88/88/88 90/90/90 89/89/89
f 91/91/91 93/93/93 92/92/92
f 94/94/94 96/96/96 95/95/95
f 97/97/97 99/99/99 98/98/98
f 100/100/100 102/102/102 101/101/101
f 103/103/103 105/105/105 104/104/104
f 106/106/106 108/108/108 107/107/107
f 109/109/109 111/111/111 110/110/110
f 112/112/112 114/114/114 113/113/113
f 115/115/115 117/117/117 116/116/116
f 118/118/118 119/119/119 117/117/117
f 120/120/120 119/119/119 118/118/118
f 117/117/117 121/121/121 118/118/118
f 121/121/121 123/123/123 122/122/122
f 124/124/124 126/126/126 125/125/125
f 127/127/127 129/129/129 128/128/128
f 130/130/130 132/132/132 131/131/131
f 133/133/133 135/135/135 134/134/134
f 136/136/136 138/138/138 137/137/137
f 138/138/138 140/140/140 139/139/139
f 141/141/141 143/143/143 142/142/142
f 144/144/144 146/146/146 145/145/145
f 147/147/147 149/149/149 148/148/148
f 150/150/150 152/152/152 151/151/151
f 153/153/153 155/155/155 154/154/154
f 156/156/156 158/158/158 157/157/157
f 159/159/159 161/161/161 160/160/160
f 162/162/162 164/164/164 163/163/163
f 165/165/165 167/167/167 166/166/166
f 168/168/168 170/170/170 169/169/169
f 171/171/171 173/173/173 172/172/172
f 174/174/174 176/176/176 175/175/175
f 177/177/177 179/179/179 178/178/178
f 180/180/180 182/182/182 181/181/181
f 183/183/183 185/185/185 184/184/184
f 186/186/186 188/188/188 187/187/187
f 189/189/189 191/191/191 190/190/190
f 192/192/192 194/194/194 193/193/193
f 195/195/195 197/197/197 196/196/196
f 198/198/198 200/200/200 199/199/199
f 201/201/201 203/203/203 202/202/202
f 204/204/204 206/206/206 205/205/205
f 207/207/207 209/209/209 208/208/208
f 210/210/210 212/212/212 211/211/211
f 213/213/213 215/215/215 214/214/214
f 216/216/216 218/218/218 217/217/217
f 219/219/219 221/221/221 220/220/220
f 222/222/222 224/224/224 223/223/223
f 225/225/225 227/227/227 226/226/226
f 228/228/228 230/230/230 229/229/229
f 231/231/231 233/233/233 232/232/232
f 234/234/234 236/236/236 235/235/235
f 237/237/237 239/239/239 238/238/238
f 240/240/240 242/242/242 241/241/241
f 243/243/243 245/245/245 244/244/244
f 246/246/246 248/248/248 247/247/247
f 249/249/249 251/251/251 250/250/250
f 252/252/252 254/254/254 253/253/253
f 255/255/255 257/257/257 256/256/256
f 258/258/258 260/260/260 259/259/259
f 261/261/261 263/263/263 262/262/262
f 264/264/264 266/266/266 265/265/265
f 267/267/267 269/269/269 268/268/268
f 270/270/270 272/272/272 271/271/271
f 273/273/273 275/275/275 274/274/274
f 276/276/276 278/278/278 277/277/277
f 279/279/279 281/281/281 280/280/280
f 282/282/282 284/284/284 283/283/283
f 285/285/285 287/287/287 286/286/286
f 288/288/288 290/290/290 289/289/289
f 291/291/291 293/293/293 292/292/292
f 294/294/294 296/296/296 295/295/295
f 297/297/297 299/299/299 298/298/298
f 300/300/300 302/302/302 301/301/301
f 303/303/303 305/305/305 304/304/304
f 306/306/306 308/308/308 307/307/307
f 309/309/309 311/311/311 310/310/310
f 312/312/312 314/314/314 313/313/313
f 313/313/313 315/315/315 312/312/312
f 316/316/316 318/318/318 317/317/317
f 317/317/317 319/319/319 316/316/316
f 320/320/320 322/322/322 321/321/321
f 321/321/321 323/323/323 320/320/320
f 324/324/324 326/326/326 325/325/325
f 325/325/325 327/327/327 324/324/324
f 328/328/328 330/330/330 329/329/329
f 329/329/329 331/331/331 328/328/328
f 332/332/332 334/334/334 333/333/333
f 333/333/333 335/335/335 332/332/332
f 336/336/336 338/338/338 337/337/337
f 337/337/337 339/339/339 336/336/336
f 340/340/340 342/342/342 341/341/341
f 341/341/341 343/343/343 340/340/340
f 344/344/344 346/346/346 345/345/345
f 345/345/345 347/347/347 344/344/344
f 348/348/348 350/350/350 349/349/349
f 349/349/349 351/351/351 348/348/348
f 352/352/352 354/354/354 353/353/353
f 353/353/353 355/355/355 352/352/352
f 356/356/356 358/358/358 357/357/357
f 357/357/357 359/359/359 356/356/356
f 360/360/360 362/362/362 361/361/361
f 361/361/361 363/363/363 360/360/360
f 364/364/364 366/366/366 365/365/365
f 365/365/365 367/367/367 364/364/364
f 368/368/368 370/370/370 369/369/369
f 369/369/369 371/371/371 368/368/368
f 372/372/372 374/374/374 373/373/373
f 373/373/373 375/375/375 372/372/372
f 376/376/376 378/378/378 377/377/377
f 377/377/377 379/379/379 376/376/376
f 380/380/380 382/382/382 381/381/381
f 381/381/381 383/383/383 380/380/380
f 384/384/384 386/386/386 385/385/385
f 385/385/385 387/387/387 384/384/384
f 388/388/388 390/390/390 389/389/389
f 389/389/389 391/391/391 388/388/388
f 392/392/392 394/394/394 393/393/393
f 393/393/393 395/395/395 392/392/392
f 396/396/396 398/398/398 397/397/397
f 397/397/397 399/399/399 396/396/396
f 400/400/400 402/402/402 401/401/401
f 401/401/401 403/403/403 400/400/400
f 404/404/404 406/406/406 405/405/405
f 405/405/405 407/407/407 404/404/404
f 408/408/408 410/410/410 409/409/409
f 409/409/409 411/411/411 408/408/408
f 412/412/412 414/414/414 413/413/413
f 413/413/413 415/415/415 412/412/412
f 416/416/416 418/418/418 417/417/417
f 417/417/417 419/419/419 416/416/416
f 420/420/420 422/422/422 421/421/421
f 421/421/421 423/423/423 420/420/420
f 424/424/424 426/426/426 425/425/425
f 425/425/425 427/427/427 424/424/424
f 428/428/428 430/430/430 429/429/429
f 429/429/429 431/431/431 428/428/428
f 432/432/432 434/434/434 433/433/433
f 433/433/433 435/435/435 432/432/432
f 432/432/432 437/437/437 436/436/436
f 436/436/436 438/438/438 432/432/432
f 439/439/439 441/441/441 440/440/440
f 440/440/440 442/442/442 439/439/439
f 443/443/443 445/445/445 444/444/444
f 444/444/444 446/446/446 443/443/443
f 447/447/447 449/449/449 448/448/448
f 448/448/448 450/450/450 447/447/447
f 451/451/451 453/453/453 452/452/452
f 452/452/452 454/454/454 451/451/451
f 455/455/455 457/457/457 456/456/456
f 456/456/456 458/458/458 455/455/455
f 459/459/459 461/461/461 460/460/460
f 460/460/460 462/462/462 459/459/459
f 463/463/463 465/465/465 464/464/464
f 464/464/464 466/466/466 463/463/463
f 467/467/467 469/469/469 468/468/468
f 468/468/468 470/470/470 467/467/467
f 471/471/471 473/473/473 472/472/472
f 472/472/472 474/474/474 471/471/471
f 475/475/475 477/477/477 476/476/476
f 476/476/476 478/478/478 475/475/475
f 479/479/479 481/481/481 480/480/480
f 480/480/480 482/482/482 479/479/479
f 483/483/483 485/485/485 484/484/484
f 484/484/484 486/486/486 483/483/483
f 487/487/487 489/489/489 488/488/488
f 488/488/488 490/490/490 487/487/487
f 491/491/491 493/493/493 492/492/492
f 492/492/492 494/494/494 491/491/491
f 495/495/495 497/497/497 496/496/496
f 496/496/496 498/498/498 495/495/495
f 499/499/499 501/501/501 500/500/500
f 500/500/500 502/502/502 499/499/499
f 503/503/503 505/505/505 504/504/504
f 504/504/504 506/506/506 503/503/503
f 507/507/507 509/509/509 508/508/508
f 508/508/508 510/510/510 507/507/507
f 511/511/511 513/513/513 512/512/512
f 512/512/512 514/514/514 511/511/511
f 515/515/515 517/517/517 516/516/516
f 516/516/516 518/518/518 515/515/515
f 519/519/519 521/521/521 520/520/520
f 520/520/520 522/522/522 519/519/519
f 523/523/523 525/525/525 524/524/524
f 524/524/524 526/526/526 523/523/523
f 527/527/527 529/529/529 528/528/528
f 528/528/528 530/530/530 527/527/527
f 531/531/531 533/533/533 532/532/532
f 532/532/532 534/534/534 531/531/531
f 535/535/535 537/537/537 536/536/536
f 536/536/536 538/538/538 535/535/535
f 539/539/539 541/541/541 540/540/540
f 540/540/540 542/542/542 539/539/539
f 542/542/542 543/543/543 539/539/539
f 543/543/543 542/542/542 544/544/544
f 544/544/544 545/545/545 543/543/543
f 546/546/546 545/545/545 544/544/544
