#Mountain_05_(2)_359_11.obj

v -4.194438 3.73795 -1.896444E-07
v -7.160109 1.713943 1.266889
v -7.66571 1.715764 -8.704904E-08
v -7.160109 1.713943 1.266889
v -4.194438 3.73795 -1.896444E-07
v -3.933566 3.677025 1.31277
v -7.254386 0.09803772 -4.973996E-09
v -7.160109 1.713943 1.266889
v -6.85449 0.1266427 1.188133
v -7.160109 1.713943 1.266889
v -7.254386 0.09803772 -4.973996E-09
v -7.66571 1.715764 -8.704904E-08
v 3.665563 -2.792712 2.025192
v 6.156201 -2.111068 1.903582
v 5.057961 -2.911881 2.005747
v 6.156201 -2.111068 1.903582
v 3.665563 -2.792712 2.025192
v 6.808696 0.05541153 1.847594
v 6.027656 2.450162 -1.243087E-07
v 7.665709 0.1829341 1.190308
v 6.030295 2.431466 1.334739
v 7.665709 0.1829341 1.190308
v 6.027656 2.450162 -1.243087E-07
v 7.664267 0.1545419 -7.840613E-09
v 6.820558 -2.677267 1.358308E-07
v 5.309933 -3.712567 1.392306
v 6.840153 -2.588095 1.264772
v 5.309933 -3.712567 1.392306
v 6.820558 -2.677267 1.358308E-07
v 5.29036 -3.835664 1.94602E-07
v -3.933566 3.677025 1.31277
v -1.70941 3.249508 2.029637
v -3.601106 2.925803 2.003493
v -1.70941 3.249508 2.029637
v -3.933566 3.677025 1.31277
v -2.041348 3.910073 1.316083
v -7.160109 1.713943 1.266889
v -3.601106 2.925803 2.003493
v -6.175473 1.341343 1.885148
v -3.601106 2.925803 2.003493
v -7.160109 1.713943 1.266889
v -3.933566 3.677025 1.31277
v -4.095047 -3.78701 1.314834
v -5.235809 -1.696644 1.877561
v -3.676633 -3.064917 1.995974
v -5.235809 -1.696644 1.877561
v -4.095047 -3.78701 1.314834
v -6.215344 -1.962351 1.209017
v 3.379788 -3.550971 1.370015
v 2.698071 -1.994802 2.001729
v 3.665563 -2.792712 2.025192
v 2.698071 -1.994802 2.001729
v 3.379788 -3.550971 1.370015
v 2.563113 -2.877889 1.327934
v 6.030295 2.431466 1.334739
v 6.808696 0.05541153 1.847594
v 5.621321 1.662611 1.970607
v 6.808696 0.05541153 1.847594
v 6.030295 2.431466 1.334739
v 7.665709 0.1829341 1.190308
v -6.215344 -1.962351 1.209017
v -4.903864 -0.680847 1.881354
v -5.235809 -1.696644 1.877561
v -4.903864 -0.680847 1.881354
v -6.215344 -1.962351 1.209017
v -5.818846 -0.7554374 1.199843
v 2.563113 -2.877889 1.327934
v 0.9772569 -2.664853 2.044155
v 2.698071 -1.994802 2.001729
v 0.9772569 -2.664853 2.044155
v 2.563113 -2.877889 1.327934
v 1.519778 -3.286088 1.342203
v 1.200385 -4.013341 1.371663
v -1.721832 -3.588946 2.053878
v 0.7337865 -3.315434 2.070017
v -1.721832 -3.588946 2.053878
v 1.200385 -4.013341 1.371663
v -1.810348 -4.398074 1.340716
v -6.85449 0.1266427 1.188133
v -6.175473 1.341343 1.885148
v -6.145764 0.6678336 1.84846
v -6.175473 1.341343 1.885148
v -6.85449 0.1266427 1.188133
v -7.160109 1.713943 1.266889
v 3.47803 2.897259 1.349744
v 4.602209 1.618831 1.984561
v 3.020838 2.256282 2.027464
v 4.602209 1.618831 1.984561
v 3.47803 2.897259 1.349744
v 4.761545 2.37583 1.331748
v -1.553584 4.357332 1.335883
v 0.3752385 3.63005 2.069616
v -1.255429 3.675368 2.051443
v 0.3752385 3.63005 2.069616
v -1.553584 4.357332 1.335883
v 0.5697144 4.425911 1.371162
v 1.391991 3.880753 1.362431
v 2.32968 3.012331 2.061684
v 1.141683 3.124538 2.055678
v 2.32968 3.012331 2.061684
v 1.391991 3.880753 1.362431
v 2.700607 3.75619 1.380967
v -2.041348 3.910073 1.316083
v -1.255429 3.675368 2.051443
v -1.70941 3.249508 2.029637
v -1.255429 3.675368 2.051443
v -2.041348 3.910073 1.316083
v -1.553584 4.357332 1.335883
v -1.810348 -4.398074 1.340716
v -3.676633 -3.064917 1.995974
v -1.721832 -3.588946 2.053878
v -3.676633 -3.064917 1.995974
v -1.810348 -4.398074 1.340716
v -4.095047 -3.78701 1.314834
v 4.602209 1.618831 1.984561
v 3.665563 -2.792712 2.025192
v 2.698071 -1.994802 2.001729
v 3.020838 2.256282 2.027464
v 0.9772569 -2.664853 2.044155
v 1.141683 3.124538 2.055678
v 4.602209 1.618831 1.984561
v 6.808696 0.05541153 1.847594
v 3.665563 -2.792712 2.025192
v 6.808696 0.05541153 1.847594
v 4.602209 1.618831 1.984561
v 5.621321 1.662611 1.970607
v -1.721832 -3.588946 2.053878
v 0.9772569 -2.664853 2.044155
v 0.7337865 -3.315434 2.070017
v 0.9772569 -2.664853 2.044155
v -1.721832 -3.588946 2.053878
v 1.141683 3.124538 2.055678
v 3.020838 2.256282 2.027464
v 1.141683 3.124538 2.055678
v 2.32968 3.012331 2.061684
v -1.255429 3.675368 2.051443
v -1.721832 -3.588946 2.053878
v -3.676633 -3.064917 1.995974
v -4.903864 -0.680847 1.881354
v -1.70941 3.249508 2.029637
v 1.141683 3.124538 2.055678
v -1.255429 3.675368 2.051443
v 0.3752385 3.63005 2.069616
v -1.255429 3.675368 2.051443
v 1.141683 3.124538 2.055678
v -1.721832 -3.588946 2.053878
v -4.903864 -0.680847 1.881354
v -3.676633 -3.064917 1.995974
v -5.235809 -1.696644 1.877561
v -3.676633 -3.064917 1.995974
v -1.70941 3.249508 2.029637
v -1.255429 3.675368 2.051443
v -3.601106 2.925803 2.003493
v -4.903864 -0.680847 1.881354
v -5.550163 0.5868773 1.871904
v -4.903864 -0.680847 1.881354
v -3.601106 2.925803 2.003493
v -1.70941 3.249508 2.029637
v -3.601106 2.925803 2.003493
v -6.145764 0.6678336 1.84846
v -6.175473 1.341343 1.885148
v -6.145764 0.6678336 1.84846
v -3.601106 2.925803 2.003493
v -5.550163 0.5868773 1.871904
v 2.988739 -0.9541714 3.558371
v 4.927305 -1.19546 3.47365
v 4.273018 -1.765049 3.533748
v 4.927305 -1.19546 3.47365
v 2.988739 -0.9541714 3.558371
v 5.27513 0.2154003 3.436962
v -2.726503 2.226573 3.111868
v -1.627334 2.100533 3.639845
v -2.490648 1.783751 3.623822
v -1.627334 2.100533 3.639845
v -2.726503 2.226573 3.111868
v -1.73683 2.53192 3.136091
v -4.2586 1.670021 3.040776
v -2.490648 1.783751 3.623822
v -3.781435 1.271402 3.570411
v -2.490648 1.783751 3.623822
v -4.2586 1.670021 3.040776
v -2.726503 2.226573 3.111868
v -2.762824 -2.637127 3.153882
v -3.24927 -1.241544 3.622845
v -2.524919 -2.152814 3.694746
v -3.24927 -1.241544 3.622845
v -2.762824 -2.637127 3.153882
v -3.835068 -1.467507 3.049566
v 2.862063 -1.444475 3.07532
v 1.87546 -0.5585161 3.591151
v 2.988739 -0.9541714 3.558371
v 1.87546 -0.5585161 3.591151
v 2.862063 -1.444475 3.07532
v 1.842499 -1.120215 3.100537
v 4.318973 1.081609 3.011747
v 5.27513 0.2154003 3.436962
v 4.08533 0.5904689 3.488198
v 5.27513 0.2154003 3.436962
v 4.318973 1.081609 3.011747
v 5.852762 0.3365191 2.925531
v -3.835068 -1.467507 3.049566
v -2.919595 -0.4388411 3.613438
v -3.24927 -1.241544 3.622845
v -2.919595 -0.4388411 3.613438
v -3.835068 -1.467507 3.049566
v -3.472837 -0.5373316 3.051367
v 1.842499 -1.120215 3.100537
v 0.8233235 -1.077239 3.643888
v 1.87546 -0.5585161 3.591151
v 0.8233235 -1.077239 3.643888
v 1.842499 -1.120215 3.100537
v 1.200469 -1.435827 3.127697
v 0.2291456 -2.617828 3.18853
v -0.963266 -2.359019 3.726503
v -0.08699872 -2.196547 3.711949
v -0.963266 -2.359019 3.726503
v 0.2291456 -2.617828 3.18853
v -0.9861161 -2.878273 3.200276
v -3.472837 -0.5373316 3.051367
v -3.322777 0.595093 3.583383
v -2.919595 -0.4388411 3.613438
v -3.322777 0.595093 3.583383
v -3.472837 -0.5373316 3.051367
v -3.648597 0.1871688 3.038027
v -4.378531 0.6425553 2.999554
v -3.781435 1.271402 3.570411
v -3.885535 0.8564662 3.556608
v -3.781435 1.271402 3.570411
v -4.378531 0.6425553 2.999554
v -4.2586 1.670021 3.040776
v -3.648597 0.1871688 3.038027
v -3.885535 0.8564662 3.556608
v -3.322777 0.595093 3.583383
v -3.885535 0.8564662 3.556608
v -3.648597 0.1871688 3.038027
v -4.378531 0.6425553 2.999554
v 2.248858 2.168178 3.102163
v 2.789415 1.051327 3.539411
v 1.990719 1.749045 3.575721
v 2.789415 1.051327 3.539411
v 2.248858 2.168178 3.102163
v 2.852977 1.526859 3.06729
v 2.852977 1.526859 3.06729
v 4.08533 0.5904689 3.488198
v 2.789415 1.051327 3.539411
v 4.08533 0.5904689 3.488198
v 2.852977 1.526859 3.06729
v 4.318973 1.081609 3.011747
v -0.999002 2.846006 3.15303
v -0.01927182 2.452521 3.640305
v -0.918725 2.408832 3.648573
v -0.01927182 2.452521 3.640305
v -0.999002 2.846006 3.15303
v 0.05885309 2.944873 3.156976
v 0.60704 2.649021 3.140079
v 1.247645 2.167135 3.606209
v 0.4927658 2.17458 3.62133
v 1.247645 2.167135 3.606209
v 0.60704 2.649021 3.140079
v 1.438895 2.641029 3.13326
v 4.50439 -2.265428 3.044842
v 2.988739 -0.9541714 3.558371
v 4.273018 -1.765049 3.533748
v 2.988739 -0.9541714 3.558371
v 4.50439 -2.265428 3.044842
v 2.862063 -1.444475 3.07532
v -0.9861161 -2.878273 3.200276
v -2.524919 -2.152814 3.694746
v -0.963266 -2.359019 3.726503
v -2.524919 -2.152814 3.694746
v -0.9861161 -2.878273 3.200276
v -2.762824 -2.637127 3.153882
v -0.963266 -2.359019 3.726503
v 0.8233235 -1.077239 3.643888
v -0.08699872 -2.196547 3.711949
v 0.8233235 -1.077239 3.643888
v -0.963266 -2.359019 3.726503
v 0.4927658 2.17458 3.62133
v 1.990719 1.749045 3.575721
v 0.4927658 2.17458 3.62133
v 1.247645 2.167135 3.606209
v -0.918725 2.408832 3.648573
v -0.963266 -2.359019 3.726503
v -2.524919 -2.152814 3.694746
v 0.4927658 2.17458 3.62133
v -0.918725 2.408832 3.648573
v -0.01927182 2.452521 3.640305
v -0.918725 2.408832 3.648573
v 0.4927658 2.17458 3.62133
v -0.963266 -2.359019 3.726503
v -2.919595 -0.4388411 3.613438
v -2.524919 -2.152814 3.694746
v -3.24927 -1.241544 3.622845
v -2.524919 -2.152814 3.694746
v -2.919595 -0.4388411 3.613438
v -1.627334 2.100533 3.639845
v -2.524919 -2.152814 3.694746
v -1.627334 2.100533 3.639845
v -0.918725 2.408832 3.648573
v -2.490648 1.783751 3.623822
v -2.919595 -0.4388411 3.613438
v -3.322777 0.595093 3.583383
v -2.919595 -0.4388411 3.613438
v -2.490648 1.783751 3.623822
v -1.627334 2.100533 3.639845
v -2.490648 1.783751 3.623822
v -3.885535 0.8564662 3.556608
v -3.781435 1.271402 3.570411
v -3.885535 0.8564662 3.556608
v -2.490648 1.783751 3.623822
v -3.322777 0.595093 3.583383
v 4.759294 2.393444 -1.214311E-07
v 6.030295 2.431466 1.334739
v 4.761545 2.37583 1.331748
v 6.027656 2.450162 -1.243087E-07
v 1.356402 3.947883 -2.002954E-07
v 2.700607 3.75619 1.380967
v 1.391991 3.880753 1.362431
v 2.681238 3.818192 -1.937154E-07
v -1.94885 -4.514101 2.290223E-07
v -4.095047 -3.78701 1.314834
v -1.810348 -4.398074 1.340716
v -4.341543 -3.890435 1.973807E-07
v 5.29036 -3.835664 1.94602E-07
v 3.379788 -3.550971 1.370015
v 5.309933 -3.712567 1.392306
v 3.363271 -3.663088 1.858464E-07
v -4.341543 -3.890435 1.973807E-07
v -6.215344 -1.962351 1.209017
v -4.095047 -3.78701 1.314834
v -6.545241 -2.030144 1.029991E-07
v 7.664267 0.1545419 -7.840613E-09
v 6.840153 -2.588095 1.264772
v 7.665709 0.1829341 1.190308
v 6.820558 -2.677267 1.358308E-07
v 3.363271 -3.663088 1.858464E-07
v 2.563113 -2.877889 1.327934
v 3.379788 -3.550971 1.370015
v 2.547072 -2.969805 1.506728E-07
v 1.492747 -3.384926 1.717337E-07
v 1.200385 -4.013341 1.371663
v 1.519778 -3.286088 1.342203
v 1.162396 -4.129622 2.095159E-07
v -6.545241 -2.030144 1.029991E-07
v -5.818846 -0.7554374 1.199843
v -6.215344 -1.962351 1.209017
v -6.111477 -0.7985752 4.051555E-08
v -6.504949 -0.04193918 2.127782E-09
v -6.85449 0.1266427 1.188133
v -6.170844 -0.01196915 1.198651
v -7.254386 0.09803772 -4.973996E-09
v -6.111477 -0.7985752 4.051555E-08
v -6.170844 -0.01196915 1.198651
v -5.818846 -0.7554374 1.199843
v -6.504949 -0.04193918 2.127782E-09
v 2.547072 -2.969805 1.506728E-07
v 1.519778 -3.286088 1.342203
v 2.563113 -2.877889 1.327934
v 1.492747 -3.384926 1.717337E-07
v 2.681238 3.818192 -1.937154E-07
v 3.47803 2.897259 1.349744
v 2.700607 3.75619 1.380967
v 3.469428 2.930439 -1.486754E-07
v 3.469428 2.930439 -1.486754E-07
v 4.761545 2.37583 1.331748
v 3.47803 2.897259 1.349744
v 4.759294 2.393444 -1.214311E-07
v -2.18576 3.979219 -2.018852E-07
v -1.553584 4.357332 1.335883
v -2.041348 3.910073 1.316083
v -1.678719 4.442867 -2.254085E-07
v -1.678719 4.442867 -2.254085E-07
v 0.5697144 4.425911 1.371162
v -1.553584 4.357332 1.335883
v 0.5145221 4.514101 -2.290223E-07
v 0.5145221 4.514101 -2.290223E-07
v 1.391991 3.880753 1.362431
v 0.5697144 4.425911 1.371162
v 1.356402 3.947883 -2.002954E-07
v -4.194438 3.73795 -1.896444E-07
v -2.041348 3.910073 1.316083
v -3.933566 3.677025 1.31277
v -2.18576 3.979219 -2.018852E-07
v 1.162396 -4.129622 2.095159E-07
v -1.810348 -4.398074 1.340716
v 1.200385 -4.013341 1.371663
v -1.94885 -4.514101 2.290223E-07
v 2.700607 3.75619 1.380967
v 3.020838 2.256282 2.027464
v 2.32968 3.012331 2.061684
v 3.47803 2.897259 1.349744
v 6.840153 -2.588095 1.264772
v 5.057961 -2.911881 2.005747
v 6.156201 -2.111068 1.903582
v 5.309933 -3.712567 1.392306
v 7.665709 0.1829341 1.190308
v 6.156201 -2.111068 1.903582
v 6.808696 0.05541153 1.847594
v 6.840153 -2.588095 1.264772
v -5.818846 -0.7554374 1.199843
v -5.550163 0.5868773 1.871904
v -4.903864 -0.680847 1.881354
v -6.170844 -0.01196915 1.198651
v -6.170844 -0.01196915 1.198651
v -6.145764 0.6678336 1.84846
v -5.550163 0.5868773 1.871904
v -6.85449 0.1266427 1.188133
v 1.519778 -3.286088 1.342203
v 0.7337865 -3.315434 2.070017
v 0.9772569 -2.664853 2.044155
v 1.200385 -4.013341 1.371663
v 4.761545 2.37583 1.331748
v 5.621321 1.662611 1.970607
v 4.602209 1.618831 1.984561
v 6.030295 2.431466 1.334739
v 0.5697144 4.425911 1.371162
v 1.141683 3.124538 2.055678
v 0.3752385 3.63005 2.069616
v 1.391991 3.880753 1.362431
v 5.309933 -3.712567 1.392306
v 3.665563 -2.792712 2.025192
v 5.057961 -2.911881 2.005747
v 3.379788 -3.550971 1.370015
v 2.886439 1.562051 1.829556
v 4.318973 1.081609 3.011747
v 2.852977 1.526859 3.06729
v 4.387319 1.101506 1.797948
v 0.5794482 2.731196 1.858765
v 1.438895 2.641029 3.13326
v 0.60704 2.649021 3.140079
v 1.437532 2.723162 1.866857
v -2.895442 2.289204 1.812996
v -4.2586 1.670021 3.040776
v -4.525052 1.710682 1.777505
v -2.726503 2.226573 3.111868
v -1.73683 2.53192 3.136091
v -2.726503 2.226573 3.111868
v -1.8557 2.608156 1.830727
v -4.656627 0.645673 1.743983
v -4.2586 1.670021 3.040776
v -4.378531 0.6425553 2.999554
v -4.525052 1.710682 1.777505
v -1.076323 -2.992934 1.864342
v -2.762824 -2.637127 3.153882
v -0.9861161 -2.878273 3.200276
v -2.940944 -2.742909 1.826358
v 4.582382 -2.352339 1.808486
v 2.862063 -1.444475 3.07532
v 4.50439 -2.265428 3.044842
v 2.893497 -1.508826 1.811552
v -2.940944 -2.742909 1.826358
v -3.835068 -1.467507 3.049566
v -2.762824 -2.637127 3.153882
v -4.080203 -1.533349 1.761586
v 5.955956 0.3328157 1.731586
v 5.425344 -1.466442 2.952784
v 5.852762 0.3365191 2.925531
v 5.520918 -1.526937 1.74064
v 4.387319 1.101506 1.797948
v 5.852762 0.3365191 2.925531
v 4.318973 1.081609 3.011747
v 5.955956 0.3328157 1.731586
v 2.893497 -1.508826 1.811552
v 1.842499 -1.120215 3.100537
v 2.862063 -1.444475 3.07532
v 1.845888 -1.175868 1.820386
v 1.185656 -1.502021 1.832828
v 0.2291456 -2.617828 3.18853
v 1.200469 -1.435827 3.127697
v 0.1852689 -2.722828 1.867193
v -4.080203 -1.533349 1.761586
v -3.472837 -0.5373316 3.051367
v -3.835068 -1.467507 3.049566
v -3.692059 -0.5744607 1.763973
v -3.877167 0.1737542 1.759634
v -4.378531 0.6425553 2.999554
v -3.648597 0.1871688 3.038027
v -4.656627 0.645673 1.743983
v -3.692059 -0.5744607 1.763973
v -3.648597 0.1871688 3.038027
v -3.472837 -0.5373316 3.051367
v -3.877167 0.1737542 1.759634
v 1.845888 -1.175868 1.820386
v 1.200469 -1.435827 3.127697
v 1.842499 -1.120215 3.100537
v 1.185656 -1.502021 1.832828
v 1.437532 2.723162 1.866857
v 2.248858 2.168178 3.102163
v 1.438895 2.641029 3.13326
v 2.268913 2.229314 1.853532
v 2.268913 2.229314 1.853532
v 2.852977 1.526859 3.06729
v 2.248858 2.168178 3.102163
v 2.886439 1.562051 1.829556
v -1.8557 2.608156 1.830727
v -0.999002 2.846006 3.15303
v -1.73683 2.53192 3.136091
v -1.085267 2.937351 1.847496
v -1.085267 2.937351 1.847496
v 0.05885309 2.944873 3.156976
v -0.999002 2.846006 3.15303
v 0.01328218 3.041355 1.863065
v 0.01328218 3.041355 1.863065
v 0.60704 2.649021 3.140079
v 0.05885309 2.944873 3.156976
v 0.5794482 2.731196 1.858765
v 5.520918 -1.526937 1.74064
v 4.50439 -2.265428 3.044842
v 5.425344 -1.466442 2.952784
v 4.582382 -2.352339 1.808486
v 0.1852689 -2.722828 1.867193
v -0.9861161 -2.878273 3.200276
v 0.2291456 -2.617828 3.18853
v -1.076323 -2.992934 1.864342
v 1.438895 2.641029 3.13326
v 1.990719 1.749045 3.575721
v 1.247645 2.167135 3.606209
v 2.248858 2.168178 3.102163
v 5.425344 -1.466442 2.952784
v 4.273018 -1.765049 3.533748
v 4.927305 -1.19546 3.47365
v 4.50439 -2.265428 3.044842
v 5.852762 0.3365191 2.925531
v 4.927305 -1.19546 3.47365
v 5.27513 0.2154003 3.436962
v 5.425344 -1.466442 2.952784
v 1.200469 -1.435827 3.127697
v -0.08699872 -2.196547 3.711949
v 0.8233235 -1.077239 3.643888
v 0.2291456 -2.617828 3.18853
v 0.05885309 2.944873 3.156976
v 0.4927658 2.17458 3.62133
v -0.01927182 2.452521 3.640305
v 0.60704 2.649021 3.140079
v -1.73683 2.53192 3.136091
v -0.918725 2.408832 3.648573
v -1.627334 2.100533 3.639845
v -0.999002 2.846006 3.15303
v 2.988739 -0.9541714 3.558371
v 4.08533 0.5904689 3.488198
v 5.27513 0.2154003 3.436962
v 2.789415 1.051327 3.539411
v 1.87546 -0.5585161 3.591151
v 1.990719 1.749045 3.575721
v 0.8233235 -1.077239 3.643888
v 0.4927658 2.17458 3.62133

vn 0.2148438 0.08569336 0.9726563
vn 0.2148438 0.08569336 0.9726563
vn 0.2148438 0.08569336 0.9726563
vn 0.2355957 0.06082153 0.9697266
vn 0.2355957 0.06082153 0.9697266
vn 0.2355957 0.06082153 0.9697266
vn 0.9848633 0.1408691 0.102356
vn 0.9848633 0.1408691 0.102356
vn 0.9848633 0.1408691 0.102356
vn 0.9848633 0.1622314 0.0602417
vn 0.9848633 0.1622314 0.0602417
vn 0.9848633 0.1622314 0.0602417
vn -0.116272 0.9736328 0.1959229
vn -0.116272 0.9736328 0.1959229
vn -0.116272 0.9736328 0.1959229
vn -0.1098633 0.9941406 -0.005432129
vn -0.1098633 0.9941406 -0.005432129
vn -0.1098633 0.9941406 -0.005432129
vn -0.949707 0.002824783 0.3129883
vn -0.949707 0.002824783 0.3129883
vn -0.949707 0.002824783 0.3129883
vn -0.9526367 -0.006313324 0.3044434
vn -0.9526367 -0.006313324 0.3044434
vn -0.9526367 -0.006313324 0.3044434
vn -0.3210449 0.02020264 -0.9467773
vn -0.3210449 0.02020264 -0.9467773
vn -0.3210449 0.02020264 -0.9467773
vn -0.3312988 0.02638245 -0.9433594
vn -0.3312988 0.02638245 -0.9433594
vn -0.3312988 0.02638245 -0.9433594
vn -0.1116943 0.4418945 0.8901367
vn -0.1116943 0.4418945 0.8901367
vn -0.1116943 0.4418945 0.8901367
vn -0.1706543 0.3837891 0.9077148
vn -0.1706543 0.3837891 0.9077148
vn -0.1706543 0.3837891 0.9077148
vn 0.2509766 0.5126953 0.8212891
vn 0.2509766 0.5126953 0.8212891
vn 0.2509766 0.5126953 0.8212891
vn 0.2219238 0.4477539 0.8662109
vn 0.2219238 0.4477539 0.8662109
vn 0.2219238 0.4477539 0.8662109
vn 0.7949219 0.449707 -0.4067383
vn 0.7949219 0.449707 -0.4067383
vn 0.7949219 0.449707 -0.4067383
vn 0.7680664 0.4833984 -0.4204102
vn 0.7680664 0.4833984 -0.4204102
vn 0.7680664 0.4833984 -0.4204102
vn 0.7646484 0.4431152 -0.4680176
vn 0.7646484 0.4431152 -0.4680176
vn 0.7646484 0.4431152 -0.4680176
vn 0.7817383 0.4265137 -0.4550781
vn 0.7817383 0.4265137 -0.4550781
vn 0.7817383 0.4265137 -0.4550781
vn -0.8637695 0.4516602 0.2232666
vn -0.8637695 0.4516602 0.2232666
vn -0.8637695 0.4516602 0.2232666
vn -0.8608398 0.4560547 0.2254639
vn -0.8608398 0.4560547 0.2254639
vn -0.8608398 0.4560547 0.2254639
vn 0.7148438 0.4763184 0.5117188
vn 0.7148438 0.4763184 0.5117188
vn 0.7148438 0.4763184 0.5117188
vn 0.7119141 0.4658203 0.5258789
vn 0.7119141 0.4658203 0.5258789
vn 0.7119141 0.4658203 0.5258789
vn -0.07849121 0.4338379 -0.8974609
vn -0.07849121 0.4338379 -0.8974609
vn -0.07849121 0.4338379 -0.8974609
vn -0.06951904 0.4274902 -0.9013672
vn -0.06951904 0.4274902 -0.9013672
vn -0.06951904 0.4274902 -0.9013672
vn 0.1864014 0.4123535 -0.8916016
vn 0.1864014 0.4123535 -0.8916016
vn 0.1864014 0.4123535 -0.8916016
vn 0.1745605 0.4279785 -0.8867188
vn 0.1745605 0.4279785 -0.8867188
vn 0.1745605 0.4279785 -0.8867188
vn 0.8789063 0.4411621 0.1810303
vn 0.8789063 0.4411621 0.1810303
vn 0.8789063 0.4411621 0.1810303
vn 0.8598633 0.5083008 0.04501343
vn 0.8598633 0.5083008 0.04501343
vn 0.8598633 0.5083008 0.04501343
vn -0.5947266 0.4355469 0.6757813
vn -0.5947266 0.4355469 0.6757813
vn -0.5947266 0.4355469 0.6757813
vn -0.5849609 0.4436035 0.6791992
vn -0.5849609 0.4436035 0.6791992
vn -0.5849609 0.4436035 0.6791992
vn -0.2983398 0.373291 0.878418
vn -0.2983398 0.373291 0.878418
vn -0.2983398 0.373291 0.878418
vn -0.2312012 0.4313965 0.8720703
vn -0.2312012 0.4313965 0.8720703
vn -0.2312012 0.4313965 0.8720703
vn -0.3505859 0.4296875 0.8320313
vn -0.3505859 0.4296875 0.8320313
vn -0.3505859 0.4296875 0.8320313
vn -0.3417969 0.434082 0.8334961
vn -0.3417969 0.434082 0.8334961
vn -0.3417969 0.434082 0.8334961
vn 0.4243164 0.3857422 0.8193359
vn 0.4243164 0.3857422 0.8193359
vn 0.4243164 0.3857422 0.8193359
vn 0.4111328 0.3828125 0.8271484
vn 0.4111328 0.3828125 0.8271484
vn 0.4111328 0.3828125 0.8271484
vn 0.5126953 0.4309082 -0.7426758
vn 0.5126953 0.4309082 -0.7426758
vn 0.5126953 0.4309082 -0.7426758
vn 0.4924316 0.4509277 -0.7446289
vn 0.4924316 0.4509277 -0.7446289
vn 0.4924316 0.4509277 -0.7446289
vn 0.02293396 0.9990234 0.03747559
vn 0.02293396 0.9990234 0.03747559
vn 0.02293396 0.9990234 0.03747559
vn -0.05630493 0.9975586 -0.03814697
vn -0.05630493 0.9975586 -0.03814697
vn -0.02940369 0.9995117 -0.01530457
vn -0.1296387 0.9902344 -0.04998779
vn -0.1296387 0.9902344 -0.04998779
vn -0.1296387 0.9902344 -0.04998779
vn 0.009223938 0.987793 -0.1539307
vn 0.009223938 0.987793 -0.1539307
vn 0.009223938 0.987793 -0.1539307
vn -0.00586319 0.9941406 0.1062012
vn -0.00586319 0.9941406 0.1062012
vn -0.00586319 0.9941406 0.1062012
vn -0.008163452 1 -0.007827759
vn -0.008163452 1 -0.007827759
vn -0.008163452 1 -0.007827759
vn 0.0614624 0.9916992 -0.1138916
vn 0.0614624 0.9916992 -0.1138916
vn 0.0614624 0.9916992 -0.1138916
vn 0.06323242 0.9975586 0.02568054
vn 0.06323242 0.9975586 0.02568054
vn 0.06323242 0.9975586 0.02568054
vn 0.1324463 0.9882813 0.07855225
vn 0.1324463 0.9882813 0.07855225
vn 0.06072998 0.9936523 -0.09436035
vn 0.06072998 0.9936523 -0.09436035
vn 0.06072998 0.9936523 -0.09436035
vn 0.003408432 1 0.002182007
vn 0.003408432 1 0.002182007
vn 0.003408432 1 0.002182007
vn 0.1246338 0.9887695 0.07989502
vn 0.1246338 0.9887695 0.07989502
vn 0.1246338 0.9887695 0.07989502
vn 0.124939 0.9892578 0.07324219
vn 0.124939 0.9892578 0.07324219
vn 0.124939 0.9892578 0.07324219
vn 0.1173096 0.9931641 -0.003398895
vn 0.1173096 0.9931641 -0.003398895
vn 0.1173096 0.9931641 -0.003398895
vn 0.04107666 0.9970703 -0.06256104
vn 0.04107666 0.9970703 -0.06256104
vn 0.04107666 0.9970703 -0.06256104
vn 0.065979 0.9912109 -0.1134033
vn 0.065979 0.9912109 -0.1134033
vn 0.065979 0.9912109 -0.1134033
vn 0.1089478 0.9941406 -0.01676941
vn 0.1089478 0.9941406 -0.01676941
vn 0.1089478 0.9941406 -0.01676941
vn -0.144043 0.9868164 0.07165527
vn -0.144043 0.9868164 0.07165527
vn -0.144043 0.9868164 0.07165527
vn -0.1118164 0.9936523 0.0004093647
vn -0.1118164 0.9936523 0.0004093647
vn -0.1118164 0.9936523 0.0004093647
vn 0.05404663 0.3825684 0.9223633
vn 0.05404663 0.3825684 0.9223633
vn 0.05404663 0.3825684 0.9223633
vn 0.009162903 0.3510742 0.9360352
vn 0.009162903 0.3510742 0.9360352
vn 0.009162903 0.3510742 0.9360352
vn 0.09863281 0.4091797 0.9072266
vn 0.09863281 0.4091797 0.9072266
vn 0.09863281 0.4091797 0.9072266
vn 0.074646 0.3833008 0.9204102
vn 0.074646 0.3833008 0.9204102
vn 0.074646 0.3833008 0.9204102
vn 0.8930664 0.3496094 -0.2834473
vn 0.8930664 0.3496094 -0.2834473
vn 0.8930664 0.3496094 -0.2834473
vn 0.8540039 0.40625 -0.324707
vn 0.8540039 0.40625 -0.324707
vn 0.8540039 0.40625 -0.324707
vn 0.5327148 0.4067383 -0.7421875
vn 0.5327148 0.4067383 -0.7421875
vn 0.5327148 0.4067383 -0.7421875
vn 0.503418 0.4296875 -0.7495117
vn 0.503418 0.4296875 -0.7495117
vn 0.503418 0.4296875 -0.7495117
vn -0.5532227 0.4355469 0.7099609
vn -0.5532227 0.4355469 0.7099609
vn -0.5532227 0.4355469 0.7099609
vn -0.684082 0.3005371 0.6645508
vn -0.684082 0.3005371 0.6645508
vn -0.684082 0.3005371 0.6645508
vn 0.7197266 0.3183594 0.6166992
vn 0.7197266 0.3183594 0.6166992
vn 0.7197266 0.3183594 0.6166992
vn 0.730957 0.3417969 0.5908203
vn 0.730957 0.3417969 0.5908203
vn 0.730957 0.3417969 0.5908203
vn -0.1760254 0.3820801 -0.9072266
vn -0.1760254 0.3820801 -0.9072266
vn -0.1760254 0.3820801 -0.9072266
vn -0.1687012 0.3774414 -0.9106445
vn -0.1687012 0.3774414 -0.9106445
vn -0.1687012 0.3774414 -0.9106445
vn 0.104187 0.3603516 -0.9267578
vn 0.104187 0.3603516 -0.9267578
vn 0.104187 0.3603516 -0.9267578
vn 0.08325195 0.3759766 -0.9228516
vn 0.08325195 0.3759766 -0.9228516
vn 0.08325195 0.3759766 -0.9228516
vn 0.9213867 0.3867188 -0.0322876
vn 0.9213867 0.3867188 -0.0322876
vn 0.9213867 0.3867188 -0.0322876
vn 0.9492188 0.3037109 0.08135986
vn 0.9492188 0.3037109 0.08135986
vn 0.9492188 0.3037109 0.08135986
vn 0.8183594 0.3149414 0.4804688
vn 0.8183594 0.3149414 0.4804688
vn 0.8183594 0.3149414 0.4804688
vn 0.8574219 0.3771973 0.3505859
vn 0.8574219 0.3771973 0.3505859
vn 0.8574219 0.3771973 0.3505859
vn 0.6567383 0.3708496 -0.6567383
vn 0.6567383 0.3708496 -0.6567383
vn 0.6567383 0.3708496 -0.6567383
vn 0.7426758 0.3271484 -0.5839844
vn 0.7426758 0.3271484 -0.5839844
vn 0.7426758 0.3271484 -0.5839844
vn -0.8017578 0.3977051 0.4460449
vn -0.8017578 0.3977051 0.4460449
vn -0.8017578 0.3977051 0.4460449
vn -0.8696289 0.3110352 0.3833008
vn -0.8696289 0.3110352 0.3833008
vn -0.8696289 0.3110352 0.3833008
vn -0.5859375 0.3869629 0.7119141
vn -0.5859375 0.3869629 0.7119141
vn -0.5859375 0.3869629 0.7119141
vn -0.5419922 0.4348145 0.71875
vn -0.5419922 0.4348145 0.71875
vn -0.5419922 0.4348145 0.71875
vn -0.2492676 0.3535156 0.9013672
vn -0.2492676 0.3535156 0.9013672
vn -0.2492676 0.3535156 0.9013672
vn -0.1947021 0.3911133 0.8994141
vn -0.1947021 0.3911133 0.8994141
vn -0.1947021 0.3911133 0.8994141
vn -0.3071289 0.3891602 0.8686523
vn -0.3071289 0.3891602 0.8686523
vn -0.3071289 0.3891602 0.8686523
vn -0.2958984 0.3945313 0.8701172
vn -0.2958984 0.3945313 0.8701172
vn -0.2958984 0.3945313 0.8701172
vn 0.734375 0.2561035 -0.628418
vn 0.734375 0.2561035 -0.628418
vn 0.734375 0.2561035 -0.628418
vn 0.6289063 0.401123 -0.6660156
vn 0.6289063 0.401123 -0.6660156
vn 0.6289063 0.401123 -0.6660156
vn 0.4106445 0.3857422 -0.8261719
vn 0.4106445 0.3857422 -0.8261719
vn 0.4106445 0.3857422 -0.8261719
vn 0.4194336 0.3762207 -0.8261719
vn 0.4194336 0.3762207 -0.8261719
vn 0.4194336 0.3762207 -0.8261719
vn -0.05352783 0.9912109 0.1190796
vn -0.05352783 0.9912109 0.1190796
vn -0.05352783 0.9912109 0.1190796
vn -0.09344482 0.9956055 -0.003290176
vn -0.09344482 0.9956055 -0.003290176
vn -0.09344482 0.9956055 -0.003290176
vn -0.0166626 0.9951172 -0.09857178
vn -0.0166626 0.9951172 -0.09857178
vn -0.0166626 0.9951172 -0.09857178
vn 0.0287323 0.9985352 0.04989624
vn 0.0287323 0.9985352 0.04989624
vn 0.0287323 0.9985352 0.04989624
vn 0.008041382 0.9936523 -0.112915
vn 0.008041382 0.9936523 -0.112915
vn 0.008041382 0.9936523 -0.112915
vn -0.06063843 0.9980469 0.02030945
vn -0.06063843 0.9980469 0.02030945
vn -0.06063843 0.9980469 0.02030945
vn 0.09869385 0.9882813 0.1160278
vn 0.09869385 0.9882813 0.1160278
vn 0.09869385 0.9882813 0.1160278
vn 0.151123 0.9814453 0.1196289
vn 0.151123 0.9814453 0.1196289
vn 0.151123 0.9814453 0.1196289
vn 0.03189087 0.9980469 0.05227661
vn 0.03189087 0.9980469 0.05227661
vn 0.03189087 0.9980469 0.05227661
vn 0.1237183 0.9907227 0.05551147
vn 0.1237183 0.9907227 0.05551147
vn 0.1237183 0.9907227 0.05551147
vn 0.04138184 0.9990234 0.01036072
vn 0.04138184 0.9990234 0.01036072
vn 0.04138184 0.9990234 0.01036072
vn 0.08782959 0.9956055 -0.03427124
vn 0.08782959 0.9956055 -0.03427124
vn 0.08782959 0.9956055 -0.03427124
vn 0.1067505 0.9936523 0.03286743
vn 0.1067505 0.9936523 0.03286743
vn 0.1067505 0.9936523 0.03286743
vn -0.2631836 0.005657196 0.9648438
vn -0.2631836 0.005657196 0.9648438
vn -0.2631836 0.005657196 0.9648438
vn -0.262207 0.005992889 0.9648438
vn -0.3933105 0.01982117 0.9189453
vn -0.3933105 0.01982117 0.9189453
vn -0.3933105 0.01982117 0.9189453
vn -0.3964844 0.01843262 0.9179688
vn 0.5410156 0.04693604 -0.8393555
vn 0.5410156 0.04693604 -0.8393555
vn 0.5410156 0.04693604 -0.8393555
vn 0.534668 0.05245972 -0.8432617
vn 0.3842773 0.03796387 -0.9223633
vn 0.3842773 0.03796387 -0.9223633
vn 0.3842773 0.03796387 -0.9223633
vn 0.3886719 0.03512573 -0.9208984
vn 0.8535156 0.07745361 -0.5151367
vn 0.8535156 0.07745361 -0.5151367
vn 0.8535156 0.07745361 -0.5151367
vn 0.84375 0.09277344 -0.5288086
vn -0.8256836 0.002403259 -0.5644531
vn -0.8256836 0.002403259 -0.5644531
vn -0.8256836 0.002403259 -0.5644531
vn -0.8256836 0.002248764 -0.5644531
vn 0.8422852 0.03007507 -0.5380859
vn 0.8422852 0.03007507 -0.5380859
vn 0.8422852 0.03007507 -0.5380859
vn 0.8486328 0.02577209 -0.5283203
vn -0.7495117 0.004741669 -0.6621094
vn -0.7495117 0.004741669 -0.6621094
vn -0.7495117 0.004741669 -0.6621094
vn -0.746582 0.003854752 -0.6650391
vn 0.8041992 0.1022339 0.5854492
vn 0.8041992 0.1022339 0.5854492
vn 0.8041992 0.1022339 0.5854492
vn 0.793457 0.09240723 0.6015625
vn 0.4890137 0.03411865 -0.871582
vn 0.4890137 0.03411865 -0.871582
vn 0.4890137 0.03411865 -0.871582
vn 0.4746094 0.03634644 -0.8793945
vn 0.9863281 0.09985352 -0.1307373
vn 0.9863281 0.09985352 -0.1307373
vn 0.9863281 0.09985352 -0.1307373
vn 0.9799805 0.1094971 -0.1676025
vn -0.0635376 0.02554321 -0.9975586
vn -0.0635376 0.02554321 -0.9975586
vn -0.0635376 0.02554321 -0.9975586
vn -0.06494141 0.02601624 -0.9975586
vn -0.9111328 0.008384705 0.4123535
vn -0.9111328 0.008384705 0.4123535
vn -0.9111328 0.008384705 0.4123535
vn -0.9145508 0.004917145 0.4040527
vn -0.6411133 0.008666992 0.7670898
vn -0.6411133 0.008666992 0.7670898
vn -0.6411133 0.008666992 0.7670898
vn -0.6479492 0.004920959 0.7617188
vn 0.4213867 0.04806519 0.9057617
vn 0.4213867 0.04806519 0.9057617
vn 0.4213867 0.04806519 0.9057617
vn 0.4169922 0.04696655 0.9077148
vn -0.2729492 0.02854919 0.9614258
vn -0.2729492 0.02854919 0.9614258
vn -0.2729492 0.02854919 0.9614258
vn -0.2739258 0.02790833 0.9614258
vn -0.7807617 0.01333618 0.625
vn -0.7807617 0.01333618 0.625
vn -0.7807617 0.01333618 0.625
vn -0.784668 0.01119995 0.6201172
vn -0.1862793 0.02993774 0.9819336
vn -0.1862793 0.02993774 0.9819336
vn -0.1862793 0.02993774 0.9819336
vn -0.1893311 0.02775574 0.9814453
vn 0.1826172 0.03430176 -0.9824219
vn 0.1826172 0.03430176 -0.9824219
vn 0.1826172 0.03430176 -0.9824219
vn 0.1859131 0.03114319 -0.9819336
vn -0.8334961 0.4309082 0.345459
vn -0.8334961 0.4309082 0.345459
vn -0.8334961 0.4309082 0.345459
vn -0.8320313 0.432373 0.347168
vn -0.3552246 0.4753418 -0.8051758
vn -0.3552246 0.4753418 -0.8051758
vn -0.3552246 0.4753418 -0.8051758
vn -0.3500977 0.4707031 -0.8100586
vn -0.7475586 0.4575195 -0.4819336
vn -0.7475586 0.4575195 -0.4819336
vn -0.7475586 0.4575195 -0.4819336
vn -0.7475586 0.4624023 -0.4770508
vn 0.8725586 0.4697266 -0.1346436
vn 0.8725586 0.4697266 -0.1346436
vn 0.8725586 0.4697266 -0.1346436
vn 0.8808594 0.4587402 -0.1154785
vn 0.427002 0.4038086 -0.809082
vn 0.427002 0.4038086 -0.809082
vn 0.427002 0.4038086 -0.809082
vn 0.4594727 0.4016113 -0.7919922
vn -0.7416992 0.395752 -0.5415039
vn -0.7416992 0.395752 -0.5415039
vn -0.7416992 0.395752 -0.5415039
vn -0.7124023 0.3879395 -0.5844727
vn -0.2507324 0.4404297 0.8623047
vn -0.2507324 0.4404297 0.8623047
vn -0.2507324 0.4404297 0.8623047
vn -0.2327881 0.4482422 0.8632813
vn -0.715332 0.4233398 0.5561523
vn -0.715332 0.4233398 0.5561523
vn -0.715332 0.4233398 0.5561523
vn -0.7119141 0.4257813 0.5585938
vn 0.3242188 0.4768066 -0.8168945
vn 0.3242188 0.4768066 -0.8168945
vn 0.3242188 0.4768066 -0.8168945
vn 0.3532715 0.453125 -0.8183594
vn -0.5698242 0.01493073 0.8217773
vn -0.5698242 0.01493073 0.8217773
vn -0.5698242 0.01493073 0.8217773
vn -0.5717773 0.01371002 0.8203125
vn -0.3146973 0.02719116 0.9487305
vn -0.3146973 0.02719116 0.9487305
vn -0.3146973 0.02719116 0.9487305
vn -0.3132324 0.02758789 0.9492188
vn 0.03308105 0.0430603 0.9985352
vn 0.03308105 0.0430603 0.9985352
vn 0.03308105 0.0430603 0.9985352
vn 0.04223633 0.03833008 0.9985352
vn -0.008834839 0.03601074 0.9995117
vn -0.008834839 0.03601074 0.9995117
vn -0.01108551 0.03515625 0.9995117
vn 0.9101563 0.09344482 0.4038086
vn 0.9101563 0.09344482 0.4038086
vn 0.9101563 0.09344482 0.4038086
vn 0.9067383 0.09039307 0.4118652
vn 0.432373 0.0401001 -0.9008789
vn 0.432373 0.0401001 -0.9008789
vn 0.432373 0.0401001 -0.9008789
vn 0.4304199 0.04125977 -0.9018555
vn 0.6982422 0.01477814 -0.7158203
vn 0.6982422 0.01477814 -0.7158203
vn 0.6982422 0.01477814 -0.7158203
vn 0.6982422 0.01465607 -0.715332
vn 0.9106445 0.06500244 -0.4086914
vn 0.9106445 0.06500244 -0.4086914
vn 0.9106445 0.06500244 -0.4086914
vn 0.902832 0.07397461 -0.423584
vn -0.8564453 0.03607178 -0.5151367
vn -0.8564453 0.03607178 -0.5151367
vn -0.8564453 0.03607178 -0.5151367
vn -0.8574219 0.03747559 -0.5131836
vn -0.6918945 0.01678467 0.7216797
vn -0.6918945 0.01678467 0.7216797
vn -0.6918945 0.01678467 0.7216797
vn -0.6938477 0.01504517 0.7197266
vn 0.5786133 0.01745605 -0.8154297
vn 0.5786133 0.01745605 -0.8154297
vn 0.5786133 0.01745605 -0.8154297
vn 0.5791016 0.01728821 -0.8154297
vn -0.5429688 0.01003265 -0.8398438
vn -0.5429688 0.01003265 -0.8398438
vn -0.5429688 0.01003265 -0.8398438
vn -0.543457 0.01048279 -0.8393555
vn 0.7749023 0.06744385 0.628418
vn 0.7749023 0.06744385 0.628418
vn 0.7749023 0.06744385 0.628418
vn 0.7670898 0.06246948 0.6386719
vn 0.7651367 0.04431152 -0.6420898
vn 0.7651367 0.04431152 -0.6420898
vn 0.7651367 0.04431152 -0.6420898
vn 0.7548828 0.04800415 -0.6542969
vn 0.9946289 0.07312012 0.07489014
vn 0.9946289 0.07312012 0.07489014
vn 0.9946289 0.07312012 0.07489014
vn 0.9946289 0.07476807 0.06829834
vn -0.1477051 0.01708984 -0.9887695
vn -0.1477051 0.01708984 -0.9887695
vn -0.1477051 0.01708984 -0.9887695
vn -0.1488037 0.01733398 -0.9887695
vn -0.7446289 0.02357483 0.6669922
vn -0.7446289 0.02357483 0.6669922
vn -0.7446289 0.02357483 0.6669922
vn -0.7490234 0.02139282 0.6621094
vn -0.902832 0.01924133 0.4291992
vn -0.902832 0.01924133 0.4291992
vn -0.902832 0.01924133 0.4291992
vn -0.9067383 0.0166626 0.421875
vn 0.09405518 0.03808594 0.9946289
vn 0.09405518 0.03808594 0.9946289
vn 0.09405518 0.03808594 0.9946289
vn 0.09533691 0.03842163 0.9946289
vn -0.2148438 0.03225708 0.9760742
vn -0.2148438 0.03225708 0.9760742
vn -0.2148438 0.03225708 0.9760742
vn -0.2128906 0.0329895 0.9765625
vn -0.7216797 0.02076721 0.6918945
vn -0.7216797 0.02076721 0.6918945
vn -0.7216797 0.02076721 0.6918945
vn -0.7250977 0.01953125 0.6879883
vn -0.3994141 0.03808594 -0.9160156
vn -0.3994141 0.03808594 -0.9160156
vn -0.3994141 0.03808594 -0.9160156
vn -0.4040527 0.04016113 -0.9135742
vn 0.0980835 0.03007507 -0.9946289
vn 0.0980835 0.03007507 -0.9946289
vn 0.0980835 0.03007507 -0.9946289
vn 0.09912109 0.0296936 -0.9946289
vn -0.6904297 0.4130859 0.59375
vn -0.6904297 0.4130859 0.59375
vn -0.6904297 0.4130859 0.59375
vn -0.7006836 0.404541 0.5874023
vn -0.4208984 0.4064941 -0.8110352
vn -0.4208984 0.4064941 -0.8110352
vn -0.4208984 0.4064941 -0.8110352
vn -0.4248047 0.409668 -0.8076172
vn -0.7895508 0.4089355 -0.4575195
vn -0.7895508 0.4089355 -0.4575195
vn -0.7895508 0.4089355 -0.4575195
vn -0.7895508 0.4067383 -0.4599609
vn -0.5385742 0.3916016 -0.7460938
vn -0.5385742 0.3916016 -0.7460938
vn -0.5385742 0.3916016 -0.7460938
vn -0.5307617 0.3808594 -0.7573242
vn -0.6884766 0.3786621 0.6186523
vn -0.6884766 0.3786621 0.6186523
vn -0.6884766 0.3786621 0.6186523
vn -0.6826172 0.3825684 0.6225586
vn 0.1030273 0.3474121 0.9321289
vn 0.1030273 0.3474121 0.9321289
vn 0.1030273 0.3474121 0.9321289
vn 0.1036377 0.3476563 0.9316406
vn -0.08496094 0.996582 0.004318237
vn -0.1087646 0.9941406 -0.000825882
vn -0.112915 0.9936523 -0.006408691
vn -0.08496094 0.996582 0.004318237
vn -0.08496094 0.996582 0.004318237
vn -0.1098022 0.9936523 -0.02467346
vn -0.1098022 0.9936523 -0.02467346
vn -0.08184814 0.996582 -0.0008158684

vt 0.08331299 0
vt 0.25 0.7207031
vt 0.25 0
vt 0.25 0.7207031
vt 0.08331299 0
vt 0.08331299 0.7207031
vt 0.270752 0
vt 0.25 0.7207031
vt 0.270752 0.7207031
vt 0.25 0.7207031
vt 0.270752 0
vt 0.25 0
vt 0.3081055 1
vt 0.6298828 1
vt 0.5498047 1
vt 0.6298828 1
vt 0.3081055 1
vt 0.7089844 1
vt 0.75 0
vt 0.7084961 0.7207031
vt 0.75 0.7207031
vt 0.7084961 0.7207031
vt 0.75 0
vt 0.7084961 0
vt 0.6665039 0
vt 0.625 0.7207031
vt 0.6665039 0.7207031
vt 0.625 0.7207031
vt 0.6665039 0
vt 0.625 0
vt 0.9819336 1.762695
vt 0.7250977 1
vt 0.5292969 1
vt 0.7250977 1
vt 0.9819336 1.762695
vt 1.454102 1.486328
vt 0.2341309 0.9521484
vt 0.5292969 1
vt 0.282959 1
vt 0.5292969 1
vt 0.2341309 0.9521484
vt 0.489502 1.009766
vt 0.03985596 0.8569336
vt 0.1690674 1
vt 0.1290283 1
vt 0.1690674 1
vt 0.03985596 0.8569336
vt -0.004165649 0.9345703
vt 0.6152344 1.504883
vt 0.4018555 1
vt 0.3081055 1
vt 0.4018555 1
vt 0.6152344 1.504883
vt 0.6157227 1.433594
vt 0.75 0.7207031
vt 0.7089844 1
vt 0.7001953 1
vt 0.7089844 1
vt 0.75 0.7207031
vt 0.7084961 0.7207031
vt 0.1887207 0.8232422
vt -0.01275635 1
vt 0.1690674 1
vt -0.01275635 1
vt 0.1887207 0.8232422
vt 0.1418457 0.8330078
vt 0.3103027 0.8950195
vt 0.3088379 1
vt 0.4018555 1
vt 0.3088379 1
vt 0.3103027 0.8950195
vt 0.2214355 0.9052734
vt 0.189209 0.9379883
vt 0.1605225 1
vt 0.2553711 1
vt 0.1605225 1
vt 0.189209 0.9379883
vt 0.07696533 0.9790039
vt 0.2338867 1.320313
vt 0.282959 1
vt 0.2282715 1
vt 0.282959 1
vt 0.2338867 1.320313
vt 0.4331055 1.299805
vt 0.8334961 0.7207031
vt 0.7202148 1
vt 0.5800781 1
vt 0.7202148 1
vt 0.8334961 0.7207031
vt 0.7915039 0.7207031
vt 0.8359375 1.148438
vt 0.8569336 1
vt 0.7480469 1
vt 0.8569336 1
vt 0.8359375 1.148438
vt 0.9946289 1.094727
vt 0.8823242 1.151367
vt 0.8134766 1
vt 0.7431641 1
vt 0.8134766 1
vt 0.8823242 1.151367
vt 0.9770508 1.134766
vt 0.9882813 2.072266
vt 0.7480469 1
vt 0.7250977 1
vt 0.7480469 1
vt 0.9882813 2.072266
vt 1.302734 2.027344
vt 0.1854248 1.083984
vt 0.1290283 1
vt 0.1605225 1
vt 0.1290283 1
vt 0.1854248 1.083984
vt 0.1945801 1.058594
vt 0.7202148 1
vt 0.3081055 1
vt 0.4018555 1
vt 0.5800781 1
vt 0.3088379 1
vt 0.7431641 1
vt 0.7202148 1
vt 0.7089844 1
vt 0.3081055 1
vt 0.7089844 1
vt 0.7202148 1
vt 0.7001953 1
vt 0.1605225 1
vt 0.3088379 1
vt 0.2553711 1
vt 0.3088379 1
vt 0.1605225 1
vt 0.7431641 1
vt 0.5800781 1
vt 0.7431641 1
vt 0.8134766 1
vt 0.7480469 1
vt 0.1605225 1
vt 0.1290283 1
vt -0.01275635 1
vt 0.7250977 1
vt 0.7431641 1
vt 0.7480469 1
vt 0.8569336 1
vt 0.7480469 1
vt 0.7431641 1
vt 0.1605225 1
vt -0.01275635 1
vt 0.1290283 1
vt 0.1690674 1
vt 0.1290283 1
vt 0.7250977 1
vt 0.7480469 1
vt 0.5292969 1
vt -0.01275635 1
vt 0.2836914 1
vt -0.01275635 1
vt 0.5292969 1
vt 0.7250977 1
vt 0.5292969 1
vt 0.2282715 1
vt 0.282959 1
vt 0.2282715 1
vt 0.5292969 1
vt 0.2836914 1
vt 0.3081055 1
vt 0.6298828 1
vt 0.5498047 1
vt 0.6298828 1
vt 0.3081055 1
vt 0.7089844 1
vt 0.9819336 1.762695
vt 0.7250977 1
vt 0.5292969 1
vt 0.7250977 1
vt 0.9819336 1.762695
vt 1.454102 1.486328
vt 0.2341309 0.9521484
vt 0.5292969 1
vt 0.282959 1
vt 0.5292969 1
vt 0.2341309 0.9521484
vt 0.489502 1.009766
vt 0.03985596 0.8569336
vt 0.1690674 1
vt 0.1290283 1
vt 0.1690674 1
vt 0.03985596 0.8569336
vt -0.004165649 0.9345703
vt 0.6152344 1.504883
vt 0.4018555 1
vt 0.3081055 1
vt 0.4018555 1
vt 0.6152344 1.504883
vt 0.6157227 1.433594
vt 0.75 0.7207031
vt 0.7089844 1
vt 0.7001953 1
vt 0.7089844 1
vt 0.75 0.7207031
vt 0.7084961 0.7207031
vt 0.1887207 0.8232422
vt -0.01275635 1
vt 0.1690674 1
vt -0.01275635 1
vt 0.1887207 0.8232422
vt 0.1418457 0.8330078
vt 0.3103027 0.8950195
vt 0.3088379 1
vt 0.4018555 1
vt 0.3088379 1
vt 0.3103027 0.8950195
vt 0.2214355 0.9052734
vt 0.189209 0.9379883
vt 0.1605225 1
vt 0.2553711 1
vt 0.1605225 1
vt 0.189209 0.9379883
vt 0.07696533 0.9790039
vt 0.1689453 1.164063
vt 0.2836914 1
vt -0.01275635 1
vt 0.2836914 1
vt 0.1689453 1.164063
vt 0.2265625 1.162109
vt 0.2338867 1.320313
vt 0.282959 1
vt 0.2282715 1
vt 0.282959 1
vt 0.2338867 1.320313
vt 0.4331055 1.299805
vt 0.1967773 0.8188477
vt 0.2282715 1
vt 0.2836914 1
vt 0.2282715 1
vt 0.1967773 0.8188477
vt 0.1538086 0.8237305
vt 0.8334961 0.7207031
vt 0.7202148 1
vt 0.5800781 1
vt 0.7202148 1
vt 0.8334961 0.7207031
vt 0.7915039 0.7207031
vt 0.7915039 0.7207031
vt 0.7001953 1
vt 0.7202148 1
vt 0.7001953 1
vt 0.7915039 0.7207031
vt 0.75 0.7207031
vt 0.8359375 1.148438
vt 0.8569336 1
vt 0.7480469 1
vt 0.8569336 1
vt 0.8359375 1.148438
vt 0.9946289 1.094727
vt 0.8823242 1.151367
vt 0.8134766 1
vt 0.7431641 1
vt 0.8134766 1
vt 0.8823242 1.151367
vt 0.9770508 1.134766
vt 0.625 0.7207031
vt 0.3081055 1
vt 0.5498047 1
vt 0.3081055 1
vt 0.625 0.7207031
vt 0.5834961 0.7207031
vt 0.1854248 1.083984
vt 0.1290283 1
vt 0.1605225 1
vt 0.1290283 1
vt 0.1854248 1.083984
vt 0.1945801 1.058594
vt 0.1605225 1
vt 0.3088379 1
vt 0.2553711 1
vt 0.3088379 1
vt 0.1605225 1
vt 0.7431641 1
vt 0.5800781 1
vt 0.7431641 1
vt 0.8134766 1
vt 0.7480469 1
vt 0.1605225 1
vt 0.1290283 1
vt 0.7431641 1
vt 0.7480469 1
vt 0.8569336 1
vt 0.7480469 1
vt 0.7431641 1
vt 0.1605225 1
vt -0.01275635 1
vt 0.1290283 1
vt 0.1690674 1
vt 0.1290283 1
vt -0.01275635 1
vt 0.7250977 1
vt 0.1290283 1
vt 0.7250977 1
vt 0.7480469 1
vt 0.5292969 1
vt -0.01275635 1
vt 0.2836914 1
vt -0.01275635 1
vt 0.5292969 1
vt 0.7250977 1
vt 0.5292969 1
vt 0.2282715 1
vt 0.282959 1
vt 0.2282715 1
vt 0.5292969 1
vt 0.2836914 1
vt 0.7915039 0
vt 0.75 0.7207031
vt 0.7915039 0.7207031
vt 0.75 0
vt -0.0625 0
vt -0.08331299 0.7207031
vt -0.0625 0.7207031
vt -0.08331299 0
vt 0.4375 0
vt 0.416748 0.7207031
vt 0.4375 0.7207031
vt 0.416748 0
vt 0.625 0
vt 0.5834961 0.7207031
vt 0.625 0.7207031
vt 0.5834961 0
vt 0.416748 0
vt 0.333252 0.7207031
vt 0.416748 0.7207031
vt 0.333252 0
vt 0.7084961 0
vt 0.6665039 0.7207031
vt 0.7084961 0.7207031
vt 0.6665039 0
vt 0.5834961 0
vt 0.5 0.7207031
vt 0.5834961 0.7207031
vt 0.5 0
vt 0.479248 0
vt 0.458252 0.7207031
vt 0.479248 0.7207031
vt 0.458252 0
vt 0.333252 0
vt 0.291748 0.7207031
vt 0.333252 0.7207031
vt 0.291748 0
vt 0.28125 0
vt 0.270752 0.7207031
vt 0.28125 0.7207031
vt 0.270752 0
vt 0.291748 0
vt 0.28125 0.7207031
vt 0.291748 0.7207031
vt 0.28125 0
vt 0.5 0
vt 0.479248 0.7207031
vt 0.5 0.7207031
vt 0.479248 0
vt 0.9165039 0
vt 0.8334961 0.7207031
vt 0.9165039 0.7207031
vt 0.8334961 0
vt 0.8334961 0
vt 0.7915039 0.7207031
vt 0.8334961 0.7207031
vt 0.7915039 0
vt 0.04165649 0
vt 0 0.7207031
vt 0.04165649 0.7207031
vt 0 0
vt 0 0
vt -0.04165649 0.7207031
vt 0 0.7207031
vt -0.04165649 0
vt -0.04165649 0
vt -0.0625 0.7207031
vt -0.04165649 0.7207031
vt -0.0625 0
vt 0.08331299 0
vt 0.04165649 0.7207031
vt 0.08331299 0.7207031
vt 0.04165649 0
vt 0.458252 0
vt 0.4375 0.7207031
vt 0.458252 0.7207031
vt 0.4375 0
vt 0.9165039 0.7207031
vt 0.5800781 1
vt 0.8134766 1
vt 0.8334961 0.7207031
vt 0.6665039 0.7207031
vt 0.5498047 1
vt 0.6298828 1
vt 0.625 0.7207031
vt 0.7084961 0.7207031
vt 0.6298828 1
vt 0.7089844 1
vt 0.6665039 0.7207031
vt 0.1689453 1.164063
vt 0.2836914 1
vt -0.01275635 1
vt 0.2265625 1.162109
vt 0.1967773 0.8188477
vt 0.2282715 1
vt 0.2836914 1
vt 0.1538086 0.8237305
vt 0.2248535 0.7670898
vt 0.2553711 1
vt 0.3088379 1
vt 0.1106567 0.7758789
vt 0.7915039 0.7207031
vt 0.7001953 1
vt 0.7202148 1
vt 0.75 0.7207031
vt 0.8564453 0.8227539
vt 0.7431641 1
vt 0.8569336 1
vt 0.8164063 0.8295898
vt 0.625 0.7207031
vt 0.3081055 1
vt 0.5498047 1
vt 0.5834961 0.7207031
vt 0.7915039 0
vt 0.75 0.7207031
vt 0.7915039 0.7207031
vt 0.75 0
vt -0.0625 0
vt -0.08331299 0.7207031
vt -0.0625 0.7207031
vt -0.08331299 0
vt 0.08331299 0
vt 0.25 0.7207031
vt 0.25 0
vt 0.08331299 0.7207031
vt 0.04165649 0.7207031
vt 0.08331299 0.7207031
vt 0.04165649 0
vt 0.270752 0
vt 0.25 0.7207031
vt 0.270752 0.7207031
vt 0.25 0
vt 0.4375 0
vt 0.416748 0.7207031
vt 0.4375 0.7207031
vt 0.416748 0
vt 0.625 0
vt 0.5834961 0.7207031
vt 0.625 0.7207031
vt 0.5834961 0
vt 0.416748 0
vt 0.333252 0.7207031
vt 0.416748 0.7207031
vt 0.333252 0
vt 0.7084961 0
vt 0.6665039 0.7207031
vt 0.7084961 0.7207031
vt 0.6665039 0
vt 0.75 0
vt 0.7084961 0.7207031
vt 0.75 0.7207031
vt 0.7084961 0
vt 0.5834961 0
vt 0.5 0.7207031
vt 0.5834961 0.7207031
vt 0.5 0
vt 0.479248 0
vt 0.458252 0.7207031
vt 0.479248 0.7207031
vt 0.458252 0
vt 0.333252 0
vt 0.291748 0.7207031
vt 0.333252 0.7207031
vt 0.291748 0
vt 0.28125 0
vt 0.270752 0.7207031
vt 0.28125 0.7207031
vt 0.270752 0
vt 0.291748 0
vt 0.28125 0.7207031
vt 0.291748 0.7207031
vt 0.28125 0
vt 0.5 0
vt 0.479248 0.7207031
vt 0.5 0.7207031
vt 0.479248 0
vt 0.9165039 0
vt 0.8334961 0.7207031
vt 0.9165039 0.7207031
vt 0.8334961 0
vt 0.8334961 0
vt 0.7915039 0.7207031
vt 0.8334961 0.7207031
vt 0.7915039 0
vt 0.04165649 0
vt 0 0.7207031
vt 0.04165649 0.7207031
vt 0 0
vt 0 0
vt -0.04165649 0.7207031
vt 0 0.7207031
vt -0.04165649 0
vt -0.04165649 0
vt -0.0625 0.7207031
vt -0.04165649 0.7207031
vt -0.0625 0
vt 0.6665039 0
vt 0.625 0.7207031
vt 0.6665039 0.7207031
vt 0.625 0
vt 0.458252 0
vt 0.4375 0.7207031
vt 0.458252 0.7207031
vt 0.4375 0
vt 0.9165039 0.7207031
vt 0.5800781 1
vt 0.8134766 1
vt 0.8334961 0.7207031
vt 0.6665039 0.7207031
vt 0.5498047 1
vt 0.6298828 1
vt 0.625 0.7207031
vt 0.7084961 0.7207031
vt 0.6298828 1
vt 0.7089844 1
vt 0.6665039 0.7207031
vt 0.2248535 0.7670898
vt 0.2553711 1
vt 0.3088379 1
vt 0.1106567 0.7758789
vt 0.8564453 0.8227539
vt 0.7431641 1
vt 0.8569336 1
vt 0.8164063 0.8295898
vt 0.9882813 2.072266
vt 0.7480469 1
vt 0.7250977 1
vt 1.302734 2.027344
vt 0.3081055 1
vt 0.7001953 1
vt 0.7089844 1
vt 0.7202148 1
vt 0.4018555 1
vt 0.5800781 1
vt 0.3088379 1
vt 0.7431641 1

g Mountain_05_(2)_359_11
usemtl Mountain_05_(2)_359_11
usemap Mountain_05_(2)_359_11
f 1/1/1 3/3/3 2/2/2
f 4/4/4 6/6/6 5/5/5
f 7/7/7 9/9/9 8/8/8
f 10/10/10 12/12/12 11/11/11
f 13/13/13 15/15/15 14/14/14
f 16/16/16 18/18/18 17/17/17
f 19/19/19 21/21/21 20/20/20
f 22/22/22 24/24/24 23/23/23
f 25/25/25 27/27/27 26/26/26
f 28/28/28 30/30/30 29/29/29
f 31/31/31 33/33/33 32/32/32
f 34/34/34 36/36/36 35/35/35
f 37/37/37 39/39/39 38/38/38
f 40/40/40 42/42/42 41/41/41
f 43/43/43 45/45/45 44/44/44
f 46/46/46 48/48/48 47/47/47
f 49/49/49 51/51/51 50/50/50
f 52/52/52 54/54/54 53/53/53
f 55/55/55 57/57/57 56/56/56
f 58/58/58 60/60/60 59/59/59
f 61/61/61 63/63/63 62/62/62
f 64/64/64 66/66/66 65/65/65
f 67/67/67 69/69/69 68/68/68
f 70/70/70 72/72/72 71/71/71
f 73/73/73 75/75/75 74/74/74
f 76/76/76 78/78/78 77/77/77
f 79/79/79 81/81/81 80/80/80
f 82/82/82 84/84/84 83/83/83
f 85/85/85 87/87/87 86/86/86
f 88/88/88 90/90/90 89/89/89
f 91/91/91 93/93/93 92/92/92
f 94/94/94 96/96/96 95/95/95
f 97/97/97 99/99/99 98/98/98
f 100/100/100 102/102/102 101/101/101
f 103/103/103 105/105/105 104/104/104
f 106/106/106 108/108/108 107/107/107
f 109/109/109 111/111/111 110/110/110
f 112/112/112 114/114/114 113/113/113
f 115/115/115 117/117/117 116/116/116
f 118/118/118 119/119/119 117/117/117
f 120/120/120 119/119/119 118/118/118
f 117/117/117 121/121/121 118/118/118
f 121/121/121 123/123/123 122/122/122
f 124/124/124 126/126/126 125/125/125
f 127/127/127 129/129/129 128/128/128
f 130/130/130 132/132/132 131/131/131
f 133/133/133 135/135/135 134/134/134
f 136/136/136 138/138/138 137/137/137
f 138/138/138 140/140/140 139/139/139
f 141/141/141 143/143/143 142/142/142
f 144/144/144 146/146/146 145/145/145
f 147/147/147 149/149/149 148/148/148
f 150/150/150 152/152/152 151/151/151
f 153/153/153 155/155/155 154/154/154
f 156/156/156 158/158/158 157/157/157
f 159/159/159 161/161/161 160/160/160
f 162/162/162 164/164/164 163/163/163
f 165/165/165 167/167/167 166/166/166
f 168/168/168 170/170/170 169/169/169
f 171/171/171 173/173/173 172/172/172
f 174/174/174 176/176/176 175/175/175
f 177/177/177 179/179/179 178/178/178
f 180/180/180 182/182/182 181/181/181
f 183/183/183 185/185/185 184/184/184
f 186/186/186 188/188/188 187/187/187
f 189/189/189 191/191/191 190/190/190
f 192/192/192 194/194/194 193/193/193
f 195/195/195 197/197/197 196/196/196
f 198/198/198 200/200/200 199/199/199
f 201/201/201 203/203/203 202/202/202
f 204/204/204 206/206/206 205/205/205
f 207/207/207 209/209/209 208/208/208
f 210/210/210 212/212/212 211/211/211
f 213/213/213 215/215/215 214/214/214
f 216/216/216 218/218/218 217/217/217
f 219/219/219 221/221/221 220/220/220
f 222/222/222 224/224/224 223/223/223
f 225/225/225 227/227/227 226/226/226
f 228/228/228 230/230/230 229/229/229
f 231/231/231 233/233/233 232/232/232
f 234/234/234 236/236/236 235/235/235
f 237/237/237 239/239/239 238/238/238
f 240/240/240 242/242/242 241/241/241
f 243/243/243 245/245/245 244/244/244
f 246/246/246 248/248/248 247/247/247
f 249/249/249 251/251/251 250/250/250
f 252/252/252 254/254/254 253/253/253
f 255/255/255 257/257/257 256/256/256
f 258/258/258 260/260/260 259/259/259
f 261/261/261 263/263/263 262/262/262
f 264/264/264 266/266/266 265/265/265
f 267/267/267 269/269/269 268/268/268
f 270/270/270 272/272/272 271/271/271
f 273/273/273 275/275/275 274/274/274
f 276/276/276 278/278/278 277/277/277
f 279/279/279 281/281/281 280/280/280
f 282/282/282 284/284/284 283/283/283
f 285/285/285 287/287/287 286/286/286
f 288/288/288 290/290/290 289/289/289
f 291/291/291 293/293/293 292/292/292
f 294/294/294 296/296/296 295/295/295
f 297/297/297 299/299/299 298/298/298
f 300/300/300 302/302/302 301/301/301
f 303/303/303 305/305/305 304/304/304
f 306/306/306 308/308/308 307/307/307
f 309/309/309 311/311/311 310/310/310
f 312/312/312 314/314/314 313/313/313
f 313/313/313 315/315/315 312/312/312
f 316/316/316 318/318/318 317/317/317
f 317/317/317 319/319/319 316/316/316
f 320/320/320 322/322/322 321/321/321
f 321/321/321 323/323/323 320/320/320
f 324/324/324 326/326/326 325/325/325
f 325/325/325 327/327/327 324/324/324
f 328/328/328 330/330/330 329/329/329
f 329/329/329 331/331/331 328/328/328
f 332/332/332 334/334/334 333/333/333
f 333/333/333 335/335/335 332/332/332
f 336/336/336 338/338/338 337/337/337
f 337/337/337 339/339/339 336/336/336
f 340/340/340 342/342/342 341/341/341
f 341/341/341 343/343/343 340/340/340
f 344/344/344 346/346/346 345/345/345
f 345/345/345 347/347/347 344/344/344
f 348/348/348 350/350/350 349/349/349
f 349/349/349 351/351/351 348/348/348
f 352/352/352 354/354/354 353/353/353
f 353/353/353 355/355/355 352/352/352
f 356/356/356 358/358/358 357/357/357
f 357/357/357 359/359/359 356/356/356
f 360/360/360 362/362/362 361/361/361
f 361/361/361 363/363/363 360/360/360
f 364/364/364 366/366/366 365/365/365
f 365/365/365 367/367/367 364/364/364
f 368/368/368 370/370/370 369/369/369
f 369/369/369 371/371/371 368/368/368
f 372/372/372 374/374/374 373/373/373
f 373/373/373 375/375/375 372/372/372
f 376/376/376 378/378/378 377/377/377
f 377/377/377 379/379/379 376/376/376
f 380/380/380 382/382/382 381/381/381
f 381/381/381 383/383/383 380/380/380
f 384/384/384 386/386/386 385/385/385
f 385/385/385 387/387/387 384/384/384
f 388/388/388 390/390/390 389/389/389
f 389/389/389 391/391/391 388/388/388
f 392/392/392 394/394/394 393/393/393
f 393/393/393 395/395/395 392/392/392
f 396/396/396 398/398/398 397/397/397
f 397/397/397 399/399/399 396/396/396
f 400/400/400 402/402/402 401/401/401
f 401/401/401 403/403/403 400/400/400
f 404/404/404 406/406/406 405/405/405
f 405/405/405 407/407/407 404/404/404
f 408/408/408 410/410/410 409/409/409
f 409/409/409 411/411/411 408/408/408
f 412/412/412 414/414/414 413/413/413
f 413/413/413 415/415/415 412/412/412
f 416/416/416 418/418/418 417/417/417
f 417/417/417 419/419/419 416/416/416
f 420/420/420 422/422/422 421/421/421
f 421/421/421 423/423/423 420/420/420
f 424/424/424 426/426/426 425/425/425
f 425/425/425 427/427/427 424/424/424
f 428/428/428 430/430/430 429/429/429
f 429/429/429 431/431/431 428/428/428
f 432/432/432 434/434/434 433/433/433
f 433/433/433 435/435/435 432/432/432
f 432/432/432 437/437/437 436/436/436
f 436/436/436 438/438/438 432/432/432
f 439/439/439 441/441/441 440/440/440
f 440/440/440 442/442/442 439/439/439
f 443/443/443 445/445/445 444/444/444
f 444/444/444 446/446/446 443/443/443
f 447/447/447 449/449/449 448/448/448
f 448/448/448 450/450/450 447/447/447
f 451/451/451 453/453/453 452/452/452
f 452/452/452 454/454/454 451/451/451
f 455/455/455 457/457/457 456/456/456
f 456/456/456 458/458/458 455/455/455
f 459/459/459 461/461/461 460/460/460
f 460/460/460 462/462/462 459/459/459
f 463/463/463 465/465/465 464/464/464
f 464/464/464 466/466/466 463/463/463
f 467/467/467 469/469/469 468/468/468
f 468/468/468 470/470/470 467/467/467
f 471/471/471 473/473/473 472/472/472
f 472/472/472 474/474/474 471/471/471
f 475/475/475 477/477/477 476/476/476
f 476/476/476 478/478/478 475/475/475
f 479/479/479 481/481/481 480/480/480
f 480/480/480 482/482/482 479/479/479
f 483/483/483 485/485/485 484/484/484
f 484/484/484 486/486/486 483/483/483
f 487/487/487 489/489/489 488/488/488
f 488/488/488 490/490/490 487/487/487
f 491/491/491 493/493/493 492/492/492
f 492/492/492 494/494/494 491/491/491
f 495/495/495 497/497/497 496/496/496
f 496/496/496 498/498/498 495/495/495
f 499/499/499 501/501/501 500/500/500
f 500/500/500 502/502/502 499/499/499
f 503/503/503 505/505/505 504/504/504
f 504/504/504 506/506/506 503/503/503
f 507/507/507 509/509/509 508/508/508
f 508/508/508 510/510/510 507/507/507
f 511/511/511 513/513/513 512/512/512
f 512/512/512 514/514/514 511/511/511
f 515/515/515 517/517/517 516/516/516
f 516/516/516 518/518/518 515/515/515
f 519/519/519 521/521/521 520/520/520
f 520/520/520 522/522/522 519/519/519
f 523/523/523 525/525/525 524/524/524
f 524/524/524 526/526/526 523/523/523
f 527/527/527 529/529/529 528/528/528
f 528/528/528 530/530/530 527/527/527
f 531/531/531 533/533/533 532/532/532
f 532/532/532 534/534/534 531/531/531
f 535/535/535 537/537/537 536/536/536
f 536/536/536 538/538/538 535/535/535
f 539/539/539 541/541/541 540/540/540
f 540/540/540 542/542/542 539/539/539
f 542/542/542 543/543/543 539/539/539
f 543/543/543 542/542/542 544/544/544
f 544/544/544 545/545/545 543/543/543
f 546/546/546 545/545/545 544/544/544
