#Mountain_05_(10)_362_28.obj

v -4.194438 3.737948 5.015295E-16
v -7.160108 1.71394 1.266889
v -7.66571 1.715762 2.30208E-16
v -7.160108 1.71394 1.266889
v -4.194438 3.737948 5.015295E-16
v -3.933565 3.677025 1.31277
v -7.254385 0.09803862 1.315408E-17
v -7.160108 1.71394 1.266889
v -6.854487 0.1266438 1.188133
v -7.160108 1.71394 1.266889
v -7.254385 0.09803862 1.315408E-17
v -7.66571 1.715762 2.30208E-16
v 3.665561 -2.792713 2.025192
v 6.156199 -2.111066 1.903582
v 5.057958 -2.91188 2.005746
v 6.156199 -2.111066 1.903582
v 3.665561 -2.792713 2.025192
v 6.808691 0.05541098 1.847594
v 6.027656 2.450163 3.287442E-16
v 7.665709 0.1829333 1.190308
v 6.030296 2.431467 1.334739
v 7.665709 0.1829333 1.190308
v 6.027656 2.450163 3.287442E-16
v 7.664265 0.154541 2.073514E-17
v 6.820557 -2.677267 -3.592153E-16
v 5.309935 -3.712567 1.392305
v 6.840151 -2.588094 1.264772
v 5.309935 -3.712567 1.392305
v 6.820557 -2.677267 -3.592153E-16
v 5.29036 -3.835665 -5.146404E-16
v -3.933565 3.677025 1.31277
v -1.70941 3.249508 2.029637
v -3.601107 2.925803 2.003493
v -1.70941 3.249508 2.029637
v -3.933565 3.677025 1.31277
v -2.041347 3.910074 1.316083
v -7.160108 1.71394 1.266889
v -3.601107 2.925803 2.003493
v -6.175471 1.341345 1.885147
v -3.601107 2.925803 2.003493
v -7.160108 1.71394 1.266889
v -3.933565 3.677025 1.31277
v -4.095047 -3.787009 1.314834
v -5.235809 -1.696643 1.877561
v -3.676632 -3.064916 1.995974
v -5.235809 -1.696643 1.877561
v -4.095047 -3.787009 1.314834
v -6.215342 -1.962352 1.209017
v 3.379787 -3.550971 1.370015
v 2.698069 -1.994804 2.001729
v 3.665561 -2.792713 2.025192
v 2.698069 -1.994804 2.001729
v 3.379787 -3.550971 1.370015
v 2.563113 -2.877884 1.327934
v 6.030296 2.431467 1.334739
v 6.808691 0.05541098 1.847594
v 5.62132 1.66261 1.970607
v 6.808691 0.05541098 1.847594
v 6.030296 2.431467 1.334739
v 7.665709 0.1829333 1.190308
v -6.215342 -1.962352 1.209017
v -4.903864 -0.6808484 1.881354
v -5.235809 -1.696643 1.877561
v -4.903864 -0.6808484 1.881354
v -6.215342 -1.962352 1.209017
v -5.818845 -0.7554334 1.199842
v 2.563113 -2.877884 1.327934
v 0.9772552 -2.664853 2.044154
v 2.698069 -1.994804 2.001729
v 0.9772552 -2.664853 2.044154
v 2.563113 -2.877884 1.327934
v 1.519778 -3.286088 1.342203
v 1.200386 -4.013342 1.371662
v -1.721835 -3.588947 2.053877
v 0.7337844 -3.315433 2.070017
v -1.721835 -3.588947 2.053877
v 1.200386 -4.013342 1.371662
v -1.810347 -4.398074 1.340715
v -6.854487 0.1266438 1.188133
v -6.175471 1.341345 1.885147
v -6.145761 0.6678364 1.84846
v -6.175471 1.341345 1.885147
v -6.854487 0.1266438 1.188133
v -7.160108 1.71394 1.266889
v 3.47803 2.897262 1.349744
v 4.602206 1.618828 1.984561
v 3.020835 2.256282 2.027464
v 4.602206 1.618828 1.984561
v 3.47803 2.897262 1.349744
v 4.761544 2.375829 1.331748
v -1.553585 4.357333 1.335883
v 0.375241 3.630052 2.069616
v -1.255428 3.675368 2.051443
v 0.375241 3.630052 2.069616
v -1.553585 4.357333 1.335883
v 0.5697151 4.425908 1.371162
v 1.391992 3.880752 1.362431
v 2.329679 3.01233 2.061684
v 1.141681 3.124536 2.055678
v 2.329679 3.01233 2.061684
v 1.391992 3.880752 1.362431
v 2.700603 3.756186 1.380967
v -2.041347 3.910074 1.316083
v -1.255428 3.675368 2.051443
v -1.70941 3.249508 2.029637
v -1.255428 3.675368 2.051443
v -2.041347 3.910074 1.316083
v -1.553585 4.357333 1.335883
v -1.810347 -4.398074 1.340715
v -3.676632 -3.064916 1.995974
v -1.721835 -3.588947 2.053877
v -3.676632 -3.064916 1.995974
v -1.810347 -4.398074 1.340715
v -4.095047 -3.787009 1.314834
v 4.602206 1.618828 1.984561
v 3.665561 -2.792713 2.025192
v 2.698069 -1.994804 2.001729
v 3.020835 2.256282 2.027464
v 0.9772552 -2.664853 2.044154
v 1.141681 3.124536 2.055678
v 4.602206 1.618828 1.984561
v 6.808691 0.05541098 1.847594
v 3.665561 -2.792713 2.025192
v 6.808691 0.05541098 1.847594
v 4.602206 1.618828 1.984561
v 5.62132 1.66261 1.970607
v -1.721835 -3.588947 2.053877
v 0.9772552 -2.664853 2.044154
v 0.7337844 -3.315433 2.070017
v 0.9772552 -2.664853 2.044154
v -1.721835 -3.588947 2.053877
v 1.141681 3.124536 2.055678
v 3.020835 2.256282 2.027464
v 1.141681 3.124536 2.055678
v 2.329679 3.01233 2.061684
v -1.255428 3.675368 2.051443
v -1.721835 -3.588947 2.053877
v -3.676632 -3.064916 1.995974
v -4.903864 -0.6808484 1.881354
v -1.70941 3.249508 2.029637
v 1.141681 3.124536 2.055678
v -1.255428 3.675368 2.051443
v 0.375241 3.630052 2.069616
v -1.255428 3.675368 2.051443
v 1.141681 3.124536 2.055678
v -1.721835 -3.588947 2.053877
v -4.903864 -0.6808484 1.881354
v -3.676632 -3.064916 1.995974
v -5.235809 -1.696643 1.877561
v -3.676632 -3.064916 1.995974
v -1.70941 3.249508 2.029637
v -1.255428 3.675368 2.051443
v -3.601107 2.925803 2.003493
v -4.903864 -0.6808484 1.881354
v -5.550163 0.5868794 1.871904
v -4.903864 -0.6808484 1.881354
v -3.601107 2.925803 2.003493
v -1.70941 3.249508 2.029637
v -3.601107 2.925803 2.003493
v -6.145761 0.6678364 1.84846
v -6.175471 1.341345 1.885147
v -6.145761 0.6678364 1.84846
v -3.601107 2.925803 2.003493
v -5.550163 0.5868794 1.871904
v 2.988737 -0.9541723 3.558371
v 4.927304 -1.195457 3.47365
v 4.273016 -1.765048 3.533748
v 4.927304 -1.195457 3.47365
v 2.988737 -0.9541723 3.558371
v 5.275127 0.2154008 3.436962
v -2.726501 2.226574 3.111868
v -1.627333 2.100534 3.639845
v -2.490648 1.783754 3.623822
v -1.627333 2.100534 3.639845
v -2.726501 2.226574 3.111868
v -1.73683 2.531919 3.136091
v -4.2586 1.670019 3.040776
v -2.490648 1.783754 3.623822
v -3.781434 1.271406 3.570411
v -2.490648 1.783754 3.623822
v -4.2586 1.670019 3.040776
v -2.726501 2.226574 3.111868
v -2.762823 -2.637127 3.153882
v -3.249268 -1.241544 3.622844
v -2.524919 -2.152815 3.694746
v -3.249268 -1.241544 3.622844
v -2.762823 -2.637127 3.153882
v -3.835066 -1.467506 3.049565
v 2.862061 -1.444476 3.07532
v 1.87546 -0.5585163 3.591151
v 2.988737 -0.9541723 3.558371
v 1.87546 -0.5585163 3.591151
v 2.862061 -1.444476 3.07532
v 1.842501 -1.120211 3.100537
v 4.318974 1.08161 3.011747
v 5.275127 0.2154008 3.436962
v 4.085327 0.5904651 3.488198
v 5.275127 0.2154008 3.436962
v 4.318974 1.08161 3.011747
v 5.852759 0.3365152 2.925531
v -3.835066 -1.467506 3.049565
v -2.919597 -0.4388402 3.613437
v -3.249268 -1.241544 3.622844
v -2.919597 -0.4388402 3.613437
v -3.835066 -1.467506 3.049565
v -3.472836 -0.5373306 3.051367
v 1.842501 -1.120211 3.100537
v 0.8233218 -1.077238 3.643887
v 1.87546 -0.5585163 3.591151
v 0.8233218 -1.077238 3.643887
v 1.842501 -1.120211 3.100537
v 1.200466 -1.435826 3.127697
v 0.2291436 -2.617826 3.188529
v -0.9632671 -2.35902 3.726503
v -0.08700301 -2.196546 3.711948
v -0.9632671 -2.35902 3.726503
v 0.2291436 -2.617826 3.188529
v -0.9861131 -2.878272 3.200276
v -3.472836 -0.5373306 3.051367
v -3.322778 0.595094 3.583382
v -2.919597 -0.4388402 3.613437
v -3.322778 0.595094 3.583382
v -3.472836 -0.5373306 3.051367
v -3.648597 0.1871684 3.038026
v -4.378533 0.6425558 2.999553
v -3.781434 1.271406 3.570411
v -3.885536 0.8564658 3.556607
v -3.781434 1.271406 3.570411
v -4.378533 0.6425558 2.999553
v -4.2586 1.670019 3.040776
v -3.648597 0.1871684 3.038026
v -3.885536 0.8564658 3.556607
v -3.322778 0.595094 3.583382
v -3.885536 0.8564658 3.556607
v -3.648597 0.1871684 3.038026
v -4.378533 0.6425558 2.999553
v 2.248857 2.16818 3.102163
v 2.789413 1.051329 3.53941
v 1.990716 1.749044 3.575721
v 2.789413 1.051329 3.53941
v 2.248857 2.16818 3.102163
v 2.852974 1.526857 3.06729
v 2.852974 1.526857 3.06729
v 4.085327 0.5904651 3.488198
v 2.789413 1.051329 3.53941
v 4.085327 0.5904651 3.488198
v 2.852974 1.526857 3.06729
v 4.318974 1.08161 3.011747
v -0.9990002 2.846005 3.15303
v -0.01927362 2.452518 3.640304
v -0.9187255 2.408834 3.648573
v -0.01927362 2.452518 3.640304
v -0.9990002 2.846005 3.15303
v 0.05885144 2.944871 3.156976
v 0.6070423 2.649021 3.140079
v 1.247643 2.167133 3.606209
v 0.4927659 2.174581 3.621329
v 1.247643 2.167133 3.606209
v 0.6070423 2.649021 3.140079
v 1.438892 2.641031 3.133259
v 4.504386 -2.265427 3.044841
v 2.988737 -0.9541723 3.558371
v 4.273016 -1.765048 3.533748
v 2.988737 -0.9541723 3.558371
v 4.504386 -2.265427 3.044841
v 2.862061 -1.444476 3.07532
v -0.9861131 -2.878272 3.200276
v -2.524919 -2.152815 3.694746
v -0.9632671 -2.35902 3.726503
v -2.524919 -2.152815 3.694746
v -0.9861131 -2.878272 3.200276
v -2.762823 -2.637127 3.153882
v -0.9632671 -2.35902 3.726503
v 0.8233218 -1.077238 3.643887
v -0.08700301 -2.196546 3.711948
v 0.8233218 -1.077238 3.643887
v -0.9632671 -2.35902 3.726503
v 0.4927659 2.174581 3.621329
v 1.990716 1.749044 3.575721
v 0.4927659 2.174581 3.621329
v 1.247643 2.167133 3.606209
v -0.9187255 2.408834 3.648573
v -0.9632671 -2.35902 3.726503
v -2.524919 -2.152815 3.694746
v 0.4927659 2.174581 3.621329
v -0.9187255 2.408834 3.648573
v -0.01927362 2.452518 3.640304
v -0.9187255 2.408834 3.648573
v 0.4927659 2.174581 3.621329
v -0.9632671 -2.35902 3.726503
v -2.919597 -0.4388402 3.613437
v -2.524919 -2.152815 3.694746
v -3.249268 -1.241544 3.622844
v -2.524919 -2.152815 3.694746
v -2.919597 -0.4388402 3.613437
v -1.627333 2.100534 3.639845
v -2.524919 -2.152815 3.694746
v -1.627333 2.100534 3.639845
v -0.9187255 2.408834 3.648573
v -2.490648 1.783754 3.623822
v -2.919597 -0.4388402 3.613437
v -3.322778 0.595094 3.583382
v -2.919597 -0.4388402 3.613437
v -2.490648 1.783754 3.623822
v -1.627333 2.100534 3.639845
v -2.490648 1.783754 3.623822
v -3.885536 0.8564658 3.556607
v -3.781434 1.271406 3.570411
v -3.885536 0.8564658 3.556607
v -2.490648 1.783754 3.623822
v -3.322778 0.595094 3.583382
v 4.759295 2.393446 3.211344E-16
v 6.030296 2.431467 1.334739
v 4.761544 2.375829 1.331748
v 6.027656 2.450163 3.287442E-16
v 1.356404 3.947886 5.296973E-16
v 2.700603 3.756186 1.380967
v 1.391992 3.880752 1.362431
v 2.681238 3.818191 5.122959E-16
v -1.948851 -4.514101 -6.056678E-16
v -4.095047 -3.787009 1.314834
v -1.810347 -4.398074 1.340715
v -4.341541 -3.890432 -5.219886E-16
v 5.29036 -3.835665 -5.146404E-16
v 3.379787 -3.550971 1.370015
v 5.309935 -3.712567 1.392305
v 3.363271 -3.663088 -4.914854E-16
v -4.341541 -3.890432 -5.219886E-16
v -6.215342 -1.962352 1.209017
v -4.095047 -3.787009 1.314834
v -6.545238 -2.030143 -2.723891E-16
v 7.664265 0.154541 2.073514E-17
v 6.840151 -2.588094 1.264772
v 7.665709 0.1829333 1.190308
v 6.820557 -2.677267 -3.592153E-16
v 3.363271 -3.663088 -4.914854E-16
v 2.563113 -2.877884 1.327934
v 3.379787 -3.550971 1.370015
v 2.547072 -2.969806 -3.984661E-16
v 1.492748 -3.384923 -4.541633E-16
v 1.200386 -4.013342 1.371662
v 1.519778 -3.286088 1.342203
v 1.162396 -4.129622 -5.540815E-16
v -6.545238 -2.030143 -2.723891E-16
v -5.818845 -0.7554334 1.199842
v -6.215342 -1.962352 1.209017
v -6.111477 -0.7985763 -1.071469E-16
v -6.504949 -0.04194109 -5.627337E-18
v -6.854487 0.1266438 1.188133
v -6.170842 -0.01196564 1.198651
v -7.254385 0.09803862 1.315408E-17
v -6.111477 -0.7985763 -1.071469E-16
v -6.170842 -0.01196564 1.198651
v -5.818845 -0.7554334 1.199842
v -6.504949 -0.04194109 -5.627337E-18
v 2.547072 -2.969806 -3.984661E-16
v 1.519778 -3.286088 1.342203
v 2.563113 -2.877884 1.327934
v 1.492748 -3.384923 -4.541633E-16
v 2.681238 3.818191 5.122959E-16
v 3.47803 2.897262 1.349744
v 2.700603 3.756186 1.380967
v 3.469428 2.930436 3.931837E-16
v 3.469428 2.930436 3.931837E-16
v 4.761544 2.375829 1.331748
v 3.47803 2.897262 1.349744
v 4.759295 2.393446 3.211344E-16
v -2.185759 3.979221 5.339017E-16
v -1.553585 4.357333 1.335883
v -2.041347 3.910074 1.316083
v -1.678718 4.442869 5.961105E-16
v -1.678718 4.442869 5.961105E-16
v 0.5697151 4.425908 1.371162
v -1.553585 4.357333 1.335883
v 0.5145218 4.514102 6.056679E-16
v 0.5145218 4.514102 6.056679E-16
v 1.391992 3.880752 1.362431
v 0.5697151 4.425908 1.371162
v 1.356404 3.947886 5.296973E-16
v -4.194438 3.737948 5.015295E-16
v -2.041347 3.910074 1.316083
v -3.933565 3.677025 1.31277
v -2.185759 3.979221 5.339017E-16
v 1.162396 -4.129622 -5.540815E-16
v -1.810347 -4.398074 1.340715
v 1.200386 -4.013342 1.371662
v -1.948851 -4.514101 -6.056678E-16
v 2.700603 3.756186 1.380967
v 3.020835 2.256282 2.027464
v 2.329679 3.01233 2.061684
v 3.47803 2.897262 1.349744
v 6.840151 -2.588094 1.264772
v 5.057958 -2.91188 2.005746
v 6.156199 -2.111066 1.903582
v 5.309935 -3.712567 1.392305
v 7.665709 0.1829333 1.190308
v 6.156199 -2.111066 1.903582
v 6.808691 0.05541098 1.847594
v 6.840151 -2.588094 1.264772
v -5.818845 -0.7554334 1.199842
v -5.550163 0.5868794 1.871904
v -4.903864 -0.6808484 1.881354
v -6.170842 -0.01196564 1.198651
v -6.170842 -0.01196564 1.198651
v -6.145761 0.6678364 1.84846
v -5.550163 0.5868794 1.871904
v -6.854487 0.1266438 1.188133
v 1.519778 -3.286088 1.342203
v 0.7337844 -3.315433 2.070017
v 0.9772552 -2.664853 2.044154
v 1.200386 -4.013342 1.371662
v 4.761544 2.375829 1.331748
v 5.62132 1.66261 1.970607
v 4.602206 1.618828 1.984561
v 6.030296 2.431467 1.334739
v 0.5697151 4.425908 1.371162
v 1.141681 3.124536 2.055678
v 0.375241 3.630052 2.069616
v 1.391992 3.880752 1.362431
v 5.309935 -3.712567 1.392305
v 3.665561 -2.792713 2.025192
v 5.057958 -2.91188 2.005746
v 3.379787 -3.550971 1.370015
v 2.88644 1.562051 1.829556
v 4.318974 1.08161 3.011747
v 2.852974 1.526857 3.06729
v 4.387317 1.101505 1.797947
v 0.5794474 2.731197 1.858765
v 1.438892 2.641031 3.133259
v 0.6070423 2.649021 3.140079
v 1.437534 2.723164 1.866857
v -2.895442 2.289202 1.812996
v -4.2586 1.670019 3.040776
v -4.525052 1.710681 1.777505
v -2.726501 2.226574 3.111868
v -1.73683 2.531919 3.136091
v -2.726501 2.226574 3.111868
v -1.855701 2.608156 1.830727
v -4.656625 0.6456766 1.743983
v -4.2586 1.670019 3.040776
v -4.378533 0.6425558 2.999553
v -4.525052 1.710681 1.777505
v -1.076323 -2.992932 1.864342
v -2.762823 -2.637127 3.153882
v -0.9861131 -2.878272 3.200276
v -2.940944 -2.742911 1.826357
v 4.58238 -2.352341 1.808486
v 2.862061 -1.444476 3.07532
v 4.504386 -2.265427 3.044841
v 2.893497 -1.508826 1.811551
v -2.940944 -2.742911 1.826357
v -3.835066 -1.467506 3.049565
v -2.762823 -2.637127 3.153882
v -4.080203 -1.533347 1.761586
v 5.955954 0.3328175 1.731586
v 5.425343 -1.466443 2.952783
v 5.852759 0.3365152 2.925531
v 5.520915 -1.526938 1.74064
v 4.387317 1.101505 1.797947
v 5.852759 0.3365152 2.925531
v 4.318974 1.08161 3.011747
v 5.955954 0.3328175 1.731586
v 2.893497 -1.508826 1.811551
v 1.842501 -1.120211 3.100537
v 2.862061 -1.444476 3.07532
v 1.845885 -1.175867 1.820385
v 1.185655 -1.50202 1.832828
v 0.2291436 -2.617826 3.188529
v 1.200466 -1.435826 3.127697
v 0.1852706 -2.722826 1.867193
v -4.080203 -1.533347 1.761586
v -3.472836 -0.5373306 3.051367
v -3.835066 -1.467506 3.049565
v -3.692059 -0.5744618 1.763973
v -3.877168 0.1737544 1.759633
v -4.378533 0.6425558 2.999553
v -3.648597 0.1871684 3.038026
v -4.656625 0.6456766 1.743983
v -3.692059 -0.5744618 1.763973
v -3.648597 0.1871684 3.038026
v -3.472836 -0.5373306 3.051367
v -3.877168 0.1737544 1.759633
v 1.845885 -1.175867 1.820385
v 1.200466 -1.435826 3.127697
v 1.842501 -1.120211 3.100537
v 1.185655 -1.50202 1.832828
v 1.437534 2.723164 1.866857
v 2.248857 2.16818 3.102163
v 1.438892 2.641031 3.133259
v 2.26891 2.229313 1.853532
v 2.26891 2.229313 1.853532
v 2.852974 1.526857 3.06729
v 2.248857 2.16818 3.102163
v 2.88644 1.562051 1.829556
v -1.855701 2.608156 1.830727
v -0.9990002 2.846005 3.15303
v -1.73683 2.531919 3.136091
v -1.08527 2.937351 1.847496
v -1.08527 2.937351 1.847496
v 0.05885144 2.944871 3.156976
v -0.9990002 2.846005 3.15303
v 0.01328354 3.041354 1.863065
v 0.01328354 3.041354 1.863065
v 0.6070423 2.649021 3.140079
v 0.05885144 2.944871 3.156976
v 0.5794474 2.731197 1.858765
v 5.520915 -1.526938 1.74064
v 4.504386 -2.265427 3.044841
v 5.425343 -1.466443 2.952783
v 4.58238 -2.352341 1.808486
v 0.1852706 -2.722826 1.867193
v -0.9861131 -2.878272 3.200276
v 0.2291436 -2.617826 3.188529
v -1.076323 -2.992932 1.864342
v 1.438892 2.641031 3.133259
v 1.990716 1.749044 3.575721
v 1.247643 2.167133 3.606209
v 2.248857 2.16818 3.102163
v 5.425343 -1.466443 2.952783
v 4.273016 -1.765048 3.533748
v 4.927304 -1.195457 3.47365
v 4.504386 -2.265427 3.044841
v 5.852759 0.3365152 2.925531
v 4.927304 -1.195457 3.47365
v 5.275127 0.2154008 3.436962
v 5.425343 -1.466443 2.952783
v 1.200466 -1.435826 3.127697
v -0.08700301 -2.196546 3.711948
v 0.8233218 -1.077238 3.643887
v 0.2291436 -2.617826 3.188529
v 0.05885144 2.944871 3.156976
v 0.4927659 2.174581 3.621329
v -0.01927362 2.452518 3.640304
v 0.6070423 2.649021 3.140079
v -1.73683 2.531919 3.136091
v -0.9187255 2.408834 3.648573
v -1.627333 2.100534 3.639845
v -0.9990002 2.846005 3.15303
v 2.988737 -0.9541723 3.558371
v 4.085327 0.5904651 3.488198
v 5.275127 0.2154008 3.436962
v 2.789413 1.051329 3.53941
v 1.87546 -0.5585163 3.591151
v 1.990716 1.749044 3.575721
v 0.8233218 -1.077238 3.643887
v 0.4927659 2.174581 3.621329

vn -0.3449707 0.1373291 0.9287109
vn -0.3449707 0.1373291 0.9287109
vn -0.3449707 0.1373291 0.9287109
vn -0.3254395 0.09735107 0.9404297
vn -0.3254395 0.09735107 0.9404297
vn -0.3254395 0.09735107 0.9404297
vn 0.675293 0.1953125 0.7114258
vn 0.675293 0.1953125 0.7114258
vn 0.675293 0.1953125 0.7114258
vn 0.6953125 0.2249756 0.6826172
vn 0.6953125 0.2249756 0.6826172
vn 0.6953125 0.2249756 0.6826172
vn -0.1300049 0.9907227 0.04238892
vn -0.1300049 0.9907227 0.04238892
vn -0.1300049 0.9907227 0.04238892
vn -0.05651855 0.9970703 -0.05444336
vn -0.05651855 0.9970703 -0.05444336
vn -0.05651855 0.9970703 -0.05444336
vn -0.9013672 0.004180908 -0.4328613
vn -0.9013672 0.004180908 -0.4328613
vn -0.9013672 0.004180908 -0.4328613
vn -0.8979492 -0.00933075 -0.4404297
vn -0.8979492 -0.00933075 -0.4404297
vn -0.8979492 -0.00933075 -0.4404297
vn 0.2366943 0.03182983 -0.9711914
vn 0.2366943 0.03182983 -0.9711914
vn 0.2366943 0.03182983 -0.9711914
vn 0.2254639 0.04144287 -0.9731445
vn 0.2254639 0.04144287 -0.9731445
vn 0.2254639 0.04144287 -0.9731445
vn -0.5234375 0.6425781 0.5595703
vn -0.5234375 0.6425781 0.5595703
vn -0.5234375 0.6425781 0.5595703
vn -0.5996094 0.5791016 0.5522461
vn -0.5996094 0.5791016 0.5522461
vn -0.5996094 0.5791016 0.5522461
vn -0.1942139 0.6875 0.699707
vn -0.1942139 0.6875 0.699707
vn -0.1942139 0.6875 0.699707
vn -0.2451172 0.6254883 0.7407227
vn -0.2451172 0.6254883 0.7407227
vn -0.2451172 0.6254883 0.7407227
vn 0.7573242 0.609375 0.2353516
vn 0.7573242 0.609375 0.2353516
vn 0.7573242 0.609375 0.2353516
vn 0.734375 0.6464844 0.2061768
vn 0.734375 0.6464844 0.2061768
vn 0.734375 0.6464844 0.2061768
vn 0.7734375 0.6083984 0.1773682
vn 0.7734375 0.6083984 0.1773682
vn 0.7734375 0.6083984 0.1773682
vn 0.7836914 0.5883789 0.197998
vn 0.7836914 0.5883789 0.197998
vn 0.7836914 0.5883789 0.197998
vn -0.7026367 0.5952148 -0.3903809
vn -0.7026367 0.5952148 -0.3903809
vn -0.7026367 0.5952148 -0.3903809
vn -0.7001953 0.6000977 -0.3864746
vn -0.7001953 0.6000977 -0.3864746
vn -0.7001953 0.6000977 -0.3864746
vn 0.262207 0.6079102 0.7495117
vn 0.262207 0.6079102 0.7495117
vn 0.262207 0.6079102 0.7495117
vn 0.255127 0.597168 0.7602539
vn 0.255127 0.597168 0.7602539
vn 0.255127 0.597168 0.7602539
vn 0.3762207 0.6225586 -0.6865234
vn 0.3762207 0.6225586 -0.6865234
vn 0.3762207 0.6225586 -0.6865234
vn 0.3864746 0.6166992 -0.6860352
vn 0.3864746 0.6166992 -0.6860352
vn 0.3864746 0.6166992 -0.6860352
vn 0.5947266 0.6123047 -0.5209961
vn 0.5947266 0.6123047 -0.5209961
vn 0.5947266 0.6123047 -0.5209961
vn 0.5771484 0.6293945 -0.5205078
vn 0.5771484 0.6293945 -0.5205078
vn 0.5771484 0.6293945 -0.5205078
vn 0.5175781 0.5644531 0.6425781
vn 0.5175781 0.5644531 0.6425781
vn 0.5175781 0.5644531 0.6425781
vn 0.5532227 0.6381836 0.5356445
vn 0.5532227 0.6381836 0.5356445
vn 0.5532227 0.6381836 0.5356445
vn -0.7783203 0.6235352 0.07537842
vn -0.7783203 0.6235352 0.07537842
vn -0.7783203 0.6235352 0.07537842
vn -0.7695313 0.6328125 0.08416748
vn -0.7695313 0.6328125 0.08416748
vn -0.7695313 0.6328125 0.08416748
vn -0.6928711 0.5683594 0.4440918
vn -0.6928711 0.5683594 0.4440918
vn -0.6928711 0.5683594 0.4440918
vn -0.6132813 0.6342773 0.470459
vn -0.6132813 0.6342773 0.470459
vn -0.6132813 0.6342773 0.470459
vn -0.6865234 0.6318359 0.359375
vn -0.6865234 0.6318359 0.359375
vn -0.6865234 0.6318359 0.359375
vn -0.6787109 0.6367188 0.3654785
vn -0.6787109 0.6367188 0.3654785
vn -0.6787109 0.6367188 0.3654785
vn -0.07312012 0.5380859 0.8398438
vn -0.07312012 0.5380859 0.8398438
vn -0.07312012 0.5380859 0.8398438
vn -0.08691406 0.5361328 0.8398438
vn -0.08691406 0.5361328 0.8398438
vn -0.08691406 0.5361328 0.8398438
vn 0.7587891 0.6254883 -0.1804199
vn 0.7587891 0.6254883 -0.1804199
vn 0.7587891 0.6254883 -0.1804199
vn 0.7368164 0.6479492 -0.1934814
vn 0.7368164 0.6479492 -0.1934814
vn 0.7368164 0.6479492 -0.1934814
vn -0.0005278587 0.9995117 0.02920532
vn -0.0005278587 0.9995117 0.02920532
vn -0.0005278587 0.9995117 0.02920532
vn -0.01693726 0.9990234 -0.04525757
vn -0.01693726 0.9990234 -0.04525757
vn -0.01039886 0.9995117 -0.02134705
vn -0.05203247 0.9951172 -0.0859375
vn -0.05203247 0.9951172 -0.0859375
vn -0.05203247 0.9951172 -0.0859375
vn 0.05740356 0.9956055 -0.07196045
vn 0.05740356 0.9956055 -0.07196045
vn 0.05740356 0.9956055 -0.07196045
vn -0.03915405 0.9980469 0.04962158
vn -0.03915405 0.9980469 0.04962158
vn -0.03915405 0.9980469 0.04962158
vn -0.001675606 1 -0.007686615
vn -0.001675606 1 -0.007686615
vn -0.001675606 1 -0.007686615
vn 0.07147217 0.9970703 -0.0272522
vn 0.07147217 0.9970703 -0.0272522
vn 0.07147217 0.9970703 -0.0272522
vn 0.02484131 0.9990234 0.04238892
vn 0.02484131 0.9990234 0.04238892
vn 0.02484131 0.9990234 0.04238892
vn 0.04382324 0.9936523 0.1014404
vn 0.04382324 0.9936523 0.1014404
vn 0.06433105 0.9975586 -0.01792908
vn 0.06433105 0.9975586 -0.01792908
vn 0.06433105 0.9975586 -0.01792908
vn 0.001067162 1 0.002674103
vn 0.001067162 1 0.002674103
vn 0.001067162 1 0.002674103
vn 0.03918457 0.9941406 0.09838867
vn 0.03918457 0.9941406 0.09838867
vn 0.03918457 0.9941406 0.09838867
vn 0.04162598 0.9946289 0.09521484
vn 0.04162598 0.9946289 0.09521484
vn 0.04162598 0.9946289 0.09521484
vn 0.0635376 0.996582 0.0536499
vn 0.0635376 0.996582 0.0536499
vn 0.0635376 0.996582 0.0536499
vn 0.04299927 0.9990234 -0.01146698
vn 0.04299927 0.9990234 -0.01146698
vn 0.04299927 0.9990234 -0.01146698
vn 0.07373047 0.9970703 -0.02488708
vn 0.07373047 0.9970703 -0.02488708
vn 0.07373047 0.9970703 -0.02488708
vn 0.06359863 0.9970703 0.0430603
vn 0.06359863 0.9970703 0.0430603
vn 0.06359863 0.9970703 0.0430603
vn -0.1013184 0.9941406 -0.03268433
vn -0.1013184 0.9941406 -0.03268433
vn -0.1013184 0.9941406 -0.03268433
vn -0.05953979 0.9970703 -0.05249023
vn -0.05953979 0.9970703 -0.05249023
vn -0.05953979 0.9970703 -0.05249023
vn -0.4196777 0.5664063 0.7089844
vn -0.4196777 0.5664063 0.7089844
vn -0.4196777 0.5664063 0.7089844
vn -0.4719238 0.5317383 0.703125
vn -0.4719238 0.5317383 0.703125
vn -0.4719238 0.5317383 0.703125
vn -0.3696289 0.59375 0.7143555
vn -0.3696289 0.59375 0.7143555
vn -0.3696289 0.59375 0.7143555
vn -0.4013672 0.565918 0.7202148
vn -0.4013672 0.565918 0.7202148
vn -0.4013672 0.565918 0.7202148
vn 0.7856445 0.4829102 0.3869629
vn 0.7856445 0.4829102 0.3869629
vn 0.7856445 0.4829102 0.3869629
vn 0.7651367 0.5532227 0.3291016
vn 0.7651367 0.5532227 0.3291016
vn 0.7651367 0.5532227 0.3291016
vn 0.7836914 0.5981445 -0.168335
vn 0.7836914 0.5981445 -0.168335
vn 0.7836914 0.5981445 -0.168335
vn 0.7568359 0.625 -0.1917725
vn 0.7568359 0.625 -0.1917725
vn 0.7568359 0.625 -0.1917725
vn -0.7680664 0.6274414 0.1281738
vn -0.7680664 0.6274414 0.1281738
vn -0.7680664 0.6274414 0.1281738
vn -0.8901367 0.4555664 0.008132935
vn -0.8901367 0.4555664 0.008132935
vn -0.8901367 0.4555664 0.008132935
vn 0.2344971 0.4321289 0.8706055
vn 0.2344971 0.4321289 0.8706055
vn 0.2344971 0.4321289 0.8706055
vn 0.251709 0.4592285 0.8520508
vn 0.251709 0.4592285 0.8520508
vn 0.251709 0.4592285 0.8520508
vn 0.3112793 0.5566406 -0.7705078
vn 0.3112793 0.5566406 -0.7705078
vn 0.3112793 0.5566406 -0.7705078
vn 0.3195801 0.5517578 -0.7705078
vn 0.3195801 0.5517578 -0.7705078
vn 0.3195801 0.5517578 -0.7705078
vn 0.5615234 0.5488281 -0.6191406
vn 0.5615234 0.5488281 -0.6191406
vn 0.5615234 0.5488281 -0.6191406
vn 0.5371094 0.5668945 -0.625
vn 0.5371094 0.5668945 -0.625
vn 0.5371094 0.5668945 -0.625
vn 0.659668 0.5112305 0.5512695
vn 0.659668 0.5112305 0.5512695
vn 0.659668 0.5112305 0.5512695
vn 0.6381836 0.407959 0.652832
vn 0.6381836 0.407959 0.652832
vn 0.6381836 0.407959 0.652832
vn 0.362793 0.4213867 0.8310547
vn 0.362793 0.4213867 0.8310547
vn 0.362793 0.4213867 0.8310547
vn 0.4384766 0.4929199 0.7514648
vn 0.4384766 0.4929199 0.7514648
vn 0.4384766 0.4929199 0.7514648
vn 0.8378906 0.5454102 -0.02098083
vn 0.8378906 0.5454102 -0.02098083
vn 0.8378906 0.5454102 -0.02098083
vn 0.8710938 0.4824219 0.09106445
vn 0.8710938 0.4824219 0.09106445
vn 0.8710938 0.4824219 0.09106445
vn -0.8027344 0.5546875 -0.2194824
vn -0.8027344 0.5546875 -0.2194824
vn -0.8027344 0.5546875 -0.2194824
vn -0.840332 0.442627 -0.3134766
vn -0.840332 0.442627 -0.3134766
vn -0.840332 0.442627 -0.3134766
vn -0.8134766 0.5708008 0.1103516
vn -0.8134766 0.5708008 0.1103516
vn -0.8134766 0.5708008 0.1103516
vn -0.7651367 0.6274414 0.1424561
vn -0.7651367 0.6274414 0.1424561
vn -0.7651367 0.6274414 0.1424561
vn -0.6723633 0.5439453 0.5019531
vn -0.6723633 0.5439453 0.5019531
vn -0.6723633 0.5439453 0.5019531
vn -0.612793 0.5883789 0.527832
vn -0.612793 0.5883789 0.527832
vn -0.612793 0.5883789 0.527832
vn -0.6884766 0.5869141 0.4262695
vn -0.6884766 0.5869141 0.4262695
vn -0.6884766 0.5869141 0.4262695
vn -0.6782227 0.5932617 0.4338379
vn -0.6782227 0.5932617 0.4338379
vn -0.6782227 0.5932617 0.4338379
vn 0.9189453 0.3908691 0.05535889
vn 0.9189453 0.3908691 0.05535889
vn 0.9189453 0.3908691 0.05535889
vn 0.8115234 0.5825195 -0.04653931
vn 0.8115234 0.5825195 -0.04653931
vn 0.8115234 0.5825195 -0.04653931
vn 0.7480469 0.5805664 -0.3210449
vn 0.7480469 0.5805664 -0.3210449
vn 0.7480469 0.5805664 -0.3210449
vn 0.7587891 0.5693359 -0.3164063
vn 0.7587891 0.5693359 -0.3164063
vn 0.7587891 0.5693359 -0.3164063
vn -0.06903076 0.9970703 0.03359985
vn -0.06903076 0.9970703 0.03359985
vn -0.06903076 0.9970703 0.03359985
vn -0.04846191 0.9975586 -0.04562378
vn -0.04846191 0.9975586 -0.04562378
vn -0.04846191 0.9975586 -0.04562378
vn 0.02459717 0.9980469 -0.05648804
vn 0.02459717 0.9980469 -0.05648804
vn 0.02459717 0.9980469 -0.05648804
vn -0.001655579 0.9995117 0.03805542
vn -0.001655579 0.9995117 0.03805542
vn -0.001655579 0.9995117 0.03805542
vn 0.04263306 0.9975586 -0.05197144
vn 0.04263306 0.9975586 -0.05197144
vn 0.04263306 0.9975586 -0.05197144
vn -0.03903198 0.9990234 -0.01852417
vn -0.03903198 0.9990234 -0.01852417
vn -0.03903198 0.9990234 -0.01852417
vn 0.01312256 0.9946289 0.1040649
vn 0.01312256 0.9946289 0.1040649
vn 0.01312256 0.9946289 0.1040649
vn 0.03994751 0.9907227 0.1311035
vn 0.03994751 0.9907227 0.1311035
vn 0.03994751 0.9907227 0.1311035
vn -0.0007925034 0.9990234 0.04071045
vn -0.0007925034 0.9990234 0.04071045
vn -0.0007925034 0.9990234 0.04071045
vn 0.04693604 0.9951172 0.08581543
vn 0.04693604 0.9951172 0.08581543
vn 0.04693604 0.9951172 0.08581543
vn 0.01841736 0.9995117 0.02455139
vn 0.01841736 0.9995117 0.02455139
vn 0.01841736 0.9995117 0.02455139
vn 0.05825806 0.9980469 0.02449036
vn 0.05825806 0.9980469 0.02449036
vn 0.05825806 0.9980469 0.02449036
vn 0.04556274 0.996582 0.06652832
vn 0.04556274 0.996582 0.06652832
vn 0.04556274 0.996582 0.06652832
vn -0.7988281 0.00970459 0.6015625
vn -0.7988281 0.00970459 0.6015625
vn -0.7988281 0.00970459 0.6015625
vn -0.7983398 0.01027679 0.6025391
vn -0.8886719 0.03393555 0.4570313
vn -0.8886719 0.03393555 0.4570313
vn -0.8886719 0.03393555 0.4570313
vn -0.890625 0.03155518 0.4536133
vn 0.9604492 0.07897949 -0.2666016
vn 0.9604492 0.07897949 -0.2666016
vn 0.9604492 0.07897949 -0.2666016
vn 0.9575195 0.08831787 -0.2751465
vn 0.8818359 0.06494141 -0.467041
vn 0.8818359 0.06494141 -0.467041
vn 0.8818359 0.06494141 -0.467041
vn 0.8847656 0.06008911 -0.4619141
vn 0.9663086 0.1195068 0.2279053
vn 0.9663086 0.1195068 0.2279053
vn 0.9663086 0.1195068 0.2279053
vn 0.9667969 0.1433105 0.2111816
vn -0.3474121 0.003385544 -0.9375
vn -0.3474121 0.003385544 -0.9375
vn -0.3474121 0.003385544 -0.9375
vn -0.347168 0.003170013 -0.9379883
vn 0.9780273 0.04681396 0.2042236
vn 0.9780273 0.04681396 0.2042236
vn 0.9780273 0.04681396 0.2042236
vn 0.9755859 0.04000854 0.2161865
vn -0.2474365 0.006778717 -0.96875
vn -0.2474365 0.006778717 -0.96875
vn -0.2474365 0.006778717 -0.96875
vn -0.2440186 0.005516052 -0.9697266
vn 0.3205566 0.1437988 0.9360352
vn 0.3205566 0.1437988 0.9360352
vn 0.3205566 0.1437988 0.9360352
vn 0.3059082 0.1303711 0.9433594
vn 0.9394531 0.05789185 -0.3371582
vn 0.9394531 0.05789185 -0.3371582
vn 0.9394531 0.05789185 -0.3371582
vn 0.9326172 0.06176758 -0.355957
vn 0.809082 0.1425781 0.5698242
vn 0.809082 0.1425781 0.5698242
vn 0.809082 0.1425781 0.5698242
vn 0.8256836 0.1569824 0.5419922
vn 0.5039063 0.0423584 -0.862793
vn 0.5039063 0.0423584 -0.862793
vn 0.5039063 0.0423584 -0.862793
vn 0.5024414 0.04312134 -0.8637695
vn -0.9399414 0.01268005 -0.3405762
vn -0.9399414 0.01268005 -0.3405762
vn -0.9399414 0.01268005 -0.3405762
vn -0.9370117 0.007419586 -0.348877
vn -0.9921875 0.01435089 0.1256104
vn -0.9921875 0.01435089 0.1256104
vn -0.9921875 0.01435089 0.1256104
vn -0.9931641 0.008132935 0.1160889
vn -0.1279297 0.07391357 0.9892578
vn -0.1279297 0.07391357 0.9892578
vn -0.1279297 0.07391357 0.9892578
vn -0.1325684 0.07226563 0.9887695
vn -0.8056641 0.0489502 0.590332
vn -0.8056641 0.0489502 0.590332
vn -0.8056641 0.0489502 0.590332
vn -0.8061523 0.04785156 0.5893555
vn -0.9951172 0.02124023 -0.0949707
vn -0.9951172 0.02124023 -0.0949707
vn -0.9951172 0.02124023 -0.0949707
vn -0.9946289 0.01780701 -0.1016846
vn -0.7358398 0.05114746 0.675293
vn -0.7358398 0.05114746 0.675293
vn -0.7358398 0.05114746 0.675293
vn -0.7387695 0.04742432 0.6723633
vn 0.7324219 0.05853271 -0.6782227
vn 0.7324219 0.05853271 -0.6782227
vn 0.7324219 0.05853271 -0.6782227
vn 0.7353516 0.05319214 -0.675293
vn -0.7553711 0.5830078 -0.3000488
vn -0.7553711 0.5830078 -0.3000488
vn -0.7553711 0.5830078 -0.3000488
vn -0.7548828 0.5844727 -0.2978516
vn 0.1135864 0.6411133 -0.7587891
vn 0.1135864 0.6411133 -0.7587891
vn 0.1135864 0.6411133 -0.7587891
vn 0.119873 0.6367188 -0.7617188
vn -0.2983398 0.5859375 -0.753418
vn -0.2983398 0.5859375 -0.753418
vn -0.2983398 0.5859375 -0.753418
vn -0.2998047 0.5913086 -0.7485352
vn 0.6572266 0.6079102 0.4450684
vn 0.6572266 0.6079102 0.4450684
vn 0.6572266 0.6079102 0.4450684
vn 0.65625 0.5952148 0.463623
vn 0.7436523 0.6005859 -0.2932129
vn 0.7436523 0.6005859 -0.2932129
vn 0.7436523 0.6005859 -0.2932129
vn 0.7597656 0.5966797 -0.2578125
vn -0.2758789 0.5200195 -0.8081055
vn -0.2758789 0.5200195 -0.8081055
vn -0.2758789 0.5200195 -0.8081055
vn -0.237915 0.5141602 -0.8242188
vn -0.6206055 0.644043 0.4475098
vn -0.6206055 0.644043 0.4475098
vn -0.6206055 0.644043 0.4475098
vn -0.6040039 0.6518555 0.458252
vn -0.7983398 0.5957031 -0.0881958
vn -0.7983398 0.5957031 -0.0881958
vn -0.7983398 0.5957031 -0.0881958
vn -0.7963867 0.5991211 -0.08410645
vn 0.6401367 0.6811523 -0.3562012
vn 0.6401367 0.6811523 -0.3562012
vn 0.6401367 0.6811523 -0.3562012
vn 0.6723633 0.65625 -0.3425293
vn -0.9731445 0.02507019 0.2287598
vn -0.9731445 0.02507019 0.2287598
vn -0.9731445 0.02507019 0.2287598
vn -0.9736328 0.02301025 0.2261963
vn -0.8364258 0.04663086 0.5463867
vn -0.8364258 0.04663086 0.5463867
vn -0.8364258 0.04663086 0.5463867
vn -0.8354492 0.04730225 0.5478516
vn -0.5332031 0.07171631 0.8432617
vn -0.5332031 0.07171631 0.8432617
vn -0.5332031 0.07171631 0.8432617
vn -0.5244141 0.0637207 0.8491211
vn -0.5742188 0.06033325 0.8164063
vn -0.5742188 0.06033325 0.8164063
vn -0.5766602 0.05892944 0.8149414
vn 0.4790039 0.1295166 0.8681641
vn 0.4790039 0.1295166 0.8681641
vn 0.4790039 0.1295166 0.8681641
vn 0.4731445 0.1253662 0.8720703
vn 0.9101563 0.06835938 -0.4089355
vn 0.9101563 0.06835938 -0.4089355
vn 0.9101563 0.06835938 -0.4089355
vn 0.9086914 0.07037354 -0.4111328
vn 0.9990234 0.02412415 -0.03878784
vn 0.9990234 0.02412415 -0.03878784
vn 0.9990234 0.02412415 -0.03878784
vn 0.9990234 0.02392578 -0.03857422
vn 0.9345703 0.09790039 0.3417969
vn 0.9345703 0.09790039 0.3417969
vn 0.9345703 0.09790039 0.3417969
vn 0.9384766 0.1116943 0.326416
vn -0.3913574 0.05056763 -0.9189453
vn -0.3913574 0.05056763 -0.9189453
vn -0.3913574 0.05056763 -0.9189453
vn -0.3930664 0.05252075 -0.9179688
vn -0.9985352 0.0274353 0.04858398
vn -0.9985352 0.0274353 0.04858398
vn -0.9985352 0.0274353 0.04858398
vn -0.9985352 0.02459717 0.04547119
vn 0.9760742 0.0292511 -0.2163086
vn 0.9760742 0.0292511 -0.2163086
vn 0.9760742 0.0292511 -0.2163086
vn 0.9760742 0.02897644 -0.2158203
vn -0.005134583 0.01502228 -1
vn -0.005134583 0.01502228 -1
vn -0.005134583 0.01502228 -1
vn -0.006057739 0.01570129 -1
vn 0.2810059 0.09570313 0.9550781
vn 0.2810059 0.09570313 0.9550781
vn 0.2810059 0.09570313 0.9550781
vn 0.2705078 0.08880615 0.9584961
vn 0.9951172 0.07080078 0.07000732
vn 0.9951172 0.07080078 0.07000732
vn 0.9951172 0.07080078 0.07000732
vn 0.9956055 0.07696533 0.05273438
vn 0.7016602 0.1022949 0.7050781
vn 0.7016602 0.1022949 0.7050781
vn 0.7016602 0.1022949 0.7050781
vn 0.7050781 0.1046143 0.7011719
vn 0.4187012 0.02792358 -0.9077148
vn 0.4187012 0.02792358 -0.9077148
vn 0.4187012 0.02792358 -0.9077148
vn 0.4174805 0.02832031 -0.9082031
vn -0.9985352 0.03796387 -0.03540039
vn -0.9985352 0.03796387 -0.03540039
vn -0.9985352 0.03796387 -0.03540039
vn -0.9985352 0.03442383 -0.04241943
vn -0.9458008 0.02919006 -0.3237305
vn -0.9458008 0.02919006 -0.3237305
vn -0.9458008 0.02919006 -0.3237305
vn -0.9433594 0.02523804 -0.3310547
vn -0.4726563 0.06274414 0.8789063
vn -0.4726563 0.06274414 0.8789063
vn -0.4726563 0.06274414 0.8789063
vn -0.4711914 0.06335449 0.8798828
vn -0.7592773 0.05517578 0.6484375
vn -0.7592773 0.05517578 0.6484375
vn -0.7592773 0.05517578 0.6484375
vn -0.7578125 0.05645752 0.6499023
vn -0.9995117 0.03369141 0.00187397
vn -0.9995117 0.03369141 0.00187397
vn -0.9995117 0.03369141 0.00187397
vn -0.9995117 0.03164673 -0.003925323
vn 0.1518555 0.05889893 -0.9868164
vn 0.1518555 0.05889893 -0.9868164
vn 0.1518555 0.05889893 -0.9868164
vn 0.1467285 0.06204224 -0.9873047
vn 0.6586914 0.05099487 -0.7509766
vn 0.6586914 0.05099487 -0.7509766
vn 0.6586914 0.05099487 -0.7509766
vn 0.6591797 0.050354 -0.75
vn -0.8071289 0.5883789 -0.04647827
vn -0.8071289 0.5883789 -0.04647827
vn -0.8071289 0.5883789 -0.04647827
vn -0.8139648 0.5776367 -0.05767822
vn 0.07104492 0.5615234 -0.8242188
vn 0.07104492 0.5615234 -0.8242188
vn 0.07104492 0.5615234 -0.8242188
vn 0.06640625 0.5649414 -0.8227539
vn -0.3425293 0.5317383 -0.7749023
vn -0.3425293 0.5317383 -0.7749023
vn -0.3425293 0.5317383 -0.7749023
vn -0.3415527 0.5292969 -0.7768555
vn -0.04473877 0.5336914 -0.8447266
vn -0.04473877 0.5336914 -0.8447266
vn -0.04473877 0.5336914 -0.8447266
vn -0.03424072 0.5219727 -0.8520508
vn -0.8344727 0.550293 -0.02809143
vn -0.8344727 0.550293 -0.02809143
vn -0.8344727 0.550293 -0.02809143
vn -0.8310547 0.5556641 -0.02133179
vn -0.390625 0.5205078 0.7592773
vn -0.390625 0.5205078 0.7592773
vn -0.390625 0.5205078 0.7592773
vn -0.3898926 0.5209961 0.7592773
vn -0.04656982 0.9980469 -0.03787231
vn -0.05749512 0.9970703 -0.05166626
vn -0.05780029 0.996582 -0.05636597
vn -0.04656982 0.9980469 -0.03787231
vn -0.04656982 0.9980469 -0.03787231
vn -0.04995728 0.996582 -0.06390381
vn -0.04995728 0.996582 -0.06390381
vn -0.04315186 0.9985352 -0.03890991

vt 0.08331299 0
vt 0.25 0.7207031
vt 0.25 0
vt 0.25 0.7207031
vt 0.08331299 0
vt 0.08331299 0.7207031
vt 0.270752 0
vt 0.25 0.7207031
vt 0.270752 0.7207031
vt 0.25 0.7207031
vt 0.270752 0
vt 0.25 0
vt 0.3081055 1
vt 0.6298828 1
vt 0.5498047 1
vt 0.6298828 1
vt 0.3081055 1
vt 0.7089844 1
vt 0.75 0
vt 0.7084961 0.7207031
vt 0.75 0.7207031
vt 0.7084961 0.7207031
vt 0.75 0
vt 0.7084961 0
vt 0.6665039 0
vt 0.625 0.7207031
vt 0.6665039 0.7207031
vt 0.625 0.7207031
vt 0.6665039 0
vt 0.625 0
vt 0.9819336 1.762695
vt 0.7250977 1
vt 0.5292969 1
vt 0.7250977 1
vt 0.9819336 1.762695
vt 1.454102 1.486328
vt 0.2341309 0.9521484
vt 0.5292969 1
vt 0.282959 1
vt 0.5292969 1
vt 0.2341309 0.9521484
vt 0.489502 1.009766
vt 0.03985596 0.8569336
vt 0.1690674 1
vt 0.1290283 1
vt 0.1690674 1
vt 0.03985596 0.8569336
vt -0.004165649 0.9345703
vt 0.6152344 1.504883
vt 0.4018555 1
vt 0.3081055 1
vt 0.4018555 1
vt 0.6152344 1.504883
vt 0.6157227 1.433594
vt 0.75 0.7207031
vt 0.7089844 1
vt 0.7001953 1
vt 0.7089844 1
vt 0.75 0.7207031
vt 0.7084961 0.7207031
vt 0.1887207 0.8232422
vt -0.01275635 1
vt 0.1690674 1
vt -0.01275635 1
vt 0.1887207 0.8232422
vt 0.1418457 0.8330078
vt 0.3103027 0.8950195
vt 0.3088379 1
vt 0.4018555 1
vt 0.3088379 1
vt 0.3103027 0.8950195
vt 0.2214355 0.9052734
vt 0.189209 0.9379883
vt 0.1605225 1
vt 0.2553711 1
vt 0.1605225 1
vt 0.189209 0.9379883
vt 0.07696533 0.9790039
vt 0.2338867 1.320313
vt 0.282959 1
vt 0.2282715 1
vt 0.282959 1
vt 0.2338867 1.320313
vt 0.4331055 1.299805
vt 0.8334961 0.7207031
vt 0.7202148 1
vt 0.5800781 1
vt 0.7202148 1
vt 0.8334961 0.7207031
vt 0.7915039 0.7207031
vt 0.8359375 1.148438
vt 0.8569336 1
vt 0.7480469 1
vt 0.8569336 1
vt 0.8359375 1.148438
vt 0.9946289 1.094727
vt 0.8823242 1.151367
vt 0.8134766 1
vt 0.7431641 1
vt 0.8134766 1
vt 0.8823242 1.151367
vt 0.9770508 1.134766
vt 0.9882813 2.072266
vt 0.7480469 1
vt 0.7250977 1
vt 0.7480469 1
vt 0.9882813 2.072266
vt 1.302734 2.027344
vt 0.1854248 1.083984
vt 0.1290283 1
vt 0.1605225 1
vt 0.1290283 1
vt 0.1854248 1.083984
vt 0.1945801 1.058594
vt 0.7202148 1
vt 0.3081055 1
vt 0.4018555 1
vt 0.5800781 1
vt 0.3088379 1
vt 0.7431641 1
vt 0.7202148 1
vt 0.7089844 1
vt 0.3081055 1
vt 0.7089844 1
vt 0.7202148 1
vt 0.7001953 1
vt 0.1605225 1
vt 0.3088379 1
vt 0.2553711 1
vt 0.3088379 1
vt 0.1605225 1
vt 0.7431641 1
vt 0.5800781 1
vt 0.7431641 1
vt 0.8134766 1
vt 0.7480469 1
vt 0.1605225 1
vt 0.1290283 1
vt -0.01275635 1
vt 0.7250977 1
vt 0.7431641 1
vt 0.7480469 1
vt 0.8569336 1
vt 0.7480469 1
vt 0.7431641 1
vt 0.1605225 1
vt -0.01275635 1
vt 0.1290283 1
vt 0.1690674 1
vt 0.1290283 1
vt 0.7250977 1
vt 0.7480469 1
vt 0.5292969 1
vt -0.01275635 1
vt 0.2836914 1
vt -0.01275635 1
vt 0.5292969 1
vt 0.7250977 1
vt 0.5292969 1
vt 0.2282715 1
vt 0.282959 1
vt 0.2282715 1
vt 0.5292969 1
vt 0.2836914 1
vt 0.3081055 1
vt 0.6298828 1
vt 0.5498047 1
vt 0.6298828 1
vt 0.3081055 1
vt 0.7089844 1
vt 0.9819336 1.762695
vt 0.7250977 1
vt 0.5292969 1
vt 0.7250977 1
vt 0.9819336 1.762695
vt 1.454102 1.486328
vt 0.2341309 0.9521484
vt 0.5292969 1
vt 0.282959 1
vt 0.5292969 1
vt 0.2341309 0.9521484
vt 0.489502 1.009766
vt 0.03985596 0.8569336
vt 0.1690674 1
vt 0.1290283 1
vt 0.1690674 1
vt 0.03985596 0.8569336
vt -0.004165649 0.9345703
vt 0.6152344 1.504883
vt 0.4018555 1
vt 0.3081055 1
vt 0.4018555 1
vt 0.6152344 1.504883
vt 0.6157227 1.433594
vt 0.75 0.7207031
vt 0.7089844 1
vt 0.7001953 1
vt 0.7089844 1
vt 0.75 0.7207031
vt 0.7084961 0.7207031
vt 0.1887207 0.8232422
vt -0.01275635 1
vt 0.1690674 1
vt -0.01275635 1
vt 0.1887207 0.8232422
vt 0.1418457 0.8330078
vt 0.3103027 0.8950195
vt 0.3088379 1
vt 0.4018555 1
vt 0.3088379 1
vt 0.3103027 0.8950195
vt 0.2214355 0.9052734
vt 0.189209 0.9379883
vt 0.1605225 1
vt 0.2553711 1
vt 0.1605225 1
vt 0.189209 0.9379883
vt 0.07696533 0.9790039
vt 0.1689453 1.164063
vt 0.2836914 1
vt -0.01275635 1
vt 0.2836914 1
vt 0.1689453 1.164063
vt 0.2265625 1.162109
vt 0.2338867 1.320313
vt 0.282959 1
vt 0.2282715 1
vt 0.282959 1
vt 0.2338867 1.320313
vt 0.4331055 1.299805
vt 0.1967773 0.8188477
vt 0.2282715 1
vt 0.2836914 1
vt 0.2282715 1
vt 0.1967773 0.8188477
vt 0.1538086 0.8237305
vt 0.8334961 0.7207031
vt 0.7202148 1
vt 0.5800781 1
vt 0.7202148 1
vt 0.8334961 0.7207031
vt 0.7915039 0.7207031
vt 0.7915039 0.7207031
vt 0.7001953 1
vt 0.7202148 1
vt 0.7001953 1
vt 0.7915039 0.7207031
vt 0.75 0.7207031
vt 0.8359375 1.148438
vt 0.8569336 1
vt 0.7480469 1
vt 0.8569336 1
vt 0.8359375 1.148438
vt 0.9946289 1.094727
vt 0.8823242 1.151367
vt 0.8134766 1
vt 0.7431641 1
vt 0.8134766 1
vt 0.8823242 1.151367
vt 0.9770508 1.134766
vt 0.625 0.7207031
vt 0.3081055 1
vt 0.5498047 1
vt 0.3081055 1
vt 0.625 0.7207031
vt 0.5834961 0.7207031
vt 0.1854248 1.083984
vt 0.1290283 1
vt 0.1605225 1
vt 0.1290283 1
vt 0.1854248 1.083984
vt 0.1945801 1.058594
vt 0.1605225 1
vt 0.3088379 1
vt 0.2553711 1
vt 0.3088379 1
vt 0.1605225 1
vt 0.7431641 1
vt 0.5800781 1
vt 0.7431641 1
vt 0.8134766 1
vt 0.7480469 1
vt 0.1605225 1
vt 0.1290283 1
vt 0.7431641 1
vt 0.7480469 1
vt 0.8569336 1
vt 0.7480469 1
vt 0.7431641 1
vt 0.1605225 1
vt -0.01275635 1
vt 0.1290283 1
vt 0.1690674 1
vt 0.1290283 1
vt -0.01275635 1
vt 0.7250977 1
vt 0.1290283 1
vt 0.7250977 1
vt 0.7480469 1
vt 0.5292969 1
vt -0.01275635 1
vt 0.2836914 1
vt -0.01275635 1
vt 0.5292969 1
vt 0.7250977 1
vt 0.5292969 1
vt 0.2282715 1
vt 0.282959 1
vt 0.2282715 1
vt 0.5292969 1
vt 0.2836914 1
vt 0.7915039 0
vt 0.75 0.7207031
vt 0.7915039 0.7207031
vt 0.75 0
vt -0.0625 0
vt -0.08331299 0.7207031
vt -0.0625 0.7207031
vt -0.08331299 0
vt 0.4375 0
vt 0.416748 0.7207031
vt 0.4375 0.7207031
vt 0.416748 0
vt 0.625 0
vt 0.5834961 0.7207031
vt 0.625 0.7207031
vt 0.5834961 0
vt 0.416748 0
vt 0.333252 0.7207031
vt 0.416748 0.7207031
vt 0.333252 0
vt 0.7084961 0
vt 0.6665039 0.7207031
vt 0.7084961 0.7207031
vt 0.6665039 0
vt 0.5834961 0
vt 0.5 0.7207031
vt 0.5834961 0.7207031
vt 0.5 0
vt 0.479248 0
vt 0.458252 0.7207031
vt 0.479248 0.7207031
vt 0.458252 0
vt 0.333252 0
vt 0.291748 0.7207031
vt 0.333252 0.7207031
vt 0.291748 0
vt 0.28125 0
vt 0.270752 0.7207031
vt 0.28125 0.7207031
vt 0.270752 0
vt 0.291748 0
vt 0.28125 0.7207031
vt 0.291748 0.7207031
vt 0.28125 0
vt 0.5 0
vt 0.479248 0.7207031
vt 0.5 0.7207031
vt 0.479248 0
vt 0.9165039 0
vt 0.8334961 0.7207031
vt 0.9165039 0.7207031
vt 0.8334961 0
vt 0.8334961 0
vt 0.7915039 0.7207031
vt 0.8334961 0.7207031
vt 0.7915039 0
vt 0.04165649 0
vt 0 0.7207031
vt 0.04165649 0.7207031
vt 0 0
vt 0 0
vt -0.04165649 0.7207031
vt 0 0.7207031
vt -0.04165649 0
vt -0.04165649 0
vt -0.0625 0.7207031
vt -0.04165649 0.7207031
vt -0.0625 0
vt 0.08331299 0
vt 0.04165649 0.7207031
vt 0.08331299 0.7207031
vt 0.04165649 0
vt 0.458252 0
vt 0.4375 0.7207031
vt 0.458252 0.7207031
vt 0.4375 0
vt 0.9165039 0.7207031
vt 0.5800781 1
vt 0.8134766 1
vt 0.8334961 0.7207031
vt 0.6665039 0.7207031
vt 0.5498047 1
vt 0.6298828 1
vt 0.625 0.7207031
vt 0.7084961 0.7207031
vt 0.6298828 1
vt 0.7089844 1
vt 0.6665039 0.7207031
vt 0.1689453 1.164063
vt 0.2836914 1
vt -0.01275635 1
vt 0.2265625 1.162109
vt 0.1967773 0.8188477
vt 0.2282715 1
vt 0.2836914 1
vt 0.1538086 0.8237305
vt 0.2248535 0.7670898
vt 0.2553711 1
vt 0.3088379 1
vt 0.1106567 0.7758789
vt 0.7915039 0.7207031
vt 0.7001953 1
vt 0.7202148 1
vt 0.75 0.7207031
vt 0.8564453 0.8227539
vt 0.7431641 1
vt 0.8569336 1
vt 0.8164063 0.8295898
vt 0.625 0.7207031
vt 0.3081055 1
vt 0.5498047 1
vt 0.5834961 0.7207031
vt 0.7915039 0
vt 0.75 0.7207031
vt 0.7915039 0.7207031
vt 0.75 0
vt -0.0625 0
vt -0.08331299 0.7207031
vt -0.0625 0.7207031
vt -0.08331299 0
vt 0.08331299 0
vt 0.25 0.7207031
vt 0.25 0
vt 0.08331299 0.7207031
vt 0.04165649 0.7207031
vt 0.08331299 0.7207031
vt 0.04165649 0
vt 0.270752 0
vt 0.25 0.7207031
vt 0.270752 0.7207031
vt 0.25 0
vt 0.4375 0
vt 0.416748 0.7207031
vt 0.4375 0.7207031
vt 0.416748 0
vt 0.625 0
vt 0.5834961 0.7207031
vt 0.625 0.7207031
vt 0.5834961 0
vt 0.416748 0
vt 0.333252 0.7207031
vt 0.416748 0.7207031
vt 0.333252 0
vt 0.7084961 0
vt 0.6665039 0.7207031
vt 0.7084961 0.7207031
vt 0.6665039 0
vt 0.75 0
vt 0.7084961 0.7207031
vt 0.75 0.7207031
vt 0.7084961 0
vt 0.5834961 0
vt 0.5 0.7207031
vt 0.5834961 0.7207031
vt 0.5 0
vt 0.479248 0
vt 0.458252 0.7207031
vt 0.479248 0.7207031
vt 0.458252 0
vt 0.333252 0
vt 0.291748 0.7207031
vt 0.333252 0.7207031
vt 0.291748 0
vt 0.28125 0
vt 0.270752 0.7207031
vt 0.28125 0.7207031
vt 0.270752 0
vt 0.291748 0
vt 0.28125 0.7207031
vt 0.291748 0.7207031
vt 0.28125 0
vt 0.5 0
vt 0.479248 0.7207031
vt 0.5 0.7207031
vt 0.479248 0
vt 0.9165039 0
vt 0.8334961 0.7207031
vt 0.9165039 0.7207031
vt 0.8334961 0
vt 0.8334961 0
vt 0.7915039 0.7207031
vt 0.8334961 0.7207031
vt 0.7915039 0
vt 0.04165649 0
vt 0 0.7207031
vt 0.04165649 0.7207031
vt 0 0
vt 0 0
vt -0.04165649 0.7207031
vt 0 0.7207031
vt -0.04165649 0
vt -0.04165649 0
vt -0.0625 0.7207031
vt -0.04165649 0.7207031
vt -0.0625 0
vt 0.6665039 0
vt 0.625 0.7207031
vt 0.6665039 0.7207031
vt 0.625 0
vt 0.458252 0
vt 0.4375 0.7207031
vt 0.458252 0.7207031
vt 0.4375 0
vt 0.9165039 0.7207031
vt 0.5800781 1
vt 0.8134766 1
vt 0.8334961 0.7207031
vt 0.6665039 0.7207031
vt 0.5498047 1
vt 0.6298828 1
vt 0.625 0.7207031
vt 0.7084961 0.7207031
vt 0.6298828 1
vt 0.7089844 1
vt 0.6665039 0.7207031
vt 0.2248535 0.7670898
vt 0.2553711 1
vt 0.3088379 1
vt 0.1106567 0.7758789
vt 0.8564453 0.8227539
vt 0.7431641 1
vt 0.8569336 1
vt 0.8164063 0.8295898
vt 0.9882813 2.072266
vt 0.7480469 1
vt 0.7250977 1
vt 1.302734 2.027344
vt 0.3081055 1
vt 0.7001953 1
vt 0.7089844 1
vt 0.7202148 1
vt 0.4018555 1
vt 0.5800781 1
vt 0.3088379 1
vt 0.7431641 1

g Mountain_05_(10)_362_28
usemtl Mountain_05_(10)_362_28
usemap Mountain_05_(10)_362_28
f 1/1/1 3/3/3 2/2/2
f 4/4/4 6/6/6 5/5/5
f 7/7/7 9/9/9 8/8/8
f 10/10/10 12/12/12 11/11/11
f 13/13/13 15/15/15 14/14/14
f 16/16/16 18/18/18 17/17/17
f 19/19/19 21/21/21 20/20/20
f 22/22/22 24/24/24 23/23/23
f 25/25/25 27/27/27 26/26/26
f 28/28/28 30/30/30 29/29/29
f 31/31/31 33/33/33 32/32/32
f 34/34/34 36/36/36 35/35/35
f 37/37/37 39/39/39 38/38/38
f 40/40/40 42/42/42 41/41/41
f 43/43/43 45/45/45 44/44/44
f 46/46/46 48/48/48 47/47/47
f 49/49/49 51/51/51 50/50/50
f 52/52/52 54/54/54 53/53/53
f 55/55/55 57/57/57 56/56/56
f 58/58/58 60/60/60 59/59/59
f 61/61/61 63/63/63 62/62/62
f 64/64/64 66/66/66 65/65/65
f 67/67/67 69/69/69 68/68/68
f 70/70/70 72/72/72 71/71/71
f 73/73/73 75/75/75 74/74/74
f 76/76/76 78/78/78 77/77/77
f 79/79/79 81/81/81 80/80/80
f 82/82/82 84/84/84 83/83/83
f 85/85/85 87/87/87 86/86/86
f 88/88/88 90/90/90 89/89/89
f 91/91/91 93/93/93 92/92/92
f 94/94/94 96/96/96 95/95/95
f 97/97/97 99/99/99 98/98/98
f 100/100/100 102/102/102 101/101/101
f 103/103/103 105/105/105 104/104/104
f 106/106/106 108/108/108 107/107/107
f 109/109/109 111/111/111 110/110/110
f 112/112/112 114/114/114 113/113/113
f 115/115/115 117/117/117 116/116/116
f 118/118/118 119/119/119 117/117/117
f 120/120/120 119/119/119 118/118/118
f 117/117/117 121/121/121 118/118/118
f 121/121/121 123/123/123 122/122/122
f 124/124/124 126/126/126 125/125/125
f 127/127/127 129/129/129 128/128/128
f 130/130/130 132/132/132 131/131/131
f 133/133/133 135/135/135 134/134/134
f 136/136/136 138/138/138 137/137/137
f 138/138/138 140/140/140 139/139/139
f 141/141/141 143/143/143 142/142/142
f 144/144/144 146/146/146 145/145/145
f 147/147/147 149/149/149 148/148/148
f 150/150/150 152/152/152 151/151/151
f 153/153/153 155/155/155 154/154/154
f 156/156/156 158/158/158 157/157/157
f 159/159/159 161/161/161 160/160/160
f 162/162/162 164/164/164 163/163/163
f 165/165/165 167/167/167 166/166/166
f 168/168/168 170/170/170 169/169/169
f 171/171/171 173/173/173 172/172/172
f 174/174/174 176/176/176 175/175/175
f 177/177/177 179/179/179 178/178/178
f 180/180/180 182/182/182 181/181/181
f 183/183/183 185/185/185 184/184/184
f 186/186/186 188/188/188 187/187/187
f 189/189/189 191/191/191 190/190/190
f 192/192/192 194/194/194 193/193/193
f 195/195/195 197/197/197 196/196/196
f 198/198/198 200/200/200 199/199/199
f 201/201/201 203/203/203 202/202/202
f 204/204/204 206/206/206 205/205/205
f 207/207/207 209/209/209 208/208/208
f 210/210/210 212/212/212 211/211/211
f 213/213/213 215/215/215 214/214/214
f 216/216/216 218/218/218 217/217/217
f 219/219/219 221/221/221 220/220/220
f 222/222/222 224/224/224 223/223/223
f 225/225/225 227/227/227 226/226/226
f 228/228/228 230/230/230 229/229/229
f 231/231/231 233/233/233 232/232/232
f 234/234/234 236/236/236 235/235/235
f 237/237/237 239/239/239 238/238/238
f 240/240/240 242/242/242 241/241/241
f 243/243/243 245/245/245 244/244/244
f 246/246/246 248/248/248 247/247/247
f 249/249/249 251/251/251 250/250/250
f 252/252/252 254/254/254 253/253/253
f 255/255/255 257/257/257 256/256/256
f 258/258/258 260/260/260 259/259/259
f 261/261/261 263/263/263 262/262/262
f 264/264/264 266/266/266 265/265/265
f 267/267/267 269/269/269 268/268/268
f 270/270/270 272/272/272 271/271/271
f 273/273/273 275/275/275 274/274/274
f 276/276/276 278/278/278 277/277/277
f 279/279/279 281/281/281 280/280/280
f 282/282/282 284/284/284 283/283/283
f 285/285/285 287/287/287 286/286/286
f 288/288/288 290/290/290 289/289/289
f 291/291/291 293/293/293 292/292/292
f 294/294/294 296/296/296 295/295/295
f 297/297/297 299/299/299 298/298/298
f 300/300/300 302/302/302 301/301/301
f 303/303/303 305/305/305 304/304/304
f 306/306/306 308/308/308 307/307/307
f 309/309/309 311/311/311 310/310/310
f 312/312/312 314/314/314 313/313/313
f 313/313/313 315/315/315 312/312/312
f 316/316/316 318/318/318 317/317/317
f 317/317/317 319/319/319 316/316/316
f 320/320/320 322/322/322 321/321/321
f 321/321/321 323/323/323 320/320/320
f 324/324/324 326/326/326 325/325/325
f 325/325/325 327/327/327 324/324/324
f 328/328/328 330/330/330 329/329/329
f 329/329/329 331/331/331 328/328/328
f 332/332/332 334/334/334 333/333/333
f 333/333/333 335/335/335 332/332/332
f 336/336/336 338/338/338 337/337/337
f 337/337/337 339/339/339 336/336/336
f 340/340/340 342/342/342 341/341/341
f 341/341/341 343/343/343 340/340/340
f 344/344/344 346/346/346 345/345/345
f 345/345/345 347/347/347 344/344/344
f 348/348/348 350/350/350 349/349/349
f 349/349/349 351/351/351 348/348/348
f 352/352/352 354/354/354 353/353/353
f 353/353/353 355/355/355 352/352/352
f 356/356/356 358/358/358 357/357/357
f 357/357/357 359/359/359 356/356/356
f 360/360/360 362/362/362 361/361/361
f 361/361/361 363/363/363 360/360/360
f 364/364/364 366/366/366 365/365/365
f 365/365/365 367/367/367 364/364/364
f 368/368/368 370/370/370 369/369/369
f 369/369/369 371/371/371 368/368/368
f 372/372/372 374/374/374 373/373/373
f 373/373/373 375/375/375 372/372/372
f 376/376/376 378/378/378 377/377/377
f 377/377/377 379/379/379 376/376/376
f 380/380/380 382/382/382 381/381/381
f 381/381/381 383/383/383 380/380/380
f 384/384/384 386/386/386 385/385/385
f 385/385/385 387/387/387 384/384/384
f 388/388/388 390/390/390 389/389/389
f 389/389/389 391/391/391 388/388/388
f 392/392/392 394/394/394 393/393/393
f 393/393/393 395/395/395 392/392/392
f 396/396/396 398/398/398 397/397/397
f 397/397/397 399/399/399 396/396/396
f 400/400/400 402/402/402 401/401/401
f 401/401/401 403/403/403 400/400/400
f 404/404/404 406/406/406 405/405/405
f 405/405/405 407/407/407 404/404/404
f 408/408/408 410/410/410 409/409/409
f 409/409/409 411/411/411 408/408/408
f 412/412/412 414/414/414 413/413/413
f 413/413/413 415/415/415 412/412/412
f 416/416/416 418/418/418 417/417/417
f 417/417/417 419/419/419 416/416/416
f 420/420/420 422/422/422 421/421/421
f 421/421/421 423/423/423 420/420/420
f 424/424/424 426/426/426 425/425/425
f 425/425/425 427/427/427 424/424/424
f 428/428/428 430/430/430 429/429/429
f 429/429/429 431/431/431 428/428/428
f 432/432/432 434/434/434 433/433/433
f 433/433/433 435/435/435 432/432/432
f 432/432/432 437/437/437 436/436/436
f 436/436/436 438/438/438 432/432/432
f 439/439/439 441/441/441 440/440/440
f 440/440/440 442/442/442 439/439/439
f 443/443/443 445/445/445 444/444/444
f 444/444/444 446/446/446 443/443/443
f 447/447/447 449/449/449 448/448/448
f 448/448/448 450/450/450 447/447/447
f 451/451/451 453/453/453 452/452/452
f 452/452/452 454/454/454 451/451/451
f 455/455/455 457/457/457 456/456/456
f 456/456/456 458/458/458 455/455/455
f 459/459/459 461/461/461 460/460/460
f 460/460/460 462/462/462 459/459/459
f 463/463/463 465/465/465 464/464/464
f 464/464/464 466/466/466 463/463/463
f 467/467/467 469/469/469 468/468/468
f 468/468/468 470/470/470 467/467/467
f 471/471/471 473/473/473 472/472/472
f 472/472/472 474/474/474 471/471/471
f 475/475/475 477/477/477 476/476/476
f 476/476/476 478/478/478 475/475/475
f 479/479/479 481/481/481 480/480/480
f 480/480/480 482/482/482 479/479/479
f 483/483/483 485/485/485 484/484/484
f 484/484/484 486/486/486 483/483/483
f 487/487/487 489/489/489 488/488/488
f 488/488/488 490/490/490 487/487/487
f 491/491/491 493/493/493 492/492/492
f 492/492/492 494/494/494 491/491/491
f 495/495/495 497/497/497 496/496/496
f 496/496/496 498/498/498 495/495/495
f 499/499/499 501/501/501 500/500/500
f 500/500/500 502/502/502 499/499/499
f 503/503/503 505/505/505 504/504/504
f 504/504/504 506/506/506 503/503/503
f 507/507/507 509/509/509 508/508/508
f 508/508/508 510/510/510 507/507/507
f 511/511/511 513/513/513 512/512/512
f 512/512/512 514/514/514 511/511/511
f 515/515/515 517/517/517 516/516/516
f 516/516/516 518/518/518 515/515/515
f 519/519/519 521/521/521 520/520/520
f 520/520/520 522/522/522 519/519/519
f 523/523/523 525/525/525 524/524/524
f 524/524/524 526/526/526 523/523/523
f 527/527/527 529/529/529 528/528/528
f 528/528/528 530/530/530 527/527/527
f 531/531/531 533/533/533 532/532/532
f 532/532/532 534/534/534 531/531/531
f 535/535/535 537/537/537 536/536/536
f 536/536/536 538/538/538 535/535/535
f 539/539/539 541/541/541 540/540/540
f 540/540/540 542/542/542 539/539/539
f 542/542/542 543/543/543 539/539/539
f 543/543/543 542/542/542 544/544/544
f 544/544/544 545/545/545 543/543/543
f 546/546/546 545/545/545 544/544/544
