#Mountain_05_(11)_354_30.obj

v -4.194438 3.737948 5.015296E-16
v -7.160107 1.713941 1.266889
v -7.665709 1.715764 2.302082E-16
v -7.160107 1.713941 1.266889
v -4.194438 3.737948 5.015296E-16
v -3.933565 3.677025 1.31277
v -7.254385 0.09803808 1.315401E-17
v -7.160107 1.713941 1.266889
v -6.854489 0.1266448 1.188133
v -7.160107 1.713941 1.266889
v -7.254385 0.09803808 1.315401E-17
v -7.665709 1.715764 2.302082E-16
v 3.665562 -2.792712 2.025192
v 6.156199 -2.111066 1.903582
v 5.057958 -2.91188 2.005746
v 6.156199 -2.111066 1.903582
v 3.665562 -2.792712 2.025192
v 6.808693 0.05541031 1.847594
v 6.027656 2.450162 3.287443E-16
v 7.665709 0.1829349 1.190308
v 6.030297 2.431465 1.334739
v 7.665709 0.1829349 1.190308
v 6.027656 2.450162 3.287443E-16
v 7.664266 0.154541 2.073514E-17
v 6.820558 -2.677266 -3.592154E-16
v 5.309934 -3.712569 1.392305
v 6.840152 -2.588091 1.264772
v 5.309934 -3.712569 1.392305
v 6.820558 -2.677266 -3.592154E-16
v 5.29036 -3.835663 -5.146402E-16
v -3.933565 3.677025 1.31277
v -1.709409 3.249509 2.029637
v -3.601106 2.925803 2.003493
v -1.709409 3.249509 2.029637
v -3.933565 3.677025 1.31277
v -2.041348 3.910074 1.316083
v -7.160107 1.713941 1.266889
v -3.601106 2.925803 2.003493
v -6.175473 1.341343 1.885147
v -3.601106 2.925803 2.003493
v -7.160107 1.713941 1.266889
v -3.933565 3.677025 1.31277
v -4.095046 -3.787009 1.314834
v -5.235808 -1.69664 1.877561
v -3.676632 -3.064917 1.995974
v -5.235808 -1.69664 1.877561
v -4.095046 -3.787009 1.314834
v -6.215342 -1.962351 1.209017
v 3.379788 -3.550972 1.370015
v 2.69807 -1.994802 2.001729
v 3.665562 -2.792712 2.025192
v 2.69807 -1.994802 2.001729
v 3.379788 -3.550972 1.370015
v 2.563112 -2.877886 1.327934
v 6.030297 2.431465 1.334739
v 6.808693 0.05541031 1.847594
v 5.621321 1.662609 1.970607
v 6.808693 0.05541031 1.847594
v 6.030297 2.431465 1.334739
v 7.665709 0.1829349 1.190308
v -6.215342 -1.962351 1.209017
v -4.903863 -0.6808474 1.881354
v -5.235808 -1.69664 1.877561
v -4.903863 -0.6808474 1.881354
v -6.215342 -1.962351 1.209017
v -5.818846 -0.7554337 1.199842
v 2.563112 -2.877886 1.327934
v 0.9772552 -2.664852 2.044154
v 2.69807 -1.994802 2.001729
v 0.9772552 -2.664852 2.044154
v 2.563112 -2.877886 1.327934
v 1.519778 -3.286086 1.342203
v 1.200387 -4.013343 1.371662
v -1.721834 -3.588943 2.053877
v 0.7337851 -3.315432 2.070017
v -1.721834 -3.588943 2.053877
v 1.200387 -4.013343 1.371662
v -1.810347 -4.398074 1.340715
v -6.854489 0.1266448 1.188133
v -6.175473 1.341343 1.885147
v -6.145762 0.6678348 1.84846
v -6.175473 1.341343 1.885147
v -6.854489 0.1266448 1.188133
v -7.160107 1.713941 1.266889
v 3.478029 2.897261 1.349744
v 4.602209 1.618828 1.984561
v 3.020835 2.256283 2.027464
v 4.602209 1.618828 1.984561
v 3.478029 2.897261 1.349744
v 4.761544 2.375829 1.331748
v -1.553586 4.35733 1.335883
v 0.3752403 3.630049 2.069616
v -1.255428 3.675368 2.051443
v 0.3752403 3.630049 2.069616
v -1.553586 4.35733 1.335883
v 0.569716 4.42591 1.371162
v 1.391991 3.88075 1.362431
v 2.32968 3.012331 2.061684
v 1.141683 3.124537 2.055678
v 2.32968 3.012331 2.061684
v 1.391991 3.88075 1.362431
v 2.700605 3.756187 1.380967
v -2.041348 3.910074 1.316083
v -1.255428 3.675368 2.051443
v -1.709409 3.249509 2.029637
v -1.255428 3.675368 2.051443
v -2.041348 3.910074 1.316083
v -1.553586 4.35733 1.335883
v -1.810347 -4.398074 1.340715
v -3.676632 -3.064917 1.995974
v -1.721834 -3.588943 2.053877
v -3.676632 -3.064917 1.995974
v -1.810347 -4.398074 1.340715
v -4.095046 -3.787009 1.314834
v 4.602209 1.618828 1.984561
v 3.665562 -2.792712 2.025192
v 2.69807 -1.994802 2.001729
v 3.020835 2.256283 2.027464
v 0.9772552 -2.664852 2.044154
v 1.141683 3.124537 2.055678
v 4.602209 1.618828 1.984561
v 6.808693 0.05541031 1.847594
v 3.665562 -2.792712 2.025192
v 6.808693 0.05541031 1.847594
v 4.602209 1.618828 1.984561
v 5.621321 1.662609 1.970607
v -1.721834 -3.588943 2.053877
v 0.9772552 -2.664852 2.044154
v 0.7337851 -3.315432 2.070017
v 0.9772552 -2.664852 2.044154
v -1.721834 -3.588943 2.053877
v 1.141683 3.124537 2.055678
v 3.020835 2.256283 2.027464
v 1.141683 3.124537 2.055678
v 2.32968 3.012331 2.061684
v -1.255428 3.675368 2.051443
v -1.721834 -3.588943 2.053877
v -3.676632 -3.064917 1.995974
v -4.903863 -0.6808474 1.881354
v -1.709409 3.249509 2.029637
v 1.141683 3.124537 2.055678
v -1.255428 3.675368 2.051443
v 0.3752403 3.630049 2.069616
v -1.255428 3.675368 2.051443
v 1.141683 3.124537 2.055678
v -1.721834 -3.588943 2.053877
v -4.903863 -0.6808474 1.881354
v -3.676632 -3.064917 1.995974
v -5.235808 -1.69664 1.877561
v -3.676632 -3.064917 1.995974
v -1.709409 3.249509 2.029637
v -1.255428 3.675368 2.051443
v -3.601106 2.925803 2.003493
v -4.903863 -0.6808474 1.881354
v -5.550163 0.586879 1.871904
v -4.903863 -0.6808474 1.881354
v -3.601106 2.925803 2.003493
v -1.709409 3.249509 2.029637
v -3.601106 2.925803 2.003493
v -6.145762 0.6678348 1.84846
v -6.175473 1.341343 1.885147
v -6.145762 0.6678348 1.84846
v -3.601106 2.925803 2.003493
v -5.550163 0.586879 1.871904
v 2.988737 -0.9541734 3.558371
v 4.927303 -1.195458 3.47365
v 4.273018 -1.765046 3.533748
v 4.927303 -1.195458 3.47365
v 2.988737 -0.9541734 3.558371
v 5.275127 0.2154022 3.436961
v -2.726503 2.226574 3.111868
v -1.627334 2.100532 3.639845
v -2.490649 1.783753 3.623822
v -1.627334 2.100532 3.639845
v -2.726503 2.226574 3.111868
v -1.736829 2.531919 3.136091
v -4.258599 1.670022 3.040776
v -2.490649 1.783753 3.623822
v -3.781435 1.271404 3.570411
v -2.490649 1.783753 3.623822
v -4.258599 1.670022 3.040776
v -2.726503 2.226574 3.111868
v -2.762824 -2.637128 3.153881
v -3.249269 -1.241545 3.622844
v -2.524919 -2.152813 3.694746
v -3.249269 -1.241545 3.622844
v -2.762824 -2.637128 3.153881
v -3.835067 -1.467505 3.049565
v 2.862062 -1.444477 3.07532
v 1.875461 -0.5585179 3.591151
v 2.988737 -0.9541734 3.558371
v 1.875461 -0.5585179 3.591151
v 2.862062 -1.444477 3.07532
v 1.842499 -1.120212 3.100537
v 4.318974 1.081609 3.011747
v 5.275127 0.2154022 3.436961
v 4.085329 0.5904658 3.488198
v 5.275127 0.2154022 3.436961
v 4.318974 1.081609 3.011747
v 5.852761 0.336517 2.925531
v -3.835067 -1.467505 3.049565
v -2.919595 -0.4388382 3.613437
v -3.249269 -1.241545 3.622844
v -2.919595 -0.4388382 3.613437
v -3.835067 -1.467505 3.049565
v -3.472837 -0.5373315 3.051367
v 1.842499 -1.120212 3.100537
v 0.8233239 -1.077236 3.643887
v 1.875461 -0.5585179 3.591151
v 0.8233239 -1.077236 3.643887
v 1.842499 -1.120212 3.100537
v 1.200466 -1.435827 3.127697
v 0.2291433 -2.617825 3.188529
v -0.9632668 -2.359018 3.726503
v -0.08700188 -2.196544 3.711948
v -0.9632668 -2.359018 3.726503
v 0.2291433 -2.617825 3.188529
v -0.9861143 -2.878274 3.200276
v -3.472837 -0.5373315 3.051367
v -3.322778 0.5950937 3.583382
v -2.919595 -0.4388382 3.613437
v -3.322778 0.5950937 3.583382
v -3.472837 -0.5373315 3.051367
v -3.648597 0.1871686 3.038026
v -4.378532 0.642558 2.999553
v -3.781435 1.271404 3.570411
v -3.885536 0.8564672 3.556607
v -3.781435 1.271404 3.570411
v -4.378532 0.642558 2.999553
v -4.258599 1.670022 3.040776
v -3.648597 0.1871686 3.038026
v -3.885536 0.8564672 3.556607
v -3.322778 0.5950937 3.583382
v -3.885536 0.8564672 3.556607
v -3.648597 0.1871686 3.038026
v -4.378532 0.642558 2.999553
v 2.248857 2.168178 3.102163
v 2.789413 1.05133 3.539411
v 1.990718 1.749045 3.575721
v 2.789413 1.05133 3.539411
v 2.248857 2.168178 3.102163
v 2.852975 1.526857 3.06729
v 2.852975 1.526857 3.06729
v 4.085329 0.5904658 3.488198
v 2.789413 1.05133 3.539411
v 4.085329 0.5904658 3.488198
v 2.852975 1.526857 3.06729
v 4.318974 1.081609 3.011747
v -0.9990005 2.846005 3.15303
v -0.01927247 2.45252 3.640304
v -0.9187261 2.408833 3.648573
v -0.01927247 2.45252 3.640304
v -0.9990005 2.846005 3.15303
v 0.05885142 2.94487 3.156976
v 0.6070421 2.649022 3.140079
v 1.247643 2.167136 3.606209
v 0.4927638 2.174581 3.621329
v 1.247643 2.167136 3.606209
v 0.6070421 2.649022 3.140079
v 1.438892 2.641031 3.133259
v 4.504387 -2.265428 3.044841
v 2.988737 -0.9541734 3.558371
v 4.273018 -1.765046 3.533748
v 2.988737 -0.9541734 3.558371
v 4.504387 -2.265428 3.044841
v 2.862062 -1.444477 3.07532
v -0.9861143 -2.878274 3.200276
v -2.524919 -2.152813 3.694746
v -0.9632668 -2.359018 3.726503
v -2.524919 -2.152813 3.694746
v -0.9861143 -2.878274 3.200276
v -2.762824 -2.637128 3.153881
v -0.9632668 -2.359018 3.726503
v 0.8233239 -1.077236 3.643887
v -0.08700188 -2.196544 3.711948
v 0.8233239 -1.077236 3.643887
v -0.9632668 -2.359018 3.726503
v 0.4927638 2.174581 3.621329
v 1.990718 1.749045 3.575721
v 0.4927638 2.174581 3.621329
v 1.247643 2.167136 3.606209
v -0.9187261 2.408833 3.648573
v -0.9632668 -2.359018 3.726503
v -2.524919 -2.152813 3.694746
v 0.4927638 2.174581 3.621329
v -0.9187261 2.408833 3.648573
v -0.01927247 2.45252 3.640304
v -0.9187261 2.408833 3.648573
v 0.4927638 2.174581 3.621329
v -0.9632668 -2.359018 3.726503
v -2.919595 -0.4388382 3.613437
v -2.524919 -2.152813 3.694746
v -3.249269 -1.241545 3.622844
v -2.524919 -2.152813 3.694746
v -2.919595 -0.4388382 3.613437
v -1.627334 2.100532 3.639845
v -2.524919 -2.152813 3.694746
v -1.627334 2.100532 3.639845
v -0.9187261 2.408833 3.648573
v -2.490649 1.783753 3.623822
v -2.919595 -0.4388382 3.613437
v -3.322778 0.5950937 3.583382
v -2.919595 -0.4388382 3.613437
v -2.490649 1.783753 3.623822
v -1.627334 2.100532 3.639845
v -2.490649 1.783753 3.623822
v -3.885536 0.8564672 3.556607
v -3.781435 1.271404 3.570411
v -3.885536 0.8564672 3.556607
v -2.490649 1.783753 3.623822
v -3.322778 0.5950937 3.583382
v 4.759295 2.393444 3.211343E-16
v 6.030297 2.431465 1.334739
v 4.761544 2.375829 1.331748
v 6.027656 2.450162 3.287443E-16
v 1.356402 3.947885 5.296973E-16
v 2.700605 3.756187 1.380967
v 1.391991 3.88075 1.362431
v 2.681238 3.818192 5.122961E-16
v -1.948851 -4.5141 -6.056678E-16
v -4.095046 -3.787009 1.314834
v -1.810347 -4.398074 1.340715
v -4.341542 -3.890433 -5.219888E-16
v 5.29036 -3.835663 -5.146402E-16
v 3.379788 -3.550972 1.370015
v 5.309934 -3.712569 1.392305
v 3.36327 -3.663091 -4.914858E-16
v -4.341542 -3.890433 -5.219888E-16
v -6.215342 -1.962351 1.209017
v -4.095046 -3.787009 1.314834
v -6.545239 -2.030144 -2.723894E-16
v 7.664266 0.154541 2.073514E-17
v 6.840152 -2.588091 1.264772
v 7.665709 0.1829349 1.190308
v 6.820558 -2.677266 -3.592154E-16
v 3.36327 -3.663091 -4.914858E-16
v 2.563112 -2.877886 1.327934
v 3.379788 -3.550972 1.370015
v 2.547072 -2.969806 -3.984661E-16
v 1.492747 -3.384923 -4.541634E-16
v 1.200387 -4.013343 1.371662
v 1.519778 -3.286086 1.342203
v 1.162397 -4.129623 -5.540816E-16
v -6.545239 -2.030144 -2.723894E-16
v -5.818846 -0.7554337 1.199842
v -6.215342 -1.962351 1.209017
v -6.111477 -0.7985739 -1.071466E-16
v -6.504947 -0.04194011 -5.627206E-18
v -6.854489 0.1266448 1.188133
v -6.170844 -0.01196838 1.198651
v -7.254385 0.09803808 1.315401E-17
v -6.111477 -0.7985739 -1.071466E-16
v -6.170844 -0.01196838 1.198651
v -5.818846 -0.7554337 1.199842
v -6.504947 -0.04194011 -5.627206E-18
v 2.547072 -2.969806 -3.984661E-16
v 1.519778 -3.286086 1.342203
v 2.563112 -2.877886 1.327934
v 1.492747 -3.384923 -4.541634E-16
v 2.681238 3.818192 5.122961E-16
v 3.478029 2.897261 1.349744
v 2.700605 3.756187 1.380967
v 3.469428 2.930437 3.931839E-16
v 3.469428 2.930437 3.931839E-16
v 4.761544 2.375829 1.331748
v 3.478029 2.897261 1.349744
v 4.759295 2.393444 3.211343E-16
v -2.18576 3.979219 5.339015E-16
v -1.553586 4.35733 1.335883
v -2.041348 3.910074 1.316083
v -1.678719 4.442871 5.961108E-16
v -1.678719 4.442871 5.961108E-16
v 0.569716 4.42591 1.371162
v -1.553586 4.35733 1.335883
v 0.5145205 4.514101 6.056679E-16
v 0.5145205 4.514101 6.056679E-16
v 1.391991 3.88075 1.362431
v 0.569716 4.42591 1.371162
v 1.356402 3.947885 5.296973E-16
v -4.194438 3.737948 5.015296E-16
v -2.041348 3.910074 1.316083
v -3.933565 3.677025 1.31277
v -2.18576 3.979219 5.339015E-16
v 1.162397 -4.129623 -5.540816E-16
v -1.810347 -4.398074 1.340715
v 1.200387 -4.013343 1.371662
v -1.948851 -4.5141 -6.056678E-16
v 2.700605 3.756187 1.380967
v 3.020835 2.256283 2.027464
v 2.32968 3.012331 2.061684
v 3.478029 2.897261 1.349744
v 6.840152 -2.588091 1.264772
v 5.057958 -2.91188 2.005746
v 6.156199 -2.111066 1.903582
v 5.309934 -3.712569 1.392305
v 7.665709 0.1829349 1.190308
v 6.156199 -2.111066 1.903582
v 6.808693 0.05541031 1.847594
v 6.840152 -2.588091 1.264772
v -5.818846 -0.7554337 1.199842
v -5.550163 0.586879 1.871904
v -4.903863 -0.6808474 1.881354
v -6.170844 -0.01196838 1.198651
v -6.170844 -0.01196838 1.198651
v -6.145762 0.6678348 1.84846
v -5.550163 0.586879 1.871904
v -6.854489 0.1266448 1.188133
v 1.519778 -3.286086 1.342203
v 0.7337851 -3.315432 2.070017
v 0.9772552 -2.664852 2.044154
v 1.200387 -4.013343 1.371662
v 4.761544 2.375829 1.331748
v 5.621321 1.662609 1.970607
v 4.602209 1.618828 1.984561
v 6.030297 2.431465 1.334739
v 0.569716 4.42591 1.371162
v 1.141683 3.124537 2.055678
v 0.3752403 3.630049 2.069616
v 1.391991 3.88075 1.362431
v 5.309934 -3.712569 1.392305
v 3.665562 -2.792712 2.025192
v 5.057958 -2.91188 2.005746
v 3.379788 -3.550972 1.370015
v 2.886441 1.562051 1.829556
v 4.318974 1.081609 3.011747
v 2.852975 1.526857 3.06729
v 4.387318 1.101503 1.797947
v 0.579447 2.731197 1.858765
v 1.438892 2.641031 3.133259
v 0.6070421 2.649022 3.140079
v 1.437532 2.723164 1.866857
v -2.895443 2.289204 1.812996
v -4.258599 1.670022 3.040776
v -4.52505 1.710685 1.777505
v -2.726503 2.226574 3.111868
v -1.736829 2.531919 3.136091
v -2.726503 2.226574 3.111868
v -1.855699 2.608159 1.830727
v -4.656626 0.6456746 1.743983
v -4.258599 1.670022 3.040776
v -4.378532 0.642558 2.999553
v -4.52505 1.710685 1.777505
v -1.076324 -2.992931 1.864342
v -2.762824 -2.637128 3.153881
v -0.9861143 -2.878274 3.200276
v -2.940944 -2.74291 1.826357
v 4.582381 -2.352338 1.808486
v 2.862062 -1.444477 3.07532
v 4.504387 -2.265428 3.044841
v 2.893498 -1.508825 1.811551
v -2.940944 -2.74291 1.826357
v -3.835067 -1.467505 3.049565
v -2.762824 -2.637128 3.153881
v -4.080203 -1.533348 1.761586
v 5.955954 0.3328182 1.731585
v 5.425344 -1.466443 2.952783
v 5.852761 0.336517 2.925531
v 5.520916 -1.526936 1.740639
v 4.387318 1.101503 1.797947
v 5.852761 0.336517 2.925531
v 4.318974 1.081609 3.011747
v 5.955954 0.3328182 1.731585
v 2.893498 -1.508825 1.811551
v 1.842499 -1.120212 3.100537
v 2.862062 -1.444477 3.07532
v 1.845885 -1.175866 1.820385
v 1.185655 -1.502021 1.832828
v 0.2291433 -2.617825 3.188529
v 1.200466 -1.435827 3.127697
v 0.1852693 -2.722826 1.867193
v -4.080203 -1.533348 1.761586
v -3.472837 -0.5373315 3.051367
v -3.835067 -1.467505 3.049565
v -3.692059 -0.5744581 1.763973
v -3.877167 0.1737566 1.759633
v -4.378532 0.642558 2.999553
v -3.648597 0.1871686 3.038026
v -4.656626 0.6456746 1.743983
v -3.692059 -0.5744581 1.763973
v -3.648597 0.1871686 3.038026
v -3.472837 -0.5373315 3.051367
v -3.877167 0.1737566 1.759633
v 1.845885 -1.175866 1.820385
v 1.200466 -1.435827 3.127697
v 1.842499 -1.120212 3.100537
v 1.185655 -1.502021 1.832828
v 1.437532 2.723164 1.866857
v 2.248857 2.168178 3.102163
v 1.438892 2.641031 3.133259
v 2.268911 2.229316 1.853532
v 2.268911 2.229316 1.853532
v 2.852975 1.526857 3.06729
v 2.248857 2.168178 3.102163
v 2.886441 1.562051 1.829556
v -1.855699 2.608159 1.830727
v -0.9990005 2.846005 3.15303
v -1.736829 2.531919 3.136091
v -1.08527 2.937353 1.847496
v -1.08527 2.937353 1.847496
v 0.05885142 2.94487 3.156976
v -0.9990005 2.846005 3.15303
v 0.01328336 3.041355 1.863065
v 0.01328336 3.041355 1.863065
v 0.6070421 2.649022 3.140079
v 0.05885142 2.94487 3.156976
v 0.579447 2.731197 1.858765
v 5.520916 -1.526936 1.740639
v 4.504387 -2.265428 3.044841
v 5.425344 -1.466443 2.952783
v 4.582381 -2.352338 1.808486
v 0.1852693 -2.722826 1.867193
v -0.9861143 -2.878274 3.200276
v 0.2291433 -2.617825 3.188529
v -1.076324 -2.992931 1.864342
v 1.438892 2.641031 3.133259
v 1.990718 1.749045 3.575721
v 1.247643 2.167136 3.606209
v 2.248857 2.168178 3.102163
v 5.425344 -1.466443 2.952783
v 4.273018 -1.765046 3.533748
v 4.927303 -1.195458 3.47365
v 4.504387 -2.265428 3.044841
v 5.852761 0.336517 2.925531
v 4.927303 -1.195458 3.47365
v 5.275127 0.2154022 3.436961
v 5.425344 -1.466443 2.952783
v 1.200466 -1.435827 3.127697
v -0.08700188 -2.196544 3.711948
v 0.8233239 -1.077236 3.643887
v 0.2291433 -2.617825 3.188529
v 0.05885142 2.94487 3.156976
v 0.4927638 2.174581 3.621329
v -0.01927247 2.45252 3.640304
v 0.6070421 2.649022 3.140079
v -1.736829 2.531919 3.136091
v -0.9187261 2.408833 3.648573
v -1.627334 2.100532 3.639845
v -0.9990005 2.846005 3.15303
v 2.988737 -0.9541734 3.558371
v 4.085329 0.5904658 3.488198
v 5.275127 0.2154022 3.436961
v 2.789413 1.05133 3.539411
v 1.875461 -0.5585179 3.591151
v 1.990718 1.749045 3.575721
v 0.8233239 -1.077236 3.643887
v 0.4927638 2.174581 3.621329

vn 0.8666992 0.1373291 -0.4797363
vn 0.8666992 0.1373291 -0.4797363
vn 0.8666992 0.1373291 -0.4797363
vn 0.8598633 0.09735107 -0.5014648
vn 0.8598633 0.09735107 -0.5014648
vn 0.8598633 0.09735107 -0.5014648
vn -0.04876709 0.1953125 -0.9794922
vn -0.04876709 0.1953125 -0.9794922
vn -0.04876709 0.1953125 -0.9794922
vn -0.0824585 0.2249756 -0.9707031
vn -0.0824585 0.2249756 -0.9707031
vn -0.0824585 0.2249756 -0.9707031
vn 0.1262207 0.9907227 0.05258179
vn 0.1262207 0.9907227 0.05258179
vn 0.1262207 0.9907227 0.05258179
vn 0.007400513 0.9970703 0.078125
vn 0.007400513 0.9970703 0.078125
vn 0.007400513 0.9970703 0.078125
vn 0.4018555 0.004180908 0.9155273
vn 0.4018555 0.004180908 0.9155273
vn 0.4018555 0.004180908 0.9155273
vn 0.3942871 -0.00933075 0.9189453
vn 0.3942871 -0.00933075 0.9189453
vn 0.3942871 -0.00933075 0.9189453
vn -0.8120117 0.03182983 0.5825195
vn -0.8120117 0.03182983 0.5825195
vn -0.8120117 0.03182983 0.5825195
vn -0.8051758 0.04144287 0.5913086
vn -0.8051758 0.04144287 0.5913086
vn -0.8051758 0.04144287 0.5913086
vn 0.7617188 0.6425781 -0.08349609
vn 0.7617188 0.6425781 -0.08349609
vn 0.7617188 0.6425781 -0.08349609
vn 0.8149414 0.5791016 -0.02835083
vn 0.8149414 0.5791016 -0.02835083
vn 0.8149414 0.5791016 -0.02835083
vn 0.6030273 0.6875 -0.4042969
vn 0.6030273 0.6875 -0.4042969
vn 0.6030273 0.6875 -0.4042969
vn 0.668457 0.6254883 -0.4020996
vn 0.668457 0.6254883 -0.4020996
vn 0.668457 0.6254883 -0.4020996
vn -0.4211426 0.609375 -0.671875
vn -0.4211426 0.609375 -0.671875
vn -0.4211426 0.609375 -0.671875
vn -0.4228516 0.6464844 -0.6347656
vn -0.4228516 0.6464844 -0.6347656
vn -0.4228516 0.6464844 -0.6347656
vn -0.4711914 0.6083984 -0.6386719
vn -0.4711914 0.6083984 -0.6386719
vn -0.4711914 0.6083984 -0.6386719
vn -0.4655762 0.5883789 -0.6611328
vn -0.4655762 0.5883789 -0.6611328
vn -0.4655762 0.5883789 -0.6611328
vn 0.2785645 0.5952148 0.7539063
vn 0.2785645 0.5952148 0.7539063
vn 0.2785645 0.5952148 0.7539063
vn 0.279541 0.6000977 0.7495117
vn 0.279541 0.6000977 0.7495117
vn 0.279541 0.6000977 0.7495117
vn 0.2895508 0.6079102 -0.7397461
vn 0.2895508 0.6079102 -0.7397461
vn 0.2895508 0.6079102 -0.7397461
vn 0.3017578 0.597168 -0.7431641
vn 0.3017578 0.597168 -0.7431641
vn 0.3017578 0.597168 -0.7431641
vn -0.7324219 0.6225586 0.2756348
vn -0.7324219 0.6225586 0.2756348
vn -0.7324219 0.6225586 0.2756348
vn -0.7402344 0.6166992 0.2685547
vn -0.7402344 0.6166992 0.2685547
vn -0.7402344 0.6166992 0.2685547
vn -0.7905273 0.6123047 0.007850647
vn -0.7905273 0.6123047 0.007850647
vn -0.7905273 0.6123047 0.007850647
vn -0.7768555 0.6293945 0.01893616
vn -0.7768555 0.6293945 0.01893616
vn -0.7768555 0.6293945 0.01893616
vn 0.02604675 0.5644531 -0.824707
vn 0.02604675 0.5644531 -0.824707
vn 0.02604675 0.5644531 -0.824707
vn -0.07073975 0.6381836 -0.7666016
vn -0.07073975 0.6381836 -0.7666016
vn -0.07073975 0.6381836 -0.7666016
vn 0.6396484 0.6235352 0.449707
vn 0.6396484 0.6235352 0.449707
vn 0.6396484 0.6235352 0.449707
vn 0.6386719 0.6328125 0.4377441
vn 0.6386719 0.6328125 0.4377441
vn 0.6386719 0.6328125 0.4377441
vn 0.8149414 0.5683594 0.1144409
vn 0.8149414 0.5683594 0.1144409
vn 0.8149414 0.5683594 0.1144409
vn 0.7719727 0.6342773 0.04278564
vn 0.7719727 0.6342773 0.04278564
vn 0.7719727 0.6342773 0.04278564
vn 0.7548828 0.6318359 0.1748047
vn 0.7548828 0.6318359 0.1748047
vn 0.7548828 0.6318359 0.1748047
vn 0.753418 0.6367188 0.1650391
vn 0.753418 0.6367188 0.1650391
vn 0.753418 0.6367188 0.1650391
vn 0.6025391 0.5380859 -0.5893555
vn 0.6025391 0.5380859 -0.5893555
vn 0.6025391 0.5380859 -0.5893555
vn 0.6132813 0.5361328 -0.5805664
vn 0.6132813 0.5361328 -0.5805664
vn 0.6132813 0.5361328 -0.5805664
vn -0.6933594 0.6254883 -0.357666
vn -0.6933594 0.6254883 -0.357666
vn -0.6933594 0.6254883 -0.357666
vn -0.6850586 0.6479492 -0.333252
vn -0.6850586 0.6479492 -0.333252
vn -0.6850586 0.6479492 -0.333252
vn 0.01942444 0.9995117 -0.02182007
vn 0.01942444 0.9995117 -0.02182007
vn 0.01942444 0.9995117 -0.02182007
vn -0.01663208 0.9990234 0.04537964
vn -0.01663208 0.9990234 0.04537964
vn -0.006015778 0.9995117 0.02296448
vn -0.01651001 0.9951172 0.09906006
vn -0.01651001 0.9951172 0.09906006
vn -0.01651001 0.9951172 0.09906006
vn -0.09039307 0.9956055 0.01716614
vn -0.09039307 0.9956055 0.01716614
vn -0.09039307 0.9956055 0.01716614
vn 0.06204224 0.9980469 -0.01213837
vn 0.06204224 0.9980469 -0.01213837
vn 0.06204224 0.9980469 -0.01213837
vn -0.003736496 1 0.006923676
vn -0.003736496 1 0.006923676
vn -0.003736496 1 0.006923676
vn -0.07196045 0.9970703 -0.02589417
vn -0.07196045 0.9970703 -0.02589417
vn -0.07196045 0.9970703 -0.02589417
vn 0.008773804 0.9990234 -0.04833984
vn 0.008773804 0.9990234 -0.04833984
vn 0.008773804 0.9990234 -0.04833984
vn 0.03283691 0.9936523 -0.1054688
vn 0.03283691 0.9936523 -0.1054688
vn -0.06048584 0.9975586 -0.02832031
vn -0.06048584 0.9975586 -0.02832031
vn -0.06048584 0.9975586 -0.02832031
vn 0.0009331703 1 -0.002723694
vn 0.0009331703 1 -0.002723694
vn 0.0009331703 1 -0.002723694
vn 0.03436279 0.9941406 -0.1001587
vn 0.03436279 0.9941406 -0.1001587
vn 0.03436279 0.9941406 -0.1001587
vn 0.0304718 0.9946289 -0.09936523
vn 0.0304718 0.9946289 -0.09936523
vn 0.0304718 0.9946289 -0.09936523
vn -0.013237 0.996582 -0.08209229
vn -0.013237 0.996582 -0.08209229
vn -0.013237 0.996582 -0.08209229
vn -0.0401001 0.9990234 -0.01931763
vn -0.0401001 0.9990234 -0.01931763
vn -0.0401001 0.9990234 -0.01931763
vn -0.07214355 0.9970703 -0.02914429
vn -0.07214355 0.9970703 -0.02914429
vn -0.07214355 0.9970703 -0.02914429
vn -0.02015686 0.9970703 -0.07409668
vn -0.02015686 0.9970703 -0.07409668
vn -0.02015686 0.9970703 -0.07409668
vn 0.05554199 0.9941406 0.09082031
vn 0.05554199 0.9941406 0.09082031
vn 0.05554199 0.9941406 0.09082031
vn 0.01097107 0.9970703 0.07861328
vn 0.01097107 0.9970703 0.07861328
vn 0.01097107 0.9970703 0.07861328
vn 0.7802734 0.5664063 -0.2646484
vn 0.7802734 0.5664063 -0.2646484
vn 0.7802734 0.5664063 -0.2646484
vn 0.8164063 0.5317383 -0.2260742
vn 0.8164063 0.5317383 -0.2260742
vn 0.8164063 0.5317383 -0.2260742
vn 0.7460938 0.59375 -0.3012695
vn 0.7460938 0.59375 -0.3012695
vn 0.7460938 0.59375 -0.3012695
vn 0.7734375 0.565918 -0.284668
vn 0.7734375 0.565918 -0.284668
vn 0.7734375 0.565918 -0.284668
vn -0.34375 0.4829102 -0.8051758
vn -0.34375 0.4829102 -0.8051758
vn -0.34375 0.4829102 -0.8051758
vn -0.3662109 0.5532227 -0.7485352
vn -0.3662109 0.5532227 -0.7485352
vn -0.3662109 0.5532227 -0.7485352
vn -0.7041016 0.5981445 -0.3828125
vn -0.7041016 0.5981445 -0.3828125
vn -0.7041016 0.5981445 -0.3828125
vn -0.6987305 0.625 -0.3474121
vn -0.6987305 0.625 -0.3474121
vn -0.6987305 0.625 -0.3474121
vn 0.6660156 0.6274414 0.4033203
vn 0.6660156 0.6274414 0.4033203
vn 0.6660156 0.6274414 0.4033203
vn 0.6806641 0.4555664 0.5737305
vn 0.6806641 0.4555664 0.5737305
vn 0.6806641 0.4555664 0.5737305
vn 0.3894043 0.4321289 -0.8134766
vn 0.3894043 0.4321289 -0.8134766
vn 0.3894043 0.4321289 -0.8134766
vn 0.3640137 0.4592285 -0.8100586
vn 0.3640137 0.4592285 -0.8100586
vn 0.3640137 0.4592285 -0.8100586
vn -0.737793 0.5566406 0.3815918
vn -0.737793 0.5566406 0.3815918
vn -0.737793 0.5566406 0.3815918
vn -0.7441406 0.5517578 0.3762207
vn -0.7441406 0.5517578 0.3762207
vn -0.7441406 0.5517578 0.3762207
vn -0.8295898 0.5488281 0.104126
vn -0.8295898 0.5488281 0.104126
vn -0.8295898 0.5488281 0.104126
vn -0.8144531 0.5668945 0.1242676
vn -0.8144531 0.5668945 0.1242676
vn -0.8144531 0.5668945 0.1242676
vn -0.1411133 0.5112305 -0.8476563
vn -0.1411133 0.5112305 -0.8476563
vn -0.1411133 0.5112305 -0.8476563
vn -0.05895996 0.407959 -0.9111328
vn -0.05895996 0.407959 -0.9111328
vn -0.05895996 0.407959 -0.9111328
vn 0.2661133 0.4213867 -0.8666992
vn 0.2661133 0.4213867 -0.8666992
vn 0.2661133 0.4213867 -0.8666992
vn 0.1571045 0.4929199 -0.855957
vn 0.1571045 0.4929199 -0.855957
vn 0.1571045 0.4929199 -0.855957
vn -0.6494141 0.5454102 -0.5297852
vn -0.6494141 0.5454102 -0.5297852
vn -0.6494141 0.5454102 -0.5297852
vn -0.6015625 0.4824219 -0.6367188
vn -0.6015625 0.4824219 -0.6367188
vn -0.6015625 0.4824219 -0.6367188
vn 0.4658203 0.5546875 0.6894531
vn 0.4658203 0.5546875 0.6894531
vn 0.4658203 0.5546875 0.6894531
vn 0.4331055 0.442627 0.7851563
vn 0.4331055 0.442627 0.7851563
vn 0.4331055 0.442627 0.7851563
vn 0.6889648 0.5708008 0.4462891
vn 0.6889648 0.5708008 0.4462891
vn 0.6889648 0.5708008 0.4462891
vn 0.6733398 0.6274414 0.390625
vn 0.6733398 0.6274414 0.390625
vn 0.6733398 0.6274414 0.390625
vn 0.8369141 0.5439453 0.05734253
vn 0.8369141 0.5439453 0.05734253
vn 0.8369141 0.5439453 0.05734253
vn 0.8085938 0.5883789 -0.0009889603
vn 0.8085938 0.5883789 -0.0009889603
vn 0.8085938 0.5883789 -0.0009889603
vn 0.7998047 0.5869141 0.125
vn 0.7998047 0.5869141 0.125
vn 0.7998047 0.5869141 0.125
vn 0.796875 0.5932617 0.1126099
vn 0.796875 0.5932617 0.1126099
vn 0.796875 0.5932617 0.1126099
vn -0.6611328 0.3908691 -0.640625
vn -0.6611328 0.3908691 -0.640625
vn -0.6611328 0.3908691 -0.640625
vn -0.6459961 0.5825195 -0.4931641
vn -0.6459961 0.5825195 -0.4931641
vn -0.6459961 0.5825195 -0.4931641
vn -0.7768555 0.5805664 -0.2437744
vn -0.7768555 0.5805664 -0.2437744
vn -0.7768555 0.5805664 -0.2437744
vn -0.7817383 0.5693359 -0.2543945
vn -0.7817383 0.5693359 -0.2543945
vn -0.7817383 0.5693359 -0.2543945
vn 0.07421875 0.9970703 0.01948547
vn 0.07421875 0.9970703 0.01948547
vn 0.07421875 0.9970703 0.01948547
vn 0.00705719 0.9975586 0.06616211
vn 0.00705719 0.9975586 0.06616211
vn 0.00705719 0.9975586 0.06616211
vn -0.05545044 0.9980469 0.02682495
vn -0.05545044 0.9980469 0.02682495
vn -0.05545044 0.9980469 0.02682495
vn 0.02606201 0.9995117 -0.02780151
vn 0.02606201 0.9995117 -0.02780151
vn 0.02606201 0.9995117 -0.02780151
vn -0.06622314 0.9975586 0.01164246
vn -0.06622314 0.9975586 0.01164246
vn -0.06622314 0.9975586 0.01164246
vn 0.01753235 0.9990234 0.03948975
vn 0.01753235 0.9990234 0.03948975
vn 0.01753235 0.9990234 0.03948975
vn 0.05783081 0.9946289 -0.08752441
vn 0.05783081 0.9946289 -0.08752441
vn 0.05783081 0.9946289 -0.08752441
vn 0.05508423 0.9907227 -0.1254883
vn 0.05508423 0.9907227 -0.1254883
vn 0.05508423 0.9907227 -0.1254883
vn 0.02713013 0.9990234 -0.03038025
vn 0.02713013 0.9990234 -0.03038025
vn 0.02713013 0.9990234 -0.03038025
vn 0.02027893 0.9951172 -0.09570313
vn 0.02027893 0.9951172 -0.09570313
vn 0.02027893 0.9951172 -0.09570313
vn 0.00202179 0.9995117 -0.03062439
vn 0.00202179 0.9995117 -0.03062439
vn 0.00202179 0.9995117 -0.03062439
vn -0.02825928 0.9980469 -0.05654907
vn -0.02825928 0.9980469 -0.05654907
vn -0.02825928 0.9980469 -0.05654907
vn 0.008781433 0.996582 -0.08013916
vn 0.008781433 0.996582 -0.08013916
vn 0.008781433 0.996582 -0.08013916
vn 0.9980469 0.00970459 0.06408691
vn 0.9980469 0.00970459 0.06408691
vn 0.9980469 0.00970459 0.06408691
vn 0.9980469 0.01027679 0.06304932
vn 0.972168 0.03393555 0.2321777
vn 0.972168 0.03393555 0.2321777
vn 0.972168 0.03393555 0.2321777
vn 0.9711914 0.03155518 0.2362061
vn -0.9023438 0.07897949 -0.423584
vn -0.9023438 0.07897949 -0.423584
vn -0.9023438 0.07897949 -0.423584
vn -0.9057617 0.08831787 -0.4150391
vn -0.9731445 0.06494141 -0.2203369
vn -0.9731445 0.06494141 -0.2203369
vn -0.9731445 0.06494141 -0.2203369
vn -0.972168 0.06008911 -0.2260742
vn -0.5844727 0.1195068 -0.8022461
vn -0.5844727 0.1195068 -0.8022461
vn -0.5844727 0.1195068 -0.8022461
vn -0.5961914 0.1433105 -0.7900391
vn -0.3474121 0.003385544 0.9375
vn -0.3474121 0.003385544 0.9375
vn -0.3474121 0.003385544 0.9375
vn -0.3476563 0.003170013 0.9375
vn -0.6088867 0.04681396 -0.7919922
vn -0.6088867 0.04681396 -0.7919922
vn -0.6088867 0.04681396 -0.7919922
vn -0.5991211 0.04000854 -0.7998047
vn -0.4436035 0.006778717 0.8964844
vn -0.4436035 0.006778717 0.8964844
vn -0.4436035 0.006778717 0.8964844
vn -0.4467773 0.005516052 0.8945313
vn 0.3666992 0.1437988 -0.9189453
vn 0.3666992 0.1437988 -0.9189453
vn 0.3666992 0.1437988 -0.9189453
vn 0.3825684 0.1303711 -0.9145508
vn -0.9326172 0.05789185 -0.3564453
vn -0.9326172 0.05789185 -0.3564453
vn -0.9326172 0.05789185 -0.3564453
vn -0.9394531 0.06176758 -0.3376465
vn -0.2424316 0.1425781 -0.9594727
vn -0.2424316 0.1425781 -0.9594727
vn -0.2424316 0.1425781 -0.9594727
vn -0.2731934 0.1569824 -0.9492188
vn -0.9443359 0.0423584 0.326416
vn -0.9443359 0.0423584 0.326416
vn -0.9443359 0.0423584 0.326416
vn -0.9438477 0.04312134 0.3278809
vn 0.4912109 0.01268005 0.8710938
vn 0.4912109 0.01268005 0.8710938
vn 0.4912109 0.01268005 0.8710938
vn 0.4836426 0.007419586 0.875
vn 0.8344727 0.01435089 0.5507813
vn 0.8344727 0.01435089 0.5507813
vn 0.8344727 0.01435089 0.5507813
vn 0.8291016 0.008132935 0.559082
vn 0.7412109 0.07391357 -0.6669922
vn 0.7412109 0.07391357 -0.6669922
vn 0.7412109 0.07391357 -0.6669922
vn 0.7446289 0.07226563 -0.6635742
vn 0.9956055 0.0489502 0.07684326
vn 0.9956055 0.0489502 0.07684326
vn 0.9956055 0.0489502 0.07684326
vn 0.9956055 0.04785156 0.07800293
vn 0.6933594 0.02124023 0.7207031
vn 0.6933594 0.02124023 0.7207031
vn 0.6933594 0.02124023 0.7207031
vn 0.6884766 0.01780701 0.7250977
vn 0.9980469 0.05114746 -0.0328064
vn 0.9980469 0.05114746 -0.0328064
vn 0.9980469 0.05114746 -0.0328064
vn 0.9985352 0.04742432 -0.0289917
vn -0.9975586 0.05853271 0.03720093
vn -0.9975586 0.05853271 0.03720093
vn -0.9975586 0.05853271 0.03720093
vn -0.9980469 0.05319214 0.03314209
vn 0.3774414 0.5830078 0.7197266
vn 0.3774414 0.5830078 0.7197266
vn 0.3774414 0.5830078 0.7197266
vn 0.378418 0.5844727 0.7177734
vn -0.5805664 0.6411133 0.5019531
vn -0.5805664 0.6411133 0.5019531
vn -0.5805664 0.6411133 0.5019531
vn -0.5869141 0.6367188 0.4997559
vn -0.2646484 0.5859375 0.7661133
vn -0.2646484 0.5859375 0.7661133
vn -0.2646484 0.5859375 0.7661133
vn -0.2602539 0.5913086 0.7631836
vn -0.2086182 0.6079102 -0.7661133
vn -0.2086182 0.6079102 -0.7661133
vn -0.2086182 0.6079102 -0.7661133
vn -0.1958008 0.5952148 -0.7792969
vn -0.7553711 0.6005859 -0.2619629
vn -0.7553711 0.6005859 -0.2619629
vn -0.7553711 0.6005859 -0.2619629
vn -0.7446289 0.5966797 -0.2995605
vn -0.3173828 0.5200195 0.7929688
vn -0.3173828 0.5200195 0.7929688
vn -0.3173828 0.5200195 0.7929688
vn -0.3564453 0.5141602 0.7802734
vn 0.762207 0.644043 0.0647583
vn 0.762207 0.644043 0.0647583
vn 0.762207 0.644043 0.0647583
vn 0.7568359 0.6518555 0.04602051
vn 0.5478516 0.5957031 0.5869141
vn 0.5478516 0.5957031 0.5869141
vn 0.5478516 0.5957031 0.5869141
vn 0.5493164 0.5991211 0.5825195
vn -0.7172852 0.6811523 -0.1467285
vn -0.7172852 0.6811523 -0.1467285
vn -0.7172852 0.6811523 -0.1467285
vn -0.7329102 0.65625 -0.1779785
vn 0.887207 0.02507019 0.4604492
vn 0.887207 0.02507019 0.4604492
vn 0.887207 0.02507019 0.4604492
vn 0.8862305 0.02301025 0.4628906
vn 0.9902344 0.04663086 0.130249
vn 0.9902344 0.04663086 0.130249
vn 0.9902344 0.04663086 0.130249
vn 0.9907227 0.04730225 0.12854
vn 0.9536133 0.07171631 -0.2922363
vn 0.9536133 0.07171631 -0.2922363
vn 0.9536133 0.07171631 -0.2922363
vn 0.9511719 0.0637207 -0.3024902
vn 0.9677734 0.06033325 -0.2452393
vn 0.9677734 0.06033325 -0.2452393
vn 0.9682617 0.05892944 -0.2426758
vn 0.2021484 0.1295166 -0.9707031
vn 0.2021484 0.1295166 -0.9707031
vn 0.2021484 0.1295166 -0.9707031
vn 0.2092285 0.1253662 -0.9697266
vn -0.956543 0.06835938 -0.2827148
vn -0.956543 0.06835938 -0.2827148
vn -0.956543 0.06835938 -0.2827148
vn -0.9575195 0.07037354 -0.2802734
vn -0.7832031 0.02412415 -0.621582
vn -0.7832031 0.02412415 -0.621582
vn -0.7832031 0.02412415 -0.621582
vn -0.7832031 0.02392578 -0.621582
vn -0.4863281 0.09790039 -0.8681641
vn -0.4863281 0.09790039 -0.8681641
vn -0.4863281 0.09790039 -0.8681641
vn -0.4995117 0.1116943 -0.8588867
vn -0.3017578 0.05056763 0.9521484
vn -0.3017578 0.05056763 0.9521484
vn -0.3017578 0.05056763 0.9521484
vn -0.3000488 0.05252075 0.9526367
vn 0.7890625 0.0274353 0.6137695
vn 0.7890625 0.0274353 0.6137695
vn 0.7890625 0.0274353 0.6137695
vn 0.7871094 0.02459717 0.6162109
vn -0.8813477 0.0292511 -0.4716797
vn -0.8813477 0.0292511 -0.4716797
vn -0.8813477 0.0292511 -0.4716797
vn -0.8808594 0.02897644 -0.472168
vn -0.6474609 0.01502228 0.7617188
vn -0.6474609 0.01502228 0.7617188
vn -0.6474609 0.01502228 0.7617188
vn -0.6469727 0.01570129 0.7626953
vn 0.4089355 0.09570313 -0.9077148
vn 0.4089355 0.09570313 -0.9077148
vn 0.4089355 0.09570313 -0.9077148
vn 0.4194336 0.08880615 -0.9033203
vn -0.7094727 0.07080078 -0.7011719
vn -0.7094727 0.07080078 -0.7011719
vn -0.7094727 0.07080078 -0.7011719
vn -0.7211914 0.07696533 -0.6884766
vn -0.07269287 0.1022949 -0.9921875
vn -0.07269287 0.1022949 -0.9921875
vn -0.07269287 0.1022949 -0.9921875
vn -0.07806396 0.1046143 -0.9912109
vn -0.9091797 0.02792358 0.4160156
vn -0.9091797 0.02792358 0.4160156
vn -0.9091797 0.02792358 0.4160156
vn -0.9082031 0.02832031 0.4169922
vn 0.734375 0.03796387 0.6772461
vn 0.734375 0.03796387 0.6772461
vn 0.734375 0.03796387 0.6772461
vn 0.7299805 0.03442383 0.6826172
vn 0.5068359 0.02919006 0.8618164
vn 0.5068359 0.02919006 0.8618164
vn 0.5068359 0.02919006 0.8618164
vn 0.5 0.02523804 0.8657227
vn 0.9311523 0.06274414 -0.3591309
vn 0.9311523 0.06274414 -0.3591309
vn 0.9311523 0.06274414 -0.3591309
vn 0.9306641 0.06335449 -0.3603516
vn 0.9985352 0.05517578 0.002985001
vn 0.9985352 0.05517578 0.002985001
vn 0.9985352 0.05517578 0.002985001
vn 0.9985352 0.05645752 0.0005102158
vn 0.7592773 0.03369141 0.6499023
vn 0.7592773 0.03369141 0.6499023
vn 0.7592773 0.03369141 0.6499023
vn 0.7558594 0.03164673 0.6542969
vn -0.7578125 0.05889893 0.6494141
vn -0.7578125 0.05889893 0.6494141
vn -0.7578125 0.05889893 0.6494141
vn -0.7543945 0.06204224 0.6533203
vn -0.9887695 0.05099487 0.140625
vn -0.9887695 0.05099487 0.140625
vn -0.9887695 0.05099487 0.140625
vn -0.9887695 0.050354 0.1394043
vn 0.5820313 0.5883789 0.5610352
vn 0.5820313 0.5883789 0.5610352
vn 0.5820313 0.5883789 0.5610352
vn 0.5800781 0.5776367 0.5742188
vn -0.5908203 0.5615234 0.5791016
vn -0.5908203 0.5615234 0.5791016
vn -0.5908203 0.5615234 0.5791016
vn -0.5864258 0.5649414 0.5805664
vn -0.244873 0.5317383 0.8110352
vn -0.244873 0.5317383 0.8110352
vn -0.244873 0.5317383 0.8110352
vn -0.2469482 0.5292969 0.8120117
vn -0.5161133 0.5336914 0.6699219
vn -0.5161133 0.5336914 0.6699219
vn -0.5161133 0.5336914 0.6699219
vn -0.5292969 0.5219727 0.6689453
vn 0.6147461 0.550293 0.5649414
vn 0.6147461 0.550293 0.5649414
vn 0.6147461 0.550293 0.5649414
vn 0.6166992 0.5556641 0.5576172
vn 0.7910156 0.5205078 -0.3215332
vn 0.7910156 0.5205078 -0.3215332
vn 0.7910156 0.5205078 -0.3215332
vn 0.7905273 0.5209961 -0.3220215
vn 0.01064301 0.9980469 0.05908203
vn 0.00995636 0.9970703 0.07666016
vn 0.007125854 0.996582 0.08044434
vn 0.01064301 0.9980469 0.05908203
vn 0.01064301 0.9980469 0.05908203
vn -0.003736496 0.996582 0.08105469
vn -0.003736496 0.996582 0.08105469
vn 0.007369995 0.9985352 0.05761719

vt 0.08331299 0
vt 0.25 0.7207031
vt 0.25 0
vt 0.25 0.7207031
vt 0.08331299 0
vt 0.08331299 0.7207031
vt 0.270752 0
vt 0.25 0.7207031
vt 0.270752 0.7207031
vt 0.25 0.7207031
vt 0.270752 0
vt 0.25 0
vt 0.3081055 1
vt 0.6298828 1
vt 0.5498047 1
vt 0.6298828 1
vt 0.3081055 1
vt 0.7089844 1
vt 0.75 0
vt 0.7084961 0.7207031
vt 0.75 0.7207031
vt 0.7084961 0.7207031
vt 0.75 0
vt 0.7084961 0
vt 0.6665039 0
vt 0.625 0.7207031
vt 0.6665039 0.7207031
vt 0.625 0.7207031
vt 0.6665039 0
vt 0.625 0
vt 0.9819336 1.762695
vt 0.7250977 1
vt 0.5292969 1
vt 0.7250977 1
vt 0.9819336 1.762695
vt 1.454102 1.486328
vt 0.2341309 0.9521484
vt 0.5292969 1
vt 0.282959 1
vt 0.5292969 1
vt 0.2341309 0.9521484
vt 0.489502 1.009766
vt 0.03985596 0.8569336
vt 0.1690674 1
vt 0.1290283 1
vt 0.1690674 1
vt 0.03985596 0.8569336
vt -0.004165649 0.9345703
vt 0.6152344 1.504883
vt 0.4018555 1
vt 0.3081055 1
vt 0.4018555 1
vt 0.6152344 1.504883
vt 0.6157227 1.433594
vt 0.75 0.7207031
vt 0.7089844 1
vt 0.7001953 1
vt 0.7089844 1
vt 0.75 0.7207031
vt 0.7084961 0.7207031
vt 0.1887207 0.8232422
vt -0.01275635 1
vt 0.1690674 1
vt -0.01275635 1
vt 0.1887207 0.8232422
vt 0.1418457 0.8330078
vt 0.3103027 0.8950195
vt 0.3088379 1
vt 0.4018555 1
vt 0.3088379 1
vt 0.3103027 0.8950195
vt 0.2214355 0.9052734
vt 0.189209 0.9379883
vt 0.1605225 1
vt 0.2553711 1
vt 0.1605225 1
vt 0.189209 0.9379883
vt 0.07696533 0.9790039
vt 0.2338867 1.320313
vt 0.282959 1
vt 0.2282715 1
vt 0.282959 1
vt 0.2338867 1.320313
vt 0.4331055 1.299805
vt 0.8334961 0.7207031
vt 0.7202148 1
vt 0.5800781 1
vt 0.7202148 1
vt 0.8334961 0.7207031
vt 0.7915039 0.7207031
vt 0.8359375 1.148438
vt 0.8569336 1
vt 0.7480469 1
vt 0.8569336 1
vt 0.8359375 1.148438
vt 0.9946289 1.094727
vt 0.8823242 1.151367
vt 0.8134766 1
vt 0.7431641 1
vt 0.8134766 1
vt 0.8823242 1.151367
vt 0.9770508 1.134766
vt 0.9882813 2.072266
vt 0.7480469 1
vt 0.7250977 1
vt 0.7480469 1
vt 0.9882813 2.072266
vt 1.302734 2.027344
vt 0.1854248 1.083984
vt 0.1290283 1
vt 0.1605225 1
vt 0.1290283 1
vt 0.1854248 1.083984
vt 0.1945801 1.058594
vt 0.7202148 1
vt 0.3081055 1
vt 0.4018555 1
vt 0.5800781 1
vt 0.3088379 1
vt 0.7431641 1
vt 0.7202148 1
vt 0.7089844 1
vt 0.3081055 1
vt 0.7089844 1
vt 0.7202148 1
vt 0.7001953 1
vt 0.1605225 1
vt 0.3088379 1
vt 0.2553711 1
vt 0.3088379 1
vt 0.1605225 1
vt 0.7431641 1
vt 0.5800781 1
vt 0.7431641 1
vt 0.8134766 1
vt 0.7480469 1
vt 0.1605225 1
vt 0.1290283 1
vt -0.01275635 1
vt 0.7250977 1
vt 0.7431641 1
vt 0.7480469 1
vt 0.8569336 1
vt 0.7480469 1
vt 0.7431641 1
vt 0.1605225 1
vt -0.01275635 1
vt 0.1290283 1
vt 0.1690674 1
vt 0.1290283 1
vt 0.7250977 1
vt 0.7480469 1
vt 0.5292969 1
vt -0.01275635 1
vt 0.2836914 1
vt -0.01275635 1
vt 0.5292969 1
vt 0.7250977 1
vt 0.5292969 1
vt 0.2282715 1
vt 0.282959 1
vt 0.2282715 1
vt 0.5292969 1
vt 0.2836914 1
vt 0.3081055 1
vt 0.6298828 1
vt 0.5498047 1
vt 0.6298828 1
vt 0.3081055 1
vt 0.7089844 1
vt 0.9819336 1.762695
vt 0.7250977 1
vt 0.5292969 1
vt 0.7250977 1
vt 0.9819336 1.762695
vt 1.454102 1.486328
vt 0.2341309 0.9521484
vt 0.5292969 1
vt 0.282959 1
vt 0.5292969 1
vt 0.2341309 0.9521484
vt 0.489502 1.009766
vt 0.03985596 0.8569336
vt 0.1690674 1
vt 0.1290283 1
vt 0.1690674 1
vt 0.03985596 0.8569336
vt -0.004165649 0.9345703
vt 0.6152344 1.504883
vt 0.4018555 1
vt 0.3081055 1
vt 0.4018555 1
vt 0.6152344 1.504883
vt 0.6157227 1.433594
vt 0.75 0.7207031
vt 0.7089844 1
vt 0.7001953 1
vt 0.7089844 1
vt 0.75 0.7207031
vt 0.7084961 0.7207031
vt 0.1887207 0.8232422
vt -0.01275635 1
vt 0.1690674 1
vt -0.01275635 1
vt 0.1887207 0.8232422
vt 0.1418457 0.8330078
vt 0.3103027 0.8950195
vt 0.3088379 1
vt 0.4018555 1
vt 0.3088379 1
vt 0.3103027 0.8950195
vt 0.2214355 0.9052734
vt 0.189209 0.9379883
vt 0.1605225 1
vt 0.2553711 1
vt 0.1605225 1
vt 0.189209 0.9379883
vt 0.07696533 0.9790039
vt 0.1689453 1.164063
vt 0.2836914 1
vt -0.01275635 1
vt 0.2836914 1
vt 0.1689453 1.164063
vt 0.2265625 1.162109
vt 0.2338867 1.320313
vt 0.282959 1
vt 0.2282715 1
vt 0.282959 1
vt 0.2338867 1.320313
vt 0.4331055 1.299805
vt 0.1967773 0.8188477
vt 0.2282715 1
vt 0.2836914 1
vt 0.2282715 1
vt 0.1967773 0.8188477
vt 0.1538086 0.8237305
vt 0.8334961 0.7207031
vt 0.7202148 1
vt 0.5800781 1
vt 0.7202148 1
vt 0.8334961 0.7207031
vt 0.7915039 0.7207031
vt 0.7915039 0.7207031
vt 0.7001953 1
vt 0.7202148 1
vt 0.7001953 1
vt 0.7915039 0.7207031
vt 0.75 0.7207031
vt 0.8359375 1.148438
vt 0.8569336 1
vt 0.7480469 1
vt 0.8569336 1
vt 0.8359375 1.148438
vt 0.9946289 1.094727
vt 0.8823242 1.151367
vt 0.8134766 1
vt 0.7431641 1
vt 0.8134766 1
vt 0.8823242 1.151367
vt 0.9770508 1.134766
vt 0.625 0.7207031
vt 0.3081055 1
vt 0.5498047 1
vt 0.3081055 1
vt 0.625 0.7207031
vt 0.5834961 0.7207031
vt 0.1854248 1.083984
vt 0.1290283 1
vt 0.1605225 1
vt 0.1290283 1
vt 0.1854248 1.083984
vt 0.1945801 1.058594
vt 0.1605225 1
vt 0.3088379 1
vt 0.2553711 1
vt 0.3088379 1
vt 0.1605225 1
vt 0.7431641 1
vt 0.5800781 1
vt 0.7431641 1
vt 0.8134766 1
vt 0.7480469 1
vt 0.1605225 1
vt 0.1290283 1
vt 0.7431641 1
vt 0.7480469 1
vt 0.8569336 1
vt 0.7480469 1
vt 0.7431641 1
vt 0.1605225 1
vt -0.01275635 1
vt 0.1290283 1
vt 0.1690674 1
vt 0.1290283 1
vt -0.01275635 1
vt 0.7250977 1
vt 0.1290283 1
vt 0.7250977 1
vt 0.7480469 1
vt 0.5292969 1
vt -0.01275635 1
vt 0.2836914 1
vt -0.01275635 1
vt 0.5292969 1
vt 0.7250977 1
vt 0.5292969 1
vt 0.2282715 1
vt 0.282959 1
vt 0.2282715 1
vt 0.5292969 1
vt 0.2836914 1
vt 0.7915039 0
vt 0.75 0.7207031
vt 0.7915039 0.7207031
vt 0.75 0
vt -0.0625 0
vt -0.08331299 0.7207031
vt -0.0625 0.7207031
vt -0.08331299 0
vt 0.4375 0
vt 0.416748 0.7207031
vt 0.4375 0.7207031
vt 0.416748 0
vt 0.625 0
vt 0.5834961 0.7207031
vt 0.625 0.7207031
vt 0.5834961 0
vt 0.416748 0
vt 0.333252 0.7207031
vt 0.416748 0.7207031
vt 0.333252 0
vt 0.7084961 0
vt 0.6665039 0.7207031
vt 0.7084961 0.7207031
vt 0.6665039 0
vt 0.5834961 0
vt 0.5 0.7207031
vt 0.5834961 0.7207031
vt 0.5 0
vt 0.479248 0
vt 0.458252 0.7207031
vt 0.479248 0.7207031
vt 0.458252 0
vt 0.333252 0
vt 0.291748 0.7207031
vt 0.333252 0.7207031
vt 0.291748 0
vt 0.28125 0
vt 0.270752 0.7207031
vt 0.28125 0.7207031
vt 0.270752 0
vt 0.291748 0
vt 0.28125 0.7207031
vt 0.291748 0.7207031
vt 0.28125 0
vt 0.5 0
vt 0.479248 0.7207031
vt 0.5 0.7207031
vt 0.479248 0
vt 0.9165039 0
vt 0.8334961 0.7207031
vt 0.9165039 0.7207031
vt 0.8334961 0
vt 0.8334961 0
vt 0.7915039 0.7207031
vt 0.8334961 0.7207031
vt 0.7915039 0
vt 0.04165649 0
vt 0 0.7207031
vt 0.04165649 0.7207031
vt 0 0
vt 0 0
vt -0.04165649 0.7207031
vt 0 0.7207031
vt -0.04165649 0
vt -0.04165649 0
vt -0.0625 0.7207031
vt -0.04165649 0.7207031
vt -0.0625 0
vt 0.08331299 0
vt 0.04165649 0.7207031
vt 0.08331299 0.7207031
vt 0.04165649 0
vt 0.458252 0
vt 0.4375 0.7207031
vt 0.458252 0.7207031
vt 0.4375 0
vt 0.9165039 0.7207031
vt 0.5800781 1
vt 0.8134766 1
vt 0.8334961 0.7207031
vt 0.6665039 0.7207031
vt 0.5498047 1
vt 0.6298828 1
vt 0.625 0.7207031
vt 0.7084961 0.7207031
vt 0.6298828 1
vt 0.7089844 1
vt 0.6665039 0.7207031
vt 0.1689453 1.164063
vt 0.2836914 1
vt -0.01275635 1
vt 0.2265625 1.162109
vt 0.1967773 0.8188477
vt 0.2282715 1
vt 0.2836914 1
vt 0.1538086 0.8237305
vt 0.2248535 0.7670898
vt 0.2553711 1
vt 0.3088379 1
vt 0.1106567 0.7758789
vt 0.7915039 0.7207031
vt 0.7001953 1
vt 0.7202148 1
vt 0.75 0.7207031
vt 0.8564453 0.8227539
vt 0.7431641 1
vt 0.8569336 1
vt 0.8164063 0.8295898
vt 0.625 0.7207031
vt 0.3081055 1
vt 0.5498047 1
vt 0.5834961 0.7207031
vt 0.7915039 0
vt 0.75 0.7207031
vt 0.7915039 0.7207031
vt 0.75 0
vt -0.0625 0
vt -0.08331299 0.7207031
vt -0.0625 0.7207031
vt -0.08331299 0
vt 0.08331299 0
vt 0.25 0.7207031
vt 0.25 0
vt 0.08331299 0.7207031
vt 0.04165649 0.7207031
vt 0.08331299 0.7207031
vt 0.04165649 0
vt 0.270752 0
vt 0.25 0.7207031
vt 0.270752 0.7207031
vt 0.25 0
vt 0.4375 0
vt 0.416748 0.7207031
vt 0.4375 0.7207031
vt 0.416748 0
vt 0.625 0
vt 0.5834961 0.7207031
vt 0.625 0.7207031
vt 0.5834961 0
vt 0.416748 0
vt 0.333252 0.7207031
vt 0.416748 0.7207031
vt 0.333252 0
vt 0.7084961 0
vt 0.6665039 0.7207031
vt 0.7084961 0.7207031
vt 0.6665039 0
vt 0.75 0
vt 0.7084961 0.7207031
vt 0.75 0.7207031
vt 0.7084961 0
vt 0.5834961 0
vt 0.5 0.7207031
vt 0.5834961 0.7207031
vt 0.5 0
vt 0.479248 0
vt 0.458252 0.7207031
vt 0.479248 0.7207031
vt 0.458252 0
vt 0.333252 0
vt 0.291748 0.7207031
vt 0.333252 0.7207031
vt 0.291748 0
vt 0.28125 0
vt 0.270752 0.7207031
vt 0.28125 0.7207031
vt 0.270752 0
vt 0.291748 0
vt 0.28125 0.7207031
vt 0.291748 0.7207031
vt 0.28125 0
vt 0.5 0
vt 0.479248 0.7207031
vt 0.5 0.7207031
vt 0.479248 0
vt 0.9165039 0
vt 0.8334961 0.7207031
vt 0.9165039 0.7207031
vt 0.8334961 0
vt 0.8334961 0
vt 0.7915039 0.7207031
vt 0.8334961 0.7207031
vt 0.7915039 0
vt 0.04165649 0
vt 0 0.7207031
vt 0.04165649 0.7207031
vt 0 0
vt 0 0
vt -0.04165649 0.7207031
vt 0 0.7207031
vt -0.04165649 0
vt -0.04165649 0
vt -0.0625 0.7207031
vt -0.04165649 0.7207031
vt -0.0625 0
vt 0.6665039 0
vt 0.625 0.7207031
vt 0.6665039 0.7207031
vt 0.625 0
vt 0.458252 0
vt 0.4375 0.7207031
vt 0.458252 0.7207031
vt 0.4375 0
vt 0.9165039 0.7207031
vt 0.5800781 1
vt 0.8134766 1
vt 0.8334961 0.7207031
vt 0.6665039 0.7207031
vt 0.5498047 1
vt 0.6298828 1
vt 0.625 0.7207031
vt 0.7084961 0.7207031
vt 0.6298828 1
vt 0.7089844 1
vt 0.6665039 0.7207031
vt 0.2248535 0.7670898
vt 0.2553711 1
vt 0.3088379 1
vt 0.1106567 0.7758789
vt 0.8564453 0.8227539
vt 0.7431641 1
vt 0.8569336 1
vt 0.8164063 0.8295898
vt 0.9882813 2.072266
vt 0.7480469 1
vt 0.7250977 1
vt 1.302734 2.027344
vt 0.3081055 1
vt 0.7001953 1
vt 0.7089844 1
vt 0.7202148 1
vt 0.4018555 1
vt 0.5800781 1
vt 0.3088379 1
vt 0.7431641 1

g Mountain_05_(11)_354_30
usemtl Mountain_05_(11)_354_30
usemap Mountain_05_(11)_354_30
f 1/1/1 3/3/3 2/2/2
f 4/4/4 6/6/6 5/5/5
f 7/7/7 9/9/9 8/8/8
f 10/10/10 12/12/12 11/11/11
f 13/13/13 15/15/15 14/14/14
f 16/16/16 18/18/18 17/17/17
f 19/19/19 21/21/21 20/20/20
f 22/22/22 24/24/24 23/23/23
f 25/25/25 27/27/27 26/26/26
f 28/28/28 30/30/30 29/29/29
f 31/31/31 33/33/33 32/32/32
f 34/34/34 36/36/36 35/35/35
f 37/37/37 39/39/39 38/38/38
f 40/40/40 42/42/42 41/41/41
f 43/43/43 45/45/45 44/44/44
f 46/46/46 48/48/48 47/47/47
f 49/49/49 51/51/51 50/50/50
f 52/52/52 54/54/54 53/53/53
f 55/55/55 57/57/57 56/56/56
f 58/58/58 60/60/60 59/59/59
f 61/61/61 63/63/63 62/62/62
f 64/64/64 66/66/66 65/65/65
f 67/67/67 69/69/69 68/68/68
f 70/70/70 72/72/72 71/71/71
f 73/73/73 75/75/75 74/74/74
f 76/76/76 78/78/78 77/77/77
f 79/79/79 81/81/81 80/80/80
f 82/82/82 84/84/84 83/83/83
f 85/85/85 87/87/87 86/86/86
f 88/88/88 90/90/90 89/89/89
f 91/91/91 93/93/93 92/92/92
f 94/94/94 96/96/96 95/95/95
f 97/97/97 99/99/99 98/98/98
f 100/100/100 102/102/102 101/101/101
f 103/103/103 105/105/105 104/104/104
f 106/106/106 108/108/108 107/107/107
f 109/109/109 111/111/111 110/110/110
f 112/112/112 114/114/114 113/113/113
f 115/115/115 117/117/117 116/116/116
f 118/118/118 119/119/119 117/117/117
f 120/120/120 119/119/119 118/118/118
f 117/117/117 121/121/121 118/118/118
f 121/121/121 123/123/123 122/122/122
f 124/124/124 126/126/126 125/125/125
f 127/127/127 129/129/129 128/128/128
f 130/130/130 132/132/132 131/131/131
f 133/133/133 135/135/135 134/134/134
f 136/136/136 138/138/138 137/137/137
f 138/138/138 140/140/140 139/139/139
f 141/141/141 143/143/143 142/142/142
f 144/144/144 146/146/146 145/145/145
f 147/147/147 149/149/149 148/148/148
f 150/150/150 152/152/152 151/151/151
f 153/153/153 155/155/155 154/154/154
f 156/156/156 158/158/158 157/157/157
f 159/159/159 161/161/161 160/160/160
f 162/162/162 164/164/164 163/163/163
f 165/165/165 167/167/167 166/166/166
f 168/168/168 170/170/170 169/169/169
f 171/171/171 173/173/173 172/172/172
f 174/174/174 176/176/176 175/175/175
f 177/177/177 179/179/179 178/178/178
f 180/180/180 182/182/182 181/181/181
f 183/183/183 185/185/185 184/184/184
f 186/186/186 188/188/188 187/187/187
f 189/189/189 191/191/191 190/190/190
f 192/192/192 194/194/194 193/193/193
f 195/195/195 197/197/197 196/196/196
f 198/198/198 200/200/200 199/199/199
f 201/201/201 203/203/203 202/202/202
f 204/204/204 206/206/206 205/205/205
f 207/207/207 209/209/209 208/208/208
f 210/210/210 212/212/212 211/211/211
f 213/213/213 215/215/215 214/214/214
f 216/216/216 218/218/218 217/217/217
f 219/219/219 221/221/221 220/220/220
f 222/222/222 224/224/224 223/223/223
f 225/225/225 227/227/227 226/226/226
f 228/228/228 230/230/230 229/229/229
f 231/231/231 233/233/233 232/232/232
f 234/234/234 236/236/236 235/235/235
f 237/237/237 239/239/239 238/238/238
f 240/240/240 242/242/242 241/241/241
f 243/243/243 245/245/245 244/244/244
f 246/246/246 248/248/248 247/247/247
f 249/249/249 251/251/251 250/250/250
f 252/252/252 254/254/254 253/253/253
f 255/255/255 257/257/257 256/256/256
f 258/258/258 260/260/260 259/259/259
f 261/261/261 263/263/263 262/262/262
f 264/264/264 266/266/266 265/265/265
f 267/267/267 269/269/269 268/268/268
f 270/270/270 272/272/272 271/271/271
f 273/273/273 275/275/275 274/274/274
f 276/276/276 278/278/278 277/277/277
f 279/279/279 281/281/281 280/280/280
f 282/282/282 284/284/284 283/283/283
f 285/285/285 287/287/287 286/286/286
f 288/288/288 290/290/290 289/289/289
f 291/291/291 293/293/293 292/292/292
f 294/294/294 296/296/296 295/295/295
f 297/297/297 299/299/299 298/298/298
f 300/300/300 302/302/302 301/301/301
f 303/303/303 305/305/305 304/304/304
f 306/306/306 308/308/308 307/307/307
f 309/309/309 311/311/311 310/310/310
f 312/312/312 314/314/314 313/313/313
f 313/313/313 315/315/315 312/312/312
f 316/316/316 318/318/318 317/317/317
f 317/317/317 319/319/319 316/316/316
f 320/320/320 322/322/322 321/321/321
f 321/321/321 323/323/323 320/320/320
f 324/324/324 326/326/326 325/325/325
f 325/325/325 327/327/327 324/324/324
f 328/328/328 330/330/330 329/329/329
f 329/329/329 331/331/331 328/328/328
f 332/332/332 334/334/334 333/333/333
f 333/333/333 335/335/335 332/332/332
f 336/336/336 338/338/338 337/337/337
f 337/337/337 339/339/339 336/336/336
f 340/340/340 342/342/342 341/341/341
f 341/341/341 343/343/343 340/340/340
f 344/344/344 346/346/346 345/345/345
f 345/345/345 347/347/347 344/344/344
f 348/348/348 350/350/350 349/349/349
f 349/349/349 351/351/351 348/348/348
f 352/352/352 354/354/354 353/353/353
f 353/353/353 355/355/355 352/352/352
f 356/356/356 358/358/358 357/357/357
f 357/357/357 359/359/359 356/356/356
f 360/360/360 362/362/362 361/361/361
f 361/361/361 363/363/363 360/360/360
f 364/364/364 366/366/366 365/365/365
f 365/365/365 367/367/367 364/364/364
f 368/368/368 370/370/370 369/369/369
f 369/369/369 371/371/371 368/368/368
f 372/372/372 374/374/374 373/373/373
f 373/373/373 375/375/375 372/372/372
f 376/376/376 378/378/378 377/377/377
f 377/377/377 379/379/379 376/376/376
f 380/380/380 382/382/382 381/381/381
f 381/381/381 383/383/383 380/380/380
f 384/384/384 386/386/386 385/385/385
f 385/385/385 387/387/387 384/384/384
f 388/388/388 390/390/390 389/389/389
f 389/389/389 391/391/391 388/388/388
f 392/392/392 394/394/394 393/393/393
f 393/393/393 395/395/395 392/392/392
f 396/396/396 398/398/398 397/397/397
f 397/397/397 399/399/399 396/396/396
f 400/400/400 402/402/402 401/401/401
f 401/401/401 403/403/403 400/400/400
f 404/404/404 406/406/406 405/405/405
f 405/405/405 407/407/407 404/404/404
f 408/408/408 410/410/410 409/409/409
f 409/409/409 411/411/411 408/408/408
f 412/412/412 414/414/414 413/413/413
f 413/413/413 415/415/415 412/412/412
f 416/416/416 418/418/418 417/417/417
f 417/417/417 419/419/419 416/416/416
f 420/420/420 422/422/422 421/421/421
f 421/421/421 423/423/423 420/420/420
f 424/424/424 426/426/426 425/425/425
f 425/425/425 427/427/427 424/424/424
f 428/428/428 430/430/430 429/429/429
f 429/429/429 431/431/431 428/428/428
f 432/432/432 434/434/434 433/433/433
f 433/433/433 435/435/435 432/432/432
f 432/432/432 437/437/437 436/436/436
f 436/436/436 438/438/438 432/432/432
f 439/439/439 441/441/441 440/440/440
f 440/440/440 442/442/442 439/439/439
f 443/443/443 445/445/445 444/444/444
f 444/444/444 446/446/446 443/443/443
f 447/447/447 449/449/449 448/448/448
f 448/448/448 450/450/450 447/447/447
f 451/451/451 453/453/453 452/452/452
f 452/452/452 454/454/454 451/451/451
f 455/455/455 457/457/457 456/456/456
f 456/456/456 458/458/458 455/455/455
f 459/459/459 461/461/461 460/460/460
f 460/460/460 462/462/462 459/459/459
f 463/463/463 465/465/465 464/464/464
f 464/464/464 466/466/466 463/463/463
f 467/467/467 469/469/469 468/468/468
f 468/468/468 470/470/470 467/467/467
f 471/471/471 473/473/473 472/472/472
f 472/472/472 474/474/474 471/471/471
f 475/475/475 477/477/477 476/476/476
f 476/476/476 478/478/478 475/475/475
f 479/479/479 481/481/481 480/480/480
f 480/480/480 482/482/482 479/479/479
f 483/483/483 485/485/485 484/484/484
f 484/484/484 486/486/486 483/483/483
f 487/487/487 489/489/489 488/488/488
f 488/488/488 490/490/490 487/487/487
f 491/491/491 493/493/493 492/492/492
f 492/492/492 494/494/494 491/491/491
f 495/495/495 497/497/497 496/496/496
f 496/496/496 498/498/498 495/495/495
f 499/499/499 501/501/501 500/500/500
f 500/500/500 502/502/502 499/499/499
f 503/503/503 505/505/505 504/504/504
f 504/504/504 506/506/506 503/503/503
f 507/507/507 509/509/509 508/508/508
f 508/508/508 510/510/510 507/507/507
f 511/511/511 513/513/513 512/512/512
f 512/512/512 514/514/514 511/511/511
f 515/515/515 517/517/517 516/516/516
f 516/516/516 518/518/518 515/515/515
f 519/519/519 521/521/521 520/520/520
f 520/520/520 522/522/522 519/519/519
f 523/523/523 525/525/525 524/524/524
f 524/524/524 526/526/526 523/523/523
f 527/527/527 529/529/529 528/528/528
f 528/528/528 530/530/530 527/527/527
f 531/531/531 533/533/533 532/532/532
f 532/532/532 534/534/534 531/531/531
f 535/535/535 537/537/537 536/536/536
f 536/536/536 538/538/538 535/535/535
f 539/539/539 541/541/541 540/540/540
f 540/540/540 542/542/542 539/539/539
f 542/542/542 543/543/543 539/539/539
f 543/543/543 542/542/542 544/544/544
f 544/544/544 545/545/545 543/543/543
f 546/546/546 545/545/545 544/544/544
