#Mountain_05_(5)_365_17.obj

v -4.194437 3.73795 -3.154244E-07
v -7.160106 1.713944 1.266889
v -7.665709 1.715765 -1.447836E-07
v -7.160106 1.713944 1.266889
v -4.194437 3.73795 -3.154244E-07
v -3.933564 3.677029 1.31277
v -7.254385 0.09804111 -8.272957E-09
v -7.160106 1.713944 1.266889
v -6.854488 0.126644 1.188133
v -7.160106 1.713944 1.266889
v -7.254385 0.09804111 -8.272957E-09
v -7.665709 1.715765 -1.447836E-07
v 3.665561 -2.792713 2.025192
v 6.156198 -2.11107 1.903582
v 5.057958 -2.911882 2.005747
v 6.156198 -2.11107 1.903582
v 3.665561 -2.792713 2.025192
v 6.808693 0.05540978 1.847594
v 6.027657 2.45016 -2.067554E-07
v 7.665709 0.1829353 1.190308
v 6.030297 2.431464 1.334739
v 7.665709 0.1829353 1.190308
v 6.027657 2.45016 -2.067554E-07
v 7.664265 0.1545393 -1.304083E-08
v 6.820557 -2.677269 2.259194E-07
v 5.309932 -3.712568 1.392306
v 6.840151 -2.588093 1.264772
v 5.309932 -3.712568 1.392306
v 6.820557 -2.677269 2.259194E-07
v 5.290359 -3.835666 3.236701E-07
v -3.933564 3.677029 1.31277
v -1.709408 3.249511 2.029637
v -3.601106 2.925806 2.003493
v -1.709408 3.249511 2.029637
v -3.933564 3.677029 1.31277
v -2.041347 3.910073 1.316083
v -7.160106 1.713944 1.266889
v -3.601106 2.925806 2.003493
v -6.175472 1.341344 1.885148
v -3.601106 2.925806 2.003493
v -7.160106 1.713944 1.266889
v -3.933564 3.677029 1.31277
v -4.095047 -3.787006 1.314834
v -5.235809 -1.696638 1.877561
v -3.676632 -3.064913 1.995974
v -5.235809 -1.696638 1.877561
v -4.095047 -3.787006 1.314834
v -6.215342 -1.962349 1.209017
v 3.379787 -3.550971 1.370015
v 2.698069 -1.994803 2.001729
v 3.665561 -2.792713 2.025192
v 2.698069 -1.994803 2.001729
v 3.379787 -3.550971 1.370015
v 2.563111 -2.877885 1.327934
v 6.030297 2.431464 1.334739
v 6.808693 0.05540978 1.847594
v 5.621321 1.662609 1.970607
v 6.808693 0.05540978 1.847594
v 6.030297 2.431464 1.334739
v 7.665709 0.1829353 1.190308
v -6.215342 -1.962349 1.209017
v -4.903864 -0.6808473 1.881354
v -5.235809 -1.696638 1.877561
v -4.903864 -0.6808473 1.881354
v -6.215342 -1.962349 1.209017
v -5.818846 -0.7554346 1.199843
v 2.563111 -2.877885 1.327934
v 0.9772547 -2.664855 2.044155
v 2.698069 -1.994803 2.001729
v 0.9772547 -2.664855 2.044155
v 2.563111 -2.877885 1.327934
v 1.519777 -3.286085 1.342203
v 1.200385 -4.01334 1.371663
v -1.721834 -3.588947 2.053878
v 0.733785 -3.315432 2.070017
v -1.721834 -3.588947 2.053878
v 1.200385 -4.01334 1.371663
v -1.810348 -4.398071 1.340716
v -6.854488 0.126644 1.188133
v -6.175472 1.341344 1.885148
v -6.145762 0.6678385 1.84846
v -6.175472 1.341344 1.885148
v -6.854488 0.126644 1.188133
v -7.160106 1.713944 1.266889
v 3.478029 2.897262 1.349744
v 4.602208 1.618829 1.984561
v 3.020836 2.25628 2.027464
v 4.602208 1.618829 1.984561
v 3.478029 2.897262 1.349744
v 4.761544 2.375826 1.331748
v -1.553585 4.357331 1.335882
v 0.3752403 3.630053 2.069615
v -1.255428 3.67537 2.051443
v 0.3752403 3.630053 2.069615
v -1.553585 4.357331 1.335882
v 0.5697169 4.425911 1.371162
v 1.391991 3.880754 1.362431
v 2.329681 3.012331 2.061684
v 1.141683 3.124539 2.055678
v 2.329681 3.012331 2.061684
v 1.391991 3.880754 1.362431
v 2.700606 3.756189 1.380967
v -2.041347 3.910073 1.316083
v -1.255428 3.67537 2.051443
v -1.709408 3.249511 2.029637
v -1.255428 3.67537 2.051443
v -2.041347 3.910073 1.316083
v -1.553585 4.357331 1.335882
v -1.810348 -4.398071 1.340716
v -3.676632 -3.064913 1.995974
v -1.721834 -3.588947 2.053878
v -3.676632 -3.064913 1.995974
v -1.810348 -4.398071 1.340716
v -4.095047 -3.787006 1.314834
v 4.602208 1.618829 1.984561
v 3.665561 -2.792713 2.025192
v 2.698069 -1.994803 2.001729
v 3.020836 2.25628 2.027464
v 0.9772547 -2.664855 2.044155
v 1.141683 3.124539 2.055678
v 4.602208 1.618829 1.984561
v 6.808693 0.05540978 1.847594
v 3.665561 -2.792713 2.025192
v 6.808693 0.05540978 1.847594
v 4.602208 1.618829 1.984561
v 5.621321 1.662609 1.970607
v -1.721834 -3.588947 2.053878
v 0.9772547 -2.664855 2.044155
v 0.733785 -3.315432 2.070017
v 0.9772547 -2.664855 2.044155
v -1.721834 -3.588947 2.053878
v 1.141683 3.124539 2.055678
v 3.020836 2.25628 2.027464
v 1.141683 3.124539 2.055678
v 2.329681 3.012331 2.061684
v -1.255428 3.67537 2.051443
v -1.721834 -3.588947 2.053878
v -3.676632 -3.064913 1.995974
v -4.903864 -0.6808473 1.881354
v -1.709408 3.249511 2.029637
v 1.141683 3.124539 2.055678
v -1.255428 3.67537 2.051443
v 0.3752403 3.630053 2.069615
v -1.255428 3.67537 2.051443
v 1.141683 3.124539 2.055678
v -1.721834 -3.588947 2.053878
v -4.903864 -0.6808473 1.881354
v -3.676632 -3.064913 1.995974
v -5.235809 -1.696638 1.877561
v -3.676632 -3.064913 1.995974
v -1.709408 3.249511 2.029637
v -1.255428 3.67537 2.051443
v -3.601106 2.925806 2.003493
v -4.903864 -0.6808473 1.881354
v -5.550162 0.5868797 1.871905
v -4.903864 -0.6808473 1.881354
v -3.601106 2.925806 2.003493
v -1.709408 3.249511 2.029637
v -3.601106 2.925806 2.003493
v -6.145762 0.6678385 1.84846
v -6.175472 1.341344 1.885148
v -6.145762 0.6678385 1.84846
v -3.601106 2.925806 2.003493
v -5.550162 0.5868797 1.871905
v 2.988737 -0.9541724 3.558371
v 4.927302 -1.19546 3.473651
v 4.273017 -1.765044 3.533748
v 4.927302 -1.19546 3.473651
v 2.988737 -0.9541724 3.558371
v 5.275127 0.215403 3.436962
v -2.726502 2.226573 3.111868
v -1.627334 2.100534 3.639845
v -2.490648 1.783756 3.623822
v -1.627334 2.100534 3.639845
v -2.726502 2.226573 3.111868
v -1.736828 2.531919 3.136091
v -4.258599 1.670021 3.040776
v -2.490648 1.783756 3.623822
v -3.781435 1.271405 3.570411
v -2.490648 1.783756 3.623822
v -4.258599 1.670021 3.040776
v -2.726502 2.226573 3.111868
v -2.762825 -2.637126 3.153882
v -3.249269 -1.241544 3.622845
v -2.524919 -2.152812 3.694746
v -3.249269 -1.241544 3.622845
v -2.762825 -2.637126 3.153882
v -3.835067 -1.467503 3.049566
v 2.862061 -1.444474 3.07532
v 1.87546 -0.5585145 3.591151
v 2.988737 -0.9541724 3.558371
v 1.87546 -0.5585145 3.591151
v 2.862061 -1.444474 3.07532
v 1.842499 -1.120215 3.100537
v 4.318974 1.081608 3.011747
v 5.275127 0.215403 3.436962
v 4.085328 0.5904657 3.488198
v 5.275127 0.215403 3.436962
v 4.318974 1.081608 3.011747
v 5.852761 0.3365152 2.925531
v -3.835067 -1.467503 3.049566
v -2.919595 -0.438839 3.613438
v -3.249269 -1.241544 3.622845
v -2.919595 -0.438839 3.613438
v -3.835067 -1.467503 3.049566
v -3.472837 -0.5373297 3.051367
v 1.842499 -1.120215 3.100537
v 0.8233234 -1.077236 3.643888
v 1.87546 -0.5585145 3.591151
v 0.8233234 -1.077236 3.643888
v 1.842499 -1.120215 3.100537
v 1.200466 -1.435825 3.127697
v 0.2291428 -2.617823 3.18853
v -0.963267 -2.35902 3.726503
v -0.08700181 -2.196545 3.711949
v -0.963267 -2.35902 3.726503
v 0.2291428 -2.617823 3.18853
v -0.9861147 -2.878273 3.200276
v -3.472837 -0.5373297 3.051367
v -3.322778 0.5950949 3.583382
v -2.919595 -0.438839 3.613438
v -3.322778 0.5950949 3.583382
v -3.472837 -0.5373297 3.051367
v -3.648596 0.1871699 3.038027
v -4.378532 0.6425576 2.999554
v -3.781435 1.271405 3.570411
v -3.885536 0.8564692 3.556608
v -3.781435 1.271405 3.570411
v -4.378532 0.6425576 2.999554
v -4.258599 1.670021 3.040776
v -3.648596 0.1871699 3.038027
v -3.885536 0.8564692 3.556608
v -3.322778 0.5950949 3.583382
v -3.885536 0.8564692 3.556608
v -3.648596 0.1871699 3.038027
v -4.378532 0.6425576 2.999554
v 2.248858 2.168181 3.102163
v 2.789413 1.051328 3.539411
v 1.990718 1.749044 3.575721
v 2.789413 1.051328 3.539411
v 2.248858 2.168181 3.102163
v 2.852975 1.526857 3.06729
v 2.852975 1.526857 3.06729
v 4.085328 0.5904657 3.488198
v 2.789413 1.051328 3.539411
v 4.085328 0.5904657 3.488198
v 2.852975 1.526857 3.06729
v 4.318974 1.081608 3.011747
v -0.9990005 2.846006 3.15303
v -0.01927181 2.452521 3.640304
v -0.9187259 2.408833 3.648573
v -0.01927181 2.452521 3.640304
v -0.9990005 2.846006 3.15303
v 0.05885224 2.944871 3.156976
v 0.6070426 2.649023 3.140079
v 1.247644 2.167137 3.606209
v 0.4927644 2.174579 3.621329
v 1.247644 2.167137 3.606209
v 0.6070426 2.649023 3.140079
v 1.438892 2.641033 3.13326
v 4.504386 -2.265425 3.044842
v 2.988737 -0.9541724 3.558371
v 4.273017 -1.765044 3.533748
v 2.988737 -0.9541724 3.558371
v 4.504386 -2.265425 3.044842
v 2.862061 -1.444474 3.07532
v -0.9861147 -2.878273 3.200276
v -2.524919 -2.152812 3.694746
v -0.963267 -2.35902 3.726503
v -2.524919 -2.152812 3.694746
v -0.9861147 -2.878273 3.200276
v -2.762825 -2.637126 3.153882
v -0.963267 -2.35902 3.726503
v 0.8233234 -1.077236 3.643888
v -0.08700181 -2.196545 3.711949
v 0.8233234 -1.077236 3.643888
v -0.963267 -2.35902 3.726503
v 0.4927644 2.174579 3.621329
v 1.990718 1.749044 3.575721
v 0.4927644 2.174579 3.621329
v 1.247644 2.167137 3.606209
v -0.9187259 2.408833 3.648573
v -0.963267 -2.35902 3.726503
v -2.524919 -2.152812 3.694746
v 0.4927644 2.174579 3.621329
v -0.9187259 2.408833 3.648573
v -0.01927181 2.452521 3.640304
v -0.9187259 2.408833 3.648573
v 0.4927644 2.174579 3.621329
v -0.963267 -2.35902 3.726503
v -2.919595 -0.438839 3.613438
v -2.524919 -2.152812 3.694746
v -3.249269 -1.241544 3.622845
v -2.524919 -2.152812 3.694746
v -2.919595 -0.438839 3.613438
v -1.627334 2.100534 3.639845
v -2.524919 -2.152812 3.694746
v -1.627334 2.100534 3.639845
v -0.9187259 2.408833 3.648573
v -2.490648 1.783756 3.623822
v -2.919595 -0.438839 3.613438
v -3.322778 0.5950949 3.583382
v -2.919595 -0.438839 3.613438
v -2.490648 1.783756 3.623822
v -1.627334 2.100534 3.639845
v -2.490648 1.783756 3.623822
v -3.885536 0.8564692 3.556608
v -3.781435 1.271405 3.570411
v -3.885536 0.8564692 3.556608
v -2.490648 1.783756 3.623822
v -3.322778 0.5950949 3.583382
v 4.759295 2.393444 -2.019693E-07
v 6.030297 2.431464 1.334739
v 4.761544 2.375826 1.331748
v 6.027657 2.45016 -2.067554E-07
v 1.356403 3.947884 -3.331397E-07
v 2.700606 3.756189 1.380967
v 1.391991 3.880754 1.362431
v 2.681239 3.81819 -3.221956E-07
v -1.948852 -4.5141 3.809195E-07
v -4.095047 -3.787006 1.314834
v -1.810348 -4.398071 1.340716
v -4.341543 -3.890435 3.282918E-07
v 5.290359 -3.835666 3.236701E-07
v 3.379787 -3.550971 1.370015
v 5.309932 -3.712568 1.392306
v 3.363268 -3.663089 3.091075E-07
v -4.341543 -3.890435 3.282918E-07
v -6.215342 -1.962349 1.209017
v -4.095047 -3.787006 1.314834
v -6.545239 -2.030142 1.713123E-07
v 7.664265 0.1545393 -1.304083E-08
v 6.840151 -2.588093 1.264772
v 7.665709 0.1829353 1.190308
v 6.820557 -2.677269 2.259194E-07
v 3.363268 -3.663089 3.091075E-07
v 2.563111 -2.877885 1.327934
v 3.379787 -3.550971 1.370015
v 2.547071 -2.969807 2.506052E-07
v 1.492747 -3.384926 2.856347E-07
v 1.200385 -4.01334 1.371663
v 1.519777 -3.286085 1.342203
v 1.162397 -4.129622 3.484755E-07
v -6.545239 -2.030142 1.713123E-07
v -5.818846 -0.7554346 1.199843
v -6.215342 -1.962349 1.209017
v -6.111477 -0.798573 6.738716E-08
v -6.504947 -0.04193851 3.539017E-09
v -6.854488 0.126644 1.188133
v -6.170844 -0.01196632 1.198651
v -7.254385 0.09804111 -8.272957E-09
v -6.111477 -0.798573 6.738716E-08
v -6.170844 -0.01196632 1.198651
v -5.818846 -0.7554346 1.199843
v -6.504947 -0.04193851 3.539017E-09
v 2.547071 -2.969807 2.506052E-07
v 1.519777 -3.286085 1.342203
v 2.563111 -2.877885 1.327934
v 1.492747 -3.384926 2.856347E-07
v 2.681239 3.81819 -3.221956E-07
v 3.478029 2.897262 1.349744
v 2.700606 3.756189 1.380967
v 3.469428 2.930435 -2.472831E-07
v 3.469428 2.930435 -2.472831E-07
v 4.761544 2.375826 1.331748
v 3.478029 2.897262 1.349744
v 4.759295 2.393444 -2.019693E-07
v -2.185759 3.97922 -3.357839E-07
v -1.553585 4.357331 1.335882
v -2.041347 3.910073 1.316083
v -1.678717 4.44287 -3.749087E-07
v -1.678717 4.44287 -3.749087E-07
v 0.5697169 4.425911 1.371162
v -1.553585 4.357331 1.335882
v 0.5145215 4.514101 -3.809195E-07
v 0.5145215 4.514101 -3.809195E-07
v 1.391991 3.880754 1.362431
v 0.5697169 4.425911 1.371162
v 1.356403 3.947884 -3.331397E-07
v -4.194437 3.73795 -3.154244E-07
v -2.041347 3.910073 1.316083
v -3.933564 3.677029 1.31277
v -2.185759 3.97922 -3.357839E-07
v 1.162397 -4.129622 3.484755E-07
v -1.810348 -4.398071 1.340716
v 1.200385 -4.01334 1.371663
v -1.948852 -4.5141 3.809195E-07
v 2.700606 3.756189 1.380967
v 3.020836 2.25628 2.027464
v 2.329681 3.012331 2.061684
v 3.478029 2.897262 1.349744
v 6.840151 -2.588093 1.264772
v 5.057958 -2.911882 2.005747
v 6.156198 -2.11107 1.903582
v 5.309932 -3.712568 1.392306
v 7.665709 0.1829353 1.190308
v 6.156198 -2.11107 1.903582
v 6.808693 0.05540978 1.847594
v 6.840151 -2.588093 1.264772
v -5.818846 -0.7554346 1.199843
v -5.550162 0.5868797 1.871905
v -4.903864 -0.6808473 1.881354
v -6.170844 -0.01196632 1.198651
v -6.170844 -0.01196632 1.198651
v -6.145762 0.6678385 1.84846
v -5.550162 0.5868797 1.871905
v -6.854488 0.126644 1.188133
v 1.519777 -3.286085 1.342203
v 0.733785 -3.315432 2.070017
v 0.9772547 -2.664855 2.044155
v 1.200385 -4.01334 1.371663
v 4.761544 2.375826 1.331748
v 5.621321 1.662609 1.970607
v 4.602208 1.618829 1.984561
v 6.030297 2.431464 1.334739
v 0.5697169 4.425911 1.371162
v 1.141683 3.124539 2.055678
v 0.3752403 3.630053 2.069615
v 1.391991 3.880754 1.362431
v 5.309932 -3.712568 1.392306
v 3.665561 -2.792713 2.025192
v 5.057958 -2.911882 2.005747
v 3.379787 -3.550971 1.370015
v 2.88644 1.562053 1.829556
v 4.318974 1.081608 3.011747
v 2.852975 1.526857 3.06729
v 4.387317 1.101501 1.797948
v 0.5794475 2.731195 1.858765
v 1.438892 2.641033 3.13326
v 0.6070426 2.649023 3.140079
v 1.437533 2.723161 1.866857
v -2.895442 2.289201 1.812996
v -4.258599 1.670021 3.040776
v -4.52505 1.710685 1.777505
v -2.726502 2.226573 3.111868
v -1.736828 2.531919 3.136091
v -2.726502 2.226573 3.111868
v -1.855699 2.608157 1.830727
v -4.656626 0.6456767 1.743983
v -4.258599 1.670021 3.040776
v -4.378532 0.6425576 2.999554
v -4.52505 1.710685 1.777505
v -1.076324 -2.99293 1.864342
v -2.762825 -2.637126 3.153882
v -0.9861147 -2.878273 3.200276
v -2.940944 -2.742909 1.826358
v 4.582382 -2.352339 1.808486
v 2.862061 -1.444474 3.07532
v 4.504386 -2.265425 3.044842
v 2.893497 -1.508824 1.811552
v -2.940944 -2.742909 1.826358
v -3.835067 -1.467503 3.049566
v -2.762825 -2.637126 3.153882
v -4.080203 -1.533347 1.761586
v 5.955955 0.3328177 1.731586
v 5.425343 -1.466442 2.952784
v 5.852761 0.3365152 2.925531
v 5.520916 -1.526937 1.74064
v 4.387317 1.101501 1.797948
v 5.852761 0.3365152 2.925531
v 4.318974 1.081608 3.011747
v 5.955955 0.3328177 1.731586
v 2.893497 -1.508824 1.811552
v 1.842499 -1.120215 3.100537
v 2.862061 -1.444474 3.07532
v 1.845885 -1.175868 1.820385
v 1.185655 -1.502022 1.832828
v 0.2291428 -2.617823 3.18853
v 1.200466 -1.435825 3.127697
v 0.1852692 -2.722826 1.867193
v -4.080203 -1.533347 1.761586
v -3.472837 -0.5373297 3.051367
v -3.835067 -1.467503 3.049566
v -3.692058 -0.5744579 1.763973
v -3.877167 0.1737559 1.759633
v -4.378532 0.6425576 2.999554
v -3.648596 0.1871699 3.038027
v -4.656626 0.6456767 1.743983
v -3.692058 -0.5744579 1.763973
v -3.648596 0.1871699 3.038027
v -3.472837 -0.5373297 3.051367
v -3.877167 0.1737559 1.759633
v 1.845885 -1.175868 1.820385
v 1.200466 -1.435825 3.127697
v 1.842499 -1.120215 3.100537
v 1.185655 -1.502022 1.832828
v 1.437533 2.723161 1.866857
v 2.248858 2.168181 3.102163
v 1.438892 2.641033 3.13326
v 2.268911 2.229316 1.853532
v 2.268911 2.229316 1.853532
v 2.852975 1.526857 3.06729
v 2.248858 2.168181 3.102163
v 2.88644 1.562053 1.829556
v -1.855699 2.608157 1.830727
v -0.9990005 2.846006 3.15303
v -1.736828 2.531919 3.136091
v -1.085269 2.937351 1.847496
v -1.085269 2.937351 1.847496
v 0.05885224 2.944871 3.156976
v -0.9990005 2.846006 3.15303
v 0.01328403 3.041354 1.863065
v 0.01328403 3.041354 1.863065
v 0.6070426 2.649023 3.140079
v 0.05885224 2.944871 3.156976
v 0.5794475 2.731195 1.858765
v 5.520916 -1.526937 1.74064
v 4.504386 -2.265425 3.044842
v 5.425343 -1.466442 2.952784
v 4.582382 -2.352339 1.808486
v 0.1852692 -2.722826 1.867193
v -0.9861147 -2.878273 3.200276
v 0.2291428 -2.617823 3.18853
v -1.076324 -2.99293 1.864342
v 1.438892 2.641033 3.13326
v 1.990718 1.749044 3.575721
v 1.247644 2.167137 3.606209
v 2.248858 2.168181 3.102163
v 5.425343 -1.466442 2.952784
v 4.273017 -1.765044 3.533748
v 4.927302 -1.19546 3.473651
v 4.504386 -2.265425 3.044842
v 5.852761 0.3365152 2.925531
v 4.927302 -1.19546 3.473651
v 5.275127 0.215403 3.436962
v 5.425343 -1.466442 2.952784
v 1.200466 -1.435825 3.127697
v -0.08700181 -2.196545 3.711949
v 0.8233234 -1.077236 3.643888
v 0.2291428 -2.617823 3.18853
v 0.05885224 2.944871 3.156976
v 0.4927644 2.174579 3.621329
v -0.01927181 2.452521 3.640304
v 0.6070426 2.649023 3.140079
v -1.736828 2.531919 3.136091
v -0.9187259 2.408833 3.648573
v -1.627334 2.100534 3.639845
v -0.9990005 2.846006 3.15303
v 2.988737 -0.9541724 3.558371
v 4.085328 0.5904657 3.488198
v 5.275127 0.215403 3.436962
v 2.789413 1.051328 3.539411
v 1.87546 -0.5585145 3.591151
v 1.990718 1.749044 3.575721
v 0.8233234 -1.077236 3.643888
v 0.4927644 2.174579 3.621329

vn -0.5039063 0.1416016 -0.8520508
vn -0.5039063 0.1416016 -0.8520508
vn -0.5039063 0.1416016 -0.8520508
vn -0.5239258 0.1008301 -0.8457031
vn -0.5239258 0.1008301 -0.8457031
vn -0.5239258 0.1008301 -0.8457031
vn -0.9511719 0.2303467 0.2056885
vn -0.9511719 0.2303467 0.2056885
vn -0.9511719 0.2303467 0.2056885
vn -0.9331055 0.263916 0.2437744
vn -0.9331055 0.263916 0.2437744
vn -0.9331055 0.263916 0.2437744
vn 0.03027344 0.9902344 -0.1359863
vn 0.03027344 0.9902344 -0.1359863
vn 0.03027344 0.9902344 -0.1359863
vn 0.06402588 0.9975586 -0.01753235
vn 0.06402588 0.9975586 -0.01753235
vn 0.06402588 0.9975586 -0.01753235
vn 0.8051758 0.004695892 -0.5932617
vn 0.8051758 0.004695892 -0.5932617
vn 0.8051758 0.004695892 -0.5932617
vn 0.8105469 -0.01049805 -0.5859375
vn 0.8105469 -0.01049805 -0.5859375
vn 0.8105469 -0.01049805 -0.5859375
vn 0.5996094 0.03356934 0.7998047
vn 0.5996094 0.03356934 0.7998047
vn 0.5996094 0.03356934 0.7998047
vn 0.6083984 0.04385376 0.7924805
vn 0.6083984 0.04385376 0.7924805
vn 0.6083984 0.04385376 0.7924805
vn -0.1474609 0.6337891 -0.7592773
vn -0.1474609 0.6337891 -0.7592773
vn -0.1474609 0.6337891 -0.7592773
vn -0.1072388 0.5683594 -0.8154297
vn -0.1072388 0.5683594 -0.8154297
vn -0.1072388 0.5683594 -0.8154297
vn -0.4082031 0.7045898 -0.5800781
vn -0.4082031 0.7045898 -0.5800781
vn -0.4082031 0.7045898 -0.5800781
vn -0.4128418 0.6401367 -0.6479492
vn -0.4128418 0.6401367 -0.6479492
vn -0.4128418 0.6401367 -0.6479492
vn -0.5400391 0.6420898 0.5444336
vn -0.5400391 0.6420898 0.5444336
vn -0.5400391 0.6420898 0.5444336
vn -0.5039063 0.6762695 0.5371094
vn -0.5039063 0.6762695 0.5371094
vn -0.5039063 0.6762695 0.5371094
vn -0.5004883 0.6352539 0.5883789
vn -0.5004883 0.6352539 0.5883789
vn -0.5004883 0.6352539 0.5883789
vn -0.5229492 0.6171875 0.5878906
vn -0.5229492 0.6171875 0.5878906
vn -0.5229492 0.6171875 0.5878906
vn 0.644043 0.644043 -0.4125977
vn 0.644043 0.644043 -0.4125977
vn 0.644043 0.644043 -0.4125977
vn 0.6396484 0.6489258 -0.4123535
vn 0.6396484 0.6489258 -0.4123535
vn 0.6396484 0.6489258 -0.4123535
vn -0.7084961 0.6694336 -0.2229004
vn -0.7084961 0.6694336 -0.2229004
vn -0.7084961 0.6694336 -0.2229004
vn -0.7143555 0.6586914 -0.2365723
vn -0.7143555 0.6586914 -0.2365723
vn -0.7143555 0.6586914 -0.2365723
vn 0.3066406 0.625 0.7177734
vn 0.3066406 0.625 0.7177734
vn 0.3066406 0.625 0.7177734
vn 0.3015137 0.6181641 0.7260742
vn 0.3015137 0.6181641 0.7260742
vn 0.3015137 0.6181641 0.7260742
vn 0.08807373 0.6015625 0.7939453
vn 0.08807373 0.6015625 0.7939453
vn 0.08807373 0.6015625 0.7939453
vn 0.0958252 0.6186523 0.7797852
vn 0.0958252 0.6186523 0.7797852
vn 0.0958252 0.6186523 0.7797852
vn -0.7695313 0.6328125 0.08764648
vn -0.7695313 0.6328125 0.08764648
vn -0.7695313 0.6328125 0.08764648
vn -0.6889648 0.7001953 0.1865234
vn -0.6889648 0.7001953 0.1865234
vn -0.6889648 0.7001953 0.1865234
vn 0.3071289 0.6269531 -0.7158203
vn 0.3071289 0.6269531 -0.7158203
vn 0.3071289 0.6269531 -0.7158203
vn 0.2966309 0.6357422 -0.7128906
vn 0.2966309 0.6357422 -0.7128906
vn 0.2966309 0.6357422 -0.7128906
vn 0.008918762 0.5561523 -0.8310547
vn 0.008918762 0.5561523 -0.8310547
vn 0.008918762 0.5561523 -0.8310547
vn -0.04495239 0.6225586 -0.78125
vn -0.04495239 0.6225586 -0.78125
vn -0.04495239 0.6225586 -0.78125
vn 0.06420898 0.6206055 -0.78125
vn 0.06420898 0.6206055 -0.78125
vn 0.06420898 0.6206055 -0.78125
vn 0.05645752 0.6254883 -0.7783203
vn 0.05645752 0.6254883 -0.7783203
vn 0.05645752 0.6254883 -0.7783203
vn -0.5854492 0.5712891 -0.5751953
vn -0.5854492 0.5712891 -0.5751953
vn -0.5854492 0.5712891 -0.5751953
vn -0.5776367 0.5673828 -0.5864258
vn -0.5776367 0.5673828 -0.5864258
vn -0.5776367 0.5673828 -0.5864258
vn -0.2220459 0.6220703 0.7509766
vn -0.2220459 0.6220703 0.7509766
vn -0.2220459 0.6220703 0.7509766
vn -0.2026367 0.6430664 0.7382813
vn -0.2026367 0.6430664 0.7382813
vn -0.2026367 0.6430664 0.7382813
vn -0.02012634 0.9995117 -0.01712036
vn -0.02012634 0.9995117 -0.01712036
vn -0.02012634 0.9995117 -0.01712036
vn 0.03936768 0.9990234 0.01126862
vn 0.03936768 0.9990234 0.01126862
vn 0.01966858 1 0.003240585
vn 0.08398438 0.996582 0.004310608
vn 0.08398438 0.996582 0.004310608
vn 0.08398438 0.996582 0.004310608
vn 0.02374268 0.9956055 0.09039307
vn 0.02374268 0.9956055 0.09039307
vn 0.02374268 0.9956055 0.09039307
vn -0.0165863 0.9980469 -0.0619812
vn -0.0165863 0.9980469 -0.0619812
vn -0.0165863 0.9980469 -0.0619812
vn 0.006130219 1 0.002944946
vn 0.006130219 1 0.002944946
vn 0.006130219 1 0.002944946
vn -0.01387787 0.9970703 0.07696533
vn -0.01387787 0.9970703 0.07696533
vn -0.01387787 0.9970703 0.07696533
vn -0.04098511 0.9990234 -0.002836227
vn -0.04098511 0.9990234 -0.002836227
vn -0.04098511 0.9990234 -0.002836227
vn -0.09106445 0.9956055 -0.02023315
vn -0.09106445 0.9956055 -0.02023315
vn -0.0171051 0.9975586 0.06555176
vn -0.0171051 0.9975586 0.06555176
vn -0.0171051 0.9975586 0.06555176
vn -0.002355576 1 -0.0006093979
vn -0.002355576 1 -0.0006093979
vn -0.002355576 1 -0.0006093979
vn -0.08679199 0.9960938 -0.02249146
vn -0.08679199 0.9960938 -0.02249146
vn -0.08679199 0.9960938 -0.02249146
vn -0.08569336 0.9960938 -0.01860046
vn -0.08569336 0.9960938 -0.01860046
vn -0.08569336 0.9960938 -0.01860046
vn -0.06671143 0.9975586 0.02401733
vn -0.06671143 0.9975586 0.02401733
vn -0.06671143 0.9975586 0.02401733
vn -0.01178741 0.9990234 0.04351807
vn -0.01178741 0.9990234 0.04351807
vn -0.01178741 0.9990234 0.04351807
vn -0.01655579 0.9970703 0.07757568
vn -0.01655579 0.9970703 0.07757568
vn -0.01655579 0.9970703 0.07757568
vn -0.05932617 0.9975586 0.03009033
vn -0.05932617 0.9975586 0.03009033
vn -0.05932617 0.9975586 0.03009033
vn 0.06945801 0.9951172 -0.06848145
vn 0.06945801 0.9951172 -0.06848145
vn 0.06945801 0.9951172 -0.06848145
vn 0.06402588 0.9975586 -0.02124023
vn 0.06402588 0.9975586 -0.02124023
vn 0.06402588 0.9975586 -0.02124023
vn -0.3017578 0.5673828 -0.7661133
vn -0.3017578 0.5673828 -0.7661133
vn -0.3017578 0.5673828 -0.7661133
vn -0.2719727 0.5292969 -0.8037109
vn -0.2719727 0.5292969 -0.8037109
vn -0.2719727 0.5292969 -0.8037109
vn -0.3303223 0.5981445 -0.7304688
vn -0.3303223 0.5981445 -0.7304688
vn -0.3303223 0.5981445 -0.7304688
vn -0.3186035 0.5683594 -0.7587891
vn -0.3186035 0.5683594 -0.7587891
vn -0.3186035 0.5683594 -0.7587891
vn -0.6894531 0.5273438 0.4963379
vn -0.6894531 0.5273438 0.4963379
vn -0.6894531 0.5273438 0.4963379
vn -0.6254883 0.5947266 0.5053711
vn -0.6254883 0.5947266 0.5053711
vn -0.6254883 0.5947266 0.5053711
vn -0.2420654 0.5952148 0.7661133
vn -0.2420654 0.5952148 0.7661133
vn -0.2420654 0.5952148 0.7661133
vn -0.2128906 0.6206055 0.7543945
vn -0.2128906 0.6206055 0.7543945
vn -0.2128906 0.6206055 0.7543945
vn 0.263916 0.6269531 -0.7329102
vn 0.263916 0.6269531 -0.7329102
vn 0.263916 0.6269531 -0.7329102
vn 0.411377 0.4641113 -0.7841797
vn 0.411377 0.4641113 -0.7841797
vn 0.411377 0.4641113 -0.7841797
vn -0.8071289 0.4875488 -0.333252
vn -0.8071289 0.4875488 -0.333252
vn -0.8071289 0.4875488 -0.333252
vn -0.7998047 0.5175781 -0.3039551
vn -0.7998047 0.5175781 -0.3039551
vn -0.7998047 0.5175781 -0.3039551
vn 0.4008789 0.5664063 0.7197266
vn 0.4008789 0.5664063 0.7197266
vn 0.4008789 0.5664063 0.7197266
vn 0.3967285 0.5610352 0.7265625
vn 0.3967285 0.5610352 0.7265625
vn 0.3967285 0.5610352 0.7265625
vn 0.1710205 0.5405273 0.8237305
vn 0.1710205 0.5405273 0.8237305
vn 0.1710205 0.5405273 0.8237305
vn 0.1862793 0.5595703 0.8076172
vn 0.1862793 0.5595703 0.8076172
vn 0.1862793 0.5595703 0.8076172
vn -0.7700195 0.5722656 0.2824707
vn -0.7700195 0.5722656 0.2824707
vn -0.7700195 0.5722656 0.2824707
vn -0.8598633 0.4685059 0.2023926
vn -0.8598633 0.4685059 0.2023926
vn -0.8598633 0.4685059 0.2023926
vn -0.8554688 0.4831543 -0.1860352
vn -0.8554688 0.4831543 -0.1860352
vn -0.8554688 0.4831543 -0.1860352
vn -0.8256836 0.5610352 -0.05917358
vn -0.8256836 0.5610352 -0.05917358
vn -0.8256836 0.5610352 -0.05917358
vn -0.3762207 0.5532227 0.7431641
vn -0.3762207 0.5532227 0.7431641
vn -0.3762207 0.5532227 0.7431641
vn -0.4804688 0.4990234 0.7211914
vn -0.4804688 0.4990234 0.7211914
vn -0.4804688 0.4990234 0.7211914
vn 0.5507813 0.5849609 -0.5957031
vn 0.5507813 0.5849609 -0.5957031
vn 0.5507813 0.5849609 -0.5957031
vn 0.6538086 0.4780273 -0.5869141
vn 0.6538086 0.4780273 -0.5869141
vn 0.6538086 0.4780273 -0.5869141
vn 0.2980957 0.5722656 -0.7641602
vn 0.2980957 0.5722656 -0.7641602
vn 0.2980957 0.5722656 -0.7641602
vn 0.2521973 0.6264648 -0.737793
vn 0.2521973 0.6264648 -0.737793
vn 0.2521973 0.6264648 -0.737793
vn -0.03967285 0.5322266 -0.8457031
vn -0.03967285 0.5322266 -0.8457031
vn -0.03967285 0.5322266 -0.8457031
vn -0.08428955 0.5771484 -0.8125
vn -0.08428955 0.5771484 -0.8125
vn -0.08428955 0.5771484 -0.8125
vn 0.01899719 0.574707 -0.8178711
vn 0.01899719 0.574707 -0.8178711
vn 0.01899719 0.574707 -0.8178711
vn 0.009246826 0.5810547 -0.8134766
vn 0.009246826 0.5810547 -0.8134766
vn 0.009246826 0.5810547 -0.8134766
vn -0.4755859 0.4030762 0.7817383
vn -0.4755859 0.4030762 0.7817383
vn -0.4755859 0.4030762 0.7817383
vn -0.3442383 0.5888672 0.7314453
vn -0.3442383 0.5888672 0.7314453
vn -0.3442383 0.5888672 0.7314453
vn -0.1182861 0.5708008 0.8125
vn -0.1182861 0.5708008 0.8125
vn -0.1182861 0.5708008 0.8125
vn -0.1263428 0.5595703 0.8188477
vn -0.1263428 0.5595703 0.8188477
vn -0.1263428 0.5595703 0.8188477
vn 0.008338928 0.9970703 -0.07849121
vn 0.008338928 0.9970703 -0.07849121
vn 0.008338928 0.9970703 -0.07849121
vn 0.05413818 0.9985352 -0.01565552
vn 0.05413818 0.9985352 -0.01565552
vn 0.05413818 0.9985352 -0.01565552
vn 0.02806091 0.9980469 0.05337524
vn 0.02806091 0.9980469 0.05337524
vn 0.02806091 0.9980469 0.05337524
vn -0.02578735 0.9995117 -0.02314758
vn -0.02578735 0.9995117 -0.02314758
vn -0.02578735 0.9995117 -0.02314758
vn 0.01661682 0.9975586 0.06628418
vn 0.01661682 0.9975586 0.06628418
vn 0.01661682 0.9975586 0.06628418
vn 0.03088379 0.9990234 -0.02297974
vn 0.03088379 0.9990234 -0.02297974
vn 0.03088379 0.9990234 -0.02297974
vn -0.07867432 0.9956055 -0.04815674
vn -0.07867432 0.9956055 -0.04815674
vn -0.07867432 0.9956055 -0.04815674
vn -0.1100464 0.9931641 -0.04055786
vn -0.1100464 0.9931641 -0.04055786
vn -0.1100464 0.9931641 -0.04055786
vn -0.0280304 0.9995117 -0.02392578
vn -0.0280304 0.9995117 -0.02392578
vn -0.0280304 0.9995117 -0.02392578
vn -0.08154297 0.996582 -0.008621216
vn -0.08154297 0.996582 -0.008621216
vn -0.08154297 0.996582 -0.008621216
vn -0.02558899 0.9995117 0.001823425
vn -0.02558899 0.9995117 0.001823425
vn -0.02558899 0.9995117 0.001823425
vn -0.04388428 0.9985352 0.03613281
vn -0.04388428 0.9985352 0.03613281
vn -0.04388428 0.9985352 0.03613281
vn -0.06738281 0.9975586 0.001198769
vn -0.06738281 0.9975586 0.001198769
vn -0.06738281 0.9975586 0.001198769
vn -0.050354 0.009407043 -0.9985352
vn -0.050354 0.009407043 -0.9985352
vn -0.050354 0.009407043 -0.9985352
vn -0.05117798 0.009963989 -0.9985352
vn 0.08758545 0.03295898 -0.9956055
vn 0.08758545 0.03295898 -0.9956055
vn 0.08758545 0.03295898 -0.9956055
vn 0.09088135 0.03065491 -0.9956055
vn -0.2524414 0.07788086 0.9643555
vn -0.2524414 0.07788086 0.9643555
vn -0.2524414 0.07788086 0.9643555
vn -0.2449951 0.08703613 0.9658203
vn -0.07781982 0.06304932 0.9951172
vn -0.07781982 0.06304932 0.9951172
vn -0.07781982 0.06304932 0.9951172
vn -0.08258057 0.05834961 0.9951172
vn -0.6469727 0.1281738 0.7514648
vn -0.6469727 0.1281738 0.7514648
vn -0.6469727 0.1281738 0.7514648
vn -0.6323242 0.1530762 0.7592773
vn 0.9604492 0.003993988 0.2790527
vn 0.9604492 0.003993988 0.2790527
vn 0.9604492 0.003993988 0.2790527
vn 0.9599609 0.003740311 0.2792969
vn -0.6323242 0.04998779 0.7729492
vn -0.6323242 0.04998779 0.7729492
vn -0.6323242 0.04998779 0.7729492
vn -0.6416016 0.04284668 0.765625
vn 0.918457 0.007888794 0.395752
vn 0.918457 0.007888794 0.395752
vn 0.918457 0.007888794 0.395752
vn 0.9165039 0.006412506 0.3994141
vn -0.9379883 0.168457 -0.3032227
vn -0.9379883 0.168457 -0.3032227
vn -0.9379883 0.168457 -0.3032227
vn -0.934082 0.1525879 -0.3222656
vn -0.1932373 0.05670166 0.9794922
vn -0.1932373 0.05670166 0.9794922
vn -0.1932373 0.05670166 0.9794922
vn -0.1768799 0.06039429 0.9824219
vn -0.8886719 0.1646729 0.4274902
vn -0.8886719 0.1646729 0.4274902
vn -0.8886719 0.1646729 0.4274902
vn -0.8696289 0.1801758 0.4594727
vn 0.3708496 0.04244995 0.9277344
vn 0.3708496 0.04244995 0.9277344
vn 0.3708496 0.04244995 0.9277344
vn 0.3720703 0.04324341 0.9272461
vn 0.7373047 0.01394653 -0.675293
vn 0.7373047 0.01394653 -0.675293
vn 0.7373047 0.01394653 -0.675293
vn 0.7436523 0.008178711 -0.6689453
vn 0.3706055 0.01441956 -0.9287109
vn 0.3706055 0.01441956 -0.9287109
vn 0.3706055 0.01441956 -0.9287109
vn 0.378418 0.00818634 -0.9257813
vn -0.6811523 0.07977295 -0.7280273
vn -0.6811523 0.07977295 -0.7280273
vn -0.6811523 0.07977295 -0.7280273
vn -0.6777344 0.07794189 -0.7314453
vn -0.03985596 0.04745483 -0.9980469
vn -0.03985596 0.04745483 -0.9980469
vn -0.03985596 0.04745483 -0.9980469
vn -0.03894043 0.04638672 -0.9980469
vn 0.5473633 0.02218628 -0.8369141
vn 0.5473633 0.02218628 -0.8369141
vn 0.5473633 0.02218628 -0.8369141
vn 0.5527344 0.01861572 -0.8334961
vn -0.1286621 0.04974365 -0.9902344
vn -0.1286621 0.04974365 -0.9902344
vn -0.1286621 0.04974365 -0.9902344
vn -0.1256104 0.04614258 -0.9912109
vn 0.1322021 0.05697632 0.9897461
vn 0.1322021 0.05697632 0.9897461
vn 0.1322021 0.05697632 0.9897461
vn 0.1289063 0.05175781 0.9902344
vn 0.5942383 0.6220703 -0.5102539
vn 0.5942383 0.6220703 -0.5102539
vn 0.5942383 0.6220703 -0.5102539
vn 0.5917969 0.6235352 -0.5107422
vn 0.4973145 0.668457 0.5532227
vn 0.4973145 0.668457 0.5532227
vn 0.4973145 0.668457 0.5532227
vn 0.4958496 0.6635742 0.5600586
vn 0.7348633 0.6499023 0.1925049
vn 0.7348633 0.6499023 0.1925049
vn 0.7348633 0.6499023 0.1925049
vn 0.7314453 0.6552734 0.1879883
vn -0.6679688 0.6625977 0.3388672
vn -0.6679688 0.6625977 0.3388672
vn -0.6679688 0.6625977 0.3388672
vn -0.684082 0.6513672 0.3278809
vn -0.1356201 0.5917969 0.7949219
vn -0.1356201 0.5917969 0.7949219
vn -0.1356201 0.5917969 0.7949219
vn -0.1677246 0.5893555 0.7905273
vn 0.7729492 0.5825195 0.2509766
vn 0.7729492 0.5825195 0.2509766
vn 0.7729492 0.5825195 0.2509766
vn 0.7636719 0.5737305 0.2966309
vn -0.02609253 0.6323242 -0.7744141
vn -0.02609253 0.6323242 -0.7744141
vn -0.02609253 0.6323242 -0.7744141
vn -0.04077148 0.640625 -0.7670898
vn 0.4414063 0.6137695 -0.6547852
vn 0.4414063 0.6137695 -0.6547852
vn 0.4414063 0.6137695 -0.6547852
vn 0.4372559 0.6162109 -0.6547852
vn -0.04534912 0.6699219 0.7412109
vn -0.04534912 0.6699219 0.7412109
vn -0.04534912 0.6699219 0.7412109
vn -0.06921387 0.6455078 0.7607422
vn 0.2854004 0.02482605 -0.9580078
vn 0.2854004 0.02482605 -0.9580078
vn 0.2854004 0.02482605 -0.9580078
vn 0.2875977 0.02279663 -0.9575195
vn 0.003608704 0.04519653 -0.9990234
vn 0.003608704 0.04519653 -0.9990234
vn 0.003608704 0.04519653 -0.9990234
vn 0.002231598 0.0458374 -0.9990234
vn -0.3417969 0.0715332 -0.9370117
vn -0.3417969 0.0715332 -0.9370117
vn -0.3417969 0.0715332 -0.9370117
vn -0.3505859 0.06365967 -0.9345703
vn -0.3024902 0.05981445 -0.9511719
vn -0.3024902 0.05981445 -0.9511719
vn -0.300293 0.05838013 -0.9521484
vn -0.9829102 0.1541748 -0.09954834
vn -0.9829102 0.1541748 -0.09954834
vn -0.9829102 0.1541748 -0.09954834
vn -0.9829102 0.149292 -0.1082764
vn -0.130127 0.06658936 0.9892578
vn -0.130127 0.06658936 0.9892578
vn -0.130127 0.06658936 0.9892578
vn -0.1280518 0.06854248 0.9892578
vn -0.4406738 0.02456665 0.8974609
vn -0.4406738 0.02456665 0.8974609
vn -0.4406738 0.02456665 0.8974609
vn -0.440918 0.02436829 0.8974609
vn -0.7353516 0.1077271 0.6694336
vn -0.7353516 0.1077271 0.6694336
vn -0.7353516 0.1077271 0.6694336
vn -0.7226563 0.1223755 0.6801758
vn 0.9731445 0.05993652 0.2226563
vn 0.9731445 0.05993652 0.2226563
vn 0.9731445 0.05993652 0.2226563
vn 0.9731445 0.06225586 0.2205811
vn 0.4326172 0.02790833 -0.9008789
vn 0.4326172 0.02790833 -0.9008789
vn 0.4326172 0.02790833 -0.9008789
vn 0.4353027 0.02502441 -0.8999023
vn -0.2958984 0.02902222 0.9545898
vn -0.2958984 0.02902222 0.9545898
vn -0.2958984 0.02902222 0.9545898
vn -0.2961426 0.02874756 0.9545898
vn 0.7773438 0.01669312 0.6289063
vn 0.7773438 0.01669312 0.6289063
vn 0.7773438 0.01669312 0.6289063
vn 0.777832 0.0174408 0.628418
vn -0.9282227 0.1117554 -0.354248
vn -0.9282227 0.1117554 -0.354248
vn -0.9282227 0.1117554 -0.354248
vn -0.9243164 0.1035156 -0.3669434
vn -0.5263672 0.07354736 0.847168
vn -0.5263672 0.07354736 0.847168
vn -0.5263672 0.07354736 0.847168
vn -0.512207 0.07971191 0.8549805
vn -0.9638672 0.1210938 0.2373047
vn -0.9638672 0.1210938 0.2373047
vn -0.9638672 0.1210938 0.2373047
vn -0.9619141 0.1237183 0.2436523
vn 0.4482422 0.02841187 0.8935547
vn 0.4482422 0.02841187 0.8935547
vn 0.4482422 0.02841187 0.8935547
vn 0.4492188 0.02882385 0.8930664
vn 0.4997559 0.03918457 -0.8652344
vn 0.4997559 0.03918457 -0.8652344
vn 0.4997559 0.03918457 -0.8652344
vn 0.5053711 0.0355835 -0.8623047
vn 0.7241211 0.03198242 -0.6889648
vn 0.7241211 0.03198242 -0.6889648
vn 0.7241211 0.03198242 -0.6889648
vn 0.7299805 0.02770996 -0.6831055
vn -0.3986816 0.06323242 -0.9150391
vn -0.3986816 0.06323242 -0.9150391
vn -0.3986816 0.06323242 -0.9150391
vn -0.3996582 0.06384277 -0.9145508
vn -0.09967041 0.05358887 -0.9936523
vn -0.09967041 0.05358887 -0.9936523
vn -0.09967041 0.05358887 -0.9936523
vn -0.1016846 0.05484009 -0.9931641
vn 0.4699707 0.03451538 -0.8818359
vn 0.4699707 0.03451538 -0.8818359
vn 0.4699707 0.03451538 -0.8818359
vn 0.4748535 0.0324707 -0.8793945
vn 0.6640625 0.06323242 0.7451172
vn 0.6640625 0.06323242 0.7451172
vn 0.6640625 0.06323242 0.7451172
vn 0.6674805 0.06671143 0.7416992
vn 0.2163086 0.04998779 0.9750977
vn 0.2163086 0.04998779 0.9750977
vn 0.2163086 0.04998779 0.9750977
vn 0.215332 0.04934692 0.9750977
vn 0.4133301 0.6020508 -0.6831055
vn 0.4133301 0.6020508 -0.6831055
vn 0.4133301 0.6020508 -0.6831055
vn 0.425293 0.5927734 -0.684082
vn 0.5742188 0.5947266 0.5629883
vn 0.5742188 0.5947266 0.5629883
vn 0.5742188 0.5947266 0.5629883
vn 0.5751953 0.5981445 0.5576172
vn 0.784668 0.5976563 0.1660156
vn 0.784668 0.5976563 0.1660156
vn 0.784668 0.5976563 0.1660156
vn 0.7861328 0.5952148 0.1682129
vn 0.659668 0.578125 0.4802246
vn 0.659668 0.578125 0.4802246
vn 0.659668 0.578125 0.4802246
vn 0.6601563 0.5649414 0.4946289
vn 0.4123535 0.5625 -0.7167969
vn 0.4123535 0.5625 -0.7167969
vn 0.4123535 0.5625 -0.7167969
vn 0.4055176 0.5673828 -0.7167969
vn -0.3522949 0.5244141 -0.7749023
vn -0.3522949 0.5244141 -0.7749023
vn -0.3522949 0.5244141 -0.7749023
vn -0.3527832 0.5249023 -0.7744141
vn 0.04785156 0.9985352 -0.01841736
vn 0.06256104 0.9980469 -0.0199585
vn 0.065979 0.9975586 -0.01754761
vn 0.04785156 0.9985352 -0.01841736
vn 0.04785156 0.9985352 -0.01841736
vn 0.06762695 0.9975586 -0.006484985
vn 0.06762695 0.9975586 -0.006484985
vn 0.04699707 0.9990234 -0.01488495

vt 0.08331299 0
vt 0.25 0.7207031
vt 0.25 0
vt 0.25 0.7207031
vt 0.08331299 0
vt 0.08331299 0.7207031
vt 0.270752 0
vt 0.25 0.7207031
vt 0.270752 0.7207031
vt 0.25 0.7207031
vt 0.270752 0
vt 0.25 0
vt 0.3081055 1
vt 0.6298828 1
vt 0.5498047 1
vt 0.6298828 1
vt 0.3081055 1
vt 0.7089844 1
vt 0.75 0
vt 0.7084961 0.7207031
vt 0.75 0.7207031
vt 0.7084961 0.7207031
vt 0.75 0
vt 0.7084961 0
vt 0.6665039 0
vt 0.625 0.7207031
vt 0.6665039 0.7207031
vt 0.625 0.7207031
vt 0.6665039 0
vt 0.625 0
vt 0.9819336 1.762695
vt 0.7250977 1
vt 0.5292969 1
vt 0.7250977 1
vt 0.9819336 1.762695
vt 1.454102 1.486328
vt 0.2341309 0.9521484
vt 0.5292969 1
vt 0.282959 1
vt 0.5292969 1
vt 0.2341309 0.9521484
vt 0.489502 1.009766
vt 0.03985596 0.8569336
vt 0.1690674 1
vt 0.1290283 1
vt 0.1690674 1
vt 0.03985596 0.8569336
vt -0.004165649 0.9345703
vt 0.6152344 1.504883
vt 0.4018555 1
vt 0.3081055 1
vt 0.4018555 1
vt 0.6152344 1.504883
vt 0.6157227 1.433594
vt 0.75 0.7207031
vt 0.7089844 1
vt 0.7001953 1
vt 0.7089844 1
vt 0.75 0.7207031
vt 0.7084961 0.7207031
vt 0.1887207 0.8232422
vt -0.01275635 1
vt 0.1690674 1
vt -0.01275635 1
vt 0.1887207 0.8232422
vt 0.1418457 0.8330078
vt 0.3103027 0.8950195
vt 0.3088379 1
vt 0.4018555 1
vt 0.3088379 1
vt 0.3103027 0.8950195
vt 0.2214355 0.9052734
vt 0.189209 0.9379883
vt 0.1605225 1
vt 0.2553711 1
vt 0.1605225 1
vt 0.189209 0.9379883
vt 0.07696533 0.9790039
vt 0.2338867 1.320313
vt 0.282959 1
vt 0.2282715 1
vt 0.282959 1
vt 0.2338867 1.320313
vt 0.4331055 1.299805
vt 0.8334961 0.7207031
vt 0.7202148 1
vt 0.5800781 1
vt 0.7202148 1
vt 0.8334961 0.7207031
vt 0.7915039 0.7207031
vt 0.8359375 1.148438
vt 0.8569336 1
vt 0.7480469 1
vt 0.8569336 1
vt 0.8359375 1.148438
vt 0.9946289 1.094727
vt 0.8823242 1.151367
vt 0.8134766 1
vt 0.7431641 1
vt 0.8134766 1
vt 0.8823242 1.151367
vt 0.9770508 1.134766
vt 0.9882813 2.072266
vt 0.7480469 1
vt 0.7250977 1
vt 0.7480469 1
vt 0.9882813 2.072266
vt 1.302734 2.027344
vt 0.1854248 1.083984
vt 0.1290283 1
vt 0.1605225 1
vt 0.1290283 1
vt 0.1854248 1.083984
vt 0.1945801 1.058594
vt 0.7202148 1
vt 0.3081055 1
vt 0.4018555 1
vt 0.5800781 1
vt 0.3088379 1
vt 0.7431641 1
vt 0.7202148 1
vt 0.7089844 1
vt 0.3081055 1
vt 0.7089844 1
vt 0.7202148 1
vt 0.7001953 1
vt 0.1605225 1
vt 0.3088379 1
vt 0.2553711 1
vt 0.3088379 1
vt 0.1605225 1
vt 0.7431641 1
vt 0.5800781 1
vt 0.7431641 1
vt 0.8134766 1
vt 0.7480469 1
vt 0.1605225 1
vt 0.1290283 1
vt -0.01275635 1
vt 0.7250977 1
vt 0.7431641 1
vt 0.7480469 1
vt 0.8569336 1
vt 0.7480469 1
vt 0.7431641 1
vt 0.1605225 1
vt -0.01275635 1
vt 0.1290283 1
vt 0.1690674 1
vt 0.1290283 1
vt 0.7250977 1
vt 0.7480469 1
vt 0.5292969 1
vt -0.01275635 1
vt 0.2836914 1
vt -0.01275635 1
vt 0.5292969 1
vt 0.7250977 1
vt 0.5292969 1
vt 0.2282715 1
vt 0.282959 1
vt 0.2282715 1
vt 0.5292969 1
vt 0.2836914 1
vt 0.3081055 1
vt 0.6298828 1
vt 0.5498047 1
vt 0.6298828 1
vt 0.3081055 1
vt 0.7089844 1
vt 0.9819336 1.762695
vt 0.7250977 1
vt 0.5292969 1
vt 0.7250977 1
vt 0.9819336 1.762695
vt 1.454102 1.486328
vt 0.2341309 0.9521484
vt 0.5292969 1
vt 0.282959 1
vt 0.5292969 1
vt 0.2341309 0.9521484
vt 0.489502 1.009766
vt 0.03985596 0.8569336
vt 0.1690674 1
vt 0.1290283 1
vt 0.1690674 1
vt 0.03985596 0.8569336
vt -0.004165649 0.9345703
vt 0.6152344 1.504883
vt 0.4018555 1
vt 0.3081055 1
vt 0.4018555 1
vt 0.6152344 1.504883
vt 0.6157227 1.433594
vt 0.75 0.7207031
vt 0.7089844 1
vt 0.7001953 1
vt 0.7089844 1
vt 0.75 0.7207031
vt 0.7084961 0.7207031
vt 0.1887207 0.8232422
vt -0.01275635 1
vt 0.1690674 1
vt -0.01275635 1
vt 0.1887207 0.8232422
vt 0.1418457 0.8330078
vt 0.3103027 0.8950195
vt 0.3088379 1
vt 0.4018555 1
vt 0.3088379 1
vt 0.3103027 0.8950195
vt 0.2214355 0.9052734
vt 0.189209 0.9379883
vt 0.1605225 1
vt 0.2553711 1
vt 0.1605225 1
vt 0.189209 0.9379883
vt 0.07696533 0.9790039
vt 0.1689453 1.164063
vt 0.2836914 1
vt -0.01275635 1
vt 0.2836914 1
vt 0.1689453 1.164063
vt 0.2265625 1.162109
vt 0.2338867 1.320313
vt 0.282959 1
vt 0.2282715 1
vt 0.282959 1
vt 0.2338867 1.320313
vt 0.4331055 1.299805
vt 0.1967773 0.8188477
vt 0.2282715 1
vt 0.2836914 1
vt 0.2282715 1
vt 0.1967773 0.8188477
vt 0.1538086 0.8237305
vt 0.8334961 0.7207031
vt 0.7202148 1
vt 0.5800781 1
vt 0.7202148 1
vt 0.8334961 0.7207031
vt 0.7915039 0.7207031
vt 0.7915039 0.7207031
vt 0.7001953 1
vt 0.7202148 1
vt 0.7001953 1
vt 0.7915039 0.7207031
vt 0.75 0.7207031
vt 0.8359375 1.148438
vt 0.8569336 1
vt 0.7480469 1
vt 0.8569336 1
vt 0.8359375 1.148438
vt 0.9946289 1.094727
vt 0.8823242 1.151367
vt 0.8134766 1
vt 0.7431641 1
vt 0.8134766 1
vt 0.8823242 1.151367
vt 0.9770508 1.134766
vt 0.625 0.7207031
vt 0.3081055 1
vt 0.5498047 1
vt 0.3081055 1
vt 0.625 0.7207031
vt 0.5834961 0.7207031
vt 0.1854248 1.083984
vt 0.1290283 1
vt 0.1605225 1
vt 0.1290283 1
vt 0.1854248 1.083984
vt 0.1945801 1.058594
vt 0.1605225 1
vt 0.3088379 1
vt 0.2553711 1
vt 0.3088379 1
vt 0.1605225 1
vt 0.7431641 1
vt 0.5800781 1
vt 0.7431641 1
vt 0.8134766 1
vt 0.7480469 1
vt 0.1605225 1
vt 0.1290283 1
vt 0.7431641 1
vt 0.7480469 1
vt 0.8569336 1
vt 0.7480469 1
vt 0.7431641 1
vt 0.1605225 1
vt -0.01275635 1
vt 0.1290283 1
vt 0.1690674 1
vt 0.1290283 1
vt -0.01275635 1
vt 0.7250977 1
vt 0.1290283 1
vt 0.7250977 1
vt 0.7480469 1
vt 0.5292969 1
vt -0.01275635 1
vt 0.2836914 1
vt -0.01275635 1
vt 0.5292969 1
vt 0.7250977 1
vt 0.5292969 1
vt 0.2282715 1
vt 0.282959 1
vt 0.2282715 1
vt 0.5292969 1
vt 0.2836914 1
vt 0.7915039 0
vt 0.75 0.7207031
vt 0.7915039 0.7207031
vt 0.75 0
vt -0.0625 0
vt -0.08331299 0.7207031
vt -0.0625 0.7207031
vt -0.08331299 0
vt 0.4375 0
vt 0.416748 0.7207031
vt 0.4375 0.7207031
vt 0.416748 0
vt 0.625 0
vt 0.5834961 0.7207031
vt 0.625 0.7207031
vt 0.5834961 0
vt 0.416748 0
vt 0.333252 0.7207031
vt 0.416748 0.7207031
vt 0.333252 0
vt 0.7084961 0
vt 0.6665039 0.7207031
vt 0.7084961 0.7207031
vt 0.6665039 0
vt 0.5834961 0
vt 0.5 0.7207031
vt 0.5834961 0.7207031
vt 0.5 0
vt 0.479248 0
vt 0.458252 0.7207031
vt 0.479248 0.7207031
vt 0.458252 0
vt 0.333252 0
vt 0.291748 0.7207031
vt 0.333252 0.7207031
vt 0.291748 0
vt 0.28125 0
vt 0.270752 0.7207031
vt 0.28125 0.7207031
vt 0.270752 0
vt 0.291748 0
vt 0.28125 0.7207031
vt 0.291748 0.7207031
vt 0.28125 0
vt 0.5 0
vt 0.479248 0.7207031
vt 0.5 0.7207031
vt 0.479248 0
vt 0.9165039 0
vt 0.8334961 0.7207031
vt 0.9165039 0.7207031
vt 0.8334961 0
vt 0.8334961 0
vt 0.7915039 0.7207031
vt 0.8334961 0.7207031
vt 0.7915039 0
vt 0.04165649 0
vt 0 0.7207031
vt 0.04165649 0.7207031
vt 0 0
vt 0 0
vt -0.04165649 0.7207031
vt 0 0.7207031
vt -0.04165649 0
vt -0.04165649 0
vt -0.0625 0.7207031
vt -0.04165649 0.7207031
vt -0.0625 0
vt 0.08331299 0
vt 0.04165649 0.7207031
vt 0.08331299 0.7207031
vt 0.04165649 0
vt 0.458252 0
vt 0.4375 0.7207031
vt 0.458252 0.7207031
vt 0.4375 0
vt 0.9165039 0.7207031
vt 0.5800781 1
vt 0.8134766 1
vt 0.8334961 0.7207031
vt 0.6665039 0.7207031
vt 0.5498047 1
vt 0.6298828 1
vt 0.625 0.7207031
vt 0.7084961 0.7207031
vt 0.6298828 1
vt 0.7089844 1
vt 0.6665039 0.7207031
vt 0.1689453 1.164063
vt 0.2836914 1
vt -0.01275635 1
vt 0.2265625 1.162109
vt 0.1967773 0.8188477
vt 0.2282715 1
vt 0.2836914 1
vt 0.1538086 0.8237305
vt 0.2248535 0.7670898
vt 0.2553711 1
vt 0.3088379 1
vt 0.1106567 0.7758789
vt 0.7915039 0.7207031
vt 0.7001953 1
vt 0.7202148 1
vt 0.75 0.7207031
vt 0.8564453 0.8227539
vt 0.7431641 1
vt 0.8569336 1
vt 0.8164063 0.8295898
vt 0.625 0.7207031
vt 0.3081055 1
vt 0.5498047 1
vt 0.5834961 0.7207031
vt 0.7915039 0
vt 0.75 0.7207031
vt 0.7915039 0.7207031
vt 0.75 0
vt -0.0625 0
vt -0.08331299 0.7207031
vt -0.0625 0.7207031
vt -0.08331299 0
vt 0.08331299 0
vt 0.25 0.7207031
vt 0.25 0
vt 0.08331299 0.7207031
vt 0.04165649 0.7207031
vt 0.08331299 0.7207031
vt 0.04165649 0
vt 0.270752 0
vt 0.25 0.7207031
vt 0.270752 0.7207031
vt 0.25 0
vt 0.4375 0
vt 0.416748 0.7207031
vt 0.4375 0.7207031
vt 0.416748 0
vt 0.625 0
vt 0.5834961 0.7207031
vt 0.625 0.7207031
vt 0.5834961 0
vt 0.416748 0
vt 0.333252 0.7207031
vt 0.416748 0.7207031
vt 0.333252 0
vt 0.7084961 0
vt 0.6665039 0.7207031
vt 0.7084961 0.7207031
vt 0.6665039 0
vt 0.75 0
vt 0.7084961 0.7207031
vt 0.75 0.7207031
vt 0.7084961 0
vt 0.5834961 0
vt 0.5 0.7207031
vt 0.5834961 0.7207031
vt 0.5 0
vt 0.479248 0
vt 0.458252 0.7207031
vt 0.479248 0.7207031
vt 0.458252 0
vt 0.333252 0
vt 0.291748 0.7207031
vt 0.333252 0.7207031
vt 0.291748 0
vt 0.28125 0
vt 0.270752 0.7207031
vt 0.28125 0.7207031
vt 0.270752 0
vt 0.291748 0
vt 0.28125 0.7207031
vt 0.291748 0.7207031
vt 0.28125 0
vt 0.5 0
vt 0.479248 0.7207031
vt 0.5 0.7207031
vt 0.479248 0
vt 0.9165039 0
vt 0.8334961 0.7207031
vt 0.9165039 0.7207031
vt 0.8334961 0
vt 0.8334961 0
vt 0.7915039 0.7207031
vt 0.8334961 0.7207031
vt 0.7915039 0
vt 0.04165649 0
vt 0 0.7207031
vt 0.04165649 0.7207031
vt 0 0
vt 0 0
vt -0.04165649 0.7207031
vt 0 0.7207031
vt -0.04165649 0
vt -0.04165649 0
vt -0.0625 0.7207031
vt -0.04165649 0.7207031
vt -0.0625 0
vt 0.6665039 0
vt 0.625 0.7207031
vt 0.6665039 0.7207031
vt 0.625 0
vt 0.458252 0
vt 0.4375 0.7207031
vt 0.458252 0.7207031
vt 0.4375 0
vt 0.9165039 0.7207031
vt 0.5800781 1
vt 0.8134766 1
vt 0.8334961 0.7207031
vt 0.6665039 0.7207031
vt 0.5498047 1
vt 0.6298828 1
vt 0.625 0.7207031
vt 0.7084961 0.7207031
vt 0.6298828 1
vt 0.7089844 1
vt 0.6665039 0.7207031
vt 0.2248535 0.7670898
vt 0.2553711 1
vt 0.3088379 1
vt 0.1106567 0.7758789
vt 0.8564453 0.8227539
vt 0.7431641 1
vt 0.8569336 1
vt 0.8164063 0.8295898
vt 0.9882813 2.072266
vt 0.7480469 1
vt 0.7250977 1
vt 1.302734 2.027344
vt 0.3081055 1
vt 0.7001953 1
vt 0.7089844 1
vt 0.7202148 1
vt 0.4018555 1
vt 0.5800781 1
vt 0.3088379 1
vt 0.7431641 1

g Mountain_05_(5)_365_17
usemtl Mountain_05_(5)_365_17
usemap Mountain_05_(5)_365_17
f 1/1/1 3/3/3 2/2/2
f 4/4/4 6/6/6 5/5/5
f 7/7/7 9/9/9 8/8/8
f 10/10/10 12/12/12 11/11/11
f 13/13/13 15/15/15 14/14/14
f 16/16/16 18/18/18 17/17/17
f 19/19/19 21/21/21 20/20/20
f 22/22/22 24/24/24 23/23/23
f 25/25/25 27/27/27 26/26/26
f 28/28/28 30/30/30 29/29/29
f 31/31/31 33/33/33 32/32/32
f 34/34/34 36/36/36 35/35/35
f 37/37/37 39/39/39 38/38/38
f 40/40/40 42/42/42 41/41/41
f 43/43/43 45/45/45 44/44/44
f 46/46/46 48/48/48 47/47/47
f 49/49/49 51/51/51 50/50/50
f 52/52/52 54/54/54 53/53/53
f 55/55/55 57/57/57 56/56/56
f 58/58/58 60/60/60 59/59/59
f 61/61/61 63/63/63 62/62/62
f 64/64/64 66/66/66 65/65/65
f 67/67/67 69/69/69 68/68/68
f 70/70/70 72/72/72 71/71/71
f 73/73/73 75/75/75 74/74/74
f 76/76/76 78/78/78 77/77/77
f 79/79/79 81/81/81 80/80/80
f 82/82/82 84/84/84 83/83/83
f 85/85/85 87/87/87 86/86/86
f 88/88/88 90/90/90 89/89/89
f 91/91/91 93/93/93 92/92/92
f 94/94/94 96/96/96 95/95/95
f 97/97/97 99/99/99 98/98/98
f 100/100/100 102/102/102 101/101/101
f 103/103/103 105/105/105 104/104/104
f 106/106/106 108/108/108 107/107/107
f 109/109/109 111/111/111 110/110/110
f 112/112/112 114/114/114 113/113/113
f 115/115/115 117/117/117 116/116/116
f 118/118/118 119/119/119 117/117/117
f 120/120/120 119/119/119 118/118/118
f 117/117/117 121/121/121 118/118/118
f 121/121/121 123/123/123 122/122/122
f 124/124/124 126/126/126 125/125/125
f 127/127/127 129/129/129 128/128/128
f 130/130/130 132/132/132 131/131/131
f 133/133/133 135/135/135 134/134/134
f 136/136/136 138/138/138 137/137/137
f 138/138/138 140/140/140 139/139/139
f 141/141/141 143/143/143 142/142/142
f 144/144/144 146/146/146 145/145/145
f 147/147/147 149/149/149 148/148/148
f 150/150/150 152/152/152 151/151/151
f 153/153/153 155/155/155 154/154/154
f 156/156/156 158/158/158 157/157/157
f 159/159/159 161/161/161 160/160/160
f 162/162/162 164/164/164 163/163/163
f 165/165/165 167/167/167 166/166/166
f 168/168/168 170/170/170 169/169/169
f 171/171/171 173/173/173 172/172/172
f 174/174/174 176/176/176 175/175/175
f 177/177/177 179/179/179 178/178/178
f 180/180/180 182/182/182 181/181/181
f 183/183/183 185/185/185 184/184/184
f 186/186/186 188/188/188 187/187/187
f 189/189/189 191/191/191 190/190/190
f 192/192/192 194/194/194 193/193/193
f 195/195/195 197/197/197 196/196/196
f 198/198/198 200/200/200 199/199/199
f 201/201/201 203/203/203 202/202/202
f 204/204/204 206/206/206 205/205/205
f 207/207/207 209/209/209 208/208/208
f 210/210/210 212/212/212 211/211/211
f 213/213/213 215/215/215 214/214/214
f 216/216/216 218/218/218 217/217/217
f 219/219/219 221/221/221 220/220/220
f 222/222/222 224/224/224 223/223/223
f 225/225/225 227/227/227 226/226/226
f 228/228/228 230/230/230 229/229/229
f 231/231/231 233/233/233 232/232/232
f 234/234/234 236/236/236 235/235/235
f 237/237/237 239/239/239 238/238/238
f 240/240/240 242/242/242 241/241/241
f 243/243/243 245/245/245 244/244/244
f 246/246/246 248/248/248 247/247/247
f 249/249/249 251/251/251 250/250/250
f 252/252/252 254/254/254 253/253/253
f 255/255/255 257/257/257 256/256/256
f 258/258/258 260/260/260 259/259/259
f 261/261/261 263/263/263 262/262/262
f 264/264/264 266/266/266 265/265/265
f 267/267/267 269/269/269 268/268/268
f 270/270/270 272/272/272 271/271/271
f 273/273/273 275/275/275 274/274/274
f 276/276/276 278/278/278 277/277/277
f 279/279/279 281/281/281 280/280/280
f 282/282/282 284/284/284 283/283/283
f 285/285/285 287/287/287 286/286/286
f 288/288/288 290/290/290 289/289/289
f 291/291/291 293/293/293 292/292/292
f 294/294/294 296/296/296 295/295/295
f 297/297/297 299/299/299 298/298/298
f 300/300/300 302/302/302 301/301/301
f 303/303/303 305/305/305 304/304/304
f 306/306/306 308/308/308 307/307/307
f 309/309/309 311/311/311 310/310/310
f 312/312/312 314/314/314 313/313/313
f 313/313/313 315/315/315 312/312/312
f 316/316/316 318/318/318 317/317/317
f 317/317/317 319/319/319 316/316/316
f 320/320/320 322/322/322 321/321/321
f 321/321/321 323/323/323 320/320/320
f 324/324/324 326/326/326 325/325/325
f 325/325/325 327/327/327 324/324/324
f 328/328/328 330/330/330 329/329/329
f 329/329/329 331/331/331 328/328/328
f 332/332/332 334/334/334 333/333/333
f 333/333/333 335/335/335 332/332/332
f 336/336/336 338/338/338 337/337/337
f 337/337/337 339/339/339 336/336/336
f 340/340/340 342/342/342 341/341/341
f 341/341/341 343/343/343 340/340/340
f 344/344/344 346/346/346 345/345/345
f 345/345/345 347/347/347 344/344/344
f 348/348/348 350/350/350 349/349/349
f 349/349/349 351/351/351 348/348/348
f 352/352/352 354/354/354 353/353/353
f 353/353/353 355/355/355 352/352/352
f 356/356/356 358/358/358 357/357/357
f 357/357/357 359/359/359 356/356/356
f 360/360/360 362/362/362 361/361/361
f 361/361/361 363/363/363 360/360/360
f 364/364/364 366/366/366 365/365/365
f 365/365/365 367/367/367 364/364/364
f 368/368/368 370/370/370 369/369/369
f 369/369/369 371/371/371 368/368/368
f 372/372/372 374/374/374 373/373/373
f 373/373/373 375/375/375 372/372/372
f 376/376/376 378/378/378 377/377/377
f 377/377/377 379/379/379 376/376/376
f 380/380/380 382/382/382 381/381/381
f 381/381/381 383/383/383 380/380/380
f 384/384/384 386/386/386 385/385/385
f 385/385/385 387/387/387 384/384/384
f 388/388/388 390/390/390 389/389/389
f 389/389/389 391/391/391 388/388/388
f 392/392/392 394/394/394 393/393/393
f 393/393/393 395/395/395 392/392/392
f 396/396/396 398/398/398 397/397/397
f 397/397/397 399/399/399 396/396/396
f 400/400/400 402/402/402 401/401/401
f 401/401/401 403/403/403 400/400/400
f 404/404/404 406/406/406 405/405/405
f 405/405/405 407/407/407 404/404/404
f 408/408/408 410/410/410 409/409/409
f 409/409/409 411/411/411 408/408/408
f 412/412/412 414/414/414 413/413/413
f 413/413/413 415/415/415 412/412/412
f 416/416/416 418/418/418 417/417/417
f 417/417/417 419/419/419 416/416/416
f 420/420/420 422/422/422 421/421/421
f 421/421/421 423/423/423 420/420/420
f 424/424/424 426/426/426 425/425/425
f 425/425/425 427/427/427 424/424/424
f 428/428/428 430/430/430 429/429/429
f 429/429/429 431/431/431 428/428/428
f 432/432/432 434/434/434 433/433/433
f 433/433/433 435/435/435 432/432/432
f 432/432/432 437/437/437 436/436/436
f 436/436/436 438/438/438 432/432/432
f 439/439/439 441/441/441 440/440/440
f 440/440/440 442/442/442 439/439/439
f 443/443/443 445/445/445 444/444/444
f 444/444/444 446/446/446 443/443/443
f 447/447/447 449/449/449 448/448/448
f 448/448/448 450/450/450 447/447/447
f 451/451/451 453/453/453 452/452/452
f 452/452/452 454/454/454 451/451/451
f 455/455/455 457/457/457 456/456/456
f 456/456/456 458/458/458 455/455/455
f 459/459/459 461/461/461 460/460/460
f 460/460/460 462/462/462 459/459/459
f 463/463/463 465/465/465 464/464/464
f 464/464/464 466/466/466 463/463/463
f 467/467/467 469/469/469 468/468/468
f 468/468/468 470/470/470 467/467/467
f 471/471/471 473/473/473 472/472/472
f 472/472/472 474/474/474 471/471/471
f 475/475/475 477/477/477 476/476/476
f 476/476/476 478/478/478 475/475/475
f 479/479/479 481/481/481 480/480/480
f 480/480/480 482/482/482 479/479/479
f 483/483/483 485/485/485 484/484/484
f 484/484/484 486/486/486 483/483/483
f 487/487/487 489/489/489 488/488/488
f 488/488/488 490/490/490 487/487/487
f 491/491/491 493/493/493 492/492/492
f 492/492/492 494/494/494 491/491/491
f 495/495/495 497/497/497 496/496/496
f 496/496/496 498/498/498 495/495/495
f 499/499/499 501/501/501 500/500/500
f 500/500/500 502/502/502 499/499/499
f 503/503/503 505/505/505 504/504/504
f 504/504/504 506/506/506 503/503/503
f 507/507/507 509/509/509 508/508/508
f 508/508/508 510/510/510 507/507/507
f 511/511/511 513/513/513 512/512/512
f 512/512/512 514/514/514 511/511/511
f 515/515/515 517/517/517 516/516/516
f 516/516/516 518/518/518 515/515/515
f 519/519/519 521/521/521 520/520/520
f 520/520/520 522/522/522 519/519/519
f 523/523/523 525/525/525 524/524/524
f 524/524/524 526/526/526 523/523/523
f 527/527/527 529/529/529 528/528/528
f 528/528/528 530/530/530 527/527/527
f 531/531/531 533/533/533 532/532/532
f 532/532/532 534/534/534 531/531/531
f 535/535/535 537/537/537 536/536/536
f 536/536/536 538/538/538 535/535/535
f 539/539/539 541/541/541 540/540/540
f 540/540/540 542/542/542 539/539/539
f 542/542/542 543/543/543 539/539/539
f 543/543/543 542/542/542 544/544/544
f 544/544/544 545/545/545 543/543/543
f 546/546/546 545/545/545 544/544/544
