#Mountain_05_(7)_361_9.obj

v -4.194438 3.737948 -3.558728E-07
v -7.160108 1.713943 1.266889
v -7.665709 1.715765 -1.633499E-07
v -7.160108 1.713943 1.266889
v -4.194438 3.737948 -3.558728E-07
v -3.933565 3.677027 1.31277
v -7.254385 0.09803882 -9.333838E-09
v -7.160108 1.713943 1.266889
v -6.854487 0.1266426 1.188133
v -7.160108 1.713943 1.266889
v -7.254385 0.09803882 -9.333838E-09
v -7.665709 1.715765 -1.633499E-07
v 3.665561 -2.792711 2.025192
v 6.156198 -2.111068 1.903582
v 5.057958 -2.911882 2.005747
v 6.156198 -2.111068 1.903582
v 3.665561 -2.792711 2.025192
v 6.808694 0.05541111 1.847594
v 6.027657 2.45016 -2.332686E-07
v 7.665709 0.1829343 1.190308
v 6.030297 2.431464 1.334739
v 7.665709 0.1829343 1.190308
v 6.027657 2.45016 -2.332686E-07
v 7.664266 0.1545409 -1.471312E-08
v 6.820558 -2.677266 2.548901E-07
v 5.309934 -3.71257 1.392306
v 6.840152 -2.588093 1.264772
v 5.309934 -3.71257 1.392306
v 6.820558 -2.677266 2.548901E-07
v 5.29036 -3.835665 3.651758E-07
v -3.933565 3.677027 1.31277
v -1.709409 3.24951 2.029637
v -3.601107 2.925806 2.003493
v -1.709409 3.24951 2.029637
v -3.933565 3.677027 1.31277
v -2.041348 3.910076 1.316083
v -7.160108 1.713943 1.266889
v -3.601107 2.925806 2.003493
v -6.175474 1.341345 1.885148
v -3.601107 2.925806 2.003493
v -7.160108 1.713943 1.266889
v -3.933565 3.677027 1.31277
v -4.095047 -3.787006 1.314834
v -5.23581 -1.696641 1.877561
v -3.676632 -3.064917 1.995974
v -5.23581 -1.696641 1.877561
v -4.095047 -3.787006 1.314834
v -6.215343 -1.96235 1.209017
v 3.379788 -3.550972 1.370015
v 2.69807 -1.994801 2.001729
v 3.665561 -2.792711 2.025192
v 2.69807 -1.994801 2.001729
v 3.379788 -3.550972 1.370015
v 2.563112 -2.877886 1.327934
v 6.030297 2.431464 1.334739
v 6.808694 0.05541111 1.847594
v 5.621321 1.662611 1.970607
v 6.808694 0.05541111 1.847594
v 6.030297 2.431464 1.334739
v 7.665709 0.1829343 1.190308
v -6.215343 -1.96235 1.209017
v -4.903864 -0.6808452 1.881354
v -5.23581 -1.696641 1.877561
v -4.903864 -0.6808452 1.881354
v -6.215343 -1.96235 1.209017
v -5.818846 -0.7554342 1.199843
v 2.563112 -2.877886 1.327934
v 0.9772551 -2.664854 2.044155
v 2.69807 -1.994801 2.001729
v 0.9772551 -2.664854 2.044155
v 2.563112 -2.877886 1.327934
v 1.519778 -3.286088 1.342203
v 1.200386 -4.013342 1.371663
v -1.721834 -3.588946 2.053878
v 0.7337851 -3.315433 2.070017
v -1.721834 -3.588946 2.053878
v 1.200386 -4.013342 1.371663
v -1.810347 -4.398075 1.340716
v -6.854487 0.1266426 1.188133
v -6.175474 1.341345 1.885148
v -6.145764 0.667838 1.84846
v -6.175474 1.341345 1.885148
v -6.854487 0.1266426 1.188133
v -7.160108 1.713943 1.266889
v 3.478029 2.897259 1.349744
v 4.602208 1.618831 1.984561
v 3.020835 2.256282 2.027464
v 4.602208 1.618831 1.984561
v 3.478029 2.897259 1.349744
v 4.761544 2.375828 1.331748
v -1.553586 4.357332 1.335882
v 0.3752393 3.630052 2.069616
v -1.255429 3.67537 2.051443
v 0.3752393 3.630052 2.069616
v -1.553586 4.357332 1.335882
v 0.5697158 4.425911 1.371162
v 1.39199 3.880753 1.362431
v 2.32968 3.012333 2.061683
v 1.141682 3.124537 2.055677
v 2.32968 3.012333 2.061683
v 1.39199 3.880753 1.362431
v 2.700606 3.756187 1.380967
v -2.041348 3.910076 1.316083
v -1.255429 3.67537 2.051443
v -1.709409 3.24951 2.029637
v -1.255429 3.67537 2.051443
v -2.041348 3.910076 1.316083
v -1.553586 4.357332 1.335882
v -1.810347 -4.398075 1.340716
v -3.676632 -3.064917 1.995974
v -1.721834 -3.588946 2.053878
v -3.676632 -3.064917 1.995974
v -1.810347 -4.398075 1.340716
v -4.095047 -3.787006 1.314834
v 4.602208 1.618831 1.984561
v 3.665561 -2.792711 2.025192
v 2.69807 -1.994801 2.001729
v 3.020835 2.256282 2.027464
v 0.9772551 -2.664854 2.044155
v 1.141682 3.124537 2.055677
v 4.602208 1.618831 1.984561
v 6.808694 0.05541111 1.847594
v 3.665561 -2.792711 2.025192
v 6.808694 0.05541111 1.847594
v 4.602208 1.618831 1.984561
v 5.621321 1.662611 1.970607
v -1.721834 -3.588946 2.053878
v 0.9772551 -2.664854 2.044155
v 0.7337851 -3.315433 2.070017
v 0.9772551 -2.664854 2.044155
v -1.721834 -3.588946 2.053878
v 1.141682 3.124537 2.055677
v 3.020835 2.256282 2.027464
v 1.141682 3.124537 2.055677
v 2.32968 3.012333 2.061683
v -1.255429 3.67537 2.051443
v -1.721834 -3.588946 2.053878
v -3.676632 -3.064917 1.995974
v -4.903864 -0.6808452 1.881354
v -1.709409 3.24951 2.029637
v 1.141682 3.124537 2.055677
v -1.255429 3.67537 2.051443
v 0.3752393 3.630052 2.069616
v -1.255429 3.67537 2.051443
v 1.141682 3.124537 2.055677
v -1.721834 -3.588946 2.053878
v -4.903864 -0.6808452 1.881354
v -3.676632 -3.064917 1.995974
v -5.23581 -1.696641 1.877561
v -3.676632 -3.064917 1.995974
v -1.709409 3.24951 2.029637
v -1.255429 3.67537 2.051443
v -3.601107 2.925806 2.003493
v -4.903864 -0.6808452 1.881354
v -5.550165 0.5868803 1.871905
v -4.903864 -0.6808452 1.881354
v -3.601107 2.925806 2.003493
v -1.709409 3.24951 2.029637
v -3.601107 2.925806 2.003493
v -6.145764 0.667838 1.84846
v -6.175474 1.341345 1.885148
v -6.145764 0.667838 1.84846
v -3.601107 2.925806 2.003493
v -5.550165 0.5868803 1.871905
v 2.988737 -0.9541724 3.558371
v 4.927302 -1.195458 3.47365
v 4.273017 -1.765046 3.533748
v 4.927302 -1.195458 3.47365
v 2.988737 -0.9541724 3.558371
v 5.275127 0.2153998 3.436962
v -2.726504 2.226574 3.111868
v -1.627335 2.100534 3.639845
v -2.490649 1.783752 3.623821
v -1.627335 2.100534 3.639845
v -2.726504 2.226574 3.111868
v -1.73683 2.531921 3.13609
v -4.2586 1.670021 3.040777
v -2.490649 1.783752 3.623821
v -3.781435 1.271405 3.570411
v -2.490649 1.783752 3.623821
v -4.2586 1.670021 3.040777
v -2.726504 2.226574 3.111868
v -2.762825 -2.637128 3.153882
v -3.24927 -1.241543 3.622845
v -2.524919 -2.152816 3.694747
v -3.24927 -1.241543 3.622845
v -2.762825 -2.637128 3.153882
v -3.835067 -1.467507 3.049566
v 2.862061 -1.444477 3.07532
v 1.87546 -0.558517 3.591151
v 2.988737 -0.9541724 3.558371
v 1.87546 -0.558517 3.591151
v 2.862061 -1.444477 3.07532
v 1.842499 -1.120214 3.100537
v 4.318973 1.081607 3.011748
v 5.275127 0.2153998 3.436962
v 4.085328 0.5904681 3.488198
v 5.275127 0.2153998 3.436962
v 4.318973 1.081607 3.011748
v 5.85276 0.3365158 2.925531
v -3.835067 -1.467507 3.049566
v -2.919596 -0.4388388 3.613438
v -3.24927 -1.241543 3.622845
v -2.919596 -0.4388388 3.613438
v -3.835067 -1.467507 3.049566
v -3.472837 -0.5373324 3.051367
v 1.842499 -1.120214 3.100537
v 0.8233228 -1.077237 3.643888
v 1.87546 -0.558517 3.591151
v 0.8233228 -1.077237 3.643888
v 1.842499 -1.120214 3.100537
v 1.200465 -1.435826 3.127697
v 0.2291425 -2.617826 3.18853
v -0.9632673 -2.359019 3.726503
v -0.08700199 -2.196547 3.711949
v -0.9632673 -2.359019 3.726503
v 0.2291425 -2.617826 3.18853
v -0.9861145 -2.878275 3.200277
v -3.472837 -0.5373324 3.051367
v -3.322779 0.5950943 3.583382
v -2.919596 -0.4388388 3.613438
v -3.322779 0.5950943 3.583382
v -3.472837 -0.5373324 3.051367
v -3.648597 0.1871689 3.038027
v -4.378533 0.6425574 2.999553
v -3.781435 1.271405 3.570411
v -3.885537 0.856468 3.556608
v -3.781435 1.271405 3.570411
v -4.378533 0.6425574 2.999553
v -4.2586 1.670021 3.040777
v -3.648597 0.1871689 3.038027
v -3.885537 0.856468 3.556608
v -3.322779 0.5950943 3.583382
v -3.885537 0.856468 3.556608
v -3.648597 0.1871689 3.038027
v -4.378533 0.6425574 2.999553
v 2.248857 2.168179 3.102163
v 2.789412 1.051328 3.539411
v 1.990716 1.749045 3.575721
v 2.789412 1.051328 3.539411
v 2.248857 2.168179 3.102163
v 2.852975 1.526857 3.06729
v 2.852975 1.526857 3.06729
v 4.085328 0.5904681 3.488198
v 2.789412 1.051328 3.539411
v 4.085328 0.5904681 3.488198
v 2.852975 1.526857 3.06729
v 4.318973 1.081607 3.011748
v -0.9990014 2.846004 3.15303
v -0.01927242 2.452519 3.640304
v -0.9187272 2.408834 3.648573
v -0.01927242 2.452519 3.640304
v -0.9990014 2.846004 3.15303
v 0.0588512 2.944872 3.156976
v 0.607042 2.649022 3.140079
v 1.247643 2.167134 3.606209
v 0.4927635 2.17458 3.621329
v 1.247643 2.167134 3.606209
v 0.607042 2.649022 3.140079
v 1.438891 2.641031 3.133259
v 4.504386 -2.265429 3.044842
v 2.988737 -0.9541724 3.558371
v 4.273017 -1.765046 3.533748
v 2.988737 -0.9541724 3.558371
v 4.504386 -2.265429 3.044842
v 2.862061 -1.444477 3.07532
v -0.9861145 -2.878275 3.200277
v -2.524919 -2.152816 3.694747
v -0.9632673 -2.359019 3.726503
v -2.524919 -2.152816 3.694747
v -0.9861145 -2.878275 3.200277
v -2.762825 -2.637128 3.153882
v -0.9632673 -2.359019 3.726503
v 0.8233228 -1.077237 3.643888
v -0.08700199 -2.196547 3.711949
v 0.8233228 -1.077237 3.643888
v -0.9632673 -2.359019 3.726503
v 0.4927635 2.17458 3.621329
v 1.990716 1.749045 3.575721
v 0.4927635 2.17458 3.621329
v 1.247643 2.167134 3.606209
v -0.9187272 2.408834 3.648573
v -0.9632673 -2.359019 3.726503
v -2.524919 -2.152816 3.694747
v 0.4927635 2.17458 3.621329
v -0.9187272 2.408834 3.648573
v -0.01927242 2.452519 3.640304
v -0.9187272 2.408834 3.648573
v 0.4927635 2.17458 3.621329
v -0.9632673 -2.359019 3.726503
v -2.919596 -0.4388388 3.613438
v -2.524919 -2.152816 3.694747
v -3.24927 -1.241543 3.622845
v -2.524919 -2.152816 3.694747
v -2.919596 -0.4388388 3.613438
v -1.627335 2.100534 3.639845
v -2.524919 -2.152816 3.694747
v -1.627335 2.100534 3.639845
v -0.9187272 2.408834 3.648573
v -2.490649 1.783752 3.623821
v -2.919596 -0.4388388 3.613438
v -3.322779 0.5950943 3.583382
v -2.919596 -0.4388388 3.613438
v -2.490649 1.783752 3.623821
v -1.627335 2.100534 3.639845
v -2.490649 1.783752 3.623821
v -3.885537 0.856468 3.556608
v -3.781435 1.271405 3.570411
v -3.885537 0.856468 3.556608
v -2.490649 1.783752 3.623821
v -3.322779 0.5950943 3.583382
v 4.759294 2.393445 -2.278688E-07
v 6.030297 2.431464 1.334739
v 4.761544 2.375828 1.331748
v 6.027657 2.45016 -2.332686E-07
v 1.356402 3.947886 -3.758598E-07
v 2.700606 3.756187 1.380967
v 1.39199 3.880753 1.362431
v 2.681239 3.818189 -3.635122E-07
v -1.948851 -4.5141 4.297666E-07
v -4.095047 -3.787006 1.314834
v -1.810347 -4.398075 1.340716
v -4.341542 -3.890434 3.703902E-07
v 5.29036 -3.835665 3.651758E-07
v 3.379788 -3.550972 1.370015
v 5.309934 -3.71257 1.392306
v 3.363269 -3.663091 3.487458E-07
v -4.341542 -3.890434 3.703902E-07
v -6.215343 -1.96235 1.209017
v -4.095047 -3.787006 1.314834
v -6.54524 -2.030144 1.932805E-07
v 7.664266 0.1545409 -1.471312E-08
v 6.840152 -2.588093 1.264772
v 7.665709 0.1829343 1.190308
v 6.820558 -2.677266 2.548901E-07
v 3.363269 -3.663091 3.487458E-07
v 2.563112 -2.877886 1.327934
v 3.379788 -3.550972 1.370015
v 2.547072 -2.969805 2.827415E-07
v 1.492748 -3.384924 3.22263E-07
v 1.200386 -4.013342 1.371663
v 1.519778 -3.286088 1.342203
v 1.162398 -4.129624 3.931622E-07
v -6.54524 -2.030144 1.932805E-07
v -5.818846 -0.7554342 1.199843
v -6.215343 -1.96235 1.209017
v -6.111477 -0.7985727 7.602853E-08
v -6.504948 -0.0419383 3.992841E-09
v -6.854487 0.1266426 1.188133
v -6.170844 -0.01196824 1.198651
v -7.254385 0.09803882 -9.333838E-09
v -6.111477 -0.7985727 7.602853E-08
v -6.170844 -0.01196824 1.198651
v -5.818846 -0.7554342 1.199843
v -6.504948 -0.0419383 3.992841E-09
v 2.547072 -2.969805 2.827415E-07
v 1.519778 -3.286088 1.342203
v 2.563112 -2.877886 1.327934
v 1.492748 -3.384924 3.22263E-07
v 2.681239 3.818189 -3.635122E-07
v 3.478029 2.897259 1.349744
v 2.700606 3.756187 1.380967
v 3.469428 2.930436 -2.789934E-07
v 3.469428 2.930436 -2.789934E-07
v 4.761544 2.375828 1.331748
v 3.478029 2.897259 1.349744
v 4.759294 2.393445 -2.278688E-07
v -2.185761 3.979221 -3.788431E-07
v -1.553586 4.357332 1.335882
v -2.041348 3.910076 1.316083
v -1.678719 4.44287 -4.22985E-07
v -1.678719 4.44287 -4.22985E-07
v 0.5697158 4.425911 1.371162
v -1.553586 4.357332 1.335882
v 0.5145208 4.514099 -4.297666E-07
v 0.5145208 4.514099 -4.297666E-07
v 1.39199 3.880753 1.362431
v 0.5697158 4.425911 1.371162
v 1.356402 3.947886 -3.758598E-07
v -4.194438 3.737948 -3.558728E-07
v -2.041348 3.910076 1.316083
v -3.933565 3.677027 1.31277
v -2.185761 3.979221 -3.788431E-07
v 1.162398 -4.129624 3.931622E-07
v -1.810347 -4.398075 1.340716
v 1.200386 -4.013342 1.371663
v -1.948851 -4.5141 4.297666E-07
v 2.700606 3.756187 1.380967
v 3.020835 2.256282 2.027464
v 2.32968 3.012333 2.061683
v 3.478029 2.897259 1.349744
v 6.840152 -2.588093 1.264772
v 5.057958 -2.911882 2.005747
v 6.156198 -2.111068 1.903582
v 5.309934 -3.71257 1.392306
v 7.665709 0.1829343 1.190308
v 6.156198 -2.111068 1.903582
v 6.808694 0.05541111 1.847594
v 6.840152 -2.588093 1.264772
v -5.818846 -0.7554342 1.199843
v -5.550165 0.5868803 1.871905
v -4.903864 -0.6808452 1.881354
v -6.170844 -0.01196824 1.198651
v -6.170844 -0.01196824 1.198651
v -6.145764 0.667838 1.84846
v -5.550165 0.5868803 1.871905
v -6.854487 0.1266426 1.188133
v 1.519778 -3.286088 1.342203
v 0.7337851 -3.315433 2.070017
v 0.9772551 -2.664854 2.044155
v 1.200386 -4.013342 1.371663
v 4.761544 2.375828 1.331748
v 5.621321 1.662611 1.970607
v 4.602208 1.618831 1.984561
v 6.030297 2.431464 1.334739
v 0.5697158 4.425911 1.371162
v 1.141682 3.124537 2.055677
v 0.3752393 3.630052 2.069616
v 1.39199 3.880753 1.362431
v 5.309934 -3.71257 1.392306
v 3.665561 -2.792711 2.025192
v 5.057958 -2.911882 2.005747
v 3.379788 -3.550972 1.370015
v 2.88644 1.562052 1.829556
v 4.318973 1.081607 3.011748
v 2.852975 1.526857 3.06729
v 4.387317 1.101503 1.797947
v 0.5794471 2.731196 1.858765
v 1.438891 2.641031 3.133259
v 0.607042 2.649022 3.140079
v 1.437533 2.723164 1.866857
v -2.895443 2.289204 1.812996
v -4.2586 1.670021 3.040777
v -4.525052 1.710685 1.777505
v -2.726504 2.226574 3.111868
v -1.73683 2.531921 3.13609
v -2.726504 2.226574 3.111868
v -1.8557 2.608157 1.830727
v -4.656627 0.6456769 1.743983
v -4.2586 1.670021 3.040777
v -4.378533 0.6425574 2.999553
v -4.525052 1.710685 1.777505
v -1.076324 -2.992933 1.864342
v -2.762825 -2.637128 3.153882
v -0.9861145 -2.878275 3.200277
v -2.940944 -2.742909 1.826358
v 4.582382 -2.35234 1.808486
v 2.862061 -1.444477 3.07532
v 4.504386 -2.265429 3.044842
v 2.893497 -1.508826 1.811552
v -2.940944 -2.742909 1.826358
v -3.835067 -1.467507 3.049566
v -2.762825 -2.637128 3.153882
v -4.080204 -1.533348 1.761586
v 5.955955 0.332818 1.731586
v 5.425344 -1.466443 2.952783
v 5.85276 0.3365158 2.925531
v 5.520916 -1.526937 1.74064
v 4.387317 1.101503 1.797947
v 5.85276 0.3365158 2.925531
v 4.318973 1.081607 3.011748
v 5.955955 0.332818 1.731586
v 2.893497 -1.508826 1.811552
v 1.842499 -1.120214 3.100537
v 2.862061 -1.444477 3.07532
v 1.845885 -1.175869 1.820386
v 1.185655 -1.502022 1.832828
v 0.2291425 -2.617826 3.18853
v 1.200465 -1.435826 3.127697
v 0.1852696 -2.722827 1.867194
v -4.080204 -1.533348 1.761586
v -3.472837 -0.5373324 3.051367
v -3.835067 -1.467507 3.049566
v -3.692059 -0.5744607 1.763973
v -3.877167 0.1737547 1.759633
v -4.378533 0.6425574 2.999553
v -3.648597 0.1871689 3.038027
v -4.656627 0.6456769 1.743983
v -3.692059 -0.5744607 1.763973
v -3.648597 0.1871689 3.038027
v -3.472837 -0.5373324 3.051367
v -3.877167 0.1737547 1.759633
v 1.845885 -1.175869 1.820386
v 1.200465 -1.435826 3.127697
v 1.842499 -1.120214 3.100537
v 1.185655 -1.502022 1.832828
v 1.437533 2.723164 1.866857
v 2.248857 2.168179 3.102163
v 1.438891 2.641031 3.133259
v 2.268911 2.229316 1.853532
v 2.268911 2.229316 1.853532
v 2.852975 1.526857 3.06729
v 2.248857 2.168179 3.102163
v 2.88644 1.562052 1.829556
v -1.8557 2.608157 1.830727
v -0.9990014 2.846004 3.15303
v -1.73683 2.531921 3.13609
v -1.08527 2.937353 1.847496
v -1.08527 2.937353 1.847496
v 0.0588512 2.944872 3.156976
v -0.9990014 2.846004 3.15303
v 0.01328303 3.041354 1.863064
v 0.01328303 3.041354 1.863064
v 0.607042 2.649022 3.140079
v 0.0588512 2.944872 3.156976
v 0.5794471 2.731196 1.858765
v 5.520916 -1.526937 1.74064
v 4.504386 -2.265429 3.044842
v 5.425344 -1.466443 2.952783
v 4.582382 -2.35234 1.808486
v 0.1852696 -2.722827 1.867194
v -0.9861145 -2.878275 3.200277
v 0.2291425 -2.617826 3.18853
v -1.076324 -2.992933 1.864342
v 1.438891 2.641031 3.133259
v 1.990716 1.749045 3.575721
v 1.247643 2.167134 3.606209
v 2.248857 2.168179 3.102163
v 5.425344 -1.466443 2.952783
v 4.273017 -1.765046 3.533748
v 4.927302 -1.195458 3.47365
v 4.504386 -2.265429 3.044842
v 5.85276 0.3365158 2.925531
v 4.927302 -1.195458 3.47365
v 5.275127 0.2153998 3.436962
v 5.425344 -1.466443 2.952783
v 1.200465 -1.435826 3.127697
v -0.08700199 -2.196547 3.711949
v 0.8233228 -1.077237 3.643888
v 0.2291425 -2.617826 3.18853
v 0.0588512 2.944872 3.156976
v 0.4927635 2.17458 3.621329
v -0.01927242 2.452519 3.640304
v 0.607042 2.649022 3.140079
v -1.73683 2.531921 3.13609
v -0.9187272 2.408834 3.648573
v -1.627335 2.100534 3.639845
v -0.9990014 2.846004 3.15303
v 2.988737 -0.9541724 3.558371
v 4.085328 0.5904681 3.488198
v 5.275127 0.2153998 3.436962
v 2.789412 1.051328 3.539411
v 1.87546 -0.558517 3.591151
v 1.990716 1.749045 3.575721
v 0.8233228 -1.077237 3.643888
v 0.4927635 2.17458 3.621329

vn 0.8662109 0.1594238 -0.4733887
vn 0.8662109 0.1594238 -0.4733887
vn 0.8662109 0.1594238 -0.4733887
vn 0.8618164 0.1135864 -0.4943848
vn 0.8618164 0.1135864 -0.4943848
vn 0.8618164 0.1135864 -0.4943848
vn -0.1721191 0.2580566 -0.9506836
vn -0.1721191 0.2580566 -0.9506836
vn -0.1721191 0.2580566 -0.9506836
vn -0.210083 0.2949219 -0.9321289
vn -0.210083 0.2949219 -0.9321289
vn -0.210083 0.2949219 -0.9321289
vn 0.119751 0.9921875 0.03096008
vn 0.119751 0.9921875 0.03096008
vn 0.119751 0.9921875 0.03096008
vn 0.01361084 0.9980469 0.05728149
vn 0.01361084 0.9980469 0.05728149
vn 0.01361084 0.9980469 0.05728149
vn 0.5654297 0.005298615 0.824707
vn 0.5654297 0.005298615 0.824707
vn 0.5654297 0.005298615 0.824707
vn 0.5581055 -0.01184845 0.8295898
vn 0.5581055 -0.01184845 0.8295898
vn 0.5581055 -0.01184845 0.8295898
vn -0.8193359 0.03787231 0.5722656
vn -0.8193359 0.03787231 0.5722656
vn -0.8193359 0.03787231 0.5722656
vn -0.8125 0.04946899 0.5810547
vn -0.8125 0.04946899 0.5810547
vn -0.8125 0.04946899 0.5810547
vn 0.7250977 0.6787109 -0.1154785
vn 0.7250977 0.6787109 -0.1154785
vn 0.7250977 0.6787109 -0.1154785
vn 0.7851563 0.6147461 -0.07629395
vn 0.7851563 0.6147461 -0.07629395
vn 0.7851563 0.6147461 -0.07629395
vn 0.5571289 0.7460938 -0.364502
vn 0.5571289 0.7460938 -0.364502
vn 0.5571289 0.7460938 -0.364502
vn 0.6274414 0.6850586 -0.3706055
vn 0.6274414 0.6850586 -0.3706055
vn 0.6274414 0.6850586 -0.3706055
vn -0.498291 0.6870117 -0.5288086
vn -0.498291 0.6870117 -0.5288086
vn -0.498291 0.6870117 -0.5288086
vn -0.4902344 0.7197266 -0.4919434
vn -0.4902344 0.7197266 -0.4919434
vn -0.4902344 0.7197266 -0.4919434
vn -0.5419922 0.6801758 -0.4936523
vn -0.5419922 0.6801758 -0.4936523
vn -0.5419922 0.6801758 -0.4936523
vn -0.5424805 0.6625977 -0.5166016
vn -0.5424805 0.6625977 -0.5166016
vn -0.5424805 0.6625977 -0.5166016
vn 0.3701172 0.6884766 0.6235352
vn 0.3701172 0.6884766 0.6235352
vn 0.3701172 0.6884766 0.6235352
vn 0.369873 0.6933594 0.6186523
vn 0.369873 0.6933594 0.6186523
vn 0.369873 0.6933594 0.6186523
vn 0.2330322 0.7128906 -0.6616211
vn 0.2330322 0.7128906 -0.6616211
vn 0.2330322 0.7128906 -0.6616211
vn 0.24646 0.7026367 -0.6674805
vn 0.24646 0.7026367 -0.6674805
vn 0.24646 0.7026367 -0.6674805
vn -0.6918945 0.6704102 0.2683105
vn -0.6918945 0.6704102 0.2683105
vn -0.6918945 0.6704102 0.2683105
vn -0.7001953 0.6635742 0.2631836
vn -0.7001953 0.6635742 0.2631836
vn -0.7001953 0.6635742 0.2631836
vn -0.7597656 0.6474609 0.05834961
vn -0.7597656 0.6474609 0.05834961
vn -0.7597656 0.6474609 0.05834961
vn -0.7446289 0.6640625 0.065979
vn -0.7446289 0.6640625 0.065979
vn -0.7446289 0.6640625 0.065979
vn -0.05844116 0.6777344 -0.7329102
vn -0.05844116 0.6777344 -0.7329102
vn -0.05844116 0.6777344 -0.7329102
vn -0.1530762 0.7421875 -0.6523438
vn -0.1530762 0.7421875 -0.6523438
vn -0.1530762 0.7421875 -0.6523438
vn 0.6699219 0.6723633 0.3146973
vn 0.6699219 0.6723633 0.3146973
vn 0.6699219 0.6723633 0.3146973
vn 0.6665039 0.6806641 0.3044434
vn 0.6665039 0.6806641 0.3044434
vn 0.6665039 0.6806641 0.3044434
vn 0.7973633 0.6025391 0.0355835
vn 0.7973633 0.6025391 0.0355835
vn 0.7973633 0.6025391 0.0355835
vn 0.7441406 0.6679688 -0.01754761
vn 0.7441406 0.6679688 -0.01754761
vn 0.7441406 0.6679688 -0.01754761
vn 0.7407227 0.6660156 0.08624268
vn 0.7407227 0.6660156 0.08624268
vn 0.7407227 0.6660156 0.08624268
vn 0.7373047 0.6708984 0.07867432
vn 0.7373047 0.6708984 0.07867432
vn 0.7373047 0.6708984 0.07867432
vn 0.5698242 0.6171875 -0.5419922
vn 0.5698242 0.6171875 -0.5419922
vn 0.5698242 0.6171875 -0.5419922
vn 0.5810547 0.6137695 -0.534668
vn 0.5810547 0.6137695 -0.534668
vn 0.5810547 0.6137695 -0.534668
vn -0.706543 0.6674805 -0.2352295
vn -0.706543 0.6674805 -0.2352295
vn -0.706543 0.6674805 -0.2352295
vn -0.6928711 0.6879883 -0.2156982
vn -0.6928711 0.6879883 -0.2156982
vn -0.6928711 0.6879883 -0.2156982
vn 0.01577759 0.9995117 -0.01731873
vn 0.01577759 0.9995117 -0.01731873
vn 0.01577759 0.9995117 -0.01731873
vn -0.01116943 0.9995117 0.0345459
vn -0.01116943 0.9995117 0.0345459
vn -0.003461838 1 0.01733398
vn -0.006343842 0.9970703 0.07434082
vn -0.006343842 0.9970703 0.07434082
vn -0.006343842 0.9970703 0.07434082
vn -0.08087158 0.996582 0.01832581
vn -0.08087158 0.996582 0.01832581
vn -0.08087158 0.996582 0.01832581
vn 0.05545044 0.9985352 -0.01284027
vn 0.05545044 0.9985352 -0.01284027
vn 0.05545044 0.9985352 -0.01284027
vn -0.002792358 1 0.005340576
vn -0.002792358 1 0.005340576
vn -0.002792358 1 0.005340576
vn -0.06781006 0.9975586 -0.01461792
vn -0.06781006 0.9975586 -0.01461792
vn -0.06781006 0.9975586 -0.01461792
vn 0.003744125 0.9995117 -0.03622437
vn 0.003744125 0.9995117 -0.03622437
vn 0.003744125 0.9995117 -0.03622437
vn 0.02067566 0.996582 -0.08013916
vn 0.02067566 0.996582 -0.08013916
vn -0.05758667 0.9980469 -0.01712036
vn -0.05758667 0.9980469 -0.01712036
vn -0.05758667 0.9980469 -0.01712036
vn 0.0006103516 1 -0.002069473
vn 0.0006103516 1 -0.002069473
vn 0.0006103516 1 -0.002069473
vn 0.02255249 0.9970703 -0.07623291
vn 0.02255249 0.9970703 -0.07623291
vn 0.02255249 0.9970703 -0.07623291
vn 0.01905823 0.9970703 -0.07537842
vn 0.01905823 0.9970703 -0.07537842
vn 0.01905823 0.9970703 -0.07537842
vn -0.01927185 0.9980469 -0.05984497
vn -0.01927185 0.9980469 -0.05984497
vn -0.01927185 0.9980469 -0.05984497
vn -0.03820801 0.9990234 -0.01174927
vn -0.03820801 0.9990234 -0.01174927
vn -0.03820801 0.9990234 -0.01174927
vn -0.0682373 0.9975586 -0.01701355
vn -0.0682373 0.9975586 -0.01701355
vn -0.0682373 0.9975586 -0.01701355
vn -0.02488708 0.9980469 -0.0534668
vn -0.02488708 0.9980469 -0.0534668
vn -0.02488708 0.9980469 -0.0534668
vn 0.05865479 0.9960938 0.06365967
vn 0.05865479 0.9960938 0.06365967
vn 0.05865479 0.9960938 0.06365967
vn 0.01690674 0.9980469 0.05740356
vn 0.01690674 0.9980469 0.05740356
vn 0.01690674 0.9980469 0.05740356
vn 0.7441406 0.6137695 -0.2644043
vn 0.7441406 0.6137695 -0.2644043
vn 0.7441406 0.6137695 -0.2644043
vn 0.7832031 0.5756836 -0.2358398
vn 0.7832031 0.5756836 -0.2358398
vn 0.7832031 0.5756836 -0.2358398
vn 0.7075195 0.644043 -0.2915039
vn 0.7075195 0.644043 -0.2915039
vn 0.7075195 0.644043 -0.2915039
vn 0.7373047 0.6142578 -0.2805176
vn 0.7373047 0.6142578 -0.2805176
vn 0.7373047 0.6142578 -0.2805176
vn -0.4558105 0.5737305 -0.6806641
vn -0.4558105 0.5737305 -0.6806641
vn -0.4558105 0.5737305 -0.6806641
vn -0.4621582 0.640625 -0.6132813
vn -0.4621582 0.640625 -0.6132813
vn -0.4621582 0.640625 -0.6132813
vn -0.7236328 0.6411133 -0.2558594
vn -0.7236328 0.6411133 -0.2558594
vn -0.7236328 0.6411133 -0.2558594
vn -0.7104492 0.6660156 -0.2266846
vn -0.7104492 0.6660156 -0.2266846
vn -0.7104492 0.6660156 -0.2266846
vn 0.6875 0.6723633 0.2741699
vn 0.6875 0.6723633 0.2741699
vn 0.6875 0.6723633 0.2741699
vn 0.7485352 0.5087891 0.4255371
vn 0.7485352 0.5087891 0.4255371
vn 0.7485352 0.5087891 0.4255371
vn 0.3493652 0.5332031 -0.7705078
vn 0.3493652 0.5332031 -0.7705078
vn 0.3493652 0.5332031 -0.7705078
vn 0.3195801 0.5634766 -0.7617188
vn 0.3195801 0.5634766 -0.7617188
vn 0.3195801 0.5634766 -0.7617188
vn -0.7026367 0.612793 0.3608398
vn -0.7026367 0.612793 0.3608398
vn -0.7026367 0.612793 0.3608398
vn -0.7094727 0.6074219 0.3566895
vn -0.7094727 0.6074219 0.3566895
vn -0.7094727 0.6074219 0.3566895
vn -0.7978516 0.5869141 0.1375732
vn -0.7978516 0.5869141 0.1375732
vn -0.7978516 0.5869141 0.1375732
vn -0.7807617 0.605957 0.1524658
vn -0.7807617 0.605957 0.1524658
vn -0.7807617 0.605957 0.1524658
vn -0.2454834 0.6186523 -0.746582
vn -0.2454834 0.6186523 -0.746582
vn -0.2454834 0.6186523 -0.746582
vn -0.1682129 0.5131836 -0.8413086
vn -0.1682129 0.5131836 -0.8413086
vn -0.1682129 0.5131836 -0.8413086
vn 0.208374 0.5283203 -0.8227539
vn 0.208374 0.5283203 -0.8227539
vn 0.208374 0.5283203 -0.8227539
vn 0.08361816 0.6074219 -0.7900391
vn 0.08361816 0.6074219 -0.7900391
vn 0.08361816 0.6074219 -0.7900391
vn -0.7011719 0.5996094 -0.385498
vn -0.7011719 0.5996094 -0.385498
vn -0.7011719 0.5996094 -0.385498
vn -0.6816406 0.5449219 -0.4882813
vn -0.6816406 0.5449219 -0.4882813
vn -0.6816406 0.5449219 -0.4882813
vn 0.5512695 0.6308594 0.5458984
vn 0.5512695 0.6308594 0.5458984
vn 0.5512695 0.6308594 0.5458984
vn 0.5473633 0.5234375 0.652832
vn 0.5473633 0.5234375 0.652832
vn 0.5473633 0.5234375 0.652832
vn 0.722168 0.6186523 0.3100586
vn 0.722168 0.6186523 0.3100586
vn 0.722168 0.6186523 0.3100586
vn 0.6923828 0.6713867 0.2634277
vn 0.6923828 0.6713867 0.2634277
vn 0.6923828 0.6713867 0.2634277
vn 0.8154297 0.5786133 -0.01061249
vn 0.8154297 0.5786133 -0.01061249
vn 0.8154297 0.5786133 -0.01061249
vn 0.7797852 0.6235352 -0.05432129
vn 0.7797852 0.6235352 -0.05432129
vn 0.7797852 0.6235352 -0.05432129
vn 0.7822266 0.6210938 0.04473877
vn 0.7822266 0.6210938 0.04473877
vn 0.7822266 0.6210938 0.04473877
vn 0.777832 0.6274414 0.03521729
vn 0.777832 0.6274414 0.03521729
vn 0.777832 0.6274414 0.03521729
vn -0.7490234 0.4450684 -0.4912109
vn -0.7490234 0.4450684 -0.4912109
vn -0.7490234 0.4450684 -0.4912109
vn -0.6875 0.6347656 -0.3525391
vn -0.6875 0.6347656 -0.3525391
vn -0.6875 0.6347656 -0.3525391
vn -0.7744141 0.6171875 -0.1396484
vn -0.7744141 0.6171875 -0.1396484
vn -0.7744141 0.6171875 -0.1396484
vn -0.7817383 0.605957 -0.1478271
vn -0.7817383 0.605957 -0.1478271
vn -0.7817383 0.605957 -0.1478271
vn 0.06933594 0.9975586 0.009750366
vn 0.06933594 0.9975586 0.009750366
vn 0.06933594 0.9975586 0.009750366
vn 0.01224518 0.9985352 0.04846191
vn 0.01224518 0.9985352 0.04846191
vn 0.01224518 0.9985352 0.04846191
vn -0.04815674 0.9985352 0.02326965
vn -0.04815674 0.9985352 0.02326965
vn -0.04815674 0.9985352 0.02326965
vn 0.02128601 0.9995117 -0.0221405
vn 0.02128601 0.9995117 -0.0221405
vn 0.02128601 0.9995117 -0.0221405
vn -0.05926514 0.9980469 0.01273346
vn -0.05926514 0.9980469 0.01273346
vn -0.05926514 0.9980469 0.01273346
vn 0.0194397 0.9995117 0.02804565
vn 0.0194397 0.9995117 0.02804565
vn 0.0194397 0.9995117 0.02804565
vn 0.04507446 0.996582 -0.06835938
vn 0.04507446 0.996582 -0.06835938
vn 0.04507446 0.996582 -0.06835938
vn 0.03927612 0.9946289 -0.09643555
vn 0.03927612 0.9946289 -0.09643555
vn 0.03927612 0.9946289 -0.09643555
vn 0.02203369 0.9995117 -0.02412415
vn 0.02203369 0.9995117 -0.02412415
vn 0.02203369 0.9995117 -0.02412415
vn 0.01009369 0.9975586 -0.07202148
vn 0.01009369 0.9975586 -0.07202148
vn 0.01009369 0.9975586 -0.07202148
vn -0.0008473396 0.9995117 -0.02272034
vn -0.0008473396 0.9995117 -0.02272034
vn -0.0008473396 0.9995117 -0.02272034
vn -0.03070068 0.9985352 -0.03997803
vn -0.03070068 0.9985352 -0.03997803
vn -0.03070068 0.9985352 -0.03997803
vn 0.0009622574 0.9980469 -0.05978394
vn 0.0009622574 0.9980469 -0.05978394
vn 0.0009622574 0.9980469 -0.05978394
vn 1 0.01061249 -0.01649475
vn 1 0.01061249 -0.01649475
vn 1 0.01061249 -0.01649475
vn 1 0.01124573 -0.01731873
vn 0.9916992 0.03720093 0.1212158
vn 0.9916992 0.03720093 0.1212158
vn 0.9916992 0.03720093 0.1212158
vn 0.9916992 0.03457642 0.1245728
vn -0.9545898 0.08782959 -0.284668
vn -0.9545898 0.08782959 -0.284668
vn -0.9545898 0.08782959 -0.284668
vn -0.9555664 0.0980835 -0.2773438
vn -0.9912109 0.07110596 -0.1113892
vn -0.9912109 0.07110596 -0.1113892
vn -0.9912109 0.07110596 -0.1113892
vn -0.9912109 0.0657959 -0.1161499
vn -0.7275391 0.1442871 -0.6708984
vn -0.7275391 0.1442871 -0.6708984
vn -0.7275391 0.1442871 -0.6708984
vn -0.7348633 0.1721191 -0.6557617
vn -0.3115234 0.004508972 0.9501953
vn -0.3115234 0.004508972 0.9501953
vn -0.3115234 0.004508972 0.9501953
vn -0.3117676 0.004219055 0.9501953
vn -0.7509766 0.05636597 -0.6577148
vn -0.7509766 0.05636597 -0.6577148
vn -0.7509766 0.05636597 -0.6577148
vn -0.7431641 0.04830933 -0.6669922
vn -0.4265137 0.008895874 0.9042969
vn -0.4265137 0.008895874 0.9042969
vn -0.4265137 0.008895874 0.9042969
vn -0.4304199 0.007236481 0.902832
vn 0.3334961 0.1893311 -0.9233398
vn 0.3334961 0.1893311 -0.9233398
vn 0.3334961 0.1893311 -0.9233398
vn 0.3525391 0.1716309 -0.9199219
vn -0.972168 0.06390381 -0.2261963
vn -0.972168 0.06390381 -0.2261963
vn -0.972168 0.06390381 -0.2261963
vn -0.9750977 0.06811523 -0.2099609
vn -0.395752 0.1850586 -0.8994141
vn -0.395752 0.1850586 -0.8994141
vn -0.395752 0.1850586 -0.8994141
vn -0.4279785 0.2023926 -0.8808594
vn -0.9394531 0.04788208 0.3391113
vn -0.9394531 0.04788208 0.3391113
vn -0.9394531 0.04788208 0.3391113
vn -0.9389648 0.04876709 0.340332
vn 0.6499023 0.01573181 0.7597656
vn 0.6499023 0.01573181 0.7597656
vn 0.6499023 0.01573181 0.7597656
vn 0.6430664 0.009223938 0.765625
vn 0.9155273 0.01626587 0.4018555
vn 0.9155273 0.01626587 0.4018555
vn 0.9155273 0.01626587 0.4018555
vn 0.9121094 0.009231567 0.4094238
vn 0.75 0.08990479 -0.6552734
vn 0.75 0.08990479 -0.6552734
vn 0.75 0.08990479 -0.6552734
vn 0.753418 0.08789063 -0.6518555
vn 0.9985352 0.05352783 -0.006031036
vn 0.9985352 0.05352783 -0.006031036
vn 0.9985352 0.05352783 -0.006031036
vn 0.9985352 0.05230713 -0.005096436
vn 0.8173828 0.02502441 0.5751953
vn 0.8173828 0.02502441 0.5751953
vn 0.8173828 0.02502441 0.5751953
vn 0.8139648 0.02101135 0.5805664
vn 0.9936523 0.05612183 -0.09503174
vn 0.9936523 0.05612183 -0.09503174
vn 0.9936523 0.05612183 -0.09503174
vn 0.9946289 0.05203247 -0.09191895
vn -0.9931641 0.06427002 0.09857178
vn -0.9931641 0.06427002 0.09857178
vn -0.9931641 0.06427002 0.09857178
vn -0.9936523 0.05838013 0.09527588
vn 0.4658203 0.6674805 0.5810547
vn 0.4658203 0.6674805 0.5810547
vn 0.4658203 0.6674805 0.5810547
vn 0.4663086 0.6689453 0.5791016
vn -0.5380859 0.7119141 0.451416
vn -0.5380859 0.7119141 0.451416
vn -0.5380859 0.7119141 0.451416
vn -0.5449219 0.7075195 0.4501953
vn -0.2056885 0.6943359 0.6894531
vn -0.2056885 0.6943359 0.6894531
vn -0.2056885 0.6943359 0.6894531
vn -0.2011719 0.699707 0.6855469
vn -0.2988281 0.706543 -0.6416016
vn -0.2988281 0.706543 -0.6416016
vn -0.2988281 0.706543 -0.6416016
vn -0.2883301 0.6958008 -0.6577148
vn -0.7543945 0.6376953 -0.1552734
vn -0.7543945 0.6376953 -0.1552734
vn -0.7543945 0.6376953 -0.1552734
vn -0.7495117 0.6352539 -0.185791
vn -0.2651367 0.6289063 0.730957
vn -0.2651367 0.6289063 0.730957
vn -0.2651367 0.6289063 0.730957
vn -0.3088379 0.6201172 0.7211914
vn 0.7358398 0.6772461 0.0001448393
vn 0.7358398 0.6772461 0.0001448393
vn 0.7358398 0.6772461 0.0001448393
vn 0.7280273 0.6850586 -0.01400757
vn 0.6088867 0.6591797 0.4411621
vn 0.6088867 0.6591797 0.4411621
vn 0.6088867 0.6591797 0.4411621
vn 0.6088867 0.6621094 0.4370117
vn -0.6977539 0.7133789 -0.06646729
vn -0.6977539 0.7133789 -0.06646729
vn -0.6977539 0.7133789 -0.06646729
vn -0.7182617 0.6899414 -0.08996582
vn 0.9477539 0.02801514 0.3178711
vn 0.9477539 0.02801514 0.3178711
vn 0.9477539 0.02801514 0.3178711
vn 0.9472656 0.02572632 0.3198242
vn 0.9980469 0.05096436 0.03744507
vn 0.9980469 0.05096436 0.03744507
vn 0.9980469 0.05096436 0.03744507
vn 0.9980469 0.05172729 0.03607178
vn 0.9472656 0.08062744 -0.3095703
vn 0.9472656 0.08062744 -0.3095703
vn 0.9472656 0.08062744 -0.3095703
vn 0.9453125 0.07177734 -0.3186035
vn 0.9604492 0.06744385 -0.2697754
vn 0.9604492 0.06744385 -0.2697754
vn 0.9614258 0.06585693 -0.2678223
vn 0.1323242 0.1734619 -0.9760742
vn 0.1323242 0.1734619 -0.9760742
vn 0.1323242 0.1734619 -0.9760742
vn 0.1411133 0.1678467 -0.9755859
vn -0.9838867 0.07507324 -0.1634521
vn -0.9838867 0.07507324 -0.1634521
vn -0.9838867 0.07507324 -0.1634521
vn -0.9838867 0.07727051 -0.161377
vn -0.8818359 0.02772522 -0.4707031
vn -0.8818359 0.02772522 -0.4707031
vn -0.8818359 0.02772522 -0.4707031
vn -0.8818359 0.02749634 -0.4709473
vn -0.6430664 0.1213379 -0.7563477
vn -0.6430664 0.1213379 -0.7563477
vn -0.6430664 0.1213379 -0.7563477
vn -0.6542969 0.1378174 -0.7436523
vn -0.2553711 0.06762695 0.9643555
vn -0.2553711 0.06762695 0.9643555
vn -0.2553711 0.06762695 0.9643555
vn -0.253418 0.07019043 0.9648438
vn 0.8857422 0.03146362 0.4628906
vn 0.8857422 0.03146362 0.4628906
vn 0.8857422 0.03146362 0.4628906
vn 0.8847656 0.02822876 0.465332
vn -0.9443359 0.03274536 -0.3278809
vn -0.9443359 0.03274536 -0.3278809
vn -0.9443359 0.03274536 -0.3278809
vn -0.9438477 0.03244019 -0.3283691
vn -0.6547852 0.01882935 0.7553711
vn -0.6547852 0.01882935 0.7553711
vn -0.6547852 0.01882935 0.7553711
vn -0.6542969 0.01966858 0.7558594
vn 0.3847656 0.1258545 -0.9145508
vn 0.3847656 0.1258545 -0.9145508
vn 0.3847656 0.1258545 -0.9145508
vn 0.3974609 0.1166382 -0.9101563
vn -0.828125 0.08294678 -0.5541992
vn -0.828125 0.08294678 -0.5541992
vn -0.828125 0.08294678 -0.5541992
vn -0.8364258 0.08984375 -0.5405273
vn -0.2041016 0.1363525 -0.9692383
vn -0.2041016 0.1363525 -0.9692383
vn -0.2041016 0.1363525 -0.9692383
vn -0.2104492 0.1392822 -0.9677734
vn -0.9082031 0.03204346 0.4177246
vn -0.9082031 0.03204346 0.4177246
vn -0.9082031 0.03204346 0.4177246
vn -0.9077148 0.03253174 0.4187012
vn 0.8476563 0.04421997 0.5288086
vn 0.8476563 0.04421997 0.5288086
vn 0.8476563 0.04421997 0.5288086
vn 0.8442383 0.04013062 0.5341797
vn 0.6635742 0.03610229 0.7470703
vn 0.6635742 0.03610229 0.7470703
vn 0.6635742 0.03610229 0.7470703
vn 0.6577148 0.03125 0.7524414
vn 0.9272461 0.07128906 -0.3671875
vn 0.9272461 0.07128906 -0.3671875
vn 0.9272461 0.07128906 -0.3671875
vn 0.9267578 0.07196045 -0.3684082
vn 0.9960938 0.06045532 -0.06591797
vn 0.9960938 0.06045532 -0.06591797
vn 0.9960938 0.06045532 -0.06591797
vn 0.9956055 0.06185913 -0.06793213
vn 0.8652344 0.03894043 0.4995117
vn 0.8652344 0.03894043 0.4995117
vn 0.8652344 0.03894043 0.4995117
vn 0.862793 0.03662109 0.5043945
vn -0.7666016 0.0713501 0.6381836
vn -0.7666016 0.0713501 0.6381836
vn -0.7666016 0.0713501 0.6381836
vn -0.7631836 0.07519531 0.6416016
vn -0.9814453 0.05639648 0.1831055
vn -0.9814453 0.05639648 0.1831055
vn -0.9814453 0.05639648 0.1831055
vn -0.9819336 0.05566406 0.1821289
vn 0.6376953 0.6479492 0.4160156
vn 0.6376953 0.6479492 0.4160156
vn 0.6376953 0.6479492 0.4160156
vn 0.6391602 0.6386719 0.4282227
vn -0.5556641 0.640625 0.5297852
vn -0.5556641 0.640625 0.5297852
vn -0.5556641 0.640625 0.5297852
vn -0.5507813 0.644043 0.5307617
vn -0.1838379 0.6435547 0.7431641
vn -0.1838379 0.6435547 0.7431641
vn -0.1838379 0.6435547 0.7431641
vn -0.1859131 0.6411133 0.7446289
vn -0.4807129 0.6240234 0.6157227
vn -0.4807129 0.6240234 0.6157227
vn -0.4807129 0.6240234 0.6157227
vn -0.4956055 0.6113281 0.6166992
vn 0.6738281 0.6088867 0.4187012
vn 0.6738281 0.6088867 0.4187012
vn 0.6738281 0.6088867 0.4187012
vn 0.6738281 0.6137695 0.4118652
vn 0.7583008 0.5708008 -0.314209
vn 0.7583008 0.5708008 -0.314209
vn 0.7583008 0.5708008 -0.314209
vn 0.7583008 0.5712891 -0.3146973
vn 0.01488495 0.9990234 0.04296875
vn 0.01580811 0.9985352 0.05603027
vn 0.01356506 0.9980469 0.05899048
vn 0.01488495 0.9990234 0.04296875
vn 0.01488495 0.9990234 0.04296875
vn 0.003717422 0.9980469 0.06011963
vn 0.003717422 0.9980469 0.06011963
vn 0.01177216 0.9990234 0.04208374

vt 0.08331299 0
vt 0.25 0.7207031
vt 0.25 0
vt 0.25 0.7207031
vt 0.08331299 0
vt 0.08331299 0.7207031
vt 0.270752 0
vt 0.25 0.7207031
vt 0.270752 0.7207031
vt 0.25 0.7207031
vt 0.270752 0
vt 0.25 0
vt 0.3081055 1
vt 0.6298828 1
vt 0.5498047 1
vt 0.6298828 1
vt 0.3081055 1
vt 0.7089844 1
vt 0.75 0
vt 0.7084961 0.7207031
vt 0.75 0.7207031
vt 0.7084961 0.7207031
vt 0.75 0
vt 0.7084961 0
vt 0.6665039 0
vt 0.625 0.7207031
vt 0.6665039 0.7207031
vt 0.625 0.7207031
vt 0.6665039 0
vt 0.625 0
vt 0.9819336 1.762695
vt 0.7250977 1
vt 0.5292969 1
vt 0.7250977 1
vt 0.9819336 1.762695
vt 1.454102 1.486328
vt 0.2341309 0.9521484
vt 0.5292969 1
vt 0.282959 1
vt 0.5292969 1
vt 0.2341309 0.9521484
vt 0.489502 1.009766
vt 0.03985596 0.8569336
vt 0.1690674 1
vt 0.1290283 1
vt 0.1690674 1
vt 0.03985596 0.8569336
vt -0.004165649 0.9345703
vt 0.6152344 1.504883
vt 0.4018555 1
vt 0.3081055 1
vt 0.4018555 1
vt 0.6152344 1.504883
vt 0.6157227 1.433594
vt 0.75 0.7207031
vt 0.7089844 1
vt 0.7001953 1
vt 0.7089844 1
vt 0.75 0.7207031
vt 0.7084961 0.7207031
vt 0.1887207 0.8232422
vt -0.01275635 1
vt 0.1690674 1
vt -0.01275635 1
vt 0.1887207 0.8232422
vt 0.1418457 0.8330078
vt 0.3103027 0.8950195
vt 0.3088379 1
vt 0.4018555 1
vt 0.3088379 1
vt 0.3103027 0.8950195
vt 0.2214355 0.9052734
vt 0.189209 0.9379883
vt 0.1605225 1
vt 0.2553711 1
vt 0.1605225 1
vt 0.189209 0.9379883
vt 0.07696533 0.9790039
vt 0.2338867 1.320313
vt 0.282959 1
vt 0.2282715 1
vt 0.282959 1
vt 0.2338867 1.320313
vt 0.4331055 1.299805
vt 0.8334961 0.7207031
vt 0.7202148 1
vt 0.5800781 1
vt 0.7202148 1
vt 0.8334961 0.7207031
vt 0.7915039 0.7207031
vt 0.8359375 1.148438
vt 0.8569336 1
vt 0.7480469 1
vt 0.8569336 1
vt 0.8359375 1.148438
vt 0.9946289 1.094727
vt 0.8823242 1.151367
vt 0.8134766 1
vt 0.7431641 1
vt 0.8134766 1
vt 0.8823242 1.151367
vt 0.9770508 1.134766
vt 0.9882813 2.072266
vt 0.7480469 1
vt 0.7250977 1
vt 0.7480469 1
vt 0.9882813 2.072266
vt 1.302734 2.027344
vt 0.1854248 1.083984
vt 0.1290283 1
vt 0.1605225 1
vt 0.1290283 1
vt 0.1854248 1.083984
vt 0.1945801 1.058594
vt 0.7202148 1
vt 0.3081055 1
vt 0.4018555 1
vt 0.5800781 1
vt 0.3088379 1
vt 0.7431641 1
vt 0.7202148 1
vt 0.7089844 1
vt 0.3081055 1
vt 0.7089844 1
vt 0.7202148 1
vt 0.7001953 1
vt 0.1605225 1
vt 0.3088379 1
vt 0.2553711 1
vt 0.3088379 1
vt 0.1605225 1
vt 0.7431641 1
vt 0.5800781 1
vt 0.7431641 1
vt 0.8134766 1
vt 0.7480469 1
vt 0.1605225 1
vt 0.1290283 1
vt -0.01275635 1
vt 0.7250977 1
vt 0.7431641 1
vt 0.7480469 1
vt 0.8569336 1
vt 0.7480469 1
vt 0.7431641 1
vt 0.1605225 1
vt -0.01275635 1
vt 0.1290283 1
vt 0.1690674 1
vt 0.1290283 1
vt 0.7250977 1
vt 0.7480469 1
vt 0.5292969 1
vt -0.01275635 1
vt 0.2836914 1
vt -0.01275635 1
vt 0.5292969 1
vt 0.7250977 1
vt 0.5292969 1
vt 0.2282715 1
vt 0.282959 1
vt 0.2282715 1
vt 0.5292969 1
vt 0.2836914 1
vt 0.3081055 1
vt 0.6298828 1
vt 0.5498047 1
vt 0.6298828 1
vt 0.3081055 1
vt 0.7089844 1
vt 0.9819336 1.762695
vt 0.7250977 1
vt 0.5292969 1
vt 0.7250977 1
vt 0.9819336 1.762695
vt 1.454102 1.486328
vt 0.2341309 0.9521484
vt 0.5292969 1
vt 0.282959 1
vt 0.5292969 1
vt 0.2341309 0.9521484
vt 0.489502 1.009766
vt 0.03985596 0.8569336
vt 0.1690674 1
vt 0.1290283 1
vt 0.1690674 1
vt 0.03985596 0.8569336
vt -0.004165649 0.9345703
vt 0.6152344 1.504883
vt 0.4018555 1
vt 0.3081055 1
vt 0.4018555 1
vt 0.6152344 1.504883
vt 0.6157227 1.433594
vt 0.75 0.7207031
vt 0.7089844 1
vt 0.7001953 1
vt 0.7089844 1
vt 0.75 0.7207031
vt 0.7084961 0.7207031
vt 0.1887207 0.8232422
vt -0.01275635 1
vt 0.1690674 1
vt -0.01275635 1
vt 0.1887207 0.8232422
vt 0.1418457 0.8330078
vt 0.3103027 0.8950195
vt 0.3088379 1
vt 0.4018555 1
vt 0.3088379 1
vt 0.3103027 0.8950195
vt 0.2214355 0.9052734
vt 0.189209 0.9379883
vt 0.1605225 1
vt 0.2553711 1
vt 0.1605225 1
vt 0.189209 0.9379883
vt 0.07696533 0.9790039
vt 0.1689453 1.164063
vt 0.2836914 1
vt -0.01275635 1
vt 0.2836914 1
vt 0.1689453 1.164063
vt 0.2265625 1.162109
vt 0.2338867 1.320313
vt 0.282959 1
vt 0.2282715 1
vt 0.282959 1
vt 0.2338867 1.320313
vt 0.4331055 1.299805
vt 0.1967773 0.8188477
vt 0.2282715 1
vt 0.2836914 1
vt 0.2282715 1
vt 0.1967773 0.8188477
vt 0.1538086 0.8237305
vt 0.8334961 0.7207031
vt 0.7202148 1
vt 0.5800781 1
vt 0.7202148 1
vt 0.8334961 0.7207031
vt 0.7915039 0.7207031
vt 0.7915039 0.7207031
vt 0.7001953 1
vt 0.7202148 1
vt 0.7001953 1
vt 0.7915039 0.7207031
vt 0.75 0.7207031
vt 0.8359375 1.148438
vt 0.8569336 1
vt 0.7480469 1
vt 0.8569336 1
vt 0.8359375 1.148438
vt 0.9946289 1.094727
vt 0.8823242 1.151367
vt 0.8134766 1
vt 0.7431641 1
vt 0.8134766 1
vt 0.8823242 1.151367
vt 0.9770508 1.134766
vt 0.625 0.7207031
vt 0.3081055 1
vt 0.5498047 1
vt 0.3081055 1
vt 0.625 0.7207031
vt 0.5834961 0.7207031
vt 0.1854248 1.083984
vt 0.1290283 1
vt 0.1605225 1
vt 0.1290283 1
vt 0.1854248 1.083984
vt 0.1945801 1.058594
vt 0.1605225 1
vt 0.3088379 1
vt 0.2553711 1
vt 0.3088379 1
vt 0.1605225 1
vt 0.7431641 1
vt 0.5800781 1
vt 0.7431641 1
vt 0.8134766 1
vt 0.7480469 1
vt 0.1605225 1
vt 0.1290283 1
vt 0.7431641 1
vt 0.7480469 1
vt 0.8569336 1
vt 0.7480469 1
vt 0.7431641 1
vt 0.1605225 1
vt -0.01275635 1
vt 0.1290283 1
vt 0.1690674 1
vt 0.1290283 1
vt -0.01275635 1
vt 0.7250977 1
vt 0.1290283 1
vt 0.7250977 1
vt 0.7480469 1
vt 0.5292969 1
vt -0.01275635 1
vt 0.2836914 1
vt -0.01275635 1
vt 0.5292969 1
vt 0.7250977 1
vt 0.5292969 1
vt 0.2282715 1
vt 0.282959 1
vt 0.2282715 1
vt 0.5292969 1
vt 0.2836914 1
vt 0.7915039 0
vt 0.75 0.7207031
vt 0.7915039 0.7207031
vt 0.75 0
vt -0.0625 0
vt -0.08331299 0.7207031
vt -0.0625 0.7207031
vt -0.08331299 0
vt 0.4375 0
vt 0.416748 0.7207031
vt 0.4375 0.7207031
vt 0.416748 0
vt 0.625 0
vt 0.5834961 0.7207031
vt 0.625 0.7207031
vt 0.5834961 0
vt 0.416748 0
vt 0.333252 0.7207031
vt 0.416748 0.7207031
vt 0.333252 0
vt 0.7084961 0
vt 0.6665039 0.7207031
vt 0.7084961 0.7207031
vt 0.6665039 0
vt 0.5834961 0
vt 0.5 0.7207031
vt 0.5834961 0.7207031
vt 0.5 0
vt 0.479248 0
vt 0.458252 0.7207031
vt 0.479248 0.7207031
vt 0.458252 0
vt 0.333252 0
vt 0.291748 0.7207031
vt 0.333252 0.7207031
vt 0.291748 0
vt 0.28125 0
vt 0.270752 0.7207031
vt 0.28125 0.7207031
vt 0.270752 0
vt 0.291748 0
vt 0.28125 0.7207031
vt 0.291748 0.7207031
vt 0.28125 0
vt 0.5 0
vt 0.479248 0.7207031
vt 0.5 0.7207031
vt 0.479248 0
vt 0.9165039 0
vt 0.8334961 0.7207031
vt 0.9165039 0.7207031
vt 0.8334961 0
vt 0.8334961 0
vt 0.7915039 0.7207031
vt 0.8334961 0.7207031
vt 0.7915039 0
vt 0.04165649 0
vt 0 0.7207031
vt 0.04165649 0.7207031
vt 0 0
vt 0 0
vt -0.04165649 0.7207031
vt 0 0.7207031
vt -0.04165649 0
vt -0.04165649 0
vt -0.0625 0.7207031
vt -0.04165649 0.7207031
vt -0.0625 0
vt 0.08331299 0
vt 0.04165649 0.7207031
vt 0.08331299 0.7207031
vt 0.04165649 0
vt 0.458252 0
vt 0.4375 0.7207031
vt 0.458252 0.7207031
vt 0.4375 0
vt 0.9165039 0.7207031
vt 0.5800781 1
vt 0.8134766 1
vt 0.8334961 0.7207031
vt 0.6665039 0.7207031
vt 0.5498047 1
vt 0.6298828 1
vt 0.625 0.7207031
vt 0.7084961 0.7207031
vt 0.6298828 1
vt 0.7089844 1
vt 0.6665039 0.7207031
vt 0.1689453 1.164063
vt 0.2836914 1
vt -0.01275635 1
vt 0.2265625 1.162109
vt 0.1967773 0.8188477
vt 0.2282715 1
vt 0.2836914 1
vt 0.1538086 0.8237305
vt 0.2248535 0.7670898
vt 0.2553711 1
vt 0.3088379 1
vt 0.1106567 0.7758789
vt 0.7915039 0.7207031
vt 0.7001953 1
vt 0.7202148 1
vt 0.75 0.7207031
vt 0.8564453 0.8227539
vt 0.7431641 1
vt 0.8569336 1
vt 0.8164063 0.8295898
vt 0.625 0.7207031
vt 0.3081055 1
vt 0.5498047 1
vt 0.5834961 0.7207031
vt 0.7915039 0
vt 0.75 0.7207031
vt 0.7915039 0.7207031
vt 0.75 0
vt -0.0625 0
vt -0.08331299 0.7207031
vt -0.0625 0.7207031
vt -0.08331299 0
vt 0.08331299 0
vt 0.25 0.7207031
vt 0.25 0
vt 0.08331299 0.7207031
vt 0.04165649 0.7207031
vt 0.08331299 0.7207031
vt 0.04165649 0
vt 0.270752 0
vt 0.25 0.7207031
vt 0.270752 0.7207031
vt 0.25 0
vt 0.4375 0
vt 0.416748 0.7207031
vt 0.4375 0.7207031
vt 0.416748 0
vt 0.625 0
vt 0.5834961 0.7207031
vt 0.625 0.7207031
vt 0.5834961 0
vt 0.416748 0
vt 0.333252 0.7207031
vt 0.416748 0.7207031
vt 0.333252 0
vt 0.7084961 0
vt 0.6665039 0.7207031
vt 0.7084961 0.7207031
vt 0.6665039 0
vt 0.75 0
vt 0.7084961 0.7207031
vt 0.75 0.7207031
vt 0.7084961 0
vt 0.5834961 0
vt 0.5 0.7207031
vt 0.5834961 0.7207031
vt 0.5 0
vt 0.479248 0
vt 0.458252 0.7207031
vt 0.479248 0.7207031
vt 0.458252 0
vt 0.333252 0
vt 0.291748 0.7207031
vt 0.333252 0.7207031
vt 0.291748 0
vt 0.28125 0
vt 0.270752 0.7207031
vt 0.28125 0.7207031
vt 0.270752 0
vt 0.291748 0
vt 0.28125 0.7207031
vt 0.291748 0.7207031
vt 0.28125 0
vt 0.5 0
vt 0.479248 0.7207031
vt 0.5 0.7207031
vt 0.479248 0
vt 0.9165039 0
vt 0.8334961 0.7207031
vt 0.9165039 0.7207031
vt 0.8334961 0
vt 0.8334961 0
vt 0.7915039 0.7207031
vt 0.8334961 0.7207031
vt 0.7915039 0
vt 0.04165649 0
vt 0 0.7207031
vt 0.04165649 0.7207031
vt 0 0
vt 0 0
vt -0.04165649 0.7207031
vt 0 0.7207031
vt -0.04165649 0
vt -0.04165649 0
vt -0.0625 0.7207031
vt -0.04165649 0.7207031
vt -0.0625 0
vt 0.6665039 0
vt 0.625 0.7207031
vt 0.6665039 0.7207031
vt 0.625 0
vt 0.458252 0
vt 0.4375 0.7207031
vt 0.458252 0.7207031
vt 0.4375 0
vt 0.9165039 0.7207031
vt 0.5800781 1
vt 0.8134766 1
vt 0.8334961 0.7207031
vt 0.6665039 0.7207031
vt 0.5498047 1
vt 0.6298828 1
vt 0.625 0.7207031
vt 0.7084961 0.7207031
vt 0.6298828 1
vt 0.7089844 1
vt 0.6665039 0.7207031
vt 0.2248535 0.7670898
vt 0.2553711 1
vt 0.3088379 1
vt 0.1106567 0.7758789
vt 0.8564453 0.8227539
vt 0.7431641 1
vt 0.8569336 1
vt 0.8164063 0.8295898
vt 0.9882813 2.072266
vt 0.7480469 1
vt 0.7250977 1
vt 1.302734 2.027344
vt 0.3081055 1
vt 0.7001953 1
vt 0.7089844 1
vt 0.7202148 1
vt 0.4018555 1
vt 0.5800781 1
vt 0.3088379 1
vt 0.7431641 1

g Mountain_05_(7)_361_9
usemtl Mountain_05_(7)_361_9
usemap Mountain_05_(7)_361_9
f 1/1/1 3/3/3 2/2/2
f 4/4/4 6/6/6 5/5/5
f 7/7/7 9/9/9 8/8/8
f 10/10/10 12/12/12 11/11/11
f 13/13/13 15/15/15 14/14/14
f 16/16/16 18/18/18 17/17/17
f 19/19/19 21/21/21 20/20/20
f 22/22/22 24/24/24 23/23/23
f 25/25/25 27/27/27 26/26/26
f 28/28/28 30/30/30 29/29/29
f 31/31/31 33/33/33 32/32/32
f 34/34/34 36/36/36 35/35/35
f 37/37/37 39/39/39 38/38/38
f 40/40/40 42/42/42 41/41/41
f 43/43/43 45/45/45 44/44/44
f 46/46/46 48/48/48 47/47/47
f 49/49/49 51/51/51 50/50/50
f 52/52/52 54/54/54 53/53/53
f 55/55/55 57/57/57 56/56/56
f 58/58/58 60/60/60 59/59/59
f 61/61/61 63/63/63 62/62/62
f 64/64/64 66/66/66 65/65/65
f 67/67/67 69/69/69 68/68/68
f 70/70/70 72/72/72 71/71/71
f 73/73/73 75/75/75 74/74/74
f 76/76/76 78/78/78 77/77/77
f 79/79/79 81/81/81 80/80/80
f 82/82/82 84/84/84 83/83/83
f 85/85/85 87/87/87 86/86/86
f 88/88/88 90/90/90 89/89/89
f 91/91/91 93/93/93 92/92/92
f 94/94/94 96/96/96 95/95/95
f 97/97/97 99/99/99 98/98/98
f 100/100/100 102/102/102 101/101/101
f 103/103/103 105/105/105 104/104/104
f 106/106/106 108/108/108 107/107/107
f 109/109/109 111/111/111 110/110/110
f 112/112/112 114/114/114 113/113/113
f 115/115/115 117/117/117 116/116/116
f 118/118/118 119/119/119 117/117/117
f 120/120/120 119/119/119 118/118/118
f 117/117/117 121/121/121 118/118/118
f 121/121/121 123/123/123 122/122/122
f 124/124/124 126/126/126 125/125/125
f 127/127/127 129/129/129 128/128/128
f 130/130/130 132/132/132 131/131/131
f 133/133/133 135/135/135 134/134/134
f 136/136/136 138/138/138 137/137/137
f 138/138/138 140/140/140 139/139/139
f 141/141/141 143/143/143 142/142/142
f 144/144/144 146/146/146 145/145/145
f 147/147/147 149/149/149 148/148/148
f 150/150/150 152/152/152 151/151/151
f 153/153/153 155/155/155 154/154/154
f 156/156/156 158/158/158 157/157/157
f 159/159/159 161/161/161 160/160/160
f 162/162/162 164/164/164 163/163/163
f 165/165/165 167/167/167 166/166/166
f 168/168/168 170/170/170 169/169/169
f 171/171/171 173/173/173 172/172/172
f 174/174/174 176/176/176 175/175/175
f 177/177/177 179/179/179 178/178/178
f 180/180/180 182/182/182 181/181/181
f 183/183/183 185/185/185 184/184/184
f 186/186/186 188/188/188 187/187/187
f 189/189/189 191/191/191 190/190/190
f 192/192/192 194/194/194 193/193/193
f 195/195/195 197/197/197 196/196/196
f 198/198/198 200/200/200 199/199/199
f 201/201/201 203/203/203 202/202/202
f 204/204/204 206/206/206 205/205/205
f 207/207/207 209/209/209 208/208/208
f 210/210/210 212/212/212 211/211/211
f 213/213/213 215/215/215 214/214/214
f 216/216/216 218/218/218 217/217/217
f 219/219/219 221/221/221 220/220/220
f 222/222/222 224/224/224 223/223/223
f 225/225/225 227/227/227 226/226/226
f 228/228/228 230/230/230 229/229/229
f 231/231/231 233/233/233 232/232/232
f 234/234/234 236/236/236 235/235/235
f 237/237/237 239/239/239 238/238/238
f 240/240/240 242/242/242 241/241/241
f 243/243/243 245/245/245 244/244/244
f 246/246/246 248/248/248 247/247/247
f 249/249/249 251/251/251 250/250/250
f 252/252/252 254/254/254 253/253/253
f 255/255/255 257/257/257 256/256/256
f 258/258/258 260/260/260 259/259/259
f 261/261/261 263/263/263 262/262/262
f 264/264/264 266/266/266 265/265/265
f 267/267/267 269/269/269 268/268/268
f 270/270/270 272/272/272 271/271/271
f 273/273/273 275/275/275 274/274/274
f 276/276/276 278/278/278 277/277/277
f 279/279/279 281/281/281 280/280/280
f 282/282/282 284/284/284 283/283/283
f 285/285/285 287/287/287 286/286/286
f 288/288/288 290/290/290 289/289/289
f 291/291/291 293/293/293 292/292/292
f 294/294/294 296/296/296 295/295/295
f 297/297/297 299/299/299 298/298/298
f 300/300/300 302/302/302 301/301/301
f 303/303/303 305/305/305 304/304/304
f 306/306/306 308/308/308 307/307/307
f 309/309/309 311/311/311 310/310/310
f 312/312/312 314/314/314 313/313/313
f 313/313/313 315/315/315 312/312/312
f 316/316/316 318/318/318 317/317/317
f 317/317/317 319/319/319 316/316/316
f 320/320/320 322/322/322 321/321/321
f 321/321/321 323/323/323 320/320/320
f 324/324/324 326/326/326 325/325/325
f 325/325/325 327/327/327 324/324/324
f 328/328/328 330/330/330 329/329/329
f 329/329/329 331/331/331 328/328/328
f 332/332/332 334/334/334 333/333/333
f 333/333/333 335/335/335 332/332/332
f 336/336/336 338/338/338 337/337/337
f 337/337/337 339/339/339 336/336/336
f 340/340/340 342/342/342 341/341/341
f 341/341/341 343/343/343 340/340/340
f 344/344/344 346/346/346 345/345/345
f 345/345/345 347/347/347 344/344/344
f 348/348/348 350/350/350 349/349/349
f 349/349/349 351/351/351 348/348/348
f 352/352/352 354/354/354 353/353/353
f 353/353/353 355/355/355 352/352/352
f 356/356/356 358/358/358 357/357/357
f 357/357/357 359/359/359 356/356/356
f 360/360/360 362/362/362 361/361/361
f 361/361/361 363/363/363 360/360/360
f 364/364/364 366/366/366 365/365/365
f 365/365/365 367/367/367 364/364/364
f 368/368/368 370/370/370 369/369/369
f 369/369/369 371/371/371 368/368/368
f 372/372/372 374/374/374 373/373/373
f 373/373/373 375/375/375 372/372/372
f 376/376/376 378/378/378 377/377/377
f 377/377/377 379/379/379 376/376/376
f 380/380/380 382/382/382 381/381/381
f 381/381/381 383/383/383 380/380/380
f 384/384/384 386/386/386 385/385/385
f 385/385/385 387/387/387 384/384/384
f 388/388/388 390/390/390 389/389/389
f 389/389/389 391/391/391 388/388/388
f 392/392/392 394/394/394 393/393/393
f 393/393/393 395/395/395 392/392/392
f 396/396/396 398/398/398 397/397/397
f 397/397/397 399/399/399 396/396/396
f 400/400/400 402/402/402 401/401/401
f 401/401/401 403/403/403 400/400/400
f 404/404/404 406/406/406 405/405/405
f 405/405/405 407/407/407 404/404/404
f 408/408/408 410/410/410 409/409/409
f 409/409/409 411/411/411 408/408/408
f 412/412/412 414/414/414 413/413/413
f 413/413/413 415/415/415 412/412/412
f 416/416/416 418/418/418 417/417/417
f 417/417/417 419/419/419 416/416/416
f 420/420/420 422/422/422 421/421/421
f 421/421/421 423/423/423 420/420/420
f 424/424/424 426/426/426 425/425/425
f 425/425/425 427/427/427 424/424/424
f 428/428/428 430/430/430 429/429/429
f 429/429/429 431/431/431 428/428/428
f 432/432/432 434/434/434 433/433/433
f 433/433/433 435/435/435 432/432/432
f 432/432/432 437/437/437 436/436/436
f 436/436/436 438/438/438 432/432/432
f 439/439/439 441/441/441 440/440/440
f 440/440/440 442/442/442 439/439/439
f 443/443/443 445/445/445 444/444/444
f 444/444/444 446/446/446 443/443/443
f 447/447/447 449/449/449 448/448/448
f 448/448/448 450/450/450 447/447/447
f 451/451/451 453/453/453 452/452/452
f 452/452/452 454/454/454 451/451/451
f 455/455/455 457/457/457 456/456/456
f 456/456/456 458/458/458 455/455/455
f 459/459/459 461/461/461 460/460/460
f 460/460/460 462/462/462 459/459/459
f 463/463/463 465/465/465 464/464/464
f 464/464/464 466/466/466 463/463/463
f 467/467/467 469/469/469 468/468/468
f 468/468/468 470/470/470 467/467/467
f 471/471/471 473/473/473 472/472/472
f 472/472/472 474/474/474 471/471/471
f 475/475/475 477/477/477 476/476/476
f 476/476/476 478/478/478 475/475/475
f 479/479/479 481/481/481 480/480/480
f 480/480/480 482/482/482 479/479/479
f 483/483/483 485/485/485 484/484/484
f 484/484/484 486/486/486 483/483/483
f 487/487/487 489/489/489 488/488/488
f 488/488/488 490/490/490 487/487/487
f 491/491/491 493/493/493 492/492/492
f 492/492/492 494/494/494 491/491/491
f 495/495/495 497/497/497 496/496/496
f 496/496/496 498/498/498 495/495/495
f 499/499/499 501/501/501 500/500/500
f 500/500/500 502/502/502 499/499/499
f 503/503/503 505/505/505 504/504/504
f 504/504/504 506/506/506 503/503/503
f 507/507/507 509/509/509 508/508/508
f 508/508/508 510/510/510 507/507/507
f 511/511/511 513/513/513 512/512/512
f 512/512/512 514/514/514 511/511/511
f 515/515/515 517/517/517 516/516/516
f 516/516/516 518/518/518 515/515/515
f 519/519/519 521/521/521 520/520/520
f 520/520/520 522/522/522 519/519/519
f 523/523/523 525/525/525 524/524/524
f 524/524/524 526/526/526 523/523/523
f 527/527/527 529/529/529 528/528/528
f 528/528/528 530/530/530 527/527/527
f 531/531/531 533/533/533 532/532/532
f 532/532/532 534/534/534 531/531/531
f 535/535/535 537/537/537 536/536/536
f 536/536/536 538/538/538 535/535/535
f 539/539/539 541/541/541 540/540/540
f 540/540/540 542/542/542 539/539/539
f 542/542/542 543/543/543 539/539/539
f 543/543/543 542/542/542 544/544/544
f 544/544/544 545/545/545 543/543/543
f 546/546/546 545/545/545 544/544/544
