#Mountain_05_355_18.obj

v -4.194438 3.737947 -4.455981E-07
v -7.160106 1.71394 1.266889
v -7.665709 1.715764 -2.045349E-07
v -7.160106 1.71394 1.266889
v -4.194438 3.737947 -4.455981E-07
v -3.933565 3.677024 1.31277
v -7.254385 0.09804125 -1.168716E-08
v -7.160106 1.71394 1.266889
v -6.854487 0.1266425 1.188133
v -7.160106 1.71394 1.266889
v -7.254385 0.09804125 -1.168716E-08
v -7.665709 1.715764 -2.045349E-07
v 3.665561 -2.792712 2.025192
v 6.156198 -2.111068 1.903582
v 5.057958 -2.911879 2.005747
v 6.156198 -2.111068 1.903582
v 3.665561 -2.792712 2.025192
v 6.808692 0.05541315 1.847594
v 6.027656 2.450161 -2.920821E-07
v 7.665709 0.1829357 1.190308
v 6.030297 2.431465 1.334739
v 7.665709 0.1829357 1.190308
v 6.027656 2.450161 -2.920821E-07
v 7.664265 0.1545398 -1.842271E-08
v 6.820557 -2.677265 3.19155E-07
v 5.309934 -3.712568 1.392306
v 6.840151 -2.588093 1.264772
v 5.309934 -3.712568 1.392306
v 6.820557 -2.677265 3.19155E-07
v 5.290359 -3.835666 4.572468E-07
v -3.933565 3.677024 1.31277
v -1.709409 3.249511 2.029637
v -3.601106 2.925803 2.003493
v -1.709409 3.249511 2.029637
v -3.933565 3.677024 1.31277
v -2.041348 3.910073 1.316083
v -7.160106 1.71394 1.266889
v -3.601106 2.925803 2.003493
v -6.175473 1.341346 1.885148
v -3.601106 2.925803 2.003493
v -7.160106 1.71394 1.266889
v -3.933565 3.677024 1.31277
v -4.095046 -3.787009 1.314834
v -5.235808 -1.696642 1.877561
v -3.676632 -3.064918 1.995974
v -5.235808 -1.696642 1.877561
v -4.095046 -3.787009 1.314834
v -6.215342 -1.962351 1.209017
v 3.379787 -3.550973 1.370016
v 2.698069 -1.994805 2.00173
v 3.665561 -2.792712 2.025192
v 2.698069 -1.994805 2.00173
v 3.379787 -3.550973 1.370016
v 2.563112 -2.877885 1.327935
v 6.030297 2.431465 1.334739
v 6.808692 0.05541315 1.847594
v 5.62132 1.662609 1.970607
v 6.808692 0.05541315 1.847594
v 6.030297 2.431465 1.334739
v 7.665709 0.1829357 1.190308
v -6.215342 -1.962351 1.209017
v -4.903863 -0.6808473 1.881354
v -5.235808 -1.696642 1.877561
v -4.903863 -0.6808473 1.881354
v -6.215342 -1.962351 1.209017
v -5.818846 -0.7554355 1.199843
v 2.563112 -2.877885 1.327935
v 0.9772549 -2.664852 2.044155
v 2.698069 -1.994805 2.00173
v 0.9772549 -2.664852 2.044155
v 2.563112 -2.877885 1.327935
v 1.519778 -3.286086 1.342204
v 1.200386 -4.013341 1.371663
v -1.721833 -3.588947 2.053878
v 0.7337856 -3.315431 2.070017
v -1.721833 -3.588947 2.053878
v 1.200386 -4.013341 1.371663
v -1.810347 -4.398075 1.340716
v -6.854487 0.1266425 1.188133
v -6.175473 1.341346 1.885148
v -6.145761 0.6678373 1.84846
v -6.175473 1.341346 1.885148
v -6.854487 0.1266425 1.188133
v -7.160106 1.71394 1.266889
v 3.478029 2.89726 1.349744
v 4.602208 1.618832 1.984561
v 3.020835 2.256284 2.027464
v 4.602208 1.618832 1.984561
v 3.478029 2.89726 1.349744
v 4.761544 2.375827 1.331748
v -1.553586 4.357334 1.335882
v 0.3752401 3.630049 2.069616
v -1.255428 3.675367 2.051443
v 0.3752401 3.630049 2.069616
v -1.553586 4.357334 1.335882
v 0.5697162 4.425913 1.371162
v 1.39199 3.880753 1.362431
v 2.32968 3.01233 2.061684
v 1.141683 3.12454 2.055678
v 2.32968 3.01233 2.061684
v 1.39199 3.880753 1.362431
v 2.700605 3.756188 1.380967
v -2.041348 3.910073 1.316083
v -1.255428 3.675367 2.051443
v -1.709409 3.249511 2.029637
v -1.255428 3.675367 2.051443
v -2.041348 3.910073 1.316083
v -1.553586 4.357334 1.335882
v -1.810347 -4.398075 1.340716
v -3.676632 -3.064918 1.995974
v -1.721833 -3.588947 2.053878
v -3.676632 -3.064918 1.995974
v -1.810347 -4.398075 1.340716
v -4.095046 -3.787009 1.314834
v 4.602208 1.618832 1.984561
v 3.665561 -2.792712 2.025192
v 2.698069 -1.994805 2.00173
v 3.020835 2.256284 2.027464
v 0.9772549 -2.664852 2.044155
v 1.141683 3.12454 2.055678
v 4.602208 1.618832 1.984561
v 6.808692 0.05541315 1.847594
v 3.665561 -2.792712 2.025192
v 6.808692 0.05541315 1.847594
v 4.602208 1.618832 1.984561
v 5.62132 1.662609 1.970607
v -1.721833 -3.588947 2.053878
v 0.9772549 -2.664852 2.044155
v 0.7337856 -3.315431 2.070017
v 0.9772549 -2.664852 2.044155
v -1.721833 -3.588947 2.053878
v 1.141683 3.12454 2.055678
v 3.020835 2.256284 2.027464
v 1.141683 3.12454 2.055678
v 2.32968 3.01233 2.061684
v -1.255428 3.675367 2.051443
v -1.721833 -3.588947 2.053878
v -3.676632 -3.064918 1.995974
v -4.903863 -0.6808473 1.881354
v -1.709409 3.249511 2.029637
v 1.141683 3.12454 2.055678
v -1.255428 3.675367 2.051443
v 0.3752401 3.630049 2.069616
v -1.255428 3.675367 2.051443
v 1.141683 3.12454 2.055678
v -1.721833 -3.588947 2.053878
v -4.903863 -0.6808473 1.881354
v -3.676632 -3.064918 1.995974
v -5.235808 -1.696642 1.877561
v -3.676632 -3.064918 1.995974
v -1.709409 3.249511 2.029637
v -1.255428 3.675367 2.051443
v -3.601106 2.925803 2.003493
v -4.903863 -0.6808473 1.881354
v -5.550162 0.5868786 1.871905
v -4.903863 -0.6808473 1.881354
v -3.601106 2.925803 2.003493
v -1.709409 3.249511 2.029637
v -3.601106 2.925803 2.003493
v -6.145761 0.6678373 1.84846
v -6.175473 1.341346 1.885148
v -6.145761 0.6678373 1.84846
v -3.601106 2.925803 2.003493
v -5.550162 0.5868786 1.871905
v 2.988737 -0.9541728 3.558371
v 4.927302 -1.19546 3.473651
v 4.273017 -1.765046 3.533748
v 4.927302 -1.19546 3.473651
v 2.988737 -0.9541728 3.558371
v 5.275127 0.2153994 3.436962
v -2.726503 2.226573 3.111868
v -1.627334 2.100532 3.639845
v -2.490648 1.783752 3.623822
v -1.627334 2.100532 3.639845
v -2.726503 2.226573 3.111868
v -1.736829 2.531922 3.136091
v -4.258598 1.670021 3.040776
v -2.490648 1.783752 3.623822
v -3.781435 1.271402 3.570411
v -2.490648 1.783752 3.623822
v -4.258598 1.670021 3.040776
v -2.726503 2.226573 3.111868
v -2.762824 -2.637126 3.153882
v -3.249269 -1.241545 3.622845
v -2.524918 -2.152816 3.694747
v -3.249269 -1.241545 3.622845
v -2.762824 -2.637126 3.153882
v -3.835066 -1.467505 3.049566
v 2.862061 -1.444477 3.07532
v 1.87546 -0.5585169 3.591151
v 2.988737 -0.9541728 3.558371
v 1.87546 -0.5585169 3.591151
v 2.862061 -1.444477 3.07532
v 1.842499 -1.120212 3.100537
v 4.318973 1.081607 3.011748
v 5.275127 0.2153994 3.436962
v 4.085328 0.5904672 3.488198
v 5.275127 0.2153994 3.436962
v 4.318973 1.081607 3.011748
v 5.85276 0.3365172 2.925532
v -3.835066 -1.467505 3.049566
v -2.919595 -0.4388365 3.613438
v -3.249269 -1.241545 3.622845
v -2.919595 -0.4388365 3.613438
v -3.835066 -1.467505 3.049566
v -3.472837 -0.5373324 3.051368
v 1.842499 -1.120212 3.100537
v 0.8233237 -1.077237 3.643888
v 1.87546 -0.5585169 3.591151
v 0.8233237 -1.077237 3.643888
v 1.842499 -1.120212 3.100537
v 1.200466 -1.435823 3.127697
v 0.229143 -2.617823 3.18853
v -0.9632666 -2.359019 3.726504
v -0.08700177 -2.196544 3.711949
v -0.9632666 -2.359019 3.726504
v 0.229143 -2.617823 3.18853
v -0.9861146 -2.878271 3.200277
v -3.472837 -0.5373324 3.051368
v -3.322778 0.5950923 3.583383
v -2.919595 -0.4388365 3.613438
v -3.322778 0.5950923 3.583383
v -3.472837 -0.5373324 3.051368
v -3.648597 0.1871697 3.038027
v -4.378531 0.6425558 2.999554
v -3.781435 1.271402 3.570411
v -3.885535 0.8564689 3.556608
v -3.781435 1.271402 3.570411
v -4.378531 0.6425558 2.999554
v -4.258598 1.670021 3.040776
v -3.648597 0.1871697 3.038027
v -3.885535 0.8564689 3.556608
v -3.322778 0.5950923 3.583383
v -3.885535 0.8564689 3.556608
v -3.648597 0.1871697 3.038027
v -4.378531 0.6425558 2.999554
v 2.248857 2.168182 3.102163
v 2.789413 1.051329 3.539411
v 1.990717 1.749049 3.575721
v 2.789413 1.051329 3.539411
v 2.248857 2.168182 3.102163
v 2.852975 1.526858 3.06729
v 2.852975 1.526858 3.06729
v 4.085328 0.5904672 3.488198
v 2.789413 1.051329 3.539411
v 4.085328 0.5904672 3.488198
v 2.852975 1.526858 3.06729
v 4.318973 1.081607 3.011748
v -0.9990005 2.846008 3.15303
v -0.01927228 2.452523 3.640304
v -0.9187261 2.408834 3.648573
v -0.01927228 2.452523 3.640304
v -0.9990005 2.846008 3.15303
v 0.05885208 2.94487 3.156976
v 0.6070421 2.649021 3.140079
v 1.247643 2.167136 3.606209
v 0.492764 2.174582 3.621329
v 1.247643 2.167136 3.606209
v 0.6070421 2.649021 3.140079
v 1.438892 2.641032 3.133259
v 4.504386 -2.265426 3.044842
v 2.988737 -0.9541728 3.558371
v 4.273017 -1.765046 3.533748
v 2.988737 -0.9541728 3.558371
v 4.504386 -2.265426 3.044842
v 2.862061 -1.444477 3.07532
v -0.9861146 -2.878271 3.200277
v -2.524918 -2.152816 3.694747
v -0.9632666 -2.359019 3.726504
v -2.524918 -2.152816 3.694747
v -0.9861146 -2.878271 3.200277
v -2.762824 -2.637126 3.153882
v -0.9632666 -2.359019 3.726504
v 0.8233237 -1.077237 3.643888
v -0.08700177 -2.196544 3.711949
v 0.8233237 -1.077237 3.643888
v -0.9632666 -2.359019 3.726504
v 0.492764 2.174582 3.621329
v 1.990717 1.749049 3.575721
v 0.492764 2.174582 3.621329
v 1.247643 2.167136 3.606209
v -0.9187261 2.408834 3.648573
v -0.9632666 -2.359019 3.726504
v -2.524918 -2.152816 3.694747
v 0.492764 2.174582 3.621329
v -0.9187261 2.408834 3.648573
v -0.01927228 2.452523 3.640304
v -0.9187261 2.408834 3.648573
v 0.492764 2.174582 3.621329
v -0.9632666 -2.359019 3.726504
v -2.919595 -0.4388365 3.613438
v -2.524918 -2.152816 3.694747
v -3.249269 -1.241545 3.622845
v -2.524918 -2.152816 3.694747
v -2.919595 -0.4388365 3.613438
v -1.627334 2.100532 3.639845
v -2.524918 -2.152816 3.694747
v -1.627334 2.100532 3.639845
v -0.9187261 2.408834 3.648573
v -2.490648 1.783752 3.623822
v -2.919595 -0.4388365 3.613438
v -3.322778 0.5950923 3.583383
v -2.919595 -0.4388365 3.613438
v -2.490648 1.783752 3.623822
v -1.627334 2.100532 3.639845
v -2.490648 1.783752 3.623822
v -3.885535 0.8564689 3.556608
v -3.781435 1.271402 3.570411
v -3.885535 0.8564689 3.556608
v -2.490648 1.783752 3.623822
v -3.322778 0.5950923 3.583383
v 4.759294 2.393443 -2.853209E-07
v 6.030297 2.431465 1.334739
v 4.761544 2.375827 1.331748
v 6.027656 2.450161 -2.920821E-07
v 1.356402 3.947886 -4.706244E-07
v 2.700605 3.756188 1.380967
v 1.39199 3.880753 1.362431
v 2.681239 3.818192 -4.551638E-07
v -1.948851 -4.514103 5.381227E-07
v -4.095046 -3.787009 1.314834
v -1.810347 -4.398075 1.340716
v -4.341542 -3.890434 4.637758E-07
v 5.290359 -3.835666 4.572468E-07
v 3.379787 -3.550973 1.370016
v 5.309934 -3.712568 1.392306
v 3.363269 -3.66309 4.366743E-07
v -4.341542 -3.890434 4.637758E-07
v -6.215342 -1.962351 1.209017
v -4.095046 -3.787009 1.314834
v -6.545239 -2.030143 2.420119E-07
v 7.664265 0.1545398 -1.842271E-08
v 6.840151 -2.588093 1.264772
v 7.665709 0.1829357 1.190308
v 6.820557 -2.677265 3.19155E-07
v 3.363269 -3.66309 4.366743E-07
v 2.563112 -2.877885 1.327935
v 3.379787 -3.550973 1.370016
v 2.547072 -2.969805 3.540285E-07
v 1.492747 -3.384924 4.035144E-07
v 1.200386 -4.013341 1.371663
v 1.519778 -3.286086 1.342204
v 1.162397 -4.129623 4.922893E-07
v -6.545239 -2.030143 2.420119E-07
v -5.818846 -0.7554355 1.199843
v -6.215342 -1.962351 1.209017
v -6.111477 -0.7985721 9.519743E-08
v -6.504946 -0.04193877 4.999547E-09
v -6.854487 0.1266425 1.188133
v -6.170843 -0.01196855 1.198651
v -7.254385 0.09804125 -1.168716E-08
v -6.111477 -0.7985721 9.519743E-08
v -6.170843 -0.01196855 1.198651
v -5.818846 -0.7554355 1.199843
v -6.504946 -0.04193877 4.999547E-09
v 2.547072 -2.969805 3.540285E-07
v 1.519778 -3.286086 1.342204
v 2.563112 -2.877885 1.327935
v 1.492747 -3.384924 4.035144E-07
v 2.681239 3.818192 -4.551638E-07
v 3.478029 2.89726 1.349744
v 2.700605 3.756188 1.380967
v 3.469428 2.930438 -3.493354E-07
v 3.469428 2.930438 -3.493354E-07
v 4.761544 2.375827 1.331748
v 3.478029 2.89726 1.349744
v 4.759294 2.393443 -2.853209E-07
v -2.18576 3.97922 -4.743599E-07
v -1.553586 4.357334 1.335882
v -2.041348 3.910073 1.316083
v -1.678718 4.442868 -5.296313E-07
v -1.678718 4.442868 -5.296313E-07
v 0.5697162 4.425913 1.371162
v -1.553586 4.357334 1.335882
v 0.5145205 4.514103 -5.381227E-07
v 0.5145205 4.514103 -5.381227E-07
v 1.39199 3.880753 1.362431
v 0.5697162 4.425913 1.371162
v 1.356402 3.947886 -4.706244E-07
v -4.194438 3.737947 -4.455981E-07
v -2.041348 3.910073 1.316083
v -3.933565 3.677024 1.31277
v -2.18576 3.97922 -4.743599E-07
v 1.162397 -4.129623 4.922893E-07
v -1.810347 -4.398075 1.340716
v 1.200386 -4.013341 1.371663
v -1.948851 -4.514103 5.381227E-07
v 2.700605 3.756188 1.380967
v 3.020835 2.256284 2.027464
v 2.32968 3.01233 2.061684
v 3.478029 2.89726 1.349744
v 6.840151 -2.588093 1.264772
v 5.057958 -2.911879 2.005747
v 6.156198 -2.111068 1.903582
v 5.309934 -3.712568 1.392306
v 7.665709 0.1829357 1.190308
v 6.156198 -2.111068 1.903582
v 6.808692 0.05541315 1.847594
v 6.840151 -2.588093 1.264772
v -5.818846 -0.7554355 1.199843
v -5.550162 0.5868786 1.871905
v -4.903863 -0.6808473 1.881354
v -6.170843 -0.01196855 1.198651
v -6.170843 -0.01196855 1.198651
v -6.145761 0.6678373 1.84846
v -5.550162 0.5868786 1.871905
v -6.854487 0.1266425 1.188133
v 1.519778 -3.286086 1.342204
v 0.7337856 -3.315431 2.070017
v 0.9772549 -2.664852 2.044155
v 1.200386 -4.013341 1.371663
v 4.761544 2.375827 1.331748
v 5.62132 1.662609 1.970607
v 4.602208 1.618832 1.984561
v 6.030297 2.431465 1.334739
v 0.5697162 4.425913 1.371162
v 1.141683 3.12454 2.055678
v 0.3752401 3.630049 2.069616
v 1.39199 3.880753 1.362431
v 5.309934 -3.712568 1.392306
v 3.665561 -2.792712 2.025192
v 5.057958 -2.911879 2.005747
v 3.379787 -3.550973 1.370016
v 2.88644 1.56205 1.829556
v 4.318973 1.081607 3.011748
v 2.852975 1.526858 3.06729
v 4.387317 1.101506 1.797948
v 0.5794473 2.731197 1.858765
v 1.438892 2.641032 3.133259
v 0.6070421 2.649021 3.140079
v 1.437533 2.723164 1.866857
v -2.895442 2.289202 1.812996
v -4.258598 1.670021 3.040776
v -4.52505 1.710684 1.777505
v -2.726503 2.226573 3.111868
v -1.736829 2.531922 3.136091
v -2.726503 2.226573 3.111868
v -1.855699 2.608158 1.830727
v -4.656626 0.645675 1.743983
v -4.258598 1.670021 3.040776
v -4.378531 0.6425558 2.999554
v -4.52505 1.710684 1.777505
v -1.076324 -2.99293 1.864342
v -2.762824 -2.637126 3.153882
v -0.9861146 -2.878271 3.200277
v -2.940944 -2.742911 1.826358
v 4.582382 -2.35234 1.808486
v 2.862061 -1.444477 3.07532
v 4.504386 -2.265426 3.044842
v 2.893497 -1.508827 1.811552
v -2.940944 -2.742911 1.826358
v -3.835066 -1.467505 3.049566
v -2.762824 -2.637126 3.153882
v -4.080203 -1.533346 1.761586
v 5.955955 0.3328162 1.731586
v 5.425344 -1.466444 2.952784
v 5.85276 0.3365172 2.925532
v 5.520916 -1.526937 1.74064
v 4.387317 1.101506 1.797948
v 5.85276 0.3365172 2.925532
v 4.318973 1.081607 3.011748
v 5.955955 0.3328162 1.731586
v 2.893497 -1.508827 1.811552
v 1.842499 -1.120212 3.100537
v 2.862061 -1.444477 3.07532
v 1.845885 -1.175869 1.820386
v 1.185655 -1.502022 1.832828
v 0.229143 -2.617823 3.18853
v 1.200466 -1.435823 3.127697
v 0.1852693 -2.722827 1.867194
v -4.080203 -1.533346 1.761586
v -3.472837 -0.5373324 3.051368
v -3.835066 -1.467505 3.049566
v -3.692059 -0.5744603 1.763973
v -3.877167 0.173754 1.759634
v -4.378531 0.6425558 2.999554
v -3.648597 0.1871697 3.038027
v -4.656626 0.645675 1.743983
v -3.692059 -0.5744603 1.763973
v -3.648597 0.1871697 3.038027
v -3.472837 -0.5373324 3.051368
v -3.877167 0.173754 1.759634
v 1.845885 -1.175869 1.820386
v 1.200466 -1.435823 3.127697
v 1.842499 -1.120212 3.100537
v 1.185655 -1.502022 1.832828
v 1.437533 2.723164 1.866857
v 2.248857 2.168182 3.102163
v 1.438892 2.641032 3.133259
v 2.268911 2.229316 1.853531
v 2.268911 2.229316 1.853531
v 2.852975 1.526858 3.06729
v 2.248857 2.168182 3.102163
v 2.88644 1.56205 1.829556
v -1.855699 2.608158 1.830727
v -0.9990005 2.846008 3.15303
v -1.736829 2.531922 3.136091
v -1.085269 2.937351 1.847496
v -1.085269 2.937351 1.847496
v 0.05885208 2.94487 3.156976
v -0.9990005 2.846008 3.15303
v 0.01328372 3.041357 1.863065
v 0.01328372 3.041357 1.863065
v 0.6070421 2.649021 3.140079
v 0.05885208 2.94487 3.156976
v 0.5794473 2.731197 1.858765
v 5.520916 -1.526937 1.74064
v 4.504386 -2.265426 3.044842
v 5.425344 -1.466444 2.952784
v 4.582382 -2.35234 1.808486
v 0.1852693 -2.722827 1.867194
v -0.9861146 -2.878271 3.200277
v 0.229143 -2.617823 3.18853
v -1.076324 -2.99293 1.864342
v 1.438892 2.641032 3.133259
v 1.990717 1.749049 3.575721
v 1.247643 2.167136 3.606209
v 2.248857 2.168182 3.102163
v 5.425344 -1.466444 2.952784
v 4.273017 -1.765046 3.533748
v 4.927302 -1.19546 3.473651
v 4.504386 -2.265426 3.044842
v 5.85276 0.3365172 2.925532
v 4.927302 -1.19546 3.473651
v 5.275127 0.2153994 3.436962
v 5.425344 -1.466444 2.952784
v 1.200466 -1.435823 3.127697
v -0.08700177 -2.196544 3.711949
v 0.8233237 -1.077237 3.643888
v 0.229143 -2.617823 3.18853
v 0.05885208 2.94487 3.156976
v 0.492764 2.174582 3.621329
v -0.01927228 2.452523 3.640304
v 0.6070421 2.649021 3.140079
v -1.736829 2.531922 3.136091
v -0.9187261 2.408834 3.648573
v -1.627334 2.100532 3.639845
v -0.9990005 2.846008 3.15303
v 2.988737 -0.9541728 3.558371
v 4.085328 0.5904672 3.488198
v 5.275127 0.2153994 3.436962
v 2.789413 1.051329 3.539411
v 1.87546 -0.5585169 3.591151
v 1.990717 1.749049 3.575721
v 0.8233237 -1.077237 3.643888
v 0.492764 2.174582 3.621329

vn -0.4934082 0.1981201 -0.847168
vn -0.4934082 0.1981201 -0.847168
vn -0.4934082 0.1981201 -0.847168
vn -0.5161133 0.1417236 -0.8447266
vn -0.5161133 0.1417236 -0.8447266
vn -0.5161133 0.1417236 -0.8447266
vn -0.9282227 0.3171387 0.194458
vn -0.9282227 0.3171387 0.194458
vn -0.9282227 0.3171387 0.194458
vn -0.9038086 0.3603516 0.2298584
vn -0.9038086 0.3603516 0.2298584
vn -0.9038086 0.3603516 0.2298584
vn 0.02215576 0.9951172 -0.09655762
vn 0.02215576 0.9951172 -0.09655762
vn 0.02215576 0.9951172 -0.09655762
vn 0.04544067 0.9990234 -0.01212311
vn 0.04544067 0.9990234 -0.01212311
vn 0.04544067 0.9990234 -0.01212311
vn 0.809082 0.006633759 -0.5878906
vn 0.809082 0.006633759 -0.5878906
vn 0.809082 0.006633759 -0.5878906
vn 0.8139648 -0.01483154 -0.5805664
vn 0.8139648 -0.01483154 -0.5805664
vn 0.8139648 -0.01483154 -0.5805664
vn 0.5942383 0.04742432 0.8032227
vn 0.5942383 0.04742432 0.8032227
vn 0.5942383 0.04742432 0.8032227
vn 0.6025391 0.06188965 0.7958984
vn 0.6025391 0.06188965 0.7958984
vn 0.6025391 0.06188965 0.7958984
vn -0.1204224 0.7568359 -0.6425781
vn -0.1204224 0.7568359 -0.6425781
vn -0.1204224 0.7568359 -0.6425781
vn -0.08868408 0.6987305 -0.7099609
vn -0.08868408 0.6987305 -0.7099609
vn -0.08868408 0.6987305 -0.7099609
vn -0.3308105 0.8144531 -0.4768066
vn -0.3308105 0.8144531 -0.4768066
vn -0.3308105 0.8144531 -0.4768066
vn -0.3444824 0.762207 -0.5483398
vn -0.3444824 0.762207 -0.5483398
vn -0.3444824 0.762207 -0.5483398
vn -0.4575195 0.7636719 0.4553223
vn -0.4575195 0.7636719 0.4553223
vn -0.4575195 0.7636719 0.4553223
vn -0.4204102 0.7919922 0.442627
vn -0.4204102 0.7919922 0.442627
vn -0.4204102 0.7919922 0.442627
vn -0.4260254 0.7578125 0.4941406
vn -0.4260254 0.7578125 0.4941406
vn -0.4260254 0.7578125 0.4941406
vn -0.4484863 0.7421875 0.4978027
vn -0.4484863 0.7421875 0.4978027
vn -0.4484863 0.7421875 0.4978027
vn 0.5444336 0.765625 -0.3435059
vn 0.5444336 0.765625 -0.3435059
vn 0.5444336 0.765625 -0.3435059
vn 0.5390625 0.7695313 -0.3427734
vn 0.5390625 0.7695313 -0.3427734
vn 0.5390625 0.7695313 -0.3427734
vn -0.5878906 0.7866211 -0.189209
vn -0.5878906 0.7866211 -0.189209
vn -0.5878906 0.7866211 -0.189209
vn -0.5957031 0.7773438 -0.2015381
vn -0.5957031 0.7773438 -0.2015381
vn -0.5957031 0.7773438 -0.2015381
vn 0.2563477 0.7490234 0.6108398
vn 0.2563477 0.7490234 0.6108398
vn 0.2563477 0.7490234 0.6108398
vn 0.2524414 0.7431641 0.6196289
vn 0.2524414 0.7431641 0.6196289
vn 0.2524414 0.7431641 0.6196289
vn 0.07110596 0.7285156 0.6811523
vn 0.07110596 0.7285156 0.6811523
vn 0.07110596 0.7285156 0.6811523
vn 0.07720947 0.7436523 0.6640625
vn 0.07720947 0.7436523 0.6640625
vn 0.07720947 0.7436523 0.6640625
vn -0.6508789 0.7558594 0.06988525
vn -0.6508789 0.7558594 0.06988525
vn -0.6508789 0.7558594 0.06988525
vn -0.565918 0.8110352 0.1491699
vn -0.565918 0.8110352 0.1491699
vn -0.565918 0.8110352 0.1491699
vn 0.2644043 0.7509766 -0.6054688
vn 0.2644043 0.7509766 -0.6054688
vn 0.2644043 0.7509766 -0.6054688
vn 0.2543945 0.7583008 -0.6000977
vn 0.2543945 0.7583008 -0.6000977
vn 0.2543945 0.7583008 -0.6000977
vn 0.01252747 0.6870117 -0.7265625
vn 0.01252747 0.6870117 -0.7265625
vn 0.01252747 0.6870117 -0.7265625
vn -0.03384399 0.7470703 -0.6640625
vn -0.03384399 0.7470703 -0.6640625
vn -0.03384399 0.7470703 -0.6640625
vn 0.05892944 0.7456055 -0.6640625
vn 0.05892944 0.7456055 -0.6640625
vn 0.05892944 0.7456055 -0.6640625
vn 0.05218506 0.7495117 -0.659668
vn 0.05218506 0.7495117 -0.659668
vn 0.05218506 0.7495117 -0.659668
vn -0.5053711 0.7006836 -0.5029297
vn -0.5053711 0.7006836 -0.5029297
vn -0.5053711 0.7006836 -0.5029297
vn -0.4992676 0.6977539 -0.5136719
vn -0.4992676 0.6977539 -0.5136719
vn -0.4992676 0.6977539 -0.5136719
vn -0.1928711 0.746582 0.6367188
vn -0.1928711 0.746582 0.6367188
vn -0.1928711 0.746582 0.6367188
vn -0.1745605 0.7646484 0.6201172
vn -0.1745605 0.7646484 0.6201172
vn -0.1745605 0.7646484 0.6201172
vn -0.01416779 1 -0.01221466
vn -0.01416779 1 -0.01221466
vn -0.01416779 1 -0.01221466
vn 0.02781677 0.9995117 0.008163452
vn 0.02781677 0.9995117 0.008163452
vn 0.01390839 1 0.002386093
vn 0.05950928 0.9980469 0.003444672
vn 0.05950928 0.9980469 0.003444672
vn 0.05950928 0.9980469 0.003444672
vn 0.01641846 0.9975586 0.06420898
vn 0.01641846 0.9975586 0.06420898
vn 0.01641846 0.9975586 0.06420898
vn -0.01146698 0.9990234 -0.04400635
vn -0.01146698 0.9990234 -0.04400635
vn -0.01146698 0.9990234 -0.04400635
vn 0.004325867 1 0.002113342
vn 0.004325867 1 0.002113342
vn 0.004325867 1 0.002113342
vn -0.01019287 0.9985352 0.05450439
vn -0.01019287 0.9985352 0.05450439
vn -0.01019287 0.9985352 0.05450439
vn -0.02902222 0.9995117 -0.002199173
vn -0.02902222 0.9995117 -0.002199173
vn -0.02902222 0.9995117 -0.002199173
vn -0.06451416 0.9980469 -0.01477051
vn -0.06451416 0.9980469 -0.01477051
vn -0.01242065 0.9990234 0.0463562
vn -0.01242065 0.9990234 0.0463562
vn -0.01242065 0.9990234 0.0463562
vn -0.001665115 1 -0.000442028
vn -0.001665115 1 -0.000442028
vn -0.001665115 1 -0.000442028
vn -0.06143188 0.9980469 -0.01635742
vn -0.06143188 0.9980469 -0.01635742
vn -0.06143188 0.9980469 -0.01635742
vn -0.06066895 0.9980469 -0.01358032
vn -0.06066895 0.9980469 -0.01358032
vn -0.06066895 0.9980469 -0.01358032
vn -0.04736328 0.9985352 0.01670837
vn -0.04736328 0.9985352 0.01670837
vn -0.04736328 0.9985352 0.01670837
vn -0.008552551 0.9995117 0.03076172
vn -0.008552551 0.9995117 0.03076172
vn -0.008552551 0.9995117 0.03076172
vn -0.01210022 0.9985352 0.05493164
vn -0.01210022 0.9985352 0.05493164
vn -0.01210022 0.9985352 0.05493164
vn -0.04217529 0.9990234 0.02104187
vn -0.04217529 0.9990234 0.02104187
vn -0.04217529 0.9990234 0.02104187
vn 0.04962158 0.9975586 -0.04827881
vn 0.04962158 0.9975586 -0.04827881
vn 0.04962158 0.9975586 -0.04827881
vn 0.04550171 0.9990234 -0.01476288
vn 0.04550171 0.9990234 -0.01476288
vn 0.04550171 0.9990234 -0.01476288
vn -0.2583008 0.6972656 -0.668457
vn -0.2583008 0.6972656 -0.668457
vn -0.2583008 0.6972656 -0.668457
vn -0.2359619 0.6611328 -0.7124023
vn -0.2359619 0.6611328 -0.7124023
vn -0.2359619 0.6611328 -0.7124023
vn -0.2797852 0.7255859 -0.6289063
vn -0.2797852 0.7255859 -0.6289063
vn -0.2797852 0.7255859 -0.6289063
vn -0.2729492 0.6982422 -0.6621094
vn -0.2729492 0.6982422 -0.6621094
vn -0.2729492 0.6982422 -0.6621094
vn -0.612793 0.6591797 0.4353027
vn -0.612793 0.6591797 0.4353027
vn -0.612793 0.6591797 0.4353027
vn -0.5405273 0.722168 0.4311523
vn -0.5405273 0.722168 0.4311523
vn -0.5405273 0.722168 0.4311523
vn -0.2124023 0.7231445 0.6572266
vn -0.2124023 0.7231445 0.6572266
vn -0.2124023 0.7231445 0.6572266
vn -0.1851807 0.7456055 0.6401367
vn -0.1851807 0.7456055 0.6401367
vn -0.1851807 0.7456055 0.6401367
vn 0.2277832 0.7509766 -0.6201172
vn 0.2277832 0.7509766 -0.6201172
vn 0.2277832 0.7509766 -0.6201172
vn 0.3779297 0.5947266 -0.7094727
vn 0.3779297 0.5947266 -0.7094727
vn 0.3779297 0.5947266 -0.7094727
vn -0.7236328 0.6196289 -0.3044434
vn -0.7236328 0.6196289 -0.3044434
vn -0.7236328 0.6196289 -0.3044434
vn -0.7089844 0.6494141 -0.2749023
vn -0.7089844 0.6494141 -0.2749023
vn -0.7089844 0.6494141 -0.2749023
vn 0.3449707 0.6967773 0.6289063
vn 0.3449707 0.6967773 0.6289063
vn 0.3449707 0.6967773 0.6289063
vn 0.342041 0.6918945 0.6362305
vn 0.342041 0.6918945 0.6362305
vn 0.342041 0.6918945 0.6362305
vn 0.145752 0.6723633 0.7260742
vn 0.145752 0.6723633 0.7260742
vn 0.145752 0.6723633 0.7260742
vn 0.1580811 0.6899414 0.7060547
vn 0.1580811 0.6899414 0.7060547
vn 0.1580811 0.6899414 0.7060547
vn -0.6704102 0.7021484 0.2409668
vn -0.6704102 0.7021484 0.2409668
vn -0.6704102 0.7021484 0.2409668
vn -0.7802734 0.5996094 0.1782227
vn -0.7802734 0.5996094 0.1782227
vn -0.7802734 0.5996094 0.1782227
vn -0.7695313 0.6147461 -0.1726074
vn -0.7695313 0.6147461 -0.1726074
vn -0.7695313 0.6147461 -0.1726074
vn -0.7202148 0.6914063 -0.05633545
vn -0.7202148 0.6914063 -0.05633545
vn -0.7202148 0.6914063 -0.05633545
vn -0.3337402 0.684082 0.6484375
vn -0.3337402 0.684082 0.6484375
vn -0.3337402 0.684082 0.6484375
vn -0.4343262 0.6313477 0.6425781
vn -0.4343262 0.6313477 0.6425781
vn -0.4343262 0.6313477 0.6425781
vn 0.4790039 0.7133789 -0.5112305
vn 0.4790039 0.7133789 -0.5112305
vn 0.4790039 0.7133789 -0.5112305
vn 0.5932617 0.609375 -0.5258789
vn 0.5932617 0.609375 -0.5258789
vn 0.5932617 0.609375 -0.5258789
vn 0.2631836 0.7021484 -0.6616211
vn 0.2631836 0.7021484 -0.6616211
vn 0.2631836 0.7021484 -0.6616211
vn 0.2180176 0.7504883 -0.6240234
vn 0.2180176 0.7504883 -0.6240234
vn 0.2180176 0.7504883 -0.6240234
vn -0.03018188 0.6640625 -0.7470703
vn -0.03018188 0.6640625 -0.7470703
vn -0.03018188 0.6640625 -0.7470703
vn -0.06848145 0.706543 -0.7045898
vn -0.06848145 0.706543 -0.7045898
vn -0.06848145 0.706543 -0.7045898
vn 0.02110291 0.7045898 -0.7094727
vn 0.02110291 0.7045898 -0.7094727
vn 0.02110291 0.7045898 -0.7094727
vn 0.01258087 0.7104492 -0.7036133
vn 0.01258087 0.7104492 -0.7036133
vn 0.01258087 0.7104492 -0.7036133
vn -0.4460449 0.5283203 0.7226563
vn -0.4460449 0.5283203 0.7226563
vn -0.4460449 0.5283203 0.7226563
vn -0.3010254 0.7172852 0.6289063
vn -0.3010254 0.7172852 0.6289063
vn -0.3010254 0.7172852 0.6289063
vn -0.1073608 0.7006836 0.7055664
vn -0.1073608 0.7006836 0.7055664
vn -0.1073608 0.7006836 0.7055664
vn -0.1149902 0.6904297 0.7143555
vn -0.1149902 0.6904297 0.7143555
vn -0.1149902 0.6904297 0.7143555
vn 0.006271362 0.9985352 -0.05560303
vn 0.006271362 0.9985352 -0.05560303
vn 0.006271362 0.9985352 -0.05560303
vn 0.03842163 0.9990234 -0.01084137
vn 0.03842163 0.9990234 -0.01084137
vn 0.03842163 0.9990234 -0.01084137
vn 0.01963806 0.9990234 0.03796387
vn 0.01963806 0.9990234 0.03796387
vn 0.01963806 0.9990234 0.03796387
vn -0.0181427 0.9995117 -0.01651001
vn -0.0181427 0.9995117 -0.01651001
vn -0.0181427 0.9995117 -0.01651001
vn 0.01146698 0.9990234 0.04705811
vn 0.01146698 0.9990234 0.04705811
vn 0.01146698 0.9990234 0.04705811
vn 0.02197266 0.9995117 -0.01612854
vn 0.02197266 0.9995117 -0.01612854
vn 0.02197266 0.9995117 -0.01612854
vn -0.05560303 0.9980469 -0.0345459
vn -0.05560303 0.9980469 -0.0345459
vn -0.05560303 0.9980469 -0.0345459
vn -0.07800293 0.996582 -0.02931213
vn -0.07800293 0.996582 -0.02931213
vn -0.07800293 0.996582 -0.02931213
vn -0.01974487 0.9995117 -0.01707458
vn -0.01974487 0.9995117 -0.01707458
vn -0.01974487 0.9995117 -0.01707458
vn -0.05776978 0.9985352 -0.0064888
vn -0.05776978 0.9985352 -0.0064888
vn -0.05776978 0.9985352 -0.0064888
vn -0.01812744 1 0.001173019
vn -0.01812744 1 0.001173019
vn -0.01812744 1 0.001173019
vn -0.03125 0.9990234 0.02539063
vn -0.03125 0.9990234 0.02539063
vn -0.03125 0.9990234 0.02539063
vn -0.04776001 0.9990234 0.0005383492
vn -0.04776001 0.9990234 0.0005383492
vn -0.04776001 0.9990234 0.0005383492
vn -0.04382324 0.01329041 -0.9990234
vn -0.04382324 0.01329041 -0.9990234
vn -0.04382324 0.01329041 -0.9990234
vn -0.04467773 0.01408386 -0.9990234
vn 0.09399414 0.04653931 -0.9946289
vn 0.09399414 0.04653931 -0.9946289
vn 0.09399414 0.04653931 -0.9946289
vn 0.09735107 0.04327393 -0.9941406
vn -0.2580566 0.1097412 0.9599609
vn -0.2580566 0.1097412 0.9599609
vn -0.2580566 0.1097412 0.9599609
vn -0.2502441 0.1224976 0.9604492
vn -0.08410645 0.08892822 0.9926758
vn -0.08410645 0.08892822 0.9926758
vn -0.08410645 0.08892822 0.9926758
vn -0.08886719 0.08233643 0.9926758
vn -0.6469727 0.1795654 0.7412109
vn -0.6469727 0.1795654 0.7412109
vn -0.6469727 0.1795654 0.7412109
vn -0.6303711 0.2137451 0.746582
vn 0.9584961 0.005645752 0.2854004
vn 0.9584961 0.005645752 0.2854004
vn 0.9584961 0.005645752 0.2854004
vn 0.9584961 0.005283356 0.2856445
vn -0.6367188 0.07049561 0.7680664
vn -0.6367188 0.07049561 0.7680664
vn -0.6367188 0.07049561 0.7680664
vn -0.6459961 0.06045532 0.7607422
vn 0.9155273 0.01113892 0.4016113
vn 0.9155273 0.01113892 0.4016113
vn 0.9155273 0.01113892 0.4016113
vn 0.9140625 0.009056091 0.4055176
vn -0.9228516 0.2347412 -0.3049316
vn -0.9228516 0.2347412 -0.3049316
vn -0.9228516 0.2347412 -0.3049316
vn -0.9213867 0.2131348 -0.3244629
vn -0.1992188 0.07995605 0.9765625
vn -0.1992188 0.07995605 0.9765625
vn -0.1992188 0.07995605 0.9765625
vn -0.1829834 0.08514404 0.9794922
vn -0.8798828 0.2294922 0.4162598
vn -0.8798828 0.2294922 0.4162598
vn -0.8798828 0.2294922 0.4162598
vn -0.8588867 0.2504883 0.4465332
vn 0.364502 0.05993652 0.9291992
vn 0.364502 0.05993652 0.9291992
vn 0.364502 0.05993652 0.9291992
vn 0.3657227 0.06103516 0.9287109
vn 0.7416992 0.0196991 -0.6704102
vn 0.7416992 0.0196991 -0.6704102
vn 0.7416992 0.0196991 -0.6704102
vn 0.7475586 0.0115509 -0.6640625
vn 0.3764648 0.02037048 -0.9262695
vn 0.3764648 0.02037048 -0.9262695
vn 0.3764648 0.02037048 -0.9262695
vn 0.3842773 0.01155853 -0.9233398
vn -0.6738281 0.1123047 -0.7299805
vn -0.6738281 0.1123047 -0.7299805
vn -0.6738281 0.1123047 -0.7299805
vn -0.6708984 0.1098022 -0.7333984
vn -0.0333252 0.06695557 -0.9970703
vn -0.0333252 0.06695557 -0.9970703
vn -0.0333252 0.06695557 -0.9970703
vn -0.03237915 0.06542969 -0.9975586
vn 0.5527344 0.03134155 -0.8330078
vn 0.5527344 0.03134155 -0.8330078
vn 0.5527344 0.03134155 -0.8330078
vn 0.5581055 0.02630615 -0.8295898
vn -0.1220703 0.07019043 -0.9902344
vn -0.1220703 0.07019043 -0.9902344
vn -0.1220703 0.07019043 -0.9902344
vn -0.1190186 0.06512451 -0.9907227
vn 0.1254883 0.08032227 0.9887695
vn 0.1254883 0.08032227 0.9887695
vn 0.1254883 0.08032227 0.9887695
vn 0.1223145 0.07299805 0.9897461
vn 0.5073242 0.746582 -0.4301758
vn 0.5073242 0.746582 -0.4301758
vn 0.5073242 0.746582 -0.4301758
vn 0.5053711 0.7480469 -0.4301758
vn 0.4106445 0.7856445 0.4631348
vn 0.4106445 0.7856445 0.4631348
vn 0.4106445 0.7856445 0.4631348
vn 0.4104004 0.7817383 0.4697266
vn 0.6157227 0.7705078 0.1655273
vn 0.6157227 0.7705078 0.1655273
vn 0.6157227 0.7705078 0.1655273
vn 0.6113281 0.7749023 0.1612549
vn -0.559082 0.7807617 0.2790527
vn -0.559082 0.7807617 0.2790527
vn -0.559082 0.7807617 0.2790527
vn -0.5751953 0.7714844 0.2712402
vn -0.1212158 0.7197266 0.6835938
vn -0.1212158 0.7197266 0.6835938
vn -0.1212158 0.7197266 0.6835938
vn -0.1490479 0.7177734 0.6801758
vn 0.6669922 0.7114258 0.2213135
vn 0.6669922 0.7114258 0.2213135
vn 0.6669922 0.7114258 0.2213135
vn 0.6611328 0.703125 0.2617188
vn -0.01780701 0.7553711 -0.6552734
vn -0.01780701 0.7553711 -0.6552734
vn -0.01780701 0.7553711 -0.6552734
vn -0.03015137 0.762207 -0.6464844
vn 0.380127 0.7392578 -0.5556641
vn 0.380127 0.7392578 -0.5556641
vn 0.380127 0.7392578 -0.5556641
vn 0.3762207 0.7416992 -0.5551758
vn -0.04171753 0.7866211 0.6157227
vn -0.04171753 0.7866211 0.6157227
vn -0.04171753 0.7866211 0.6157227
vn -0.06234741 0.7666016 0.6391602
vn 0.291748 0.0350647 -0.9560547
vn 0.291748 0.0350647 -0.9560547
vn 0.291748 0.0350647 -0.9560547
vn 0.2937012 0.03219604 -0.9550781
vn 0.01010895 0.06378174 -0.9980469
vn 0.01010895 0.06378174 -0.9980469
vn 0.01010895 0.06378174 -0.9980469
vn 0.008728027 0.06469727 -0.9980469
vn -0.3347168 0.100769 -0.9370117
vn -0.3347168 0.100769 -0.9370117
vn -0.3347168 0.100769 -0.9370117
vn -0.34375 0.08978271 -0.9345703
vn -0.2956543 0.08435059 -0.9516602
vn -0.2956543 0.08435059 -0.9516602
vn -0.293457 0.08233643 -0.9521484
vn -0.9707031 0.215332 -0.1046753
vn -0.9707031 0.215332 -0.1046753
vn -0.9707031 0.215332 -0.1046753
vn -0.9711914 0.2084961 -0.1134644
vn -0.1363525 0.09387207 0.9863281
vn -0.1363525 0.09387207 0.9863281
vn -0.1363525 0.09387207 0.9863281
vn -0.1341553 0.09661865 0.9863281
vn -0.4462891 0.03469849 0.894043
vn -0.4462891 0.03469849 0.894043
vn -0.4462891 0.03469849 0.894043
vn -0.4465332 0.03442383 0.894043
vn -0.7353516 0.1512451 0.6606445
vn -0.7353516 0.1512451 0.6606445
vn -0.7353516 0.1512451 0.6606445
vn -0.7216797 0.1716309 0.6704102
vn 0.9697266 0.08453369 0.2286377
vn 0.9697266 0.08453369 0.2286377
vn 0.9697266 0.08453369 0.2286377
vn 0.9702148 0.08776855 0.2264404
vn 0.4384766 0.03939819 -0.8979492
vn 0.4384766 0.03939819 -0.8979492
vn 0.4384766 0.03939819 -0.8979492
vn 0.440918 0.03533936 -0.8969727
vn -0.302002 0.04098511 0.9526367
vn -0.302002 0.04098511 0.9526367
vn -0.302002 0.04098511 0.9526367
vn -0.3022461 0.04058838 0.9521484
vn 0.7729492 0.02357483 0.6337891
vn 0.7729492 0.02357483 0.6337891
vn 0.7729492 0.02357483 0.6337891
vn 0.7734375 0.02462769 0.6333008
vn -0.9204102 0.1568604 -0.3581543
vn -0.9204102 0.1568604 -0.3581543
vn -0.9204102 0.1568604 -0.3581543
vn -0.9169922 0.1455078 -0.3708496
vn -0.5302734 0.1036377 0.8413086
vn -0.5302734 0.1036377 0.8413086
vn -0.5302734 0.1036377 0.8413086
vn -0.5161133 0.1122437 0.8491211
vn -0.9584961 0.1697998 0.2293701
vn -0.9584961 0.1697998 0.2293701
vn -0.9584961 0.1697998 0.2293701
vn -0.9560547 0.1734619 0.2355957
vn 0.4421387 0.04013062 0.8959961
vn 0.4421387 0.04013062 0.8959961
vn 0.4421387 0.04013062 0.8959961
vn 0.4431152 0.04071045 0.8955078
vn 0.5048828 0.05532837 -0.8613281
vn 0.5048828 0.05532837 -0.8613281
vn 0.5048828 0.05532837 -0.8613281
vn 0.5107422 0.05023193 -0.8583984
vn 0.7285156 0.04516602 -0.6835938
vn 0.7285156 0.04516602 -0.6835938
vn 0.7285156 0.04516602 -0.6835938
vn 0.7338867 0.03912354 -0.6777344
vn -0.3918457 0.08917236 -0.9155273
vn -0.3918457 0.08917236 -0.9155273
vn -0.3918457 0.08917236 -0.9155273
vn -0.3930664 0.09002686 -0.9150391
vn -0.09307861 0.07562256 -0.9926758
vn -0.09307861 0.07562256 -0.9926758
vn -0.09307861 0.07562256 -0.9926758
vn -0.09503174 0.07733154 -0.9926758
vn 0.4755859 0.04873657 -0.878418
vn 0.4755859 0.04873657 -0.878418
vn 0.4755859 0.04873657 -0.878418
vn 0.4802246 0.0458374 -0.8759766
vn 0.6577148 0.08917236 0.7480469
vn 0.6577148 0.08917236 0.7480469
vn 0.6577148 0.08917236 0.7480469
vn 0.6611328 0.09405518 0.7441406
vn 0.2097168 0.07055664 0.9750977
vn 0.2097168 0.07055664 0.9750977
vn 0.2097168 0.07055664 0.9750977
vn 0.2087402 0.06964111 0.9755859
vn 0.3581543 0.7290039 -0.5830078
vn 0.3581543 0.7290039 -0.5830078
vn 0.3581543 0.7290039 -0.5830078
vn 0.369873 0.7207031 -0.5864258
vn 0.4904785 0.7226563 0.4873047
vn 0.4904785 0.7226563 0.4873047
vn 0.4904785 0.7226563 0.4873047
vn 0.4907227 0.7255859 0.4821777
vn 0.6728516 0.7250977 0.1469727
vn 0.6728516 0.7250977 0.1469727
vn 0.6728516 0.7250977 0.1469727
vn 0.6748047 0.7226563 0.1490479
vn 0.5688477 0.7070313 0.4196777
vn 0.5688477 0.7070313 0.4196777
vn 0.5688477 0.7070313 0.4196777
vn 0.5722656 0.6953125 0.4345703
vn 0.3635254 0.6928711 -0.6225586
vn 0.3635254 0.6928711 -0.6225586
vn 0.3635254 0.6928711 -0.6225586
vn 0.3569336 0.6972656 -0.621582
vn -0.3076172 0.6567383 -0.6884766
vn -0.3076172 0.6567383 -0.6884766
vn -0.3076172 0.6567383 -0.6884766
vn -0.3081055 0.6567383 -0.6879883
vn 0.03399658 0.9995117 -0.01282501
vn 0.04440308 0.9990234 -0.01385498
vn 0.04684448 0.9990234 -0.01213074
vn 0.03399658 0.9995117 -0.01282501
vn 0.03399658 0.9995117 -0.01282501
vn 0.04794312 0.9990234 -0.004283905
vn 0.04794312 0.9990234 -0.004283905
vn 0.03335571 0.9995117 -0.01032257

vt 0.08331299 0
vt 0.25 0.7207031
vt 0.25 0
vt 0.25 0.7207031
vt 0.08331299 0
vt 0.08331299 0.7207031
vt 0.270752 0
vt 0.25 0.7207031
vt 0.270752 0.7207031
vt 0.25 0.7207031
vt 0.270752 0
vt 0.25 0
vt 0.3081055 1
vt 0.6298828 1
vt 0.5498047 1
vt 0.6298828 1
vt 0.3081055 1
vt 0.7089844 1
vt 0.75 0
vt 0.7084961 0.7207031
vt 0.75 0.7207031
vt 0.7084961 0.7207031
vt 0.75 0
vt 0.7084961 0
vt 0.6665039 0
vt 0.625 0.7207031
vt 0.6665039 0.7207031
vt 0.625 0.7207031
vt 0.6665039 0
vt 0.625 0
vt 0.9819336 1.762695
vt 0.7250977 1
vt 0.5292969 1
vt 0.7250977 1
vt 0.9819336 1.762695
vt 1.454102 1.486328
vt 0.2341309 0.9521484
vt 0.5292969 1
vt 0.282959 1
vt 0.5292969 1
vt 0.2341309 0.9521484
vt 0.489502 1.009766
vt 0.03985596 0.8569336
vt 0.1690674 1
vt 0.1290283 1
vt 0.1690674 1
vt 0.03985596 0.8569336
vt -0.004165649 0.9345703
vt 0.6152344 1.504883
vt 0.4018555 1
vt 0.3081055 1
vt 0.4018555 1
vt 0.6152344 1.504883
vt 0.6157227 1.433594
vt 0.75 0.7207031
vt 0.7089844 1
vt 0.7001953 1
vt 0.7089844 1
vt 0.75 0.7207031
vt 0.7084961 0.7207031
vt 0.1887207 0.8232422
vt -0.01275635 1
vt 0.1690674 1
vt -0.01275635 1
vt 0.1887207 0.8232422
vt 0.1418457 0.8330078
vt 0.3103027 0.8950195
vt 0.3088379 1
vt 0.4018555 1
vt 0.3088379 1
vt 0.3103027 0.8950195
vt 0.2214355 0.9052734
vt 0.189209 0.9379883
vt 0.1605225 1
vt 0.2553711 1
vt 0.1605225 1
vt 0.189209 0.9379883
vt 0.07696533 0.9790039
vt 0.2338867 1.320313
vt 0.282959 1
vt 0.2282715 1
vt 0.282959 1
vt 0.2338867 1.320313
vt 0.4331055 1.299805
vt 0.8334961 0.7207031
vt 0.7202148 1
vt 0.5800781 1
vt 0.7202148 1
vt 0.8334961 0.7207031
vt 0.7915039 0.7207031
vt 0.8359375 1.148438
vt 0.8569336 1
vt 0.7480469 1
vt 0.8569336 1
vt 0.8359375 1.148438
vt 0.9946289 1.094727
vt 0.8823242 1.151367
vt 0.8134766 1
vt 0.7431641 1
vt 0.8134766 1
vt 0.8823242 1.151367
vt 0.9770508 1.134766
vt 0.9882813 2.072266
vt 0.7480469 1
vt 0.7250977 1
vt 0.7480469 1
vt 0.9882813 2.072266
vt 1.302734 2.027344
vt 0.1854248 1.083984
vt 0.1290283 1
vt 0.1605225 1
vt 0.1290283 1
vt 0.1854248 1.083984
vt 0.1945801 1.058594
vt 0.7202148 1
vt 0.3081055 1
vt 0.4018555 1
vt 0.5800781 1
vt 0.3088379 1
vt 0.7431641 1
vt 0.7202148 1
vt 0.7089844 1
vt 0.3081055 1
vt 0.7089844 1
vt 0.7202148 1
vt 0.7001953 1
vt 0.1605225 1
vt 0.3088379 1
vt 0.2553711 1
vt 0.3088379 1
vt 0.1605225 1
vt 0.7431641 1
vt 0.5800781 1
vt 0.7431641 1
vt 0.8134766 1
vt 0.7480469 1
vt 0.1605225 1
vt 0.1290283 1
vt -0.01275635 1
vt 0.7250977 1
vt 0.7431641 1
vt 0.7480469 1
vt 0.8569336 1
vt 0.7480469 1
vt 0.7431641 1
vt 0.1605225 1
vt -0.01275635 1
vt 0.1290283 1
vt 0.1690674 1
vt 0.1290283 1
vt 0.7250977 1
vt 0.7480469 1
vt 0.5292969 1
vt -0.01275635 1
vt 0.2836914 1
vt -0.01275635 1
vt 0.5292969 1
vt 0.7250977 1
vt 0.5292969 1
vt 0.2282715 1
vt 0.282959 1
vt 0.2282715 1
vt 0.5292969 1
vt 0.2836914 1
vt 0.3081055 1
vt 0.6298828 1
vt 0.5498047 1
vt 0.6298828 1
vt 0.3081055 1
vt 0.7089844 1
vt 0.9819336 1.762695
vt 0.7250977 1
vt 0.5292969 1
vt 0.7250977 1
vt 0.9819336 1.762695
vt 1.454102 1.486328
vt 0.2341309 0.9521484
vt 0.5292969 1
vt 0.282959 1
vt 0.5292969 1
vt 0.2341309 0.9521484
vt 0.489502 1.009766
vt 0.03985596 0.8569336
vt 0.1690674 1
vt 0.1290283 1
vt 0.1690674 1
vt 0.03985596 0.8569336
vt -0.004165649 0.9345703
vt 0.6152344 1.504883
vt 0.4018555 1
vt 0.3081055 1
vt 0.4018555 1
vt 0.6152344 1.504883
vt 0.6157227 1.433594
vt 0.75 0.7207031
vt 0.7089844 1
vt 0.7001953 1
vt 0.7089844 1
vt 0.75 0.7207031
vt 0.7084961 0.7207031
vt 0.1887207 0.8232422
vt -0.01275635 1
vt 0.1690674 1
vt -0.01275635 1
vt 0.1887207 0.8232422
vt 0.1418457 0.8330078
vt 0.3103027 0.8950195
vt 0.3088379 1
vt 0.4018555 1
vt 0.3088379 1
vt 0.3103027 0.8950195
vt 0.2214355 0.9052734
vt 0.189209 0.9379883
vt 0.1605225 1
vt 0.2553711 1
vt 0.1605225 1
vt 0.189209 0.9379883
vt 0.07696533 0.9790039
vt 0.1689453 1.164063
vt 0.2836914 1
vt -0.01275635 1
vt 0.2836914 1
vt 0.1689453 1.164063
vt 0.2265625 1.162109
vt 0.2338867 1.320313
vt 0.282959 1
vt 0.2282715 1
vt 0.282959 1
vt 0.2338867 1.320313
vt 0.4331055 1.299805
vt 0.1967773 0.8188477
vt 0.2282715 1
vt 0.2836914 1
vt 0.2282715 1
vt 0.1967773 0.8188477
vt 0.1538086 0.8237305
vt 0.8334961 0.7207031
vt 0.7202148 1
vt 0.5800781 1
vt 0.7202148 1
vt 0.8334961 0.7207031
vt 0.7915039 0.7207031
vt 0.7915039 0.7207031
vt 0.7001953 1
vt 0.7202148 1
vt 0.7001953 1
vt 0.7915039 0.7207031
vt 0.75 0.7207031
vt 0.8359375 1.148438
vt 0.8569336 1
vt 0.7480469 1
vt 0.8569336 1
vt 0.8359375 1.148438
vt 0.9946289 1.094727
vt 0.8823242 1.151367
vt 0.8134766 1
vt 0.7431641 1
vt 0.8134766 1
vt 0.8823242 1.151367
vt 0.9770508 1.134766
vt 0.625 0.7207031
vt 0.3081055 1
vt 0.5498047 1
vt 0.3081055 1
vt 0.625 0.7207031
vt 0.5834961 0.7207031
vt 0.1854248 1.083984
vt 0.1290283 1
vt 0.1605225 1
vt 0.1290283 1
vt 0.1854248 1.083984
vt 0.1945801 1.058594
vt 0.1605225 1
vt 0.3088379 1
vt 0.2553711 1
vt 0.3088379 1
vt 0.1605225 1
vt 0.7431641 1
vt 0.5800781 1
vt 0.7431641 1
vt 0.8134766 1
vt 0.7480469 1
vt 0.1605225 1
vt 0.1290283 1
vt 0.7431641 1
vt 0.7480469 1
vt 0.8569336 1
vt 0.7480469 1
vt 0.7431641 1
vt 0.1605225 1
vt -0.01275635 1
vt 0.1290283 1
vt 0.1690674 1
vt 0.1290283 1
vt -0.01275635 1
vt 0.7250977 1
vt 0.1290283 1
vt 0.7250977 1
vt 0.7480469 1
vt 0.5292969 1
vt -0.01275635 1
vt 0.2836914 1
vt -0.01275635 1
vt 0.5292969 1
vt 0.7250977 1
vt 0.5292969 1
vt 0.2282715 1
vt 0.282959 1
vt 0.2282715 1
vt 0.5292969 1
vt 0.2836914 1
vt 0.7915039 0
vt 0.75 0.7207031
vt 0.7915039 0.7207031
vt 0.75 0
vt -0.0625 0
vt -0.08331299 0.7207031
vt -0.0625 0.7207031
vt -0.08331299 0
vt 0.4375 0
vt 0.416748 0.7207031
vt 0.4375 0.7207031
vt 0.416748 0
vt 0.625 0
vt 0.5834961 0.7207031
vt 0.625 0.7207031
vt 0.5834961 0
vt 0.416748 0
vt 0.333252 0.7207031
vt 0.416748 0.7207031
vt 0.333252 0
vt 0.7084961 0
vt 0.6665039 0.7207031
vt 0.7084961 0.7207031
vt 0.6665039 0
vt 0.5834961 0
vt 0.5 0.7207031
vt 0.5834961 0.7207031
vt 0.5 0
vt 0.479248 0
vt 0.458252 0.7207031
vt 0.479248 0.7207031
vt 0.458252 0
vt 0.333252 0
vt 0.291748 0.7207031
vt 0.333252 0.7207031
vt 0.291748 0
vt 0.28125 0
vt 0.270752 0.7207031
vt 0.28125 0.7207031
vt 0.270752 0
vt 0.291748 0
vt 0.28125 0.7207031
vt 0.291748 0.7207031
vt 0.28125 0
vt 0.5 0
vt 0.479248 0.7207031
vt 0.5 0.7207031
vt 0.479248 0
vt 0.9165039 0
vt 0.8334961 0.7207031
vt 0.9165039 0.7207031
vt 0.8334961 0
vt 0.8334961 0
vt 0.7915039 0.7207031
vt 0.8334961 0.7207031
vt 0.7915039 0
vt 0.04165649 0
vt 0 0.7207031
vt 0.04165649 0.7207031
vt 0 0
vt 0 0
vt -0.04165649 0.7207031
vt 0 0.7207031
vt -0.04165649 0
vt -0.04165649 0
vt -0.0625 0.7207031
vt -0.04165649 0.7207031
vt -0.0625 0
vt 0.08331299 0
vt 0.04165649 0.7207031
vt 0.08331299 0.7207031
vt 0.04165649 0
vt 0.458252 0
vt 0.4375 0.7207031
vt 0.458252 0.7207031
vt 0.4375 0
vt 0.9165039 0.7207031
vt 0.5800781 1
vt 0.8134766 1
vt 0.8334961 0.7207031
vt 0.6665039 0.7207031
vt 0.5498047 1
vt 0.6298828 1
vt 0.625 0.7207031
vt 0.7084961 0.7207031
vt 0.6298828 1
vt 0.7089844 1
vt 0.6665039 0.7207031
vt 0.1689453 1.164063
vt 0.2836914 1
vt -0.01275635 1
vt 0.2265625 1.162109
vt 0.1967773 0.8188477
vt 0.2282715 1
vt 0.2836914 1
vt 0.1538086 0.8237305
vt 0.2248535 0.7670898
vt 0.2553711 1
vt 0.3088379 1
vt 0.1106567 0.7758789
vt 0.7915039 0.7207031
vt 0.7001953 1
vt 0.7202148 1
vt 0.75 0.7207031
vt 0.8564453 0.8227539
vt 0.7431641 1
vt 0.8569336 1
vt 0.8164063 0.8295898
vt 0.625 0.7207031
vt 0.3081055 1
vt 0.5498047 1
vt 0.5834961 0.7207031
vt 0.7915039 0
vt 0.75 0.7207031
vt 0.7915039 0.7207031
vt 0.75 0
vt -0.0625 0
vt -0.08331299 0.7207031
vt -0.0625 0.7207031
vt -0.08331299 0
vt 0.08331299 0
vt 0.25 0.7207031
vt 0.25 0
vt 0.08331299 0.7207031
vt 0.04165649 0.7207031
vt 0.08331299 0.7207031
vt 0.04165649 0
vt 0.270752 0
vt 0.25 0.7207031
vt 0.270752 0.7207031
vt 0.25 0
vt 0.4375 0
vt 0.416748 0.7207031
vt 0.4375 0.7207031
vt 0.416748 0
vt 0.625 0
vt 0.5834961 0.7207031
vt 0.625 0.7207031
vt 0.5834961 0
vt 0.416748 0
vt 0.333252 0.7207031
vt 0.416748 0.7207031
vt 0.333252 0
vt 0.7084961 0
vt 0.6665039 0.7207031
vt 0.7084961 0.7207031
vt 0.6665039 0
vt 0.75 0
vt 0.7084961 0.7207031
vt 0.75 0.7207031
vt 0.7084961 0
vt 0.5834961 0
vt 0.5 0.7207031
vt 0.5834961 0.7207031
vt 0.5 0
vt 0.479248 0
vt 0.458252 0.7207031
vt 0.479248 0.7207031
vt 0.458252 0
vt 0.333252 0
vt 0.291748 0.7207031
vt 0.333252 0.7207031
vt 0.291748 0
vt 0.28125 0
vt 0.270752 0.7207031
vt 0.28125 0.7207031
vt 0.270752 0
vt 0.291748 0
vt 0.28125 0.7207031
vt 0.291748 0.7207031
vt 0.28125 0
vt 0.5 0
vt 0.479248 0.7207031
vt 0.5 0.7207031
vt 0.479248 0
vt 0.9165039 0
vt 0.8334961 0.7207031
vt 0.9165039 0.7207031
vt 0.8334961 0
vt 0.8334961 0
vt 0.7915039 0.7207031
vt 0.8334961 0.7207031
vt 0.7915039 0
vt 0.04165649 0
vt 0 0.7207031
vt 0.04165649 0.7207031
vt 0 0
vt 0 0
vt -0.04165649 0.7207031
vt 0 0.7207031
vt -0.04165649 0
vt -0.04165649 0
vt -0.0625 0.7207031
vt -0.04165649 0.7207031
vt -0.0625 0
vt 0.6665039 0
vt 0.625 0.7207031
vt 0.6665039 0.7207031
vt 0.625 0
vt 0.458252 0
vt 0.4375 0.7207031
vt 0.458252 0.7207031
vt 0.4375 0
vt 0.9165039 0.7207031
vt 0.5800781 1
vt 0.8134766 1
vt 0.8334961 0.7207031
vt 0.6665039 0.7207031
vt 0.5498047 1
vt 0.6298828 1
vt 0.625 0.7207031
vt 0.7084961 0.7207031
vt 0.6298828 1
vt 0.7089844 1
vt 0.6665039 0.7207031
vt 0.2248535 0.7670898
vt 0.2553711 1
vt 0.3088379 1
vt 0.1106567 0.7758789
vt 0.8564453 0.8227539
vt 0.7431641 1
vt 0.8569336 1
vt 0.8164063 0.8295898
vt 0.9882813 2.072266
vt 0.7480469 1
vt 0.7250977 1
vt 1.302734 2.027344
vt 0.3081055 1
vt 0.7001953 1
vt 0.7089844 1
vt 0.7202148 1
vt 0.4018555 1
vt 0.5800781 1
vt 0.3088379 1
vt 0.7431641 1

g Mountain_05_355_18
usemtl Mountain_05_355_18
usemap Mountain_05_355_18
f 1/1/1 3/3/3 2/2/2
f 4/4/4 6/6/6 5/5/5
f 7/7/7 9/9/9 8/8/8
f 10/10/10 12/12/12 11/11/11
f 13/13/13 15/15/15 14/14/14
f 16/16/16 18/18/18 17/17/17
f 19/19/19 21/21/21 20/20/20
f 22/22/22 24/24/24 23/23/23
f 25/25/25 27/27/27 26/26/26
f 28/28/28 30/30/30 29/29/29
f 31/31/31 33/33/33 32/32/32
f 34/34/34 36/36/36 35/35/35
f 37/37/37 39/39/39 38/38/38
f 40/40/40 42/42/42 41/41/41
f 43/43/43 45/45/45 44/44/44
f 46/46/46 48/48/48 47/47/47
f 49/49/49 51/51/51 50/50/50
f 52/52/52 54/54/54 53/53/53
f 55/55/55 57/57/57 56/56/56
f 58/58/58 60/60/60 59/59/59
f 61/61/61 63/63/63 62/62/62
f 64/64/64 66/66/66 65/65/65
f 67/67/67 69/69/69 68/68/68
f 70/70/70 72/72/72 71/71/71
f 73/73/73 75/75/75 74/74/74
f 76/76/76 78/78/78 77/77/77
f 79/79/79 81/81/81 80/80/80
f 82/82/82 84/84/84 83/83/83
f 85/85/85 87/87/87 86/86/86
f 88/88/88 90/90/90 89/89/89
f 91/91/91 93/93/93 92/92/92
f 94/94/94 96/96/96 95/95/95
f 97/97/97 99/99/99 98/98/98
f 100/100/100 102/102/102 101/101/101
f 103/103/103 105/105/105 104/104/104
f 106/106/106 108/108/108 107/107/107
f 109/109/109 111/111/111 110/110/110
f 112/112/112 114/114/114 113/113/113
f 115/115/115 117/117/117 116/116/116
f 118/118/118 119/119/119 117/117/117
f 120/120/120 119/119/119 118/118/118
f 117/117/117 121/121/121 118/118/118
f 121/121/121 123/123/123 122/122/122
f 124/124/124 126/126/126 125/125/125
f 127/127/127 129/129/129 128/128/128
f 130/130/130 132/132/132 131/131/131
f 133/133/133 135/135/135 134/134/134
f 136/136/136 138/138/138 137/137/137
f 138/138/138 140/140/140 139/139/139
f 141/141/141 143/143/143 142/142/142
f 144/144/144 146/146/146 145/145/145
f 147/147/147 149/149/149 148/148/148
f 150/150/150 152/152/152 151/151/151
f 153/153/153 155/155/155 154/154/154
f 156/156/156 158/158/158 157/157/157
f 159/159/159 161/161/161 160/160/160
f 162/162/162 164/164/164 163/163/163
f 165/165/165 167/167/167 166/166/166
f 168/168/168 170/170/170 169/169/169
f 171/171/171 173/173/173 172/172/172
f 174/174/174 176/176/176 175/175/175
f 177/177/177 179/179/179 178/178/178
f 180/180/180 182/182/182 181/181/181
f 183/183/183 185/185/185 184/184/184
f 186/186/186 188/188/188 187/187/187
f 189/189/189 191/191/191 190/190/190
f 192/192/192 194/194/194 193/193/193
f 195/195/195 197/197/197 196/196/196
f 198/198/198 200/200/200 199/199/199
f 201/201/201 203/203/203 202/202/202
f 204/204/204 206/206/206 205/205/205
f 207/207/207 209/209/209 208/208/208
f 210/210/210 212/212/212 211/211/211
f 213/213/213 215/215/215 214/214/214
f 216/216/216 218/218/218 217/217/217
f 219/219/219 221/221/221 220/220/220
f 222/222/222 224/224/224 223/223/223
f 225/225/225 227/227/227 226/226/226
f 228/228/228 230/230/230 229/229/229
f 231/231/231 233/233/233 232/232/232
f 234/234/234 236/236/236 235/235/235
f 237/237/237 239/239/239 238/238/238
f 240/240/240 242/242/242 241/241/241
f 243/243/243 245/245/245 244/244/244
f 246/246/246 248/248/248 247/247/247
f 249/249/249 251/251/251 250/250/250
f 252/252/252 254/254/254 253/253/253
f 255/255/255 257/257/257 256/256/256
f 258/258/258 260/260/260 259/259/259
f 261/261/261 263/263/263 262/262/262
f 264/264/264 266/266/266 265/265/265
f 267/267/267 269/269/269 268/268/268
f 270/270/270 272/272/272 271/271/271
f 273/273/273 275/275/275 274/274/274
f 276/276/276 278/278/278 277/277/277
f 279/279/279 281/281/281 280/280/280
f 282/282/282 284/284/284 283/283/283
f 285/285/285 287/287/287 286/286/286
f 288/288/288 290/290/290 289/289/289
f 291/291/291 293/293/293 292/292/292
f 294/294/294 296/296/296 295/295/295
f 297/297/297 299/299/299 298/298/298
f 300/300/300 302/302/302 301/301/301
f 303/303/303 305/305/305 304/304/304
f 306/306/306 308/308/308 307/307/307
f 309/309/309 311/311/311 310/310/310
f 312/312/312 314/314/314 313/313/313
f 313/313/313 315/315/315 312/312/312
f 316/316/316 318/318/318 317/317/317
f 317/317/317 319/319/319 316/316/316
f 320/320/320 322/322/322 321/321/321
f 321/321/321 323/323/323 320/320/320
f 324/324/324 326/326/326 325/325/325
f 325/325/325 327/327/327 324/324/324
f 328/328/328 330/330/330 329/329/329
f 329/329/329 331/331/331 328/328/328
f 332/332/332 334/334/334 333/333/333
f 333/333/333 335/335/335 332/332/332
f 336/336/336 338/338/338 337/337/337
f 337/337/337 339/339/339 336/336/336
f 340/340/340 342/342/342 341/341/341
f 341/341/341 343/343/343 340/340/340
f 344/344/344 346/346/346 345/345/345
f 345/345/345 347/347/347 344/344/344
f 348/348/348 350/350/350 349/349/349
f 349/349/349 351/351/351 348/348/348
f 352/352/352 354/354/354 353/353/353
f 353/353/353 355/355/355 352/352/352
f 356/356/356 358/358/358 357/357/357
f 357/357/357 359/359/359 356/356/356
f 360/360/360 362/362/362 361/361/361
f 361/361/361 363/363/363 360/360/360
f 364/364/364 366/366/366 365/365/365
f 365/365/365 367/367/367 364/364/364
f 368/368/368 370/370/370 369/369/369
f 369/369/369 371/371/371 368/368/368
f 372/372/372 374/374/374 373/373/373
f 373/373/373 375/375/375 372/372/372
f 376/376/376 378/378/378 377/377/377
f 377/377/377 379/379/379 376/376/376
f 380/380/380 382/382/382 381/381/381
f 381/381/381 383/383/383 380/380/380
f 384/384/384 386/386/386 385/385/385
f 385/385/385 387/387/387 384/384/384
f 388/388/388 390/390/390 389/389/389
f 389/389/389 391/391/391 388/388/388
f 392/392/392 394/394/394 393/393/393
f 393/393/393 395/395/395 392/392/392
f 396/396/396 398/398/398 397/397/397
f 397/397/397 399/399/399 396/396/396
f 400/400/400 402/402/402 401/401/401
f 401/401/401 403/403/403 400/400/400
f 404/404/404 406/406/406 405/405/405
f 405/405/405 407/407/407 404/404/404
f 408/408/408 410/410/410 409/409/409
f 409/409/409 411/411/411 408/408/408
f 412/412/412 414/414/414 413/413/413
f 413/413/413 415/415/415 412/412/412
f 416/416/416 418/418/418 417/417/417
f 417/417/417 419/419/419 416/416/416
f 420/420/420 422/422/422 421/421/421
f 421/421/421 423/423/423 420/420/420
f 424/424/424 426/426/426 425/425/425
f 425/425/425 427/427/427 424/424/424
f 428/428/428 430/430/430 429/429/429
f 429/429/429 431/431/431 428/428/428
f 432/432/432 434/434/434 433/433/433
f 433/433/433 435/435/435 432/432/432
f 432/432/432 437/437/437 436/436/436
f 436/436/436 438/438/438 432/432/432
f 439/439/439 441/441/441 440/440/440
f 440/440/440 442/442/442 439/439/439
f 443/443/443 445/445/445 444/444/444
f 444/444/444 446/446/446 443/443/443
f 447/447/447 449/449/449 448/448/448
f 448/448/448 450/450/450 447/447/447
f 451/451/451 453/453/453 452/452/452
f 452/452/452 454/454/454 451/451/451
f 455/455/455 457/457/457 456/456/456
f 456/456/456 458/458/458 455/455/455
f 459/459/459 461/461/461 460/460/460
f 460/460/460 462/462/462 459/459/459
f 463/463/463 465/465/465 464/464/464
f 464/464/464 466/466/466 463/463/463
f 467/467/467 469/469/469 468/468/468
f 468/468/468 470/470/470 467/467/467
f 471/471/471 473/473/473 472/472/472
f 472/472/472 474/474/474 471/471/471
f 475/475/475 477/477/477 476/476/476
f 476/476/476 478/478/478 475/475/475
f 479/479/479 481/481/481 480/480/480
f 480/480/480 482/482/482 479/479/479
f 483/483/483 485/485/485 484/484/484
f 484/484/484 486/486/486 483/483/483
f 487/487/487 489/489/489 488/488/488
f 488/488/488 490/490/490 487/487/487
f 491/491/491 493/493/493 492/492/492
f 492/492/492 494/494/494 491/491/491
f 495/495/495 497/497/497 496/496/496
f 496/496/496 498/498/498 495/495/495
f 499/499/499 501/501/501 500/500/500
f 500/500/500 502/502/502 499/499/499
f 503/503/503 505/505/505 504/504/504
f 504/504/504 506/506/506 503/503/503
f 507/507/507 509/509/509 508/508/508
f 508/508/508 510/510/510 507/507/507
f 511/511/511 513/513/513 512/512/512
f 512/512/512 514/514/514 511/511/511
f 515/515/515 517/517/517 516/516/516
f 516/516/516 518/518/518 515/515/515
f 519/519/519 521/521/521 520/520/520
f 520/520/520 522/522/522 519/519/519
f 523/523/523 525/525/525 524/524/524
f 524/524/524 526/526/526 523/523/523
f 527/527/527 529/529/529 528/528/528
f 528/528/528 530/530/530 527/527/527
f 531/531/531 533/533/533 532/532/532
f 532/532/532 534/534/534 531/531/531
f 535/535/535 537/537/537 536/536/536
f 536/536/536 538/538/538 535/535/535
f 539/539/539 541/541/541 540/540/540
f 540/540/540 542/542/542 539/539/539
f 542/542/542 543/543/543 539/539/539
f 543/543/543 542/542/542 544/544/544
f 544/544/544 545/545/545 543/543/543
f 546/546/546 545/545/545 544/544/544
