#Mountain_05_(1)_363_3.obj

v -4.194437 3.73795 6.866276E-16
v -7.160107 1.713942 1.266889
v -7.665709 1.715763 3.151702E-16
v -7.160107 1.713942 1.266889
v -4.194437 3.73795 6.866276E-16
v -3.933564 3.677026 1.31277
v -7.254385 0.09804071 1.800919E-17
v -7.160107 1.713942 1.266889
v -6.854488 0.1266433 1.188133
v -7.160107 1.713942 1.266889
v -7.254385 0.09804071 1.800919E-17
v -7.665709 1.715763 3.151702E-16
v 3.665561 -2.792714 2.025192
v 6.156197 -2.11107 1.903582
v 5.057959 -2.911882 2.005746
v 6.156197 -2.11107 1.903582
v 3.665561 -2.792714 2.025192
v 6.808693 0.05540917 1.847594
v 6.027656 2.450161 4.500724E-16
v 7.665709 0.1829334 1.190308
v 6.030297 2.431463 1.334739
v 7.665709 0.1829334 1.190308
v 6.027656 2.450161 4.500724E-16
v 7.664267 0.1545396 2.838752E-17
v 6.820556 -2.677267 -4.917898E-16
v 5.309932 -3.712569 1.392305
v 6.84015 -2.588093 1.264772
v 5.309932 -3.712569 1.392305
v 6.820556 -2.677267 -4.917898E-16
v 5.290358 -3.835666 -7.045771E-16
v -3.933564 3.677026 1.31277
v -1.709408 3.249509 2.029637
v -3.601105 2.925805 2.003493
v -1.709408 3.249509 2.029637
v -3.933564 3.677026 1.31277
v -2.041348 3.910075 1.316083
v -7.160107 1.713942 1.266889
v -3.601105 2.925805 2.003493
v -6.175472 1.341346 1.885147
v -3.601105 2.925805 2.003493
v -7.160107 1.713942 1.266889
v -3.933564 3.677026 1.31277
v -4.095047 -3.787007 1.314834
v -5.235809 -1.696639 1.877561
v -3.676632 -3.064914 1.995974
v -5.235809 -1.696639 1.877561
v -4.095047 -3.787007 1.314834
v -6.215342 -1.962348 1.209017
v 3.379787 -3.550972 1.370015
v 2.698069 -1.994803 2.001729
v 3.665561 -2.792714 2.025192
v 2.698069 -1.994803 2.001729
v 3.379787 -3.550972 1.370015
v 2.56311 -2.877886 1.327934
v 6.030297 2.431463 1.334739
v 6.808693 0.05540917 1.847594
v 5.62132 1.662611 1.970607
v 6.808693 0.05540917 1.847594
v 6.030297 2.431463 1.334739
v 7.665709 0.1829334 1.190308
v -6.215342 -1.962348 1.209017
v -4.903864 -0.6808456 1.881354
v -5.235809 -1.696639 1.877561
v -4.903864 -0.6808456 1.881354
v -6.215342 -1.962348 1.209017
v -5.818847 -0.7554344 1.199842
v 2.56311 -2.877886 1.327934
v 0.977254 -2.664852 2.044154
v 2.698069 -1.994803 2.001729
v 0.977254 -2.664852 2.044154
v 2.56311 -2.877886 1.327934
v 1.519777 -3.286088 1.342203
v 1.200385 -4.013341 1.371662
v -1.721833 -3.588945 2.053877
v 0.733784 -3.315433 2.070017
v -1.721833 -3.588945 2.053877
v 1.200385 -4.013341 1.371662
v -1.81035 -4.398074 1.340715
v -6.854488 0.1266433 1.188133
v -6.175472 1.341346 1.885147
v -6.145762 0.6678363 1.84846
v -6.175472 1.341346 1.885147
v -6.854488 0.1266433 1.188133
v -7.160107 1.713942 1.266889
v 3.47803 2.89726 1.349744
v 4.602209 1.61883 1.984561
v 3.020836 2.256281 2.027464
v 4.602209 1.61883 1.984561
v 3.47803 2.89726 1.349744
v 4.761545 2.375826 1.331748
v -1.553584 4.357332 1.335883
v 0.3752409 3.63005 2.069616
v -1.255428 3.675368 2.051443
v 0.3752409 3.63005 2.069616
v -1.553584 4.357332 1.335883
v 0.5697166 4.42591 1.371162
v 1.39199 3.88075 1.362431
v 2.329681 3.012331 2.061684
v 1.141685 3.124537 2.055678
v 2.329681 3.012331 2.061684
v 1.39199 3.88075 1.362431
v 2.700605 3.756186 1.380967
v -2.041348 3.910075 1.316083
v -1.255428 3.675368 2.051443
v -1.709408 3.249509 2.029637
v -1.255428 3.675368 2.051443
v -2.041348 3.910075 1.316083
v -1.553584 4.357332 1.335883
v -1.81035 -4.398074 1.340715
v -3.676632 -3.064914 1.995974
v -1.721833 -3.588945 2.053877
v -3.676632 -3.064914 1.995974
v -1.81035 -4.398074 1.340715
v -4.095047 -3.787007 1.314834
v 4.602209 1.61883 1.984561
v 3.665561 -2.792714 2.025192
v 2.698069 -1.994803 2.001729
v 3.020836 2.256281 2.027464
v 0.977254 -2.664852 2.044154
v 1.141685 3.124537 2.055678
v 4.602209 1.61883 1.984561
v 6.808693 0.05540917 1.847594
v 3.665561 -2.792714 2.025192
v 6.808693 0.05540917 1.847594
v 4.602209 1.61883 1.984561
v 5.62132 1.662611 1.970607
v -1.721833 -3.588945 2.053877
v 0.977254 -2.664852 2.044154
v 0.733784 -3.315433 2.070017
v 0.977254 -2.664852 2.044154
v -1.721833 -3.588945 2.053877
v 1.141685 3.124537 2.055678
v 3.020836 2.256281 2.027464
v 1.141685 3.124537 2.055678
v 2.329681 3.012331 2.061684
v -1.255428 3.675368 2.051443
v -1.721833 -3.588945 2.053877
v -3.676632 -3.064914 1.995974
v -4.903864 -0.6808456 1.881354
v -1.709408 3.249509 2.029637
v 1.141685 3.124537 2.055678
v -1.255428 3.675368 2.051443
v 0.3752409 3.63005 2.069616
v -1.255428 3.675368 2.051443
v 1.141685 3.124537 2.055678
v -1.721833 -3.588945 2.053877
v -4.903864 -0.6808456 1.881354
v -3.676632 -3.064914 1.995974
v -5.235809 -1.696639 1.877561
v -3.676632 -3.064914 1.995974
v -1.709408 3.249509 2.029637
v -1.255428 3.675368 2.051443
v -3.601105 2.925805 2.003493
v -4.903864 -0.6808456 1.881354
v -5.550163 0.5868814 1.871904
v -4.903864 -0.6808456 1.881354
v -3.601105 2.925805 2.003493
v -1.709408 3.249509 2.029637
v -3.601105 2.925805 2.003493
v -6.145762 0.6678363 1.84846
v -6.175472 1.341346 1.885147
v -6.145762 0.6678363 1.84846
v -3.601105 2.925805 2.003493
v -5.550163 0.5868814 1.871904
v 2.988737 -0.9541738 3.558371
v 4.927301 -1.195459 3.47365
v 4.273015 -1.765048 3.533748
v 4.927301 -1.195459 3.47365
v 2.988737 -0.9541738 3.558371
v 5.275128 0.2153987 3.436962
v -2.726503 2.226573 3.111868
v -1.627333 2.100534 3.639845
v -2.490648 1.783753 3.623822
v -1.627333 2.100534 3.639845
v -2.726503 2.226573 3.111868
v -1.736829 2.53192 3.136091
v -4.258599 1.670022 3.040776
v -2.490648 1.783753 3.623822
v -3.781434 1.271406 3.570411
v -2.490648 1.783753 3.623822
v -4.258599 1.670022 3.040776
v -2.726503 2.226573 3.111868
v -2.762824 -2.637127 3.153882
v -3.249269 -1.241544 3.622844
v -2.524919 -2.152813 3.694746
v -3.249269 -1.241544 3.622844
v -2.762824 -2.637127 3.153882
v -3.835066 -1.467504 3.049565
v 2.862059 -1.444477 3.07532
v 1.875459 -0.5585155 3.591151
v 2.988737 -0.9541738 3.558371
v 1.875459 -0.5585155 3.591151
v 2.862059 -1.444477 3.07532
v 1.842499 -1.120214 3.100537
v 4.318974 1.081608 3.011747
v 5.275128 0.2153987 3.436962
v 4.085329 0.5904658 3.488198
v 5.275128 0.2153987 3.436962
v 4.318974 1.081608 3.011747
v 5.852762 0.3365162 2.925531
v -3.835066 -1.467504 3.049565
v -2.919595 -0.4388387 3.613437
v -3.249269 -1.241544 3.622844
v -2.919595 -0.4388387 3.613437
v -3.835066 -1.467504 3.049565
v -3.472836 -0.5373307 3.051367
v 1.842499 -1.120214 3.100537
v 0.8233242 -1.077235 3.643887
v 1.875459 -0.5585155 3.591151
v 0.8233242 -1.077235 3.643887
v 1.842499 -1.120214 3.100537
v 1.200467 -1.435825 3.127697
v 0.2291432 -2.617824 3.188529
v -0.9632687 -2.359019 3.726503
v -0.08700249 -2.196546 3.711948
v -0.9632687 -2.359019 3.726503
v 0.2291432 -2.617824 3.188529
v -0.9861153 -2.878271 3.200276
v -3.472836 -0.5373307 3.051367
v -3.322778 0.595095 3.583382
v -2.919595 -0.4388387 3.613437
v -3.322778 0.595095 3.583382
v -3.472836 -0.5373307 3.051367
v -3.648597 0.1871694 3.038026
v -4.378532 0.6425589 2.999553
v -3.781434 1.271406 3.570411
v -3.885535 0.856468 3.556607
v -3.781434 1.271406 3.570411
v -4.378532 0.6425589 2.999553
v -4.258599 1.670022 3.040776
v -3.648597 0.1871694 3.038026
v -3.885535 0.856468 3.556607
v -3.322778 0.595095 3.583382
v -3.885535 0.856468 3.556607
v -3.648597 0.1871694 3.038026
v -4.378532 0.6425589 2.999553
v 2.248857 2.16818 3.102163
v 2.789413 1.051329 3.53941
v 1.990717 1.749047 3.575721
v 2.789413 1.051329 3.53941
v 2.248857 2.16818 3.102163
v 2.852976 1.526857 3.06729
v 2.852976 1.526857 3.06729
v 4.085329 0.5904658 3.488198
v 2.789413 1.051329 3.53941
v 4.085329 0.5904658 3.488198
v 2.852976 1.526857 3.06729
v 4.318974 1.081608 3.011747
v -0.9990001 2.846004 3.15303
v -0.01927341 2.452518 3.640304
v -0.9187256 2.408834 3.648573
v -0.01927341 2.452518 3.640304
v -0.9990001 2.846004 3.15303
v 0.05885191 2.944871 3.156976
v 0.6070435 2.649022 3.140079
v 1.247645 2.167136 3.606209
v 0.4927652 2.174579 3.621329
v 1.247645 2.167136 3.606209
v 0.6070435 2.649022 3.140079
v 1.438891 2.641032 3.133259
v 4.504385 -2.265428 3.044841
v 2.988737 -0.9541738 3.558371
v 4.273015 -1.765048 3.533748
v 2.988737 -0.9541738 3.558371
v 4.504385 -2.265428 3.044841
v 2.862059 -1.444477 3.07532
v -0.9861153 -2.878271 3.200276
v -2.524919 -2.152813 3.694746
v -0.9632687 -2.359019 3.726503
v -2.524919 -2.152813 3.694746
v -0.9861153 -2.878271 3.200276
v -2.762824 -2.637127 3.153882
v -0.9632687 -2.359019 3.726503
v 0.8233242 -1.077235 3.643887
v -0.08700249 -2.196546 3.711948
v 0.8233242 -1.077235 3.643887
v -0.9632687 -2.359019 3.726503
v 0.4927652 2.174579 3.621329
v 1.990717 1.749047 3.575721
v 0.4927652 2.174579 3.621329
v 1.247645 2.167136 3.606209
v -0.9187256 2.408834 3.648573
v -0.9632687 -2.359019 3.726503
v -2.524919 -2.152813 3.694746
v 0.4927652 2.174579 3.621329
v -0.9187256 2.408834 3.648573
v -0.01927341 2.452518 3.640304
v -0.9187256 2.408834 3.648573
v 0.4927652 2.174579 3.621329
v -0.9632687 -2.359019 3.726503
v -2.919595 -0.4388387 3.613437
v -2.524919 -2.152813 3.694746
v -3.249269 -1.241544 3.622844
v -2.524919 -2.152813 3.694746
v -2.919595 -0.4388387 3.613437
v -1.627333 2.100534 3.639845
v -2.524919 -2.152813 3.694746
v -1.627333 2.100534 3.639845
v -0.9187256 2.408834 3.648573
v -2.490648 1.783753 3.623822
v -2.919595 -0.4388387 3.613437
v -3.322778 0.595095 3.583382
v -2.919595 -0.4388387 3.613437
v -2.490648 1.783753 3.623822
v -1.627333 2.100534 3.639845
v -2.490648 1.783753 3.623822
v -3.885535 0.856468 3.556607
v -3.781434 1.271406 3.570411
v -3.885535 0.856468 3.556607
v -2.490648 1.783753 3.623822
v -3.322778 0.595095 3.583382
v 4.759294 2.393443 4.396538E-16
v 6.030297 2.431463 1.334739
v 4.761545 2.375826 1.331748
v 6.027656 2.450161 4.500724E-16
v 1.356403 3.947884 7.251906E-16
v 2.700605 3.756186 1.380967
v 1.39199 3.88075 1.362431
v 2.681238 3.81819 7.01367E-16
v -1.948851 -4.5141 -8.291993E-16
v -4.095047 -3.787007 1.314834
v -1.81035 -4.398074 1.340715
v -4.341543 -3.890432 -7.146372E-16
v 5.290358 -3.835666 -7.045771E-16
v 3.379787 -3.550972 1.370015
v 5.309932 -3.712569 1.392305
v 3.363269 -3.663091 -6.728767E-16
v -4.341543 -3.890432 -7.146372E-16
v -6.215342 -1.962348 1.209017
v -4.095047 -3.787007 1.314834
v -6.545239 -2.030143 -3.729188E-16
v 7.664267 0.1545396 2.838752E-17
v 6.84015 -2.588093 1.264772
v 7.665709 0.1829334 1.190308
v 6.820556 -2.677267 -4.917898E-16
v 3.363269 -3.663091 -6.728767E-16
v 2.56311 -2.877886 1.327934
v 3.379787 -3.550972 1.370015
v 2.54707 -2.969807 -5.455268E-16
v 1.492747 -3.384925 -6.2178E-16
v 1.200385 -4.013341 1.371662
v 1.519777 -3.286088 1.342203
v 1.162397 -4.129624 -7.585746E-16
v -6.545239 -2.030143 -3.729188E-16
v -5.818847 -0.7554344 1.199842
v -6.215342 -1.962348 1.209017
v -6.111476 -0.7985734 -1.466907E-16
v -6.504947 -0.04193844 -7.703712E-18
v -6.854488 0.1266433 1.188133
v -6.170843 -0.01196545 1.198651
v -7.254385 0.09804071 1.800919E-17
v -6.111476 -0.7985734 -1.466907E-16
v -6.170843 -0.01196545 1.198651
v -5.818847 -0.7554344 1.199842
v -6.504947 -0.04193844 -7.703712E-18
v 2.54707 -2.969807 -5.455268E-16
v 1.519777 -3.286088 1.342203
v 2.56311 -2.877886 1.327934
v 1.492747 -3.384925 -6.2178E-16
v 2.681238 3.81819 7.01367E-16
v 3.47803 2.89726 1.349744
v 2.700605 3.756186 1.380967
v 3.469428 2.930436 5.382945E-16
v 3.469428 2.930436 5.382945E-16
v 4.761545 2.375826 1.331748
v 3.47803 2.89726 1.349744
v 4.759294 2.393443 4.396538E-16
v -2.18576 3.979218 7.309464E-16
v -1.553584 4.357332 1.335883
v -2.041348 3.910075 1.316083
v -1.678717 4.44287 8.161151E-16
v -1.678717 4.44287 8.161151E-16
v 0.5697166 4.42591 1.371162
v -1.553584 4.357332 1.335883
v 0.5145221 4.514101 8.291995E-16
v 0.5145221 4.514101 8.291995E-16
v 1.39199 3.88075 1.362431
v 0.5697166 4.42591 1.371162
v 1.356403 3.947884 7.251906E-16
v -4.194437 3.73795 6.866276E-16
v -2.041348 3.910075 1.316083
v -3.933564 3.677026 1.31277
v -2.18576 3.979218 7.309464E-16
v 1.162397 -4.129624 -7.585746E-16
v -1.81035 -4.398074 1.340715
v 1.200385 -4.013341 1.371662
v -1.948851 -4.5141 -8.291993E-16
v 2.700605 3.756186 1.380967
v 3.020836 2.256281 2.027464
v 2.329681 3.012331 2.061684
v 3.47803 2.89726 1.349744
v 6.84015 -2.588093 1.264772
v 5.057959 -2.911882 2.005746
v 6.156197 -2.11107 1.903582
v 5.309932 -3.712569 1.392305
v 7.665709 0.1829334 1.190308
v 6.156197 -2.11107 1.903582
v 6.808693 0.05540917 1.847594
v 6.84015 -2.588093 1.264772
v -5.818847 -0.7554344 1.199842
v -5.550163 0.5868814 1.871904
v -4.903864 -0.6808456 1.881354
v -6.170843 -0.01196545 1.198651
v -6.170843 -0.01196545 1.198651
v -6.145762 0.6678363 1.84846
v -5.550163 0.5868814 1.871904
v -6.854488 0.1266433 1.188133
v 1.519777 -3.286088 1.342203
v 0.733784 -3.315433 2.070017
v 0.977254 -2.664852 2.044154
v 1.200385 -4.013341 1.371662
v 4.761545 2.375826 1.331748
v 5.62132 1.662611 1.970607
v 4.602209 1.61883 1.984561
v 6.030297 2.431463 1.334739
v 0.5697166 4.42591 1.371162
v 1.141685 3.124537 2.055678
v 0.3752409 3.63005 2.069616
v 1.39199 3.88075 1.362431
v 5.309932 -3.712569 1.392305
v 3.665561 -2.792714 2.025192
v 5.057959 -2.911882 2.005746
v 3.379787 -3.550972 1.370015
v 2.886441 1.562051 1.829556
v 4.318974 1.081608 3.011747
v 2.852976 1.526857 3.06729
v 4.387317 1.101503 1.797947
v 0.5794474 2.731197 1.858765
v 1.438891 2.641032 3.133259
v 0.6070435 2.649022 3.140079
v 1.437532 2.723162 1.866857
v -2.895442 2.289202 1.812996
v -4.258599 1.670022 3.040776
v -4.52505 1.710685 1.777505
v -2.726503 2.226573 3.111868
v -1.736829 2.53192 3.136091
v -2.726503 2.226573 3.111868
v -1.855698 2.608158 1.830727
v -4.656626 0.6456771 1.743983
v -4.258599 1.670022 3.040776
v -4.378532 0.6425589 2.999553
v -4.52505 1.710685 1.777505
v -1.076325 -2.992933 1.864342
v -2.762824 -2.637127 3.153882
v -0.9861153 -2.878271 3.200276
v -2.940944 -2.742908 1.826358
v 4.582383 -2.352342 1.808486
v 2.862059 -1.444477 3.07532
v 4.504385 -2.265428 3.044841
v 2.893497 -1.508826 1.811552
v -2.940944 -2.742908 1.826358
v -3.835066 -1.467504 3.049565
v -2.762824 -2.637127 3.153882
v -4.080204 -1.533346 1.761586
v 5.955956 0.3328173 1.731586
v 5.425343 -1.466443 2.952783
v 5.852762 0.3365162 2.925531
v 5.520916 -1.526935 1.74064
v 4.387317 1.101503 1.797947
v 5.852762 0.3365162 2.925531
v 4.318974 1.081608 3.011747
v 5.955956 0.3328173 1.731586
v 2.893497 -1.508826 1.811552
v 1.842499 -1.120214 3.100537
v 2.862059 -1.444477 3.07532
v 1.845886 -1.175869 1.820385
v 1.185654 -1.502021 1.832828
v 0.2291432 -2.617824 3.188529
v 1.200467 -1.435825 3.127697
v 0.1852703 -2.722826 1.867193
v -4.080204 -1.533346 1.761586
v -3.472836 -0.5373307 3.051367
v -3.835066 -1.467504 3.049565
v -3.692058 -0.5744584 1.763973
v -3.877167 0.1737552 1.759633
v -4.378532 0.6425589 2.999553
v -3.648597 0.1871694 3.038026
v -4.656626 0.6456771 1.743983
v -3.692058 -0.5744584 1.763973
v -3.648597 0.1871694 3.038026
v -3.472836 -0.5373307 3.051367
v -3.877167 0.1737552 1.759633
v 1.845886 -1.175869 1.820385
v 1.200467 -1.435825 3.127697
v 1.842499 -1.120214 3.100537
v 1.185654 -1.502021 1.832828
v 1.437532 2.723162 1.866857
v 2.248857 2.16818 3.102163
v 1.438891 2.641032 3.133259
v 2.268912 2.229314 1.853532
v 2.268912 2.229314 1.853532
v 2.852976 1.526857 3.06729
v 2.248857 2.16818 3.102163
v 2.886441 1.562051 1.829556
v -1.855698 2.608158 1.830727
v -0.9990001 2.846004 3.15303
v -1.736829 2.53192 3.136091
v -1.085268 2.937353 1.847496
v -1.085268 2.937353 1.847496
v 0.05885191 2.944871 3.156976
v -0.9990001 2.846004 3.15303
v 0.01328335 3.041356 1.863065
v 0.01328335 3.041356 1.863065
v 0.6070435 2.649022 3.140079
v 0.05885191 2.944871 3.156976
v 0.5794474 2.731197 1.858765
v 5.520916 -1.526935 1.74064
v 4.504385 -2.265428 3.044841
v 5.425343 -1.466443 2.952783
v 4.582383 -2.352342 1.808486
v 0.1852703 -2.722826 1.867193
v -0.9861153 -2.878271 3.200276
v 0.2291432 -2.617824 3.188529
v -1.076325 -2.992933 1.864342
v 1.438891 2.641032 3.133259
v 1.990717 1.749047 3.575721
v 1.247645 2.167136 3.606209
v 2.248857 2.16818 3.102163
v 5.425343 -1.466443 2.952783
v 4.273015 -1.765048 3.533748
v 4.927301 -1.195459 3.47365
v 4.504385 -2.265428 3.044841
v 5.852762 0.3365162 2.925531
v 4.927301 -1.195459 3.47365
v 5.275128 0.2153987 3.436962
v 5.425343 -1.466443 2.952783
v 1.200467 -1.435825 3.127697
v -0.08700249 -2.196546 3.711948
v 0.8233242 -1.077235 3.643887
v 0.2291432 -2.617824 3.188529
v 0.05885191 2.944871 3.156976
v 0.4927652 2.174579 3.621329
v -0.01927341 2.452518 3.640304
v 0.6070435 2.649022 3.140079
v -1.736829 2.53192 3.136091
v -0.9187256 2.408834 3.648573
v -1.627333 2.100534 3.639845
v -0.9990001 2.846004 3.15303
v 2.988737 -0.9541738 3.558371
v 4.085329 0.5904658 3.488198
v 5.275128 0.2153987 3.436962
v 2.789413 1.051329 3.53941
v 1.875459 -0.5585155 3.591151
v 1.990717 1.749047 3.575721
v 0.8233242 -1.077235 3.643887
v 0.4927652 2.174579 3.621329

vn -0.7099609 0.1981201 -0.6757813
vn -0.7099609 0.1981201 -0.6757813
vn -0.7099609 0.1981201 -0.6757813
vn -0.730957 0.1417236 -0.6674805
vn -0.730957 0.1417236 -0.6674805
vn -0.730957 0.1417236 -0.6674805
vn -0.8374023 0.3171387 0.4455566
vn -0.8374023 0.3171387 0.4455566
vn -0.8374023 0.3171387 0.4455566
vn -0.8041992 0.3603516 0.4729004
vn -0.8041992 0.3603516 0.4729004
vn -0.8041992 0.3603516 0.4729004
vn -0.005649567 0.9951172 -0.09887695
vn -0.005649567 0.9951172 -0.09887695
vn -0.005649567 0.9951172 -0.09887695
vn 0.0402832 0.9990234 -0.02432251
vn 0.0402832 0.9990234 -0.02432251
vn 0.0402832 0.9990234 -0.02432251
vn 0.612793 0.006633759 -0.7900391
vn 0.612793 0.006633759 -0.7900391
vn 0.612793 0.006633759 -0.7900391
vn 0.6201172 -0.01483154 -0.784668
vn 0.6201172 -0.01483154 -0.784668
vn 0.6201172 -0.01483154 -0.784668
vn 0.7944336 0.04742432 0.6054688
vn 0.7944336 0.04742432 0.6054688
vn 0.7944336 0.04742432 0.6054688
vn 0.800293 0.06188965 0.5961914
vn 0.800293 0.06188965 0.5961914
vn 0.800293 0.06188965 0.5961914
vn -0.2949219 0.7568359 -0.5834961
vn -0.2949219 0.7568359 -0.5834961
vn -0.2949219 0.7568359 -0.5834961
vn -0.2832031 0.6987305 -0.6572266
vn -0.2832031 0.6987305 -0.6572266
vn -0.2832031 0.6987305 -0.6572266
vn -0.4506836 0.8144531 -0.3657227
vn -0.4506836 0.8144531 -0.3657227
vn -0.4506836 0.8144531 -0.3657227
vn -0.4836426 0.762207 -0.4304199
vn -0.4836426 0.762207 -0.4304199
vn -0.4836426 0.762207 -0.4304199
vn -0.3125 0.7636719 0.5649414
vn -0.3125 0.7636719 0.5649414
vn -0.3125 0.7636719 0.5649414
vn -0.2802734 0.7919922 0.5424805
vn -0.2802734 0.7919922 0.5424805
vn -0.2802734 0.7919922 0.5424805
vn -0.2712402 0.7578125 0.5932617
vn -0.2712402 0.7578125 0.5932617
vn -0.2712402 0.7578125 0.5932617
vn -0.2919922 0.7421875 0.6030273
vn -0.2919922 0.7421875 0.6030273
vn -0.2919922 0.7421875 0.6030273
vn 0.4267578 0.7651367 -0.4816895
vn 0.4267578 0.7651367 -0.4816895
vn 0.4267578 0.7651367 -0.4816895
vn 0.4221191 0.7695313 -0.4794922
vn 0.4221191 0.7695313 -0.4794922
vn 0.4221191 0.7695313 -0.4794922
vn -0.6176758 0.7866211 -0.01771545
vn -0.6176758 0.7866211 -0.01771545
vn -0.6176758 0.7866211 -0.01771545
vn -0.628418 0.7773438 -0.02746582
vn -0.628418 0.7773438 -0.02746582
vn -0.628418 0.7773438 -0.02746582
vn 0.4165039 0.7490234 0.5151367
vn 0.4165039 0.7490234 0.5151367
vn 0.4165039 0.7490234 0.5151367
vn 0.4152832 0.7431641 0.5244141
vn 0.4152832 0.7431641 0.5244141
vn 0.4152832 0.7431641 0.5244141
vn 0.2583008 0.7285156 0.6342773
vn 0.2583008 0.7285156 0.6342773
vn 0.2583008 0.7285156 0.6342773
vn 0.2592773 0.7436523 0.6162109
vn 0.2592773 0.7436523 0.6162109
vn 0.2592773 0.7436523 0.6162109
vn -0.6054688 0.7558594 0.2486572
vn -0.6054688 0.7558594 0.2486572
vn -0.6054688 0.7558594 0.2486572
vn -0.5014648 0.8110352 0.3010254
vn -0.5014648 0.8110352 0.3010254
vn -0.5014648 0.8110352 0.3010254
vn 0.08508301 0.7509766 -0.6547852
vn 0.08508301 0.7509766 -0.6547852
vn 0.08508301 0.7509766 -0.6547852
vn 0.07696533 0.7583008 -0.6474609
vn 0.07696533 0.7583008 -0.6474609
vn 0.07696533 0.7583008 -0.6474609
vn -0.1905518 0.6870117 -0.7011719
vn -0.1905518 0.6870117 -0.7011719
vn -0.1905518 0.6870117 -0.7011719
vn -0.2176514 0.7470703 -0.6279297
vn -0.2176514 0.7470703 -0.6279297
vn -0.2176514 0.7470703 -0.6279297
vn -0.12854 0.7456055 -0.6538086
vn -0.12854 0.7456055 -0.6538086
vn -0.12854 0.7456055 -0.6538086
vn -0.1339111 0.7495117 -0.6484375
vn -0.1339111 0.7495117 -0.6484375
vn -0.1339111 0.7495117 -0.6484375
vn -0.6259766 0.7006836 -0.342041
vn -0.6259766 0.7006836 -0.342041
vn -0.6259766 0.7006836 -0.342041
vn -0.6230469 0.6977539 -0.3540039
vn -0.6230469 0.6977539 -0.3540039
vn -0.6230469 0.6977539 -0.3540039
vn -0.007564545 0.746582 0.6655273
vn -0.007564545 0.746582 0.6655273
vn -0.007564545 0.746582 0.6655273
vn 0.00535965 0.7646484 0.6445313
vn 0.00535965 0.7646484 0.6445313
vn 0.00535965 0.7646484 0.6445313
vn -0.01701355 1 -0.007781982
vn -0.01701355 1 -0.007781982
vn -0.01701355 1 -0.007781982
vn 0.0289917 0.9995117 7.987022E-05
vn 0.0289917 0.9995117 7.987022E-05
vn 0.01402283 1 -0.001588821
vn 0.05813599 0.9980469 -0.01329041
vn 0.05813599 0.9980469 -0.01329041
vn 0.05813599 0.9980469 -0.01329041
vn 0.03369141 0.9975586 0.05709839
vn 0.03369141 0.9975586 0.05709839
vn 0.03369141 0.9975586 0.05709839
vn -0.02328491 0.9990234 -0.0390625
vn -0.02328491 0.9990234 -0.0390625
vn -0.02328491 0.9990234 -0.0390625
vn 0.004741669 1 0.0008230209
vn 0.004741669 1 0.0008230209
vn 0.004741669 1 0.0008230209
vn 0.005413055 0.9985352 0.0552063
vn 0.005413055 0.9985352 0.0552063
vn 0.005413055 0.9985352 0.0552063
vn -0.02848816 0.9995117 0.005981445
vn -0.02848816 0.9995117 0.005981445
vn -0.02848816 0.9995117 0.005981445
vn -0.06604004 0.9980469 0.003801346
vn -0.06604004 0.9980469 0.003801346
vn 0.001006126 0.9990234 0.04800415
vn 0.001006126 0.9990234 0.04800415
vn 0.001006126 0.9990234 0.04800415
vn -0.001722336 1 3.987551E-05
vn -0.001722336 1 3.987551E-05
vn -0.001722336 1 3.987551E-05
vn -0.0635376 0.9980469 0.001433372
vn -0.0635376 0.9980469 0.001433372
vn -0.0635376 0.9980469 0.001433372
vn -0.06207275 0.9980469 0.003879547
vn -0.06207275 0.9980469 0.003879547
vn -0.06207275 0.9980469 0.003879547
vn -0.04083252 0.9985352 0.02926636
vn -0.04083252 0.9985352 0.02926636
vn -0.04083252 0.9985352 0.02926636
vn 0.0003683567 0.9995117 0.03192139
vn 0.0003683567 0.9995117 0.03192139
vn 0.0003683567 0.9995117 0.03192139
vn 0.003700256 0.9985352 0.05612183
vn 0.003700256 0.9985352 0.05612183
vn 0.003700256 0.9985352 0.05612183
vn -0.03463745 0.9990234 0.03198242
vn -0.03463745 0.9990234 0.03198242
vn -0.03463745 0.9990234 0.03198242
vn 0.03417969 0.9975586 -0.06018066
vn 0.03417969 0.9975586 -0.06018066
vn 0.03417969 0.9975586 -0.06018066
vn 0.0395813 0.9990234 -0.02685547
vn 0.0395813 0.9990234 -0.02685547
vn 0.0395813 0.9990234 -0.02685547
vn -0.4345703 0.6972656 -0.5698242
vn -0.4345703 0.6972656 -0.5698242
vn -0.4345703 0.6972656 -0.5698242
vn -0.425293 0.6611328 -0.6181641
vn -0.425293 0.6611328 -0.6181641
vn -0.425293 0.6611328 -0.6181641
vn -0.4440918 0.7255859 -0.5258789
vn -0.4440918 0.7255859 -0.5258789
vn -0.4440918 0.7255859 -0.5258789
vn -0.4465332 0.6982422 -0.5595703
vn -0.4465332 0.6982422 -0.5595703
vn -0.4465332 0.6982422 -0.5595703
vn -0.4672852 0.6591797 0.5888672
vn -0.4672852 0.6591797 0.5888672
vn -0.4672852 0.6591797 0.5888672
vn -0.3989258 0.722168 0.5649414
vn -0.3989258 0.722168 0.5649414
vn -0.3989258 0.722168 0.5649414
vn -0.02056885 0.7231445 0.6904297
vn -0.02056885 0.7231445 0.6904297
vn -0.02056885 0.7231445 0.6904297
vn 0.0007271767 0.7456055 0.6665039
vn 0.0007271767 0.7456055 0.6665039
vn 0.0007271767 0.7456055 0.6665039
vn 0.04580688 0.7509766 -0.6586914
vn 0.04580688 0.7509766 -0.6586914
vn 0.04580688 0.7509766 -0.6586914
vn 0.1651611 0.5947266 -0.7866211
vn 0.1651611 0.5947266 -0.7866211
vn 0.1651611 0.5947266 -0.7866211
vn -0.7797852 0.6196289 -0.09057617
vn -0.7797852 0.6196289 -0.09057617
vn -0.7797852 0.6196289 -0.09057617
vn -0.7573242 0.6494141 -0.06616211
vn -0.7573242 0.6494141 -0.06616211
vn -0.7573242 0.6494141 -0.06616211
vn 0.5068359 0.6967773 0.5078125
vn 0.5068359 0.6967773 0.5078125
vn 0.5068359 0.6967773 0.5078125
vn 0.5058594 0.6918945 0.515625
vn 0.5058594 0.6918945 0.515625
vn 0.5058594 0.6918945 0.515625
vn 0.3422852 0.6723633 0.65625
vn 0.3422852 0.6723633 0.65625
vn 0.3422852 0.6723633 0.65625
vn 0.3486328 0.6899414 0.6342773
vn 0.3486328 0.6899414 0.6342773
vn 0.3486328 0.6899414 0.6342773
vn -0.5766602 0.7021484 0.4182129
vn -0.5766602 0.7021484 0.4182129
vn -0.5766602 0.7021484 0.4182129
vn -0.699707 0.5996094 0.388916
vn -0.699707 0.5996094 0.388916
vn -0.699707 0.5996094 0.388916
vn -0.7871094 0.6147461 0.04885864
vn -0.7871094 0.6147461 0.04885864
vn -0.7871094 0.6147461 0.04885864
vn -0.7075195 0.6914063 0.1468506
vn -0.7075195 0.6914063 0.1468506
vn -0.7075195 0.6914063 0.1468506
vn -0.1396484 0.684082 0.7158203
vn -0.1396484 0.684082 0.7158203
vn -0.1396484 0.684082 0.7158203
vn -0.237793 0.6313477 0.7382813
vn -0.237793 0.6313477 0.7382813
vn -0.237793 0.6313477 0.7382813
vn 0.3173828 0.7133789 -0.6245117
vn 0.3173828 0.7133789 -0.6245117
vn 0.3173828 0.7133789 -0.6245117
vn 0.4230957 0.609375 -0.6704102
vn 0.4230957 0.609375 -0.6704102
vn 0.4230957 0.609375 -0.6704102
vn 0.0680542 0.7021484 -0.7089844
vn 0.0680542 0.7021484 -0.7089844
vn 0.0680542 0.7021484 -0.7089844
vn 0.03527832 0.7504883 -0.6601563
vn 0.03527832 0.7504883 -0.6601563
vn 0.03527832 0.7504883 -0.6601563
vn -0.2373047 0.6640625 -0.7089844
vn -0.2373047 0.6640625 -0.7089844
vn -0.2373047 0.6640625 -0.7089844
vn -0.262207 0.706543 -0.6572266
vn -0.262207 0.706543 -0.6572266
vn -0.262207 0.706543 -0.6572266
vn -0.1776123 0.7045898 -0.6870117
vn -0.1776123 0.7045898 -0.6870117
vn -0.1776123 0.7045898 -0.6870117
vn -0.1842041 0.7104492 -0.6791992
vn -0.1842041 0.7104492 -0.6791992
vn -0.1842041 0.7104492 -0.6791992
vn -0.2268066 0.5283203 0.8183594
vn -0.2268066 0.5283203 0.8183594
vn -0.2268066 0.5283203 0.8183594
vn -0.1136475 0.7172852 0.6875
vn -0.1136475 0.7172852 0.6875
vn -0.1136475 0.7172852 0.6875
vn 0.09362793 0.7006836 0.7075195
vn 0.09362793 0.7006836 0.7075195
vn 0.09362793 0.7006836 0.7075195
vn 0.08880615 0.6904297 0.7182617
vn 0.08880615 0.6904297 0.7182617
vn 0.08880615 0.6904297 0.7182617
vn -0.009483337 0.9985352 -0.05514526
vn -0.009483337 0.9985352 -0.05514526
vn -0.009483337 0.9985352 -0.05514526
vn 0.03387451 0.9990234 -0.02113342
vn 0.03387451 0.9990234 -0.02113342
vn 0.03387451 0.9990234 -0.02113342
vn 0.02944946 0.9990234 0.03097534
vn 0.02944946 0.9990234 0.03097534
vn 0.02944946 0.9990234 0.03097534
vn -0.02203369 0.9995117 -0.01079559
vn -0.02203369 0.9995117 -0.01079559
vn -0.02203369 0.9995117 -0.01079559
vn 0.0241394 0.9990234 0.04199219
vn 0.0241394 0.9990234 0.04199219
vn 0.0241394 0.9990234 0.04199219
vn 0.01660156 0.9995117 -0.0216217
vn 0.01660156 0.9995117 -0.0216217
vn 0.01660156 0.9995117 -0.0216217
vn -0.06304932 0.9980469 -0.01765442
vn -0.06304932 0.9980469 -0.01765442
vn -0.06304932 0.9980469 -0.01765442
vn -0.08306885 0.996582 -0.006408691
vn -0.08306885 0.996582 -0.006408691
vn -0.08306885 0.996582 -0.006408691
vn -0.02371216 0.9995117 -0.01088715
vn -0.02371216 0.9995117 -0.01088715
vn -0.02371216 0.9995117 -0.01088715
vn -0.05731201 0.9985352 0.009887695
vn -0.05731201 0.9985352 0.009887695
vn -0.05731201 0.9985352 0.009887695
vn -0.01707458 1 0.006183624
vn -0.01707458 1 0.006183624
vn -0.01707458 1 0.006183624
vn -0.02294922 0.9990234 0.03311157
vn -0.02294922 0.9990234 0.03311157
vn -0.02294922 0.9990234 0.03311157
vn -0.04571533 0.9990234 0.01383972
vn -0.04571533 0.9990234 0.01383972
vn -0.04571533 0.9990234 0.01383972
vn -0.3208008 0.01329041 -0.9472656
vn -0.3208008 0.01329041 -0.9472656
vn -0.3208008 0.01329041 -0.9472656
vn -0.3215332 0.01408386 -0.9467773
vn -0.1871338 0.04653931 -0.9814453
vn -0.1871338 0.04653931 -0.9814453
vn -0.1871338 0.04653931 -0.9814453
vn -0.1838379 0.04327393 -0.9819336
vn 0.01997375 0.1097412 0.9936523
vn 0.01997375 0.1097412 0.9936523
vn 0.01997375 0.1097412 0.9936523
vn 0.02745056 0.1224976 0.9921875
vn 0.1960449 0.08892822 0.9765625
vn 0.1960449 0.08892822 0.9765625
vn 0.1960449 0.08892822 0.9765625
vn 0.1915283 0.08233643 0.9780273
vn -0.4143066 0.1795654 0.8920898
vn -0.4143066 0.1795654 0.8920898
vn -0.4143066 0.1795654 0.8920898
vn -0.3969727 0.2137451 0.8925781
vn 1 0.005645752 0.006755829
vn 1 0.005645752 0.006755829
vn 1 0.005645752 0.006755829
vn 1 0.005283356 0.006912231
vn -0.3972168 0.07049561 0.9150391
vn -0.3972168 0.07049561 0.9150391
vn -0.3972168 0.07049561 0.9150391
vn -0.4084473 0.06045532 0.9106445
vn 0.9912109 0.01113892 0.1303711
vn 0.9912109 0.01113892 0.1303711
vn 0.9912109 0.01113892 0.1303711
vn 0.9907227 0.009056091 0.1343994
vn -0.9711914 0.2347412 -0.03549194
vn -0.9711914 0.2347412 -0.03549194
vn -0.9711914 0.2347412 -0.03549194
vn -0.9755859 0.2131348 -0.05465698
vn 0.08105469 0.07995605 0.9936523
vn 0.08105469 0.07995605 0.9936523
vn 0.08105469 0.07995605 0.9936523
vn 0.09747314 0.08514404 0.9916992
vn -0.7290039 0.2294922 0.6450195
vn -0.7290039 0.2294922 0.6450195
vn -0.7290039 0.2294922 0.6450195
vn -0.7001953 0.2504883 0.668457
vn 0.609375 0.05993652 0.7910156
vn 0.609375 0.05993652 0.7910156
vn 0.609375 0.05993652 0.7910156
vn 0.6103516 0.06103516 0.7900391
vn 0.5253906 0.0196991 -0.8505859
vn 0.5253906 0.0196991 -0.8505859
vn 0.5253906 0.0196991 -0.8505859
vn 0.5327148 0.0115509 -0.8461914
vn 0.1032715 0.02037048 -0.9946289
vn 0.1032715 0.02037048 -0.9946289
vn 0.1032715 0.02037048 -0.9946289
vn 0.1115723 0.01155853 -0.9936523
vn -0.8510742 0.1123047 -0.5131836
vn -0.8510742 0.1123047 -0.5131836
vn -0.8510742 0.1123047 -0.5131836
vn -0.8486328 0.1098022 -0.5175781
vn -0.3100586 0.06695557 -0.9482422
vn -0.3100586 0.06695557 -0.9482422
vn -0.3100586 0.06695557 -0.9482422
vn -0.3093262 0.06542969 -0.9487305
vn 0.2983398 0.03134155 -0.9541016
vn 0.2983398 0.03134155 -0.9541016
vn 0.2983398 0.03134155 -0.9541016
vn 0.3044434 0.02630615 -0.9521484
vn -0.3933105 0.07019043 -0.9165039
vn -0.3933105 0.07019043 -0.9165039
vn -0.3933105 0.07019043 -0.9165039
vn -0.390625 0.06512451 -0.918457
vn 0.3962402 0.08032227 0.9145508
vn 0.3962402 0.08032227 0.9145508
vn 0.3962402 0.08032227 0.9145508
vn 0.3935547 0.07299805 0.9165039
vn 0.3674316 0.746582 -0.5546875
vn 0.3674316 0.746582 -0.5546875
vn 0.3674316 0.746582 -0.5546875
vn 0.3654785 0.7480469 -0.5541992
vn 0.5234375 0.7856445 0.3300781
vn 0.5234375 0.7856445 0.3300781
vn 0.5234375 0.7856445 0.3300781
vn 0.5249023 0.7817383 0.3366699
vn 0.637207 0.7705078 -0.01276398
vn 0.637207 0.7705078 -0.01276398
vn 0.637207 0.7705078 -0.01276398
vn 0.6318359 0.7749023 -0.01559448
vn -0.4587402 0.7807617 0.4238281
vn -0.4587402 0.7807617 0.4238281
vn -0.4587402 0.7807617 0.4238281
vn -0.4768066 0.7714844 0.4208984
vn 0.07421875 0.7197266 0.6904297
vn 0.07421875 0.7197266 0.6904297
vn 0.07421875 0.7197266 0.6904297
vn 0.04669189 0.7177734 0.6948242
vn 0.7021484 0.7114258 0.02651978
vn 0.7021484 0.7114258 0.02651978
vn 0.7021484 0.7114258 0.02651978
vn 0.7080078 0.703125 0.06707764
vn -0.1998291 0.7553711 -0.6240234
vn -0.1998291 0.7553711 -0.6240234
vn -0.1998291 0.7553711 -0.6240234
vn -0.2092285 0.762207 -0.6123047
vn 0.2099609 0.7392578 -0.6396484
vn 0.2099609 0.7392578 -0.6396484
vn 0.2099609 0.7392578 -0.6396484
vn 0.2062988 0.7416992 -0.6381836
vn 0.1317139 0.7866211 0.6030273
vn 0.1317139 0.7866211 0.6030273
vn 0.1317139 0.7866211 0.6030273
vn 0.1183472 0.7666016 0.6308594
vn 0.01347351 0.0350647 -0.9995117
vn 0.01347351 0.0350647 -0.9995117
vn 0.01347351 0.0350647 -0.9995117
vn 0.01571655 0.03219604 -0.9995117
vn -0.2685547 0.06378174 -0.9609375
vn -0.2685547 0.06378174 -0.9609375
vn -0.2685547 0.06378174 -0.9609375
vn -0.2700195 0.06469727 -0.9609375
vn -0.5830078 0.100769 -0.8061523
vn -0.5830078 0.100769 -0.8061523
vn -0.5830078 0.100769 -0.8061523
vn -0.5908203 0.08978271 -0.8017578
vn -0.5493164 0.08435059 -0.831543
vn -0.5493164 0.08435059 -0.831543
vn -0.5473633 0.08233643 -0.8325195
vn -0.9614258 0.215332 0.1702881
vn -0.9614258 0.215332 0.1702881
vn -0.9614258 0.215332 0.1702881
vn -0.9643555 0.2084961 0.1619873
vn 0.144165 0.09387207 0.9848633
vn 0.144165 0.09387207 0.9848633
vn 0.144165 0.09387207 0.9848633
vn 0.1461182 0.09661865 0.984375
vn -0.1791992 0.03469849 0.9833984
vn -0.1791992 0.03469849 0.9833984
vn -0.1791992 0.03469849 0.9833984
vn -0.1794434 0.03442383 0.9833984
vn -0.5219727 0.1512451 0.8393555
vn -0.5219727 0.1512451 0.8393555
vn -0.5219727 0.1512451 0.8393555
vn -0.5058594 0.1716309 0.8452148
vn 0.9951172 0.08453369 -0.05093384
vn 0.9951172 0.08453369 -0.05093384
vn 0.9951172 0.08453369 -0.05093384
vn 0.9946289 0.08776855 -0.05303955
vn 0.1705322 0.03939819 -0.984375
vn 0.1705322 0.03939819 -0.984375
vn 0.1705322 0.03939819 -0.984375
vn 0.1733398 0.03533936 -0.984375
vn -0.02427673 0.04098511 0.9990234
vn -0.02427673 0.04098511 0.9990234
vn -0.02427673 0.04098511 0.9990234
vn -0.0247345 0.04058838 0.9990234
vn 0.9189453 0.02357483 0.3933105
vn 0.9189453 0.02357483 0.3933105
vn 0.9189453 0.02357483 0.3933105
vn 0.9194336 0.02462769 0.392334
vn -0.9838867 0.1568604 -0.08721924
vn -0.9838867 0.1568604 -0.08721924
vn -0.9838867 0.1568604 -0.08721924
vn -0.984375 0.1455078 -0.1004028
vn -0.2746582 0.1036377 0.9560547
vn -0.2746582 0.1036377 0.9560547
vn -0.2746582 0.1036377 0.9560547
vn -0.2590332 0.1122437 0.9594727
vn -0.8564453 0.1697998 0.4875488
vn -0.8564453 0.1697998 0.4875488
vn -0.8564453 0.1697998 0.4875488
vn -0.8525391 0.1734619 0.4929199
vn 0.6743164 0.04013062 0.7373047
vn 0.6743164 0.04013062 0.7373047
vn 0.6743164 0.04013062 0.7373047
vn 0.675293 0.04071045 0.7363281
vn 0.244751 0.05532837 -0.9682617
vn 0.244751 0.05532837 -0.9682617
vn 0.244751 0.05532837 -0.9682617
vn 0.2509766 0.05023193 -0.9667969
vn 0.5087891 0.04516602 -0.8598633
vn 0.5087891 0.04516602 -0.8598633
vn 0.5087891 0.04516602 -0.8598633
vn 0.515625 0.03912354 -0.855957
vn -0.6318359 0.08917236 -0.7700195
vn -0.6318359 0.08917236 -0.7700195
vn -0.6318359 0.08917236 -0.7700195
vn -0.6328125 0.09002686 -0.769043
vn -0.3662109 0.07562256 -0.9272461
vn -0.3662109 0.07562256 -0.9272461
vn -0.3662109 0.07562256 -0.9272461
vn -0.3681641 0.07733154 -0.9267578
vn 0.2116699 0.04873657 -0.9760742
vn 0.2116699 0.04873657 -0.9760742
vn 0.2116699 0.04873657 -0.9760742
vn 0.2167969 0.0458374 -0.9750977
vn 0.840332 0.08917236 0.534668
vn 0.840332 0.08917236 0.534668
vn 0.840332 0.08917236 0.534668
vn 0.8427734 0.09405518 0.5302734
vn 0.4733887 0.07055664 0.8779297
vn 0.4733887 0.07055664 0.8779297
vn 0.4733887 0.07055664 0.8779297
vn 0.4724121 0.06964111 0.878418
vn 0.1811523 0.7290039 -0.6601563
vn 0.1811523 0.7290039 -0.6601563
vn 0.1811523 0.7290039 -0.6601563
vn 0.1917725 0.7207031 -0.6665039
vn 0.6069336 0.7226563 0.3310547
vn 0.6069336 0.7226563 0.3310547
vn 0.6069336 0.7226563 0.3310547
vn 0.605957 0.7255859 0.3261719
vn 0.6870117 0.7250977 -0.04647827
vn 0.6870117 0.7250977 -0.04647827
vn 0.6870117 0.7250977 -0.04647827
vn 0.6894531 0.7226563 -0.04507446
vn 0.6635742 0.7070313 0.2443848
vn 0.6635742 0.7070313 0.2443848
vn 0.6635742 0.7070313 0.2443848
vn 0.6708984 0.6953125 0.2575684
vn 0.1755371 0.6928711 -0.6992188
vn 0.1755371 0.6928711 -0.6992188
vn 0.1755371 0.6928711 -0.6992188
vn 0.1694336 0.6972656 -0.6962891
vn -0.4875488 0.6567383 -0.5756836
vn -0.4875488 0.6567383 -0.5756836
vn -0.4875488 0.6567383 -0.5756836
vn -0.487793 0.6567383 -0.574707
vn 0.02905273 0.9995117 -0.02178955
vn 0.03878784 0.9990234 -0.0256958
vn 0.04159546 0.9990234 -0.02470398
vn 0.02905273 0.9995117 -0.02178955
vn 0.02905273 0.9995117 -0.02178955
vn 0.04486084 0.9990234 -0.01748657
vn 0.04486084 0.9990234 -0.01748657
vn 0.02915955 0.9995117 -0.01922607

vt 0.08331299 0
vt 0.25 0.7207031
vt 0.25 0
vt 0.25 0.7207031
vt 0.08331299 0
vt 0.08331299 0.7207031
vt 0.270752 0
vt 0.25 0.7207031
vt 0.270752 0.7207031
vt 0.25 0.7207031
vt 0.270752 0
vt 0.25 0
vt 0.3081055 1
vt 0.6298828 1
vt 0.5498047 1
vt 0.6298828 1
vt 0.3081055 1
vt 0.7089844 1
vt 0.75 0
vt 0.7084961 0.7207031
vt 0.75 0.7207031
vt 0.7084961 0.7207031
vt 0.75 0
vt 0.7084961 0
vt 0.6665039 0
vt 0.625 0.7207031
vt 0.6665039 0.7207031
vt 0.625 0.7207031
vt 0.6665039 0
vt 0.625 0
vt 0.9819336 1.762695
vt 0.7250977 1
vt 0.5292969 1
vt 0.7250977 1
vt 0.9819336 1.762695
vt 1.454102 1.486328
vt 0.2341309 0.9521484
vt 0.5292969 1
vt 0.282959 1
vt 0.5292969 1
vt 0.2341309 0.9521484
vt 0.489502 1.009766
vt 0.03985596 0.8569336
vt 0.1690674 1
vt 0.1290283 1
vt 0.1690674 1
vt 0.03985596 0.8569336
vt -0.004165649 0.9345703
vt 0.6152344 1.504883
vt 0.4018555 1
vt 0.3081055 1
vt 0.4018555 1
vt 0.6152344 1.504883
vt 0.6157227 1.433594
vt 0.75 0.7207031
vt 0.7089844 1
vt 0.7001953 1
vt 0.7089844 1
vt 0.75 0.7207031
vt 0.7084961 0.7207031
vt 0.1887207 0.8232422
vt -0.01275635 1
vt 0.1690674 1
vt -0.01275635 1
vt 0.1887207 0.8232422
vt 0.1418457 0.8330078
vt 0.3103027 0.8950195
vt 0.3088379 1
vt 0.4018555 1
vt 0.3088379 1
vt 0.3103027 0.8950195
vt 0.2214355 0.9052734
vt 0.189209 0.9379883
vt 0.1605225 1
vt 0.2553711 1
vt 0.1605225 1
vt 0.189209 0.9379883
vt 0.07696533 0.9790039
vt 0.2338867 1.320313
vt 0.282959 1
vt 0.2282715 1
vt 0.282959 1
vt 0.2338867 1.320313
vt 0.4331055 1.299805
vt 0.8334961 0.7207031
vt 0.7202148 1
vt 0.5800781 1
vt 0.7202148 1
vt 0.8334961 0.7207031
vt 0.7915039 0.7207031
vt 0.8359375 1.148438
vt 0.8569336 1
vt 0.7480469 1
vt 0.8569336 1
vt 0.8359375 1.148438
vt 0.9946289 1.094727
vt 0.8823242 1.151367
vt 0.8134766 1
vt 0.7431641 1
vt 0.8134766 1
vt 0.8823242 1.151367
vt 0.9770508 1.134766
vt 0.9882813 2.072266
vt 0.7480469 1
vt 0.7250977 1
vt 0.7480469 1
vt 0.9882813 2.072266
vt 1.302734 2.027344
vt 0.1854248 1.083984
vt 0.1290283 1
vt 0.1605225 1
vt 0.1290283 1
vt 0.1854248 1.083984
vt 0.1945801 1.058594
vt 0.7202148 1
vt 0.3081055 1
vt 0.4018555 1
vt 0.5800781 1
vt 0.3088379 1
vt 0.7431641 1
vt 0.7202148 1
vt 0.7089844 1
vt 0.3081055 1
vt 0.7089844 1
vt 0.7202148 1
vt 0.7001953 1
vt 0.1605225 1
vt 0.3088379 1
vt 0.2553711 1
vt 0.3088379 1
vt 0.1605225 1
vt 0.7431641 1
vt 0.5800781 1
vt 0.7431641 1
vt 0.8134766 1
vt 0.7480469 1
vt 0.1605225 1
vt 0.1290283 1
vt -0.01275635 1
vt 0.7250977 1
vt 0.7431641 1
vt 0.7480469 1
vt 0.8569336 1
vt 0.7480469 1
vt 0.7431641 1
vt 0.1605225 1
vt -0.01275635 1
vt 0.1290283 1
vt 0.1690674 1
vt 0.1290283 1
vt 0.7250977 1
vt 0.7480469 1
vt 0.5292969 1
vt -0.01275635 1
vt 0.2836914 1
vt -0.01275635 1
vt 0.5292969 1
vt 0.7250977 1
vt 0.5292969 1
vt 0.2282715 1
vt 0.282959 1
vt 0.2282715 1
vt 0.5292969 1
vt 0.2836914 1
vt 0.3081055 1
vt 0.6298828 1
vt 0.5498047 1
vt 0.6298828 1
vt 0.3081055 1
vt 0.7089844 1
vt 0.9819336 1.762695
vt 0.7250977 1
vt 0.5292969 1
vt 0.7250977 1
vt 0.9819336 1.762695
vt 1.454102 1.486328
vt 0.2341309 0.9521484
vt 0.5292969 1
vt 0.282959 1
vt 0.5292969 1
vt 0.2341309 0.9521484
vt 0.489502 1.009766
vt 0.03985596 0.8569336
vt 0.1690674 1
vt 0.1290283 1
vt 0.1690674 1
vt 0.03985596 0.8569336
vt -0.004165649 0.9345703
vt 0.6152344 1.504883
vt 0.4018555 1
vt 0.3081055 1
vt 0.4018555 1
vt 0.6152344 1.504883
vt 0.6157227 1.433594
vt 0.75 0.7207031
vt 0.7089844 1
vt 0.7001953 1
vt 0.7089844 1
vt 0.75 0.7207031
vt 0.7084961 0.7207031
vt 0.1887207 0.8232422
vt -0.01275635 1
vt 0.1690674 1
vt -0.01275635 1
vt 0.1887207 0.8232422
vt 0.1418457 0.8330078
vt 0.3103027 0.8950195
vt 0.3088379 1
vt 0.4018555 1
vt 0.3088379 1
vt 0.3103027 0.8950195
vt 0.2214355 0.9052734
vt 0.189209 0.9379883
vt 0.1605225 1
vt 0.2553711 1
vt 0.1605225 1
vt 0.189209 0.9379883
vt 0.07696533 0.9790039
vt 0.1689453 1.164063
vt 0.2836914 1
vt -0.01275635 1
vt 0.2836914 1
vt 0.1689453 1.164063
vt 0.2265625 1.162109
vt 0.2338867 1.320313
vt 0.282959 1
vt 0.2282715 1
vt 0.282959 1
vt 0.2338867 1.320313
vt 0.4331055 1.299805
vt 0.1967773 0.8188477
vt 0.2282715 1
vt 0.2836914 1
vt 0.2282715 1
vt 0.1967773 0.8188477
vt 0.1538086 0.8237305
vt 0.8334961 0.7207031
vt 0.7202148 1
vt 0.5800781 1
vt 0.7202148 1
vt 0.8334961 0.7207031
vt 0.7915039 0.7207031
vt 0.7915039 0.7207031
vt 0.7001953 1
vt 0.7202148 1
vt 0.7001953 1
vt 0.7915039 0.7207031
vt 0.75 0.7207031
vt 0.8359375 1.148438
vt 0.8569336 1
vt 0.7480469 1
vt 0.8569336 1
vt 0.8359375 1.148438
vt 0.9946289 1.094727
vt 0.8823242 1.151367
vt 0.8134766 1
vt 0.7431641 1
vt 0.8134766 1
vt 0.8823242 1.151367
vt 0.9770508 1.134766
vt 0.625 0.7207031
vt 0.3081055 1
vt 0.5498047 1
vt 0.3081055 1
vt 0.625 0.7207031
vt 0.5834961 0.7207031
vt 0.1854248 1.083984
vt 0.1290283 1
vt 0.1605225 1
vt 0.1290283 1
vt 0.1854248 1.083984
vt 0.1945801 1.058594
vt 0.1605225 1
vt 0.3088379 1
vt 0.2553711 1
vt 0.3088379 1
vt 0.1605225 1
vt 0.7431641 1
vt 0.5800781 1
vt 0.7431641 1
vt 0.8134766 1
vt 0.7480469 1
vt 0.1605225 1
vt 0.1290283 1
vt 0.7431641 1
vt 0.7480469 1
vt 0.8569336 1
vt 0.7480469 1
vt 0.7431641 1
vt 0.1605225 1
vt -0.01275635 1
vt 0.1290283 1
vt 0.1690674 1
vt 0.1290283 1
vt -0.01275635 1
vt 0.7250977 1
vt 0.1290283 1
vt 0.7250977 1
vt 0.7480469 1
vt 0.5292969 1
vt -0.01275635 1
vt 0.2836914 1
vt -0.01275635 1
vt 0.5292969 1
vt 0.7250977 1
vt 0.5292969 1
vt 0.2282715 1
vt 0.282959 1
vt 0.2282715 1
vt 0.5292969 1
vt 0.2836914 1
vt 0.7915039 0
vt 0.75 0.7207031
vt 0.7915039 0.7207031
vt 0.75 0
vt -0.0625 0
vt -0.08331299 0.7207031
vt -0.0625 0.7207031
vt -0.08331299 0
vt 0.4375 0
vt 0.416748 0.7207031
vt 0.4375 0.7207031
vt 0.416748 0
vt 0.625 0
vt 0.5834961 0.7207031
vt 0.625 0.7207031
vt 0.5834961 0
vt 0.416748 0
vt 0.333252 0.7207031
vt 0.416748 0.7207031
vt 0.333252 0
vt 0.7084961 0
vt 0.6665039 0.7207031
vt 0.7084961 0.7207031
vt 0.6665039 0
vt 0.5834961 0
vt 0.5 0.7207031
vt 0.5834961 0.7207031
vt 0.5 0
vt 0.479248 0
vt 0.458252 0.7207031
vt 0.479248 0.7207031
vt 0.458252 0
vt 0.333252 0
vt 0.291748 0.7207031
vt 0.333252 0.7207031
vt 0.291748 0
vt 0.28125 0
vt 0.270752 0.7207031
vt 0.28125 0.7207031
vt 0.270752 0
vt 0.291748 0
vt 0.28125 0.7207031
vt 0.291748 0.7207031
vt 0.28125 0
vt 0.5 0
vt 0.479248 0.7207031
vt 0.5 0.7207031
vt 0.479248 0
vt 0.9165039 0
vt 0.8334961 0.7207031
vt 0.9165039 0.7207031
vt 0.8334961 0
vt 0.8334961 0
vt 0.7915039 0.7207031
vt 0.8334961 0.7207031
vt 0.7915039 0
vt 0.04165649 0
vt 0 0.7207031
vt 0.04165649 0.7207031
vt 0 0
vt 0 0
vt -0.04165649 0.7207031
vt 0 0.7207031
vt -0.04165649 0
vt -0.04165649 0
vt -0.0625 0.7207031
vt -0.04165649 0.7207031
vt -0.0625 0
vt 0.08331299 0
vt 0.04165649 0.7207031
vt 0.08331299 0.7207031
vt 0.04165649 0
vt 0.458252 0
vt 0.4375 0.7207031
vt 0.458252 0.7207031
vt 0.4375 0
vt 0.9165039 0.7207031
vt 0.5800781 1
vt 0.8134766 1
vt 0.8334961 0.7207031
vt 0.6665039 0.7207031
vt 0.5498047 1
vt 0.6298828 1
vt 0.625 0.7207031
vt 0.7084961 0.7207031
vt 0.6298828 1
vt 0.7089844 1
vt 0.6665039 0.7207031
vt 0.1689453 1.164063
vt 0.2836914 1
vt -0.01275635 1
vt 0.2265625 1.162109
vt 0.1967773 0.8188477
vt 0.2282715 1
vt 0.2836914 1
vt 0.1538086 0.8237305
vt 0.2248535 0.7670898
vt 0.2553711 1
vt 0.3088379 1
vt 0.1106567 0.7758789
vt 0.7915039 0.7207031
vt 0.7001953 1
vt 0.7202148 1
vt 0.75 0.7207031
vt 0.8564453 0.8227539
vt 0.7431641 1
vt 0.8569336 1
vt 0.8164063 0.8295898
vt 0.625 0.7207031
vt 0.3081055 1
vt 0.5498047 1
vt 0.5834961 0.7207031
vt 0.7915039 0
vt 0.75 0.7207031
vt 0.7915039 0.7207031
vt 0.75 0
vt -0.0625 0
vt -0.08331299 0.7207031
vt -0.0625 0.7207031
vt -0.08331299 0
vt 0.08331299 0
vt 0.25 0.7207031
vt 0.25 0
vt 0.08331299 0.7207031
vt 0.04165649 0.7207031
vt 0.08331299 0.7207031
vt 0.04165649 0
vt 0.270752 0
vt 0.25 0.7207031
vt 0.270752 0.7207031
vt 0.25 0
vt 0.4375 0
vt 0.416748 0.7207031
vt 0.4375 0.7207031
vt 0.416748 0
vt 0.625 0
vt 0.5834961 0.7207031
vt 0.625 0.7207031
vt 0.5834961 0
vt 0.416748 0
vt 0.333252 0.7207031
vt 0.416748 0.7207031
vt 0.333252 0
vt 0.7084961 0
vt 0.6665039 0.7207031
vt 0.7084961 0.7207031
vt 0.6665039 0
vt 0.75 0
vt 0.7084961 0.7207031
vt 0.75 0.7207031
vt 0.7084961 0
vt 0.5834961 0
vt 0.5 0.7207031
vt 0.5834961 0.7207031
vt 0.5 0
vt 0.479248 0
vt 0.458252 0.7207031
vt 0.479248 0.7207031
vt 0.458252 0
vt 0.333252 0
vt 0.291748 0.7207031
vt 0.333252 0.7207031
vt 0.291748 0
vt 0.28125 0
vt 0.270752 0.7207031
vt 0.28125 0.7207031
vt 0.270752 0
vt 0.291748 0
vt 0.28125 0.7207031
vt 0.291748 0.7207031
vt 0.28125 0
vt 0.5 0
vt 0.479248 0.7207031
vt 0.5 0.7207031
vt 0.479248 0
vt 0.9165039 0
vt 0.8334961 0.7207031
vt 0.9165039 0.7207031
vt 0.8334961 0
vt 0.8334961 0
vt 0.7915039 0.7207031
vt 0.8334961 0.7207031
vt 0.7915039 0
vt 0.04165649 0
vt 0 0.7207031
vt 0.04165649 0.7207031
vt 0 0
vt 0 0
vt -0.04165649 0.7207031
vt 0 0.7207031
vt -0.04165649 0
vt -0.04165649 0
vt -0.0625 0.7207031
vt -0.04165649 0.7207031
vt -0.0625 0
vt 0.6665039 0
vt 0.625 0.7207031
vt 0.6665039 0.7207031
vt 0.625 0
vt 0.458252 0
vt 0.4375 0.7207031
vt 0.458252 0.7207031
vt 0.4375 0
vt 0.9165039 0.7207031
vt 0.5800781 1
vt 0.8134766 1
vt 0.8334961 0.7207031
vt 0.6665039 0.7207031
vt 0.5498047 1
vt 0.6298828 1
vt 0.625 0.7207031
vt 0.7084961 0.7207031
vt 0.6298828 1
vt 0.7089844 1
vt 0.6665039 0.7207031
vt 0.2248535 0.7670898
vt 0.2553711 1
vt 0.3088379 1
vt 0.1106567 0.7758789
vt 0.8564453 0.8227539
vt 0.7431641 1
vt 0.8569336 1
vt 0.8164063 0.8295898
vt 0.9882813 2.072266
vt 0.7480469 1
vt 0.7250977 1
vt 1.302734 2.027344
vt 0.3081055 1
vt 0.7001953 1
vt 0.7089844 1
vt 0.7202148 1
vt 0.4018555 1
vt 0.5800781 1
vt 0.3088379 1
vt 0.7431641 1

g Mountain_05_(1)_363_3
usemtl Mountain_05_(1)_363_3
usemap Mountain_05_(1)_363_3
f 1/1/1 3/3/3 2/2/2
f 4/4/4 6/6/6 5/5/5
f 7/7/7 9/9/9 8/8/8
f 10/10/10 12/12/12 11/11/11
f 13/13/13 15/15/15 14/14/14
f 16/16/16 18/18/18 17/17/17
f 19/19/19 21/21/21 20/20/20
f 22/22/22 24/24/24 23/23/23
f 25/25/25 27/27/27 26/26/26
f 28/28/28 30/30/30 29/29/29
f 31/31/31 33/33/33 32/32/32
f 34/34/34 36/36/36 35/35/35
f 37/37/37 39/39/39 38/38/38
f 40/40/40 42/42/42 41/41/41
f 43/43/43 45/45/45 44/44/44
f 46/46/46 48/48/48 47/47/47
f 49/49/49 51/51/51 50/50/50
f 52/52/52 54/54/54 53/53/53
f 55/55/55 57/57/57 56/56/56
f 58/58/58 60/60/60 59/59/59
f 61/61/61 63/63/63 62/62/62
f 64/64/64 66/66/66 65/65/65
f 67/67/67 69/69/69 68/68/68
f 70/70/70 72/72/72 71/71/71
f 73/73/73 75/75/75 74/74/74
f 76/76/76 78/78/78 77/77/77
f 79/79/79 81/81/81 80/80/80
f 82/82/82 84/84/84 83/83/83
f 85/85/85 87/87/87 86/86/86
f 88/88/88 90/90/90 89/89/89
f 91/91/91 93/93/93 92/92/92
f 94/94/94 96/96/96 95/95/95
f 97/97/97 99/99/99 98/98/98
f 100/100/100 102/102/102 101/101/101
f 103/103/103 105/105/105 104/104/104
f 106/106/106 108/108/108 107/107/107
f 109/109/109 111/111/111 110/110/110
f 112/112/112 114/114/114 113/113/113
f 115/115/115 117/117/117 116/116/116
f 118/118/118 119/119/119 117/117/117
f 120/120/120 119/119/119 118/118/118
f 117/117/117 121/121/121 118/118/118
f 121/121/121 123/123/123 122/122/122
f 124/124/124 126/126/126 125/125/125
f 127/127/127 129/129/129 128/128/128
f 130/130/130 132/132/132 131/131/131
f 133/133/133 135/135/135 134/134/134
f 136/136/136 138/138/138 137/137/137
f 138/138/138 140/140/140 139/139/139
f 141/141/141 143/143/143 142/142/142
f 144/144/144 146/146/146 145/145/145
f 147/147/147 149/149/149 148/148/148
f 150/150/150 152/152/152 151/151/151
f 153/153/153 155/155/155 154/154/154
f 156/156/156 158/158/158 157/157/157
f 159/159/159 161/161/161 160/160/160
f 162/162/162 164/164/164 163/163/163
f 165/165/165 167/167/167 166/166/166
f 168/168/168 170/170/170 169/169/169
f 171/171/171 173/173/173 172/172/172
f 174/174/174 176/176/176 175/175/175
f 177/177/177 179/179/179 178/178/178
f 180/180/180 182/182/182 181/181/181
f 183/183/183 185/185/185 184/184/184
f 186/186/186 188/188/188 187/187/187
f 189/189/189 191/191/191 190/190/190
f 192/192/192 194/194/194 193/193/193
f 195/195/195 197/197/197 196/196/196
f 198/198/198 200/200/200 199/199/199
f 201/201/201 203/203/203 202/202/202
f 204/204/204 206/206/206 205/205/205
f 207/207/207 209/209/209 208/208/208
f 210/210/210 212/212/212 211/211/211
f 213/213/213 215/215/215 214/214/214
f 216/216/216 218/218/218 217/217/217
f 219/219/219 221/221/221 220/220/220
f 222/222/222 224/224/224 223/223/223
f 225/225/225 227/227/227 226/226/226
f 228/228/228 230/230/230 229/229/229
f 231/231/231 233/233/233 232/232/232
f 234/234/234 236/236/236 235/235/235
f 237/237/237 239/239/239 238/238/238
f 240/240/240 242/242/242 241/241/241
f 243/243/243 245/245/245 244/244/244
f 246/246/246 248/248/248 247/247/247
f 249/249/249 251/251/251 250/250/250
f 252/252/252 254/254/254 253/253/253
f 255/255/255 257/257/257 256/256/256
f 258/258/258 260/260/260 259/259/259
f 261/261/261 263/263/263 262/262/262
f 264/264/264 266/266/266 265/265/265
f 267/267/267 269/269/269 268/268/268
f 270/270/270 272/272/272 271/271/271
f 273/273/273 275/275/275 274/274/274
f 276/276/276 278/278/278 277/277/277
f 279/279/279 281/281/281 280/280/280
f 282/282/282 284/284/284 283/283/283
f 285/285/285 287/287/287 286/286/286
f 288/288/288 290/290/290 289/289/289
f 291/291/291 293/293/293 292/292/292
f 294/294/294 296/296/296 295/295/295
f 297/297/297 299/299/299 298/298/298
f 300/300/300 302/302/302 301/301/301
f 303/303/303 305/305/305 304/304/304
f 306/306/306 308/308/308 307/307/307
f 309/309/309 311/311/311 310/310/310
f 312/312/312 314/314/314 313/313/313
f 313/313/313 315/315/315 312/312/312
f 316/316/316 318/318/318 317/317/317
f 317/317/317 319/319/319 316/316/316
f 320/320/320 322/322/322 321/321/321
f 321/321/321 323/323/323 320/320/320
f 324/324/324 326/326/326 325/325/325
f 325/325/325 327/327/327 324/324/324
f 328/328/328 330/330/330 329/329/329
f 329/329/329 331/331/331 328/328/328
f 332/332/332 334/334/334 333/333/333
f 333/333/333 335/335/335 332/332/332
f 336/336/336 338/338/338 337/337/337
f 337/337/337 339/339/339 336/336/336
f 340/340/340 342/342/342 341/341/341
f 341/341/341 343/343/343 340/340/340
f 344/344/344 346/346/346 345/345/345
f 345/345/345 347/347/347 344/344/344
f 348/348/348 350/350/350 349/349/349
f 349/349/349 351/351/351 348/348/348
f 352/352/352 354/354/354 353/353/353
f 353/353/353 355/355/355 352/352/352
f 356/356/356 358/358/358 357/357/357
f 357/357/357 359/359/359 356/356/356
f 360/360/360 362/362/362 361/361/361
f 361/361/361 363/363/363 360/360/360
f 364/364/364 366/366/366 365/365/365
f 365/365/365 367/367/367 364/364/364
f 368/368/368 370/370/370 369/369/369
f 369/369/369 371/371/371 368/368/368
f 372/372/372 374/374/374 373/373/373
f 373/373/373 375/375/375 372/372/372
f 376/376/376 378/378/378 377/377/377
f 377/377/377 379/379/379 376/376/376
f 380/380/380 382/382/382 381/381/381
f 381/381/381 383/383/383 380/380/380
f 384/384/384 386/386/386 385/385/385
f 385/385/385 387/387/387 384/384/384
f 388/388/388 390/390/390 389/389/389
f 389/389/389 391/391/391 388/388/388
f 392/392/392 394/394/394 393/393/393
f 393/393/393 395/395/395 392/392/392
f 396/396/396 398/398/398 397/397/397
f 397/397/397 399/399/399 396/396/396
f 400/400/400 402/402/402 401/401/401
f 401/401/401 403/403/403 400/400/400
f 404/404/404 406/406/406 405/405/405
f 405/405/405 407/407/407 404/404/404
f 408/408/408 410/410/410 409/409/409
f 409/409/409 411/411/411 408/408/408
f 412/412/412 414/414/414 413/413/413
f 413/413/413 415/415/415 412/412/412
f 416/416/416 418/418/418 417/417/417
f 417/417/417 419/419/419 416/416/416
f 420/420/420 422/422/422 421/421/421
f 421/421/421 423/423/423 420/420/420
f 424/424/424 426/426/426 425/425/425
f 425/425/425 427/427/427 424/424/424
f 428/428/428 430/430/430 429/429/429
f 429/429/429 431/431/431 428/428/428
f 432/432/432 434/434/434 433/433/433
f 433/433/433 435/435/435 432/432/432
f 432/432/432 437/437/437 436/436/436
f 436/436/436 438/438/438 432/432/432
f 439/439/439 441/441/441 440/440/440
f 440/440/440 442/442/442 439/439/439
f 443/443/443 445/445/445 444/444/444
f 444/444/444 446/446/446 443/443/443
f 447/447/447 449/449/449 448/448/448
f 448/448/448 450/450/450 447/447/447
f 451/451/451 453/453/453 452/452/452
f 452/452/452 454/454/454 451/451/451
f 455/455/455 457/457/457 456/456/456
f 456/456/456 458/458/458 455/455/455
f 459/459/459 461/461/461 460/460/460
f 460/460/460 462/462/462 459/459/459
f 463/463/463 465/465/465 464/464/464
f 464/464/464 466/466/466 463/463/463
f 467/467/467 469/469/469 468/468/468
f 468/468/468 470/470/470 467/467/467
f 471/471/471 473/473/473 472/472/472
f 472/472/472 474/474/474 471/471/471
f 475/475/475 477/477/477 476/476/476
f 476/476/476 478/478/478 475/475/475
f 479/479/479 481/481/481 480/480/480
f 480/480/480 482/482/482 479/479/479
f 483/483/483 485/485/485 484/484/484
f 484/484/484 486/486/486 483/483/483
f 487/487/487 489/489/489 488/488/488
f 488/488/488 490/490/490 487/487/487
f 491/491/491 493/493/493 492/492/492
f 492/492/492 494/494/494 491/491/491
f 495/495/495 497/497/497 496/496/496
f 496/496/496 498/498/498 495/495/495
f 499/499/499 501/501/501 500/500/500
f 500/500/500 502/502/502 499/499/499
f 503/503/503 505/505/505 504/504/504
f 504/504/504 506/506/506 503/503/503
f 507/507/507 509/509/509 508/508/508
f 508/508/508 510/510/510 507/507/507
f 511/511/511 513/513/513 512/512/512
f 512/512/512 514/514/514 511/511/511
f 515/515/515 517/517/517 516/516/516
f 516/516/516 518/518/518 515/515/515
f 519/519/519 521/521/521 520/520/520
f 520/520/520 522/522/522 519/519/519
f 523/523/523 525/525/525 524/524/524
f 524/524/524 526/526/526 523/523/523
f 527/527/527 529/529/529 528/528/528
f 528/528/528 530/530/530 527/527/527
f 531/531/531 533/533/533 532/532/532
f 532/532/532 534/534/534 531/531/531
f 535/535/535 537/537/537 536/536/536
f 536/536/536 538/538/538 535/535/535
f 539/539/539 541/541/541 540/540/540
f 540/540/540 542/542/542 539/539/539
f 542/542/542 543/543/543 539/539/539
f 543/543/543 542/542/542 544/544/544
f 544/544/544 545/545/545 543/543/543
f 546/546/546 545/545/545 544/544/544
