#Mountain_05_(9)_357_21.obj

v -4.194436 3.737947 3.819771E-16
v -7.160106 1.713941 1.266889
v -7.665709 1.715763 1.753321E-16
v -7.160106 1.713941 1.266889
v -4.194436 3.737947 3.819771E-16
v -3.933565 3.677025 1.31277
v -7.254385 0.0980378 1.001839E-17
v -7.160106 1.713941 1.266889
v -6.854487 0.1266432 1.188133
v -7.160106 1.713941 1.266889
v -7.254385 0.0980378 1.001839E-17
v -7.665709 1.715763 1.753321E-16
v 3.665561 -2.792713 2.025192
v 6.156199 -2.111068 1.903582
v 5.057958 -2.911879 2.005746
v 6.156199 -2.111068 1.903582
v 3.665561 -2.792713 2.025192
v 6.808692 0.05541153 1.847594
v 6.027657 2.450161 2.503795E-16
v 7.665709 0.1829355 1.190308
v 6.030296 2.431467 1.334739
v 7.665709 0.1829355 1.190308
v 6.027657 2.450161 2.503795E-16
v 7.664266 0.1545408 1.579237E-17
v 6.820559 -2.677267 -2.735873E-16
v 5.309933 -3.712569 1.392305
v 6.840153 -2.588094 1.264772
v 5.309933 -3.712569 1.392305
v 6.820559 -2.677267 -2.735873E-16
v 5.29036 -3.835663 -3.919626E-16
v -3.933565 3.677025 1.31277
v -1.70941 3.24951 2.029637
v -3.601108 2.925804 2.003493
v -1.70941 3.24951 2.029637
v -3.933565 3.677025 1.31277
v -2.041346 3.910074 1.316083
v -7.160106 1.713941 1.266889
v -3.601108 2.925804 2.003493
v -6.175472 1.341343 1.885147
v -3.601108 2.925804 2.003493
v -7.160106 1.713941 1.266889
v -3.933565 3.677025 1.31277
v -4.095047 -3.78701 1.314834
v -5.235809 -1.69664 1.877561
v -3.676633 -3.064916 1.995974
v -5.235809 -1.69664 1.877561
v -4.095047 -3.78701 1.314834
v -6.215342 -1.962351 1.209017
v 3.379788 -3.550972 1.370015
v 2.69807 -1.994801 2.001729
v 3.665561 -2.792713 2.025192
v 2.69807 -1.994801 2.001729
v 3.379788 -3.550972 1.370015
v 2.56311 -2.877886 1.327934
v 6.030296 2.431467 1.334739
v 6.808692 0.05541153 1.847594
v 5.621321 1.66261 1.970607
v 6.808692 0.05541153 1.847594
v 6.030296 2.431467 1.334739
v 7.665709 0.1829355 1.190308
v -6.215342 -1.962351 1.209017
v -4.903864 -0.6808453 1.881354
v -5.235809 -1.69664 1.877561
v -4.903864 -0.6808453 1.881354
v -6.215342 -1.962351 1.209017
v -5.818846 -0.755436 1.199842
v 2.56311 -2.877886 1.327934
v 0.9772553 -2.664852 2.044154
v 2.69807 -1.994801 2.001729
v 0.9772553 -2.664852 2.044154
v 2.56311 -2.877886 1.327934
v 1.519779 -3.286086 1.342203
v 1.200388 -4.01334 1.371662
v -1.721835 -3.588944 2.053877
v 0.7337863 -3.315433 2.070017
v -1.721835 -3.588944 2.053877
v 1.200388 -4.01334 1.371662
v -1.810346 -4.398073 1.340715
v -6.854487 0.1266432 1.188133
v -6.175472 1.341343 1.885147
v -6.145761 0.6678354 1.84846
v -6.175472 1.341343 1.885147
v -6.854487 0.1266432 1.188133
v -7.160106 1.713941 1.266889
v 3.478029 2.89726 1.349744
v 4.602209 1.618832 1.984561
v 3.020833 2.256283 2.027464
v 4.602209 1.618832 1.984561
v 3.478029 2.89726 1.349744
v 4.761542 2.375829 1.331748
v -1.553586 4.357332 1.335883
v 0.3752401 3.63005 2.069616
v -1.255428 3.67537 2.051443
v 0.3752401 3.63005 2.069616
v -1.553586 4.357332 1.335883
v 0.5697149 4.425909 1.371162
v 1.391989 3.88075 1.362431
v 2.329682 3.012331 2.061684
v 1.141683 3.124538 2.055678
v 2.329682 3.012331 2.061684
v 1.391989 3.88075 1.362431
v 2.700605 3.756189 1.380967
v -2.041346 3.910074 1.316083
v -1.255428 3.67537 2.051443
v -1.70941 3.24951 2.029637
v -1.255428 3.67537 2.051443
v -2.041346 3.910074 1.316083
v -1.553586 4.357332 1.335883
v -1.810346 -4.398073 1.340715
v -3.676633 -3.064916 1.995974
v -1.721835 -3.588944 2.053877
v -3.676633 -3.064916 1.995974
v -1.810346 -4.398073 1.340715
v -4.095047 -3.78701 1.314834
v 4.602209 1.618832 1.984561
v 3.665561 -2.792713 2.025192
v 2.69807 -1.994801 2.001729
v 3.020833 2.256283 2.027464
v 0.9772553 -2.664852 2.044154
v 1.141683 3.124538 2.055678
v 4.602209 1.618832 1.984561
v 6.808692 0.05541153 1.847594
v 3.665561 -2.792713 2.025192
v 6.808692 0.05541153 1.847594
v 4.602209 1.618832 1.984561
v 5.621321 1.66261 1.970607
v -1.721835 -3.588944 2.053877
v 0.9772553 -2.664852 2.044154
v 0.7337863 -3.315433 2.070017
v 0.9772553 -2.664852 2.044154
v -1.721835 -3.588944 2.053877
v 1.141683 3.124538 2.055678
v 3.020833 2.256283 2.027464
v 1.141683 3.124538 2.055678
v 2.329682 3.012331 2.061684
v -1.255428 3.67537 2.051443
v -1.721835 -3.588944 2.053877
v -3.676633 -3.064916 1.995974
v -4.903864 -0.6808453 1.881354
v -1.70941 3.24951 2.029637
v 1.141683 3.124538 2.055678
v -1.255428 3.67537 2.051443
v 0.3752401 3.63005 2.069616
v -1.255428 3.67537 2.051443
v 1.141683 3.124538 2.055678
v -1.721835 -3.588944 2.053877
v -4.903864 -0.6808453 1.881354
v -3.676633 -3.064916 1.995974
v -5.235809 -1.69664 1.877561
v -3.676633 -3.064916 1.995974
v -1.70941 3.24951 2.029637
v -1.255428 3.67537 2.051443
v -3.601108 2.925804 2.003493
v -4.903864 -0.6808453 1.881354
v -5.550161 0.5868809 1.871904
v -4.903864 -0.6808453 1.881354
v -3.601108 2.925804 2.003493
v -1.70941 3.24951 2.029637
v -3.601108 2.925804 2.003493
v -6.145761 0.6678354 1.84846
v -6.175472 1.341343 1.885147
v -6.145761 0.6678354 1.84846
v -3.601108 2.925804 2.003493
v -5.550161 0.5868809 1.871904
v 2.988735 -0.9541739 3.558371
v 4.927304 -1.195459 3.47365
v 4.273016 -1.765047 3.533748
v 4.927304 -1.195459 3.47365
v 2.988735 -0.9541739 3.558371
v 5.275126 0.2154006 3.436962
v -2.726504 2.226572 3.111868
v -1.627336 2.100531 3.639845
v -2.490649 1.783754 3.623822
v -1.627336 2.100531 3.639845
v -2.726504 2.226572 3.111868
v -1.736827 2.531919 3.136091
v -4.258601 1.670021 3.040776
v -2.490649 1.783754 3.623822
v -3.781436 1.271404 3.570411
v -2.490649 1.783754 3.623822
v -4.258601 1.670021 3.040776
v -2.726504 2.226572 3.111868
v -2.762823 -2.637127 3.153882
v -3.24927 -1.241545 3.622844
v -2.524918 -2.152813 3.694746
v -3.24927 -1.241545 3.622844
v -2.762823 -2.637127 3.153882
v -3.835067 -1.467507 3.049565
v 2.862059 -1.444475 3.07532
v 1.875461 -0.5585167 3.591151
v 2.988735 -0.9541739 3.558371
v 1.875461 -0.5585167 3.591151
v 2.862059 -1.444475 3.07532
v 1.842501 -1.120214 3.100537
v 4.318974 1.081608 3.011747
v 5.275126 0.2154006 3.436962
v 4.085328 0.5904674 3.488198
v 5.275126 0.2154006 3.436962
v 4.318974 1.081608 3.011747
v 5.852758 0.3365185 2.925531
v -3.835067 -1.467507 3.049565
v -2.919595 -0.43884 3.613437
v -3.24927 -1.241545 3.622844
v -2.919595 -0.43884 3.613437
v -3.835067 -1.467507 3.049565
v -3.472837 -0.5373331 3.051367
v 1.842501 -1.120214 3.100537
v 0.8233224 -1.077237 3.643887
v 1.875461 -0.5585167 3.591151
v 0.8233224 -1.077237 3.643887
v 1.842501 -1.120214 3.100537
v 1.200465 -1.435824 3.127697
v 0.229145 -2.617825 3.188529
v -0.9632654 -2.359018 3.726503
v -0.08700215 -2.196544 3.711948
v -0.9632654 -2.359018 3.726503
v 0.229145 -2.617825 3.188529
v -0.9861137 -2.878274 3.200276
v -3.472837 -0.5373331 3.051367
v -3.322778 0.5950937 3.583382
v -2.919595 -0.43884 3.613437
v -3.322778 0.5950937 3.583382
v -3.472837 -0.5373331 3.051367
v -3.648597 0.1871678 3.038026
v -4.378533 0.6425571 2.999553
v -3.781436 1.271404 3.570411
v -3.885535 0.8564679 3.556607
v -3.781436 1.271404 3.570411
v -4.378533 0.6425571 2.999553
v -4.258601 1.670021 3.040776
v -3.648597 0.1871678 3.038026
v -3.885535 0.8564679 3.556607
v -3.322778 0.5950937 3.583382
v -3.885535 0.8564679 3.556607
v -3.648597 0.1871678 3.038026
v -4.378533 0.6425571 2.999553
v 2.248857 2.168182 3.102163
v 2.789414 1.051328 3.53941
v 1.990718 1.749044 3.575721
v 2.789414 1.051328 3.53941
v 2.248857 2.168182 3.102163
v 2.852974 1.526858 3.06729
v 2.852974 1.526858 3.06729
v 4.085328 0.5904674 3.488198
v 2.789414 1.051328 3.53941
v 4.085328 0.5904674 3.488198
v 2.852974 1.526858 3.06729
v 4.318974 1.081608 3.011747
v -0.9990001 2.846006 3.15303
v -0.01927217 2.452518 3.640304
v -0.9187257 2.408834 3.648573
v -0.01927217 2.452518 3.640304
v -0.9990001 2.846006 3.15303
v 0.05884992 2.944871 3.156976
v 0.6070427 2.649019 3.140079
v 1.247644 2.167134 3.606209
v 0.4927623 2.17458 3.621329
v 1.247644 2.167134 3.606209
v 0.6070427 2.649019 3.140079
v 1.43889 2.641031 3.133259
v 4.504385 -2.265427 3.044841
v 2.988735 -0.9541739 3.558371
v 4.273016 -1.765047 3.533748
v 2.988735 -0.9541739 3.558371
v 4.504385 -2.265427 3.044841
v 2.862059 -1.444475 3.07532
v -0.9861137 -2.878274 3.200276
v -2.524918 -2.152813 3.694746
v -0.9632654 -2.359018 3.726503
v -2.524918 -2.152813 3.694746
v -0.9861137 -2.878274 3.200276
v -2.762823 -2.637127 3.153882
v -0.9632654 -2.359018 3.726503
v 0.8233224 -1.077237 3.643887
v -0.08700215 -2.196544 3.711948
v 0.8233224 -1.077237 3.643887
v -0.9632654 -2.359018 3.726503
v 0.4927623 2.17458 3.621329
v 1.990718 1.749044 3.575721
v 0.4927623 2.17458 3.621329
v 1.247644 2.167134 3.606209
v -0.9187257 2.408834 3.648573
v -0.9632654 -2.359018 3.726503
v -2.524918 -2.152813 3.694746
v 0.4927623 2.17458 3.621329
v -0.9187257 2.408834 3.648573
v -0.01927217 2.452518 3.640304
v -0.9187257 2.408834 3.648573
v 0.4927623 2.17458 3.621329
v -0.9632654 -2.359018 3.726503
v -2.919595 -0.43884 3.613437
v -2.524918 -2.152813 3.694746
v -3.24927 -1.241545 3.622844
v -2.524918 -2.152813 3.694746
v -2.919595 -0.43884 3.613437
v -1.627336 2.100531 3.639845
v -2.524918 -2.152813 3.694746
v -1.627336 2.100531 3.639845
v -0.9187257 2.408834 3.648573
v -2.490649 1.783754 3.623822
v -2.919595 -0.43884 3.613437
v -3.322778 0.5950937 3.583382
v -2.919595 -0.43884 3.613437
v -2.490649 1.783754 3.623822
v -1.627336 2.100531 3.639845
v -2.490649 1.783754 3.623822
v -3.885535 0.8564679 3.556607
v -3.781436 1.271404 3.570411
v -3.885535 0.8564679 3.556607
v -2.490649 1.783754 3.623822
v -3.322778 0.5950937 3.583382
v 4.759294 2.393446 2.445839E-16
v 6.030296 2.431467 1.334739
v 4.761542 2.375829 1.331748
v 6.027657 2.450161 2.503795E-16
v 1.356403 3.947883 4.034303E-16
v 2.700605 3.756189 1.380967
v 1.391989 3.88075 1.362431
v 2.68124 3.818189 3.90177E-16
v -1.948852 -4.514099 -4.612913E-16
v -4.095047 -3.78701 1.314834
v -1.810346 -4.398073 1.340715
v -4.341541 -3.890435 -3.975597E-16
v 5.29036 -3.835663 -3.919626E-16
v 3.379788 -3.550972 1.370015
v 5.309933 -3.712569 1.392305
v 3.363268 -3.663089 -3.743274E-16
v -4.341541 -3.890435 -3.975597E-16
v -6.215342 -1.962351 1.209017
v -4.095047 -3.78701 1.314834
v -6.545238 -2.030143 -2.074583E-16
v 7.664266 0.1545408 1.579237E-17
v 6.840153 -2.588094 1.264772
v 7.665709 0.1829355 1.190308
v 6.820559 -2.677267 -2.735873E-16
v 3.363268 -3.663089 -3.743274E-16
v 2.56311 -2.877886 1.327934
v 3.379788 -3.550972 1.370015
v 2.547072 -2.969805 -3.034814E-16
v 1.492746 -3.384924 -3.45902E-16
v 1.200388 -4.01334 1.371662
v 1.519779 -3.286086 1.342203
v 1.162398 -4.129621 -4.220018E-16
v -6.545238 -2.030143 -2.074583E-16
v -5.818846 -0.755436 1.199842
v -6.215342 -1.962351 1.209017
v -6.111476 -0.7985744 -8.160553E-17
v -6.504947 -0.04193785 -4.285588E-18
v -6.854487 0.1266432 1.188133
v -6.170844 -0.01196652 1.198651
v -7.254385 0.0980378 1.001839E-17
v -6.111476 -0.7985744 -8.160553E-17
v -6.170844 -0.01196652 1.198651
v -5.818846 -0.755436 1.199842
v -6.504947 -0.04193785 -4.285588E-18
v 2.547072 -2.969805 -3.034814E-16
v 1.519779 -3.286086 1.342203
v 2.56311 -2.877886 1.327934
v 1.492746 -3.384924 -3.45902E-16
v 2.68124 3.818189 3.90177E-16
v 3.478029 2.89726 1.349744
v 2.700605 3.756189 1.380967
v 3.469427 2.930438 2.994586E-16
v 3.469427 2.930438 2.994586E-16
v 4.761542 2.375829 1.331748
v 3.478029 2.89726 1.349744
v 4.759294 2.393446 2.445839E-16
v -2.185759 3.979218 4.066324E-16
v -1.553586 4.357332 1.335883
v -2.041346 3.910074 1.316083
v -1.678717 4.442869 4.540124E-16
v -1.678717 4.442869 4.540124E-16
v 0.5697149 4.425909 1.371162
v -1.553586 4.357332 1.335883
v 0.5145221 4.5141 4.612914E-16
v 0.5145221 4.5141 4.612914E-16
v 1.391989 3.88075 1.362431
v 0.5697149 4.425909 1.371162
v 1.356403 3.947883 4.034303E-16
v -4.194436 3.737947 3.819771E-16
v -2.041346 3.910074 1.316083
v -3.933565 3.677025 1.31277
v -2.185759 3.979218 4.066324E-16
v 1.162398 -4.129621 -4.220018E-16
v -1.810346 -4.398073 1.340715
v 1.200388 -4.01334 1.371662
v -1.948852 -4.514099 -4.612913E-16
v 2.700605 3.756189 1.380967
v 3.020833 2.256283 2.027464
v 2.329682 3.012331 2.061684
v 3.478029 2.89726 1.349744
v 6.840153 -2.588094 1.264772
v 5.057958 -2.911879 2.005746
v 6.156199 -2.111068 1.903582
v 5.309933 -3.712569 1.392305
v 7.665709 0.1829355 1.190308
v 6.156199 -2.111068 1.903582
v 6.808692 0.05541153 1.847594
v 6.840153 -2.588094 1.264772
v -5.818846 -0.755436 1.199842
v -5.550161 0.5868809 1.871904
v -4.903864 -0.6808453 1.881354
v -6.170844 -0.01196652 1.198651
v -6.170844 -0.01196652 1.198651
v -6.145761 0.6678354 1.84846
v -5.550161 0.5868809 1.871904
v -6.854487 0.1266432 1.188133
v 1.519779 -3.286086 1.342203
v 0.7337863 -3.315433 2.070017
v 0.9772553 -2.664852 2.044154
v 1.200388 -4.01334 1.371662
v 4.761542 2.375829 1.331748
v 5.621321 1.66261 1.970607
v 4.602209 1.618832 1.984561
v 6.030296 2.431467 1.334739
v 0.5697149 4.425909 1.371162
v 1.141683 3.124538 2.055678
v 0.3752401 3.63005 2.069616
v 1.391989 3.88075 1.362431
v 5.309933 -3.712569 1.392305
v 3.665561 -2.792713 2.025192
v 5.057958 -2.911879 2.005746
v 3.379788 -3.550972 1.370015
v 2.88644 1.56205 1.829556
v 4.318974 1.081608 3.011747
v 2.852974 1.526858 3.06729
v 4.387317 1.101504 1.797947
v 0.5794488 2.731197 1.858765
v 1.43889 2.641031 3.133259
v 0.6070427 2.649019 3.140079
v 1.437532 2.723162 1.866857
v -2.895443 2.289204 1.812996
v -4.258601 1.670021 3.040776
v -4.52505 1.710683 1.777505
v -2.726504 2.226572 3.111868
v -1.736827 2.531919 3.136091
v -2.726504 2.226572 3.111868
v -1.855697 2.608159 1.830727
v -4.656628 0.6456743 1.743983
v -4.258601 1.670021 3.040776
v -4.378533 0.6425571 2.999553
v -4.52505 1.710683 1.777505
v -1.076324 -2.992931 1.864342
v -2.762823 -2.637127 3.153882
v -0.9861137 -2.878274 3.200276
v -2.940942 -2.74291 1.826357
v 4.582382 -2.352338 1.808486
v 2.862059 -1.444475 3.07532
v 4.504385 -2.265427 3.044841
v 2.893496 -1.508826 1.811551
v -2.940942 -2.74291 1.826357
v -3.835067 -1.467507 3.049565
v -2.762823 -2.637127 3.153882
v -4.080202 -1.533346 1.761586
v 5.955954 0.3328182 1.731586
v 5.425344 -1.466443 2.952783
v 5.852758 0.3365185 2.925531
v 5.520918 -1.526936 1.74064
v 4.387317 1.101504 1.797947
v 5.852758 0.3365185 2.925531
v 4.318974 1.081608 3.011747
v 5.955954 0.3328182 1.731586
v 2.893496 -1.508826 1.811551
v 1.842501 -1.120214 3.100537
v 2.862059 -1.444475 3.07532
v 1.845886 -1.175867 1.820385
v 1.185654 -1.502022 1.832828
v 0.229145 -2.617825 3.188529
v 1.200465 -1.435824 3.127697
v 0.1852679 -2.722826 1.867193
v -4.080202 -1.533346 1.761586
v -3.472837 -0.5373331 3.051367
v -3.835067 -1.467507 3.049565
v -3.692058 -0.5744597 1.763973
v -3.877167 0.1737545 1.759633
v -4.378533 0.6425571 2.999553
v -3.648597 0.1871678 3.038026
v -4.656628 0.6456743 1.743983
v -3.692058 -0.5744597 1.763973
v -3.648597 0.1871678 3.038026
v -3.472837 -0.5373331 3.051367
v -3.877167 0.1737545 1.759633
v 1.845886 -1.175867 1.820385
v 1.200465 -1.435824 3.127697
v 1.842501 -1.120214 3.100537
v 1.185654 -1.502022 1.832828
v 1.437532 2.723162 1.866857
v 2.248857 2.168182 3.102163
v 1.43889 2.641031 3.133259
v 2.268909 2.229314 1.853532
v 2.268909 2.229314 1.853532
v 2.852974 1.526858 3.06729
v 2.248857 2.168182 3.102163
v 2.88644 1.56205 1.829556
v -1.855697 2.608159 1.830727
v -0.9990001 2.846006 3.15303
v -1.736827 2.531919 3.136091
v -1.085269 2.937353 1.847496
v -1.085269 2.937353 1.847496
v 0.05884992 2.944871 3.156976
v -0.9990001 2.846006 3.15303
v 0.01328213 3.041355 1.863065
v 0.01328213 3.041355 1.863065
v 0.6070427 2.649019 3.140079
v 0.05884992 2.944871 3.156976
v 0.5794488 2.731197 1.858765
v 5.520918 -1.526936 1.74064
v 4.504385 -2.265427 3.044841
v 5.425344 -1.466443 2.952783
v 4.582382 -2.352338 1.808486
v 0.1852679 -2.722826 1.867193
v -0.9861137 -2.878274 3.200276
v 0.229145 -2.617825 3.188529
v -1.076324 -2.992931 1.864342
v 1.43889 2.641031 3.133259
v 1.990718 1.749044 3.575721
v 1.247644 2.167134 3.606209
v 2.248857 2.168182 3.102163
v 5.425344 -1.466443 2.952783
v 4.273016 -1.765047 3.533748
v 4.927304 -1.195459 3.47365
v 4.504385 -2.265427 3.044841
v 5.852758 0.3365185 2.925531
v 4.927304 -1.195459 3.47365
v 5.275126 0.2154006 3.436962
v 5.425344 -1.466443 2.952783
v 1.200465 -1.435824 3.127697
v -0.08700215 -2.196544 3.711948
v 0.8233224 -1.077237 3.643887
v 0.229145 -2.617825 3.188529
v 0.05884992 2.944871 3.156976
v 0.4927623 2.17458 3.621329
v -0.01927217 2.452518 3.640304
v 0.6070427 2.649019 3.140079
v -1.736827 2.531919 3.136091
v -0.9187257 2.408834 3.648573
v -1.627336 2.100531 3.639845
v -0.9990001 2.846006 3.15303
v 2.988735 -0.9541739 3.558371
v 4.085328 0.5904674 3.488198
v 5.275126 0.2154006 3.436962
v 2.789414 1.051328 3.53941
v 1.875461 -0.5585167 3.591151
v 1.990718 1.749044 3.575721
v 0.8233224 -1.077237 3.643887
v 0.4927623 2.17458 3.621329

vn -0.5263672 0.1050415 -0.84375
vn -0.5263672 0.1050415 -0.84375
vn -0.5263672 0.1050415 -0.84375
vn -0.546875 0.07427979 -0.8339844
vn -0.546875 0.07427979 -0.8339844
vn -0.546875 0.07427979 -0.8339844
vn -0.9833984 0.1500244 0.1010132
vn -0.9833984 0.1500244 0.1010132
vn -0.9833984 0.1500244 0.1010132
vn -0.9755859 0.1732178 0.1348877
vn -0.9755859 0.1732178 0.1348877
vn -0.9755859 0.1732178 0.1348877
vn 0.05981445 0.9838867 -0.1680908
vn 0.05981445 0.9838867 -0.1680908
vn 0.05981445 0.9838867 -0.1680908
vn 0.1016846 0.9946289 -0.01506042
vn 0.1016846 0.9946289 -0.01506042
vn 0.1016846 0.9946289 -0.01506042
vn 0.8930664 0.003183365 -0.4494629
vn 0.8930664 0.003183365 -0.4494629
vn 0.8930664 0.003183365 -0.4494629
vn 0.8969727 -0.007106781 -0.4418945
vn 0.8969727 -0.007106781 -0.4418945
vn 0.8969727 -0.007106781 -0.4418945
vn 0.6245117 0.02424622 0.7807617
vn 0.6245117 0.02424622 0.7807617
vn 0.6245117 0.02424622 0.7807617
vn 0.6333008 0.03158569 0.7734375
vn 0.6333008 0.03158569 0.7734375
vn 0.6333008 0.03158569 0.7734375
vn -0.1357422 0.5380859 -0.8320313
vn -0.1357422 0.5380859 -0.8320313
vn -0.1357422 0.5380859 -0.8320313
vn -0.07672119 0.4758301 -0.8759766
vn -0.07672119 0.4758301 -0.8759766
vn -0.07672119 0.4758301 -0.8759766
vn -0.4863281 0.5849609 -0.6489258
vn -0.4863281 0.5849609 -0.6489258
vn -0.4863281 0.5849609 -0.6489258
vn -0.4777832 0.5214844 -0.7070313
vn -0.4777832 0.5214844 -0.7070313
vn -0.4777832 0.5214844 -0.7070313
vn -0.7060547 0.5053711 0.4960938
vn -0.7060547 0.5053711 0.4960938
vn -0.7060547 0.5053711 0.4960938
vn -0.6738281 0.5424805 0.5019531
vn -0.6738281 0.5424805 0.5019531
vn -0.6738281 0.5424805 0.5019531
vn -0.6669922 0.5043945 0.5488281
vn -0.6669922 0.5043945 0.5488281
vn -0.6669922 0.5043945 0.5488281
vn -0.6875 0.4848633 0.5405273
vn -0.6875 0.4848633 0.5405273
vn -0.6875 0.4848633 0.5405273
vn 0.7998047 0.4912109 -0.3444824
vn 0.7998047 0.4912109 -0.3444824
vn 0.7998047 0.4912109 -0.3444824
vn 0.7963867 0.4960938 -0.3457031
vn 0.7963867 0.4960938 -0.3457031
vn 0.7963867 0.4960938 -0.3457031
vn -0.8198242 0.503418 -0.2722168
vn -0.8198242 0.503418 -0.2722168
vn -0.8198242 0.503418 -0.2722168
vn -0.8222656 0.4934082 -0.2844238
vn -0.8222656 0.4934082 -0.2844238
vn -0.8222656 0.4934082 -0.2844238
vn 0.3427734 0.5180664 0.7836914
vn 0.3427734 0.5180664 0.7836914
vn 0.3427734 0.5180664 0.7836914
vn 0.3352051 0.512207 0.7910156
vn 0.3352051 0.512207 0.7910156
vn 0.3352051 0.512207 0.7910156
vn 0.05380249 0.5083008 0.8598633
vn 0.05380249 0.5083008 0.8598633
vn 0.05380249 0.5083008 0.8598633
vn 0.06542969 0.5249023 0.8486328
vn 0.06542969 0.5249023 0.8486328
vn 0.06542969 0.5249023 0.8486328
vn -0.8867188 0.4621582 0.01864624
vn -0.8867188 0.4621582 0.01864624
vn -0.8867188 0.4621582 0.01864624
vn -0.8369141 0.5336914 0.1218872
vn -0.8369141 0.5336914 0.1218872
vn -0.8369141 0.5336914 0.1218872
vn 0.4543457 0.519043 -0.7241211
vn 0.4543457 0.519043 -0.7241211
vn 0.4543457 0.519043 -0.7241211
vn 0.4423828 0.5283203 -0.7246094
vn 0.4423828 0.5283203 -0.7246094
vn 0.4423828 0.5283203 -0.7246094
vn 0.0769043 0.4655762 -0.8818359
vn 0.0769043 0.4655762 -0.8818359
vn 0.0769043 0.4655762 -0.8818359
vn 0.002357483 0.5297852 -0.8481445
vn 0.002357483 0.5297852 -0.8481445
vn 0.002357483 0.5297852 -0.8481445
vn 0.1478271 0.5273438 -0.8364258
vn 0.1478271 0.5273438 -0.8364258
vn 0.1478271 0.5273438 -0.8364258
vn 0.1374512 0.5322266 -0.8354492
vn 0.1374512 0.5322266 -0.8354492
vn 0.1374512 0.5322266 -0.8354492
vn -0.6616211 0.4372559 -0.6088867
vn -0.6616211 0.4372559 -0.6088867
vn -0.6616211 0.4372559 -0.6088867
vn -0.6523438 0.4353027 -0.6201172
vn -0.6523438 0.4353027 -0.6201172
vn -0.6523438 0.4353027 -0.6201172
vn -0.3508301 0.5209961 0.777832
vn -0.3508301 0.5209961 0.777832
vn -0.3508301 0.5209961 0.777832
vn -0.3269043 0.5439453 0.7729492
vn -0.3269043 0.5439453 0.7729492
vn -0.3269043 0.5439453 0.7729492
vn -0.02993774 0.9990234 -0.02397156
vn -0.02993774 0.9990234 -0.02397156
vn -0.02993774 0.9990234 -0.02397156
vn 0.06057739 0.9980469 0.0186615
vn 0.06057739 0.9980469 0.0186615
vn 0.03053284 0.9995117 0.00630188
vn 0.1306152 0.9912109 0.01474762
vn 0.1306152 0.9912109 0.01474762
vn 0.1306152 0.9912109 0.01474762
vn 0.02865601 0.9926758 0.1170044
vn 0.02865601 0.9926758 0.1170044
vn 0.02865601 0.9926758 0.1170044
vn -0.02017212 0.996582 -0.0803833
vn -0.02017212 0.996582 -0.0803833
vn -0.02017212 0.996582 -0.0803833
vn 0.00933075 1 0.004421234
vn 0.00933075 1 0.004421234
vn 0.00933075 1 0.004421234
vn -0.02891541 0.9951172 0.09594727
vn -0.02891541 0.9951172 0.09594727
vn -0.02891541 0.9951172 0.09594727
vn -0.06390381 0.9980469 -0.008155823
vn -0.06390381 0.9980469 -0.008155823
vn -0.06390381 0.9980469 -0.008155823
vn -0.1400146 0.9897461 -0.0355835
vn -0.1400146 0.9897461 -0.0355835
vn -0.03289795 0.9960938 0.08117676
vn -0.03289795 0.9960938 0.08117676
vn -0.03289795 0.9960938 0.08117676
vn -0.003637314 1 -0.00103569
vn -0.003637314 1 -0.00103569
vn -0.003637314 1 -0.00103569
vn -0.1331787 0.9902344 -0.03799438
vn -0.1331787 0.9902344 -0.03799438
vn -0.1331787 0.9902344 -0.03799438
vn -0.1318359 0.9907227 -0.03295898
vn -0.1318359 0.9907227 -0.03295898
vn -0.1318359 0.9907227 -0.03295898
vn -0.1064453 0.9941406 0.02296448
vn -0.1064453 0.9941406 0.02296448
vn -0.1064453 0.9941406 0.02296448
vn -0.02253723 0.9985352 0.05386353
vn -0.02253723 0.9985352 0.05386353
vn -0.02253723 0.9985352 0.05386353
vn -0.03317261 0.9946289 0.09637451
vn -0.03317261 0.9946289 0.09637451
vn -0.03317261 0.9946289 0.09637451
vn -0.09558105 0.9951172 0.03149414
vn -0.09558105 0.9951172 0.03149414
vn -0.09558105 0.9951172 0.03149414
vn 0.1147461 0.9902344 -0.07879639
vn 0.1147461 0.9902344 -0.07879639
vn 0.1147461 0.9902344 -0.07879639
vn 0.1021118 0.9946289 -0.01976013
vn 0.1021118 0.9946289 -0.01976013
vn 0.1021118 0.9946289 -0.01976013
vn -0.328125 0.4638672 -0.8227539
vn -0.328125 0.4638672 -0.8227539
vn -0.328125 0.4638672 -0.8227539
vn -0.2861328 0.4311523 -0.8554688
vn -0.2861328 0.4311523 -0.8554688
vn -0.2861328 0.4311523 -0.8554688
vn -0.3686523 0.4902344 -0.7900391
vn -0.3686523 0.4902344 -0.7900391
vn -0.3686523 0.4902344 -0.7900391
vn -0.3493652 0.4633789 -0.8144531
vn -0.3493652 0.4633789 -0.8144531
vn -0.3493652 0.4633789 -0.8144531
vn -0.8276367 0.387207 0.4060059
vn -0.8276367 0.387207 0.4060059
vn -0.8276367 0.387207 0.4060059
vn -0.7797852 0.4511719 0.4338379
vn -0.7797852 0.4511719 0.4338379
vn -0.7797852 0.4511719 0.4338379
vn -0.3745117 0.4941406 0.784668
vn -0.3745117 0.4941406 0.784668
vn -0.3745117 0.4941406 0.784668
vn -0.3393555 0.5205078 0.7832031
vn -0.3393555 0.5205078 0.7832031
vn -0.3393555 0.5205078 0.7832031
vn 0.4023438 0.5229492 -0.7514648
vn 0.4023438 0.5229492 -0.7514648
vn 0.4023438 0.5229492 -0.7514648
vn 0.5625 0.3630371 -0.7431641
vn 0.5625 0.3630371 -0.7431641
vn 0.5625 0.3630371 -0.7431641
vn -0.8671875 0.3427734 -0.3605957
vn -0.8671875 0.3427734 -0.3605957
vn -0.8671875 0.3427734 -0.3605957
vn -0.8676758 0.3664551 -0.3361816
vn -0.8676758 0.3664551 -0.3361816
vn -0.8676758 0.3664551 -0.3361816
vn 0.4501953 0.4545898 0.7685547
vn 0.4501953 0.4545898 0.7685547
vn 0.4501953 0.4545898 0.7685547
vn 0.4440918 0.4499512 0.7749023
vn 0.4440918 0.4499512 0.7749023
vn 0.4440918 0.4499512 0.7749023
vn 0.1578369 0.4472656 0.8803711
vn 0.1578369 0.4472656 0.8803711
vn 0.1578369 0.4472656 0.8803711
vn 0.1794434 0.4641113 0.8676758
vn 0.1794434 0.4641113 0.8676758
vn 0.1794434 0.4641113 0.8676758
vn -0.8896484 0.4125977 0.1966553
vn -0.8896484 0.4125977 0.1966553
vn -0.8896484 0.4125977 0.1966553
vn -0.9404297 0.3220215 0.1107178
vn -0.9404297 0.3220215 0.1107178
vn -0.9404297 0.3220215 0.1107178
vn -0.9145508 0.3337402 -0.2290039
vn -0.9145508 0.3337402 -0.2290039
vn -0.9145508 0.3337402 -0.2290039
vn -0.9106445 0.3962402 -0.118042
vn -0.9106445 0.3962402 -0.118042
vn -0.9106445 0.3962402 -0.118042
vn -0.5292969 0.4440918 0.7231445
vn -0.5292969 0.4440918 0.7231445
vn -0.5292969 0.4440918 0.7231445
vn -0.6362305 0.3867188 0.6674805
vn -0.6362305 0.3867188 0.6674805
vn -0.6362305 0.3867188 0.6674805
vn 0.7114258 0.4526367 -0.5375977
vn 0.7114258 0.4526367 -0.5375977
vn 0.7114258 0.4526367 -0.5375977
vn 0.7949219 0.3518066 -0.4946289
vn 0.7949219 0.3518066 -0.4946289
vn 0.7949219 0.3518066 -0.4946289
vn 0.4406738 0.4680176 -0.7661133
vn 0.4406738 0.4680176 -0.7661133
vn 0.4406738 0.4680176 -0.7661133
vn 0.3881836 0.5234375 -0.7587891
vn 0.3881836 0.5234375 -0.7587891
vn 0.3881836 0.5234375 -0.7587891
vn 0.01419067 0.4428711 -0.8964844
vn 0.01419067 0.4428711 -0.8964844
vn 0.01419067 0.4428711 -0.8964844
vn -0.04705811 0.4846191 -0.8735352
vn -0.04705811 0.4846191 -0.8735352
vn -0.04705811 0.4846191 -0.8735352
vn 0.08947754 0.4831543 -0.8710938
vn 0.08947754 0.4831543 -0.8710938
vn 0.08947754 0.4831543 -0.8710938
vn 0.07641602 0.489502 -0.8686523
vn 0.07641602 0.489502 -0.8686523
vn 0.07641602 0.489502 -0.8686523
vn -0.6254883 0.3078613 0.7172852
vn -0.6254883 0.3078613 0.7172852
vn -0.6254883 0.3078613 0.7172852
vn -0.4953613 0.479248 0.7246094
vn -0.4953613 0.479248 0.7246094
vn -0.4953613 0.479248 0.7246094
vn -0.21875 0.4772949 0.8510742
vn -0.21875 0.4772949 0.8510742
vn -0.21875 0.4772949 0.8510742
vn -0.229126 0.4663086 0.8544922
vn -0.229126 0.4663086 0.8544922
vn -0.229126 0.4663086 0.8544922
vn 0.02038574 0.9951172 -0.09851074
vn 0.02038574 0.9951172 -0.09851074
vn 0.02038574 0.9951172 -0.09851074
vn 0.08618164 0.9960938 -0.01380157
vn 0.08618164 0.9960938 -0.01380157
vn 0.08618164 0.9960938 -0.01380157
vn 0.03894043 0.996582 0.07080078
vn 0.03894043 0.996582 0.07080078
vn 0.03894043 0.996582 0.07080078
vn -0.03823853 0.9985352 -0.03222656
vn -0.03823853 0.9985352 -0.03222656
vn -0.03823853 0.9985352 -0.03222656
vn 0.01980591 0.9960938 0.08587646
vn 0.01980591 0.9960938 0.08587646
vn 0.01980591 0.9960938 0.08587646
vn 0.05050659 0.9985352 -0.02571106
vn 0.05050659 0.9985352 -0.02571106
vn 0.05050659 0.9985352 -0.02571106
vn -0.1182251 0.9907227 -0.06951904
vn -0.1182251 0.9907227 -0.06951904
vn -0.1182251 0.9907227 -0.06951904
vn -0.1671143 0.9838867 -0.06317139
vn -0.1671143 0.9838867 -0.06317139
vn -0.1671143 0.9838867 -0.06317139
vn -0.04168701 0.9985352 -0.03344727
vn -0.04168701 0.9985352 -0.03344727
vn -0.04168701 0.9985352 -0.03344727
vn -0.1264648 0.9916992 -0.01992798
vn -0.1264648 0.9916992 -0.01992798
vn -0.1264648 0.9916992 -0.01992798
vn -0.0402832 0.9990234 -0.0005369186
vn -0.0402832 0.9990234 -0.0005369186
vn -0.0402832 0.9990234 -0.0005369186
vn -0.07208252 0.996582 0.04089355
vn -0.07208252 0.996582 0.04089355
vn -0.07208252 0.996582 0.04089355
vn -0.1054077 0.9946289 -0.005970001
vn -0.1054077 0.9946289 -0.005970001
vn -0.1054077 0.9946289 -0.005970001
vn 0.01152802 0.007389069 -1
vn 0.01152802 0.007389069 -1
vn 0.01152802 0.007389069 -1
vn 0.01050568 0.007827759 -1
vn 0.1809082 0.02584839 -0.9833984
vn 0.1809082 0.02584839 -0.9833984
vn 0.1809082 0.02584839 -0.9833984
vn 0.1849365 0.02403259 -0.9824219
vn -0.3759766 0.0602417 0.9248047
vn -0.3759766 0.0602417 0.9248047
vn -0.3759766 0.0602417 0.9248047
vn -0.3674316 0.06738281 0.9277344
vn -0.1689453 0.04953003 0.984375
vn -0.1689453 0.04953003 0.984375
vn -0.1689453 0.04953003 0.984375
vn -0.1748047 0.04580688 0.9833984
vn -0.7729492 0.09130859 0.6279297
vn -0.7729492 0.09130859 0.6279297
vn -0.7729492 0.09130859 0.6279297
vn -0.7612305 0.1096191 0.6396484
vn 0.9545898 0.002578735 0.2976074
vn 0.9545898 0.002578735 0.2976074
vn 0.9545898 0.002578735 0.2976074
vn 0.9545898 0.002414703 0.2978516
vn -0.7592773 0.03567505 0.6499023
vn -0.7592773 0.03567505 0.6499023
vn -0.7592773 0.03567505 0.6499023
vn -0.7670898 0.03048706 0.640625
vn 0.918457 0.005161285 0.395752
vn 0.918457 0.005161285 0.395752
vn 0.918457 0.005161285 0.395752
vn 0.9169922 0.004199982 0.3989258
vn -0.9414063 0.1099854 -0.3193359
vn -0.9414063 0.1099854 -0.3193359
vn -0.9414063 0.1099854 -0.3193359
vn -0.9370117 0.09967041 -0.3349609
vn -0.3071289 0.04412842 0.9506836
vn -0.3071289 0.04412842 0.9506836
vn -0.3071289 0.04412842 0.9506836
vn -0.2878418 0.04708862 0.956543
vn -0.949707 0.1090698 0.2937012
vn -0.949707 0.1090698 0.2937012
vn -0.949707 0.1090698 0.2937012
vn -0.9384766 0.1202393 0.3242188
vn 0.3757324 0.03225708 0.9262695
vn 0.3757324 0.03225708 0.9262695
vn 0.3757324 0.03225708 0.9262695
vn 0.3771973 0.03286743 0.9257813
vn 0.84375 0.009658813 -0.5366211
vn 0.84375 0.009658813 -0.5366211
vn 0.84375 0.009658813 -0.5366211
vn 0.8486328 0.005649567 -0.5292969
vn 0.5063477 0.01093292 -0.8623047
vn 0.5063477 0.01093292 -0.8623047
vn 0.5063477 0.01093292 -0.8623047
vn 0.5146484 0.006195068 -0.8574219
vn -0.7060547 0.05633545 -0.7060547
vn -0.7060547 0.05633545 -0.7060547
vn -0.7060547 0.05633545 -0.7060547
vn -0.7026367 0.05511475 -0.7094727
vn 0.02441406 0.03729248 -0.9990234
vn 0.02441406 0.03729248 -0.9990234
vn 0.02441406 0.03729248 -0.9990234
vn 0.02557373 0.03646851 -0.9990234
vn 0.6831055 0.01618958 -0.7299805
vn 0.6831055 0.01618958 -0.7299805
vn 0.6831055 0.01618958 -0.7299805
vn 0.6879883 0.01356506 -0.7255859
vn -0.08526611 0.03897095 -0.9956055
vn -0.08526611 0.03897095 -0.9956055
vn -0.08526611 0.03897095 -0.9956055
vn -0.08148193 0.03613281 -0.9960938
vn 0.08966064 0.0446167 0.9951172
vn 0.08966064 0.0446167 0.9951172
vn 0.08966064 0.0446167 0.9951172
vn 0.08563232 0.04052734 0.9956055
vn 0.7543945 0.4794922 -0.447998
vn 0.7543945 0.4794922 -0.447998
vn 0.7543945 0.4794922 -0.447998
vn 0.7529297 0.4812012 -0.4489746
vn 0.5844727 0.5366211 0.6083984
vn 0.5844727 0.5366211 0.6083984
vn 0.5844727 0.5366211 0.6083984
vn 0.581543 0.5327148 0.6147461
vn 0.8417969 0.4824219 0.2420654
vn 0.8417969 0.4824219 0.2420654
vn 0.8417969 0.4824219 0.2420654
vn 0.8398438 0.4875488 0.2380371
vn -0.8203125 0.5039063 0.2705078
vn -0.8203125 0.5039063 0.2705078
vn -0.8203125 0.5039063 0.2705078
vn -0.8325195 0.4914551 0.2563477
vn -0.2409668 0.496582 0.8339844
vn -0.2409668 0.496582 0.8339844
vn -0.2409668 0.496582 0.8339844
vn -0.2817383 0.4926758 0.8232422
vn 0.8588867 0.4208984 0.2922363
vn 0.8588867 0.4208984 0.2922363
vn 0.8588867 0.4208984 0.2922363
vn 0.8461914 0.4150391 0.3339844
vn 0.02705383 0.5395508 -0.8413086
vn 0.02705383 0.5395508 -0.8413086
vn 0.02705383 0.5395508 -0.8413086
vn 0.006816864 0.5478516 -0.8364258
vn 0.6040039 0.4919434 -0.6269531
vn 0.6040039 0.4919434 -0.6269531
vn 0.6040039 0.4919434 -0.6269531
vn 0.6000977 0.4951172 -0.628418
vn -0.1212769 0.578125 0.8071289
vn -0.1212769 0.578125 0.8071289
vn -0.1212769 0.578125 0.8071289
vn -0.1538086 0.5522461 0.8193359
vn 0.4133301 0.01908875 -0.9106445
vn 0.4133301 0.01908875 -0.9106445
vn 0.4133301 0.01908875 -0.9106445
vn 0.4157715 0.01753235 -0.9091797
vn 0.07806396 0.03552246 -0.9960938
vn 0.07806396 0.03552246 -0.9960938
vn 0.07806396 0.03552246 -0.9960938
vn 0.07635498 0.03604126 -0.996582
vn -0.3422852 0.05465698 -0.9379883
vn -0.3422852 0.05465698 -0.9379883
vn -0.3422852 0.05465698 -0.9379883
vn -0.3525391 0.04858398 -0.9345703
vn -0.2958984 0.04598999 -0.9541016
vn -0.2958984 0.04598999 -0.9541016
vn -0.293457 0.04492188 -0.9550781
vn -0.9833984 0.09899902 -0.1513672
vn -0.9833984 0.09899902 -0.1513672
vn -0.9833984 0.09899902 -0.1513672
vn -0.9829102 0.0958252 -0.1585693
vn -0.2322998 0.05212402 0.9711914
vn -0.2322998 0.05212402 0.9711914
vn -0.2322998 0.05212402 0.9711914
vn -0.2298584 0.0536499 0.9716797
vn -0.5795898 0.01837158 0.8149414
vn -0.5795898 0.01837158 0.8149414
vn -0.5795898 0.01837158 0.8149414
vn -0.5795898 0.01821899 0.8144531
vn -0.8432617 0.07470703 0.5322266
vn -0.8432617 0.07470703 0.5322266
vn -0.8432617 0.07470703 0.5322266
vn -0.8339844 0.08526611 0.5454102
vn 0.9672852 0.0385437 0.2514648
vn 0.9672852 0.0385437 0.2514648
vn 0.9672852 0.0385437 0.2514648
vn 0.9672852 0.04000854 0.2496338
vn 0.5712891 0.02090454 -0.8203125
vn 0.5712891 0.02090454 -0.8203125
vn 0.5712891 0.02090454 -0.8203125
vn 0.5742188 0.01873779 -0.8188477
vn -0.4248047 0.02229309 0.9047852
vn -0.4248047 0.02229309 0.9047852
vn -0.4248047 0.02229309 0.9047852
vn -0.425293 0.02207947 0.9047852
vn 0.7949219 0.01143646 0.6064453
vn 0.7949219 0.01143646 0.6064453
vn 0.7949219 0.01143646 0.6064453
vn 0.7954102 0.01195526 0.605957
vn -0.9296875 0.07299805 -0.3613281
vn -0.9296875 0.07299805 -0.3613281
vn -0.9296875 0.07299805 -0.3613281
vn -0.9257813 0.06774902 -0.3720703
vn -0.6640625 0.0539856 0.7460938
vn -0.6640625 0.0539856 0.7460938
vn -0.6640625 0.0539856 0.7460938
vn -0.6503906 0.05871582 0.7573242
vn -0.9892578 0.078125 0.125
vn -0.9892578 0.078125 0.125
vn -0.9892578 0.078125 0.125
vn -0.9882813 0.07983398 0.1303711
vn 0.4631348 0.02127075 0.8862305
vn 0.4631348 0.02127075 0.8862305
vn 0.4631348 0.02127075 0.8862305
vn 0.4643555 0.02157593 0.8852539
vn 0.6381836 0.02893066 -0.7695313
vn 0.6381836 0.02893066 -0.7695313
vn 0.6381836 0.02893066 -0.7695313
vn 0.6435547 0.02622986 -0.7651367
vn 0.8339844 0.02223206 -0.5512695
vn 0.8339844 0.02223206 -0.5512695
vn 0.8339844 0.02223206 -0.5512695
vn 0.8383789 0.01922607 -0.5449219
vn -0.4077148 0.04782104 -0.9116211
vn -0.4077148 0.04782104 -0.9116211
vn -0.4077148 0.04782104 -0.9116211
vn -0.4091797 0.04827881 -0.9111328
vn -0.04953003 0.04205322 -0.9980469
vn -0.04953003 0.04205322 -0.9980469
vn -0.04953003 0.04205322 -0.9980469
vn -0.05200195 0.04302979 -0.9975586
vn 0.6088867 0.02565002 -0.7924805
vn 0.6088867 0.02565002 -0.7924805
vn 0.6088867 0.02565002 -0.7924805
vn 0.6137695 0.02409363 -0.7890625
vn 0.6889648 0.04489136 0.7231445
vn 0.6889648 0.04489136 0.7231445
vn 0.6889648 0.04489136 0.7231445
vn 0.6928711 0.04730225 0.7197266
vn 0.1925049 0.03884888 0.9804688
vn 0.1925049 0.03884888 0.9804688
vn 0.1925049 0.03884888 0.9804688
vn 0.1912842 0.0383606 0.980957
vn 0.5732422 0.4846191 -0.6606445
vn 0.5732422 0.4846191 -0.6606445
vn 0.5732422 0.4846191 -0.6606445
vn 0.5854492 0.4746094 -0.6572266
vn 0.6542969 0.4592285 0.6010742
vn 0.6542969 0.4592285 0.6010742
vn 0.6542969 0.4592285 0.6010742
vn 0.65625 0.4621582 0.5961914
vn 0.8759766 0.4311523 0.2150879
vn 0.8759766 0.4311523 0.2150879
vn 0.8759766 0.4311523 0.2150879
vn 0.8769531 0.4289551 0.217041
vn 0.7416992 0.4331055 0.5117188
vn 0.7416992 0.4331055 0.5117188
vn 0.7416992 0.4331055 0.5117188
vn 0.7392578 0.4226074 0.5244141
vn 0.5693359 0.4487305 -0.6889648
vn 0.5693359 0.4487305 -0.6889648
vn 0.5693359 0.4487305 -0.6889648
vn 0.5620117 0.4538574 -0.6914063
vn -0.3852539 0.4211426 -0.8212891
vn -0.3852539 0.4211426 -0.8212891
vn -0.3852539 0.4211426 -0.8212891
vn -0.3857422 0.4213867 -0.8208008
vn 0.07659912 0.9970703 -0.01800537
vn 0.09960938 0.9946289 -0.01831055
vn 0.1047363 0.9946289 -0.01486206
vn 0.07659912 0.9970703 -0.01800537
vn 0.07659912 0.9970703 -0.01800537
vn 0.1062622 0.9941406 -0.0006928444
vn 0.1062622 0.9941406 -0.0006928444
vn 0.07495117 0.9970703 -0.0136261

vt 0.08331299 0
vt 0.25 0.7207031
vt 0.25 0
vt 0.25 0.7207031
vt 0.08331299 0
vt 0.08331299 0.7207031
vt 0.270752 0
vt 0.25 0.7207031
vt 0.270752 0.7207031
vt 0.25 0.7207031
vt 0.270752 0
vt 0.25 0
vt 0.3081055 1
vt 0.6298828 1
vt 0.5498047 1
vt 0.6298828 1
vt 0.3081055 1
vt 0.7089844 1
vt 0.75 0
vt 0.7084961 0.7207031
vt 0.75 0.7207031
vt 0.7084961 0.7207031
vt 0.75 0
vt 0.7084961 0
vt 0.6665039 0
vt 0.625 0.7207031
vt 0.6665039 0.7207031
vt 0.625 0.7207031
vt 0.6665039 0
vt 0.625 0
vt 0.9819336 1.762695
vt 0.7250977 1
vt 0.5292969 1
vt 0.7250977 1
vt 0.9819336 1.762695
vt 1.454102 1.486328
vt 0.2341309 0.9521484
vt 0.5292969 1
vt 0.282959 1
vt 0.5292969 1
vt 0.2341309 0.9521484
vt 0.489502 1.009766
vt 0.03985596 0.8569336
vt 0.1690674 1
vt 0.1290283 1
vt 0.1690674 1
vt 0.03985596 0.8569336
vt -0.004165649 0.9345703
vt 0.6152344 1.504883
vt 0.4018555 1
vt 0.3081055 1
vt 0.4018555 1
vt 0.6152344 1.504883
vt 0.6157227 1.433594
vt 0.75 0.7207031
vt 0.7089844 1
vt 0.7001953 1
vt 0.7089844 1
vt 0.75 0.7207031
vt 0.7084961 0.7207031
vt 0.1887207 0.8232422
vt -0.01275635 1
vt 0.1690674 1
vt -0.01275635 1
vt 0.1887207 0.8232422
vt 0.1418457 0.8330078
vt 0.3103027 0.8950195
vt 0.3088379 1
vt 0.4018555 1
vt 0.3088379 1
vt 0.3103027 0.8950195
vt 0.2214355 0.9052734
vt 0.189209 0.9379883
vt 0.1605225 1
vt 0.2553711 1
vt 0.1605225 1
vt 0.189209 0.9379883
vt 0.07696533 0.9790039
vt 0.2338867 1.320313
vt 0.282959 1
vt 0.2282715 1
vt 0.282959 1
vt 0.2338867 1.320313
vt 0.4331055 1.299805
vt 0.8334961 0.7207031
vt 0.7202148 1
vt 0.5800781 1
vt 0.7202148 1
vt 0.8334961 0.7207031
vt 0.7915039 0.7207031
vt 0.8359375 1.148438
vt 0.8569336 1
vt 0.7480469 1
vt 0.8569336 1
vt 0.8359375 1.148438
vt 0.9946289 1.094727
vt 0.8823242 1.151367
vt 0.8134766 1
vt 0.7431641 1
vt 0.8134766 1
vt 0.8823242 1.151367
vt 0.9770508 1.134766
vt 0.9882813 2.072266
vt 0.7480469 1
vt 0.7250977 1
vt 0.7480469 1
vt 0.9882813 2.072266
vt 1.302734 2.027344
vt 0.1854248 1.083984
vt 0.1290283 1
vt 0.1605225 1
vt 0.1290283 1
vt 0.1854248 1.083984
vt 0.1945801 1.058594
vt 0.7202148 1
vt 0.3081055 1
vt 0.4018555 1
vt 0.5800781 1
vt 0.3088379 1
vt 0.7431641 1
vt 0.7202148 1
vt 0.7089844 1
vt 0.3081055 1
vt 0.7089844 1
vt 0.7202148 1
vt 0.7001953 1
vt 0.1605225 1
vt 0.3088379 1
vt 0.2553711 1
vt 0.3088379 1
vt 0.1605225 1
vt 0.7431641 1
vt 0.5800781 1
vt 0.7431641 1
vt 0.8134766 1
vt 0.7480469 1
vt 0.1605225 1
vt 0.1290283 1
vt -0.01275635 1
vt 0.7250977 1
vt 0.7431641 1
vt 0.7480469 1
vt 0.8569336 1
vt 0.7480469 1
vt 0.7431641 1
vt 0.1605225 1
vt -0.01275635 1
vt 0.1290283 1
vt 0.1690674 1
vt 0.1290283 1
vt 0.7250977 1
vt 0.7480469 1
vt 0.5292969 1
vt -0.01275635 1
vt 0.2836914 1
vt -0.01275635 1
vt 0.5292969 1
vt 0.7250977 1
vt 0.5292969 1
vt 0.2282715 1
vt 0.282959 1
vt 0.2282715 1
vt 0.5292969 1
vt 0.2836914 1
vt 0.3081055 1
vt 0.6298828 1
vt 0.5498047 1
vt 0.6298828 1
vt 0.3081055 1
vt 0.7089844 1
vt 0.9819336 1.762695
vt 0.7250977 1
vt 0.5292969 1
vt 0.7250977 1
vt 0.9819336 1.762695
vt 1.454102 1.486328
vt 0.2341309 0.9521484
vt 0.5292969 1
vt 0.282959 1
vt 0.5292969 1
vt 0.2341309 0.9521484
vt 0.489502 1.009766
vt 0.03985596 0.8569336
vt 0.1690674 1
vt 0.1290283 1
vt 0.1690674 1
vt 0.03985596 0.8569336
vt -0.004165649 0.9345703
vt 0.6152344 1.504883
vt 0.4018555 1
vt 0.3081055 1
vt 0.4018555 1
vt 0.6152344 1.504883
vt 0.6157227 1.433594
vt 0.75 0.7207031
vt 0.7089844 1
vt 0.7001953 1
vt 0.7089844 1
vt 0.75 0.7207031
vt 0.7084961 0.7207031
vt 0.1887207 0.8232422
vt -0.01275635 1
vt 0.1690674 1
vt -0.01275635 1
vt 0.1887207 0.8232422
vt 0.1418457 0.8330078
vt 0.3103027 0.8950195
vt 0.3088379 1
vt 0.4018555 1
vt 0.3088379 1
vt 0.3103027 0.8950195
vt 0.2214355 0.9052734
vt 0.189209 0.9379883
vt 0.1605225 1
vt 0.2553711 1
vt 0.1605225 1
vt 0.189209 0.9379883
vt 0.07696533 0.9790039
vt 0.1689453 1.164063
vt 0.2836914 1
vt -0.01275635 1
vt 0.2836914 1
vt 0.1689453 1.164063
vt 0.2265625 1.162109
vt 0.2338867 1.320313
vt 0.282959 1
vt 0.2282715 1
vt 0.282959 1
vt 0.2338867 1.320313
vt 0.4331055 1.299805
vt 0.1967773 0.8188477
vt 0.2282715 1
vt 0.2836914 1
vt 0.2282715 1
vt 0.1967773 0.8188477
vt 0.1538086 0.8237305
vt 0.8334961 0.7207031
vt 0.7202148 1
vt 0.5800781 1
vt 0.7202148 1
vt 0.8334961 0.7207031
vt 0.7915039 0.7207031
vt 0.7915039 0.7207031
vt 0.7001953 1
vt 0.7202148 1
vt 0.7001953 1
vt 0.7915039 0.7207031
vt 0.75 0.7207031
vt 0.8359375 1.148438
vt 0.8569336 1
vt 0.7480469 1
vt 0.8569336 1
vt 0.8359375 1.148438
vt 0.9946289 1.094727
vt 0.8823242 1.151367
vt 0.8134766 1
vt 0.7431641 1
vt 0.8134766 1
vt 0.8823242 1.151367
vt 0.9770508 1.134766
vt 0.625 0.7207031
vt 0.3081055 1
vt 0.5498047 1
vt 0.3081055 1
vt 0.625 0.7207031
vt 0.5834961 0.7207031
vt 0.1854248 1.083984
vt 0.1290283 1
vt 0.1605225 1
vt 0.1290283 1
vt 0.1854248 1.083984
vt 0.1945801 1.058594
vt 0.1605225 1
vt 0.3088379 1
vt 0.2553711 1
vt 0.3088379 1
vt 0.1605225 1
vt 0.7431641 1
vt 0.5800781 1
vt 0.7431641 1
vt 0.8134766 1
vt 0.7480469 1
vt 0.1605225 1
vt 0.1290283 1
vt 0.7431641 1
vt 0.7480469 1
vt 0.8569336 1
vt 0.7480469 1
vt 0.7431641 1
vt 0.1605225 1
vt -0.01275635 1
vt 0.1290283 1
vt 0.1690674 1
vt 0.1290283 1
vt -0.01275635 1
vt 0.7250977 1
vt 0.1290283 1
vt 0.7250977 1
vt 0.7480469 1
vt 0.5292969 1
vt -0.01275635 1
vt 0.2836914 1
vt -0.01275635 1
vt 0.5292969 1
vt 0.7250977 1
vt 0.5292969 1
vt 0.2282715 1
vt 0.282959 1
vt 0.2282715 1
vt 0.5292969 1
vt 0.2836914 1
vt 0.7915039 0
vt 0.75 0.7207031
vt 0.7915039 0.7207031
vt 0.75 0
vt -0.0625 0
vt -0.08331299 0.7207031
vt -0.0625 0.7207031
vt -0.08331299 0
vt 0.4375 0
vt 0.416748 0.7207031
vt 0.4375 0.7207031
vt 0.416748 0
vt 0.625 0
vt 0.5834961 0.7207031
vt 0.625 0.7207031
vt 0.5834961 0
vt 0.416748 0
vt 0.333252 0.7207031
vt 0.416748 0.7207031
vt 0.333252 0
vt 0.7084961 0
vt 0.6665039 0.7207031
vt 0.7084961 0.7207031
vt 0.6665039 0
vt 0.5834961 0
vt 0.5 0.7207031
vt 0.5834961 0.7207031
vt 0.5 0
vt 0.479248 0
vt 0.458252 0.7207031
vt 0.479248 0.7207031
vt 0.458252 0
vt 0.333252 0
vt 0.291748 0.7207031
vt 0.333252 0.7207031
vt 0.291748 0
vt 0.28125 0
vt 0.270752 0.7207031
vt 0.28125 0.7207031
vt 0.270752 0
vt 0.291748 0
vt 0.28125 0.7207031
vt 0.291748 0.7207031
vt 0.28125 0
vt 0.5 0
vt 0.479248 0.7207031
vt 0.5 0.7207031
vt 0.479248 0
vt 0.9165039 0
vt 0.8334961 0.7207031
vt 0.9165039 0.7207031
vt 0.8334961 0
vt 0.8334961 0
vt 0.7915039 0.7207031
vt 0.8334961 0.7207031
vt 0.7915039 0
vt 0.04165649 0
vt 0 0.7207031
vt 0.04165649 0.7207031
vt 0 0
vt 0 0
vt -0.04165649 0.7207031
vt 0 0.7207031
vt -0.04165649 0
vt -0.04165649 0
vt -0.0625 0.7207031
vt -0.04165649 0.7207031
vt -0.0625 0
vt 0.08331299 0
vt 0.04165649 0.7207031
vt 0.08331299 0.7207031
vt 0.04165649 0
vt 0.458252 0
vt 0.4375 0.7207031
vt 0.458252 0.7207031
vt 0.4375 0
vt 0.9165039 0.7207031
vt 0.5800781 1
vt 0.8134766 1
vt 0.8334961 0.7207031
vt 0.6665039 0.7207031
vt 0.5498047 1
vt 0.6298828 1
vt 0.625 0.7207031
vt 0.7084961 0.7207031
vt 0.6298828 1
vt 0.7089844 1
vt 0.6665039 0.7207031
vt 0.1689453 1.164063
vt 0.2836914 1
vt -0.01275635 1
vt 0.2265625 1.162109
vt 0.1967773 0.8188477
vt 0.2282715 1
vt 0.2836914 1
vt 0.1538086 0.8237305
vt 0.2248535 0.7670898
vt 0.2553711 1
vt 0.3088379 1
vt 0.1106567 0.7758789
vt 0.7915039 0.7207031
vt 0.7001953 1
vt 0.7202148 1
vt 0.75 0.7207031
vt 0.8564453 0.8227539
vt 0.7431641 1
vt 0.8569336 1
vt 0.8164063 0.8295898
vt 0.625 0.7207031
vt 0.3081055 1
vt 0.5498047 1
vt 0.5834961 0.7207031
vt 0.7915039 0
vt 0.75 0.7207031
vt 0.7915039 0.7207031
vt 0.75 0
vt -0.0625 0
vt -0.08331299 0.7207031
vt -0.0625 0.7207031
vt -0.08331299 0
vt 0.08331299 0
vt 0.25 0.7207031
vt 0.25 0
vt 0.08331299 0.7207031
vt 0.04165649 0.7207031
vt 0.08331299 0.7207031
vt 0.04165649 0
vt 0.270752 0
vt 0.25 0.7207031
vt 0.270752 0.7207031
vt 0.25 0
vt 0.4375 0
vt 0.416748 0.7207031
vt 0.4375 0.7207031
vt 0.416748 0
vt 0.625 0
vt 0.5834961 0.7207031
vt 0.625 0.7207031
vt 0.5834961 0
vt 0.416748 0
vt 0.333252 0.7207031
vt 0.416748 0.7207031
vt 0.333252 0
vt 0.7084961 0
vt 0.6665039 0.7207031
vt 0.7084961 0.7207031
vt 0.6665039 0
vt 0.75 0
vt 0.7084961 0.7207031
vt 0.75 0.7207031
vt 0.7084961 0
vt 0.5834961 0
vt 0.5 0.7207031
vt 0.5834961 0.7207031
vt 0.5 0
vt 0.479248 0
vt 0.458252 0.7207031
vt 0.479248 0.7207031
vt 0.458252 0
vt 0.333252 0
vt 0.291748 0.7207031
vt 0.333252 0.7207031
vt 0.291748 0
vt 0.28125 0
vt 0.270752 0.7207031
vt 0.28125 0.7207031
vt 0.270752 0
vt 0.291748 0
vt 0.28125 0.7207031
vt 0.291748 0.7207031
vt 0.28125 0
vt 0.5 0
vt 0.479248 0.7207031
vt 0.5 0.7207031
vt 0.479248 0
vt 0.9165039 0
vt 0.8334961 0.7207031
vt 0.9165039 0.7207031
vt 0.8334961 0
vt 0.8334961 0
vt 0.7915039 0.7207031
vt 0.8334961 0.7207031
vt 0.7915039 0
vt 0.04165649 0
vt 0 0.7207031
vt 0.04165649 0.7207031
vt 0 0
vt 0 0
vt -0.04165649 0.7207031
vt 0 0.7207031
vt -0.04165649 0
vt -0.04165649 0
vt -0.0625 0.7207031
vt -0.04165649 0.7207031
vt -0.0625 0
vt 0.6665039 0
vt 0.625 0.7207031
vt 0.6665039 0.7207031
vt 0.625 0
vt 0.458252 0
vt 0.4375 0.7207031
vt 0.458252 0.7207031
vt 0.4375 0
vt 0.9165039 0.7207031
vt 0.5800781 1
vt 0.8134766 1
vt 0.8334961 0.7207031
vt 0.6665039 0.7207031
vt 0.5498047 1
vt 0.6298828 1
vt 0.625 0.7207031
vt 0.7084961 0.7207031
vt 0.6298828 1
vt 0.7089844 1
vt 0.6665039 0.7207031
vt 0.2248535 0.7670898
vt 0.2553711 1
vt 0.3088379 1
vt 0.1106567 0.7758789
vt 0.8564453 0.8227539
vt 0.7431641 1
vt 0.8569336 1
vt 0.8164063 0.8295898
vt 0.9882813 2.072266
vt 0.7480469 1
vt 0.7250977 1
vt 1.302734 2.027344
vt 0.3081055 1
vt 0.7001953 1
vt 0.7089844 1
vt 0.7202148 1
vt 0.4018555 1
vt 0.5800781 1
vt 0.3088379 1
vt 0.7431641 1

g Mountain_05_(9)_357_21
usemtl Mountain_05_(9)_357_21
usemap Mountain_05_(9)_357_21
f 1/1/1 3/3/3 2/2/2
f 4/4/4 6/6/6 5/5/5
f 7/7/7 9/9/9 8/8/8
f 10/10/10 12/12/12 11/11/11
f 13/13/13 15/15/15 14/14/14
f 16/16/16 18/18/18 17/17/17
f 19/19/19 21/21/21 20/20/20
f 22/22/22 24/24/24 23/23/23
f 25/25/25 27/27/27 26/26/26
f 28/28/28 30/30/30 29/29/29
f 31/31/31 33/33/33 32/32/32
f 34/34/34 36/36/36 35/35/35
f 37/37/37 39/39/39 38/38/38
f 40/40/40 42/42/42 41/41/41
f 43/43/43 45/45/45 44/44/44
f 46/46/46 48/48/48 47/47/47
f 49/49/49 51/51/51 50/50/50
f 52/52/52 54/54/54 53/53/53
f 55/55/55 57/57/57 56/56/56
f 58/58/58 60/60/60 59/59/59
f 61/61/61 63/63/63 62/62/62
f 64/64/64 66/66/66 65/65/65
f 67/67/67 69/69/69 68/68/68
f 70/70/70 72/72/72 71/71/71
f 73/73/73 75/75/75 74/74/74
f 76/76/76 78/78/78 77/77/77
f 79/79/79 81/81/81 80/80/80
f 82/82/82 84/84/84 83/83/83
f 85/85/85 87/87/87 86/86/86
f 88/88/88 90/90/90 89/89/89
f 91/91/91 93/93/93 92/92/92
f 94/94/94 96/96/96 95/95/95
f 97/97/97 99/99/99 98/98/98
f 100/100/100 102/102/102 101/101/101
f 103/103/103 105/105/105 104/104/104
f 106/106/106 108/108/108 107/107/107
f 109/109/109 111/111/111 110/110/110
f 112/112/112 114/114/114 113/113/113
f 115/115/115 117/117/117 116/116/116
f 118/118/118 119/119/119 117/117/117
f 120/120/120 119/119/119 118/118/118
f 117/117/117 121/121/121 118/118/118
f 121/121/121 123/123/123 122/122/122
f 124/124/124 126/126/126 125/125/125
f 127/127/127 129/129/129 128/128/128
f 130/130/130 132/132/132 131/131/131
f 133/133/133 135/135/135 134/134/134
f 136/136/136 138/138/138 137/137/137
f 138/138/138 140/140/140 139/139/139
f 141/141/141 143/143/143 142/142/142
f 144/144/144 146/146/146 145/145/145
f 147/147/147 149/149/149 148/148/148
f 150/150/150 152/152/152 151/151/151
f 153/153/153 155/155/155 154/154/154
f 156/156/156 158/158/158 157/157/157
f 159/159/159 161/161/161 160/160/160
f 162/162/162 164/164/164 163/163/163
f 165/165/165 167/167/167 166/166/166
f 168/168/168 170/170/170 169/169/169
f 171/171/171 173/173/173 172/172/172
f 174/174/174 176/176/176 175/175/175
f 177/177/177 179/179/179 178/178/178
f 180/180/180 182/182/182 181/181/181
f 183/183/183 185/185/185 184/184/184
f 186/186/186 188/188/188 187/187/187
f 189/189/189 191/191/191 190/190/190
f 192/192/192 194/194/194 193/193/193
f 195/195/195 197/197/197 196/196/196
f 198/198/198 200/200/200 199/199/199
f 201/201/201 203/203/203 202/202/202
f 204/204/204 206/206/206 205/205/205
f 207/207/207 209/209/209 208/208/208
f 210/210/210 212/212/212 211/211/211
f 213/213/213 215/215/215 214/214/214
f 216/216/216 218/218/218 217/217/217
f 219/219/219 221/221/221 220/220/220
f 222/222/222 224/224/224 223/223/223
f 225/225/225 227/227/227 226/226/226
f 228/228/228 230/230/230 229/229/229
f 231/231/231 233/233/233 232/232/232
f 234/234/234 236/236/236 235/235/235
f 237/237/237 239/239/239 238/238/238
f 240/240/240 242/242/242 241/241/241
f 243/243/243 245/245/245 244/244/244
f 246/246/246 248/248/248 247/247/247
f 249/249/249 251/251/251 250/250/250
f 252/252/252 254/254/254 253/253/253
f 255/255/255 257/257/257 256/256/256
f 258/258/258 260/260/260 259/259/259
f 261/261/261 263/263/263 262/262/262
f 264/264/264 266/266/266 265/265/265
f 267/267/267 269/269/269 268/268/268
f 270/270/270 272/272/272 271/271/271
f 273/273/273 275/275/275 274/274/274
f 276/276/276 278/278/278 277/277/277
f 279/279/279 281/281/281 280/280/280
f 282/282/282 284/284/284 283/283/283
f 285/285/285 287/287/287 286/286/286
f 288/288/288 290/290/290 289/289/289
f 291/291/291 293/293/293 292/292/292
f 294/294/294 296/296/296 295/295/295
f 297/297/297 299/299/299 298/298/298
f 300/300/300 302/302/302 301/301/301
f 303/303/303 305/305/305 304/304/304
f 306/306/306 308/308/308 307/307/307
f 309/309/309 311/311/311 310/310/310
f 312/312/312 314/314/314 313/313/313
f 313/313/313 315/315/315 312/312/312
f 316/316/316 318/318/318 317/317/317
f 317/317/317 319/319/319 316/316/316
f 320/320/320 322/322/322 321/321/321
f 321/321/321 323/323/323 320/320/320
f 324/324/324 326/326/326 325/325/325
f 325/325/325 327/327/327 324/324/324
f 328/328/328 330/330/330 329/329/329
f 329/329/329 331/331/331 328/328/328
f 332/332/332 334/334/334 333/333/333
f 333/333/333 335/335/335 332/332/332
f 336/336/336 338/338/338 337/337/337
f 337/337/337 339/339/339 336/336/336
f 340/340/340 342/342/342 341/341/341
f 341/341/341 343/343/343 340/340/340
f 344/344/344 346/346/346 345/345/345
f 345/345/345 347/347/347 344/344/344
f 348/348/348 350/350/350 349/349/349
f 349/349/349 351/351/351 348/348/348
f 352/352/352 354/354/354 353/353/353
f 353/353/353 355/355/355 352/352/352
f 356/356/356 358/358/358 357/357/357
f 357/357/357 359/359/359 356/356/356
f 360/360/360 362/362/362 361/361/361
f 361/361/361 363/363/363 360/360/360
f 364/364/364 366/366/366 365/365/365
f 365/365/365 367/367/367 364/364/364
f 368/368/368 370/370/370 369/369/369
f 369/369/369 371/371/371 368/368/368
f 372/372/372 374/374/374 373/373/373
f 373/373/373 375/375/375 372/372/372
f 376/376/376 378/378/378 377/377/377
f 377/377/377 379/379/379 376/376/376
f 380/380/380 382/382/382 381/381/381
f 381/381/381 383/383/383 380/380/380
f 384/384/384 386/386/386 385/385/385
f 385/385/385 387/387/387 384/384/384
f 388/388/388 390/390/390 389/389/389
f 389/389/389 391/391/391 388/388/388
f 392/392/392 394/394/394 393/393/393
f 393/393/393 395/395/395 392/392/392
f 396/396/396 398/398/398 397/397/397
f 397/397/397 399/399/399 396/396/396
f 400/400/400 402/402/402 401/401/401
f 401/401/401 403/403/403 400/400/400
f 404/404/404 406/406/406 405/405/405
f 405/405/405 407/407/407 404/404/404
f 408/408/408 410/410/410 409/409/409
f 409/409/409 411/411/411 408/408/408
f 412/412/412 414/414/414 413/413/413
f 413/413/413 415/415/415 412/412/412
f 416/416/416 418/418/418 417/417/417
f 417/417/417 419/419/419 416/416/416
f 420/420/420 422/422/422 421/421/421
f 421/421/421 423/423/423 420/420/420
f 424/424/424 426/426/426 425/425/425
f 425/425/425 427/427/427 424/424/424
f 428/428/428 430/430/430 429/429/429
f 429/429/429 431/431/431 428/428/428
f 432/432/432 434/434/434 433/433/433
f 433/433/433 435/435/435 432/432/432
f 432/432/432 437/437/437 436/436/436
f 436/436/436 438/438/438 432/432/432
f 439/439/439 441/441/441 440/440/440
f 440/440/440 442/442/442 439/439/439
f 443/443/443 445/445/445 444/444/444
f 444/444/444 446/446/446 443/443/443
f 447/447/447 449/449/449 448/448/448
f 448/448/448 450/450/450 447/447/447
f 451/451/451 453/453/453 452/452/452
f 452/452/452 454/454/454 451/451/451
f 455/455/455 457/457/457 456/456/456
f 456/456/456 458/458/458 455/455/455
f 459/459/459 461/461/461 460/460/460
f 460/460/460 462/462/462 459/459/459
f 463/463/463 465/465/465 464/464/464
f 464/464/464 466/466/466 463/463/463
f 467/467/467 469/469/469 468/468/468
f 468/468/468 470/470/470 467/467/467
f 471/471/471 473/473/473 472/472/472
f 472/472/472 474/474/474 471/471/471
f 475/475/475 477/477/477 476/476/476
f 476/476/476 478/478/478 475/475/475
f 479/479/479 481/481/481 480/480/480
f 480/480/480 482/482/482 479/479/479
f 483/483/483 485/485/485 484/484/484
f 484/484/484 486/486/486 483/483/483
f 487/487/487 489/489/489 488/488/488
f 488/488/488 490/490/490 487/487/487
f 491/491/491 493/493/493 492/492/492
f 492/492/492 494/494/494 491/491/491
f 495/495/495 497/497/497 496/496/496
f 496/496/496 498/498/498 495/495/495
f 499/499/499 501/501/501 500/500/500
f 500/500/500 502/502/502 499/499/499
f 503/503/503 505/505/505 504/504/504
f 504/504/504 506/506/506 503/503/503
f 507/507/507 509/509/509 508/508/508
f 508/508/508 510/510/510 507/507/507
f 511/511/511 513/513/513 512/512/512
f 512/512/512 514/514/514 511/511/511
f 515/515/515 517/517/517 516/516/516
f 516/516/516 518/518/518 515/515/515
f 519/519/519 521/521/521 520/520/520
f 520/520/520 522/522/522 519/519/519
f 523/523/523 525/525/525 524/524/524
f 524/524/524 526/526/526 523/523/523
f 527/527/527 529/529/529 528/528/528
f 528/528/528 530/530/530 527/527/527
f 531/531/531 533/533/533 532/532/532
f 532/532/532 534/534/534 531/531/531
f 535/535/535 537/537/537 536/536/536
f 536/536/536 538/538/538 535/535/535
f 539/539/539 541/541/541 540/540/540
f 540/540/540 542/542/542 539/539/539
f 542/542/542 543/543/543 539/539/539
f 543/543/543 542/542/542 544/544/544
f 544/544/544 545/545/545 543/543/543
f 546/546/546 545/545/545 544/544/544
