#Mountain_05_(6)_364_32.obj

v -4.194438 3.737948 4.860412E-16
v -7.160107 1.713941 1.266889
v -7.66571 1.715762 2.230987E-16
v -7.160107 1.713941 1.266889
v -4.194438 3.737948 4.860412E-16
v -3.933566 3.677026 1.31277
v -7.254385 0.09803978 1.2748E-17
v -7.160107 1.713941 1.266889
v -6.854489 0.1266445 1.188133
v -7.160107 1.713941 1.266889
v -7.254385 0.09803978 1.2748E-17
v -7.66571 1.715762 2.230987E-16
v 3.665562 -2.792711 2.025192
v 6.156197 -2.111069 1.903582
v 5.057957 -2.911882 2.005746
v 6.156197 -2.111069 1.903582
v 3.665562 -2.792711 2.025192
v 6.808694 0.05541288 1.847594
v 6.027658 2.450162 3.185918E-16
v 7.665709 0.1829361 1.190308
v 6.030297 2.431466 1.334739
v 7.665709 0.1829361 1.190308
v 6.027658 2.450162 3.185918E-16
v 7.664267 0.154541 2.009479E-17
v 6.820559 -2.677265 -3.481218E-16
v 5.309933 -3.712569 1.392305
v 6.840151 -2.588093 1.264771
v 5.309933 -3.712569 1.392305
v 6.820559 -2.677265 -3.481218E-16
v 5.29036 -3.835664 -4.987471E-16
v -3.933566 3.677026 1.31277
v -1.709409 3.24951 2.029637
v -3.601105 2.925804 2.003493
v -1.709409 3.24951 2.029637
v -3.933566 3.677026 1.31277
v -2.041349 3.910076 1.316083
v -7.160107 1.713941 1.266889
v -3.601105 2.925804 2.003493
v -6.175473 1.341344 1.885147
v -3.601105 2.925804 2.003493
v -7.160107 1.713941 1.266889
v -3.933566 3.677026 1.31277
v -4.095046 -3.787009 1.314834
v -5.235808 -1.69664 1.877561
v -3.676632 -3.064915 1.995974
v -5.235808 -1.69664 1.877561
v -4.095046 -3.787009 1.314834
v -6.215343 -1.962351 1.209017
v 3.379787 -3.55097 1.370015
v 2.698068 -1.994803 2.001729
v 3.665562 -2.792711 2.025192
v 2.698068 -1.994803 2.001729
v 3.379787 -3.55097 1.370015
v 2.563112 -2.877888 1.327934
v 6.030297 2.431466 1.334739
v 6.808694 0.05541288 1.847594
v 5.62132 1.662609 1.970607
v 6.808694 0.05541288 1.847594
v 6.030297 2.431466 1.334739
v 7.665709 0.1829361 1.190308
v -6.215343 -1.962351 1.209017
v -4.903863 -0.6808453 1.881354
v -5.235808 -1.69664 1.877561
v -4.903863 -0.6808453 1.881354
v -6.215343 -1.962351 1.209017
v -5.818846 -0.755434 1.199842
v 2.563112 -2.877888 1.327934
v 0.9772537 -2.664854 2.044154
v 2.698068 -1.994803 2.001729
v 0.9772537 -2.664854 2.044154
v 2.563112 -2.877888 1.327934
v 1.519779 -3.286088 1.342203
v 1.200387 -4.013341 1.371662
v -1.721834 -3.588945 2.053877
v 0.733786 -3.315432 2.070017
v -1.721834 -3.588945 2.053877
v 1.200387 -4.013341 1.371662
v -1.810348 -4.398074 1.340715
v -6.854489 0.1266445 1.188133
v -6.175473 1.341344 1.885147
v -6.145763 0.6678351 1.84846
v -6.175473 1.341344 1.885147
v -6.854489 0.1266445 1.188133
v -7.160107 1.713941 1.266889
v 3.478029 2.897259 1.349744
v 4.602207 1.618831 1.984561
v 3.020837 2.256284 2.027464
v 4.602207 1.618831 1.984561
v 3.478029 2.897259 1.349744
v 4.761544 2.375829 1.331748
v -1.553586 4.35733 1.335883
v 0.3752393 3.63005 2.069616
v -1.255429 3.675367 2.051443
v 0.3752393 3.63005 2.069616
v -1.553586 4.35733 1.335883
v 0.5697172 4.425911 1.371162
v 1.391991 3.880752 1.362431
v 2.329679 3.012331 2.061684
v 1.141684 3.124538 2.055678
v 2.329679 3.012331 2.061684
v 1.391991 3.880752 1.362431
v 2.700606 3.75619 1.380967
v -2.041349 3.910076 1.316083
v -1.255429 3.675367 2.051443
v -1.709409 3.24951 2.029637
v -1.255429 3.675367 2.051443
v -2.041349 3.910076 1.316083
v -1.553586 4.35733 1.335883
v -1.810348 -4.398074 1.340715
v -3.676632 -3.064915 1.995974
v -1.721834 -3.588945 2.053877
v -3.676632 -3.064915 1.995974
v -1.810348 -4.398074 1.340715
v -4.095046 -3.787009 1.314834
v 4.602207 1.618831 1.984561
v 3.665562 -2.792711 2.025192
v 2.698068 -1.994803 2.001729
v 3.020837 2.256284 2.027464
v 0.9772537 -2.664854 2.044154
v 1.141684 3.124538 2.055678
v 4.602207 1.618831 1.984561
v 6.808694 0.05541288 1.847594
v 3.665562 -2.792711 2.025192
v 6.808694 0.05541288 1.847594
v 4.602207 1.618831 1.984561
v 5.62132 1.662609 1.970607
v -1.721834 -3.588945 2.053877
v 0.9772537 -2.664854 2.044154
v 0.733786 -3.315432 2.070017
v 0.9772537 -2.664854 2.044154
v -1.721834 -3.588945 2.053877
v 1.141684 3.124538 2.055678
v 3.020837 2.256284 2.027464
v 1.141684 3.124538 2.055678
v 2.329679 3.012331 2.061684
v -1.255429 3.675367 2.051443
v -1.721834 -3.588945 2.053877
v -3.676632 -3.064915 1.995974
v -4.903863 -0.6808453 1.881354
v -1.709409 3.24951 2.029637
v 1.141684 3.124538 2.055678
v -1.255429 3.675367 2.051443
v 0.3752393 3.63005 2.069616
v -1.255429 3.675367 2.051443
v 1.141684 3.124538 2.055678
v -1.721834 -3.588945 2.053877
v -4.903863 -0.6808453 1.881354
v -3.676632 -3.064915 1.995974
v -5.235808 -1.69664 1.877561
v -3.676632 -3.064915 1.995974
v -1.709409 3.24951 2.029637
v -1.255429 3.675367 2.051443
v -3.601105 2.925804 2.003493
v -4.903863 -0.6808453 1.881354
v -5.550164 0.5868813 1.871904
v -4.903863 -0.6808453 1.881354
v -3.601105 2.925804 2.003493
v -1.709409 3.24951 2.029637
v -3.601105 2.925804 2.003493
v -6.145763 0.6678351 1.84846
v -6.175473 1.341344 1.885147
v -6.145763 0.6678351 1.84846
v -3.601105 2.925804 2.003493
v -5.550164 0.5868813 1.871904
v 2.988739 -0.9541728 3.558371
v 4.927304 -1.195458 3.47365
v 4.273019 -1.765047 3.533747
v 4.927304 -1.195458 3.47365
v 2.988739 -0.9541728 3.558371
v 5.275127 0.2154014 3.436962
v -2.726502 2.226572 3.111868
v -1.627335 2.100532 3.639845
v -2.490648 1.783753 3.623821
v -1.627335 2.100532 3.639845
v -2.726502 2.226572 3.111868
v -1.736829 2.531919 3.136091
v -4.258598 1.67002 3.040776
v -2.490648 1.783753 3.623821
v -3.781434 1.271404 3.570411
v -2.490648 1.783753 3.623821
v -4.258598 1.67002 3.040776
v -2.726502 2.226572 3.111868
v -2.762824 -2.637129 3.153882
v -3.249269 -1.241544 3.622844
v -2.524918 -2.152816 3.694746
v -3.249269 -1.241544 3.622844
v -2.762824 -2.637129 3.153882
v -3.835067 -1.467507 3.049566
v 2.862061 -1.444477 3.07532
v 1.875462 -0.5585176 3.591151
v 2.988739 -0.9541728 3.558371
v 1.875462 -0.5585176 3.591151
v 2.862061 -1.444477 3.07532
v 1.842498 -1.120211 3.100537
v 4.318974 1.081608 3.011747
v 5.275127 0.2154014 3.436962
v 4.08533 0.5904669 3.488198
v 5.275127 0.2154014 3.436962
v 4.318974 1.081608 3.011747
v 5.852761 0.3365157 2.925531
v -3.835067 -1.467507 3.049566
v -2.919595 -0.4388393 3.613437
v -3.249269 -1.241544 3.622844
v -2.919595 -0.4388393 3.613437
v -3.835067 -1.467507 3.049566
v -3.472836 -0.5373308 3.051367
v 1.842498 -1.120211 3.100537
v 0.8233237 -1.077236 3.643887
v 1.875462 -0.5585176 3.591151
v 0.8233237 -1.077236 3.643887
v 1.842498 -1.120211 3.100537
v 1.200465 -1.435825 3.127697
v 0.2291428 -2.617826 3.188529
v -0.9632673 -2.359018 3.726503
v -0.087 -2.196545 3.711948
v -0.9632673 -2.359018 3.726503
v 0.2291428 -2.617826 3.188529
v -0.9861152 -2.878274 3.200276
v -3.472836 -0.5373308 3.051367
v -3.322778 0.5950934 3.583382
v -2.919595 -0.4388393 3.613437
v -3.322778 0.5950934 3.583382
v -3.472836 -0.5373308 3.051367
v -3.648597 0.1871683 3.038026
v -4.378532 0.6425577 2.999553
v -3.781434 1.271404 3.570411
v -3.885536 0.8564672 3.556607
v -3.781434 1.271404 3.570411
v -4.378532 0.6425577 2.999553
v -4.258598 1.67002 3.040776
v -3.648597 0.1871683 3.038026
v -3.885536 0.8564672 3.556607
v -3.322778 0.5950934 3.583382
v -3.885536 0.8564672 3.556607
v -3.648597 0.1871683 3.038026
v -4.378532 0.6425577 2.999553
v 2.248856 2.168181 3.102163
v 2.789412 1.051329 3.53941
v 1.990719 1.749045 3.575721
v 2.789412 1.051329 3.53941
v 2.248856 2.168181 3.102163
v 2.852975 1.52686 3.06729
v 2.852975 1.52686 3.06729
v 4.08533 0.5904669 3.488198
v 2.789412 1.051329 3.53941
v 4.08533 0.5904669 3.488198
v 2.852975 1.52686 3.06729
v 4.318974 1.081608 3.011747
v -0.9990004 2.846007 3.15303
v -0.01927238 2.452521 3.640304
v -0.9187269 2.408832 3.648573
v -0.01927238 2.452521 3.640304
v -0.9990004 2.846007 3.15303
v 0.05885301 2.944873 3.156976
v 0.6070439 2.64902 3.140079
v 1.247644 2.167135 3.606209
v 0.4927633 2.174578 3.621329
v 1.247644 2.167135 3.606209
v 0.6070439 2.64902 3.140079
v 1.438891 2.64103 3.133259
v 4.504388 -2.265426 3.044841
v 2.988739 -0.9541728 3.558371
v 4.273019 -1.765047 3.533747
v 2.988739 -0.9541728 3.558371
v 4.504388 -2.265426 3.044841
v 2.862061 -1.444477 3.07532
v -0.9861152 -2.878274 3.200276
v -2.524918 -2.152816 3.694746
v -0.9632673 -2.359018 3.726503
v -2.524918 -2.152816 3.694746
v -0.9861152 -2.878274 3.200276
v -2.762824 -2.637129 3.153882
v -0.9632673 -2.359018 3.726503
v 0.8233237 -1.077236 3.643887
v -0.087 -2.196545 3.711948
v 0.8233237 -1.077236 3.643887
v -0.9632673 -2.359018 3.726503
v 0.4927633 2.174578 3.621329
v 1.990719 1.749045 3.575721
v 0.4927633 2.174578 3.621329
v 1.247644 2.167135 3.606209
v -0.9187269 2.408832 3.648573
v -0.9632673 -2.359018 3.726503
v -2.524918 -2.152816 3.694746
v 0.4927633 2.174578 3.621329
v -0.9187269 2.408832 3.648573
v -0.01927238 2.452521 3.640304
v -0.9187269 2.408832 3.648573
v 0.4927633 2.174578 3.621329
v -0.9632673 -2.359018 3.726503
v -2.919595 -0.4388393 3.613437
v -2.524918 -2.152816 3.694746
v -3.249269 -1.241544 3.622844
v -2.524918 -2.152816 3.694746
v -2.919595 -0.4388393 3.613437
v -1.627335 2.100532 3.639845
v -2.524918 -2.152816 3.694746
v -1.627335 2.100532 3.639845
v -0.9187269 2.408832 3.648573
v -2.490648 1.783753 3.623821
v -2.919595 -0.4388393 3.613437
v -3.322778 0.5950934 3.583382
v -2.919595 -0.4388393 3.613437
v -2.490648 1.783753 3.623821
v -1.627335 2.100532 3.639845
v -2.490648 1.783753 3.623821
v -3.885536 0.8564672 3.556607
v -3.781434 1.271404 3.570411
v -3.885536 0.8564672 3.556607
v -2.490648 1.783753 3.623821
v -3.322778 0.5950934 3.583382
v 4.759294 2.393446 3.112172E-16
v 6.030297 2.431466 1.334739
v 4.761544 2.375829 1.331748
v 6.027658 2.450162 3.185918E-16
v 1.356404 3.947883 5.133389E-16
v 2.700606 3.75619 1.380967
v 1.391991 3.880752 1.362431
v 2.681237 3.818189 4.964749E-16
v -1.948852 -4.514099 -5.869632E-16
v -4.095046 -3.787009 1.314834
v -1.810348 -4.398074 1.340715
v -4.341543 -3.890433 -5.058686E-16
v 5.29036 -3.835664 -4.987471E-16
v 3.379787 -3.55097 1.370015
v 5.309933 -3.712569 1.392305
v 3.363269 -3.663091 -4.763076E-16
v -4.341543 -3.890433 -5.058686E-16
v -6.215343 -1.962351 1.209017
v -4.095046 -3.787009 1.314834
v -6.545239 -2.030144 -2.639773E-16
v 7.664267 0.154541 2.009479E-17
v 6.840151 -2.588093 1.264771
v 7.665709 0.1829361 1.190308
v 6.820559 -2.677265 -3.481218E-16
v 3.363269 -3.663091 -4.763076E-16
v 2.563112 -2.877888 1.327934
v 3.379787 -3.55097 1.370015
v 2.547073 -2.969808 -3.861608E-16
v 1.492747 -3.384923 -4.401378E-16
v 1.200387 -4.013341 1.371662
v 1.519779 -3.286088 1.342203
v 1.162396 -4.129622 -5.369701E-16
v -6.545239 -2.030144 -2.639773E-16
v -5.818846 -0.755434 1.199842
v -6.215343 -1.962351 1.209017
v -6.111476 -0.7985722 -1.038375E-16
v -6.504947 -0.04194041 -5.453464E-18
v -6.854489 0.1266445 1.188133
v -6.170845 -0.0119677 1.198651
v -7.254385 0.09803978 1.2748E-17
v -6.111476 -0.7985722 -1.038375E-16
v -6.170845 -0.0119677 1.198651
v -5.818846 -0.755434 1.199842
v -6.504947 -0.04194041 -5.453464E-18
v 2.547073 -2.969808 -3.861608E-16
v 1.519779 -3.286088 1.342203
v 2.563112 -2.877888 1.327934
v 1.492747 -3.384923 -4.401378E-16
v 2.681237 3.818189 4.964749E-16
v 3.478029 2.897259 1.349744
v 2.700606 3.75619 1.380967
v 3.469427 2.930437 3.810415E-16
v 3.469427 2.930437 3.810415E-16
v 4.761544 2.375829 1.331748
v 3.478029 2.897259 1.349744
v 4.759294 2.393446 3.112172E-16
v -2.185761 3.979221 5.174136E-16
v -1.553586 4.35733 1.335883
v -2.041349 3.910076 1.316083
v -1.678719 4.442869 5.777012E-16
v -1.678719 4.442869 5.777012E-16
v 0.5697172 4.425911 1.371162
v -1.553586 4.35733 1.335883
v 0.5145224 4.514101 5.869636E-16
v 0.5145224 4.514101 5.869636E-16
v 1.391991 3.880752 1.362431
v 0.5697172 4.425911 1.371162
v 1.356404 3.947883 5.133389E-16
v -4.194438 3.737948 4.860412E-16
v -2.041349 3.910076 1.316083
v -3.933566 3.677026 1.31277
v -2.185761 3.979221 5.174136E-16
v 1.162396 -4.129622 -5.369701E-16
v -1.810348 -4.398074 1.340715
v 1.200387 -4.013341 1.371662
v -1.948852 -4.514099 -5.869632E-16
v 2.700606 3.75619 1.380967
v 3.020837 2.256284 2.027464
v 2.329679 3.012331 2.061684
v 3.478029 2.897259 1.349744
v 6.840151 -2.588093 1.264771
v 5.057957 -2.911882 2.005746
v 6.156197 -2.111069 1.903582
v 5.309933 -3.712569 1.392305
v 7.665709 0.1829361 1.190308
v 6.156197 -2.111069 1.903582
v 6.808694 0.05541288 1.847594
v 6.840151 -2.588093 1.264771
v -5.818846 -0.755434 1.199842
v -5.550164 0.5868813 1.871904
v -4.903863 -0.6808453 1.881354
v -6.170845 -0.0119677 1.198651
v -6.170845 -0.0119677 1.198651
v -6.145763 0.6678351 1.84846
v -5.550164 0.5868813 1.871904
v -6.854489 0.1266445 1.188133
v 1.519779 -3.286088 1.342203
v 0.733786 -3.315432 2.070017
v 0.9772537 -2.664854 2.044154
v 1.200387 -4.013341 1.371662
v 4.761544 2.375829 1.331748
v 5.62132 1.662609 1.970607
v 4.602207 1.618831 1.984561
v 6.030297 2.431466 1.334739
v 0.5697172 4.425911 1.371162
v 1.141684 3.124538 2.055678
v 0.3752393 3.63005 2.069616
v 1.391991 3.880752 1.362431
v 5.309933 -3.712569 1.392305
v 3.665562 -2.792711 2.025192
v 5.057957 -2.911882 2.005746
v 3.379787 -3.55097 1.370015
v 2.88644 1.562051 1.829556
v 4.318974 1.081608 3.011747
v 2.852975 1.52686 3.06729
v 4.387316 1.101503 1.797947
v 0.5794463 2.731194 1.858765
v 1.438891 2.64103 3.133259
v 0.6070439 2.64902 3.140079
v 1.437531 2.723163 1.866857
v -2.895444 2.289204 1.812996
v -4.258598 1.67002 3.040776
v -4.52505 1.710683 1.777505
v -2.726502 2.226572 3.111868
v -1.736829 2.531919 3.136091
v -2.726502 2.226572 3.111868
v -1.855699 2.608159 1.830727
v -4.656626 0.6456757 1.743983
v -4.258598 1.67002 3.040776
v -4.378532 0.6425577 2.999553
v -4.52505 1.710683 1.777505
v -1.076324 -2.992934 1.864342
v -2.762824 -2.637129 3.153882
v -0.9861152 -2.878274 3.200276
v -2.940943 -2.742911 1.826358
v 4.582381 -2.352341 1.808486
v 2.862061 -1.444477 3.07532
v 4.504388 -2.265426 3.044841
v 2.893497 -1.508824 1.811551
v -2.940943 -2.742911 1.826358
v -3.835067 -1.467507 3.049566
v -2.762824 -2.637129 3.153882
v -4.080203 -1.533347 1.761586
v 5.955955 0.3328188 1.731586
v 5.425343 -1.466442 2.952783
v 5.852761 0.3365157 2.925531
v 5.520916 -1.526935 1.74064
v 4.387316 1.101503 1.797947
v 5.852761 0.3365157 2.925531
v 4.318974 1.081608 3.011747
v 5.955955 0.3328188 1.731586
v 2.893497 -1.508824 1.811551
v 1.842498 -1.120211 3.100537
v 2.862061 -1.444477 3.07532
v 1.845886 -1.175866 1.820385
v 1.185655 -1.502021 1.832828
v 0.2291428 -2.617826 3.188529
v 1.200465 -1.435825 3.127697
v 0.1852699 -2.722825 1.867193
v -4.080203 -1.533347 1.761586
v -3.472836 -0.5373308 3.051367
v -3.835067 -1.467507 3.049566
v -3.692058 -0.5744605 1.763973
v -3.877167 0.1737556 1.759633
v -4.378532 0.6425577 2.999553
v -3.648597 0.1871683 3.038026
v -4.656626 0.6456757 1.743983
v -3.692058 -0.5744605 1.763973
v -3.648597 0.1871683 3.038026
v -3.472836 -0.5373308 3.051367
v -3.877167 0.1737556 1.759633
v 1.845886 -1.175866 1.820385
v 1.200465 -1.435825 3.127697
v 1.842498 -1.120211 3.100537
v 1.185655 -1.502021 1.832828
v 1.437531 2.723163 1.866857
v 2.248856 2.168181 3.102163
v 1.438891 2.64103 3.133259
v 2.26891 2.229317 1.853532
v 2.26891 2.229317 1.853532
v 2.852975 1.52686 3.06729
v 2.248856 2.168181 3.102163
v 2.88644 1.562051 1.829556
v -1.855699 2.608159 1.830727
v -0.9990004 2.846007 3.15303
v -1.736829 2.531919 3.136091
v -1.08527 2.937354 1.847496
v -1.08527 2.937354 1.847496
v 0.05885301 2.944873 3.156976
v -0.9990004 2.846007 3.15303
v 0.01328507 3.041355 1.863065
v 0.01328507 3.041355 1.863065
v 0.6070439 2.64902 3.140079
v 0.05885301 2.944873 3.156976
v 0.5794463 2.731194 1.858765
v 5.520916 -1.526935 1.74064
v 4.504388 -2.265426 3.044841
v 5.425343 -1.466442 2.952783
v 4.582381 -2.352341 1.808486
v 0.1852699 -2.722825 1.867193
v -0.9861152 -2.878274 3.200276
v 0.2291428 -2.617826 3.188529
v -1.076324 -2.992934 1.864342
v 1.438891 2.64103 3.133259
v 1.990719 1.749045 3.575721
v 1.247644 2.167135 3.606209
v 2.248856 2.168181 3.102163
v 5.425343 -1.466442 2.952783
v 4.273019 -1.765047 3.533747
v 4.927304 -1.195458 3.47365
v 4.504388 -2.265426 3.044841
v 5.852761 0.3365157 2.925531
v 4.927304 -1.195458 3.47365
v 5.275127 0.2154014 3.436962
v 5.425343 -1.466442 2.952783
v 1.200465 -1.435825 3.127697
v -0.087 -2.196545 3.711948
v 0.8233237 -1.077236 3.643887
v 0.2291428 -2.617826 3.188529
v 0.05885301 2.944873 3.156976
v 0.4927633 2.174578 3.621329
v -0.01927238 2.452521 3.640304
v 0.6070439 2.64902 3.140079
v -1.736829 2.531919 3.136091
v -0.9187269 2.408832 3.648573
v -1.627335 2.100532 3.639845
v -0.9990004 2.846007 3.15303
v 2.988739 -0.9541728 3.558371
v 4.08533 0.5904669 3.488198
v 5.275127 0.2154014 3.436962
v 2.789412 1.051329 3.53941
v 1.875462 -0.5585176 3.591151
v 1.990719 1.749045 3.575721
v 0.8233237 -1.077236 3.643887
v 0.4927633 2.174578 3.621329

vn 0.4384766 0.1416016 0.8876953
vn 0.4384766 0.1416016 0.8876953
vn 0.4384766 0.1416016 0.8876953
vn 0.4592285 0.1008301 0.8828125
vn 0.4592285 0.1008301 0.8828125
vn 0.4592285 0.1008301 0.8828125
vn 0.9638672 0.2303467 -0.1337891
vn 0.9638672 0.2303467 -0.1337891
vn 0.9638672 0.2303467 -0.1337891
vn 0.9487305 0.263916 -0.1730957
vn 0.9487305 0.263916 -0.1730957
vn 0.9487305 0.263916 -0.1730957
vn -0.04037476 0.9902344 0.1333008
vn -0.04037476 0.9902344 0.1333008
vn -0.04037476 0.9902344 0.1333008
vn -0.06518555 0.9975586 0.01267242
vn -0.06518555 0.9975586 0.01267242
vn -0.06518555 0.9975586 0.01267242
vn -0.847168 0.004695892 0.53125
vn -0.847168 0.004695892 0.53125
vn -0.847168 0.004695892 0.53125
vn -0.8520508 -0.01049805 0.5234375
vn -0.8520508 -0.01049805 0.5234375
vn -0.8520508 -0.01049805 0.5234375
vn -0.5380859 0.03356934 -0.8422852
vn -0.5380859 0.03356934 -0.8422852
vn -0.5380859 0.03356934 -0.8422852
vn -0.546875 0.04385376 -0.8359375
vn -0.546875 0.04385376 -0.8359375
vn -0.546875 0.04385376 -0.8359375
vn 0.09008789 0.6337891 0.7680664
vn 0.09008789 0.6337891 0.7680664
vn 0.09008789 0.6337891 0.7680664
vn 0.04580688 0.5683594 0.8212891
vn 0.04580688 0.5683594 0.8212891
vn 0.04580688 0.5683594 0.8212891
vn 0.3637695 0.7045898 0.609375
vn 0.3637695 0.7045898 0.609375
vn 0.3637695 0.7045898 0.609375
vn 0.3632813 0.6401367 0.6772461
vn 0.3632813 0.6401367 0.6772461
vn 0.3632813 0.6401367 0.6772461
vn 0.5791016 0.6420898 -0.5024414
vn 0.5791016 0.6420898 -0.5024414
vn 0.5791016 0.6420898 -0.5024414
vn 0.5424805 0.6762695 -0.4980469
vn 0.5424805 0.6762695 -0.4980469
vn 0.5424805 0.6762695 -0.4980469
vn 0.5429688 0.6352539 -0.5493164
vn 0.5429688 0.6352539 -0.5493164
vn 0.5429688 0.6352539 -0.5493164
vn 0.5654297 0.6171875 -0.5473633
vn 0.5654297 0.6171875 -0.5473633
vn 0.5654297 0.6171875 -0.5473633
vn -0.6733398 0.644043 0.3630371
vn -0.6733398 0.644043 0.3630371
vn -0.6733398 0.644043 0.3630371
vn -0.668457 0.6489258 0.3632813
vn -0.668457 0.6489258 0.3632813
vn -0.668457 0.6489258 0.3632813
vn 0.6899414 0.6694336 0.2753906
vn 0.6899414 0.6694336 0.2753906
vn 0.6899414 0.6694336 0.2753906
vn 0.6943359 0.6586914 0.2895508
vn 0.6943359 0.6586914 0.2895508
vn 0.6943359 0.6586914 0.2895508
vn -0.2519531 0.625 -0.7387695
vn -0.2519531 0.625 -0.7387695
vn -0.2519531 0.625 -0.7387695
vn -0.2460938 0.6181641 -0.746582
vn -0.2460938 0.6181641 -0.746582
vn -0.2460938 0.6181641 -0.746582
vn -0.02830505 0.6015625 -0.7983398
vn -0.02830505 0.6015625 -0.7983398
vn -0.02830505 0.6015625 -0.7983398
vn -0.03707886 0.6186523 -0.784668
vn -0.03707886 0.6186523 -0.784668
vn -0.03707886 0.6186523 -0.784668
vn 0.7739258 0.6328125 -0.02973938
vn 0.7739258 0.6328125 -0.02973938
vn 0.7739258 0.6328125 -0.02973938
vn 0.7011719 0.7001953 -0.1342773
vn 0.7011719 0.7001953 -0.1342773
vn 0.7011719 0.7001953 -0.1342773
vn -0.3601074 0.6269531 0.690918
vn -0.3601074 0.6269531 0.690918
vn -0.3601074 0.6269531 0.690918
vn -0.3493652 0.6357422 0.6884766
vn -0.3493652 0.6357422 0.6884766
vn -0.3493652 0.6357422 0.6884766
vn -0.07122803 0.5561523 0.828125
vn -0.07122803 0.5561523 0.828125
vn -0.07122803 0.5561523 0.828125
vn -0.01377106 0.6225586 0.7822266
vn -0.01377106 0.6225586 0.7822266
vn -0.01377106 0.6225586 0.7822266
vn -0.1226807 0.6206055 0.7744141
vn -0.1226807 0.6206055 0.7744141
vn -0.1226807 0.6206055 0.7744141
vn -0.1146851 0.6254883 0.7719727
vn -0.1146851 0.6254883 0.7719727
vn -0.1146851 0.6254883 0.7719727
vn 0.5410156 0.5712891 0.6176758
vn 0.5410156 0.5712891 0.6176758
vn 0.5410156 0.5712891 0.6176758
vn 0.5322266 0.5673828 0.628418
vn 0.5322266 0.5673828 0.628418
vn 0.5322266 0.5673828 0.628418
vn 0.277832 0.6220703 -0.7324219
vn 0.277832 0.6220703 -0.7324219
vn 0.277832 0.6220703 -0.7324219
vn 0.2573242 0.6430664 -0.7211914
vn 0.2573242 0.6430664 -0.7211914
vn 0.2573242 0.6430664 -0.7211914
vn 0.01878357 0.9995117 0.01858521
vn 0.01878357 0.9995117 0.01858521
vn 0.01878357 0.9995117 0.01858521
vn -0.03842163 0.9990234 -0.01419067
vn -0.03842163 0.9990234 -0.01419067
vn -0.01937866 1 -0.004707336
vn -0.08343506 0.996582 -0.01059723
vn -0.08343506 0.996582 -0.01059723
vn -0.08343506 0.996582 -0.01059723
vn -0.01689148 0.9956055 -0.09191895
vn -0.01689148 0.9956055 -0.09191895
vn -0.01689148 0.9956055 -0.09191895
vn 0.01189423 0.9980469 0.06304932
vn 0.01189423 0.9980469 0.06304932
vn 0.01189423 0.9980469 0.06304932
vn -0.005893707 1 -0.003396988
vn -0.005893707 1 -0.003396988
vn -0.005893707 1 -0.003396988
vn 0.0196228 0.9970703 -0.07574463
vn 0.0196228 0.9970703 -0.07574463
vn 0.0196228 0.9970703 -0.07574463
vn 0.04067993 0.9990234 0.005905151
vn 0.04067993 0.9990234 0.005905151
vn 0.04067993 0.9990234 0.005905151
vn 0.08929443 0.9956055 0.02700806
vn 0.08929443 0.9956055 0.02700806
vn 0.02197266 0.9975586 -0.06408691
vn 0.02197266 0.9975586 -0.06408691
vn 0.02197266 0.9975586 -0.06408691
vn 0.002304077 1 0.0007839203
vn 0.002304077 1 0.0007839203
vn 0.002304077 1 0.0007839203
vn 0.08483887 0.9960938 0.02893066
vn 0.08483887 0.9960938 0.02893066
vn 0.08483887 0.9960938 0.02893066
vn 0.08404541 0.9960938 0.02496338
vn 0.08404541 0.9960938 0.02496338
vn 0.08404541 0.9960938 0.02496338
vn 0.06829834 0.9975586 -0.01893616
vn 0.06829834 0.9975586 -0.01893616
vn 0.06829834 0.9975586 -0.01893616
vn 0.01502228 0.9990234 -0.04251099
vn 0.01502228 0.9990234 -0.04251099
vn 0.01502228 0.9990234 -0.04251099
vn 0.02232361 0.9970703 -0.07611084
vn 0.02232361 0.9970703 -0.07611084
vn 0.02232361 0.9970703 -0.07611084
vn 0.06140137 0.9975586 -0.02555847
vn 0.06140137 0.9975586 -0.02555847
vn 0.06140137 0.9975586 -0.02555847
vn -0.07440186 0.9951172 0.06311035
vn -0.07440186 0.9951172 0.06311035
vn -0.07440186 0.9951172 0.06311035
vn -0.06549072 0.9975586 0.01638794
vn -0.06549072 0.9975586 0.01638794
vn -0.06549072 0.9975586 0.01638794
vn 0.2434082 0.5673828 0.7866211
vn 0.2434082 0.5673828 0.7866211
vn 0.2434082 0.5673828 0.7866211
vn 0.2110596 0.5292969 0.8217773
vn 0.2110596 0.5292969 0.8217773
vn 0.2110596 0.5292969 0.8217773
vn 0.2746582 0.5981445 0.7529297
vn 0.2746582 0.5981445 0.7529297
vn 0.2746582 0.5981445 0.7529297
vn 0.2607422 0.5683594 0.7807617
vn 0.2607422 0.5683594 0.7807617
vn 0.2607422 0.5683594 0.7807617
vn 0.7246094 0.5273438 -0.4433594
vn 0.7246094 0.5273438 -0.4433594
vn 0.7246094 0.5273438 -0.4433594
vn 0.6616211 0.5947266 -0.4570313
vn 0.6616211 0.5947266 -0.4570313
vn 0.6616211 0.5947266 -0.4570313
vn 0.2988281 0.5952148 -0.7460938
vn 0.2988281 0.5952148 -0.7460938
vn 0.2988281 0.5952148 -0.7460938
vn 0.2687988 0.6206055 -0.7363281
vn 0.2687988 0.6206055 -0.7363281
vn 0.2687988 0.6206055 -0.7363281
vn -0.3181152 0.6269531 0.7114258
vn -0.3181152 0.6269531 0.7114258
vn -0.3181152 0.6269531 0.7114258
vn -0.4692383 0.4641113 0.7514648
vn -0.4692383 0.4641113 0.7514648
vn -0.4692383 0.4641113 0.7514648
vn 0.7797852 0.4875488 0.3928223
vn 0.7797852 0.4875488 0.3928223
vn 0.7797852 0.4875488 0.3928223
vn 0.7749023 0.5175781 0.3632813
vn 0.7749023 0.5175781 0.3632813
vn 0.7749023 0.5175781 0.3632813
vn -0.3459473 0.5664063 -0.7480469
vn -0.3459473 0.5664063 -0.7480469
vn -0.3459473 0.5664063 -0.7480469
vn -0.3410645 0.5610352 -0.7543945
vn -0.3410645 0.5610352 -0.7543945
vn -0.3410645 0.5610352 -0.7543945
vn -0.1087036 0.5405273 -0.8339844
vn -0.1087036 0.5405273 -0.8339844
vn -0.1087036 0.5405273 -0.8339844
vn -0.1251221 0.5595703 -0.8193359
vn -0.1251221 0.5595703 -0.8193359
vn -0.1251221 0.5595703 -0.8193359
vn 0.7890625 0.5722656 -0.223999
vn 0.7890625 0.5722656 -0.223999
vn 0.7890625 0.5722656 -0.223999
vn 0.8725586 0.4685059 -0.1373291
vn 0.8725586 0.4685059 -0.1373291
vn 0.8725586 0.4685059 -0.1373291
vn 0.8393555 0.4831543 0.2497559
vn 0.8393555 0.4831543 0.2497559
vn 0.8393555 0.4831543 0.2497559
vn 0.8188477 0.5610352 0.1209717
vn 0.8188477 0.5610352 0.1209717
vn 0.8188477 0.5610352 0.1209717
vn 0.4309082 0.5532227 -0.7128906
vn 0.4309082 0.5532227 -0.7128906
vn 0.4309082 0.5532227 -0.7128906
vn 0.5332031 0.4990234 -0.6831055
vn 0.5332031 0.4990234 -0.6831055
vn 0.5332031 0.4990234 -0.6831055
vn -0.59375 0.5849609 0.5527344
vn -0.59375 0.5849609 0.5527344
vn -0.59375 0.5849609 0.5527344
vn -0.6958008 0.4780273 0.5361328
vn -0.6958008 0.4780273 0.5361328
vn -0.6958008 0.4780273 0.5361328
vn -0.3544922 0.5722656 0.7397461
vn -0.3544922 0.5722656 0.7397461
vn -0.3544922 0.5722656 0.7397461
vn -0.3068848 0.6264648 0.7167969
vn -0.3068848 0.6264648 0.7167969
vn -0.3068848 0.6264648 0.7167969
vn -0.02384949 0.5322266 0.8461914
vn -0.02384949 0.5322266 0.8461914
vn -0.02384949 0.5322266 0.8461914
vn 0.02314758 0.5771484 0.8164063
vn 0.02314758 0.5771484 0.8164063
vn 0.02314758 0.5771484 0.8164063
vn -0.08032227 0.574707 0.8144531
vn -0.08032227 0.574707 0.8144531
vn -0.08032227 0.574707 0.8144531
vn -0.07025146 0.5810547 0.8105469
vn -0.07025146 0.5810547 0.8105469
vn -0.07025146 0.5810547 0.8105469
vn 0.5327148 0.4030762 -0.7441406
vn 0.5327148 0.4030762 -0.7441406
vn 0.5327148 0.4030762 -0.7441406
vn 0.3981934 0.5888672 -0.7036133
vn 0.3981934 0.5888672 -0.7036133
vn 0.3981934 0.5888672 -0.7036133
vn 0.178833 0.5708008 -0.8012695
vn 0.178833 0.5708008 -0.8012695
vn 0.178833 0.5708008 -0.8012695
vn 0.1873779 0.5595703 -0.8071289
vn 0.1873779 0.5595703 -0.8071289
vn 0.1873779 0.5595703 -0.8071289
vn -0.0141983 0.9970703 0.07763672
vn -0.0141983 0.9970703 0.07763672
vn -0.0141983 0.9970703 0.07763672
vn -0.05517578 0.9985352 0.0115509
vn -0.05517578 0.9985352 0.0115509
vn -0.05517578 0.9985352 0.0115509
vn -0.02398682 0.9980469 -0.05532837
vn -0.02398682 0.9980469 -0.05532837
vn -0.02398682 0.9980469 -0.05532837
vn 0.02397156 0.9995117 0.02500916
vn 0.02397156 0.9995117 0.02500916
vn 0.02397156 0.9995117 0.02500916
vn -0.01159668 0.9975586 -0.06738281
vn -0.01159668 0.9975586 -0.06738281
vn -0.01159668 0.9975586 -0.06738281
vn -0.03250122 0.9990234 0.02059937
vn -0.03250122 0.9990234 0.02059937
vn -0.03250122 0.9990234 0.02059937
vn 0.07489014 0.9956055 0.05392456
vn 0.07489014 0.9956055 0.05392456
vn 0.07489014 0.9956055 0.05392456
vn 0.1066895 0.9931641 0.04870605
vn 0.1066895 0.9931641 0.04870605
vn 0.1066895 0.9931641 0.04870605
vn 0.02615356 0.9995117 0.0259552
vn 0.02615356 0.9995117 0.0259552
vn 0.02615356 0.9995117 0.0259552
vn 0.08068848 0.996582 0.01470947
vn 0.08068848 0.996582 0.01470947
vn 0.08068848 0.996582 0.01470947
vn 0.02565002 0.9995117 0.0001004934
vn 0.02565002 0.9995117 0.0001004934
vn 0.02565002 0.9995117 0.0001004934
vn 0.04647827 0.9985352 -0.03274536
vn 0.04647827 0.9985352 -0.03274536
vn 0.04647827 0.9985352 -0.03274536
vn 0.06732178 0.9975586 0.003858566
vn 0.06732178 0.9975586 0.003858566
vn 0.06732178 0.9975586 0.003858566
vn -0.02468872 0.009407043 0.9995117
vn -0.02468872 0.009407043 0.9995117
vn -0.02468872 0.009407043 0.9995117
vn -0.02384949 0.009963989 0.9995117
vn -0.1619873 0.03295898 0.9863281
vn -0.1619873 0.03295898 0.9863281
vn -0.1619873 0.03295898 0.9863281
vn -0.1652832 0.03065491 0.9858398
vn 0.3239746 0.07788086 -0.9428711
vn 0.3239746 0.07788086 -0.9428711
vn 0.3239746 0.07788086 -0.9428711
vn 0.3166504 0.08703613 -0.9443359
vn 0.1522217 0.06304932 -0.9863281
vn 0.1522217 0.06304932 -0.9863281
vn 0.1522217 0.06304932 -0.9863281
vn 0.1569824 0.05834961 -0.9858398
vn 0.7016602 0.1281738 -0.7006836
vn 0.7016602 0.1281738 -0.7006836
vn 0.7016602 0.1281738 -0.7006836
vn 0.6875 0.1530762 -0.7094727
vn -0.9365234 0.003993988 -0.3503418
vn -0.9365234 0.003993988 -0.3503418
vn -0.9365234 0.003993988 -0.3503418
vn -0.9365234 0.003740311 -0.3505859
vn 0.6884766 0.04998779 -0.7236328
vn 0.6884766 0.04998779 -0.7236328
vn 0.6884766 0.04998779 -0.7236328
vn 0.6972656 0.04284668 -0.715332
vn -0.8862305 0.007888794 -0.4633789
vn -0.8862305 0.007888794 -0.4633789
vn -0.8862305 0.007888794 -0.4633789
vn -0.8842773 0.006412506 -0.467041
vn 0.9125977 0.168457 0.3725586
vn 0.9125977 0.168457 0.3725586
vn 0.9125977 0.168457 0.3725586
vn 0.9077148 0.1525879 0.3913574
vn 0.2661133 0.05670166 -0.9624023
vn 0.2661133 0.05670166 -0.9624023
vn 0.2661133 0.05670166 -0.9624023
vn 0.25 0.06039429 -0.9663086
vn 0.918457 0.1646729 -0.3596191
vn 0.918457 0.1646729 -0.3596191
vn 0.918457 0.1646729 -0.3596191
vn 0.9018555 0.1801758 -0.3930664
vn -0.300293 0.04244995 -0.953125
vn -0.300293 0.04244995 -0.953125
vn -0.300293 0.04244995 -0.953125
vn -0.3015137 0.04324341 -0.9526367
vn -0.7856445 0.01394653 0.6181641
vn -0.7856445 0.01394653 0.6181641
vn -0.7856445 0.01394653 0.6181641
vn -0.7915039 0.008178711 0.6113281
vn -0.439209 0.01441956 0.8984375
vn -0.439209 0.01441956 0.8984375
vn -0.439209 0.01441956 0.8984375
vn -0.4465332 0.00818634 0.8945313
vn 0.6245117 0.07977295 0.7768555
vn 0.6245117 0.07977295 0.7768555
vn 0.6245117 0.07977295 0.7768555
vn 0.6206055 0.07794189 0.7802734
vn -0.03509521 0.04745483 0.9980469
vn -0.03509521 0.04745483 0.9980469
vn -0.03509521 0.04745483 0.9980469
vn -0.03604126 0.04638672 0.9980469
vn -0.6083984 0.02218628 0.793457
vn -0.6083984 0.02218628 0.793457
vn -0.6083984 0.02218628 0.793457
vn -0.6132813 0.01861572 0.7895508
vn 0.05401611 0.04974365 0.9970703
vn 0.05401611 0.04974365 0.9970703
vn 0.05401611 0.04974365 0.9970703
vn 0.05093384 0.04614258 0.9975586
vn -0.05761719 0.05697632 -0.996582
vn -0.05761719 0.05697632 -0.996582
vn -0.05761719 0.05697632 -0.996582
vn -0.05432129 0.05175781 -0.9970703
vn -0.6303711 0.6220703 0.4641113
vn -0.6303711 0.6220703 0.4641113
vn -0.6303711 0.6220703 0.4641113
vn -0.628418 0.6235352 0.4648438
vn -0.4543457 0.668457 -0.5888672
vn -0.4543457 0.668457 -0.5888672
vn -0.4543457 0.668457 -0.5888672
vn -0.4523926 0.6635742 -0.5957031
vn -0.71875 0.6499023 -0.2470703
vn -0.71875 0.6499023 -0.2470703
vn -0.71875 0.6499023 -0.2470703
vn -0.715332 0.6552734 -0.2423096
vn 0.6914063 0.6625977 -0.2878418
vn 0.6914063 0.6625977 -0.2878418
vn 0.6914063 0.6625977 -0.2878418
vn 0.7070313 0.6513672 -0.2756348
vn 0.1948242 0.5917969 -0.7822266
vn 0.1948242 0.5917969 -0.7822266
vn 0.1948242 0.5917969 -0.7822266
vn 0.2264404 0.5893555 -0.7753906
vn -0.7519531 0.5825195 -0.3083496
vn -0.7519531 0.5825195 -0.3083496
vn -0.7519531 0.5825195 -0.3083496
vn -0.7392578 0.5737305 -0.3530273
vn -0.03204346 0.6323242 0.7744141
vn -0.03204346 0.6323242 0.7744141
vn -0.03204346 0.6323242 0.7744141
vn -0.01686096 0.640625 0.7680664
vn -0.4892578 0.6137695 0.6196289
vn -0.4892578 0.6137695 0.6196289
vn -0.4892578 0.6137695 0.6196289
vn -0.4851074 0.6162109 0.6201172
vn 0.1008301 0.6699219 -0.7358398
vn 0.1008301 0.6699219 -0.7358398
vn 0.1008301 0.6699219 -0.7358398
vn 0.1260986 0.6455078 -0.753418
vn -0.3564453 0.02482605 0.934082
vn -0.3564453 0.02482605 0.934082
vn -0.3564453 0.02482605 0.934082
vn -0.3586426 0.02279663 0.9331055
vn -0.07849121 0.04519653 0.9960938
vn -0.07849121 0.04519653 0.9960938
vn -0.07849121 0.04519653 0.9960938
vn -0.07714844 0.0458374 0.9960938
vn 0.2705078 0.0715332 0.9599609
vn 0.2705078 0.0715332 0.9599609
vn 0.2705078 0.0715332 0.9599609
vn 0.279541 0.06365967 0.9580078
vn 0.2302246 0.05981445 0.9711914
vn 0.2302246 0.05981445 0.9711914
vn 0.2280273 0.05838013 0.9716797
vn 0.9726563 0.1541748 0.1729736
vn 0.9726563 0.1541748 0.1729736
vn 0.9726563 0.1541748 0.1729736
vn 0.972168 0.149292 0.1816406
vn 0.2039795 0.06658936 -0.9765625
vn 0.2039795 0.06658936 -0.9765625
vn 0.2039795 0.06658936 -0.9765625
vn 0.2019043 0.06854248 -0.9770508
vn 0.5068359 0.02456665 -0.8618164
vn 0.5068359 0.02456665 -0.8618164
vn 0.5068359 0.02456665 -0.8618164
vn 0.5068359 0.02436829 -0.8618164
vn 0.7832031 0.1077271 -0.6123047
vn 0.7832031 0.1077271 -0.6123047
vn 0.7832031 0.1077271 -0.6123047
vn 0.7714844 0.1223755 -0.6240234
vn -0.9536133 0.05993652 -0.295166
vn -0.9536133 0.05993652 -0.295166
vn -0.9536133 0.05993652 -0.295166
vn -0.9541016 0.06225586 -0.2929688
vn -0.4990234 0.02790833 0.8662109
vn -0.4990234 0.02790833 0.8662109
vn -0.4990234 0.02790833 0.8662109
vn -0.5014648 0.02502441 0.8647461
vn 0.3666992 0.02902222 -0.9296875
vn 0.3666992 0.02902222 -0.9296875
vn 0.3666992 0.02902222 -0.9296875
vn 0.3669434 0.02874756 -0.9296875
vn -0.7280273 0.01669312 -0.6855469
vn -0.7280273 0.01669312 -0.6855469
vn -0.7280273 0.01669312 -0.6855469
vn -0.7285156 0.0174408 -0.6850586
vn 0.8994141 0.1117554 0.4228516
vn 0.8994141 0.1117554 0.4228516
vn 0.8994141 0.1117554 0.4228516
vn 0.8945313 0.1035156 0.4350586
vn 0.5883789 0.07354736 -0.8051758
vn 0.5883789 0.07354736 -0.8051758
vn 0.5883789 0.07354736 -0.8051758
vn 0.5751953 0.07971191 -0.8144531
vn 0.9790039 0.1210938 -0.1644287
vn 0.9790039 0.1210938 -0.1644287
vn 0.9790039 0.1210938 -0.1644287
vn 0.9775391 0.1237183 -0.1707764
vn -0.3798828 0.02841187 -0.9248047
vn -0.3798828 0.02841187 -0.9248047
vn -0.3798828 0.02841187 -0.9248047
vn -0.3808594 0.02882385 -0.9243164
vn -0.5629883 0.03918457 0.8251953
vn -0.5629883 0.03918457 0.8251953
vn -0.5629883 0.03918457 0.8251953
vn -0.5683594 0.0355835 0.8217773
vn -0.7739258 0.03198242 0.6323242
vn -0.7739258 0.03198242 0.6323242
vn -0.7739258 0.03198242 0.6323242
vn -0.7792969 0.02770996 0.6264648
vn 0.3288574 0.06323242 0.9423828
vn 0.3288574 0.06323242 0.9423828
vn 0.3288574 0.06323242 0.9423828
vn 0.3300781 0.06384277 0.9418945
vn 0.02488708 0.05358887 0.9980469
vn 0.02488708 0.05358887 0.9980469
vn 0.02488708 0.05358887 0.9980469
vn 0.02690125 0.05484009 0.9980469
vn -0.534668 0.03451538 0.8442383
vn -0.534668 0.03451538 0.8442383
vn -0.534668 0.03451538 0.8442383
vn -0.5395508 0.0324707 0.8413086
vn -0.6064453 0.06323242 -0.7929688
vn -0.6064453 0.06323242 -0.7929688
vn -0.6064453 0.06323242 -0.7929688
vn -0.6103516 0.06671143 -0.7895508
vn -0.1425781 0.04998779 -0.9882813
vn -0.1425781 0.04998779 -0.9882813
vn -0.1425781 0.04998779 -0.9882813
vn -0.1416016 0.04934692 -0.9887695
vn -0.4633789 0.6020508 0.6503906
vn -0.4633789 0.6020508 0.6503906
vn -0.4633789 0.6020508 0.6503906
vn -0.4755859 0.5927734 0.6503906
vn -0.5302734 0.5947266 -0.6044922
vn -0.5302734 0.5947266 -0.6044922
vn -0.5302734 0.5947266 -0.6044922
vn -0.5317383 0.5981445 -0.5991211
vn -0.7695313 0.5976563 -0.2243652
vn -0.7695313 0.5976563 -0.2243652
vn -0.7695313 0.5976563 -0.2243652
vn -0.7709961 0.5952148 -0.2266846
vn -0.6220703 0.578125 -0.5283203
vn -0.6220703 0.578125 -0.5283203
vn -0.6220703 0.578125 -0.5283203
vn -0.621582 0.5649414 -0.5424805
vn -0.4648438 0.5625 0.6835938
vn -0.4648438 0.5625 0.6835938
vn -0.4648438 0.5625 0.6835938
vn -0.4580078 0.5673828 0.6845703
vn 0.2932129 0.5244141 0.7993164
vn 0.2932129 0.5244141 0.7993164
vn 0.2932129 0.5244141 0.7993164
vn 0.2937012 0.5249023 0.7988281
vn -0.04910278 0.9985352 0.01477814
vn -0.06384277 0.9980469 0.01522064
vn -0.06707764 0.9975586 0.01254272
vn -0.04910278 0.9985352 0.01477814
vn -0.04910278 0.9985352 0.01477814
vn -0.06793213 0.9975586 0.001396179
vn -0.06793213 0.9975586 0.001396179
vn -0.04797363 0.9990234 0.01131439

vt 0.08331299 0
vt 0.25 0.7207031
vt 0.25 0
vt 0.25 0.7207031
vt 0.08331299 0
vt 0.08331299 0.7207031
vt 0.270752 0
vt 0.25 0.7207031
vt 0.270752 0.7207031
vt 0.25 0.7207031
vt 0.270752 0
vt 0.25 0
vt 0.3081055 1
vt 0.6298828 1
vt 0.5498047 1
vt 0.6298828 1
vt 0.3081055 1
vt 0.7089844 1
vt 0.75 0
vt 0.7084961 0.7207031
vt 0.75 0.7207031
vt 0.7084961 0.7207031
vt 0.75 0
vt 0.7084961 0
vt 0.6665039 0
vt 0.625 0.7207031
vt 0.6665039 0.7207031
vt 0.625 0.7207031
vt 0.6665039 0
vt 0.625 0
vt 0.9819336 1.762695
vt 0.7250977 1
vt 0.5292969 1
vt 0.7250977 1
vt 0.9819336 1.762695
vt 1.454102 1.486328
vt 0.2341309 0.9521484
vt 0.5292969 1
vt 0.282959 1
vt 0.5292969 1
vt 0.2341309 0.9521484
vt 0.489502 1.009766
vt 0.03985596 0.8569336
vt 0.1690674 1
vt 0.1290283 1
vt 0.1690674 1
vt 0.03985596 0.8569336
vt -0.004165649 0.9345703
vt 0.6152344 1.504883
vt 0.4018555 1
vt 0.3081055 1
vt 0.4018555 1
vt 0.6152344 1.504883
vt 0.6157227 1.433594
vt 0.75 0.7207031
vt 0.7089844 1
vt 0.7001953 1
vt 0.7089844 1
vt 0.75 0.7207031
vt 0.7084961 0.7207031
vt 0.1887207 0.8232422
vt -0.01275635 1
vt 0.1690674 1
vt -0.01275635 1
vt 0.1887207 0.8232422
vt 0.1418457 0.8330078
vt 0.3103027 0.8950195
vt 0.3088379 1
vt 0.4018555 1
vt 0.3088379 1
vt 0.3103027 0.8950195
vt 0.2214355 0.9052734
vt 0.189209 0.9379883
vt 0.1605225 1
vt 0.2553711 1
vt 0.1605225 1
vt 0.189209 0.9379883
vt 0.07696533 0.9790039
vt 0.2338867 1.320313
vt 0.282959 1
vt 0.2282715 1
vt 0.282959 1
vt 0.2338867 1.320313
vt 0.4331055 1.299805
vt 0.8334961 0.7207031
vt 0.7202148 1
vt 0.5800781 1
vt 0.7202148 1
vt 0.8334961 0.7207031
vt 0.7915039 0.7207031
vt 0.8359375 1.148438
vt 0.8569336 1
vt 0.7480469 1
vt 0.8569336 1
vt 0.8359375 1.148438
vt 0.9946289 1.094727
vt 0.8823242 1.151367
vt 0.8134766 1
vt 0.7431641 1
vt 0.8134766 1
vt 0.8823242 1.151367
vt 0.9770508 1.134766
vt 0.9882813 2.072266
vt 0.7480469 1
vt 0.7250977 1
vt 0.7480469 1
vt 0.9882813 2.072266
vt 1.302734 2.027344
vt 0.1854248 1.083984
vt 0.1290283 1
vt 0.1605225 1
vt 0.1290283 1
vt 0.1854248 1.083984
vt 0.1945801 1.058594
vt 0.7202148 1
vt 0.3081055 1
vt 0.4018555 1
vt 0.5800781 1
vt 0.3088379 1
vt 0.7431641 1
vt 0.7202148 1
vt 0.7089844 1
vt 0.3081055 1
vt 0.7089844 1
vt 0.7202148 1
vt 0.7001953 1
vt 0.1605225 1
vt 0.3088379 1
vt 0.2553711 1
vt 0.3088379 1
vt 0.1605225 1
vt 0.7431641 1
vt 0.5800781 1
vt 0.7431641 1
vt 0.8134766 1
vt 0.7480469 1
vt 0.1605225 1
vt 0.1290283 1
vt -0.01275635 1
vt 0.7250977 1
vt 0.7431641 1
vt 0.7480469 1
vt 0.8569336 1
vt 0.7480469 1
vt 0.7431641 1
vt 0.1605225 1
vt -0.01275635 1
vt 0.1290283 1
vt 0.1690674 1
vt 0.1290283 1
vt 0.7250977 1
vt 0.7480469 1
vt 0.5292969 1
vt -0.01275635 1
vt 0.2836914 1
vt -0.01275635 1
vt 0.5292969 1
vt 0.7250977 1
vt 0.5292969 1
vt 0.2282715 1
vt 0.282959 1
vt 0.2282715 1
vt 0.5292969 1
vt 0.2836914 1
vt 0.3081055 1
vt 0.6298828 1
vt 0.5498047 1
vt 0.6298828 1
vt 0.3081055 1
vt 0.7089844 1
vt 0.9819336 1.762695
vt 0.7250977 1
vt 0.5292969 1
vt 0.7250977 1
vt 0.9819336 1.762695
vt 1.454102 1.486328
vt 0.2341309 0.9521484
vt 0.5292969 1
vt 0.282959 1
vt 0.5292969 1
vt 0.2341309 0.9521484
vt 0.489502 1.009766
vt 0.03985596 0.8569336
vt 0.1690674 1
vt 0.1290283 1
vt 0.1690674 1
vt 0.03985596 0.8569336
vt -0.004165649 0.9345703
vt 0.6152344 1.504883
vt 0.4018555 1
vt 0.3081055 1
vt 0.4018555 1
vt 0.6152344 1.504883
vt 0.6157227 1.433594
vt 0.75 0.7207031
vt 0.7089844 1
vt 0.7001953 1
vt 0.7089844 1
vt 0.75 0.7207031
vt 0.7084961 0.7207031
vt 0.1887207 0.8232422
vt -0.01275635 1
vt 0.1690674 1
vt -0.01275635 1
vt 0.1887207 0.8232422
vt 0.1418457 0.8330078
vt 0.3103027 0.8950195
vt 0.3088379 1
vt 0.4018555 1
vt 0.3088379 1
vt 0.3103027 0.8950195
vt 0.2214355 0.9052734
vt 0.189209 0.9379883
vt 0.1605225 1
vt 0.2553711 1
vt 0.1605225 1
vt 0.189209 0.9379883
vt 0.07696533 0.9790039
vt 0.1689453 1.164063
vt 0.2836914 1
vt -0.01275635 1
vt 0.2836914 1
vt 0.1689453 1.164063
vt 0.2265625 1.162109
vt 0.2338867 1.320313
vt 0.282959 1
vt 0.2282715 1
vt 0.282959 1
vt 0.2338867 1.320313
vt 0.4331055 1.299805
vt 0.1967773 0.8188477
vt 0.2282715 1
vt 0.2836914 1
vt 0.2282715 1
vt 0.1967773 0.8188477
vt 0.1538086 0.8237305
vt 0.8334961 0.7207031
vt 0.7202148 1
vt 0.5800781 1
vt 0.7202148 1
vt 0.8334961 0.7207031
vt 0.7915039 0.7207031
vt 0.7915039 0.7207031
vt 0.7001953 1
vt 0.7202148 1
vt 0.7001953 1
vt 0.7915039 0.7207031
vt 0.75 0.7207031
vt 0.8359375 1.148438
vt 0.8569336 1
vt 0.7480469 1
vt 0.8569336 1
vt 0.8359375 1.148438
vt 0.9946289 1.094727
vt 0.8823242 1.151367
vt 0.8134766 1
vt 0.7431641 1
vt 0.8134766 1
vt 0.8823242 1.151367
vt 0.9770508 1.134766
vt 0.625 0.7207031
vt 0.3081055 1
vt 0.5498047 1
vt 0.3081055 1
vt 0.625 0.7207031
vt 0.5834961 0.7207031
vt 0.1854248 1.083984
vt 0.1290283 1
vt 0.1605225 1
vt 0.1290283 1
vt 0.1854248 1.083984
vt 0.1945801 1.058594
vt 0.1605225 1
vt 0.3088379 1
vt 0.2553711 1
vt 0.3088379 1
vt 0.1605225 1
vt 0.7431641 1
vt 0.5800781 1
vt 0.7431641 1
vt 0.8134766 1
vt 0.7480469 1
vt 0.1605225 1
vt 0.1290283 1
vt 0.7431641 1
vt 0.7480469 1
vt 0.8569336 1
vt 0.7480469 1
vt 0.7431641 1
vt 0.1605225 1
vt -0.01275635 1
vt 0.1290283 1
vt 0.1690674 1
vt 0.1290283 1
vt -0.01275635 1
vt 0.7250977 1
vt 0.1290283 1
vt 0.7250977 1
vt 0.7480469 1
vt 0.5292969 1
vt -0.01275635 1
vt 0.2836914 1
vt -0.01275635 1
vt 0.5292969 1
vt 0.7250977 1
vt 0.5292969 1
vt 0.2282715 1
vt 0.282959 1
vt 0.2282715 1
vt 0.5292969 1
vt 0.2836914 1
vt 0.7915039 0
vt 0.75 0.7207031
vt 0.7915039 0.7207031
vt 0.75 0
vt -0.0625 0
vt -0.08331299 0.7207031
vt -0.0625 0.7207031
vt -0.08331299 0
vt 0.4375 0
vt 0.416748 0.7207031
vt 0.4375 0.7207031
vt 0.416748 0
vt 0.625 0
vt 0.5834961 0.7207031
vt 0.625 0.7207031
vt 0.5834961 0
vt 0.416748 0
vt 0.333252 0.7207031
vt 0.416748 0.7207031
vt 0.333252 0
vt 0.7084961 0
vt 0.6665039 0.7207031
vt 0.7084961 0.7207031
vt 0.6665039 0
vt 0.5834961 0
vt 0.5 0.7207031
vt 0.5834961 0.7207031
vt 0.5 0
vt 0.479248 0
vt 0.458252 0.7207031
vt 0.479248 0.7207031
vt 0.458252 0
vt 0.333252 0
vt 0.291748 0.7207031
vt 0.333252 0.7207031
vt 0.291748 0
vt 0.28125 0
vt 0.270752 0.7207031
vt 0.28125 0.7207031
vt 0.270752 0
vt 0.291748 0
vt 0.28125 0.7207031
vt 0.291748 0.7207031
vt 0.28125 0
vt 0.5 0
vt 0.479248 0.7207031
vt 0.5 0.7207031
vt 0.479248 0
vt 0.9165039 0
vt 0.8334961 0.7207031
vt 0.9165039 0.7207031
vt 0.8334961 0
vt 0.8334961 0
vt 0.7915039 0.7207031
vt 0.8334961 0.7207031
vt 0.7915039 0
vt 0.04165649 0
vt 0 0.7207031
vt 0.04165649 0.7207031
vt 0 0
vt 0 0
vt -0.04165649 0.7207031
vt 0 0.7207031
vt -0.04165649 0
vt -0.04165649 0
vt -0.0625 0.7207031
vt -0.04165649 0.7207031
vt -0.0625 0
vt 0.08331299 0
vt 0.04165649 0.7207031
vt 0.08331299 0.7207031
vt 0.04165649 0
vt 0.458252 0
vt 0.4375 0.7207031
vt 0.458252 0.7207031
vt 0.4375 0
vt 0.9165039 0.7207031
vt 0.5800781 1
vt 0.8134766 1
vt 0.8334961 0.7207031
vt 0.6665039 0.7207031
vt 0.5498047 1
vt 0.6298828 1
vt 0.625 0.7207031
vt 0.7084961 0.7207031
vt 0.6298828 1
vt 0.7089844 1
vt 0.6665039 0.7207031
vt 0.1689453 1.164063
vt 0.2836914 1
vt -0.01275635 1
vt 0.2265625 1.162109
vt 0.1967773 0.8188477
vt 0.2282715 1
vt 0.2836914 1
vt 0.1538086 0.8237305
vt 0.2248535 0.7670898
vt 0.2553711 1
vt 0.3088379 1
vt 0.1106567 0.7758789
vt 0.7915039 0.7207031
vt 0.7001953 1
vt 0.7202148 1
vt 0.75 0.7207031
vt 0.8564453 0.8227539
vt 0.7431641 1
vt 0.8569336 1
vt 0.8164063 0.8295898
vt 0.625 0.7207031
vt 0.3081055 1
vt 0.5498047 1
vt 0.5834961 0.7207031
vt 0.7915039 0
vt 0.75 0.7207031
vt 0.7915039 0.7207031
vt 0.75 0
vt -0.0625 0
vt -0.08331299 0.7207031
vt -0.0625 0.7207031
vt -0.08331299 0
vt 0.08331299 0
vt 0.25 0.7207031
vt 0.25 0
vt 0.08331299 0.7207031
vt 0.04165649 0.7207031
vt 0.08331299 0.7207031
vt 0.04165649 0
vt 0.270752 0
vt 0.25 0.7207031
vt 0.270752 0.7207031
vt 0.25 0
vt 0.4375 0
vt 0.416748 0.7207031
vt 0.4375 0.7207031
vt 0.416748 0
vt 0.625 0
vt 0.5834961 0.7207031
vt 0.625 0.7207031
vt 0.5834961 0
vt 0.416748 0
vt 0.333252 0.7207031
vt 0.416748 0.7207031
vt 0.333252 0
vt 0.7084961 0
vt 0.6665039 0.7207031
vt 0.7084961 0.7207031
vt 0.6665039 0
vt 0.75 0
vt 0.7084961 0.7207031
vt 0.75 0.7207031
vt 0.7084961 0
vt 0.5834961 0
vt 0.5 0.7207031
vt 0.5834961 0.7207031
vt 0.5 0
vt 0.479248 0
vt 0.458252 0.7207031
vt 0.479248 0.7207031
vt 0.458252 0
vt 0.333252 0
vt 0.291748 0.7207031
vt 0.333252 0.7207031
vt 0.291748 0
vt 0.28125 0
vt 0.270752 0.7207031
vt 0.28125 0.7207031
vt 0.270752 0
vt 0.291748 0
vt 0.28125 0.7207031
vt 0.291748 0.7207031
vt 0.28125 0
vt 0.5 0
vt 0.479248 0.7207031
vt 0.5 0.7207031
vt 0.479248 0
vt 0.9165039 0
vt 0.8334961 0.7207031
vt 0.9165039 0.7207031
vt 0.8334961 0
vt 0.8334961 0
vt 0.7915039 0.7207031
vt 0.8334961 0.7207031
vt 0.7915039 0
vt 0.04165649 0
vt 0 0.7207031
vt 0.04165649 0.7207031
vt 0 0
vt 0 0
vt -0.04165649 0.7207031
vt 0 0.7207031
vt -0.04165649 0
vt -0.04165649 0
vt -0.0625 0.7207031
vt -0.04165649 0.7207031
vt -0.0625 0
vt 0.6665039 0
vt 0.625 0.7207031
vt 0.6665039 0.7207031
vt 0.625 0
vt 0.458252 0
vt 0.4375 0.7207031
vt 0.458252 0.7207031
vt 0.4375 0
vt 0.9165039 0.7207031
vt 0.5800781 1
vt 0.8134766 1
vt 0.8334961 0.7207031
vt 0.6665039 0.7207031
vt 0.5498047 1
vt 0.6298828 1
vt 0.625 0.7207031
vt 0.7084961 0.7207031
vt 0.6298828 1
vt 0.7089844 1
vt 0.6665039 0.7207031
vt 0.2248535 0.7670898
vt 0.2553711 1
vt 0.3088379 1
vt 0.1106567 0.7758789
vt 0.8564453 0.8227539
vt 0.7431641 1
vt 0.8569336 1
vt 0.8164063 0.8295898
vt 0.9882813 2.072266
vt 0.7480469 1
vt 0.7250977 1
vt 1.302734 2.027344
vt 0.3081055 1
vt 0.7001953 1
vt 0.7089844 1
vt 0.7202148 1
vt 0.4018555 1
vt 0.5800781 1
vt 0.3088379 1
vt 0.7431641 1

g Mountain_05_(6)_364_32
usemtl Mountain_05_(6)_364_32
usemap Mountain_05_(6)_364_32
f 1/1/1 3/3/3 2/2/2
f 4/4/4 6/6/6 5/5/5
f 7/7/7 9/9/9 8/8/8
f 10/10/10 12/12/12 11/11/11
f 13/13/13 15/15/15 14/14/14
f 16/16/16 18/18/18 17/17/17
f 19/19/19 21/21/21 20/20/20
f 22/22/22 24/24/24 23/23/23
f 25/25/25 27/27/27 26/26/26
f 28/28/28 30/30/30 29/29/29
f 31/31/31 33/33/33 32/32/32
f 34/34/34 36/36/36 35/35/35
f 37/37/37 39/39/39 38/38/38
f 40/40/40 42/42/42 41/41/41
f 43/43/43 45/45/45 44/44/44
f 46/46/46 48/48/48 47/47/47
f 49/49/49 51/51/51 50/50/50
f 52/52/52 54/54/54 53/53/53
f 55/55/55 57/57/57 56/56/56
f 58/58/58 60/60/60 59/59/59
f 61/61/61 63/63/63 62/62/62
f 64/64/64 66/66/66 65/65/65
f 67/67/67 69/69/69 68/68/68
f 70/70/70 72/72/72 71/71/71
f 73/73/73 75/75/75 74/74/74
f 76/76/76 78/78/78 77/77/77
f 79/79/79 81/81/81 80/80/80
f 82/82/82 84/84/84 83/83/83
f 85/85/85 87/87/87 86/86/86
f 88/88/88 90/90/90 89/89/89
f 91/91/91 93/93/93 92/92/92
f 94/94/94 96/96/96 95/95/95
f 97/97/97 99/99/99 98/98/98
f 100/100/100 102/102/102 101/101/101
f 103/103/103 105/105/105 104/104/104
f 106/106/106 108/108/108 107/107/107
f 109/109/109 111/111/111 110/110/110
f 112/112/112 114/114/114 113/113/113
f 115/115/115 117/117/117 116/116/116
f 118/118/118 119/119/119 117/117/117
f 120/120/120 119/119/119 118/118/118
f 117/117/117 121/121/121 118/118/118
f 121/121/121 123/123/123 122/122/122
f 124/124/124 126/126/126 125/125/125
f 127/127/127 129/129/129 128/128/128
f 130/130/130 132/132/132 131/131/131
f 133/133/133 135/135/135 134/134/134
f 136/136/136 138/138/138 137/137/137
f 138/138/138 140/140/140 139/139/139
f 141/141/141 143/143/143 142/142/142
f 144/144/144 146/146/146 145/145/145
f 147/147/147 149/149/149 148/148/148
f 150/150/150 152/152/152 151/151/151
f 153/153/153 155/155/155 154/154/154
f 156/156/156 158/158/158 157/157/157
f 159/159/159 161/161/161 160/160/160
f 162/162/162 164/164/164 163/163/163
f 165/165/165 167/167/167 166/166/166
f 168/168/168 170/170/170 169/169/169
f 171/171/171 173/173/173 172/172/172
f 174/174/174 176/176/176 175/175/175
f 177/177/177 179/179/179 178/178/178
f 180/180/180 182/182/182 181/181/181
f 183/183/183 185/185/185 184/184/184
f 186/186/186 188/188/188 187/187/187
f 189/189/189 191/191/191 190/190/190
f 192/192/192 194/194/194 193/193/193
f 195/195/195 197/197/197 196/196/196
f 198/198/198 200/200/200 199/199/199
f 201/201/201 203/203/203 202/202/202
f 204/204/204 206/206/206 205/205/205
f 207/207/207 209/209/209 208/208/208
f 210/210/210 212/212/212 211/211/211
f 213/213/213 215/215/215 214/214/214
f 216/216/216 218/218/218 217/217/217
f 219/219/219 221/221/221 220/220/220
f 222/222/222 224/224/224 223/223/223
f 225/225/225 227/227/227 226/226/226
f 228/228/228 230/230/230 229/229/229
f 231/231/231 233/233/233 232/232/232
f 234/234/234 236/236/236 235/235/235
f 237/237/237 239/239/239 238/238/238
f 240/240/240 242/242/242 241/241/241
f 243/243/243 245/245/245 244/244/244
f 246/246/246 248/248/248 247/247/247
f 249/249/249 251/251/251 250/250/250
f 252/252/252 254/254/254 253/253/253
f 255/255/255 257/257/257 256/256/256
f 258/258/258 260/260/260 259/259/259
f 261/261/261 263/263/263 262/262/262
f 264/264/264 266/266/266 265/265/265
f 267/267/267 269/269/269 268/268/268
f 270/270/270 272/272/272 271/271/271
f 273/273/273 275/275/275 274/274/274
f 276/276/276 278/278/278 277/277/277
f 279/279/279 281/281/281 280/280/280
f 282/282/282 284/284/284 283/283/283
f 285/285/285 287/287/287 286/286/286
f 288/288/288 290/290/290 289/289/289
f 291/291/291 293/293/293 292/292/292
f 294/294/294 296/296/296 295/295/295
f 297/297/297 299/299/299 298/298/298
f 300/300/300 302/302/302 301/301/301
f 303/303/303 305/305/305 304/304/304
f 306/306/306 308/308/308 307/307/307
f 309/309/309 311/311/311 310/310/310
f 312/312/312 314/314/314 313/313/313
f 313/313/313 315/315/315 312/312/312
f 316/316/316 318/318/318 317/317/317
f 317/317/317 319/319/319 316/316/316
f 320/320/320 322/322/322 321/321/321
f 321/321/321 323/323/323 320/320/320
f 324/324/324 326/326/326 325/325/325
f 325/325/325 327/327/327 324/324/324
f 328/328/328 330/330/330 329/329/329
f 329/329/329 331/331/331 328/328/328
f 332/332/332 334/334/334 333/333/333
f 333/333/333 335/335/335 332/332/332
f 336/336/336 338/338/338 337/337/337
f 337/337/337 339/339/339 336/336/336
f 340/340/340 342/342/342 341/341/341
f 341/341/341 343/343/343 340/340/340
f 344/344/344 346/346/346 345/345/345
f 345/345/345 347/347/347 344/344/344
f 348/348/348 350/350/350 349/349/349
f 349/349/349 351/351/351 348/348/348
f 352/352/352 354/354/354 353/353/353
f 353/353/353 355/355/355 352/352/352
f 356/356/356 358/358/358 357/357/357
f 357/357/357 359/359/359 356/356/356
f 360/360/360 362/362/362 361/361/361
f 361/361/361 363/363/363 360/360/360
f 364/364/364 366/366/366 365/365/365
f 365/365/365 367/367/367 364/364/364
f 368/368/368 370/370/370 369/369/369
f 369/369/369 371/371/371 368/368/368
f 372/372/372 374/374/374 373/373/373
f 373/373/373 375/375/375 372/372/372
f 376/376/376 378/378/378 377/377/377
f 377/377/377 379/379/379 376/376/376
f 380/380/380 382/382/382 381/381/381
f 381/381/381 383/383/383 380/380/380
f 384/384/384 386/386/386 385/385/385
f 385/385/385 387/387/387 384/384/384
f 388/388/388 390/390/390 389/389/389
f 389/389/389 391/391/391 388/388/388
f 392/392/392 394/394/394 393/393/393
f 393/393/393 395/395/395 392/392/392
f 396/396/396 398/398/398 397/397/397
f 397/397/397 399/399/399 396/396/396
f 400/400/400 402/402/402 401/401/401
f 401/401/401 403/403/403 400/400/400
f 404/404/404 406/406/406 405/405/405
f 405/405/405 407/407/407 404/404/404
f 408/408/408 410/410/410 409/409/409
f 409/409/409 411/411/411 408/408/408
f 412/412/412 414/414/414 413/413/413
f 413/413/413 415/415/415 412/412/412
f 416/416/416 418/418/418 417/417/417
f 417/417/417 419/419/419 416/416/416
f 420/420/420 422/422/422 421/421/421
f 421/421/421 423/423/423 420/420/420
f 424/424/424 426/426/426 425/425/425
f 425/425/425 427/427/427 424/424/424
f 428/428/428 430/430/430 429/429/429
f 429/429/429 431/431/431 428/428/428
f 432/432/432 434/434/434 433/433/433
f 433/433/433 435/435/435 432/432/432
f 432/432/432 437/437/437 436/436/436
f 436/436/436 438/438/438 432/432/432
f 439/439/439 441/441/441 440/440/440
f 440/440/440 442/442/442 439/439/439
f 443/443/443 445/445/445 444/444/444
f 444/444/444 446/446/446 443/443/443
f 447/447/447 449/449/449 448/448/448
f 448/448/448 450/450/450 447/447/447
f 451/451/451 453/453/453 452/452/452
f 452/452/452 454/454/454 451/451/451
f 455/455/455 457/457/457 456/456/456
f 456/456/456 458/458/458 455/455/455
f 459/459/459 461/461/461 460/460/460
f 460/460/460 462/462/462 459/459/459
f 463/463/463 465/465/465 464/464/464
f 464/464/464 466/466/466 463/463/463
f 467/467/467 469/469/469 468/468/468
f 468/468/468 470/470/470 467/467/467
f 471/471/471 473/473/473 472/472/472
f 472/472/472 474/474/474 471/471/471
f 475/475/475 477/477/477 476/476/476
f 476/476/476 478/478/478 475/475/475
f 479/479/479 481/481/481 480/480/480
f 480/480/480 482/482/482 479/479/479
f 483/483/483 485/485/485 484/484/484
f 484/484/484 486/486/486 483/483/483
f 487/487/487 489/489/489 488/488/488
f 488/488/488 490/490/490 487/487/487
f 491/491/491 493/493/493 492/492/492
f 492/492/492 494/494/494 491/491/491
f 495/495/495 497/497/497 496/496/496
f 496/496/496 498/498/498 495/495/495
f 499/499/499 501/501/501 500/500/500
f 500/500/500 502/502/502 499/499/499
f 503/503/503 505/505/505 504/504/504
f 504/504/504 506/506/506 503/503/503
f 507/507/507 509/509/509 508/508/508
f 508/508/508 510/510/510 507/507/507
f 511/511/511 513/513/513 512/512/512
f 512/512/512 514/514/514 511/511/511
f 515/515/515 517/517/517 516/516/516
f 516/516/516 518/518/518 515/515/515
f 519/519/519 521/521/521 520/520/520
f 520/520/520 522/522/522 519/519/519
f 523/523/523 525/525/525 524/524/524
f 524/524/524 526/526/526 523/523/523
f 527/527/527 529/529/529 528/528/528
f 528/528/528 530/530/530 527/527/527
f 531/531/531 533/533/533 532/532/532
f 532/532/532 534/534/534 531/531/531
f 535/535/535 537/537/537 536/536/536
f 536/536/536 538/538/538 535/535/535
f 539/539/539 541/541/541 540/540/540
f 540/540/540 542/542/542 539/539/539
f 542/542/542 543/543/543 539/539/539
f 543/543/543 542/542/542 544/544/544
f 544/544/544 545/545/545 543/543/543
f 546/546/546 545/545/545 544/544/544
