#Rock_03_Desert_403_49.obj

v -1.040546 -2.093697 2.49588E-07
v -0.9054832 -1.825653 0.9247531
v -0.6453514 -2.597984 3.097034E-07
v -1.207693 1.052658 1.966169
v -1.828279 0.5733566 1.681907
v -1.559284 1.012276 1.711486
v -1.828279 0.5733566 1.681907
v -1.207693 1.052658 1.966169
v -1.692253 0.1304703 1.96617
v -1.207693 1.052658 1.966169
v 0.6614456 1.694183 1.864227
v 1.227083 0.8163376 1.978696
v 0.6614456 1.694183 1.864227
v -1.207693 1.052658 1.966169
v -0.453249 1.689911 1.825472
v 0.5146255 -0.2079468 2.609118
v -0.02490807 -1.977989 1.496016
v 0.04881859 -0.7126083 2.631212
v -0.02490807 -1.977989 1.496016
v 0.5146255 -0.2079468 2.609118
v 1.080151 -0.8054047 1.978697
v -0.9054832 -1.825653 0.9247531
v -1.040546 -2.093697 2.49588E-07
v -1.622898 -2.095314 2.49781E-07
v -2.372114 1.715187 -2.044664E-07
v -1.828279 0.5733566 1.681907
v -2.693609 1.221779 -1.456476E-07
v -1.828279 0.5733566 1.681907
v -2.372114 1.715187 -2.044664E-07
v -1.559284 1.012276 1.711486
v -1.634811 -0.6586838 1.814605
v -1.103991 -0.2198257 2.630112
v -0.8832951 -0.2991638 2.647391
v -1.032173 -0.04159546 2.620867
v -1.692253 0.1304703 1.96617
v -0.7491817 0.0868988 2.690533
v 1.009754 2.877388 -3.430111E-07
v 1.227083 0.8163376 1.978696
v 0.6614456 1.694183 1.864227
v 2.303532 1.754044 -2.090983E-07
v 0.05438423 -2.957794 3.525964E-07
v 1.080151 -0.8054047 1.978697
v 2.112532 -1.729202 2.061373E-07
v -0.02490807 -1.977989 1.496016
v -2.330269 0.1907959 -2.27445E-08
v -1.634811 -0.6586838 1.814605
v -2.328573 -1.408646 0.0119768
v -1.692253 0.1304703 1.96617
v 0.04881859 -0.7126083 2.631212
v 0.4909115 0.5704651 2.630101
v 0.5146255 -0.2079468 2.609118
v -0.8832951 -0.2991638 2.647391
v -0.7491817 0.0868988 2.690533
v -0.5522957 0.653656 2.668665
v -1.616322 1.773499 -2.114171E-07
v -1.559284 1.012276 1.711486
v -2.372114 1.715187 -2.044664E-07
v -1.207693 1.052658 1.966169
v 0.4909115 0.5704651 2.630101
v 1.080151 -0.8054047 1.978697
v 0.5146255 -0.2079468 2.609118
v 1.227083 0.8163376 1.978696
v 0.04881859 -0.7126083 2.631212
v -1.634811 -0.6586838 1.814605
v -0.8832951 -0.2991638 2.647391
v -0.02490807 -1.977989 1.496016
v -0.7491817 0.0868988 2.690533
v -1.207693 1.052658 1.966169
v -0.5522957 0.653656 2.668665
v -1.692253 0.1304703 1.96617
v -0.5522957 0.653656 2.668665
v 1.227083 0.8163376 1.978696
v 0.4909115 0.5704651 2.630101
v -1.207693 1.052658 1.966169
v 1.009754 2.877388 -3.430111E-07
v -0.453249 1.689911 1.825472
v -0.8330822 2.957794 -3.525964E-07
v 0.6614456 1.694183 1.864227
v -0.6453514 -2.597984 3.097034E-07
v -0.02490807 -1.977989 1.496016
v 0.05438423 -2.957794 3.525964E-07
v -0.9054832 -1.825653 0.9247531
v -1.634811 -0.6586838 1.814605
v -1.622898 -2.095314 2.49781E-07
v -2.328573 -1.408646 0.0119768
v -1.828279 0.5733566 1.681907
v -2.330269 0.1907959 -2.27445E-08
v -2.693609 1.221779 -1.456476E-07
v -1.692253 0.1304703 1.96617
v -0.453249 1.689911 1.825472
v -1.616322 1.773499 -2.114171E-07
v -0.8330822 2.957794 -3.525964E-07
v -1.207693 1.052658 1.966169
v 1.582701 0.4610138 1.469878
v 1.227083 0.8163376 1.978696
v 2.303532 1.754044 -2.090983E-07
v 1.080151 -0.8054047 1.978697
v 1.577246 -0.297493 1.372197
v 2.112532 -1.729202 2.061373E-07
v 2.602873 -0.6287079 7.494756E-08
v 2.033369 0.4834366 1.205799
v 2.693609 1.026047 -1.223138E-07
v 2.049225 -0.1514053 1.096915
v 1.577246 -0.297493 1.372197
v 2.602873 -0.6287079 7.494756E-08
v 2.112532 -1.729202 2.061373E-07
v 2.049225 -0.1514053 1.096915
v 1.582701 0.4610138 1.469878
v 2.049225 -0.1514053 1.096915
v 1.577246 -0.297493 1.372197
v 2.033369 0.4834366 1.205799
v 2.033369 0.4834366 1.205799
v 2.303532 1.754044 -2.090983E-07
v 2.693609 1.026047 -1.223138E-07
v 1.582701 0.4610138 1.469878
v -1.032173 -0.04159546 2.620867
v -0.8832951 -0.2991638 2.647391
v -1.103991 -0.2198257 2.630112
v -0.7491817 0.0868988 2.690533
v -1.103991 -0.2198257 2.630112
v -1.692253 0.1304703 1.96617
v -1.032173 -0.04159546 2.620867
v -1.634811 -0.6586838 1.814605

vn -0.7553711 0.2817383 0.5917969
vn -0.7553711 0.2817383 0.5917969
vn -0.7553711 0.2817383 0.5917969
vn -0.581543 0.7539063 -0.3054199
vn -0.581543 0.7539063 -0.3054199
vn -0.581543 0.7539063 -0.3054199
vn -0.581543 0.7539063 -0.3054199
vn -0.581543 0.7539063 -0.3054199
vn -0.581543 0.7539063 -0.3054199
vn -0.01200104 0.9814453 -0.190918
vn 0.001236916 0.9882813 -0.1534424
vn 0.0079422 0.9907227 -0.1342773
vn 0.001236916 0.9882813 -0.1534424
vn -0.01200104 0.9814453 -0.190918
vn -0.03457642 0.9663086 -0.2543945
vn 0.4338379 0.6972656 0.5708008
vn 0.4995117 0.5478516 0.6713867
vn 0.6171875 0.5673828 0.5449219
vn 0.4995117 0.5478516 0.6713867
vn 0.4338379 0.6972656 0.5708008
vn 0.3554688 0.6821289 0.6391602
vn 0.002670288 0.2780762 0.9604492
vn 0.002670288 0.2780762 0.9604492
vn 0.002670288 0.2780762 0.9604492
vn -0.7050781 0.5400391 -0.4594727
vn -0.7050781 0.5400391 -0.4594727
vn -0.7050781 0.5400391 -0.4594727
vn -0.7412109 0.5244141 -0.4189453
vn -0.7412109 0.5244141 -0.4189453
vn -0.7412109 0.5244141 -0.4189453
vn -0.3117676 0.5996094 0.7368164
vn -0.3117676 0.5996094 0.7368164
vn -0.3117676 0.5996094 0.7368164
vn -0.4458008 0.6191406 -0.6459961
vn -0.4458008 0.6191406 -0.6459961
vn -0.4458008 0.6191406 -0.6459961
vn 0.581543 0.5551758 -0.5942383
vn 0.637207 0.5209961 -0.5673828
vn 0.715332 0.4648438 -0.5214844
vn 0.5332031 0.581543 -0.6142578
vn 0.4616699 0.5322266 0.7094727
vn 0.3554688 0.6821289 0.6391602
vn 0.4262695 0.5556641 0.7138672
vn 0.4995117 0.5478516 0.6713867
vn -0.9379883 0.3452148 0.03065491
vn -0.9003906 0.4211426 0.1112671
vn -0.9335938 0.3586426 -0.001695633
vn -0.8720703 0.473877 0.1208496
vn 0.02818298 0.9995117 0.008842468
vn 0.0447998 0.9990234 0.01739502
vn 0.07397461 0.9970703 0.02462769
vn 0.05227661 0.996582 0.06280518
vn 0.08709717 0.9912109 0.09942627
vn 0.03890991 0.9990234 -0.02502441
vn -0.1015015 0.4072266 -0.9077148
vn -0.3320313 0.3925781 -0.8579102
vn -0.07025146 0.4072266 -0.9106445
vn -0.3769531 0.3869629 -0.8417969
vn 0.6958008 0.7172852 0.04150391
vn 0.78125 0.6157227 0.1013184
vn 0.746582 0.6650391 -0.004814148
vn 0.7705078 0.6367188 0.01622009
vn -0.3474121 0.6733398 0.652832
vn -0.4291992 0.6010742 0.6743164
vn -0.3151855 0.6015625 0.734375
vn -0.4223633 0.5776367 0.6987305
vn -0.6044922 0.7480469 -0.2739258
vn -0.5917969 0.7539063 -0.284668
vn -0.6337891 0.7324219 -0.2484131
vn -0.5722656 0.7631836 -0.3005371
vn 0.08538818 0.4318848 -0.8979492
vn 0.08618164 0.4338379 -0.8969727
vn 0.08752441 0.4367676 -0.8950195
vn 0.08496094 0.4309082 -0.8984375
vn 0.01850891 0.5556641 -0.8310547
vn 0.003099442 0.546875 -0.8369141
vn 0.03598022 0.5649414 -0.8242188
vn -0.02177429 0.5327148 -0.8457031
vn -0.4152832 0.4899902 0.7666016
vn -0.4223633 0.5776367 0.6987305
vn -0.3994141 0.4873047 0.7763672
vn -0.4560547 0.5288086 0.7158203
vn -0.4291992 0.6010742 0.6743164
vn -0.5429688 0.519043 0.6601563
vn -0.6025391 0.4929199 0.6279297
vn -0.9384766 0.3132324 0.1453857
vn -0.8994141 0.3327637 0.2827148
vn -0.8881836 0.3361816 0.3129883
vn -0.9477539 0.3046875 0.09558105
vn -0.6186523 0.4243164 -0.6611328
vn -0.6894531 0.4645996 -0.5556641
vn -0.7290039 0.4863281 -0.4819336
vn -0.5522461 0.3857422 -0.7392578
vn 0.8256836 0.5634766 -0.01335907
vn 0.7705078 0.6367188 0.01622009
vn 0.8496094 0.515625 -0.1122437
vn 0.78125 0.6157227 0.1013184
vn 0.8178711 0.5600586 0.1320801
vn 0.831543 0.5224609 0.1898193
vn 0.8837891 0.4648438 0.0512085
vn 0.8833008 0.4658203 0.05255127
vn 0.8852539 0.4628906 0.04852295
vn 0.8808594 0.4699707 0.05862427
vn 0.6352539 0.59375 0.4936523
vn 0.6987305 0.6118164 0.3708496
vn 0.7197266 0.6157227 0.3208008
vn 0.5219727 0.5478516 0.6538086
vn 0.5151367 0.8481445 0.1239014
vn 0.5185547 0.8466797 0.1204224
vn 0.5263672 0.8427734 0.1123047
vn 0.5058594 0.8520508 0.1335449
vn 0.454834 0.6923828 -0.5600586
vn 0.6708984 0.6040039 -0.4304199
vn 0.7236328 0.5708008 -0.3876953
vn 0.3859863 0.7089844 -0.590332
vn -0.1600342 0.9873047 -0.009185791
vn -0.1495361 0.9887695 -0.01535797
vn -0.05187988 0.9960938 -0.0725708
vn -0.2259521 0.9736328 0.03031921
vn -0.7080078 0.6948242 -0.1276855
vn -0.8720703 0.473877 0.1208496
vn -0.6337891 0.7158203 -0.2924805
vn -0.9003906 0.4211426 0.1112671

vt 0.2976074 0
vt 0.2436523 0.4663086
vt 0.3837891 0
vt 0.8100586 1
vt 1 0.8793945
vt 0.8999023 0.8920898
vt 1 0.8793945
vt 0.8100586 1
vt 1 1
vt 0.1899414 1
vt 0.75 1
vt 1 1
vt 0.75 1
vt 0.1899414 1
vt 0.5 1
vt 0.8652344 0.3852539
vt 0.5 0
vt 0.6171875 0.1051025
vt 0.5 0
vt 0.8652344 0.3852539
vt 1 0
vt 0.2436523 0.4663086
vt 0.2976074 0
vt 0.2216797 0
vt -0.1478271 -0.1292725
vt 0 0.8793945
vt 0.15271 0
vt 0 0.8793945
vt -0.1478271 -0.1292725
vt -0.2785645 0.7924805
vt 0 0
vt 0.2700195 0.2946777
vt 0.2949219 0.2293701
vt 0.2958984 0.4316406
vt 0 1
vt 0.3474121 0.4619141
vt 0.25 0
vt 0 1
vt 0.25 1
vt 0 0
vt 0.5 0
vt 1 1
vt 1 0
vt 0.5 1
vt 0.4978027 0
vt 1 1
vt 1 0
vt 0 1
vt 0.6171875 0.1051025
vt 0.7543945 0.7973633
vt 0.8652344 0.3852539
vt 0.2949219 0.2293701
vt 0.3474121 0.4619141
vt 0.4245605 0.8037109
vt 0.7900391 0
vt 0.8999023 0.8920898
vt 0.918457 0
vt 0.8100586 1
vt 0.7543945 0.7973633
vt 1 0
vt 0.8652344 0.3852539
vt 1 1
vt 0.6171875 0.1051025
vt 0 0
vt 0.2949219 0.2293701
vt 0.5 0
vt 0.3474121 0.4619141
vt 0.1899414 1
vt 0.4245605 0.8037109
vt 0 1
vt 0.4245605 0.8037109
vt 1 1
vt 0.7543945 0.7973633
vt 0.1899414 1
vt 0.25 0
vt 0.5 1
vt 0.5 0
vt 0.25 1
vt 0.3837891 0
vt 0.5 1
vt 0.5 0
vt 0.2436523 0.4663086
vt 0 1
vt 0.2216797 0
vt 0 0
vt 0 0.8793945
vt 0.4978027 0
vt 0.15271 0
vt 0 1
vt 0.5 1
vt 0.7900391 0
vt 0.5 0
vt 0.8100586 1
vt 0.8291016 0.7451172
vt 1 1
vt 1 0
vt 0 1
vt 0.4501953 0.6953125
vt 0 0
vt 0.315918 0
vt 0.7993164 0.6108398
vt 0.7910156 0
vt 0.6025391 0.5566406
vt 0.4501953 0.6953125
vt 0.315918 0
vt 0 0
vt 0.6025391 0.5566406
vt 0.8291016 0.7451172
vt 0.6025391 0.5566406
vt 0.4501953 0.6953125
vt 0.7993164 0.6108398
vt 0.7993164 0.6108398
vt 1 0
vt 0.7910156 0
vt 0.8291016 0.7451172
vt 0.2958984 0.4316406
vt 0.2949219 0.2293701
vt 0.2700195 0.2946777
vt 0.3474121 0.4619141
vt 0.2700195 0.2946777
vt 0 1
vt 0.2958984 0.4316406
vt 0 0

g Rock_03_Desert_403_49
usemtl Rock_03_Desert_403_49
usemap Rock_03_Desert_403_49
f 1/1/1 3/3/3 2/2/2
f 4/4/4 6/6/6 5/5/5
f 7/7/7 9/9/9 8/8/8
f 10/10/10 12/12/12 11/11/11
f 13/13/13 15/15/15 14/14/14
f 16/16/16 18/18/18 17/17/17
f 19/19/19 21/21/21 20/20/20
f 22/22/22 24/24/24 23/23/23
f 25/25/25 27/27/27 26/26/26
f 28/28/28 30/30/30 29/29/29
f 31/31/31 33/33/33 32/32/32
f 34/34/34 36/36/36 35/35/35
f 37/37/37 39/39/39 38/38/38
f 38/38/38 40/40/40 37/37/37
f 41/41/41 43/43/43 42/42/42
f 42/42/42 44/44/44 41/41/41
f 45/45/45 47/47/47 46/46/46
f 46/46/46 48/48/48 45/45/45
f 49/49/49 51/51/51 50/50/50
f 50/50/50 52/52/52 49/49/49
f 53/53/53 52/52/52 50/50/50
f 50/50/50 54/54/54 53/53/53
f 55/55/55 57/57/57 56/56/56
f 56/56/56 58/58/58 55/55/55
f 59/59/59 61/61/61 60/60/60
f 60/60/60 62/62/62 59/59/59
f 63/63/63 65/65/65 64/64/64
f 64/64/64 66/66/66 63/63/63
f 67/67/67 69/69/69 68/68/68
f 68/68/68 70/70/70 67/67/67
f 71/71/71 73/73/73 72/72/72
f 72/72/72 74/74/74 71/71/71
f 75/75/75 77/77/77 76/76/76
f 76/76/76 78/78/78 75/75/75
f 79/79/79 81/81/81 80/80/80
f 80/80/80 82/82/82 79/79/79
f 80/80/80 83/83/83 82/82/82
f 84/84/84 82/82/82 83/83/83
f 83/83/83 85/85/85 84/84/84
f 86/86/86 88/88/88 87/87/87
f 87/87/87 89/89/89 86/86/86
f 90/90/90 92/92/92 91/91/91
f 91/91/91 93/93/93 90/90/90
f 94/94/94 96/96/96 95/95/95
f 94/94/94 95/95/95 97/97/97
f 97/97/97 98/98/98 94/94/94
f 97/97/97 99/99/99 98/98/98
f 100/100/100 102/102/102 101/101/101
f 101/101/101 103/103/103 100/100/100
f 104/104/104 106/106/106 105/105/105
f 105/105/105 107/107/107 104/104/104
f 108/108/108 110/110/110 109/109/109
f 109/109/109 111/111/111 108/108/108
f 112/112/112 114/114/114 113/113/113
f 113/113/113 115/115/115 112/112/112
f 116/116/116 118/118/118 117/117/117
f 117/117/117 119/119/119 116/116/116
f 120/120/120 122/122/122 121/121/121
f 121/121/121 123/123/123 120/120/120
