#Rock_01_Volcano_632_34.obj

v 0.1904392 -0.6656342 0.3591128
v 0.3845596 -9.548702E-17 0.5198243
v 0.8965034 -4.011124E-17 0.2183626
v 0.0426712 0.6355934 0.478179
v 0.8874607 0.5123768 1.521396E-08
v 0.6888084 0.4223022 0.3374289
v 0.0426712 0.8157406 -2.094988E-08
v 0.8965034 -4.011124E-17 0.2183626
v 0.8874607 0.5123768 1.521396E-08
v 1.035372 -1.401451E-23 7.629394E-08
v 0.6888084 0.4223022 0.3374289
v -0.9187489 -5.565126E-17 0.3029613
v -0.6271477 0.1983051 5.265421E-08
v -0.5299129 0.1414127 0.478179
v -1.035372 -1.401451E-23 7.629396E-08
v 0.0426712 0.6355934 0.478179
v -0.6271477 0.1983051 5.265421E-08
v 0.0426712 0.8157406 -2.094988E-08
v -0.5299129 0.1414127 0.478179
v -0.9187489 -5.565126E-17 0.3029613
v -0.8874607 -0.5123768 1.373739E-07
v -1.035372 -1.401451E-23 7.629396E-08
v -0.7314491 -0.4223022 0.4781791
v 0.1904392 -0.6656342 0.3591128
v -0.09823227 -0.5879192 1.463795E-07
v -0.07574081 -0.4704704 0.4781791
v 0.2385521 -0.7489681 1.65578E-07
v -0.7314491 -0.4223022 0.4781791
v -0.09823227 -0.5879192 1.463795E-07
v -0.8874607 -0.5123768 1.373739E-07
v -0.07574081 -0.4704704 0.4781791
v 0.1904392 -0.6656342 0.3591128
v 1.035372 -1.401451E-23 7.629394E-08
v 0.2385521 -0.7489681 1.65578E-07
v 0.8965034 -4.011124E-17 0.2183626
v -0.2971916 -0.1715832 0.5690649
v 0.3845596 -9.548702E-17 0.5198243
v -0.03695679 -0.2295551 0.5565699
v 0.3540039 0.2043839 0.5571747
v 0.01823807 0.2716618 0.5658333
v 0.3845596 -9.548702E-17 0.5198243
v 0.1904392 -0.6656342 0.3591128
v -0.03695679 -0.2295551 0.5565699
v -0.07574081 -0.4704704 0.4781791
v 0.6888084 0.4223022 0.3374289
v 0.3845596 -9.548702E-17 0.5198243
v 0.3540039 0.2043839 0.5571747
v 0.8965034 -4.011124E-17 0.2183626
v 0.3540039 0.2043839 0.5571747
v 0.0426712 0.6355934 0.478179
v 0.6888084 0.4223022 0.3374289
v 0.01823807 0.2716618 0.5658333
v 0.01823807 0.2716618 0.5658333
v -0.5299129 0.1414127 0.478179
v 0.0426712 0.6355934 0.478179
v -0.2971916 -0.1715832 0.5690649
v -0.7314491 -0.4223022 0.4781791
v -0.9187489 -5.565126E-17 0.3029613
v -0.2971916 -0.1715832 0.5690649
v -0.07574081 -0.4704704 0.4781791
v -0.7314491 -0.4223022 0.4781791
v -0.03695679 -0.2295551 0.5565699

vn 0.3122559 0.8945313 0.3200684
vn 0.4023438 0.855957 0.3239746
vn 0.4780273 0.8120117 0.3354492
vn 0.3300781 0.3581543 -0.8735352
vn 0.3447266 0.3891602 -0.8540039
vn 0.3662109 0.4353027 -0.8222656
vn 0.3186035 0.3342285 -0.887207
vn 0.8198242 0.5214844 -0.2366943
vn 0.8198242 0.5214844 -0.2366943
vn 0.8198242 0.5214844 -0.2366943
vn 0.8056641 0.5395508 -0.2441406
vn -0.4099121 0.1894531 -0.8920898
vn -0.4099121 0.1894531 -0.8920898
vn -0.4099121 0.1894531 -0.8920898
vn -0.4309082 0.1658936 -0.887207
vn -0.6484375 0.2519531 -0.7182617
vn -0.6435547 0.236084 -0.7280273
vn -0.6533203 0.2668457 -0.7084961
vn -0.6376953 0.2175293 -0.7387695
vn -0.9008789 0.3469238 0.2600098
vn -0.9008789 0.3469238 0.2600098
vn -0.9008789 0.3469238 0.2600098
vn -0.9033203 0.3432617 0.2580566
vn -0.4748535 0.1960449 0.8579102
vn -0.4643555 0.185791 0.8657227
vn -0.5073242 0.2280273 0.8310547
vn -0.4265137 0.1499023 0.8920898
vn -0.08538818 0.2232666 0.9711914
vn -0.08007813 0.2298584 0.9697266
vn -0.09307861 0.213501 0.9726563
vn -0.07110596 0.2410889 0.9677734
vn 0.6645508 0.2756348 0.6948242
vn 0.6665039 0.3757324 0.6435547
vn 0.6625977 0.2524414 0.7050781
vn 0.6650391 0.4228516 0.6157227
vn 0.05914307 0.9980469 0.02243042
vn 0.1050415 0.9853516 0.1346436
vn 0.0592041 0.9970703 -0.0508728
vn 0.07910156 0.9912109 0.1056519
vn 0.02383423 0.9995117 0.009674072
vn 0.4023438 0.855957 0.3239746
vn 0.3122559 0.8945313 0.3200684
vn 0.2218018 0.9267578 0.3039551
vn 0.1732178 0.9282227 0.329834
vn 0.5239258 0.8515625 0.009796143
vn 0.543457 0.8388672 0.02909851
vn 0.5756836 0.8149414 0.06286621
vn 0.5073242 0.8618164 -0.006603241
vn 0.2375488 0.9106445 -0.3383789
vn 0.1987305 0.9287109 -0.3137207
vn 0.3164063 0.8662109 -0.387207
vn 0.07092285 0.9707031 -0.2290039
vn -0.2034912 0.9555664 -0.213623
vn -0.2817383 0.9482422 -0.1480713
vn -0.2091064 0.9472656 -0.2421875
vn -0.2235107 0.9677734 -0.1148682
vn -0.3630371 0.9228516 -0.1297607
vn -0.4538574 0.8759766 -0.1622314
vn -0.0224762 0.9516602 0.3061523
vn -0.0224762 0.9516602 0.3061523
vn -0.0224762 0.9516602 0.3061523
vn -0.0224762 0.9516602 0.3061523

vt 0.6621094 0.1586914
vt 0.706543 0.3598633
vt 0.8232422 0.3598633
vt 0.628418 0.5522461
vt 0.8989258 0.5751953
vt 0.7758789 0.4875488
vt 0.6328125 0.7016602
vt 0.8232422 0.3598633
vt 0.8989258 0.5751953
vt 0.9458008 0.3615723
vt 0.7758789 0.4875488
vt 0.4086914 0.3598633
vt 0.421875 0.4443359
vt 0.4975586 0.4025879
vt 0.2932129 0.3615723
vt 0.628418 0.5522461
vt 0.421875 0.4443359
vt 0.6328125 0.7016602
vt 0.4975586 0.4025879
vt 0.4086914 0.3598633
vt 0.3398438 0.1479492
vt 0.2932129 0.3615723
vt 0.451416 0.2322998
vt 0.6621094 0.1586914
vt 0.5883789 0.1165161
vt 0.6010742 0.2176514
vt 0.6948242 0.04934692
vt 0.451416 0.2322998
vt 0.5883789 0.1165161
vt 0.3398438 0.1479492
vt 0.6010742 0.2176514
vt 0.6621094 0.1586914
vt 0.9458008 0.3615723
vt 0.6948242 0.04934692
vt 0.8232422 0.3598633
vt 0.5507813 0.3081055
vt 0.706543 0.3598633
vt 0.6098633 0.2905273
vt 0.6992188 0.4216309
vt 0.6225586 0.4421387
vt 0.706543 0.3598633
vt 0.6621094 0.1586914
vt 0.6098633 0.2905273
vt 0.6010742 0.2176514
vt 0.7758789 0.4875488
vt 0.706543 0.3598633
vt 0.6992188 0.4216309
vt 0.8232422 0.3598633
vt 0.6992188 0.4216309
vt 0.628418 0.5522461
vt 0.7758789 0.4875488
vt 0.6225586 0.4421387
vt 0.6225586 0.4421387
vt 0.4975586 0.4025879
vt 0.628418 0.5522461
vt 0.5507813 0.3081055
vt 0.451416 0.2322998
vt 0.4086914 0.3598633
vt 0.5507813 0.3081055
vt 0.6010742 0.2176514
vt 0.451416 0.2322998
vt 0.6098633 0.2905273

g Rock_01_Volcano_632_34
usemtl Rock_01_Volcano_632_34
usemap Rock_01_Volcano_632_34
f 1/1/1 3/3/3 2/2/2
f 4/4/4 6/6/6 5/5/5
f 5/5/5 7/7/7 4/4/4
f 8/8/8 10/10/10 9/9/9
f 9/9/9 11/11/11 8/8/8
f 12/12/12 14/14/14 13/13/13
f 13/13/13 15/15/15 12/12/12
f 16/16/16 18/18/18 17/17/17
f 17/17/17 19/19/19 16/16/16
f 20/20/20 22/22/22 21/21/21
f 21/21/21 23/23/23 20/20/20
f 24/24/24 26/26/26 25/25/25
f 25/25/25 27/27/27 24/24/24
f 28/28/28 30/30/30 29/29/29
f 29/29/29 31/31/31 28/28/28
f 32/32/32 34/34/34 33/33/33
f 33/33/33 35/35/35 32/32/32
f 36/36/36 38/38/38 37/37/37
f 37/37/37 39/39/39 36/36/36
f 40/40/40 36/36/36 39/39/39
f 41/41/41 43/43/43 42/42/42
f 43/43/43 44/44/44 42/42/42
f 45/45/45 47/47/47 46/46/46
f 46/46/46 48/48/48 45/45/45
f 49/49/49 51/51/51 50/50/50
f 50/50/50 52/52/52 49/49/49
f 53/53/53 55/55/55 54/54/54
f 54/54/54 56/56/56 53/53/53
f 57/57/57 56/56/56 54/54/54
f 54/54/54 58/58/58 57/57/57
f 59/59/59 61/61/61 60/60/60
f 60/60/60 62/62/62 59/59/59
