#Rock_01_Grey_372_6.obj

v 0.1904392 -0.6656342 0.3591128
v 0.3845587 -9.548702E-17 0.5198243
v 0.8965034 -4.011124E-17 0.2183626
v 0.0426712 0.6355934 0.478179
v 0.8874617 0.5123758 1.521396E-08
v 0.6888084 0.4223022 0.3374289
v 0.0426712 0.8157406 -2.094988E-08
v 0.8965034 -4.011124E-17 0.2183626
v 0.8874617 0.5123758 1.521396E-08
v 1.035372 -1.401451E-23 7.629394E-08
v 0.6888084 0.4223022 0.3374289
v -0.9187489 -5.565126E-17 0.3029613
v -0.6271486 0.1983042 5.265421E-08
v -0.5299139 0.1414118 0.478179
v -1.035372 -1.401451E-23 7.629396E-08
v 0.0426712 0.6355934 0.478179
v -0.6271486 0.1983042 5.265421E-08
v 0.0426712 0.8157406 -2.094988E-08
v -0.5299139 0.1414118 0.478179
v -0.9187489 -5.565126E-17 0.3029613
v -0.8874617 -0.5123758 1.373739E-07
v -1.035372 -1.401451E-23 7.629396E-08
v -0.7314491 -0.4223022 0.4781791
v 0.1904392 -0.6656342 0.3591128
v -0.09823132 -0.5879202 1.463795E-07
v -0.07574081 -0.4704714 0.4781791
v 0.2385521 -0.7489691 1.65578E-07
v -0.7314491 -0.4223022 0.4781791
v -0.09823132 -0.5879202 1.463795E-07
v -0.8874617 -0.5123758 1.373739E-07
v -0.07574081 -0.4704714 0.4781791
v 0.1904392 -0.6656342 0.3591128
v 1.035372 -1.401451E-23 7.629394E-08
v 0.2385521 -0.7489691 1.65578E-07
v 0.8965034 -4.011124E-17 0.2183626
v -0.2971926 -0.1715841 0.5690649
v 0.3845587 -9.548702E-17 0.5198243
v -0.03695583 -0.2295551 0.5565699
v 0.3540039 0.2043848 0.5571747
v 0.01823807 0.2716627 0.5658333
v 0.3845587 -9.548702E-17 0.5198243
v 0.1904392 -0.6656342 0.3591128
v -0.03695583 -0.2295551 0.5565699
v -0.07574081 -0.4704714 0.4781791
v 0.6888084 0.4223022 0.3374289
v 0.3845587 -9.548702E-17 0.5198243
v 0.3540039 0.2043848 0.5571747
v 0.8965034 -4.011124E-17 0.2183626
v 0.3540039 0.2043848 0.5571747
v 0.0426712 0.6355934 0.478179
v 0.6888084 0.4223022 0.3374289
v 0.01823807 0.2716627 0.5658333
v 0.01823807 0.2716627 0.5658333
v -0.5299139 0.1414118 0.478179
v 0.0426712 0.6355934 0.478179
v -0.2971926 -0.1715841 0.5690649
v -0.7314491 -0.4223022 0.4781791
v -0.9187489 -5.565126E-17 0.3029613
v -0.2971926 -0.1715841 0.5690649
v -0.07574081 -0.4704714 0.4781791
v -0.7314491 -0.4223022 0.4781791
v -0.03695583 -0.2295551 0.5565699

vn 0.3121358 0.8944671 0.3201563
vn 0.4024021 0.8561838 0.3240712
vn 0.4780244 0.8117856 0.3354055
vn 0.3301306 0.3581947 -0.873333
vn 0.3448258 0.3890781 -0.8542328
vn 0.3662942 0.4351941 -0.8224567
vn 0.3185394 0.3341824 -0.8870485
vn 0.8198466 0.521382 -0.2366695
vn 0.8198466 0.521382 -0.2366695
vn 0.8198466 0.521382 -0.2366695
vn 0.8057691 0.5395548 -0.2441659
vn -0.4098832 0.1895028 -0.8922358
vn -0.4098832 0.1895028 -0.8922358
vn -0.4098832 0.1895028 -0.8922358
vn -0.4308952 0.1658692 -0.887027
vn -0.6486809 0.2519024 -0.7181632
vn -0.6437581 0.2361088 -0.7278929
vn -0.6531745 0.266951 -0.7085904
vn -0.6377201 0.2175881 -0.7388969
vn -0.9011155 0.3468765 0.2601298
vn -0.9011155 0.3468764 0.2601298
vn -0.9011155 0.3468764 0.2601298
vn -0.9030783 0.3432606 0.2581117
vn -0.4748022 0.1959931 0.8579918
vn -0.4643264 0.1858511 0.865945
vn -0.5073403 0.2279806 0.8310422
vn -0.4265375 0.1498423 0.8919716
vn -0.08540484 0.2232182 0.97102
vn -0.08005638 0.229917 0.969912
vn -0.09308518 0.2135555 0.9724863
vn -0.07110218 0.2410769 0.9678981
vn 0.6644098 0.2755544 0.6947154
vn 0.6667474 0.3758243 0.6435868
vn 0.662715 0.252403 0.7050543
vn 0.6648367 0.4228034 0.6158162
vn 0.05913467 0.9979981 0.02243022
vn 0.1050626 0.985303 0.1346846
vn 0.05920101 0.9969488 -0.05087854
vn 0.07909112 0.9912543 0.1056408
vn 0.02384021 0.9996691 0.009677341
vn 0.4024021 0.8561838 0.3240712
vn 0.3121358 0.8944671 0.3201563
vn 0.2218354 0.9265311 0.3038577
vn 0.17326 0.9279974 0.3298515
vn 0.5241223 0.8515868 0.009799637
vn 0.5433533 0.8390001 0.02909089
vn 0.5758993 0.8151004 0.06286123
vn 0.5074062 0.8616819 -0.006603734
vn 0.2375689 0.9105451 -0.3383325
vn 0.1987828 0.9285085 -0.3136198
vn 0.3164391 0.8660275 -0.3871213
vn 0.07093358 0.9708233 -0.2290646
vn -0.2035401 0.9554878 -0.2135762
vn -0.2816796 0.9480169 -0.1480571
vn -0.2090594 0.9474282 -0.2422275
vn -0.2235498 0.9679039 -0.1148381
vn -0.3630074 0.9227042 -0.1297802
vn -0.4538375 0.8761881 -0.1622532
vn -0.02248368 0.951745 0.3060659
vn -0.02248368 0.951745 0.3060659
vn -0.02248368 0.951745 0.3060659
vn -0.02248371 0.951745 0.3060659

vt 0.6620134 0.1586956
vt 0.7063566 0.3599222
vt 0.8233013 0.3599222
vt 0.6282586 0.5520673
vt 0.8990951 0.5752934
vt 0.775857 0.4875877
vt 0.6329197 0.7017893
vt 0.8233013 0.3599222
vt 0.8990951 0.5752934
vt 0.9456984 0.3616445
vt 0.775857 0.4875877
vt 0.408639 0.3599223
vt 0.4218735 0.4443331
vt 0.4974616 0.4026723
vt 0.2932509 0.3616447
vt 0.6282586 0.5520673
vt 0.4218735 0.4443331
vt 0.6329197 0.7017893
vt 0.4974616 0.4026723
vt 0.408639 0.3599223
vt 0.3398544 0.1479958
vt 0.2932509 0.3616447
vt 0.4514243 0.2322568
vt 0.6620134 0.1586956
vt 0.588524 0.1164956
vt 0.6012092 0.217695
vt 0.6946375 0.04934194
vt 0.4514243 0.2322568
vt 0.588524 0.1164956
vt 0.3398544 0.1479958
vt 0.6012092 0.217695
vt 0.6620134 0.1586956
vt 0.9456984 0.3616445
vt 0.6946375 0.04934194
vt 0.8233013 0.3599222
vt 0.5506226 0.308051
vt 0.7063566 0.3599222
vt 0.6100689 0.2905258
vt 0.6993769 0.4217093
vt 0.6226772 0.442048
vt 0.7063566 0.3599222
vt 0.6620134 0.1586956
vt 0.6100689 0.2905258
vt 0.6012092 0.217695
vt 0.775857 0.4875877
vt 0.7063566 0.3599222
vt 0.6993769 0.4217093
vt 0.8233013 0.3599222
vt 0.6993769 0.4217093
vt 0.6282586 0.5520673
vt 0.775857 0.4875877
vt 0.6226772 0.442048
vt 0.6226772 0.442048
vt 0.4974616 0.4026723
vt 0.6282586 0.5520673
vt 0.5506226 0.308051
vt 0.4514243 0.2322568
vt 0.408639 0.3599223
vt 0.5506226 0.308051
vt 0.6012092 0.217695
vt 0.4514243 0.2322568
vt 0.6100689 0.2905258

g Rock_01_Grey_372_6
usemtl Rock_01_Grey_372_6
usemap Rock_01_Grey_372_6
f 1/1/1 3/3/3 2/2/2
f 4/4/4 6/6/6 5/5/5
f 5/5/5 7/7/7 4/4/4
f 8/8/8 10/10/10 9/9/9
f 9/9/9 11/11/11 8/8/8
f 12/12/12 14/14/14 13/13/13
f 13/13/13 15/15/15 12/12/12
f 16/16/16 18/18/18 17/17/17
f 17/17/17 19/19/19 16/16/16
f 20/20/20 22/22/22 21/21/21
f 21/21/21 23/23/23 20/20/20
f 24/24/24 26/26/26 25/25/25
f 25/25/25 27/27/27 24/24/24
f 28/28/28 30/30/30 29/29/29
f 29/29/29 31/31/31 28/28/28
f 32/32/32 34/34/34 33/33/33
f 33/33/33 35/35/35 32/32/32
f 36/36/36 38/38/38 37/37/37
f 37/37/37 39/39/39 36/36/36
f 40/40/40 36/36/36 39/39/39
f 41/41/41 43/43/43 42/42/42
f 43/43/43 44/44/44 42/42/42
f 45/45/45 47/47/47 46/46/46
f 46/46/46 48/48/48 45/45/45
f 49/49/49 51/51/51 50/50/50
f 50/50/50 52/52/52 49/49/49
f 53/53/53 55/55/55 54/54/54
f 54/54/54 56/56/56 53/53/53
f 57/57/57 56/56/56 54/54/54
f 54/54/54 58/58/58 57/57/57
f 59/59/59 61/61/61 60/60/60
f 60/60/60 62/62/62 59/59/59
