#Shield_1173_7.obj

v -0.1719813 0.1804389 -0.3118725
v -0.1728256 0.1493744 -0.194172
v -0.1520505 0.1332338 -0.1886121
v -0.1994842 0.03034909 -0.2033201
v -0.1520505 0.1332338 -0.1886121
v -0.07943802 -0.01581789 -0.03768018
v 0.2481482 0.1555566 0.05409562
v 0.1939775 0.226452 -0.01337099
v 0.02639428 -0.008355293 -0.03077374
v 0.1161314 0.261891 -0.08571482
v 0.02639428 -0.008355293 -0.03077374
v 0.02567832 0.2542713 -0.1522611
v -0.06273084 0.2066837 -0.2014093
v 0.2369789 0.06430211 0.1310667
v 0.2387948 -0.0424372 0.1577707
v 0.05755961 -0.03161996 0.071367
v 0.3369349 0.1994899 0.08378435
v 0.2359046 0.1509152 0.1244262
v 0.2426567 0.1465699 0.1054657
v -0.1131541 0.2055158 -0.1869207
v -0.1289691 0.2083564 -0.1722278
v -0.09791236 0.2714737 -0.2744319
v 0.2369789 0.06430211 0.1310667
v 0.249746 0.07761523 0.1521963
v 0.3686858 0.09051845 0.1330722
v 0.1616255 -0.121795 0.003865264
v 0.1117099 -0.1118576 0.06872384
v 0.08461086 -0.110385 0.04392668
v 0.144503 -0.120795 -0.0119428
v 0.1616255 -0.121795 0.003865264
v 0.144503 -0.120795 -0.0119428
v 0.1632663 0.01515134 -0.02517464
v 0.1803887 0.01415125 -0.009366618
v 0.1632663 0.01515134 -0.02517464
v 0.1054725 0.036893 0.02913805
v 0.1318638 0.03540611 0.05339384
v 0.1803887 0.01415125 -0.009366618
v 0.1003643 -0.1286564 -0.09344656
v -0.005753321 -0.1093334 -0.005360674
v -0.1070286 -0.09267852 -0.1009167
v 0.02277739 -0.1159269 -0.1846165
v 0.1575009 0.006120521 -0.1171191
v 0.07160766 0.01726557 -0.2223368
v 0.03440152 0.05935686 -0.1924575
v 0.1189097 0.045986 -0.08537645
v 0.03440152 0.05935686 -0.1924575
v -0.05216269 0.08731193 -0.1286281
v 0.04010532 0.07547542 -0.02291053
v 0.1189097 0.045986 -0.08537645
v 0.1003643 -0.1286564 -0.09344656
v 0.02277739 -0.1159269 -0.1846165
v 0.08184537 -0.06348233 -0.2321947
v 0.143192 -0.07230774 -0.1258032
v 0.143192 -0.07230774 -0.1258032
v 0.08184537 -0.06348233 -0.2321947
v 0.07160766 0.01726557 -0.2223368
v 0.1575009 0.006120521 -0.1171191
v 0.3900099 0.2508483 0.09536279
v 0.4335315 0.09280116 0.1686478
v 0.3686858 0.09051845 0.1330722
v 0.3369349 0.1994899 0.08378435
v -0.1665066 -0.4129043 -0.1574896
v -0.2595353 -0.2957636 -0.2575321
v -0.2181853 -0.252166 -0.2216693
v -0.1374156 -0.3517106 -0.1383323
v 0.301131 0.3655729 -0.01003168
v 0.3900099 0.2508483 0.09536279
v 0.3369349 0.1994899 0.08378435
v 0.2599087 0.3096932 -0.01349959
v -0.03885189 -0.4690416 -0.04550515
v -0.1665066 -0.4129043 -0.1574896
v -0.1374156 -0.3517106 -0.1383323
v -0.02850701 -0.3995244 -0.04315356
v 0.03168336 0.410347 -0.2329222
v 0.175536 0.4216017 -0.1261671
v 0.1536607 0.3565408 -0.1121239
v 0.03072135 0.34763 -0.2022357
v 0.175536 0.4216017 -0.1261671
v 0.301131 0.3655729 -0.01003168
v 0.2599087 0.3096932 -0.01349959
v 0.1536607 0.3565408 -0.1121239
v 0.1028723 -0.4570141 0.06400662
v -0.03885189 -0.4690416 -0.04550515
v -0.02850701 -0.3995244 -0.04315356
v 0.09106404 -0.3896607 0.04986061
v -0.1084494 0.3337657 -0.3150317
v 0.03168336 0.410347 -0.2329222
v 0.03072135 0.34763 -0.2022357
v -0.09791236 0.2714737 -0.2744319
v 0.2382162 -0.3786943 0.1523192
v 0.1028723 -0.4570141 0.06400662
v 0.09106404 -0.3896607 0.04986061
v 0.2048447 -0.3226409 0.127001
v -0.2172704 0.20124 -0.3676731
v -0.1084494 0.3337657 -0.3150317
v -0.09791236 0.2714737 -0.2744319
v -0.1719813 0.1804389 -0.3118725
v 0.3512941 -0.2477143 0.1994473
v 0.2382162 -0.3786943 0.1523192
v 0.2048447 -0.3226409 0.127001
v 0.3024788 -0.2114729 0.1654503
v -0.2834171 0.03433372 -0.3754212
v -0.2172704 0.20124 -0.3676731
v -0.1719813 0.1804389 -0.3118725
v -0.2371927 0.0281122 -0.324139
v -0.2989071 -0.1401322 -0.3361701
v -0.2834171 0.03433372 -0.3754212
v -0.250181 -0.1202497 -0.2902733
v 0.420702 -0.08263084 0.2044535
v 0.3512941 -0.2477143 0.1994473
v 0.3024788 -0.2114729 0.1654503
v 0.3616387 -0.07110948 0.1683193
v 0.4335315 0.09280116 0.1686478
v 0.420702 -0.08263084 0.2044535
v 0.3686858 0.09051845 0.1330722
v -0.2595353 -0.2957636 -0.2575321
v -0.2989071 -0.1401322 -0.3361701
v -0.250181 -0.1202497 -0.2902733
v -0.2181853 -0.252166 -0.2216693
v 0.4335315 0.09280116 0.1686478
v 0.3900099 0.2508483 0.09536279
v 0.4139542 0.2421554 0.0643485
v 0.4574758 0.08410791 0.1376345
v -0.2595353 -0.2957636 -0.2575321
v -0.1665066 -0.4129043 -0.1574896
v -0.1429875 -0.4205334 -0.1879762
v -0.235591 -0.3044569 -0.2885455
v 0.3900099 0.2508483 0.09536279
v 0.301131 0.3655729 -0.01003168
v 0.3250753 0.35688 -0.04104597
v 0.4139542 0.2421554 0.0643485
v -0.1665066 -0.4129043 -0.1574896
v -0.03885189 -0.4690416 -0.04550515
v -0.01473199 -0.4775283 -0.07528632
v -0.1429875 -0.4205334 -0.1879762
v 0.175536 0.4216017 -0.1261671
v 0.03168336 0.410347 -0.2329222
v 0.05509556 0.4018469 -0.2632467
v 0.1989482 0.4131017 -0.1564915
v 0.301131 0.3655729 -0.01003168
v 0.175536 0.4216017 -0.1261671
v 0.1989482 0.4131017 -0.1564915
v 0.3250753 0.35688 -0.04104597
v -0.03885189 -0.4690416 -0.04550515
v 0.1028723 -0.4570141 0.06400662
v 0.1262845 -0.4655141 0.03368219
v -0.01473199 -0.4775283 -0.07528632
v 0.03168336 0.410347 -0.2329222
v -0.1084494 0.3337657 -0.3150317
v -0.08379737 0.3250862 -0.3455028
v 0.05509556 0.4018469 -0.2632467
v 0.1028723 -0.4570141 0.06400662
v 0.2382162 -0.3786943 0.1523192
v 0.2621606 -0.3873877 0.1213059
v 0.1262845 -0.4655141 0.03368219
v -0.1084494 0.3337657 -0.3150317
v -0.2172704 0.20124 -0.3676731
v -0.1931505 0.1927537 -0.3974553
v -0.08379737 0.3250862 -0.3455028
v 0.2382162 -0.3786943 0.1523192
v 0.3512941 -0.2477143 0.1994473
v 0.3752384 -0.2564071 0.1684331
v 0.2621606 -0.3873877 0.1213059
v -0.2172704 0.20124 -0.3676731
v -0.2834171 0.03433372 -0.3754212
v -0.2600049 0.0258337 -0.4057457
v -0.1931505 0.1927537 -0.3974553
v 0.3512941 -0.2477143 0.1994473
v 0.420702 -0.08263084 0.2044535
v 0.4442213 -0.09026036 0.1739678
v 0.3752384 -0.2564071 0.1684331
v -0.2834171 0.03433372 -0.3754212
v -0.2989071 -0.1401322 -0.3361701
v -0.2754949 -0.1486322 -0.3664945
v -0.2600049 0.0258337 -0.4057457
v 0.420702 -0.08263084 0.2044535
v 0.4335315 0.09280116 0.1686478
v 0.4574758 0.08410791 0.1376345
v 0.4442213 -0.09026036 0.1739678
v -0.2989071 -0.1401322 -0.3361701
v -0.2595353 -0.2957636 -0.2575321
v -0.235591 -0.3044569 -0.2885455
v -0.2754949 -0.1486322 -0.3664945
v -0.08379737 0.3250862 -0.3455028
v -0.1931505 0.1927537 -0.3974553
v -0.1700012 0.1727073 -0.3670382
v -0.07241026 0.2930605 -0.3185011
v 0.2621606 -0.3873877 0.1213059
v 0.3752384 -0.2564071 0.1684331
v 0.345704 -0.2340426 0.1462868
v 0.2422599 -0.3522711 0.1053315
v -0.1931505 0.1927537 -0.3974553
v -0.2306838 0.02153993 -0.3749793
v -0.1700012 0.1727073 -0.3670382
v -0.2600049 0.0258337 -0.4057457
v -0.2448489 -0.1363984 -0.339338
v -0.2754949 -0.1486322 -0.3664945
v 0.3752384 -0.2564071 0.1684331
v 0.4083393 -0.08385512 0.1502401
v 0.345704 -0.2340426 0.1462868
v 0.4442213 -0.09026036 0.1739678
v 0.4198438 0.07504923 0.1180442
v 0.4574758 0.08410791 0.1376345
v -0.2754949 -0.1486322 -0.3664945
v -0.235591 -0.3044569 -0.2885455
v -0.2092515 -0.2780026 -0.2663917
v -0.2448489 -0.1363984 -0.339338
v 0.4574758 0.08410791 0.1376345
v 0.4139542 0.2421554 0.0643485
v 0.3796333 0.2185991 0.05253226
v 0.4198438 0.07504923 0.1180442
v -0.235591 -0.3044569 -0.2885455
v -0.1429875 -0.4205334 -0.1879762
v -0.124101 -0.383339 -0.176895
v -0.2092515 -0.2780026 -0.2663917
v 0.4139542 0.2421554 0.0643485
v 0.3250753 0.35688 -0.04104597
v 0.2998038 0.3220036 -0.0438564
v 0.3796333 0.2185991 0.05253226
v -0.1429875 -0.4205334 -0.1879762
v -0.007942505 -0.4353559 -0.07494029
v -0.124101 -0.383339 -0.176895
v -0.01473199 -0.4775283 -0.07528632
v 0.1202281 -0.4244581 0.02442377
v 0.1262845 -0.4655141 0.03368219
v 0.1989482 0.4131017 -0.1564915
v 0.05509556 0.4018469 -0.2632467
v 0.05536759 0.3622518 -0.245013
v 0.1861987 0.3721835 -0.1490944
v 0.3250753 0.35688 -0.04104597
v 0.2998038 0.3220036 -0.0438564
v 0.05509556 0.4018469 -0.2632467
v -0.08379737 0.3250862 -0.3455028
v -0.07241026 0.2930605 -0.3185011
v 0.05536759 0.3622518 -0.245013
v 0.1262845 -0.4655141 0.03368219
v 0.2621606 -0.3873877 0.1213059
v 0.2422599 -0.3522711 0.1053315
v 0.1202281 -0.4244581 0.02442377
v -0.2181853 -0.252166 -0.2216693
v -0.250181 -0.1202497 -0.2902733
v -0.212297 -0.08541214 -0.1807649
v -0.1922942 -0.1836323 -0.1354819
v -0.1374156 -0.3517106 -0.1383323
v -0.2181853 -0.252166 -0.2216693
v -0.1922942 -0.1836323 -0.1354819
v -0.1315268 -0.2497445 -0.07234231
v 0.2599087 0.3096932 -0.01349959
v 0.3369349 0.1994899 0.08378435
v 0.2426567 0.1465699 0.1054657
v 0.1703054 0.2378498 0.02748194
v -0.02850701 -0.3995244 -0.04315356
v -0.1374156 -0.3517106 -0.1383323
v -0.1315268 -0.2497445 -0.07234231
v -0.04674083 -0.2837199 0.00264125
v 0.03072135 0.34763 -0.2022357
v 0.1536607 0.3565408 -0.1121239
v 0.08594458 0.2707613 -0.04802933
v -0.007687808 0.2672195 -0.1193273
v 0.1536607 0.3565408 -0.1121239
v 0.2599087 0.3096932 -0.01349959
v 0.1703054 0.2378498 0.02748194
v 0.08594458 0.2707613 -0.04802933
v 0.09106404 -0.3896607 0.04986061
v -0.02850701 -0.3995244 -0.04315356
v -0.04674083 -0.2837199 0.00264125
v 0.04646636 -0.2791142 0.0744669
v -0.09791236 0.2714737 -0.2744319
v 0.03072135 0.34763 -0.2022357
v -0.007687808 0.2672195 -0.1193273
v -0.1131541 0.2055158 -0.1869207
v 0.2048447 -0.3226409 0.127001
v 0.09106404 -0.3896607 0.04986061
v 0.04646636 -0.2791142 0.0744669
v 0.1304706 -0.2369322 0.1309624
v 0.3024788 -0.2114729 0.1654503
v 0.2048447 -0.3226409 0.127001
v 0.1304706 -0.2369322 0.1309624
v 0.196299 -0.1526909 0.155865
v -0.2371927 0.0281122 -0.324139
v -0.1719813 0.1804389 -0.3118725
v -0.1520505 0.1332338 -0.1886121
v -0.1994842 0.03034909 -0.2033201
v 0.3616387 -0.07110948 0.1683193
v 0.3024788 -0.2114729 0.1654503
v 0.196299 -0.1526909 0.155865
v 0.2387948 -0.0424372 0.1577707
v -0.250181 -0.1202497 -0.2902733
v -0.2371927 0.0281122 -0.324139
v -0.1994842 0.03034909 -0.2033201
v -0.212297 -0.08541214 -0.1807649
v -0.124101 -0.383339 -0.176895
v -0.007942505 -0.4353559 -0.07494029
v -0.0164145 -0.4162782 -0.06143802
v -0.1286476 -0.3667918 -0.1596516
v 0.1861987 0.3721835 -0.1490944
v 0.05536759 0.3622518 -0.245013
v 0.04478064 0.3526268 -0.2250975
v 0.1713655 0.3624767 -0.1324345
v 0.2998038 0.3220036 -0.0438564
v 0.1861987 0.3721835 -0.1490944
v 0.1713655 0.3624767 -0.1324345
v 0.2809381 0.313956 -0.03077451
v -0.007942505 -0.4353559 -0.07494029
v 0.1202281 -0.4244581 0.02442377
v 0.1074029 -0.4063331 0.03483266
v -0.0164145 -0.4162782 -0.06143802
v 0.05536759 0.3622518 -0.245013
v -0.07241026 0.2930605 -0.3185011
v -0.07842997 0.2861292 -0.2958147
v 0.04478064 0.3526268 -0.2250975
v 0.1202281 -0.4244581 0.02442377
v 0.2422599 -0.3522711 0.1053315
v 0.2248674 -0.33684 0.1129694
v 0.1074029 -0.4063331 0.03483266
v -0.07241026 0.2930605 -0.3185011
v -0.1700012 0.1727073 -0.3670382
v -0.1726551 0.1701833 -0.342988
v -0.07842997 0.2861292 -0.2958147
v 0.2422599 -0.3522711 0.1053315
v 0.345704 -0.2340426 0.1462868
v 0.3249457 -0.2230191 0.1525619
v 0.2248674 -0.33684 0.1129694
v -0.1700012 0.1727073 -0.3670382
v -0.2306838 0.02153993 -0.3749793
v -0.2305726 0.02428079 -0.3502707
v -0.1726551 0.1701833 -0.342988
v 0.345704 -0.2340426 0.1462868
v 0.4083393 -0.08385512 0.1502401
v 0.3855236 -0.07808226 0.1563981
v 0.3249457 -0.2230191 0.1525619
v -0.2306838 0.02153993 -0.3749793
v -0.2448489 -0.1363984 -0.339338
v -0.2448036 -0.1284478 -0.31614
v -0.2305726 0.02428079 -0.3502707
v 0.4083393 -0.08385512 0.1502401
v 0.4198438 0.07504923 0.1180442
v 0.3963864 0.0755987 0.1251707
v 0.3855236 -0.07808226 0.1563981
v -0.2448489 -0.1363984 -0.339338
v -0.2092515 -0.2780026 -0.2663917
v -0.2106875 -0.2648695 -0.24579
v -0.2448036 -0.1284478 -0.31614
v 0.4198438 0.07504923 0.1180442
v 0.3796333 0.2185991 0.05253226
v 0.3571249 0.2141588 0.06294481
v 0.3963864 0.0755987 0.1251707
v -0.2092515 -0.2780026 -0.2663917
v -0.124101 -0.383339 -0.176895
v -0.1286476 -0.3667918 -0.1596516
v -0.2106875 -0.2648695 -0.24579
v 0.3796333 0.2185991 0.05253226
v 0.2998038 0.3220036 -0.0438564
v 0.2809381 0.313956 -0.03077451
v 0.3571249 0.2141588 0.06294481
v -0.07842997 0.2861292 -0.2958147
v -0.1726551 0.1701833 -0.342988
v -0.1296431 0.1233999 -0.2366508
v -0.06273084 0.2066837 -0.2014093
v 0.2248674 -0.33684 0.1129694
v 0.3249457 -0.2230191 0.1525619
v 0.225781 -0.1570288 0.1175189
v 0.1537233 -0.2381741 0.09040152
v -0.1726551 0.1701833 -0.342988
v -0.2305726 0.02428079 -0.3502707
v -0.1709265 0.01971065 -0.2417686
v -0.1296431 0.1233999 -0.2366508
v 0.3249457 -0.2230191 0.1525619
v 0.3855236 -0.07808226 0.1563981
v 0.2687677 -0.05304852 0.1204077
v 0.225781 -0.1570288 0.1175189
v -0.2305726 0.02428079 -0.3502707
v -0.2448036 -0.1284478 -0.31614
v -0.1812239 -0.08951572 -0.2167943
v -0.1709265 0.01971065 -0.2417686
v 0.3855236 -0.07808226 0.1563981
v 0.3963864 0.0755987 0.1251707
v 0.2768296 0.05607979 0.09835228
v 0.2687677 -0.05304852 0.1204077
v -0.2448036 -0.1284478 -0.31614
v -0.2106875 -0.2648695 -0.24579
v -0.1577565 -0.1861903 -0.165807
v -0.1812239 -0.08951572 -0.2167943
v 0.3963864 0.0755987 0.1251707
v 0.3571249 0.2141588 0.06294481
v 0.2481482 0.1555566 0.05409562
v 0.2768296 0.05607979 0.09835228
v -0.2106875 -0.2648695 -0.24579
v -0.1286476 -0.3667918 -0.1596516
v -0.09837178 -0.2598875 -0.105072
v -0.1577565 -0.1861903 -0.165807
v 0.3571249 0.2141588 0.06294481
v 0.2809381 0.313956 -0.03077451
v 0.1939775 0.226452 -0.01337099
v 0.2481482 0.1555566 0.05409562
v -0.1286476 -0.3667918 -0.1596516
v -0.0164145 -0.4162782 -0.06143802
v -0.01758264 -0.2952155 -0.03510279
v -0.09837178 -0.2598875 -0.105072
v 0.1713655 0.3624767 -0.1324345
v 0.04478064 0.3526268 -0.2250975
v 0.02567832 0.2542713 -0.1522611
v 0.1161314 0.261891 -0.08571482
v 0.2809381 0.313956 -0.03077451
v 0.1713655 0.3624767 -0.1324345
v 0.1161314 0.261891 -0.08571482
v 0.1939775 0.226452 -0.01337099
v -0.0164145 -0.4162782 -0.06143802
v 0.1074029 -0.4063331 0.03483266
v 0.06992732 -0.2877069 0.03381813
v -0.01758264 -0.2952155 -0.03510279
v 0.04478064 0.3526268 -0.2250975
v -0.07842997 0.2861292 -0.2958147
v -0.06273084 0.2066837 -0.2014093
v 0.02567832 0.2542713 -0.1522611
v 0.1074029 -0.4063331 0.03483266
v 0.2248674 -0.33684 0.1129694
v 0.1537233 -0.2381741 0.09040152
v 0.06992732 -0.2877069 0.03381813
v 0.1703054 0.2378498 0.02748194
v 0.2426567 0.1465699 0.1054657
v 0.08048905 0.04458804 0.06886256
v 0.07037451 0.1435696 0.0194593
v -0.007687808 0.2672195 -0.1193273
v 0.08594458 0.2707613 -0.04802933
v 0.03503263 0.1535141 -0.009459953
v -0.000915523 0.1552235 -0.03884809
v 0.08594458 0.2707613 -0.04802933
v 0.1703054 0.2378498 0.02748194
v 0.07037451 0.1435696 0.0194593
v 0.03503263 0.1535141 -0.009459953
v -0.1131541 0.2055158 -0.1869207
v -0.007687808 0.2672195 -0.1193273
v -0.000915523 0.1552235 -0.03884809
v -0.06912971 0.06929308 -0.05473161
v -0.1520505 0.1332338 -0.1886121
v -0.1728256 0.1493744 -0.194172
v -0.09932631 -0.007492709 -0.02074357
v -0.07943802 -0.01581789 -0.03768018
v -0.07943802 -0.01581789 -0.03768018
v -0.09932631 -0.007492709 -0.02074357
v -0.05204394 -0.117698 0.04203463
v -0.03384569 -0.1233957 0.01844093
v 0.07037451 0.1435696 0.0194593
v 0.08048905 0.04458804 0.06886256
v -0.02033233 -0.02393497 0.02177014
v 0.03503263 0.1535141 -0.009459953
v 0.2426567 0.1465699 0.1054657
v 0.2359046 0.1509152 0.1244262
v 0.06951325 0.05282658 0.09616692
v 0.08048905 0.04458804 0.06886256
v 0.03503263 0.1535141 -0.009459953
v -0.02033233 -0.02393497 0.02177014
v -0.06912971 0.06929308 -0.05473161
v -0.000915523 0.1552235 -0.03884809
v 0.05755961 -0.03161996 0.071367
v 0.04718978 -0.02505127 0.09498963
v 0.249746 0.07761523 0.1521963
v 0.2369789 0.06430211 0.1310667
v -0.06912971 0.06929308 -0.05473161
v -0.09252344 0.07989817 -0.03767861
v -0.1289691 0.2083564 -0.1722278
v -0.1131541 0.2055158 -0.1869207
v -0.1812239 -0.08951572 -0.2167943
v -0.1577565 -0.1861903 -0.165807
v 0.02639428 -0.008355293 -0.03077374
v -0.1709265 0.01971065 -0.2417686
v -0.1296431 0.1233999 -0.2366508
v -0.06273084 0.2066837 -0.2014093
v 0.2768296 0.05607979 0.09835228
v 0.2481482 0.1555566 0.05409562
v 0.02639428 -0.008355293 -0.03077374
v 0.2687677 -0.05304852 0.1204077
v 0.225781 -0.1570288 0.1175189
v 0.1537233 -0.2381741 0.09040152
v -0.1577565 -0.1861903 -0.165807
v -0.09837178 -0.2598875 -0.105072
v 0.02639428 -0.008355293 -0.03077374
v -0.01758264 -0.2952155 -0.03510279
v 0.06992732 -0.2877069 0.03381813
v 0.02639428 -0.008355293 -0.03077374
v 0.1537233 -0.2381741 0.09040152
v 0.1886621 0.05567922 -0.06078503
v 0.1119845 0.07717409 0.02402979
v 0.1054725 0.036893 0.02913805
v 0.1632663 0.01515134 -0.02517464
v 0.215122 0.05352892 -0.0351368
v 0.1886621 0.05567922 -0.06078503
v 0.1529987 -0.1808806 -0.03470776
v 0.1800978 -0.1823533 -0.00991064
v 0.144503 -0.120795 -0.0119428
v 0.08461086 -0.110385 0.04392668
v 0.07642815 -0.1585152 0.04994581
v 0.1529987 -0.1808806 -0.03470776
v 0.1800978 -0.1823533 -0.00991064
v 0.1028197 -0.1600017 0.07420066
v 0.1117099 -0.1118576 0.06872384
v 0.1616255 -0.121795 0.003865264
v 0.1529987 -0.1808806 -0.03470776
v 0.07642815 -0.1585152 0.04994581
v 0.1028197 -0.1600017 0.07420066
v 0.1800978 -0.1823533 -0.00991064
v 0.1529987 -0.1808806 -0.03470776
v 0.1886621 0.05567922 -0.06078503
v 0.1632663 0.01515134 -0.02517464
v 0.144503 -0.120795 -0.0119428
v 0.1800978 -0.1823533 -0.00991064
v 0.1616255 -0.121795 0.003865264
v 0.1803887 0.01415125 -0.009366618
v 0.215122 0.05352892 -0.0351368
v 0.1803887 0.01415125 -0.009366618
v 0.1318638 0.03540611 0.05339384
v 0.1385516 0.07589421 0.04951673
v 0.215122 0.05352892 -0.0351368
v 0.215122 0.05352892 -0.0351368
v 0.1385516 0.07589421 0.04951673
v 0.1119845 0.07717409 0.02402979
v 0.1886621 0.05567922 -0.06078503
v 0.04273742 0.0713248 -0.1963012
v -0.05343239 0.09959552 -0.1272807
v -0.05216269 0.08731193 -0.1286281
v 0.03440152 0.05935686 -0.1924575
v 0.1502134 -0.0784943 -0.1348068
v 0.09092134 -0.06896466 -0.2409629
v 0.02766764 -0.1258874 -0.1907442
v 0.1029174 -0.1403988 -0.1008796
v 0.02277739 -0.1159269 -0.1846165
v -0.1070286 -0.09267852 -0.1009167
v -0.1097609 -0.1055011 -0.1028941
v 0.02766764 -0.1258874 -0.1907442
v 0.1029174 -0.1403988 -0.1008796
v -0.01280855 -0.1253062 -0.007485373
v -0.005753321 -0.1093334 -0.005360674
v 0.1003643 -0.1286564 -0.09344656
v 0.02766764 -0.1258874 -0.1907442
v -0.1097609 -0.1055011 -0.1028941
v -0.01280855 -0.1253062 -0.007485373
v 0.1029174 -0.1403988 -0.1008796
v 0.08136136 0.02390108 -0.229362
v 0.04273742 0.0713248 -0.1963012
v 0.03440152 0.05935686 -0.1924575
v 0.07160766 0.01726557 -0.2223368
v 0.1666867 0.00605497 -0.1261669
v 0.1575009 0.006120521 -0.1171191
v 0.1189097 0.045986 -0.08537645
v 0.1266064 0.05727638 -0.08836895
v 0.1189097 0.045986 -0.08537645
v 0.04010532 0.07547542 -0.02291053
v 0.0425219 0.08487231 -0.0248328
v 0.1266064 0.05727638 -0.08836895
v 0.1266064 0.05727638 -0.08836895
v 0.0425219 0.08487231 -0.0248328
v -0.05343239 0.09959552 -0.1272807
v 0.04273742 0.0713248 -0.1963012
v 0.1029174 -0.1403988 -0.1008796
v 0.1003643 -0.1286564 -0.09344656
v 0.143192 -0.07230774 -0.1258032
v 0.1502134 -0.0784943 -0.1348068
v 0.02766764 -0.1258874 -0.1907442
v 0.09092134 -0.06896466 -0.2409629
v 0.08184537 -0.06348233 -0.2321947
v 0.02277739 -0.1159269 -0.1846165
v 0.1666867 0.00605497 -0.1261669
v 0.08136136 0.02390108 -0.229362
v 0.09092134 -0.06896466 -0.2409629
v 0.1502134 -0.0784943 -0.1348068
v 0.1266064 0.05727638 -0.08836895
v 0.04273742 0.0713248 -0.1963012
v 0.08136136 0.02390108 -0.229362
v 0.1666867 0.00605497 -0.1261669
v 0.1502134 -0.0784943 -0.1348068
v 0.143192 -0.07230774 -0.1258032
v 0.1575009 0.006120521 -0.1171191
v 0.1666867 0.00605497 -0.1261669
v 0.09092134 -0.06896466 -0.2409629
v 0.08136136 0.02390108 -0.229362
v 0.07160766 0.01726557 -0.2223368
v 0.08184537 -0.06348233 -0.2321947
v -0.03384569 -0.1233957 0.01844093
v -0.05204394 -0.117698 0.04203463
v 0.04718978 -0.02505127 0.09498963
v 0.05755961 -0.03161996 0.071367
v 0.2369789 0.06430211 0.1310667
v 0.3686858 0.09051845 0.1330722
v 0.3616387 -0.07110948 0.1683193
v 0.2387948 -0.0424372 0.1577707
v -0.1289691 0.2083564 -0.1722278
v -0.1728256 0.1493744 -0.194172
v -0.1719813 0.1804389 -0.3118725
v -0.09791236 0.2714737 -0.2744319
v 0.3369349 0.1994899 0.08378435
v 0.3686858 0.09051845 0.1330722
v 0.249746 0.07761523 0.1521963
v 0.2359046 0.1509152 0.1244262
v -0.1728256 0.1493744 -0.194172
v -0.1289691 0.2083564 -0.1722278
v -0.09252344 0.07989817 -0.03767861
v -0.09932631 -0.007492709 -0.02074357
v 0.06951325 0.05282658 0.09616692
v 0.04718978 -0.02505127 0.09498963
v -0.05204394 -0.117698 0.04203463
v -0.03799844 -0.01843062 0.04467492
v -0.03799844 -0.01843062 0.04467492
v -0.05204394 -0.117698 0.04203463
v -0.09932631 -0.007492709 -0.02074357
v -0.09252344 0.07989817 -0.03767861
v 0.06951325 0.05282658 0.09616692
v 0.2359046 0.1509152 0.1244262
v 0.249746 0.07761523 0.1521963
v 0.04718978 -0.02505127 0.09498963
v 0.08048905 0.04458804 0.06886256
v 0.06951325 0.05282658 0.09616692
v -0.03799844 -0.01843062 0.04467492
v -0.02033233 -0.02393497 0.02177014
v -0.02033233 -0.02393497 0.02177014
v -0.03799844 -0.01843062 0.04467492
v -0.09252344 0.07989817 -0.03767861
v -0.06912971 0.06929308 -0.05473161
v -0.1994842 0.03034909 -0.2033201
v -0.07943802 -0.01581789 -0.03768018
v -0.03384569 -0.1233957 0.01844093
v -0.212297 -0.08541214 -0.1807649
v 0.2387948 -0.0424372 0.1577707
v 0.196299 -0.1526909 0.155865
v -0.03384569 -0.1233957 0.01844093
v 0.05755961 -0.03161996 0.071367
v -0.212297 -0.08541214 -0.1807649
v -0.03384569 -0.1233957 0.01844093
v -0.1315268 -0.2497445 -0.07234231
v -0.1922942 -0.1836323 -0.1354819
v -0.1315268 -0.2497445 -0.07234231
v -0.03384569 -0.1233957 0.01844093
v 0.04646636 -0.2791142 0.0744669
v -0.04674083 -0.2837199 0.00264125
v 0.04646636 -0.2791142 0.0744669
v -0.03384569 -0.1233957 0.01844093
v 0.196299 -0.1526909 0.155865
v 0.1304706 -0.2369322 0.1309624

vn 0.1573486 0.9677734 -0.1955566
vn 0.1573486 0.9677734 -0.1955566
vn 0.1573486 0.9677734 -0.1955566
vn -0.862793 0.1763916 -0.4736328
vn -0.862793 0.1763916 -0.4736328
vn -0.862793 0.1763916 -0.4736328
vn 0.8139648 0.05865479 0.578125
vn 0.8139648 0.05865479 0.578125
vn 0.8139648 0.05865479 0.578125
vn 0.8388672 0.05450439 0.5415039
vn 0.8388672 0.05450439 0.5415039
vn 0.8388672 0.05450439 0.5415039
vn 0.8378906 0.009727478 0.5458984
vn -0.6962891 -0.1211548 -0.7075195
vn -0.6962891 -0.1211548 -0.7075195
vn -0.6962891 -0.1211548 -0.7075195
vn -0.7871094 -0.03009033 0.6162109
vn -0.7871094 -0.03009033 0.6162109
vn -0.7871094 -0.03009033 0.6162109
vn -0.1365967 -0.9663086 -0.2189941
vn -0.1365967 -0.9663086 -0.2189941
vn -0.1365967 -0.9663086 -0.2189941
vn 0.4758301 0.2763672 -0.8349609
vn 0.4758301 0.2763672 -0.8349609
vn 0.4758301 0.2763672 -0.8349609
vn -0.4748535 -0.6943359 0.5410156
vn -0.4748535 -0.6943359 0.5410156
vn -0.4748535 -0.6943359 0.5410156
vn -0.4748535 -0.6943359 0.5410156
vn -0.7827148 0.1398926 -0.6064453
vn -0.7827148 0.1398926 -0.6064453
vn -0.7827148 0.1398926 -0.6064453
vn -0.7827148 0.1398926 -0.6064453
vn 0.4748535 0.6943359 -0.5410156
vn 0.4748535 0.6943359 -0.5410156
vn 0.4748535 0.6943359 -0.5410156
vn 0.4748535 0.6943359 -0.5410156
vn -0.4484863 -0.737793 0.5043945
vn -0.4484863 -0.737793 0.5043945
vn -0.4484863 -0.737793 0.5043945
vn -0.4484863 -0.737793 0.5043945
vn 0.01940918 0.7583008 -0.6518555
vn 0.01940918 0.7583008 -0.6518555
vn 0.01940918 0.7583008 -0.6518555
vn 0.01940918 0.7583008 -0.6518555
vn 0.4484863 0.737793 -0.5043945
vn 0.4484863 0.737793 -0.5043945
vn 0.4484863 0.737793 -0.5043945
vn 0.4484863 0.737793 -0.5043945
vn -0.9609375 -0.2692871 -0.0657959
vn -0.9609375 -0.2692871 -0.0657959
vn -0.9609375 -0.2692871 -0.0657959
vn -0.9609375 -0.2692871 -0.0657959
vn -0.7114258 0.4282227 -0.5571289
vn -0.7114258 0.4282227 -0.5571289
vn -0.7114258 0.4282227 -0.5571289
vn -0.7114258 0.4282227 -0.5571289
vn -0.7280273 -0.1165771 -0.6757813
vn -0.7280273 -0.1165771 -0.6757813
vn -0.7280273 -0.1165771 -0.6757813
vn -0.7280273 -0.1165771 -0.6757813
vn -0.7363281 0.2242432 -0.6381836
vn -0.7363281 0.2242432 -0.6381836
vn -0.7363281 0.2242432 -0.6381836
vn -0.7363281 0.2242432 -0.6381836
vn -0.8134766 -0.1035767 -0.5722656
vn -0.8134766 -0.1035767 -0.5722656
vn -0.8134766 -0.1035767 -0.5722656
vn -0.8134766 -0.1035767 -0.5722656
vn -0.7172852 0.1755371 -0.6743164
vn -0.7172852 0.1755371 -0.6743164
vn -0.7172852 0.1755371 -0.6743164
vn -0.7172852 0.1755371 -0.6743164
vn -0.8388672 -0.05450439 -0.5415039
vn -0.8388672 -0.05450439 -0.5415039
vn -0.8388672 -0.05450439 -0.5415039
vn -0.8388672 -0.05450439 -0.5415039
vn -0.8266602 -0.07897949 -0.5571289
vn -0.8266602 -0.07897949 -0.5571289
vn -0.8266602 -0.07897949 -0.5571289
vn -0.8266602 -0.07897949 -0.5571289
vn -0.706543 0.1512451 -0.6914063
vn -0.706543 0.1512451 -0.6914063
vn -0.706543 0.1512451 -0.6914063
vn -0.706543 0.1512451 -0.6914063
vn -0.8613281 -0.005683899 -0.5078125
vn -0.8613281 -0.005683899 -0.5078125
vn -0.8613281 -0.005683899 -0.5078125
vn -0.8613281 -0.005683899 -0.5078125
vn -0.6621094 0.1221313 -0.7392578
vn -0.6621094 0.1221313 -0.7392578
vn -0.6621094 0.1221313 -0.7392578
vn -0.6621094 0.1221313 -0.7392578
vn -0.862793 0.1078491 -0.4938965
vn -0.862793 0.1078491 -0.4938965
vn -0.862793 0.1078491 -0.4938965
vn -0.862793 0.1078491 -0.4938965
vn -0.6777344 -0.01144409 -0.7348633
vn -0.6777344 -0.01144409 -0.7348633
vn -0.6777344 -0.01144409 -0.7348633
vn -0.6777344 -0.01144409 -0.7348633
vn -0.8481445 0.1280518 -0.5136719
vn -0.8481445 0.1280518 -0.5136719
vn -0.8481445 0.1280518 -0.5136719
vn -0.8481445 0.1280518 -0.5136719
vn -0.8330078 0.1481934 -0.5327148
vn -0.8330078 0.1481934 -0.5327148
vn -0.8330078 0.1481934 -0.5327148
vn -0.6953125 -0.03149414 -0.7177734
vn -0.6953125 -0.03149414 -0.7177734
vn -0.6953125 -0.03149414 -0.7177734
vn -0.6953125 -0.03149414 -0.7177734
vn -0.7124023 -0.05157471 -0.699707
vn -0.7124023 -0.05157471 -0.699707
vn -0.7124023 -0.05157471 -0.699707
vn -0.8081055 0.2126465 -0.5498047
vn -0.8081055 0.2126465 -0.5498047
vn -0.8081055 0.2126465 -0.5498047
vn -0.8081055 0.2126465 -0.5498047
vn 0.1070557 -0.9677734 -0.2271729
vn 0.1070557 -0.9677734 -0.2271729
vn 0.1070557 -0.9677734 -0.2271729
vn 0.1070557 -0.9677734 -0.2271729
vn 0.1252441 0.9887695 -0.07940674
vn 0.1252441 0.9887695 -0.07940674
vn 0.1252441 0.9887695 -0.07940674
vn 0.1252441 0.9887695 -0.07940674
vn -0.1251221 -0.9887695 0.0793457
vn -0.1251221 -0.9887695 0.0793457
vn -0.1251221 -0.9887695 0.0793457
vn -0.1251221 -0.9887695 0.0793457
vn 0.4436035 0.8447266 -0.2988281
vn 0.4436035 0.8447266 -0.2988281
vn 0.4436035 0.8447266 -0.2988281
vn 0.4436035 0.8447266 -0.2988281
vn -0.5336914 -0.597168 0.5991211
vn -0.5336914 -0.597168 0.5991211
vn -0.5336914 -0.597168 0.5991211
vn -0.5336914 -0.597168 0.5991211
vn -0.4438477 -0.8447266 0.298584
vn -0.4438477 -0.8447266 0.298584
vn -0.4438477 -0.8447266 0.298584
vn -0.4438477 -0.8447266 0.298584
vn 0.5292969 0.597168 -0.6025391
vn 0.5292969 0.597168 -0.6025391
vn 0.5292969 0.597168 -0.6025391
vn 0.5292969 0.597168 -0.6025391
vn -0.6254883 -0.2432861 0.7412109
vn -0.6254883 -0.2432861 0.7412109
vn -0.6254883 -0.2432861 0.7412109
vn -0.6254883 -0.2432861 0.7412109
vn 0.6201172 0.2436523 -0.7456055
vn 0.6201172 0.2436523 -0.7456055
vn 0.6201172 0.2436523 -0.7456055
vn 0.6201172 0.2436523 -0.7456055
vn -0.6123047 0.1400146 0.7783203
vn -0.6123047 0.1400146 0.7783203
vn -0.6123047 0.1400146 0.7783203
vn -0.6123047 0.1400146 0.7783203
vn 0.6123047 -0.1398926 -0.7783203
vn 0.6123047 -0.1398926 -0.7783203
vn 0.6123047 -0.1398926 -0.7783203
vn 0.6123047 -0.1398926 -0.7783203
vn -0.4182129 0.5039063 0.7558594
vn -0.4182129 0.5039063 0.7558594
vn -0.4182129 0.5039063 0.7558594
vn -0.4182129 0.5039063 0.7558594
vn 0.4189453 -0.5039063 -0.7553711
vn 0.4189453 -0.5039063 -0.7553711
vn 0.4189453 -0.5039063 -0.7553711
vn 0.4189453 -0.5039063 -0.7553711
vn -0.331543 0.7993164 0.5009766
vn -0.331543 0.7993164 0.5009766
vn -0.331543 0.7993164 0.5009766
vn -0.331543 0.7993164 0.5009766
vn 0.3354492 -0.7998047 -0.4980469
vn 0.3354492 -0.7998047 -0.4980469
vn 0.3354492 -0.7998047 -0.4980469
vn 0.3354492 -0.7998047 -0.4980469
vn -0.1051025 0.9677734 0.2286377
vn -0.1051025 0.9677734 0.2286377
vn -0.1051025 0.9677734 0.2286377
vn -0.1051025 0.9677734 0.2286377
vn 0.8544922 -0.08355713 0.5126953
vn 0.8544922 -0.08355713 0.5126953
vn 0.8544922 -0.08355713 0.5126953
vn 0.8544922 -0.08355713 0.5126953
vn 0.6928711 -0.01319885 0.7211914
vn 0.6928711 -0.01319885 0.7211914
vn 0.6928711 -0.01319885 0.7211914
vn 0.6928711 -0.01319885 0.7211914
vn 0.824707 -0.1240234 0.5517578
vn 0.824707 -0.1240234 0.5517578
vn 0.824707 -0.1240234 0.5517578
vn 0.824707 -0.1240234 0.5517578
vn 0.8330078 -0.1483154 0.5327148
vn 0.8330078 -0.1483154 0.5327148
vn 0.7104492 0.006839752 0.7036133
vn 0.7104492 0.006839752 0.7036133
vn 0.7104492 0.006839752 0.7036133
vn 0.7104492 0.006839752 0.7036133
vn 0.7270508 0.02693176 0.6860352
vn 0.7270508 0.02693176 0.6860352
vn 0.800293 -0.1884766 0.5693359
vn 0.800293 -0.1884766 0.5693359
vn 0.800293 -0.1884766 0.5693359
vn 0.800293 -0.1884766 0.5693359
vn 0.7436523 0.09191895 0.6621094
vn 0.7436523 0.09191895 0.6621094
vn 0.7436523 0.09191895 0.6621094
vn 0.7436523 0.09191895 0.6621094
vn 0.746582 -0.1799316 0.640625
vn 0.746582 -0.1799316 0.640625
vn 0.746582 -0.1799316 0.640625
vn 0.746582 -0.1799316 0.640625
vn 0.8007813 0.08319092 0.5932617
vn 0.8007813 0.08319092 0.5932617
vn 0.8007813 0.08319092 0.5932617
vn 0.8007813 0.08319092 0.5932617
vn 0.7363281 -0.1556396 0.6582031
vn 0.7363281 -0.1556396 0.6582031
vn 0.7363281 -0.1556396 0.6582031
vn 0.7363281 -0.1556396 0.6582031
vn 0.706543 -0.1512451 0.6914063
vn 0.706543 -0.1512451 0.6914063
vn 0.8261719 0.03417969 0.5625
vn 0.8261719 0.03417969 0.5625
vn 0.8261719 0.03417969 0.5625
vn 0.8261719 0.03417969 0.5625
vn 0.8261719 0.03417969 0.5625
vn 0.8261719 0.03417969 0.5625
vn 0.8613281 0.00567627 0.5078125
vn 0.8613281 0.00567627 0.5078125
vn 0.8613281 0.00567627 0.5078125
vn 0.8613281 0.00567627 0.5078125
vn 0.6826172 -0.1022339 0.7236328
vn 0.6826172 -0.1022339 0.7236328
vn 0.6826172 -0.1022339 0.7236328
vn 0.6826172 -0.1022339 0.7236328
vn -0.7290039 0.5981445 -0.3334961
vn -0.7290039 0.5981445 -0.3334961
vn -0.7290039 0.5981445 -0.3334961
vn -0.7290039 0.5981445 -0.3334961
vn -0.5336914 0.612793 -0.5830078
vn -0.5336914 0.612793 -0.5830078
vn -0.5336914 0.612793 -0.5830078
vn -0.5336914 0.612793 -0.5830078
vn -0.7050781 -0.5375977 -0.4624023
vn -0.7050781 -0.5375977 -0.4624023
vn -0.7050781 -0.5375977 -0.4624023
vn -0.7050781 -0.5375977 -0.4624023
vn -0.4187012 0.5263672 -0.7397461
vn -0.4187012 0.5263672 -0.7397461
vn -0.4187012 0.5263672 -0.7397461
vn -0.4187012 0.5263672 -0.7397461
vn -0.9355469 -0.2995605 -0.185791
vn -0.9355469 -0.2995605 -0.185791
vn -0.9355469 -0.2995605 -0.185791
vn -0.9355469 -0.2995605 -0.185791
vn -0.8515625 -0.4472656 -0.2734375
vn -0.8515625 -0.4472656 -0.2734375
vn -0.8515625 -0.4472656 -0.2734375
vn -0.8515625 -0.4472656 -0.2734375
vn -0.329834 0.3999023 -0.8549805
vn -0.329834 0.3999023 -0.8549805
vn -0.329834 0.3999023 -0.8549805
vn -0.329834 0.3999023 -0.8549805
vn -0.9907227 -0.1090088 -0.08044434
vn -0.9907227 -0.1090088 -0.08044434
vn -0.9907227 -0.1090088 -0.08044434
vn -0.9907227 -0.1090088 -0.08044434
vn -0.2731934 0.2329102 -0.9331055
vn -0.2731934 0.2329102 -0.9331055
vn -0.2731934 0.2329102 -0.9331055
vn -0.2731934 0.2329102 -0.9331055
vn -0.2790527 -0.08325195 -0.956543
vn -0.2790527 -0.08325195 -0.956543
vn -0.2790527 -0.08325195 -0.956543
vn -0.2790527 -0.08325195 -0.956543
vn -0.9418945 0.3127441 -0.1223145
vn -0.9418945 0.3127441 -0.1223145
vn -0.9418945 0.3127441 -0.1223145
vn -0.9418945 0.3127441 -0.1223145
vn -0.3432617 -0.2770996 -0.8974609
vn -0.3432617 -0.2770996 -0.8974609
vn -0.3432617 -0.2770996 -0.8974609
vn -0.3432617 -0.2770996 -0.8974609
vn -0.8393555 0.5019531 -0.208252
vn -0.8393555 0.5019531 -0.208252
vn -0.8393555 0.5019531 -0.208252
vn -0.8393555 0.5019531 -0.208252
vn 0.1986084 -0.7109375 0.6748047
vn 0.1986084 -0.7109375 0.6748047
vn 0.1986084 -0.7109375 0.6748047
vn 0.1986084 -0.7109375 0.6748047
vn 0.8842773 0.4482422 -0.1317139
vn 0.8842773 0.4482422 -0.1317139
vn 0.8842773 0.4482422 -0.1317139
vn 0.8842773 0.4482422 -0.1317139
vn 0.7539063 0.6513672 0.08508301
vn 0.7539063 0.6513672 0.08508301
vn 0.7539063 0.6513672 0.08508301
vn 0.7539063 0.6513672 0.08508301
vn 0.0447998 -0.5302734 0.8466797
vn 0.0447998 -0.5302734 0.8466797
vn 0.0447998 -0.5302734 0.8466797
vn 0.0447998 -0.5302734 0.8466797
vn 0.9501953 0.1884766 -0.2486572
vn 0.9501953 0.1884766 -0.2486572
vn 0.9501953 0.1884766 -0.2486572
vn 0.9501953 0.1884766 -0.2486572
vn -0.04760742 -0.244873 0.9682617
vn -0.04760742 -0.244873 0.9682617
vn -0.04760742 -0.244873 0.9682617
vn -0.04760742 -0.244873 0.9682617
vn 0.9492188 -0.1729736 -0.262207
vn 0.9492188 -0.1729736 -0.262207
vn 0.9492188 -0.1729736 -0.262207
vn 0.9492188 -0.1729736 -0.262207
vn -0.03341675 0.1156006 0.9926758
vn -0.03341675 0.1156006 0.9926758
vn -0.03341675 0.1156006 0.9926758
vn -0.03341675 0.1156006 0.9926758
vn 0.8862305 -0.4328613 -0.1655273
vn 0.8862305 -0.4328613 -0.1655273
vn 0.8862305 -0.4328613 -0.1655273
vn 0.8862305 -0.4328613 -0.1655273
vn 0.06665039 0.373291 0.925293
vn 0.06665039 0.373291 0.925293
vn 0.06665039 0.373291 0.925293
vn 0.06665039 0.373291 0.925293
vn 0.730957 -0.6821289 -0.02798462
vn 0.730957 -0.6821289 -0.02798462
vn 0.730957 -0.6821289 -0.02798462
vn 0.730957 -0.6821289 -0.02798462
vn 0.1705322 0.6044922 0.777832
vn 0.1705322 0.6044922 0.777832
vn 0.1705322 0.6044922 0.777832
vn 0.1705322 0.6044922 0.777832
vn 0.5566406 -0.8139648 0.1662598
vn 0.5566406 -0.8139648 0.1662598
vn 0.5566406 -0.8139648 0.1662598
vn 0.5566406 -0.8139648 0.1662598
vn 0.3459473 0.7578125 0.5532227
vn 0.3459473 0.7578125 0.5532227
vn 0.3459473 0.7578125 0.5532227
vn 0.3459473 0.7578125 0.5532227
vn 0.3374023 -0.824707 0.4538574
vn 0.3374023 -0.824707 0.4538574
vn 0.3374023 -0.824707 0.4538574
vn 0.3374023 -0.824707 0.4538574
vn 0.5786133 0.7675781 0.2766113
vn 0.5786133 0.7675781 0.2766113
vn 0.5786133 0.7675781 0.2766113
vn 0.5786133 0.7675781 0.2766113
vn 0.9516602 -0.1262207 0.2792969
vn 0.9516602 -0.1262207 0.2792969
vn 0.9516602 -0.1262207 0.2792969
vn 0.9516602 -0.1262207 0.2792969
vn 0.4902344 0.03604126 0.8706055
vn 0.4902344 0.03604126 0.8706055
vn 0.4902344 0.03604126 0.8706055
vn 0.4902344 0.03604126 0.8706055
vn 0.9116211 -0.2558594 0.3210449
vn 0.9116211 -0.2558594 0.3210449
vn 0.9116211 -0.2558594 0.3210449
vn 0.9116211 -0.2558594 0.3210449
vn 0.5317383 0.1654053 0.8305664
vn 0.5317383 0.1654053 0.8305664
vn 0.5317383 0.1654053 0.8305664
vn 0.5317383 0.1654053 0.8305664
vn 0.8544922 -0.3603516 0.3745117
vn 0.8544922 -0.3603516 0.3745117
vn 0.8544922 -0.3603516 0.3745117
vn 0.8544922 -0.3603516 0.3745117
vn 0.5791016 0.270752 0.769043
vn 0.5791016 0.270752 0.769043
vn 0.5791016 0.270752 0.769043
vn 0.5791016 0.270752 0.769043
vn 0.7802734 -0.416748 0.4665527
vn 0.7802734 -0.416748 0.4665527
vn 0.7802734 -0.416748 0.4665527
vn 0.7802734 -0.416748 0.4665527
vn 0.6567383 0.3266602 0.6796875
vn 0.6567383 0.3266602 0.6796875
vn 0.6567383 0.3266602 0.6796875
vn 0.6567383 0.3266602 0.6796875
vn 0.65625 -0.4196777 0.6269531
vn 0.65625 -0.4196777 0.6269531
vn 0.65625 -0.4196777 0.6269531
vn 0.65625 -0.4196777 0.6269531
vn 0.7861328 0.3295898 0.5229492
vn 0.7861328 0.3295898 0.5229492
vn 0.7861328 0.3295898 0.5229492
vn 0.7861328 0.3295898 0.5229492
vn 0.578125 -0.3623047 0.730957
vn 0.578125 -0.3623047 0.730957
vn 0.578125 -0.3623047 0.730957
vn 0.578125 -0.3623047 0.730957
vn 0.9228516 0.1947021 0.3320313
vn 0.9228516 0.1947021 0.3320313
vn 0.9228516 0.1947021 0.3320313
vn 0.9228516 0.1947021 0.3320313
vn 0.8657227 0.2719727 0.4206543
vn 0.8657227 0.2719727 0.4206543
vn 0.8657227 0.2719727 0.4206543
vn 0.8657227 0.2719727 0.4206543
vn 0.5107422 -0.2844238 0.8115234
vn 0.5107422 -0.2844238 0.8115234
vn 0.5107422 -0.2844238 0.8115234
vn 0.5107422 -0.2844238 0.8115234
vn 0.9550781 0.07666016 0.2858887
vn 0.9550781 0.07666016 0.2858887
vn 0.9550781 0.07666016 0.2858887
vn 0.9550781 0.07666016 0.2858887
vn 0.4819336 -0.166626 0.8603516
vn 0.4819336 -0.166626 0.8603516
vn 0.4819336 -0.166626 0.8603516
vn 0.4819336 -0.166626 0.8603516
vn -0.7807617 -0.197876 -0.5927734
vn -0.7807617 -0.197876 -0.5927734
vn -0.7807617 -0.197876 -0.5927734
vn -0.7807617 -0.197876 -0.5927734
vn -0.894043 -0.1119385 -0.434082
vn -0.894043 -0.1119385 -0.434082
vn -0.894043 -0.1119385 -0.434082
vn -0.894043 -0.1119385 -0.434082
vn -0.847168 -0.164917 -0.5053711
vn -0.847168 -0.164917 -0.5053711
vn -0.847168 -0.164917 -0.5053711
vn -0.847168 -0.164917 -0.5053711
vn -0.9038086 0.00211525 -0.4274902
vn -0.9038086 0.00211525 -0.4274902
vn -0.9038086 0.00211525 -0.4274902
vn -0.9038086 0.00211525 -0.4274902
vn 0.2093506 0.9750977 0.07434082
vn 0.2093506 0.9750977 0.07434082
vn 0.2093506 0.9750977 0.07434082
vn 0.2093506 0.9750977 0.07434082
vn 0.06719971 0.9731445 0.2205811
vn 0.06719971 0.9731445 0.2205811
vn 0.06719971 0.9731445 0.2205811
vn 0.06719971 0.9731445 0.2205811
vn -0.8261719 -0.03417969 -0.5625
vn -0.8261719 -0.03417969 -0.5625
vn -0.8261719 -0.03417969 -0.5625
vn -0.8261719 -0.03417969 -0.5625
vn -0.765625 -0.07629395 0.6391602
vn -0.765625 -0.07629395 0.6391602
vn -0.765625 -0.07629395 0.6391602
vn -0.765625 -0.07629395 0.6391602
vn -0.8378906 -0.009735107 -0.5458984
vn -0.8378906 -0.009735107 -0.5458984
vn -0.8378906 -0.009735107 -0.5458984
vn -0.8378906 -0.009735107 -0.5458984
vn 0.6206055 0.1748047 -0.7641602
vn 0.6206055 0.1748047 -0.7641602
vn 0.6206055 0.1748047 -0.7641602
vn 0.6206055 0.1748047 -0.7641602
vn -0.1204224 -0.9858398 -0.1176758
vn -0.1204224 -0.9858398 -0.1176758
vn -0.1204224 -0.9858398 -0.1176758
vn -0.1204224 -0.9858398 -0.1176758
vn 0.8330078 -0.1483154 0.5327148
vn 0.8168945 -0.168457 0.5512695
vn 0.8330078 -0.1483154 0.5327148
vn 0.8330078 -0.1483154 0.5327148
vn 0.8398438 -0.1038208 0.5327148
vn 0.8398438 -0.1038208 0.5327148
vn 0.7124023 0.05157471 0.699707
vn 0.7431641 0.04705811 0.6674805
vn 0.7270508 0.02693176 0.6860352
vn 0.7270508 0.02693176 0.6860352
vn 0.7270508 0.02693176 0.6860352
vn 0.7104492 0.006839752 0.7036133
vn 0.7363281 -0.1556396 0.6582031
vn 0.7363281 -0.1556396 0.6582031
vn 0.7363281 -0.1556396 0.6582031
vn 0.706543 -0.1512451 0.6914063
vn 0.706543 -0.1512451 0.6914063
vn 0.706543 -0.1512451 0.6914063
vn 0.6948242 -0.126709 0.7080078
vn -0.3217773 0.777832 0.5400391
vn -0.3217773 0.777832 0.5400391
vn -0.3217773 0.777832 0.5400391
vn -0.3217773 0.777832 0.5400391
vn 0.7827148 -0.1398926 0.6064453
vn 0.7827148 -0.1398926 0.6064453
vn 0.7827148 -0.1398926 0.6064453
vn 0.7827148 -0.1398926 0.6064453
vn -0.2624512 0.6445313 0.7182617
vn -0.2624512 0.6445313 0.7182617
vn -0.2624512 0.6445313 0.7182617
vn -0.2624512 0.6445313 0.7182617
vn 0.322998 -0.777832 -0.5395508
vn 0.322998 -0.777832 -0.5395508
vn 0.322998 -0.777832 -0.5395508
vn 0.322998 -0.777832 -0.5395508
vn 0.4748535 0.6943359 -0.5410156
vn 0.4748535 0.6943359 -0.5410156
vn 0.4748535 0.6943359 -0.5410156
vn 0.4748535 0.6943359 -0.5410156
vn -0.4018555 0.7402344 0.5390625
vn -0.4018555 0.7402344 0.5390625
vn -0.4018555 0.7402344 0.5390625
vn -0.4018555 0.7402344 0.5390625
vn 0.2064209 -0.6831055 -0.7001953
vn 0.2064209 -0.6831055 -0.7001953
vn 0.2064209 -0.6831055 -0.7001953
vn 0.2064209 -0.6831055 -0.7001953
vn 0.4484863 -0.6499023 -0.6132813
vn 0.4484863 -0.6499023 -0.6132813
vn 0.4484863 -0.6499023 -0.6132813
vn 0.4484863 -0.6499023 -0.6132813
vn -0.4748535 -0.6943359 0.5410156
vn -0.4748535 -0.6943359 0.5410156
vn -0.4748535 -0.6943359 0.5410156
vn -0.4748535 -0.6943359 0.5410156
vn -0.1627197 0.6147461 0.7719727
vn -0.1627197 0.6147461 0.7719727
vn -0.1627197 0.6147461 0.7719727
vn -0.1627197 0.6147461 0.7719727
vn 0.9609375 0.2692871 0.06573486
vn 0.9609375 0.2692871 0.06573486
vn 0.9609375 0.2692871 0.06573486
vn 0.9609375 0.2692871 0.06573486
vn -0.2462158 0.4902344 0.8359375
vn -0.2462158 0.4902344 0.8359375
vn -0.2462158 0.4902344 0.8359375
vn -0.2462158 0.4902344 0.8359375
vn 0.4057617 -0.4370117 -0.8027344
vn 0.4057617 -0.4370117 -0.8027344
vn 0.4057617 -0.4370117 -0.8027344
vn 0.4057617 -0.4370117 -0.8027344
vn 0.5693359 0.7397461 -0.3586426
vn 0.5693359 0.7397461 -0.3586426
vn 0.5693359 0.7397461 -0.3586426
vn 0.5693359 0.7397461 -0.3586426
vn -0.1911621 0.5952148 0.7802734
vn -0.1911621 0.5952148 0.7802734
vn -0.1911621 0.5952148 0.7802734
vn -0.1911621 0.5952148 0.7802734
vn 0.2324219 -0.6635742 -0.7109375
vn 0.2324219 -0.6635742 -0.7109375
vn 0.2324219 -0.6635742 -0.7109375
vn 0.2324219 -0.6635742 -0.7109375
vn 0.298584 -0.6254883 -0.7207031
vn 0.298584 -0.6254883 -0.7207031
vn 0.298584 -0.6254883 -0.7207031
vn 0.298584 -0.6254883 -0.7207031
vn -0.4348145 -0.7583008 0.4855957
vn -0.4348145 -0.7583008 0.4855957
vn -0.4348145 -0.7583008 0.4855957
vn -0.4348145 -0.7583008 0.4855957
vn 0.3430176 -0.6074219 -0.7167969
vn 0.3430176 -0.6074219 -0.7167969
vn 0.3430176 -0.6074219 -0.7167969
vn 0.3430176 -0.6074219 -0.7167969
vn -0.2624512 0.6445313 0.7182617
vn -0.2624512 0.6445313 0.7182617
vn -0.2624512 0.6445313 0.7182617
vn -0.2624512 0.6445313 0.7182617
vn 0.7114258 -0.4284668 0.5571289
vn 0.7114258 -0.4284668 0.5571289
vn 0.7114258 -0.4284668 0.5571289
vn 0.7114258 -0.4284668 0.5571289
vn 0.04156494 -0.7646484 0.6435547
vn 0.04156494 -0.7646484 0.6435547
vn 0.04156494 -0.7646484 0.6435547
vn 0.04156494 -0.7646484 0.6435547
vn 0.4050293 -0.5898438 -0.6987305
vn 0.4050293 -0.5898438 -0.6987305
vn 0.4050293 -0.5898438 -0.6987305
vn 0.4050293 -0.5898438 -0.6987305
vn -0.2321777 0.6635742 0.7109375
vn -0.2321777 0.6635742 0.7109375
vn -0.2321777 0.6635742 0.7109375
vn -0.2321777 0.6635742 0.7109375
vn 0.6230469 -0.007507324 -0.7817383
vn 0.6230469 -0.007507324 -0.7817383
vn 0.6230469 -0.007507324 -0.7817383
vn 0.6230469 -0.007507324 -0.7817383
vn -0.46875 -0.4174805 -0.7783203
vn -0.46875 -0.4174805 -0.7783203
vn -0.46875 -0.4174805 -0.7783203
vn -0.46875 -0.4174805 -0.7783203
vn -0.9770508 0.1906738 0.09454346
vn -0.9770508 0.1906738 0.09454346
vn -0.9770508 0.1906738 0.09454346
vn -0.9770508 0.1906738 0.09454346
vn -0.4523926 -0.6376953 -0.6235352
vn -0.4523926 -0.6376953 -0.6235352
vn -0.4523926 -0.6376953 -0.6235352
vn -0.4523926 -0.6376953 -0.6235352
vn -0.878418 0.2485352 -0.4086914
vn -0.878418 0.2485352 -0.4086914
vn -0.878418 0.2485352 -0.4086914
vn -0.878418 0.2485352 -0.4086914
vn -0.6552734 0.0531311 -0.7539063
vn -0.6552734 0.0531311 -0.7539063
vn -0.6552734 0.0531311 -0.7539063
vn -0.6552734 0.0531311 -0.7539063
vn -0.7827148 0.2084961 -0.5864258
vn -0.7827148 0.2084961 -0.5864258
vn -0.7827148 0.2084961 -0.5864258
vn -0.7827148 0.2084961 -0.5864258
vn -0.605957 -0.2005615 -0.7700195
vn -0.605957 -0.2005615 -0.7700195
vn -0.605957 -0.2005615 -0.7700195
vn -0.605957 -0.2005615 -0.7700195
vn -0.7280273 -0.1234741 0.6743164
vn -0.7280273 -0.1234741 0.6743164
vn -0.7280273 -0.1234741 0.6743164
vn -0.7280273 -0.1234741 0.6743164
vn -0.1715088 -0.9799805 -0.1013184
vn -0.1715088 -0.9799805 -0.1013184
vn -0.1715088 -0.9799805 -0.1013184
vn -0.1715088 -0.9799805 -0.1013184
vn -0.796875 0.2568359 -0.5463867
vn -0.796875 0.2568359 -0.5463867
vn -0.796875 0.2568359 -0.5463867
vn -0.796875 0.2568359 -0.5463867
vn -0.6245117 0.003789902 -0.7807617
vn -0.6245117 0.003789902 -0.7807617
vn -0.6245117 0.003789902 -0.7807617
vn -0.6245117 0.003789902 -0.7807617
vn -0.7641602 0.2285156 -0.6030273
vn -0.7641602 0.2285156 -0.6030273
vn -0.7641602 0.2285156 -0.6030273
vn -0.7641602 0.2285156 -0.6030273
vn -0.6547852 0.2351074 -0.7182617
vn -0.6547852 0.2351074 -0.7182617
vn -0.6547852 0.2351074 -0.7182617
vn -0.6547852 0.2351074 -0.7182617
vn -0.6552734 0.0531311 -0.7539063
vn -0.6552734 0.0531311 -0.7539063
vn -0.6552734 0.0531311 -0.7539063
vn -0.6552734 0.0531311 -0.7539063

vt 0.6269531 0.4597168
vt 0.5810547 0.4748535
vt 0.5810547 0.4863281
vt 0.5849609 0.5205078
vt 0.5810547 0.4863281
vt 0.5166016 0.5356445
vt 0.07269287 0.9189453
vt 0.08789063 0.9189453
vt 0.08032227 0.8808594
vt 0.1030884 0.9111328
vt 0.08032227 0.8808594
vt 0.1106567 0.8999023
vt 0.1182251 0.8886719
vt 0.361084 0.4787598
vt 0.3574219 0.5126953
vt 0.421875 0.5317383
vt 0.3574219 0.3913574
vt 0.3837891 0.421875
vt 0.3913574 0.421875
vt 0.5546875 0.4255371
vt 0.565918 0.4294434
vt 0.5888672 0.3991699
vt 0.361084 0.4787598
vt 0.361084 0.4672852
vt 0.3193359 0.4484863
vt 0.2624512 0.6948242
vt 0.2814941 0.6948242
vt 0.2814941 0.6875
vt 0.2624512 0.6875
vt 0.2624512 0.6948242
vt 0.2624512 0.6875
vt 0.2282715 0.6875
vt 0.2282715 0.6948242
vt 0.2282715 0.6875
vt 0.2093506 0.6875
vt 0.2093506 0.6948242
vt 0.2282715 0.6948242
vt 0.934082 0.6987305
vt 0.9643555 0.7026367
vt 0.9760742 0.6572266
vt 0.934082 0.6572266
vt 0.8847656 0.6948242
vt 0.8808594 0.6572266
vt 0.8583984 0.6572266
vt 0.8696289 0.6987305
vt 0.8583984 0.6572266
vt 0.8203125 0.6572266
vt 0.8432617 0.706543
vt 0.8696289 0.6987305
vt 0.934082 0.6987305
vt 0.934082 0.6572266
vt 0.9111328 0.6572266
vt 0.9111328 0.6948242
vt 0.9111328 0.6948242
vt 0.9111328 0.6572266
vt 0.8808594 0.6572266
vt 0.8847656 0.6948242
vt 0.3383789 0.3686523
vt 0.2890625 0.4370117
vt 0.3193359 0.4484863
vt 0.3574219 0.3913574
vt 0.5317383 0.6835938
vt 0.5927734 0.6494141
vt 0.5776367 0.6303711
vt 0.5244141 0.6572266
vt 0.402832 0.3232422
vt 0.3383789 0.3686523
vt 0.3574219 0.3913574
vt 0.4143066 0.3496094
vt 0.463623 0.6948242
vt 0.5317383 0.6835938
vt 0.5244141 0.6572266
vt 0.463623 0.6645508
vt 0.5507813 0.3269043
vt 0.4787598 0.3078613
vt 0.4748535 0.3383789
vt 0.5395508 0.3574219
vt 0.4787598 0.3078613
vt 0.402832 0.3232422
vt 0.4143066 0.3496094
vt 0.4748535 0.3383789
vt 0.3952637 0.6796875
vt 0.463623 0.6948242
vt 0.463623 0.6645508
vt 0.4067383 0.6533203
vt 0.6113281 0.3762207
vt 0.5507813 0.3269043
vt 0.5395508 0.3574219
vt 0.5888672 0.3991699
vt 0.3383789 0.6420898
vt 0.3952637 0.6796875
vt 0.4067383 0.6533203
vt 0.3574219 0.6230469
vt 0.6533203 0.4484863
vt 0.6113281 0.3762207
vt 0.5888672 0.3991699
vt 0.6269531 0.4597168
vt 0.2927246 0.5849609
vt 0.3383789 0.6420898
vt 0.3574219 0.6230469
vt 0.3193359 0.5737305
vt 0.6645508 0.5244141
vt 0.6533203 0.4484863
vt 0.6269531 0.4597168
vt 0.6342773 0.5244141
vt 0.6420898 0.5961914
vt 0.6645508 0.5244141
vt 0.6152344 0.5810547
vt 0.2775879 0.5126953
vt 0.2927246 0.5849609
vt 0.3193359 0.5737305
vt 0.3078613 0.5126953
vt 0.2890625 0.4370117
vt 0.2775879 0.5126953
vt 0.3193359 0.4484863
vt 0.5927734 0.6494141
vt 0.6420898 0.5961914
vt 0.6152344 0.5810547
vt 0.5776367 0.6303711
vt 0.0385437 0.9418945
vt 0.06512451 0.953125
vt 0.06890869 0.9453125
vt 0.0423584 0.9379883
vt 0.0916748 0.809082
vt 0.06512451 0.809082
vt 0.06512451 0.8164063
vt 0.0916748 0.8164063
vt 0.06512451 0.953125
vt 0.09545898 0.953125
vt 0.0916748 0.9453125
vt 0.06890869 0.9453125
vt 0.06512451 0.809082
vt 0.0385437 0.8203125
vt 0.0423584 0.8242188
vt 0.06512451 0.8164063
vt 0.1220093 0.9418945
vt 0.1409912 0.9189453
vt 0.1334229 0.9150391
vt 0.1182251 0.934082
vt 0.09545898 0.953125
vt 0.1220093 0.9418945
vt 0.1182251 0.934082
vt 0.0916748 0.9453125
vt 0.0385437 0.8203125
vt 0.01957703 0.8432617
vt 0.02337646 0.8432617
vt 0.0423584 0.8242188
vt 0.1409912 0.9189453
vt 0.1485596 0.8925781
vt 0.1447754 0.8925781
vt 0.1334229 0.9150391
vt 0.01957703 0.8432617
vt 0.008201599 0.8696289
vt 0.01579285 0.8696289
vt 0.02337646 0.8432617
vt 0.1485596 0.8925781
vt 0.1485596 0.8657227
vt 0.1447754 0.8657227
vt 0.1447754 0.8925781
vt 0.008201599 0.8696289
vt 0.008201599 0.8959961
vt 0.01579285 0.8959961
vt 0.01579285 0.8696289
vt 0.1485596 0.8657227
vt 0.1409912 0.8393555
vt 0.1334229 0.8432617
vt 0.1447754 0.8657227
vt 0.008201599 0.8959961
vt 0.01957703 0.9228516
vt 0.02337646 0.9189453
vt 0.01579285 0.8959961
vt 0.1409912 0.8393555
vt 0.1182251 0.8203125
vt 0.1144409 0.8242188
vt 0.1334229 0.8432617
vt 0.01957703 0.9228516
vt 0.0385437 0.9418945
vt 0.0423584 0.9379883
vt 0.02337646 0.9189453
vt 0.1182251 0.8203125
vt 0.0916748 0.809082
vt 0.0916748 0.8164063
vt 0.1144409 0.8242188
vt 0.1447754 0.8925781
vt 0.1447754 0.8657227
vt 0.137207 0.8696289
vt 0.137207 0.8925781
vt 0.01579285 0.8696289
vt 0.01579285 0.8959961
vt 0.01957703 0.8925781
vt 0.01957703 0.8696289
vt 0.1447754 0.8657227
vt 0.1296387 0.8466797
vt 0.137207 0.8696289
vt 0.1334229 0.8432617
vt 0.1106567 0.831543
vt 0.1144409 0.8242188
vt 0.01579285 0.8959961
vt 0.03096008 0.9150391
vt 0.01957703 0.8925781
vt 0.02337646 0.9189453
vt 0.04614258 0.9301758
vt 0.0423584 0.9379883
vt 0.1144409 0.8242188
vt 0.0916748 0.8164063
vt 0.08789063 0.8203125
vt 0.1106567 0.831543
vt 0.0423584 0.9379883
vt 0.06890869 0.9453125
vt 0.06890869 0.9379883
vt 0.04614258 0.9301758
vt 0.0916748 0.8164063
vt 0.06512451 0.8164063
vt 0.06512451 0.8203125
vt 0.08789063 0.8203125
vt 0.06890869 0.9453125
vt 0.0916748 0.9453125
vt 0.0916748 0.9379883
vt 0.06890869 0.9379883
vt 0.06512451 0.8164063
vt 0.04614258 0.831543
vt 0.06512451 0.8203125
vt 0.0423584 0.8242188
vt 0.0271759 0.8466797
vt 0.02337646 0.8432617
vt 0.1182251 0.934082
vt 0.1334229 0.9150391
vt 0.1296387 0.9111328
vt 0.1144409 0.9301758
vt 0.0916748 0.9453125
vt 0.0916748 0.9379883
vt 0.1334229 0.9150391
vt 0.1447754 0.8925781
vt 0.137207 0.8925781
vt 0.1296387 0.9111328
vt 0.02337646 0.8432617
vt 0.01579285 0.8696289
vt 0.01957703 0.8696289
vt 0.0271759 0.8466797
vt 0.5776367 0.6303711
vt 0.6152344 0.5810547
vt 0.5737305 0.5620117
vt 0.546875 0.5961914
vt 0.5244141 0.6572266
vt 0.5776367 0.6303711
vt 0.546875 0.5961914
vt 0.5126953 0.6113281
vt 0.4143066 0.3496094
vt 0.3574219 0.3913574
vt 0.3913574 0.421875
vt 0.4294434 0.3952637
vt 0.463623 0.6645508
vt 0.5244141 0.6572266
vt 0.5126953 0.6113281
vt 0.4672852 0.6152344
vt 0.5395508 0.3574219
vt 0.4748535 0.3383789
vt 0.4748535 0.3876953
vt 0.5205078 0.3991699
vt 0.4748535 0.3383789
vt 0.4143066 0.3496094
vt 0.4294434 0.3952637
vt 0.4748535 0.3876953
vt 0.4067383 0.6533203
vt 0.463623 0.6645508
vt 0.4672852 0.6152344
vt 0.421875 0.6079102
vt 0.5888672 0.3991699
vt 0.5395508 0.3574219
vt 0.5205078 0.3991699
vt 0.5546875 0.4255371
vt 0.3574219 0.6230469
vt 0.4067383 0.6533203
vt 0.421875 0.6079102
vt 0.3876953 0.5888672
vt 0.3193359 0.5737305
vt 0.3574219 0.6230469
vt 0.3876953 0.5888672
vt 0.3649902 0.5546875
vt 0.6342773 0.5244141
vt 0.6269531 0.4597168
vt 0.5810547 0.4863281
vt 0.5849609 0.5205078
vt 0.3078613 0.5126953
vt 0.3193359 0.5737305
vt 0.3649902 0.5546875
vt 0.3574219 0.5126953
vt 0.6152344 0.5810547
vt 0.6342773 0.5244141
vt 0.5849609 0.5205078
vt 0.5737305 0.5620117
vt 0.06512451 0.8203125
vt 0.04614258 0.831543
vt 0.04614258 0.8354492
vt 0.06890869 0.8242188
vt 0.1144409 0.9301758
vt 0.1296387 0.9111328
vt 0.1258545 0.9111328
vt 0.1106567 0.9262695
vt 0.0916748 0.9379883
vt 0.1144409 0.9301758
vt 0.1106567 0.9262695
vt 0.0916748 0.934082
vt 0.04614258 0.831543
vt 0.0271759 0.8466797
vt 0.03096008 0.8505859
vt 0.04614258 0.8354492
vt 0.1296387 0.9111328
vt 0.137207 0.8925781
vt 0.1334229 0.8925781
vt 0.1258545 0.9111328
vt 0.0271759 0.8466797
vt 0.01957703 0.8696289
vt 0.02337646 0.8696289
vt 0.03096008 0.8505859
vt 0.137207 0.8925781
vt 0.137207 0.8696289
vt 0.1334229 0.8696289
vt 0.1334229 0.8925781
vt 0.01957703 0.8696289
vt 0.01957703 0.8925781
vt 0.02337646 0.8925781
vt 0.02337646 0.8696289
vt 0.137207 0.8696289
vt 0.1296387 0.8466797
vt 0.1258545 0.8466797
vt 0.1334229 0.8696289
vt 0.01957703 0.8925781
vt 0.03096008 0.9150391
vt 0.03096008 0.9111328
vt 0.02337646 0.8925781
vt 0.1296387 0.8466797
vt 0.1106567 0.831543
vt 0.1106567 0.831543
vt 0.1258545 0.8466797
vt 0.03096008 0.9150391
vt 0.04614258 0.9301758
vt 0.04992676 0.9301758
vt 0.03096008 0.9111328
vt 0.1106567 0.831543
vt 0.08789063 0.8203125
vt 0.08789063 0.8242188
vt 0.1106567 0.831543
vt 0.04614258 0.9301758
vt 0.06890869 0.9379883
vt 0.06890869 0.9379883
vt 0.04992676 0.9301758
vt 0.08789063 0.8203125
vt 0.06512451 0.8203125
vt 0.06890869 0.8242188
vt 0.08789063 0.8242188
vt 0.06890869 0.9379883
vt 0.0916748 0.9379883
vt 0.0916748 0.934082
vt 0.06890869 0.9379883
vt 0.1334229 0.8925781
vt 0.1334229 0.8696289
vt 0.1182251 0.8735352
vt 0.1182251 0.8886719
vt 0.02337646 0.8696289
vt 0.02337646 0.8925781
vt 0.0423584 0.8886719
vt 0.0423584 0.8735352
vt 0.1334229 0.8696289
vt 0.1258545 0.8466797
vt 0.1106567 0.8583984
vt 0.1182251 0.8735352
vt 0.02337646 0.8925781
vt 0.03096008 0.9111328
vt 0.04614258 0.9038086
vt 0.0423584 0.8886719
vt 0.1258545 0.8466797
vt 0.1106567 0.831543
vt 0.09924316 0.8466797
vt 0.1106567 0.8583984
vt 0.03096008 0.9111328
vt 0.04992676 0.9301758
vt 0.05752563 0.9150391
vt 0.04614258 0.9038086
vt 0.1106567 0.831543
vt 0.08789063 0.8242188
vt 0.08789063 0.8432617
vt 0.09924316 0.8466797
vt 0.04992676 0.9301758
vt 0.06890869 0.9379883
vt 0.07269287 0.9189453
vt 0.05752563 0.9150391
vt 0.08789063 0.8242188
vt 0.06890869 0.8242188
vt 0.07269287 0.8432617
vt 0.08789063 0.8432617
vt 0.06890869 0.9379883
vt 0.0916748 0.934082
vt 0.08789063 0.9189453
vt 0.07269287 0.9189453
vt 0.06890869 0.8242188
vt 0.04614258 0.8354492
vt 0.05752563 0.8466797
vt 0.07269287 0.8432617
vt 0.1106567 0.9262695
vt 0.1258545 0.9111328
vt 0.1106567 0.8999023
vt 0.1030884 0.9111328
vt 0.0916748 0.934082
vt 0.1106567 0.9262695
vt 0.1030884 0.9111328
vt 0.08789063 0.9189453
vt 0.04614258 0.8354492
vt 0.03096008 0.8505859
vt 0.04614258 0.8583984
vt 0.05752563 0.8466797
vt 0.1258545 0.9111328
vt 0.1334229 0.8925781
vt 0.1182251 0.8886719
vt 0.1106567 0.8999023
vt 0.03096008 0.8505859
vt 0.02337646 0.8696289
vt 0.0423584 0.8735352
vt 0.04614258 0.8583984
vt 0.4294434 0.3952637
vt 0.3913574 0.421875
vt 0.4484863 0.463623
vt 0.4560547 0.4370117
vt 0.5205078 0.3991699
vt 0.4748535 0.3876953
vt 0.4711914 0.4370117
vt 0.4902344 0.4370117
vt 0.4748535 0.3876953
vt 0.4294434 0.3952637
vt 0.4560547 0.4370117
vt 0.4711914 0.4370117
vt 0.5546875 0.4255371
vt 0.5205078 0.3991699
vt 0.4902344 0.4370117
vt 0.4978027 0.463623
vt 0.5810547 0.4863281
vt 0.5810547 0.4748535
vt 0.5053711 0.5205078
vt 0.5166016 0.5356445
vt 0.5166016 0.5356445
vt 0.5053711 0.5205078
vt 0.4672852 0.543457
vt 0.4672852 0.5620117
vt 0.4560547 0.4370117
vt 0.4484863 0.463623
vt 0.4711914 0.4787598
vt 0.4711914 0.4370117
vt 0.3913574 0.421875
vt 0.3837891 0.421875
vt 0.4406738 0.4787598
vt 0.4484863 0.463623
vt 0.4711914 0.4370117
vt 0.4711914 0.4787598
vt 0.4978027 0.463623
vt 0.4902344 0.4370117
vt 0.421875 0.5317383
vt 0.4331055 0.5166016
vt 0.361084 0.4672852
vt 0.361084 0.4787598
vt 0.4978027 0.463623
vt 0.5053711 0.4787598
vt 0.565918 0.4294434
vt 0.5546875 0.4255371
vt 0.09924316 0.8466797
vt 0.08789063 0.8432617
vt 0.08032227 0.8808594
vt 0.1106567 0.8583984
vt 0.1182251 0.8735352
vt 0.1182251 0.8886719
vt 0.05752563 0.9150391
vt 0.07269287 0.9189453
vt 0.08032227 0.8808594
vt 0.04614258 0.9038086
vt 0.0423584 0.8886719
vt 0.0423584 0.8735352
vt 0.08789063 0.8432617
vt 0.07269287 0.8432617
vt 0.08032227 0.8808594
vt 0.05752563 0.8466797
vt 0.04614258 0.8583984
vt 0.08032227 0.8808594
vt 0.0423584 0.8735352
vt 0.1713867 0.7255859
vt 0.1713867 0.6948242
vt 0.1600342 0.6914063
vt 0.15625 0.7177734
vt 0.1827393 0.7255859
vt 0.1713867 0.7255859
vt 0.1676025 0.793457
vt 0.1789551 0.793457
vt 0.1523438 0.8051758
vt 0.1523438 0.8276367
vt 0.1676025 0.8276367
vt 0.1676025 0.793457
vt 0.1789551 0.793457
vt 0.1789551 0.8276367
vt 0.1903076 0.8276367
vt 0.1940918 0.8051758
vt 0.1676025 0.793457
vt 0.1676025 0.8276367
vt 0.1789551 0.8276367
vt 0.1789551 0.793457
vt 0.1676025 0.793457
vt 0.1713867 0.7255859
vt 0.1600342 0.7407227
vt 0.1600342 0.7783203
vt 0.1789551 0.793457
vt 0.1903076 0.7783203
vt 0.1903076 0.7407227
vt 0.1827393 0.7255859
vt 0.1940918 0.7177734
vt 0.1940918 0.6948242
vt 0.1827393 0.6948242
vt 0.1827393 0.7255859
vt 0.1827393 0.7255859
vt 0.1827393 0.6948242
vt 0.1713867 0.6948242
vt 0.1713867 0.7255859
vt 0.8505859 0.6381836
vt 0.809082 0.6455078
vt 0.809082 0.6455078
vt 0.8505859 0.6455078
vt 0.9038086 0.6040039
vt 0.8999023 0.6342773
vt 0.9228516 0.6420898
vt 0.9262695 0.5961914
vt 0.9262695 0.6455078
vt 0.972168 0.6455078
vt 0.972168 0.6420898
vt 0.9228516 0.6420898
vt 0.9262695 0.5961914
vt 0.9643555 0.5927734
vt 0.9604492 0.5849609
vt 0.9262695 0.5927734
vt 0.9228516 0.6420898
vt 0.972168 0.6420898
vt 0.9643555 0.5927734
vt 0.9262695 0.5961914
vt 0.8735352 0.6342773
vt 0.8505859 0.6381836
vt 0.8505859 0.6420898
vt 0.8735352 0.6342773
vt 0.8769531 0.6000977
vt 0.8769531 0.5961914
vt 0.8618164 0.5888672
vt 0.8583984 0.5927734
vt 0.8583984 0.5888672
vt 0.8276367 0.5888672
vt 0.8276367 0.5888672
vt 0.8583984 0.5927734
vt 0.8583984 0.5927734
vt 0.8276367 0.5888672
vt 0.809082 0.6455078
vt 0.8505859 0.6381836
vt 0.9262695 0.5961914
vt 0.9228516 0.5927734
vt 0.9038086 0.6000977
vt 0.9038086 0.6040039
vt 0.9228516 0.6420898
vt 0.8999023 0.6342773
vt 0.8999023 0.6381836
vt 0.9228516 0.6455078
vt 0.8769531 0.6000977
vt 0.8735352 0.6342773
vt 0.8999023 0.6342773
vt 0.9038086 0.6040039
vt 0.8583984 0.5927734
vt 0.8505859 0.6381836
vt 0.8735352 0.6342773
vt 0.8769531 0.6000977
vt 0.9038086 0.6040039
vt 0.9038086 0.6000977
vt 0.8769531 0.5961914
vt 0.8769531 0.6000977
vt 0.8999023 0.6342773
vt 0.8735352 0.6342773
vt 0.8735352 0.6342773
vt 0.8999023 0.6381836
vt 0.4672852 0.5620117
vt 0.4672852 0.543457
vt 0.4331055 0.5166016
vt 0.421875 0.5317383
vt 0.361084 0.4787598
vt 0.3193359 0.4484863
vt 0.3078613 0.5126953
vt 0.3574219 0.5126953
vt 0.565918 0.4294434
vt 0.5810547 0.4748535
vt 0.6269531 0.4597168
vt 0.5888672 0.3991699
vt 0.3574219 0.3913574
vt 0.3193359 0.4484863
vt 0.361084 0.4672852
vt 0.3837891 0.421875
vt 0.5810547 0.4748535
vt 0.565918 0.4294434
vt 0.5053711 0.4787598
vt 0.5053711 0.5205078
vt 0.4406738 0.4787598
vt 0.4331055 0.5166016
vt 0.4672852 0.543457
vt 0.4711914 0.4978027
vt 0.4711914 0.4978027
vt 0.4672852 0.543457
vt 0.5053711 0.5205078
vt 0.5053711 0.4787598
vt 0.4406738 0.4787598
vt 0.3837891 0.421875
vt 0.361084 0.4672852
vt 0.4331055 0.5166016
vt 0.4484863 0.463623
vt 0.4406738 0.4787598
vt 0.4711914 0.4978027
vt 0.4711914 0.4787598
vt 0.4711914 0.4787598
vt 0.4711914 0.4978027
vt 0.5053711 0.4787598
vt 0.4978027 0.463623
vt 0.5849609 0.5205078
vt 0.5166016 0.5356445
vt 0.4672852 0.5620117
vt 0.5737305 0.5620117
vt 0.3574219 0.5126953
vt 0.3649902 0.5546875
vt 0.4672852 0.5620117
vt 0.421875 0.5317383
vt 0.5737305 0.5620117
vt 0.4672852 0.5620117
vt 0.5126953 0.6113281
vt 0.546875 0.5961914
vt 0.5126953 0.6113281
vt 0.4672852 0.5620117
vt 0.421875 0.6079102
vt 0.4672852 0.6152344
vt 0.421875 0.6079102
vt 0.4672852 0.5620117
vt 0.3649902 0.5546875
vt 0.3876953 0.5888672

g Shield_1173_7
usemtl Shield_1173_7
usemap Shield_1173_7
f 1/1/1 3/3/3 2/2/2
f 4/4/4 6/6/6 5/5/5
f 7/7/7 9/9/9 8/8/8
f 8/8/8 11/11/11 10/10/10
f 10/10/10 11/11/11 12/12/12
f 12/12/12 11/11/11 13/13/13
f 14/14/14 16/16/16 15/15/15
f 17/17/17 19/19/19 18/18/18
f 20/20/20 22/22/22 21/21/21
f 23/23/23 25/25/25 24/24/24
f 26/26/26 28/28/28 27/27/27
f 26/26/26 29/29/29 28/28/28
f 30/30/30 32/32/32 31/31/31
f 30/30/30 33/33/33 32/32/32
f 34/34/34 36/36/36 35/35/35
f 34/34/34 37/37/37 36/36/36
f 38/38/38 40/40/40 39/39/39
f 38/38/38 41/41/41 40/40/40
f 42/42/42 44/44/44 43/43/43
f 42/42/42 45/45/45 44/44/44
f 46/46/46 48/48/48 47/47/47
f 46/46/46 49/49/49 48/48/48
f 50/50/50 52/52/52 51/51/51
f 50/50/50 53/53/53 52/52/52
f 54/54/54 56/56/56 55/55/55
f 54/54/54 57/57/57 56/56/56
f 58/58/58 60/60/60 59/59/59
f 58/58/58 61/61/61 60/60/60
f 62/62/62 64/64/64 63/63/63
f 62/62/62 65/65/65 64/64/64
f 66/66/66 68/68/68 67/67/67
f 66/66/66 69/69/69 68/68/68
f 70/70/70 72/72/72 71/71/71
f 70/70/70 73/73/73 72/72/72
f 74/74/74 76/76/76 75/75/75
f 74/74/74 77/77/77 76/76/76
f 78/78/78 80/80/80 79/79/79
f 78/78/78 81/81/81 80/80/80
f 82/82/82 84/84/84 83/83/83
f 82/82/82 85/85/85 84/84/84
f 86/86/86 88/88/88 87/87/87
f 86/86/86 89/89/89 88/88/88
f 90/90/90 92/92/92 91/91/91
f 90/90/90 93/93/93 92/92/92
f 94/94/94 96/96/96 95/95/95
f 94/94/94 97/97/97 96/96/96
f 98/98/98 100/100/100 99/99/99
f 98/98/98 101/101/101 100/100/100
f 102/102/102 104/104/104 103/103/103
f 102/102/102 105/105/105 104/104/104
f 106/106/106 105/105/105 107/107/107
f 106/106/106 108/108/108 105/105/105
f 109/109/109 111/111/111 110/110/110
f 109/109/109 112/112/112 111/111/111
f 113/113/113 112/112/112 114/114/114
f 113/113/113 115/115/115 112/112/112
f 116/116/116 118/118/118 117/117/117
f 116/116/116 119/119/119 118/118/118
f 120/120/120 122/122/122 121/121/121
f 120/120/120 123/123/123 122/122/122
f 124/124/124 126/126/126 125/125/125
f 124/124/124 127/127/127 126/126/126
f 128/128/128 130/130/130 129/129/129
f 128/128/128 131/131/131 130/130/130
f 132/132/132 134/134/134 133/133/133
f 132/132/132 135/135/135 134/134/134
f 136/136/136 138/138/138 137/137/137
f 136/136/136 139/139/139 138/138/138
f 140/140/140 142/142/142 141/141/141
f 140/140/140 143/143/143 142/142/142
f 144/144/144 146/146/146 145/145/145
f 144/144/144 147/147/147 146/146/146
f 148/148/148 150/150/150 149/149/149
f 148/148/148 151/151/151 150/150/150
f 152/152/152 154/154/154 153/153/153
f 152/152/152 155/155/155 154/154/154
f 156/156/156 158/158/158 157/157/157
f 156/156/156 159/159/159 158/158/158
f 160/160/160 162/162/162 161/161/161
f 160/160/160 163/163/163 162/162/162
f 164/164/164 166/166/166 165/165/165
f 164/164/164 167/167/167 166/166/166
f 168/168/168 170/170/170 169/169/169
f 168/168/168 171/171/171 170/170/170
f 172/172/172 174/174/174 173/173/173
f 172/172/172 175/175/175 174/174/174
f 176/176/176 178/178/178 177/177/177
f 176/176/176 179/179/179 178/178/178
f 180/180/180 182/182/182 181/181/181
f 180/180/180 183/183/183 182/182/182
f 184/184/184 186/186/186 185/185/185
f 184/184/184 187/187/187 186/186/186
f 188/188/188 190/190/190 189/189/189
f 188/188/188 191/191/191 190/190/190
f 192/192/192 194/194/194 193/193/193
f 192/192/192 193/193/193 195/195/195
f 195/195/195 193/193/193 196/196/196
f 195/195/195 196/196/196 197/197/197
f 198/198/198 200/200/200 199/199/199
f 198/198/198 199/199/199 201/201/201
f 201/201/201 199/199/199 202/202/202
f 201/201/201 202/202/202 203/203/203
f 204/204/204 206/206/206 205/205/205
f 204/204/204 207/207/207 206/206/206
f 208/208/208 210/210/210 209/209/209
f 208/208/208 211/211/211 210/210/210
f 212/212/212 214/214/214 213/213/213
f 212/212/212 215/215/215 214/214/214
f 216/216/216 218/218/218 217/217/217
f 216/216/216 219/219/219 218/218/218
f 220/220/220 222/222/222 221/221/221
f 220/220/220 221/221/221 223/223/223
f 223/223/223 221/221/221 224/224/224
f 223/223/223 224/224/224 225/225/225
f 226/226/226 228/228/228 227/227/227
f 226/226/226 229/229/229 228/228/228
f 230/230/230 229/229/229 226/226/226
f 230/230/230 231/231/231 229/229/229
f 232/232/232 234/234/234 233/233/233
f 232/232/232 235/235/235 234/234/234
f 236/236/236 238/238/238 237/237/237
f 236/236/236 239/239/239 238/238/238
f 240/240/240 242/242/242 241/241/241
f 240/240/240 243/243/243 242/242/242
f 244/244/244 246/246/246 245/245/245
f 244/244/244 247/247/247 246/246/246
f 248/248/248 250/250/250 249/249/249
f 248/248/248 251/251/251 250/250/250
f 252/252/252 254/254/254 253/253/253
f 252/252/252 255/255/255 254/254/254
f 256/256/256 258/258/258 257/257/257
f 256/256/256 259/259/259 258/258/258
f 260/260/260 262/262/262 261/261/261
f 260/260/260 263/263/263 262/262/262
f 264/264/264 266/266/266 265/265/265
f 264/264/264 267/267/267 266/266/266
f 268/268/268 270/270/270 269/269/269
f 268/268/268 271/271/271 270/270/270
f 272/272/272 274/274/274 273/273/273
f 272/272/272 275/275/275 274/274/274
f 276/276/276 278/278/278 277/277/277
f 276/276/276 279/279/279 278/278/278
f 280/280/280 282/282/282 281/281/281
f 280/280/280 283/283/283 282/282/282
f 284/284/284 286/286/286 285/285/285
f 284/284/284 287/287/287 286/286/286
f 288/288/288 290/290/290 289/289/289
f 288/288/288 291/291/291 290/290/290
f 292/292/292 294/294/294 293/293/293
f 292/292/292 295/295/295 294/294/294
f 296/296/296 298/298/298 297/297/297
f 296/296/296 299/299/299 298/298/298
f 300/300/300 302/302/302 301/301/301
f 300/300/300 303/303/303 302/302/302
f 304/304/304 306/306/306 305/305/305
f 304/304/304 307/307/307 306/306/306
f 308/308/308 310/310/310 309/309/309
f 308/308/308 311/311/311 310/310/310
f 312/312/312 314/314/314 313/313/313
f 312/312/312 315/315/315 314/314/314
f 316/316/316 318/318/318 317/317/317
f 316/316/316 319/319/319 318/318/318
f 320/320/320 322/322/322 321/321/321
f 320/320/320 323/323/323 322/322/322
f 324/324/324 326/326/326 325/325/325
f 324/324/324 327/327/327 326/326/326
f 328/328/328 330/330/330 329/329/329
f 328/328/328 331/331/331 330/330/330
f 332/332/332 334/334/334 333/333/333
f 332/332/332 335/335/335 334/334/334
f 336/336/336 338/338/338 337/337/337
f 336/336/336 339/339/339 338/338/338
f 340/340/340 342/342/342 341/341/341
f 340/340/340 343/343/343 342/342/342
f 344/344/344 346/346/346 345/345/345
f 344/344/344 347/347/347 346/346/346
f 348/348/348 350/350/350 349/349/349
f 348/348/348 351/351/351 350/350/350
f 352/352/352 354/354/354 353/353/353
f 352/352/352 355/355/355 354/354/354
f 356/356/356 358/358/358 357/357/357
f 356/356/356 359/359/359 358/358/358
f 360/360/360 362/362/362 361/361/361
f 360/360/360 363/363/363 362/362/362
f 364/364/364 366/366/366 365/365/365
f 364/364/364 367/367/367 366/366/366
f 368/368/368 370/370/370 369/369/369
f 368/368/368 371/371/371 370/370/370
f 372/372/372 374/374/374 373/373/373
f 372/372/372 375/375/375 374/374/374
f 376/376/376 378/378/378 377/377/377
f 376/376/376 379/379/379 378/378/378
f 380/380/380 382/382/382 381/381/381
f 380/380/380 383/383/383 382/382/382
f 384/384/384 386/386/386 385/385/385
f 384/384/384 387/387/387 386/386/386
f 388/388/388 390/390/390 389/389/389
f 388/388/388 391/391/391 390/390/390
f 392/392/392 394/394/394 393/393/393
f 392/392/392 395/395/395 394/394/394
f 396/396/396 398/398/398 397/397/397
f 396/396/396 399/399/399 398/398/398
f 400/400/400 402/402/402 401/401/401
f 400/400/400 403/403/403 402/402/402
f 404/404/404 406/406/406 405/405/405
f 404/404/404 407/407/407 406/406/406
f 408/408/408 410/410/410 409/409/409
f 408/408/408 411/411/411 410/410/410
f 412/412/412 414/414/414 413/413/413
f 412/412/412 415/415/415 414/414/414
f 416/416/416 418/418/418 417/417/417
f 416/416/416 419/419/419 418/418/418
f 420/420/420 422/422/422 421/421/421
f 420/420/420 423/423/423 422/422/422
f 424/424/424 426/426/426 425/425/425
f 424/424/424 427/427/427 426/426/426
f 428/428/428 430/430/430 429/429/429
f 428/428/428 431/431/431 430/430/430
f 432/432/432 434/434/434 433/433/433
f 432/432/432 435/435/435 434/434/434
f 436/436/436 438/438/438 437/437/437
f 436/436/436 439/439/439 438/438/438
f 440/440/440 442/442/442 441/441/441
f 440/440/440 443/443/443 442/442/442
f 444/444/444 446/446/446 445/445/445
f 444/444/444 447/447/447 446/446/446
f 448/448/448 450/450/450 449/449/449
f 448/448/448 451/451/451 450/450/450
f 452/452/452 454/454/454 453/453/453
f 452/452/452 455/455/455 454/454/454
f 456/456/456 458/458/458 457/457/457
f 456/456/456 459/459/459 458/458/458
f 460/460/460 462/462/462 461/461/461
f 460/460/460 463/463/463 462/462/462
f 464/464/464 466/466/466 465/465/465
f 467/467/467 466/466/466 464/464/464
f 468/468/468 466/466/466 467/467/467
f 469/469/469 466/466/466 468/468/468
f 470/470/470 472/472/472 471/471/471
f 473/473/473 472/472/472 470/470/470
f 474/474/474 472/472/472 473/473/473
f 475/475/475 472/472/472 474/474/474
f 476/476/476 478/478/478 477/477/477
f 477/477/477 478/478/478 479/479/479
f 479/479/479 481/481/481 480/480/480
f 480/480/480 481/481/481 482/482/482
f 483/483/483 485/485/485 484/484/484
f 483/483/483 486/486/486 485/485/485
f 487/487/487 489/489/489 488/488/488
f 487/487/487 490/490/490 489/489/489
f 491/491/491 493/493/493 492/492/492
f 491/491/491 494/494/494 493/493/493
f 495/495/495 497/497/497 496/496/496
f 495/495/495 498/498/498 497/497/497
f 499/499/499 501/501/501 500/500/500
f 499/499/499 502/502/502 501/501/501
f 503/503/503 505/505/505 504/504/504
f 503/503/503 506/506/506 505/505/505
f 507/507/507 509/509/509 508/508/508
f 507/507/507 510/510/510 509/509/509
f 511/511/511 513/513/513 512/512/512
f 511/511/511 514/514/514 513/513/513
f 515/515/515 517/517/517 516/516/516
f 515/515/515 518/518/518 517/517/517
f 519/519/519 521/521/521 520/520/520
f 519/519/519 522/522/522 521/521/521
f 523/523/523 525/525/525 524/524/524
f 523/523/523 526/526/526 525/525/525
f 527/527/527 529/529/529 528/528/528
f 527/527/527 530/530/530 529/529/529
f 531/531/531 533/533/533 532/532/532
f 531/531/531 534/534/534 533/533/533
f 535/535/535 537/537/537 536/536/536
f 535/535/535 538/538/538 537/537/537
f 539/539/539 541/541/541 540/540/540
f 539/539/539 542/542/542 541/541/541
f 543/543/543 545/545/545 544/544/544
f 543/543/543 546/546/546 545/545/545
f 547/547/547 549/549/549 548/548/548
f 547/547/547 550/550/550 549/549/549
f 551/551/551 553/553/553 552/552/552
f 551/551/551 554/554/554 553/553/553
f 555/555/555 557/557/557 556/556/556
f 555/555/555 558/558/558 557/557/557
f 559/559/559 561/561/561 560/560/560
f 559/559/559 562/562/562 561/561/561
f 563/563/563 565/565/565 564/564/564
f 563/563/563 566/566/566 565/565/565
f 567/567/567 569/569/569 568/568/568
f 567/567/567 570/570/570 569/569/569
f 571/571/571 573/573/573 572/572/572
f 571/571/571 574/574/574 573/573/573
f 575/575/575 577/577/577 576/576/576
f 575/575/575 578/578/578 577/577/577
f 579/579/579 581/581/581 580/580/580
f 579/579/579 582/582/582 581/581/581
f 583/583/583 585/585/585 584/584/584
f 583/583/583 586/586/586 585/585/585
f 587/587/587 589/589/589 588/588/588
f 587/587/587 590/590/590 589/589/589
f 591/591/591 593/593/593 592/592/592
f 591/591/591 594/594/594 593/593/593
f 595/595/595 597/597/597 596/596/596
f 595/595/595 598/598/598 597/597/597
f 599/599/599 601/601/601 600/600/600
f 599/599/599 602/602/602 601/601/601
f 603/603/603 605/605/605 604/604/604
f 603/603/603 606/606/606 605/605/605
f 607/607/607 609/609/609 608/608/608
f 607/607/607 610/610/610 609/609/609
f 611/611/611 613/613/613 612/612/612
f 611/611/611 614/614/614 613/613/613
f 615/615/615 617/617/617 616/616/616
f 615/615/615 618/618/618 617/617/617
f 619/619/619 621/621/621 620/620/620
f 619/619/619 622/622/622 621/621/621
f 623/623/623 625/625/625 624/624/624
f 623/623/623 626/626/626 625/625/625
f 627/627/627 629/629/629 628/628/628
f 627/627/627 630/630/630 629/629/629
f 631/631/631 633/633/633 632/632/632
f 631/631/631 634/634/634 633/633/633
f 635/635/635 637/637/637 636/636/636
f 635/635/635 638/638/638 637/637/637
