#Spear_1161_8.obj

v 0.2976047 -1.088897 0.08103806
v 0.2966499 -1.088497 0.09213778
v 0.3499809 -1.248154 0.1009596
v -0.1478445 0.4090111 -0.04630294
v -0.1130133 0.3990126 -0.03386904
v -0.1335663 0.4125971 -0.07153032
v -0.1477652 0.4119262 -0.02067974
v -0.1130133 0.3990126 -0.03386904
v -0.1478445 0.4090111 -0.04630294
v -0.1348532 0.4517379 -0.05670952
v -0.1671743 0.5914132 -0.04969032
v -0.143244 0.4515848 -0.04683475
v -0.143244 0.4515848 -0.04683475
v -0.1671743 0.5914132 -0.04969032
v -0.1439095 0.452156 -0.03208485
v 0.3043966 -1.085859 0.09876123
v 0.3499809 -1.248154 0.1009596
v 0.2966499 -1.088497 0.09213778
v -0.1301597 0.4174911 -0.003932987
v -0.1028763 0.4268082 -0.001013784
v -0.1130133 0.3990126 -0.03386904
v -0.1477652 0.4119262 -0.02067974
v -0.1301597 0.4174911 -0.003932987
v -0.1130133 0.3990126 -0.03386904
v -0.1212693 0.4578136 -0.02126318
v -0.132351 0.457027 -0.02218802
v -0.1671743 0.5914132 -0.04969032
v -0.132351 0.457027 -0.02218802
v -0.1439095 0.452156 -0.03208485
v -0.1671743 0.5914132 -0.04969032
v 0.3044834 -1.086775 0.07671168
v 0.3499809 -1.248154 0.1009596
v 0.314053 -1.08402 0.08318515
v -0.1060151 0.4201737 -0.06671001
v -0.1335663 0.4125971 -0.07153032
v -0.1130133 0.3990126 -0.03386904
v -0.08840943 0.4257387 -0.04996316
v -0.1060151 0.4201737 -0.06671001
v -0.1130133 0.3990126 -0.03386904
v -0.1348532 0.4517379 -0.05670952
v -0.1258409 0.4560612 -0.05578717
v -0.1671743 0.5914132 -0.04969032
v -0.1258409 0.4560612 -0.05578717
v -0.1141592 0.4591057 -0.04581415
v -0.1671743 0.5914132 -0.04969032
v 0.31142 -1.083651 0.09625981
v 0.314053 -1.08402 0.08318515
v 0.3499809 -1.248154 0.1009596
v -0.08847485 0.4285669 -0.02616456
v -0.1130133 0.3990126 -0.03386904
v -0.1028763 0.4268082 -0.001013784
v -0.08840943 0.4257387 -0.04996316
v -0.1130133 0.3990126 -0.03386904
v -0.08847485 0.4285669 -0.02616456
v -0.1212693 0.4578136 -0.02126318
v -0.1671743 0.5914132 -0.04969032
v -0.1149479 0.4615043 -0.03114085
v -0.1149479 0.4615043 -0.03114085
v -0.1671743 0.5914132 -0.04969032
v -0.1141592 0.4591057 -0.04581415
v 0.3013686 -1.103795 0.07039926
v 0.2976047 -1.088897 0.08103806
v 0.3499809 -1.248154 0.1009596
v 0.2775876 -1.036054 0.05804725
v 0.2762038 -1.022608 0.07408741
v 0.2361308 -0.8988761 0.06406818
v 0.2187365 -0.9157515 -0.003696068
v 0.1999094 -0.8850048 -0.0294201
v 0.2267174 -0.8835023 0.05120596
v 0.2527551 -0.9508683 0.06888263
v 0.2187365 -0.9157515 -0.003696068
v 0.2514856 -0.9744266 0.0351246
v 0.2200475 -0.8370596 0.07347121
v 0.2369034 -0.8471429 0.06892933
v 0.2397878 -0.8806003 0.05555451
v 0.2267174 -0.8835023 0.05120596
v -0.1547345 0.4315864 -0.02289478
v -0.1547924 0.4305847 -0.04676934
v -0.143244 0.4515848 -0.04683475
v -0.1439095 0.452156 -0.03208485
v -0.1547924 0.4305847 -0.04676934
v -0.1478445 0.4090111 -0.04630294
v -0.1335663 0.4125971 -0.07153032
v -0.1384235 0.4325463 -0.07024539
v 0.1999094 -0.8850048 -0.0294201
v 0.1968853 -0.8810678 -0.01832319
v 0.2228251 -0.8800817 0.0513532
v 0.2267174 -0.8835023 0.05120596
v 0.2267174 -0.8835023 0.05120596
v 0.2228251 -0.8800817 0.0513532
v 0.213984 -0.8263617 0.07528778
v 0.2200475 -0.8370596 0.07347121
v 0.1968853 -0.8810678 -0.01832319
v 0.1907575 -0.8761096 -0.02175192
v 0.2034999 -0.8553318 0.01490816
v 0.2228251 -0.8800817 0.0513532
v 0.213984 -0.8263617 0.07528778
v 0.2228251 -0.8800817 0.0513532
v 0.2034999 -0.8553318 0.01490816
v 0.2052095 -0.8267786 0.03551247
v 0.2146546 -0.8136285 0.07095331
v 0.1907575 -0.8761096 -0.02175192
v 0.1931012 -0.8766506 -0.03847667
v 0.2078751 -0.8499317 0.005104609
v 0.2034999 -0.8553318 0.01490816
v 0.2034999 -0.8553318 0.01490816
v 0.2078751 -0.8499317 0.005104609
v 0.2115309 -0.8230879 0.0256348
v 0.2052095 -0.8267786 0.03551247
v 0.1489285 -0.7163138 0.0421273
v 0.1893941 -0.7667035 0.04681705
v 0.2010181 -0.7646617 0.0329158
v 0.1750393 -0.7048611 0.01006949
v 0.1489285 -0.7163138 0.0421273
v 0.1530069 -0.7072548 0.07634636
v 0.1964968 -0.7615806 0.06993873
v 0.1893941 -0.7667035 0.04681705
v 0.03463104 -0.159341 0.0046805
v 0.1657102 -0.630529 0.04411416
v 0.1684502 -0.6213326 0.03978229
v 0.03769799 -0.1594515 -0.002919517
v -0.05314343 0.1558314 -0.01058427
v -0.05556628 0.1534574 -0.01948268
v -0.1335462 0.4230785 -0.04073792
v -0.1311232 0.4254526 -0.03183952
v 0.1968853 -0.8810678 -0.01832319
v 0.1999094 -0.8850048 -0.0294201
v 0.1931012 -0.8766506 -0.03847667
v 0.1907575 -0.8761096 -0.02175192
v 0.2773399 -1.023832 0.08693849
v 0.2527551 -0.9508683 0.06888263
v 0.2579065 -0.9573404 0.08166283
v 0.2762038 -1.022608 0.07408741
v 0.2775876 -1.036054 0.05804725
v 0.2514856 -0.9744266 0.0351246
v 0.2527551 -0.9508683 0.06888263
v 0.2052095 -0.8267786 0.03551247
v 0.2115309 -0.8230879 0.0256348
v 0.2104907 -0.7876009 0.04060838
v 0.2023679 -0.7894955 0.05238464
v 0.2023679 -0.7894955 0.05238464
v 0.2055141 -0.7866908 0.07040777
v 0.2146546 -0.8136285 0.07095331
v 0.2052095 -0.8267786 0.03551247
v 0.2023679 -0.7894955 0.05238464
v 0.1890721 -0.7868303 0.0496319
v 0.1929203 -0.7855093 0.07503162
v 0.2055141 -0.7866908 0.07040777
v 0.1964968 -0.7615806 0.06993873
v 0.1884117 -0.7729538 0.07479687
v 0.1825747 -0.776391 0.04597377
v 0.1893941 -0.7667035 0.04681705
v 0.2361308 -0.8988761 0.06406818
v 0.2469873 -0.8925224 0.06658883
v 0.2616654 -0.9428052 0.07147722
v 0.2527551 -0.9508683 0.06888263
v 0.2267174 -0.8835023 0.05120596
v 0.2397878 -0.8806003 0.05555451
v 0.2469873 -0.8925224 0.06658883
v 0.2361308 -0.8988761 0.06406818
v 0.2527551 -0.9508683 0.06888263
v 0.2616654 -0.9428052 0.07147722
v 0.266115 -0.9477945 0.07688121
v 0.2579065 -0.9573404 0.08166283
v 0.2966499 -1.088497 0.09213778
v 0.2976047 -1.088897 0.08103806
v 0.2762038 -1.022608 0.07408741
v 0.2773399 -1.023832 0.08693849
v 0.1890721 -0.7868303 0.0496319
v 0.2040523 -0.7847279 0.03178107
v 0.1992543 -0.7723442 0.02789628
v 0.1825747 -0.776391 0.04597377
v 0.1825747 -0.776391 0.04597377
v 0.1884117 -0.7729538 0.07479687
v 0.1929203 -0.7855093 0.07503162
v 0.1890721 -0.7868303 0.0496319
v 0.1893941 -0.7667035 0.04681705
v 0.1825747 -0.776391 0.04597377
v 0.1992543 -0.7723442 0.02789628
v 0.2010181 -0.7646617 0.0329158
v 0.2104907 -0.7876009 0.04060838
v 0.2040523 -0.7847279 0.03178107
v 0.1890721 -0.7868303 0.0496319
v 0.2023679 -0.7894955 0.05238464
v 0.1643856 -0.6246485 0.05498481
v 0.1657102 -0.630529 0.04411416
v 0.03463104 -0.159341 0.0046805
v 0.0353758 -0.1569982 0.01555399
v -0.05314343 0.1558314 -0.01058427
v -0.05770616 0.1465179 -0.006102157
v -0.06056307 0.1438861 -0.02047561
v -0.05556628 0.1534574 -0.01948268
v -0.1335462 0.4230785 -0.04073792
v -0.05556628 0.1534574 -0.01948268
v -0.05079987 0.1552905 -0.02730895
v -0.1269568 0.4250278 -0.0487141
v 0.03769799 -0.1594515 -0.002919517
v 0.03337175 -0.1562896 -0.008246976
v 0.0251256 -0.1563568 0.003452701
v 0.03463104 -0.159341 0.0046805
v 0.01889612 -0.147658 0.001695888
v 0.0251256 -0.1563568 0.003452701
v 0.03337175 -0.1562896 -0.008246976
v 0.0285524 -0.1458191 -0.01388018
v -0.05876789 0.1373527 -0.003745432
v -0.05994672 0.1347511 -0.02009367
v -0.06056307 0.1438861 -0.02047561
v -0.05770616 0.1465179 -0.006102157
v 0.03463104 -0.159341 0.0046805
v 0.0251256 -0.1563568 0.003452701
v 0.02810585 -0.1555523 0.01790274
v 0.0353758 -0.1569982 0.01555399
v -0.05556628 0.1534574 -0.01948268
v -0.06056307 0.1438861 -0.02047561
v -0.05061745 0.1458968 -0.03240165
v -0.05079987 0.1552905 -0.02730895
v -0.143244 0.4515848 -0.04683475
v -0.1547924 0.4305847 -0.04676934
v -0.1384235 0.4325463 -0.07024539
v -0.1348532 0.4517379 -0.05670952
v -0.1477652 0.4119262 -0.02067974
v -0.1478445 0.4090111 -0.04630294
v -0.1547924 0.4305847 -0.04676934
v -0.1547345 0.4315864 -0.02289478
v 0.1620433 -0.6326755 0.04266564
v 0.1590618 -0.624912 0.0572595
v 0.1530069 -0.7072548 0.07634636
v 0.1489285 -0.7163138 0.0421273
v 0.1620433 -0.6326755 0.04266564
v 0.1489285 -0.7163138 0.0421273
v 0.1750393 -0.7048611 0.01006949
v 0.1661719 -0.6236207 0.03270889
v 0.1643856 -0.6246485 0.05498481
v 0.1590618 -0.624912 0.0572595
v 0.1620433 -0.6326755 0.04266564
v 0.1657102 -0.630529 0.04411416
v 0.1657102 -0.630529 0.04411416
v 0.1620433 -0.6326755 0.04266564
v 0.1661719 -0.6236207 0.03270889
v 0.1684502 -0.6213326 0.03978229
v 0.02021955 -0.1449705 0.01986915
v 0.01889612 -0.147658 0.001695888
v -0.009483923 -0.002840368 -0.006563725
v -0.008760526 -0.002410703 0.002561458
v -0.05994672 0.1347511 -0.02009367
v -0.009483923 -0.002840368 -0.006563725
v -0.006416964 -0.002951652 -0.01416322
v -0.05014571 0.1366768 -0.03384514
v 0.02810585 -0.1555523 0.01790274
v 0.0251256 -0.1563568 0.003452701
v 0.01889612 -0.147658 0.001695888
v 0.02021955 -0.1449705 0.01986915
v -0.009483923 -0.002840368 -0.006563725
v 0.01889612 -0.147658 0.001695888
v 0.0285524 -0.1458191 -0.01388018
v -0.006416964 -0.002951652 -0.01416322
v -0.06056307 0.1438861 -0.02047561
v -0.05994672 0.1347511 -0.02009367
v -0.05014571 0.1366768 -0.03384514
v -0.05061745 0.1458968 -0.03240165
v -0.008760526 -0.002410703 0.002561458
v -0.009483923 -0.002840368 -0.006563725
v -0.05994672 0.1347511 -0.02009367
v -0.05876789 0.1373527 -0.003745432
v 0.3167966 -1.09569 0.1074443
v 0.3499809 -1.248154 0.1009596
v 0.3043966 -1.085859 0.09876123
v 0.2995183 -1.025083 0.1091656
v 0.2851293 -1.017368 0.09705905
v 0.2470238 -0.893433 0.08871456
v 0.2466591 -0.8746474 0.09890077
v 0.285477 -0.8452374 0.1680566
v 0.2864745 -0.88455 0.1495857
v 0.2616806 -0.9456292 0.09185454
v 0.2864745 -0.88455 0.1495857
v 0.2906458 -0.9571474 0.1213896
v 0.2200475 -0.8370596 0.07347121
v 0.2466591 -0.8746474 0.09890077
v 0.2530823 -0.8746965 0.08735082
v 0.2369034 -0.8471429 0.06892933
v -0.1547345 0.4315864 -0.02289478
v -0.1439095 0.452156 -0.03208485
v -0.132351 0.457027 -0.02218802
v -0.1372522 0.4389787 -0.006224512
v -0.1372522 0.4389787 -0.006224512
v -0.1098456 0.4464685 -0.003228709
v -0.1028763 0.4268082 -0.001013784
v -0.1301597 0.4174911 -0.003932987
v 0.285477 -0.8452374 0.1680566
v 0.2466591 -0.8746474 0.09890077
v 0.2446111 -0.8691974 0.1006467
v 0.2758056 -0.8442515 0.163255
v 0.2466591 -0.8746474 0.09890077
v 0.2200475 -0.8370596 0.07347121
v 0.213984 -0.8263617 0.07528778
v 0.2446111 -0.8691974 0.1006467
v 0.2758056 -0.8442515 0.163255
v 0.2446111 -0.8691974 0.1006467
v 0.2536976 -0.8325245 0.127645
v 0.273779 -0.836889 0.1667498
v 0.2536976 -0.8325245 0.127645
v 0.2446111 -0.8691974 0.1006467
v 0.213984 -0.8263617 0.07528778
v 0.2356316 -0.8108261 0.1041275
v 0.2146546 -0.8136285 0.07095331
v 0.273779 -0.836889 0.1667498
v 0.2536976 -0.8325245 0.127645
v 0.2626079 -0.8244605 0.1302393
v 0.2872835 -0.8337284 0.1765731
v 0.2536976 -0.8325245 0.127645
v 0.2356316 -0.8108261 0.1041275
v 0.2466114 -0.8062997 0.1067247
v 0.2626079 -0.8244605 0.1302393
v 0.1770723 -0.7026504 0.1036694
v 0.2145102 -0.6854967 0.101733
v 0.2252056 -0.7533157 0.08935884
v 0.2089019 -0.7581065 0.08903682
v 0.1770723 -0.7026504 0.1036694
v 0.2089019 -0.7581065 0.08903682
v 0.1964968 -0.7615806 0.06993873
v 0.1530069 -0.7072548 0.07634636
v 0.04312247 -0.1543597 0.02217736
v 0.04888033 -0.1538375 0.02537724
v 0.1773543 -0.6180058 0.0610053
v 0.174325 -0.6273741 0.0616872
v -0.05314343 0.1558314 -0.01058427
v -0.1311232 0.4254526 -0.03183952
v -0.1250547 0.4280599 -0.02324107
v -0.04707485 0.1584387 -0.00198582
v 0.2758056 -0.8442515 0.163255
v 0.273779 -0.836889 0.1667498
v 0.2872835 -0.8337284 0.1765731
v 0.285477 -0.8452374 0.1680566
v 0.2773399 -1.023832 0.08693849
v 0.2579065 -0.9573404 0.08166283
v 0.2616806 -0.9456292 0.09185454
v 0.2851293 -1.017368 0.09705905
v 0.2616806 -0.9456292 0.09185454
v 0.2906458 -0.9571474 0.1213896
v 0.2995183 -1.025083 0.1091656
v 0.2356316 -0.8108261 0.1041275
v 0.215539 -0.7817651 0.08410483
v 0.2301431 -0.7789179 0.08465316
v 0.2466114 -0.8062997 0.1067247
v 0.215539 -0.7817651 0.08410483
v 0.2356316 -0.8108261 0.1041275
v 0.2146546 -0.8136285 0.07095331
v 0.2055141 -0.7866908 0.07040777
v 0.215539 -0.7817651 0.08410483
v 0.2055141 -0.7866908 0.07040777
v 0.1929203 -0.7855093 0.07503162
v 0.2088692 -0.7780623 0.09550211
v 0.1964968 -0.7615806 0.06993873
v 0.2089019 -0.7581065 0.08903682
v 0.206328 -0.7653037 0.0969423
v 0.1884117 -0.7729538 0.07479687
v 0.2470238 -0.893433 0.08871456
v 0.2616806 -0.9456292 0.09185454
v 0.2660558 -0.9402282 0.08205052
v 0.2532006 -0.8898292 0.07701229
v 0.2466591 -0.8746474 0.09890077
v 0.2470238 -0.893433 0.08871456
v 0.2532006 -0.8898292 0.07701229
v 0.2530823 -0.8746965 0.08735082
v 0.2616806 -0.9456292 0.09185454
v 0.2579065 -0.9573404 0.08166283
v 0.266115 -0.9477945 0.07688121
v 0.2660558 -0.9402282 0.08205052
v 0.2966499 -1.088497 0.09213778
v 0.2773399 -1.023832 0.08693849
v 0.2851293 -1.017368 0.09705905
v 0.3043966 -1.085859 0.09876123
v 0.2088692 -0.7780623 0.09550211
v 0.206328 -0.7653037 0.0969423
v 0.229655 -0.758305 0.09476289
v 0.2321961 -0.7710636 0.09332271
v 0.206328 -0.7653037 0.0969423
v 0.2088692 -0.7780623 0.09550211
v 0.1929203 -0.7855093 0.07503162
v 0.1884117 -0.7729538 0.07479687
v 0.2089019 -0.7581065 0.08903682
v 0.2252056 -0.7533157 0.08935884
v 0.229655 -0.758305 0.09476289
v 0.206328 -0.7653037 0.0969423
v 0.2301431 -0.7789179 0.08465316
v 0.215539 -0.7817651 0.08410483
v 0.2088692 -0.7780623 0.09550211
v 0.2321961 -0.7710636 0.09332271
v 0.1643856 -0.6246485 0.05498481
v 0.0353758 -0.1569982 0.01555399
v 0.04312247 -0.1543597 0.02217736
v 0.174325 -0.6273741 0.0616872
v -0.05314343 0.1558314 -0.01058427
v -0.04707485 0.1584387 -0.00198582
v -0.04952545 0.1494142 0.005996138
v -0.05770616 0.1465179 -0.006102157
v -0.1250547 0.4280599 -0.02324107
v -0.114241 0.430587 -0.02421743
v -0.03793933 0.1609356 -0.0009873924
v -0.04707485 0.1584387 -0.00198582
v 0.04888033 -0.1538375 0.02537724
v 0.04312247 -0.1543597 0.02217736
v 0.03798615 -0.1507116 0.02977437
v 0.05076729 -0.1479814 0.03047295
v 0.0321906 -0.141755 0.03349261
v 0.05031693 -0.1368481 0.03366486
v 0.05076729 -0.1479814 0.03047295
v 0.03798615 -0.1507116 0.02977437
v -0.05876789 0.1373527 -0.003745432
v -0.05770616 0.1465179 -0.006102157
v -0.04952545 0.1494142 0.005996138
v -0.04876438 0.140366 0.00820268
v 0.04312247 -0.1543597 0.02217736
v 0.0353758 -0.1569982 0.01555399
v 0.02810585 -0.1555523 0.01790274
v 0.03798615 -0.1507116 0.02977437
v -0.04707485 0.1584387 -0.00198582
v -0.03793933 0.1609356 -0.0009873924
v -0.03322192 0.154205 0.006318275
v -0.04952545 0.1494142 0.005996138
v -0.132351 0.457027 -0.02218802
v -0.1212693 0.4578136 -0.02126318
v -0.1098456 0.4464685 -0.003228709
v -0.1372522 0.4389787 -0.006224512
v -0.1477652 0.4119262 -0.02067974
v -0.1547345 0.4315864 -0.02289478
v -0.1372522 0.4389787 -0.006224512
v -0.1301597 0.4174911 -0.003932987
v 0.1730595 -0.6290599 0.06738856
v 0.1770723 -0.7026504 0.1036694
v 0.1530069 -0.7072548 0.07634636
v 0.1590618 -0.624912 0.0572595
v 0.1730595 -0.6290599 0.06738856
v 0.1814339 -0.6175147 0.0661805
v 0.2145102 -0.6854967 0.101733
v 0.1770723 -0.7026504 0.1036694
v 0.1643856 -0.6246485 0.05498481
v 0.174325 -0.6273741 0.0616872
v 0.1730595 -0.6290599 0.06738856
v 0.1590618 -0.624912 0.0572595
v 0.174325 -0.6273741 0.0616872
v 0.1773543 -0.6180058 0.0610053
v 0.1814339 -0.6175147 0.0661805
v 0.1730595 -0.6290599 0.06738856
v 0.02021955 -0.1449705 0.01986915
v -0.008760526 -0.002410703 0.002561458
v -0.00269195 0.0001974958 0.0111595
v 0.0321906 -0.141755 0.03349261
v -0.04876438 0.140366 0.00820268
v -0.03063792 0.1452729 0.008375036
v 0.004620772 0.002577294 0.01230811
v -0.00269195 0.0001974958 0.0111595
v 0.02810585 -0.1555523 0.01790274
v 0.02021955 -0.1449705 0.01986915
v 0.0321906 -0.141755 0.03349261
v 0.03798615 -0.1507116 0.02977437
v -0.00269195 0.0001974958 0.0111595
v 0.004620772 0.002577294 0.01230811
v 0.05031693 -0.1368481 0.03366486
v 0.0321906 -0.141755 0.03349261
v -0.04952545 0.1494142 0.005996138
v -0.03322192 0.154205 0.006318275
v -0.03063792 0.1452729 0.008375036
v -0.04876438 0.140366 0.00820268
v -0.008760526 -0.002410703 0.002561458
v -0.05876789 0.1373527 -0.003745432
v -0.04876438 0.140366 0.00820268
v -0.00269195 0.0001974958 0.0111595
v 0.3013686 -1.103795 0.07039926
v 0.3499809 -1.248154 0.1009596
v 0.3044834 -1.086775 0.07671168
v 0.2775876 -1.036054 0.05804725
v 0.286605 -1.018425 0.06938462
v 0.2535338 -0.8943988 0.0551153
v 0.244265 -0.8789391 0.04407815
v 0.1999094 -0.8850048 -0.0294201
v 0.2187365 -0.9157515 -0.003696068
v 0.2684799 -0.9464222 0.06190501
v 0.2187365 -0.9157515 -0.003696068
v 0.2514856 -0.9744266 0.0351246
v 0.247975 -0.8302271 0.05989198
v 0.244265 -0.8789391 0.04407815
v 0.2397878 -0.8806003 0.05555451
v 0.2369034 -0.8471429 0.06892933
v -0.09355592 0.4455151 -0.05232786
v -0.1141592 0.4591057 -0.04581415
v -0.1258409 0.4560612 -0.05578717
v -0.1112847 0.4417775 -0.06915122
v -0.1112847 0.4417775 -0.06915122
v -0.1384235 0.4325463 -0.07024539
v -0.1335663 0.4125971 -0.07153032
v -0.1060151 0.4201737 -0.06671001
v 0.1999094 -0.8850048 -0.0294201
v 0.244265 -0.8789391 0.04407815
v 0.2455519 -0.8753409 0.04012562
v 0.2074095 -0.8787124 -0.02294952
v 0.244265 -0.8789391 0.04407815
v 0.247975 -0.8302271 0.05989198
v 0.2487902 -0.817408 0.05738253
v 0.2455519 -0.8753409 0.04012562
v 0.2074095 -0.8787124 -0.02294952
v 0.2455519 -0.8753409 0.04012562
v 0.219348 -0.852713 0.008007136
v 0.2064825 -0.8716626 -0.02873002
v 0.219348 -0.852713 0.008007136
v 0.2455519 -0.8753409 0.04012562
v 0.2487902 -0.817408 0.05738253
v 0.2226126 -0.8223013 0.02655964
v 0.239081 -0.8069441 0.05949948
v 0.2064825 -0.8716626 -0.02873002
v 0.219348 -0.852713 0.008007136
v 0.2078751 -0.8499317 0.005104609
v 0.1931012 -0.8766506 -0.03847667
v 0.219348 -0.852713 0.008007136
v 0.2226126 -0.8223013 0.02655964
v 0.2115309 -0.8230879 0.0256348
v 0.2078751 -0.8499317 0.005104609
v 0.2169858 -0.7002631 0.008367788
v 0.1750393 -0.7048611 0.01006949
v 0.2010181 -0.7646617 0.0329158
v 0.2173216 -0.7598709 0.03323788
v 0.2169858 -0.7002631 0.008367788
v 0.2173216 -0.7598709 0.03323788
v 0.2296034 -0.7545704 0.0522598
v 0.2367892 -0.6867579 0.03560921
v 0.04333251 -0.1571028 0.0002042947
v 0.03769799 -0.1594515 -0.002919517
v 0.1684502 -0.6213326 0.03978229
v 0.1780574 -0.6280566 0.03933769
v -0.03547242 0.1585673 -0.01763549
v -0.1100746 0.4301631 -0.04109231
v -0.1161431 0.4275549 -0.04969034
v -0.04166422 0.1577865 -0.02631012
v 0.2074095 -0.8787124 -0.02294952
v 0.2064825 -0.8716626 -0.02873002
v 0.1931012 -0.8766506 -0.03847667
v 0.1999094 -0.8850048 -0.0294201
v 0.2965658 -1.019238 0.07783569
v 0.2771324 -0.9527469 0.07256022
v 0.2684799 -0.9464222 0.06190501
v 0.286605 -1.018425 0.06938462
v 0.2684799 -0.9464222 0.06190501
v 0.2514856 -0.9744266 0.0351246
v 0.2775876 -1.036054 0.05804725
v 0.2226126 -0.8223013 0.02655964
v 0.2231486 -0.7830434 0.04123036
v 0.2104907 -0.7876009 0.04060838
v 0.2115309 -0.8230879 0.0256348
v 0.2231486 -0.7830434 0.04123036
v 0.2226126 -0.8223013 0.02655964
v 0.239081 -0.8069441 0.05949948
v 0.2352644 -0.7797421 0.05667878
v 0.2231486 -0.7830434 0.04123036
v 0.2352644 -0.7797421 0.05667878
v 0.2434513 -0.7721086 0.05014834
v 0.2273792 -0.7777293 0.02960167
v 0.2296034 -0.7545704 0.0522598
v 0.2173216 -0.7598709 0.03323788
v 0.2245273 -0.7670558 0.0256433
v 0.2407655 -0.7594368 0.04976387
v 0.2535338 -0.8943988 0.0551153
v 0.2684799 -0.9464222 0.06190501
v 0.2616654 -0.9428052 0.07147722
v 0.2469873 -0.8925224 0.06658883
v 0.244265 -0.8789391 0.04407815
v 0.2535338 -0.8943988 0.0551153
v 0.2469873 -0.8925224 0.06658883
v 0.2397878 -0.8806003 0.05555451
v 0.2684799 -0.9464222 0.06190501
v 0.2771324 -0.9527469 0.07256022
v 0.266115 -0.9477945 0.07688121
v 0.2616654 -0.9428052 0.07147722
v 0.314053 -1.08402 0.08318515
v 0.2965658 -1.019238 0.07783569
v 0.286605 -1.018425 0.06938462
v 0.3044834 -1.086775 0.07671168
v 0.2273792 -0.7777293 0.02960167
v 0.2245273 -0.7670558 0.0256433
v 0.1992543 -0.7723442 0.02789628
v 0.2040523 -0.7847279 0.03178107
v 0.2245273 -0.7670558 0.0256433
v 0.2273792 -0.7777293 0.02960167
v 0.2434513 -0.7721086 0.05014834
v 0.2407655 -0.7594368 0.04976387
v 0.2173216 -0.7598709 0.03323788
v 0.2010181 -0.7646617 0.0329158
v 0.1992543 -0.7723442 0.02789628
v 0.2245273 -0.7670558 0.0256433
v 0.2104907 -0.7876009 0.04060838
v 0.2231486 -0.7830434 0.04123036
v 0.2273792 -0.7777293 0.02960167
v 0.2040523 -0.7847279 0.03178107
v 0.1836115 -0.6200541 0.04588186
v 0.05122389 -0.1543785 0.008652559
v 0.04333251 -0.1571028 0.0002042947
v 0.1780574 -0.6280566 0.03933769
v -0.03547242 0.1585673 -0.01763549
v -0.04166422 0.1577865 -0.02631012
v -0.03628134 0.1504854 -0.03375487
v -0.02627783 0.1534978 -0.02180635
v -0.1161431 0.4275549 -0.04969034
v -0.1269568 0.4250278 -0.0487141
v -0.05079987 0.1552905 -0.02730895
v -0.04166422 0.1577865 -0.02631012
v 0.03769799 -0.1594515 -0.002919517
v 0.04333251 -0.1571028 0.0002042947
v 0.04785248 -0.1516159 -0.007774767
v 0.03337175 -0.1562896 -0.008246976
v 0.04682345 -0.1408263 -0.01188292
v 0.0285524 -0.1458191 -0.01388018
v 0.03337175 -0.1562896 -0.008246976
v 0.04785248 -0.1516159 -0.007774767
v -0.02213897 0.1464235 -0.02180086
v -0.02627783 0.1534978 -0.02180635
v -0.03628134 0.1504854 -0.03375487
v -0.03201926 0.1415837 -0.0336729
v 0.04333251 -0.1571028 0.0002042947
v 0.05122389 -0.1543785 0.008652559
v 0.05603319 -0.1487197 0.004323528
v 0.04785248 -0.1516159 -0.007774767
v -0.04166422 0.1577865 -0.02631012
v -0.05079987 0.1552905 -0.02730895
v -0.05061745 0.1458968 -0.03240165
v -0.03628134 0.1504854 -0.03375487
v -0.1258409 0.4560612 -0.05578717
v -0.1348532 0.4517379 -0.05670952
v -0.1384235 0.4325463 -0.07024539
v -0.1112847 0.4417775 -0.06915122
v -0.08840943 0.4257387 -0.04996316
v -0.09355592 0.4455151 -0.05232786
v -0.1112847 0.4417775 -0.06915122
v -0.1060151 0.4201737 -0.06671001
v 0.1794463 -0.6281982 0.03371286
v 0.2169858 -0.7002631 0.008367788
v 0.2367892 -0.6867579 0.03560921
v 0.188544 -0.6162226 0.04162942
v 0.1794463 -0.6281982 0.03371286
v 0.1661719 -0.6236207 0.03270889
v 0.1750393 -0.7048611 0.01006949
v 0.2169858 -0.7002631 0.008367788
v 0.1836115 -0.6200541 0.04588186
v 0.1780574 -0.6280566 0.03933769
v 0.1794463 -0.6281982 0.03371286
v 0.188544 -0.6162226 0.04162942
v 0.1780574 -0.6280566 0.03933769
v 0.1684502 -0.6213326 0.03978229
v 0.1661719 -0.6236207 0.03270889
v 0.1794463 -0.6281982 0.03371286
v 0.0587945 -0.13761 0.001740132
v 0.008787139 0.002152524 -0.00456635
v 0.00271856 -0.0004547877 -0.0131648
v 0.04682345 -0.1408263 -0.01188292
v -0.03201926 0.1415837 -0.0336729
v -0.05014571 0.1366768 -0.03384514
v -0.006416964 -0.002951652 -0.01416322
v 0.00271856 -0.0004547877 -0.0131648
v 0.05603319 -0.1487197 0.004323528
v 0.0587945 -0.13761 0.001740132
v 0.04682345 -0.1408263 -0.01188292
v 0.04785248 -0.1516159 -0.007774767
v 0.00271856 -0.0004547877 -0.0131648
v -0.006416964 -0.002951652 -0.01416322
v 0.0285524 -0.1458191 -0.01388018
v 0.04682345 -0.1408263 -0.01188292
v -0.03628134 0.1504854 -0.03375487
v -0.05061745 0.1458968 -0.03240165
v -0.05014571 0.1366768 -0.03384514
v -0.03201926 0.1415837 -0.0336729
v 0.008787139 0.002152524 -0.00456635
v -0.02213897 0.1464235 -0.02180086
v -0.03201926 0.1415837 -0.0336729
v 0.00271856 -0.0004547877 -0.0131648
v 0.3167966 -1.09569 0.1074443
v 0.31142 -1.083651 0.09625981
v 0.3499809 -1.248154 0.1009596
v 0.2995183 -1.025083 0.1091656
v 0.2955091 -1.015099 0.0906079
v 0.2645716 -0.8888707 0.08158715
v 0.2864745 -0.88455 0.1495857
v 0.285477 -0.8452374 0.1680566
v 0.2640621 -0.8701702 0.08994795
v 0.2792282 -0.941066 0.08472672
v 0.2864745 -0.88455 0.1495857
v 0.2906458 -0.9571474 0.1213896
v 0.247975 -0.8302271 0.05989198
v 0.2369034 -0.8471429 0.06892933
v 0.2530823 -0.8746965 0.08735082
v 0.2640621 -0.8701702 0.08994795
v -0.09355592 0.4455151 -0.05232786
v -0.09359985 0.4502575 -0.02678125
v -0.1149479 0.4615043 -0.03114085
v -0.1141592 0.4591057 -0.04581415
v -0.09359985 0.4502575 -0.02678125
v -0.08847485 0.4285669 -0.02616456
v -0.1028763 0.4268082 -0.001013784
v -0.1098456 0.4464685 -0.003228709
v 0.285477 -0.8452374 0.1680566
v 0.2861852 -0.841983 0.156804
v 0.267338 -0.8644557 0.08941883
v 0.2640621 -0.8701702 0.08994795
v 0.2640621 -0.8701702 0.08994795
v 0.267338 -0.8644557 0.08941883
v 0.2487902 -0.817408 0.05738253
v 0.247975 -0.8302271 0.05989198
v 0.2861852 -0.841983 0.156804
v 0.2878042 -0.8343855 0.1599981
v 0.2695458 -0.8299049 0.1207436
v 0.267338 -0.8644557 0.08941883
v 0.2487902 -0.817408 0.05738253
v 0.267338 -0.8644557 0.08941883
v 0.2695458 -0.8299049 0.1207436
v 0.2533026 -0.8080902 0.09707628
v 0.239081 -0.8069441 0.05949948
v 0.2878042 -0.8343855 0.1599981
v 0.2872835 -0.8337284 0.1765731
v 0.2626079 -0.8244605 0.1302393
v 0.2695458 -0.8299049 0.1207436
v 0.2695458 -0.8299049 0.1207436
v 0.2626079 -0.8244605 0.1302393
v 0.2466114 -0.8062997 0.1067247
v 0.2533026 -0.8080902 0.09707628
v 0.2434515 -0.6866299 0.07188462
v 0.2350065 -0.751391 0.07560778
v 0.2252056 -0.7533157 0.08935884
v 0.2145102 -0.6854967 0.101733
v 0.2434515 -0.6866299 0.07188462
v 0.2367892 -0.6867579 0.03560921
v 0.2296034 -0.7545704 0.0522598
v 0.2350065 -0.751391 0.07560778
v 0.05182406 -0.1521215 0.01770114
v 0.1845815 -0.6232783 0.05515965
v 0.1773543 -0.6180058 0.0610053
v 0.04888033 -0.1538375 0.02537724
v -0.03547242 0.1585673 -0.01763549
v -0.03487237 0.1608243 -0.008586892
v -0.1076517 0.4325363 -0.03219349
v -0.1100746 0.4301631 -0.04109231
v 0.2861852 -0.841983 0.156804
v 0.285477 -0.8452374 0.1680566
v 0.2872835 -0.8337284 0.1765731
v 0.2878042 -0.8343855 0.1599981
v 0.2965658 -1.019238 0.07783569
v 0.2792282 -0.941066 0.08472672
v 0.2771324 -0.9527469 0.07256022
v 0.2955091 -1.015099 0.0906079
v 0.2995183 -1.025083 0.1091656
v 0.2906458 -0.9571474 0.1213896
v 0.2792282 -0.941066 0.08472672
v 0.2533026 -0.8080902 0.09707628
v 0.2466114 -0.8062997 0.1067247
v 0.2301431 -0.7789179 0.08465316
v 0.2384106 -0.7769375 0.07470191
v 0.2384106 -0.7769375 0.07470191
v 0.2352644 -0.7797421 0.05667878
v 0.239081 -0.8069441 0.05949948
v 0.2533026 -0.8080902 0.09707628
v 0.2384106 -0.7769375 0.07470191
v 0.247321 -0.7688744 0.07729655
v 0.2434513 -0.7721086 0.05014834
v 0.2352644 -0.7797421 0.05667878
v 0.2296034 -0.7545704 0.0522598
v 0.2407655 -0.7594368 0.04976387
v 0.2466027 -0.7559996 0.0785869
v 0.2350065 -0.751391 0.07560778
v 0.2645716 -0.8888707 0.08158715
v 0.2532006 -0.8898292 0.07701229
v 0.2660558 -0.9402282 0.08205052
v 0.2792282 -0.941066 0.08472672
v 0.2640621 -0.8701702 0.08994795
v 0.2530823 -0.8746965 0.08735082
v 0.2532006 -0.8898292 0.07701229
v 0.2645716 -0.8888707 0.08158715
v 0.2792282 -0.941066 0.08472672
v 0.2660558 -0.9402282 0.08205052
v 0.266115 -0.9477945 0.07688121
v 0.2771324 -0.9527469 0.07256022
v 0.314053 -1.08402 0.08318515
v 0.31142 -1.083651 0.09625981
v 0.2955091 -1.015099 0.0906079
v 0.2965658 -1.019238 0.07783569
v 0.247321 -0.7688744 0.07729655
v 0.2321961 -0.7710636 0.09332271
v 0.229655 -0.758305 0.09476289
v 0.2466027 -0.7559996 0.0785869
v 0.2466027 -0.7559996 0.0785869
v 0.2407655 -0.7594368 0.04976387
v 0.2434513 -0.7721086 0.05014834
v 0.247321 -0.7688744 0.07729655
v 0.2350065 -0.751391 0.07560778
v 0.2466027 -0.7559996 0.0785869
v 0.229655 -0.758305 0.09476289
v 0.2252056 -0.7533157 0.08935884
v 0.2301431 -0.7789179 0.08465316
v 0.2321961 -0.7710636 0.09332271
v 0.247321 -0.7688744 0.07729655
v 0.2384106 -0.7769375 0.07470191
v 0.1836115 -0.6200541 0.04588186
v 0.1845815 -0.6232783 0.05515965
v 0.05182406 -0.1521215 0.01770114
v 0.05122389 -0.1543785 0.008652559
v -0.03547242 0.1585673 -0.01763549
v -0.02627783 0.1534978 -0.02180635
v -0.02327619 0.1562165 -0.005608294
v -0.03487237 0.1608243 -0.008586892
v -0.1076517 0.4325363 -0.03219349
v -0.03487237 0.1608243 -0.008586892
v -0.03793933 0.1609356 -0.0009873924
v -0.114241 0.430587 -0.02421743
v 0.04888033 -0.1538375 0.02537724
v 0.05076729 -0.1479814 0.03047295
v 0.05889021 -0.1460879 0.01869697
v 0.05182406 -0.1521215 0.01770114
v 0.06011793 -0.1349225 0.01991339
v 0.05889021 -0.1460879 0.01869697
v 0.05076729 -0.1479814 0.03047295
v 0.05031693 -0.1368481 0.03366486
v -0.02213897 0.1464235 -0.02180086
v -0.01901411 0.1473148 -0.005526208
v -0.02327619 0.1562165 -0.005608294
v -0.02627783 0.1534978 -0.02180635
v 0.05182406 -0.1521215 0.01770114
v 0.05889021 -0.1460879 0.01869697
v 0.05603319 -0.1487197 0.004323528
v 0.05122389 -0.1543785 0.008652559
v -0.03487237 0.1608243 -0.008586892
v -0.02327619 0.1562165 -0.005608294
v -0.03322192 0.154205 0.006318275
v -0.03793933 0.1609356 -0.0009873924
v -0.1149479 0.4615043 -0.03114085
v -0.09359985 0.4502575 -0.02678125
v -0.1098456 0.4464685 -0.003228709
v -0.1212693 0.4578136 -0.02126318
v -0.08840943 0.4257387 -0.04996316
v -0.08847485 0.4285669 -0.02616456
v -0.09359985 0.4502575 -0.02678125
v -0.09355592 0.4455151 -0.05232786
v 0.1904626 -0.6245825 0.05843573
v 0.188544 -0.6162226 0.04162942
v 0.2367892 -0.6867579 0.03560921
v 0.2434515 -0.6866299 0.07188462
v 0.1904626 -0.6245825 0.05843573
v 0.2434515 -0.6866299 0.07188462
v 0.2145102 -0.6854967 0.101733
v 0.1814339 -0.6175147 0.0661805
v 0.1836115 -0.6200541 0.04588186
v 0.188544 -0.6162226 0.04162942
v 0.1904626 -0.6245825 0.05843573
v 0.1845815 -0.6232783 0.05515965
v 0.1845815 -0.6232783 0.05515965
v 0.1904626 -0.6245825 0.05843573
v 0.1814339 -0.6175147 0.0661805
v 0.1773543 -0.6180058 0.0610053
v 0.0587945 -0.13761 0.001740132
v 0.06011793 -0.1349225 0.01991339
v 0.009510523 0.002583025 0.004558315
v 0.008787139 0.002152524 -0.00456635
v -0.01901411 0.1473148 -0.005526208
v 0.009510523 0.002583025 0.004558315
v 0.004620772 0.002577294 0.01230811
v -0.03063792 0.1452729 0.008375036
v 0.05603319 -0.1487197 0.004323528
v 0.05889021 -0.1460879 0.01869697
v 0.06011793 -0.1349225 0.01991339
v 0.0587945 -0.13761 0.001740132
v 0.009510523 0.002583025 0.004558315
v 0.06011793 -0.1349225 0.01991339
v 0.05031693 -0.1368481 0.03366486
v 0.004620772 0.002577294 0.01230811
v -0.02327619 0.1562165 -0.005608294
v -0.01901411 0.1473148 -0.005526208
v -0.03063792 0.1452729 0.008375036
v -0.03322192 0.154205 0.006318275
v 0.008787139 0.002152524 -0.00456635
v 0.009510523 0.002583025 0.004558315
v -0.01901411 0.1473148 -0.005526208
v -0.02213897 0.1464235 -0.02180086

vn 0.934082 -0.133667 -0.3310547
vn 0.934082 -0.133667 -0.3310547
vn 0.934082 -0.133667 -0.3310547
vn 0.1484375 -0.6206055 -0.7700195
vn 0.1484375 -0.6206055 -0.7700195
vn 0.1484375 -0.6206055 -0.7700195
vn 0.2741699 -0.2836914 -0.9189453
vn 0.2741699 -0.2836914 -0.9189453
vn 0.2741699 -0.2836914 -0.9189453
vn 0.7324219 -0.6713867 0.1115723
vn 0.7324219 -0.6713867 0.1115723
vn 0.7324219 -0.6713867 0.1115723
vn 0.9790039 -0.07611084 -0.1881104
vn 0.9790039 -0.07611084 -0.1881104
vn 0.9790039 -0.07611084 -0.1881104
vn 0.6010742 0.644043 -0.4731445
vn 0.6010742 0.644043 -0.4731445
vn 0.6010742 0.644043 -0.4731445
vn -0.1560059 0.201416 -0.9667969
vn -0.1560059 0.201416 -0.9667969
vn -0.1560059 0.201416 -0.9667969
vn 0.1517334 0.005241394 -0.9882813
vn 0.1517334 0.005241394 -0.9882813
vn 0.1517334 0.005241394 -0.9882813
vn 0.157959 0.956543 -0.2453613
vn 0.157959 0.956543 -0.2453613
vn 0.157959 0.956543 -0.2453613
vn 0.7104492 0.6323242 -0.309082
vn 0.7104492 0.6323242 -0.309082
vn 0.7104492 0.6323242 -0.309082
vn -0.6362305 -0.6665039 0.388916
vn -0.6362305 -0.6665039 0.388916
vn -0.6362305 -0.6665039 0.388916
vn -0.3444824 -0.7504883 -0.5634766
vn -0.3444824 -0.7504883 -0.5634766
vn -0.3444824 -0.7504883 -0.5634766
vn -0.6523438 -0.5112305 -0.5600586
vn -0.6523438 -0.5112305 -0.5600586
vn -0.6523438 -0.5112305 -0.5600586
vn -0.09973145 -0.8847656 0.4550781
vn -0.09973145 -0.8847656 0.4550781
vn -0.09973145 -0.8847656 0.4550781
vn -0.6210938 -0.5825195 0.5244141
vn -0.6210938 -0.5825195 0.5244141
vn -0.6210938 -0.5825195 0.5244141
vn -0.9404297 0.3146973 0.1278076
vn -0.9404297 0.3146973 0.1278076
vn -0.9404297 0.3146973 0.1278076
vn -0.6489258 0.06463623 -0.7578125
vn -0.6489258 0.06463623 -0.7578125
vn -0.6489258 0.06463623 -0.7578125
vn -0.7714844 -0.2089844 -0.6005859
vn -0.7714844 -0.2089844 -0.6005859
vn -0.7714844 -0.2089844 -0.6005859
vn -0.6425781 0.7612305 0.08764648
vn -0.6425781 0.7612305 0.08764648
vn -0.6425781 0.7612305 0.08764648
vn -0.9204102 0.1463623 0.3625488
vn -0.9204102 0.1463623 0.3625488
vn -0.9204102 0.1463623 0.3625488
vn 0.9370117 -0.00592041 -0.3486328
vn 0.9370117 -0.00592041 -0.3486328
vn 0.9370117 -0.00592041 -0.3486328
vn 0.9370117 -0.00592041 -0.3486328
vn 0.9370117 -0.00592041 -0.3486328
vn 0.902832 0.09411621 -0.4196777
vn 0.902832 0.09411621 -0.4196777
vn 0.902832 0.09411621 -0.4196777
vn 0.902832 0.09411621 -0.4196777
vn 0.9370117 -0.00592041 -0.3486328
vn 0.9370117 -0.00592041 -0.3486328
vn 0.9370117 -0.00592041 -0.3486328
vn 0.1032715 0.6669922 -0.737793
vn 0.1032715 0.6669922 -0.737793
vn 0.1032715 0.6669922 -0.737793
vn 0.1032715 0.6669922 -0.737793
vn 0.8833008 0.1749268 0.4348145
vn 0.8833008 0.1749268 0.4348145
vn 0.8833008 0.1749268 0.4348145
vn 0.8833008 0.1749268 0.4348145
vn 0.7548828 -0.6557617 0.0005421638
vn 0.7548828 -0.6557617 0.0005421638
vn 0.7548828 -0.6557617 0.0005421638
vn 0.7548828 -0.6557617 0.0005421638
vn 0.5058594 -0.2072754 -0.8374023
vn 0.5058594 -0.2072754 -0.8374023
vn 0.5058594 -0.2072754 -0.8374023
vn 0.5058594 -0.2072754 -0.8374023
vn 0.4797363 0.5102539 -0.7138672
vn 0.4797363 0.5102539 -0.7138672
vn 0.4797363 0.5102539 -0.7138672
vn 0.4797363 0.5102539 -0.7138672
vn 0.9086914 0.1679688 -0.3815918
vn 0.9086914 0.1679688 -0.3815918
vn 0.9086914 0.1679688 -0.3815918
vn 0.9086914 0.1679688 -0.3815918
vn 0.9492188 0.1497803 -0.276123
vn 0.9492188 0.1497803 -0.276123
vn 0.9492188 0.1497803 -0.276123
vn 0.9492188 0.1497803 -0.276123
vn 0.9492188 0.1497803 -0.276123
vn 0.8027344 0.06445313 0.5932617
vn 0.8027344 0.06445313 0.5932617
vn 0.8027344 0.06445313 0.5932617
vn 0.8027344 0.06445313 0.5932617
vn 0.9008789 -0.2039795 0.3837891
vn 0.9008789 -0.2039795 0.3837891
vn 0.9008789 -0.2039795 0.3837891
vn 0.9008789 -0.2039795 0.3837891
vn 0.5107422 -0.8422852 -0.1721191
vn 0.5107422 -0.8422852 -0.1721191
vn 0.5107422 -0.8422852 -0.1721191
vn 0.5107422 -0.8422852 -0.1721191
vn 0.75 -0.03048706 -0.6606445
vn 0.75 -0.03048706 -0.6606445
vn 0.75 -0.03048706 -0.6606445
vn 0.75 -0.03048706 -0.6606445
vn 0.7519531 -0.6586914 -0.03219604
vn 0.7519531 -0.6586914 -0.03219604
vn 0.7519531 -0.6586914 -0.03219604
vn 0.7519531 -0.6586914 -0.03219604
vn 0.9404297 0.04879761 -0.3369141
vn 0.9404297 0.04879761 -0.3369141
vn 0.9404297 0.04879761 -0.3369141
vn 0.9404297 0.04879761 -0.3369141
vn 0.746582 -0.3481445 -0.5664063
vn 0.746582 -0.3481445 -0.5664063
vn 0.746582 -0.3481445 -0.5664063
vn 0.746582 -0.3481445 -0.5664063
vn 0.9370117 -0.00592041 -0.3486328
vn 0.9370117 -0.00592041 -0.3486328
vn 0.9370117 -0.00592041 -0.3486328
vn 0.9370117 -0.00592041 -0.3486328
vn 0.934082 -0.133667 -0.3310547
vn 0.934082 -0.133667 -0.3310547
vn 0.934082 -0.133667 -0.3310547
vn 0.7973633 -0.4572754 0.394043
vn 0.7973633 -0.4572754 0.394043
vn 0.7973633 -0.4572754 0.394043
vn 0.7973633 -0.4572754 0.394043
vn 0.9404297 0.04879761 -0.3369141
vn 0.9404297 0.04879761 -0.3369141
vn 0.9404297 0.04879761 -0.3369141
vn 0.9404297 0.04879761 -0.3369141
vn 0.1141968 -0.1853027 -0.9760742
vn 0.1141968 -0.1853027 -0.9760742
vn 0.1141968 -0.1853027 -0.9760742
vn 0.1141968 -0.1853027 -0.9760742
vn 0.8251953 0.2109375 0.5244141
vn 0.8251953 0.2109375 0.5244141
vn 0.8251953 0.2109375 0.5244141
vn 0.8251953 0.2109375 0.5244141
vn 0.3027344 0.8798828 -0.3662109
vn 0.3027344 0.8798828 -0.3662109
vn 0.3027344 0.8798828 -0.3662109
vn 0.3027344 0.8798828 -0.3662109
vn 0.4362793 0.8979492 0.056427
vn 0.4362793 0.8979492 0.056427
vn 0.4362793 0.8979492 0.056427
vn 0.4362793 0.8979492 0.056427
vn 0.4858398 0.8261719 0.2851563
vn 0.4858398 0.8261719 0.2851563
vn 0.4858398 0.8261719 0.2851563
vn 0.4858398 0.8261719 0.2851563
vn 0.9370117 -0.2380371 -0.255127
vn 0.9370117 -0.2380371 -0.255127
vn 0.9370117 -0.2380371 -0.255127
vn 0.9370117 -0.2380371 -0.255127
vn 0.5454102 -0.8251953 -0.1485596
vn 0.5454102 -0.8251953 -0.1485596
vn 0.5454102 -0.8251953 -0.1485596
vn 0.5454102 -0.8251953 -0.1485596
vn 0.9228516 -0.144165 -0.3569336
vn 0.9228516 -0.144165 -0.3569336
vn 0.9228516 -0.144165 -0.3569336
vn 0.9228516 -0.144165 -0.3569336
vn 0.6962891 -0.3417969 0.6313477
vn 0.6962891 -0.3417969 0.6313477
vn 0.6962891 -0.3417969 0.6313477
vn 0.6962891 -0.3417969 0.6313477
vn 0.05130005 -0.5883789 -0.8071289
vn 0.05130005 -0.5883789 -0.8071289
vn 0.05130005 -0.5883789 -0.8071289
vn 0.05130005 -0.5883789 -0.8071289
vn 0.9560547 -0.1096191 -0.2712402
vn 0.9560547 -0.1096191 -0.2712402
vn 0.9560547 -0.1096191 -0.2712402
vn 0.9560547 -0.1096191 -0.2712402
vn 0.8833008 0.1749268 0.4348145
vn 0.8833008 0.1749268 0.4348145
vn 0.8833008 0.1749268 0.4348145
vn 0.8833008 0.1749268 0.4348145
vn 0.6889648 -0.7246094 0.000992775
vn 0.6889648 -0.7246094 0.000992775
vn 0.6889648 -0.7246094 0.000992775
vn 0.6889648 -0.7246094 0.000992775
vn 0.1798096 -0.5942383 -0.7841797
vn 0.1798096 -0.5942383 -0.7841797
vn 0.1798096 -0.5942383 -0.7841797
vn 0.1798096 -0.5942383 -0.7841797
vn 0.5644531 -0.7646484 -0.3115234
vn 0.5644531 -0.7646484 -0.3115234
vn 0.5644531 -0.7646484 -0.3115234
vn 0.5644531 -0.7646484 -0.3115234
vn 0.9960938 0.05471802 -0.07196045
vn 0.9960938 0.05471802 -0.07196045
vn 0.9960938 0.05471802 -0.07196045
vn 0.9960938 0.05471802 -0.07196045
vn 0.2071533 -0.3657227 -0.9072266
vn 0.2071533 -0.3657227 -0.9072266
vn 0.2071533 -0.3657227 -0.9072266
vn 0.2071533 -0.3657227 -0.9072266
vn 0.7246094 -0.3461914 0.5961914
vn 0.7246094 -0.3461914 0.5961914
vn 0.7246094 -0.3461914 0.5961914
vn 0.7246094 -0.3461914 0.5961914
vn 0.6962891 -0.3417969 0.6313477
vn 0.6962891 -0.3417969 0.6313477
vn 0.6962891 -0.3417969 0.6313477
vn 0.6962891 -0.3417969 0.6313477
vn 0.9370117 -0.2380371 -0.255127
vn 0.9370117 -0.2380371 -0.255127
vn 0.9370117 -0.2380371 -0.255127
vn 0.9370117 -0.2380371 -0.255127
vn 0.9970703 0.02902222 0.07281494
vn 0.9970703 0.02902222 0.07281494
vn 0.9970703 0.02902222 0.07281494
vn 0.9970703 0.02902222 0.07281494
vn 0.7880859 -0.5253906 0.3200684
vn 0.7880859 -0.5253906 0.3200684
vn 0.7880859 -0.5253906 0.3200684
vn 0.7880859 -0.5253906 0.3200684
vn 0.1929932 -0.1873779 0.9633789
vn 0.1929932 -0.1873779 0.9633789
vn 0.1929932 -0.1873779 0.9633789
vn 0.1929932 -0.1873779 0.9633789
vn 0.7963867 0.4899902 0.3540039
vn 0.7963867 0.4899902 0.3540039
vn 0.7963867 0.4899902 0.3540039
vn 0.7963867 0.4899902 0.3540039
vn 0.9790039 -0.07611084 -0.1881104
vn 0.9790039 -0.07611084 -0.1881104
vn 0.9790039 -0.07611084 -0.1881104
vn 0.9790039 -0.07611084 -0.1881104
vn 0.6860352 -0.7270508 -0.0319519
vn 0.6860352 -0.7270508 -0.0319519
vn 0.6860352 -0.7270508 -0.0319519
vn 0.6860352 -0.7270508 -0.0319519
vn 0.7470703 -0.142334 -0.6494141
vn 0.7470703 -0.142334 -0.6494141
vn 0.7470703 -0.142334 -0.6494141
vn 0.7470703 -0.142334 -0.6494141
vn 0.7607422 -0.6459961 0.06408691
vn 0.7607422 -0.6459961 0.06408691
vn 0.7607422 -0.6459961 0.06408691
vn 0.7607422 -0.6459961 0.06408691
vn 0.7133789 -0.6567383 0.2442627
vn 0.7133789 -0.6567383 0.2442627
vn 0.7133789 -0.6567383 0.2442627
vn 0.7133789 -0.6567383 0.2442627
vn 0.934082 -0.133667 -0.3310547
vn 0.934082 -0.133667 -0.3310547
vn 0.934082 -0.133667 -0.3310547
vn 0.934082 -0.133667 -0.3310547
vn 0.7553711 0.4726563 -0.4543457
vn 0.7553711 0.4726563 -0.4543457
vn 0.7553711 0.4726563 -0.4543457
vn 0.7265625 0.527832 -0.4394531
vn 0.7265625 0.527832 -0.4394531
vn 0.8432617 0.284668 -0.4560547
vn 0.8432617 0.284668 -0.4560547
vn 0.8432617 0.284668 -0.4560547
vn 0.8432617 0.284668 -0.4560547
vn 0.8149414 0.3642578 -0.4509277
vn 0.8149414 0.3642578 -0.4509277
vn 0.8149414 0.3642578 -0.4509277
vn 0.5551758 -0.7084961 -0.4355469
vn 0.5551758 -0.7084961 -0.4355469
vn 0.5551758 -0.7084961 -0.4355469
vn 0.5551758 -0.7084961 -0.4355469
vn 0.7368164 0.5712891 0.3615723
vn 0.7368164 0.5712891 0.3615723
vn 0.7368164 0.5712891 0.3615723
vn 0.7368164 0.5712891 0.3615723
vn 0.2116699 0.9169922 -0.3376465
vn 0.2116699 0.9169922 -0.3376465
vn 0.2116699 0.9169922 -0.3376465
vn 0.2116699 0.9169922 -0.3376465
vn 0.3835449 0.1075439 -0.9169922
vn 0.3835449 0.1075439 -0.9169922
vn 0.3835449 0.1075439 -0.9169922
vn 0.3835449 0.1075439 -0.9169922
vn 0.7797852 -0.2342529 -0.5805664
vn 0.7797852 -0.2342529 -0.5805664
vn 0.7797852 -0.2342529 -0.5805664
vn 0.7797852 -0.2342529 -0.5805664
vn 0.8803711 0.2734375 -0.3869629
vn 0.8803711 0.2734375 -0.3869629
vn 0.8803711 0.2734375 -0.3869629
vn 0.8803711 0.2734375 -0.3869629
vn 0.8583984 0.3925781 -0.3303223
vn 0.8583984 0.3925781 -0.3303223
vn 0.8583984 0.3925781 -0.3303223
vn 0.8583984 0.3925781 -0.3303223
vn 0.8583984 0.3925781 -0.3303223
vn 0.6518555 0.6025391 0.4602051
vn 0.6518555 0.6025391 0.4602051
vn 0.6518555 0.6025391 0.4602051
vn 0.6518555 0.6025391 0.4602051
vn 0.5053711 0.8520508 0.1359863
vn 0.5053711 0.8520508 0.1359863
vn 0.5053711 0.8520508 0.1359863
vn 0.5053711 0.8520508 0.1359863
vn -0.03536987 0.8154297 -0.578125
vn -0.03536987 0.8154297 -0.578125
vn -0.03536987 0.8154297 -0.578125
vn -0.03536987 0.8154297 -0.578125
vn 0.6586914 0.2218018 -0.71875
vn 0.6586914 0.2218018 -0.71875
vn 0.6586914 0.2218018 -0.71875
vn 0.6586914 0.2218018 -0.71875
vn 0.2369385 0.887207 -0.3964844
vn 0.2369385 0.887207 -0.3964844
vn 0.2369385 0.887207 -0.3964844
vn 0.2369385 0.887207 -0.3964844
vn 0.7895508 0.4519043 -0.4152832
vn 0.7895508 0.4519043 -0.4152832
vn 0.7895508 0.4519043 -0.4152832
vn 0.7895508 0.4519043 -0.4152832
vn 0.4736328 0.449707 -0.7573242
vn 0.4736328 0.449707 -0.7573242
vn 0.4736328 0.449707 -0.7573242
vn 0.4736328 0.449707 -0.7573242
vn 0.7895508 0.4519043 -0.4152832
vn 0.7895508 0.4519043 -0.4152832
vn 0.7895508 0.4519043 -0.4152832
vn 0.7895508 0.4519043 -0.4152832
vn 0.7836914 0.4106445 -0.4663086
vn 0.7836914 0.4106445 -0.4663086
vn 0.7836914 0.4106445 -0.4663086
vn 0.3422852 0.9384766 0.05001831
vn 0.3422852 0.9384766 0.05001831
vn 0.3422852 0.9384766 0.05001831
vn 0.3422852 0.9384766 0.05001831
vn 0.8178711 0.3867188 -0.4262695
vn 0.8178711 0.3867188 -0.4262695
vn 0.8178711 0.3867188 -0.4262695
vn 0.8178711 0.3867188 -0.4262695
vn 0.05145264 -0.1358643 -0.9892578
vn 0.05145264 -0.1358643 -0.9892578
vn 0.05145264 -0.1358643 -0.9892578
vn 0.05145264 -0.1358643 -0.9892578
vn 0.7397461 0.5327148 0.4111328
vn 0.7397461 0.5327148 0.4111328
vn 0.7397461 0.5327148 0.4111328
vn 0.7397461 0.5327148 0.4111328
vn 0.8173828 -0.574707 -0.03884888
vn 0.8173828 -0.574707 -0.03884888
vn 0.8173828 -0.574707 -0.03884888
vn 0.8173828 -0.574707 -0.03884888
vn 0.8598633 -0.3691406 0.3520508
vn 0.8598633 -0.3691406 0.3520508
vn 0.8598633 -0.3691406 0.3520508
vn 0.8598633 -0.3691406 0.3520508
vn 0.847168 -0.2030029 0.4914551
vn 0.847168 -0.2030029 0.4914551
vn 0.847168 -0.2030029 0.4914551
vn 0.847168 -0.2030029 0.4914551
vn 0.6640625 0.5908203 -0.458252
vn 0.6640625 0.5908203 -0.458252
vn 0.6640625 0.5908203 -0.458252
vn 0.6640625 0.5908203 -0.458252
vn -0.02928162 0.8505859 -0.5249023
vn -0.02928162 0.8505859 -0.5249023
vn -0.02928162 0.8505859 -0.5249023
vn -0.02928162 0.8505859 -0.5249023
vn 0.7490234 0.4294434 -0.5043945
vn 0.7490234 0.4294434 -0.5043945
vn 0.7490234 0.4294434 -0.5043945
vn 0.7490234 0.4294434 -0.5043945
vn 0.2722168 0.8974609 0.3469238
vn 0.2722168 0.8974609 0.3469238
vn 0.2722168 0.8974609 0.3469238
vn 0.2722168 0.8974609 0.3469238
vn -0.21875 0.1920166 -0.956543
vn -0.21875 0.1920166 -0.956543
vn -0.21875 0.1920166 -0.956543
vn -0.21875 0.1920166 -0.956543
vn 0.7299805 0.5449219 -0.4125977
vn 0.7299805 0.5449219 -0.4125977
vn 0.7299805 0.5449219 -0.4125977
vn 0.7299805 0.5449219 -0.4125977
vn 0.7651367 0.5512695 0.3325195
vn 0.7651367 0.5512695 0.3325195
vn 0.7651367 0.5512695 0.3325195
vn 0.7651367 0.5512695 0.3325195
vn 0.145874 0.9194336 -0.3657227
vn 0.145874 0.9194336 -0.3657227
vn 0.145874 0.9194336 -0.3657227
vn 0.145874 0.9194336 -0.3657227
vn -0.09320068 0.2038574 -0.9746094
vn -0.09320068 0.2038574 -0.9746094
vn -0.09320068 0.2038574 -0.9746094
vn -0.09320068 0.2038574 -0.9746094
vn 0.0496521 0.7475586 -0.6621094
vn 0.0496521 0.7475586 -0.6621094
vn 0.0496521 0.7475586 -0.6621094
vn 0.0496521 0.7475586 -0.6621094
vn 0.8452148 0.5068359 -0.1700439
vn 0.8452148 0.5068359 -0.1700439
vn 0.8452148 0.5068359 -0.1700439
vn 0.8452148 0.5068359 -0.1700439
vn 0.1172485 -0.06408691 -0.9912109
vn 0.1172485 -0.06408691 -0.9912109
vn 0.1172485 -0.06408691 -0.9912109
vn 0.1172485 -0.06408691 -0.9912109
vn 0.3007813 0.902832 0.3078613
vn 0.3007813 0.902832 0.3078613
vn 0.3007813 0.902832 0.3078613
vn 0.3007813 0.902832 0.3078613
vn 0.2722168 0.8974609 0.3469238
vn 0.2722168 0.8974609 0.3469238
vn 0.2722168 0.8974609 0.3469238
vn 0.2722168 0.8974609 0.3469238
vn 0.6953125 0.5605469 -0.4494629
vn 0.6953125 0.5605469 -0.4494629
vn 0.6953125 0.5605469 -0.4494629
vn 0.6953125 0.5605469 -0.4494629
vn 0.7348633 0.6757813 -0.05596924
vn 0.7348633 0.6757813 -0.05596924
vn 0.7348633 0.6757813 -0.05596924
vn 0.7348633 0.6757813 -0.05596924
vn 0.2734375 0.9619141 -0.02052307
vn 0.2734375 0.9619141 -0.02052307
vn 0.2734375 0.9619141 -0.02052307
vn 0.2734375 0.9619141 -0.02052307
vn -0.08007813 0.6479492 0.7573242
vn -0.08007813 0.6479492 0.7573242
vn -0.08007813 0.6479492 0.7573242
vn -0.08007813 0.6479492 0.7573242
vn 0.859375 0.262207 0.439209
vn 0.859375 0.262207 0.439209
vn 0.859375 0.262207 0.439209
vn 0.859375 0.262207 0.439209
vn 0.7988281 0.5009766 -0.3334961
vn 0.7988281 0.5009766 -0.3334961
vn 0.7988281 0.5009766 -0.3334961
vn 0.7988281 0.5009766 -0.3334961
vn 0.1397705 0.8950195 -0.423584
vn 0.1397705 0.8950195 -0.423584
vn 0.1397705 0.8950195 -0.423584
vn 0.1397705 0.8950195 -0.423584
vn 0.5961914 0.3010254 -0.7441406
vn 0.5961914 0.3010254 -0.7441406
vn 0.5961914 0.3010254 -0.7441406
vn 0.5961914 0.3010254 -0.7441406
vn 0.2147217 0.9267578 -0.3078613
vn 0.2147217 0.9267578 -0.3078613
vn 0.2147217 0.9267578 -0.3078613
vn 0.2147217 0.9267578 -0.3078613
vn 0.1671143 0.9741211 -0.151123
vn 0.1671143 0.9741211 -0.151123
vn 0.1671143 0.9741211 -0.151123
vn 0.1671143 0.9741211 -0.151123
vn 0.7836914 0.4106445 -0.4663086
vn 0.7836914 0.4106445 -0.4663086
vn 0.7836914 0.4106445 -0.4663086
vn 0.7836914 0.4106445 -0.4663086
vn -0.7587891 -0.5288086 0.3803711
vn -0.7587891 -0.5288086 0.3803711
vn -0.7587891 -0.5288086 0.3803711
vn -0.7587891 -0.5288086 0.3803711
vn -0.7587891 -0.5288086 0.3803711
vn -0.8842773 -0.3422852 0.3183594
vn -0.8842773 -0.3422852 0.3183594
vn -0.8842773 -0.3422852 0.3183594
vn -0.8842773 -0.3422852 0.3183594
vn -0.8525391 -0.3984375 0.3378906
vn -0.8525391 -0.3984375 0.3378906
vn -0.8525391 -0.3984375 0.3378906
vn -0.8232422 0.4274902 -0.3737793
vn -0.8232422 0.4274902 -0.3737793
vn -0.8232422 0.4274902 -0.3737793
vn -0.8232422 0.4274902 -0.3737793
vn -0.3151855 -0.1575928 0.9360352
vn -0.3151855 -0.1575928 0.9360352
vn -0.3151855 -0.1575928 0.9360352
vn -0.3151855 -0.1575928 0.9360352
vn -0.1999512 -0.894043 0.4008789
vn -0.1999512 -0.894043 0.4008789
vn -0.1999512 -0.894043 0.4008789
vn -0.1999512 -0.894043 0.4008789
vn -0.7880859 -0.5405273 -0.2946777
vn -0.7880859 -0.5405273 -0.2946777
vn -0.7880859 -0.5405273 -0.2946777
vn -0.7880859 -0.5405273 -0.2946777
vn -0.9707031 0.1810303 -0.1566162
vn -0.9707031 0.1810303 -0.1566162
vn -0.9707031 0.1810303 -0.1566162
vn -0.9707031 0.1810303 -0.1566162
vn -0.8779297 -0.3032227 0.3703613
vn -0.8779297 -0.3032227 0.3703613
vn -0.8779297 -0.3032227 0.3703613
vn -0.8779297 -0.3032227 0.3703613
vn -0.809082 -0.3684082 0.4577637
vn -0.809082 -0.3684082 0.4577637
vn -0.809082 -0.3684082 0.4577637
vn -0.809082 -0.3684082 0.4577637
vn -0.809082 -0.3684082 0.4577637
vn -0.1835938 -0.1207275 0.9755859
vn -0.1835938 -0.1207275 0.9755859
vn -0.1835938 -0.1207275 0.9755859
vn -0.1835938 -0.1207275 0.9755859
vn -0.2109375 -0.515625 0.8300781
vn -0.2109375 -0.515625 0.8300781
vn -0.2109375 -0.515625 0.8300781
vn -0.2109375 -0.515625 0.8300781
vn -0.1077881 -0.9926758 0.05548096
vn -0.1077881 -0.9926758 0.05548096
vn -0.1077881 -0.9926758 0.05548096
vn -0.1077881 -0.9926758 0.05548096
vn -0.8833008 -0.4685059 0.02761841
vn -0.8833008 -0.4685059 0.02761841
vn -0.8833008 -0.4685059 0.02761841
vn -0.8833008 -0.4685059 0.02761841
vn -0.234375 -0.8979492 0.3720703
vn -0.234375 -0.8979492 0.3720703
vn -0.234375 -0.8979492 0.3720703
vn -0.234375 -0.8979492 0.3720703
vn -0.7836914 -0.4555664 0.421875
vn -0.7836914 -0.4555664 0.421875
vn -0.7836914 -0.4555664 0.421875
vn -0.7836914 -0.4555664 0.421875
vn -0.7041016 -0.7104492 0.003900528
vn -0.7041016 -0.7104492 0.003900528
vn -0.7041016 -0.7104492 0.003900528
vn -0.7041016 -0.7104492 0.003900528
vn -0.7871094 -0.4736328 0.3952637
vn -0.7871094 -0.4736328 0.3952637
vn -0.7871094 -0.4736328 0.3952637
vn -0.7871094 -0.4736328 0.3952637
vn -0.8212891 -0.4472656 0.3540039
vn -0.8212891 -0.4472656 0.3540039
vn -0.8212891 -0.4472656 0.3540039
vn -0.06628418 -0.6689453 0.7402344
vn -0.06628418 -0.6689453 0.7402344
vn -0.06628418 -0.6689453 0.7402344
vn -0.06628418 -0.6689453 0.7402344
vn -0.8496094 -0.3811035 0.364502
vn -0.8496094 -0.3811035 0.364502
vn -0.8496094 -0.3811035 0.364502
vn -0.8496094 -0.3811035 0.364502
vn -0.5639648 -0.5375977 -0.6264648
vn -0.5639648 -0.5375977 -0.6264648
vn -0.5639648 -0.5375977 -0.6264648
vn -0.5639648 -0.5375977 -0.6264648
vn -0.309082 -0.02642822 0.9506836
vn -0.309082 -0.02642822 0.9506836
vn -0.309082 -0.02642822 0.9506836
vn -0.309082 -0.02642822 0.9506836
vn -0.809082 0.5834961 0.07415771
vn -0.809082 0.5834961 0.07415771
vn -0.809082 0.5834961 0.07415771
vn -0.809082 0.5834961 0.07415771
vn -0.609375 0.5913086 0.5283203
vn -0.609375 0.5913086 0.5283203
vn -0.609375 0.5913086 0.5283203
vn -0.609375 0.5913086 0.5283203
vn -0.4719238 0.5981445 0.6474609
vn -0.4719238 0.5981445 0.6474609
vn -0.4719238 0.5981445 0.6474609
vn -0.4719238 0.5981445 0.6474609
vn -0.6958008 -0.5957031 0.4008789
vn -0.6958008 -0.5957031 0.4008789
vn -0.6958008 -0.5957031 0.4008789
vn -0.6958008 -0.5957031 0.4008789
vn -0.1017456 -0.9873047 0.1210327
vn -0.1017456 -0.9873047 0.1210327
vn -0.1017456 -0.9873047 0.1210327
vn -0.1017456 -0.9873047 0.1210327
vn -0.8242188 -0.4624023 0.326416
vn -0.8242188 -0.4624023 0.326416
vn -0.8242188 -0.4624023 0.326416
vn -0.8242188 -0.4624023 0.326416
vn 0.1402588 -0.4990234 0.8549805
vn 0.1402588 -0.4990234 0.8549805
vn 0.1402588 -0.4990234 0.8549805
vn 0.1402588 -0.4990234 0.8549805
vn -0.2878418 -0.6928711 -0.6611328
vn -0.2878418 -0.6928711 -0.6611328
vn -0.2878418 -0.6928711 -0.6611328
vn -0.2878418 -0.6928711 -0.6611328
vn -0.7241211 -0.5478516 0.4187012
vn -0.7241211 -0.5478516 0.4187012
vn -0.7241211 -0.5478516 0.4187012
vn -0.7241211 -0.5478516 0.4187012
vn -0.3464355 -0.1317139 0.9287109
vn -0.3464355 -0.1317139 0.9287109
vn -0.3464355 -0.1317139 0.9287109
vn -0.3464355 -0.1317139 0.9287109
vn -0.1401367 -0.918457 0.3703613
vn -0.1401367 -0.918457 0.3703613
vn -0.1401367 -0.918457 0.3703613
vn -0.1401367 -0.918457 0.3703613
vn -0.4042969 -0.75 -0.5234375
vn -0.4042969 -0.75 -0.5234375
vn -0.4042969 -0.75 -0.5234375
vn -0.4042969 -0.75 -0.5234375
vn -0.2678223 -0.9633789 0.02613831
vn -0.2678223 -0.9633789 0.02613831
vn -0.2678223 -0.9633789 0.02613831
vn -0.2678223 -0.9633789 0.02613831
vn -0.699707 -0.3632813 0.6147461
vn -0.699707 -0.3632813 0.6147461
vn -0.699707 -0.3632813 0.6147461
vn -0.699707 -0.3632813 0.6147461
vn -0.6240234 -0.498291 -0.6020508
vn -0.6240234 -0.498291 -0.6020508
vn -0.6240234 -0.498291 -0.6020508
vn -0.6240234 -0.498291 -0.6020508
vn 0.07751465 -0.5004883 0.8623047
vn 0.07751465 -0.5004883 0.8623047
vn 0.07751465 -0.5004883 0.8623047
vn 0.07751465 -0.5004883 0.8623047
vn 0.1119385 -0.4645996 0.878418
vn 0.1119385 -0.4645996 0.878418
vn 0.1119385 -0.4645996 0.878418
vn 0.1119385 -0.4645996 0.878418
vn -0.7270508 -0.5639648 0.3913574
vn -0.7270508 -0.5639648 0.3913574
vn -0.7270508 -0.5639648 0.3913574
vn -0.7270508 -0.5639648 0.3913574
vn -0.5336914 -0.4311523 0.7275391
vn -0.5336914 -0.4311523 0.7275391
vn -0.5336914 -0.4311523 0.7275391
vn -0.5336914 -0.4311523 0.7275391
vn -0.04400635 -0.7446289 0.6660156
vn -0.04400635 -0.7446289 0.6660156
vn -0.04400635 -0.7446289 0.6660156
vn -0.04400635 -0.7446289 0.6660156
vn 0.5947266 -0.05993652 0.8017578
vn 0.5947266 -0.05993652 0.8017578
vn 0.5947266 -0.05993652 0.8017578
vn 0.5947266 -0.05993652 0.8017578
vn -0.4345703 0.1706543 0.8842773
vn -0.4345703 0.1706543 0.8842773
vn -0.4345703 0.1706543 0.8842773
vn -0.4345703 0.1706543 0.8842773
vn -0.746582 -0.4545898 0.4858398
vn -0.746582 -0.4545898 0.4858398
vn -0.746582 -0.4545898 0.4858398
vn -0.746582 -0.4545898 0.4858398
vn -0.1776123 -0.9331055 0.3120117
vn -0.1776123 -0.9331055 0.3120117
vn -0.1776123 -0.9331055 0.3120117
vn -0.1776123 -0.9331055 0.3120117
vn -0.8232422 -0.5668945 0.02690125
vn -0.8232422 -0.5668945 0.02690125
vn -0.8232422 -0.5668945 0.02690125
vn -0.8232422 -0.5668945 0.02690125
vn -0.1655273 -0.8881836 0.4291992
vn -0.1655273 -0.8881836 0.4291992
vn -0.1655273 -0.8881836 0.4291992
vn -0.1655273 -0.8881836 0.4291992
vn -0.02781677 -0.8452148 0.5341797
vn -0.02781677 -0.8452148 0.5341797
vn -0.02781677 -0.8452148 0.5341797
vn -0.02781677 -0.8452148 0.5341797
vn -0.8242188 -0.4624023 0.326416
vn -0.8242188 -0.4624023 0.326416
vn -0.8242188 -0.4624023 0.326416
vn -0.8242188 -0.4624023 0.326416
vn -0.9711914 0.08959961 0.2215576
vn -0.9711914 0.08959961 0.2215576
vn -0.9711914 0.08959961 0.2215576
vn -0.9633789 0.1008301 0.2493896
vn -0.9633789 0.1008301 0.2493896
vn -0.9438477 -0.1643066 0.2871094
vn -0.9438477 -0.1643066 0.2871094
vn -0.9438477 -0.1643066 0.2871094
vn -0.9438477 -0.1643066 0.2871094
vn -0.940918 -0.1375732 0.3100586
vn -0.940918 -0.1375732 0.3100586
vn -0.940918 -0.1375732 0.3100586
vn -0.3395996 -0.9370117 -0.07928467
vn -0.3395996 -0.9370117 -0.07928467
vn -0.3395996 -0.9370117 -0.07928467
vn -0.3395996 -0.9370117 -0.07928467
vn -0.4648438 0.3310547 0.8212891
vn -0.4648438 0.3310547 0.8212891
vn -0.4648438 0.3310547 0.8212891
vn -0.4648438 0.3310547 0.8212891
vn -0.7460938 0.6650391 0.03469849
vn -0.7460938 0.6650391 0.03469849
vn -0.7460938 0.6650391 0.03469849
vn -0.7460938 0.6650391 0.03469849
vn -0.9033203 -0.1600342 -0.3977051
vn -0.9033203 -0.1600342 -0.3977051
vn -0.9033203 -0.1600342 -0.3977051
vn -0.9033203 -0.1600342 -0.3977051
vn -0.6977539 -0.7124023 0.07250977
vn -0.6977539 -0.7124023 0.07250977
vn -0.6977539 -0.7124023 0.07250977
vn -0.6977539 -0.7124023 0.07250977
vn -0.940918 -0.1375732 0.3100586
vn -0.940918 -0.1375732 0.3100586
vn -0.940918 -0.1375732 0.3100586
vn -0.940918 -0.1375732 0.3100586
vn -0.9316406 -0.01747131 0.3632813
vn -0.9316406 -0.01747131 0.3632813
vn -0.9316406 -0.01747131 0.3632813
vn -0.9316406 -0.01747131 0.3632813
vn -0.9316406 -0.01747131 0.3632813
vn -0.3342285 0.4387207 0.8339844
vn -0.3342285 0.4387207 0.8339844
vn -0.3342285 0.4387207 0.8339844
vn -0.3342285 0.4387207 0.8339844
vn -0.5722656 0.5483398 0.6098633
vn -0.5722656 0.5483398 0.6098633
vn -0.5722656 0.5483398 0.6098633
vn -0.5722656 0.5483398 0.6098633
vn -0.6821289 0.6611328 -0.3120117
vn -0.6821289 0.6611328 -0.3120117
vn -0.6821289 0.6611328 -0.3120117
vn -0.6821289 0.6611328 -0.3120117
vn -0.9741211 -0.2244873 -0.02702332
vn -0.9741211 -0.2244873 -0.02702332
vn -0.9741211 -0.2244873 -0.02702332
vn -0.9741211 -0.2244873 -0.02702332
vn -0.7802734 0.625 0.02032471
vn -0.7802734 0.625 0.02032471
vn -0.7802734 0.625 0.02032471
vn -0.7802734 0.625 0.02032471
vn -0.9633789 0.1008301 0.2493896
vn -0.9633789 0.1008301 0.2493896
vn -0.9633789 0.1008301 0.2493896
vn -0.9633789 0.1008301 0.2493896
vn -0.9741211 0.1435547 -0.175415
vn -0.9741211 0.1435547 -0.175415
vn -0.9741211 0.1435547 -0.175415
vn -0.9741211 0.1435547 -0.175415
vn -0.9633789 0.1008301 0.2493896
vn -0.9633789 0.1008301 0.2493896
vn -0.9633789 0.1008301 0.2493896
vn -0.9633789 0.1008301 0.2493896
vn -0.9711914 0.08959961 0.2215576
vn -0.9711914 0.08959961 0.2215576
vn -0.9711914 0.08959961 0.2215576
vn -0.5498047 0.7099609 0.4399414
vn -0.5498047 0.7099609 0.4399414
vn -0.5498047 0.7099609 0.4399414
vn -0.5498047 0.7099609 0.4399414
vn -0.940918 -0.1375732 0.3100586
vn -0.940918 -0.1375732 0.3100586
vn -0.940918 -0.1375732 0.3100586
vn -0.940918 -0.1375732 0.3100586
vn -0.6552734 -0.1437988 -0.7416992
vn -0.6552734 -0.1437988 -0.7416992
vn -0.6552734 -0.1437988 -0.7416992
vn -0.6552734 -0.1437988 -0.7416992
vn -0.3686523 0.1611328 0.9155273
vn -0.3686523 0.1611328 0.9155273
vn -0.3686523 0.1611328 0.9155273
vn -0.3686523 0.1611328 0.9155273
vn -0.2939453 -0.8681641 0.4003906
vn -0.2939453 -0.8681641 0.4003906
vn -0.2939453 -0.8681641 0.4003906
vn -0.2939453 -0.8681641 0.4003906
vn -0.1887207 -0.6152344 0.765625
vn -0.1887207 -0.6152344 0.765625
vn -0.1887207 -0.6152344 0.765625
vn -0.1887207 -0.6152344 0.765625
vn -0.1077271 -0.4401855 0.8916016
vn -0.1077271 -0.4401855 0.8916016
vn -0.1077271 -0.4401855 0.8916016
vn -0.1077271 -0.4401855 0.8916016
vn -0.9633789 0.1008301 0.2493896
vn -0.9633789 0.1008301 0.2493896
vn -0.9633789 0.1008301 0.2493896
vn -0.9633789 0.1008301 0.2493896
vn -0.6762695 0.690918 -0.2561035
vn -0.6762695 0.690918 -0.2561035
vn -0.6762695 0.690918 -0.2561035
vn -0.6762695 0.690918 -0.2561035
vn -0.9750977 0.005500793 0.2219238
vn -0.9750977 0.005500793 0.2219238
vn -0.9750977 0.005500793 0.2219238
vn -0.9750977 0.005500793 0.2219238
vn -0.2834473 0.7832031 0.5537109
vn -0.2834473 0.7832031 0.5537109
vn -0.2834473 0.7832031 0.5537109
vn -0.2834473 0.7832031 0.5537109
vn -0.5581055 0.1148682 -0.8217773
vn -0.5581055 0.1148682 -0.8217773
vn -0.5581055 0.1148682 -0.8217773
vn -0.5581055 0.1148682 -0.8217773
vn -0.9545898 0.1118164 0.2766113
vn -0.9545898 0.1118164 0.2766113
vn -0.9545898 0.1118164 0.2766113
vn -0.9545898 0.1118164 0.2766113
vn -0.4648438 0.3310547 0.8212891
vn -0.4648438 0.3310547 0.8212891
vn -0.4648438 0.3310547 0.8212891
vn -0.4648438 0.3310547 0.8212891
vn -0.7177734 0.6962891 -0.01498413
vn -0.7177734 0.6962891 -0.01498413
vn -0.7177734 0.6962891 -0.01498413
vn -0.7177734 0.6962891 -0.01498413
vn -0.6772461 0.08813477 -0.7304688
vn -0.6772461 0.08813477 -0.7304688
vn -0.6772461 0.08813477 -0.7304688
vn -0.6772461 0.08813477 -0.7304688
vn -0.7827148 0.534668 -0.3188477
vn -0.7827148 0.534668 -0.3188477
vn -0.7827148 0.534668 -0.3188477
vn -0.7827148 0.534668 -0.3188477
vn -0.8505859 0.08239746 0.5195313
vn -0.8505859 0.08239746 0.5195313
vn -0.8505859 0.08239746 0.5195313
vn -0.8505859 0.08239746 0.5195313
vn -0.7124023 -0.262207 -0.6508789
vn -0.7124023 -0.262207 -0.6508789
vn -0.7124023 -0.262207 -0.6508789
vn -0.7124023 -0.262207 -0.6508789
vn -0.3461914 0.7392578 0.5776367
vn -0.3461914 0.7392578 0.5776367
vn -0.3461914 0.7392578 0.5776367
vn -0.3461914 0.7392578 0.5776367
vn -0.2805176 0.7480469 0.6015625
vn -0.2805176 0.7480469 0.6015625
vn -0.2805176 0.7480469 0.6015625
vn -0.2805176 0.7480469 0.6015625
vn -0.9633789 0.1008301 0.2493896
vn -0.9633789 0.1008301 0.2493896
vn -0.9633789 0.1008301 0.2493896
vn -0.9633789 0.1008301 0.2493896
vn -0.7753906 0.2363281 0.5859375
vn -0.7753906 0.2363281 0.5859375
vn -0.7753906 0.2363281 0.5859375
vn -0.7753906 0.2363281 0.5859375
vn -0.5585938 0.7670898 0.3156738
vn -0.5585938 0.7670898 0.3156738
vn -0.5585938 0.7670898 0.3156738
vn -0.5585938 0.7670898 0.3156738
vn 0.3217773 0.715332 0.6201172
vn 0.3217773 0.715332 0.6201172
vn 0.3217773 0.715332 0.6201172
vn 0.3217773 0.715332 0.6201172
vn -0.3747559 -0.0340271 0.9262695
vn -0.3747559 -0.0340271 0.9262695
vn -0.3747559 -0.0340271 0.9262695
vn -0.3747559 -0.0340271 0.9262695
vn -0.9287109 0.05725098 0.3669434
vn -0.9287109 0.05725098 0.3669434
vn -0.9287109 0.05725098 0.3669434
vn -0.9287109 0.05725098 0.3669434
vn -0.7236328 0.6855469 -0.07836914
vn -0.7236328 0.6855469 -0.07836914
vn -0.7236328 0.6855469 -0.07836914
vn -0.7236328 0.6855469 -0.07836914
vn -0.9946289 -0.03890991 -0.09729004
vn -0.9946289 -0.03890991 -0.09729004
vn -0.9946289 -0.03890991 -0.09729004
vn -0.9946289 -0.03890991 -0.09729004
vn -0.7084961 0.7006836 0.08477783
vn -0.7084961 0.7006836 0.08477783
vn -0.7084961 0.7006836 0.08477783
vn -0.7084961 0.7006836 0.08477783
vn -0.5708008 0.8041992 0.1651611
vn -0.5708008 0.8041992 0.1651611
vn -0.5708008 0.8041992 0.1651611
vn -0.5708008 0.8041992 0.1651611
vn -0.9750977 0.005500793 0.2219238
vn -0.9750977 0.005500793 0.2219238
vn -0.9750977 0.005500793 0.2219238
vn -0.9750977 0.005500793 0.2219238

vt 0.1368408 0.5595703
vt 0.1439209 0.5595703
vt 0.1368408 0.4819336
vt 0.2775879 0.2883301
vt 0.28125 0.270752
vt 0.2636719 0.2883301
vt 0.2883301 0.2883301
vt 0.28125 0.270752
vt 0.2775879 0.2883301
vt 0.270752 0.3093262
vt 0.2741699 0.3903809
vt 0.2741699 0.3093262
vt 0.2741699 0.3093262
vt 0.2741699 0.3903809
vt 0.284668 0.3093262
vt 0.1368408 0.5595703
vt 0.1368408 0.4819336
vt 0.1439209 0.5595703
vt 0.2775879 0.2883301
vt 0.2636719 0.2883301
vt 0.28125 0.270752
vt 0.2883301 0.2883301
vt 0.2775879 0.2883301
vt 0.28125 0.270752
vt 0.270752 0.3093262
vt 0.2741699 0.3093262
vt 0.2741699 0.3903809
vt 0.2741699 0.3093262
vt 0.284668 0.3093262
vt 0.2741699 0.3903809
vt 0.1368408 0.5595703
vt 0.1368408 0.4819336
vt 0.1439209 0.5595703
vt 0.2775879 0.2883301
vt 0.2636719 0.2883301
vt 0.28125 0.270752
vt 0.2883301 0.2883301
vt 0.2775879 0.2883301
vt 0.28125 0.270752
vt 0.270752 0.3093262
vt 0.2741699 0.3093262
vt 0.2741699 0.3903809
vt 0.2741699 0.3093262
vt 0.284668 0.3093262
vt 0.2741699 0.3903809
vt 0.1368408 0.5595703
vt 0.1439209 0.5595703
vt 0.1368408 0.4819336
vt 0.2775879 0.2883301
vt 0.28125 0.270752
vt 0.2636719 0.2883301
vt 0.2883301 0.2883301
vt 0.28125 0.270752
vt 0.2775879 0.2883301
vt 0.270752 0.3093262
vt 0.2741699 0.3903809
vt 0.2741699 0.3093262
vt 0.2741699 0.3093262
vt 0.2741699 0.3903809
vt 0.284668 0.3093262
vt 0.1333008 0.5522461
vt 0.1368408 0.5595703
vt 0.1368408 0.4819336
vt 0.1297607 0.5874023
vt 0.1403809 0.5908203
vt 0.1403809 0.6542969
vt 0.1051636 0.6508789
vt 0.09106445 0.6650391
vt 0.1333008 0.6650391
vt 0.1403809 0.6298828
vt 0.1051636 0.6508789
vt 0.1227417 0.6191406
vt 0.1439209 0.6894531
vt 0.1473389 0.6791992
vt 0.1403809 0.6650391
vt 0.1333008 0.6650391
vt 0.2883301 0.2988281
vt 0.2775879 0.2988281
vt 0.2741699 0.3093262
vt 0.284668 0.3093262
vt 0.2775879 0.2988281
vt 0.2775879 0.2883301
vt 0.2636719 0.2883301
vt 0.2636719 0.2988281
vt 0.09106445 0.6650391
vt 0.0980835 0.668457
vt 0.1333008 0.668457
vt 0.1333008 0.6650391
vt 0.1333008 0.6650391
vt 0.1333008 0.668457
vt 0.1439209 0.6933594
vt 0.1439209 0.6894531
vt 0.0980835 0.668457
vt 0.09460449 0.671875
vt 0.1121826 0.6791992
vt 0.1333008 0.668457
vt 0.1439209 0.6933594
vt 0.1333008 0.668457
vt 0.1121826 0.6791992
vt 0.1227417 0.6967773
vt 0.1403809 0.7001953
vt 0.09460449 0.671875
vt 0.08752441 0.671875
vt 0.1086426 0.6826172
vt 0.1121826 0.6791992
vt 0.1121826 0.6791992
vt 0.1086426 0.6826172
vt 0.1192017 0.6967773
vt 0.1227417 0.6967773
vt 0.1333008 0.7602539
vt 0.1333008 0.7319336
vt 0.1227417 0.7319336
vt 0.1157227 0.7636719
vt 0.1333008 0.7602539
vt 0.1508789 0.7636719
vt 0.1439209 0.7319336
vt 0.1333008 0.7319336
vt 0.4819336 0.9785156
vt 0.3198242 0.9785156
vt 0.3198242 0.9819336
vt 0.4819336 0.9819336
vt 0.5908203 0.9750977
vt 0.5908203 0.9785156
vt 0.6826172 0.9785156
vt 0.6826172 0.9750977
vt 0.0980835 0.668457
vt 0.09106445 0.6650391
vt 0.08752441 0.671875
vt 0.09460449 0.671875
vt 0.1439209 0.5908203
vt 0.1403809 0.6298828
vt 0.1473389 0.6225586
vt 0.1403809 0.5908203
vt 0.1297607 0.5874023
vt 0.1227417 0.6191406
vt 0.1403809 0.6298828
vt 0.1227417 0.6967773
vt 0.1192017 0.6967773
vt 0.1262207 0.7143555
vt 0.1333008 0.7143555
vt 0.1333008 0.7143555
vt 0.1439209 0.7143555
vt 0.1403809 0.7001953
vt 0.1227417 0.6967773
vt 0.1333008 0.7143555
vt 0.1333008 0.7211914
vt 0.1439209 0.7177734
vt 0.1439209 0.7143555
vt 0.1439209 0.7319336
vt 0.1473389 0.7285156
vt 0.1333008 0.7285156
vt 0.1333008 0.7319336
vt 0.1403809 0.6542969
vt 0.1439209 0.6582031
vt 0.1473389 0.6333008
vt 0.1403809 0.6298828
vt 0.1333008 0.6650391
vt 0.1403809 0.6650391
vt 0.1439209 0.6582031
vt 0.1403809 0.6542969
vt 0.1403809 0.6298828
vt 0.1473389 0.6333008
vt 0.1508789 0.6298828
vt 0.1473389 0.6225586
vt 0.1439209 0.5595703
vt 0.1368408 0.5595703
vt 0.1403809 0.5908203
vt 0.1439209 0.5908203
vt 0.1333008 0.7211914
vt 0.1227417 0.7177734
vt 0.1227417 0.7285156
vt 0.1333008 0.7285156
vt 0.1333008 0.7285156
vt 0.1473389 0.7285156
vt 0.1439209 0.7177734
vt 0.1333008 0.7211914
vt 0.1333008 0.7319336
vt 0.1333008 0.7285156
vt 0.1227417 0.7285156
vt 0.1227417 0.7319336
vt 0.1262207 0.7143555
vt 0.1227417 0.7177734
vt 0.1333008 0.7211914
vt 0.1333008 0.7143555
vt 0.3198242 0.9750977
vt 0.3198242 0.9785156
vt 0.4819336 0.9785156
vt 0.4819336 0.9750977
vt 0.5908203 0.9750977
vt 0.5874023 0.9750977
vt 0.5874023 0.9785156
vt 0.5908203 0.9785156
vt 0.6826172 0.9785156
vt 0.5908203 0.9785156
vt 0.5908203 0.9819336
vt 0.6826172 0.9819336
vt 0.4819336 0.9819336
vt 0.4819336 0.9819336
vt 0.4819336 0.9785156
vt 0.4819336 0.9785156
vt 0.4853516 0.9785156
vt 0.4819336 0.9785156
vt 0.4819336 0.9819336
vt 0.4853516 0.9819336
vt 0.5839844 0.9750977
vt 0.5839844 0.9785156
vt 0.5874023 0.9785156
vt 0.5874023 0.9750977
vt 0.4819336 0.9785156
vt 0.4819336 0.9785156
vt 0.4819336 0.9750977
vt 0.4819336 0.9750977
vt 0.5908203 0.9785156
vt 0.5874023 0.9785156
vt 0.5874023 0.9819336
vt 0.5908203 0.9819336
vt 0.2741699 0.3093262
vt 0.2775879 0.2988281
vt 0.2636719 0.2988281
vt 0.270752 0.3093262
vt 0.2883301 0.2883301
vt 0.2775879 0.2883301
vt 0.2775879 0.2988281
vt 0.2883301 0.2988281
vt 0.1297607 0.8022461
vt 0.1368408 0.8056641
vt 0.1508789 0.7636719
vt 0.1333008 0.7602539
vt 0.1297607 0.8022461
vt 0.1333008 0.7602539
vt 0.1157227 0.7636719
vt 0.1227417 0.8056641
vt 0.1368408 0.8095703
vt 0.1368408 0.8056641
vt 0.1297607 0.8022461
vt 0.1297607 0.8056641
vt 0.1297607 0.8056641
vt 0.1297607 0.8022461
vt 0.1227417 0.8056641
vt 0.1262207 0.8095703
vt 0.4853516 0.9750977
vt 0.4853516 0.9785156
vt 0.534668 0.9785156
vt 0.534668 0.9750977
vt 0.5839844 0.9785156
vt 0.534668 0.9785156
vt 0.534668 0.9819336
vt 0.5839844 0.9819336
vt 0.4819336 0.9750977
vt 0.4819336 0.9785156
vt 0.4853516 0.9785156
vt 0.4853516 0.9750977
vt 0.534668 0.9785156
vt 0.4853516 0.9785156
vt 0.4853516 0.9819336
vt 0.534668 0.9819336
vt 0.5874023 0.9785156
vt 0.5839844 0.9785156
vt 0.5839844 0.9819336
vt 0.5874023 0.9819336
vt 0.534668 0.9750977
vt 0.534668 0.9785156
vt 0.5839844 0.9785156
vt 0.5839844 0.9750977
vt 0.1333008 0.5522461
vt 0.1368408 0.4819336
vt 0.1368408 0.5595703
vt 0.1297607 0.5874023
vt 0.1403809 0.5908203
vt 0.1403809 0.6542969
vt 0.1333008 0.6650391
vt 0.09106445 0.6650391
vt 0.1051636 0.6508789
vt 0.1403809 0.6298828
vt 0.1051636 0.6508789
vt 0.1227417 0.6191406
vt 0.1439209 0.6894531
vt 0.1333008 0.6650391
vt 0.1403809 0.6650391
vt 0.1473389 0.6791992
vt 0.2883301 0.2988281
vt 0.284668 0.3093262
vt 0.2741699 0.3093262
vt 0.2775879 0.2988281
vt 0.2775879 0.2988281
vt 0.2636719 0.2988281
vt 0.2636719 0.2883301
vt 0.2775879 0.2883301
vt 0.09106445 0.6650391
vt 0.1333008 0.6650391
vt 0.1333008 0.668457
vt 0.0980835 0.668457
vt 0.1333008 0.6650391
vt 0.1439209 0.6894531
vt 0.1439209 0.6933594
vt 0.1333008 0.668457
vt 0.0980835 0.668457
vt 0.1333008 0.668457
vt 0.1121826 0.6791992
vt 0.09460449 0.671875
vt 0.1121826 0.6791992
vt 0.1333008 0.668457
vt 0.1439209 0.6933594
vt 0.1227417 0.6967773
vt 0.1403809 0.7001953
vt 0.09460449 0.671875
vt 0.1121826 0.6791992
vt 0.1086426 0.6826172
vt 0.08752441 0.671875
vt 0.1121826 0.6791992
vt 0.1227417 0.6967773
vt 0.1192017 0.6967773
vt 0.1086426 0.6826172
vt 0.1333008 0.7602539
vt 0.1157227 0.7636719
vt 0.1227417 0.7319336
vt 0.1333008 0.7319336
vt 0.1333008 0.7602539
vt 0.1333008 0.7319336
vt 0.1439209 0.7319336
vt 0.1508789 0.7636719
vt 0.4819336 0.9711914
vt 0.4819336 0.9677734
vt 0.3198242 0.9677734
vt 0.3198242 0.9711914
vt 0.5908203 0.9750977
vt 0.6826172 0.9750977
vt 0.6826172 0.9711914
vt 0.5908203 0.9711914
vt 0.0980835 0.668457
vt 0.09460449 0.671875
vt 0.08752441 0.671875
vt 0.09106445 0.6650391
vt 0.1439209 0.5908203
vt 0.1473389 0.6225586
vt 0.1403809 0.6298828
vt 0.1403809 0.5908203
vt 0.1403809 0.6298828
vt 0.1227417 0.6191406
vt 0.1297607 0.5874023
vt 0.1227417 0.6967773
vt 0.1333008 0.7143555
vt 0.1262207 0.7143555
vt 0.1192017 0.6967773
vt 0.1333008 0.7143555
vt 0.1227417 0.6967773
vt 0.1403809 0.7001953
vt 0.1439209 0.7143555
vt 0.1333008 0.7143555
vt 0.1439209 0.7143555
vt 0.1439209 0.7177734
vt 0.1333008 0.7211914
vt 0.1439209 0.7319336
vt 0.1333008 0.7319336
vt 0.1333008 0.7285156
vt 0.1473389 0.7285156
vt 0.1403809 0.6542969
vt 0.1403809 0.6298828
vt 0.1473389 0.6333008
vt 0.1439209 0.6582031
vt 0.1333008 0.6650391
vt 0.1403809 0.6542969
vt 0.1439209 0.6582031
vt 0.1403809 0.6650391
vt 0.1403809 0.6298828
vt 0.1473389 0.6225586
vt 0.1508789 0.6298828
vt 0.1473389 0.6333008
vt 0.1439209 0.5595703
vt 0.1439209 0.5908203
vt 0.1403809 0.5908203
vt 0.1368408 0.5595703
vt 0.1333008 0.7211914
vt 0.1333008 0.7285156
vt 0.1227417 0.7285156
vt 0.1227417 0.7177734
vt 0.1333008 0.7285156
vt 0.1333008 0.7211914
vt 0.1439209 0.7177734
vt 0.1473389 0.7285156
vt 0.1333008 0.7319336
vt 0.1227417 0.7319336
vt 0.1227417 0.7285156
vt 0.1333008 0.7285156
vt 0.1262207 0.7143555
vt 0.1333008 0.7143555
vt 0.1333008 0.7211914
vt 0.1227417 0.7177734
vt 0.3198242 0.9750977
vt 0.4819336 0.9750977
vt 0.4819336 0.9711914
vt 0.3198242 0.9711914
vt 0.5908203 0.9750977
vt 0.5908203 0.9711914
vt 0.5874023 0.9711914
vt 0.5874023 0.9750977
vt 0.6826172 0.9711914
vt 0.6826172 0.9677734
vt 0.5908203 0.9677734
vt 0.5908203 0.9711914
vt 0.4819336 0.9677734
vt 0.4819336 0.9711914
vt 0.4819336 0.9711914
vt 0.4819336 0.9677734
vt 0.4853516 0.9711914
vt 0.4853516 0.9677734
vt 0.4819336 0.9677734
vt 0.4819336 0.9711914
vt 0.5839844 0.9750977
vt 0.5874023 0.9750977
vt 0.5874023 0.9711914
vt 0.5839844 0.9711914
vt 0.4819336 0.9711914
vt 0.4819336 0.9750977
vt 0.4819336 0.9750977
vt 0.4819336 0.9711914
vt 0.5908203 0.9711914
vt 0.5908203 0.9677734
vt 0.5874023 0.9677734
vt 0.5874023 0.9711914
vt 0.2741699 0.3093262
vt 0.270752 0.3093262
vt 0.2636719 0.2988281
vt 0.2775879 0.2988281
vt 0.2883301 0.2883301
vt 0.2883301 0.2988281
vt 0.2775879 0.2988281
vt 0.2775879 0.2883301
vt 0.1297607 0.8022461
vt 0.1333008 0.7602539
vt 0.1508789 0.7636719
vt 0.1368408 0.8056641
vt 0.1297607 0.8022461
vt 0.1227417 0.8056641
vt 0.1157227 0.7636719
vt 0.1333008 0.7602539
vt 0.1368408 0.8095703
vt 0.1297607 0.8056641
vt 0.1297607 0.8022461
vt 0.1368408 0.8056641
vt 0.1297607 0.8056641
vt 0.1262207 0.8095703
vt 0.1227417 0.8056641
vt 0.1297607 0.8022461
vt 0.4853516 0.9750977
vt 0.534668 0.9750977
vt 0.534668 0.9711914
vt 0.4853516 0.9711914
vt 0.5839844 0.9711914
vt 0.5839844 0.9677734
vt 0.534668 0.9677734
vt 0.534668 0.9711914
vt 0.4819336 0.9750977
vt 0.4853516 0.9750977
vt 0.4853516 0.9711914
vt 0.4819336 0.9711914
vt 0.534668 0.9711914
vt 0.534668 0.9677734
vt 0.4853516 0.9677734
vt 0.4853516 0.9711914
vt 0.5874023 0.9711914
vt 0.5874023 0.9677734
vt 0.5839844 0.9677734
vt 0.5839844 0.9711914
vt 0.534668 0.9750977
vt 0.5839844 0.9750977
vt 0.5839844 0.9711914
vt 0.534668 0.9711914
vt 0.1333008 0.5522461
vt 0.1368408 0.4819336
vt 0.1368408 0.5595703
vt 0.1297607 0.5874023
vt 0.1403809 0.5908203
vt 0.1403809 0.6542969
vt 0.1333008 0.6650391
vt 0.09106445 0.6650391
vt 0.1051636 0.6508789
vt 0.1403809 0.6298828
vt 0.1051636 0.6508789
vt 0.1227417 0.6191406
vt 0.1439209 0.6894531
vt 0.1333008 0.6650391
vt 0.1403809 0.6650391
vt 0.1473389 0.6791992
vt 0.2883301 0.2988281
vt 0.284668 0.3093262
vt 0.2741699 0.3093262
vt 0.2775879 0.2988281
vt 0.2775879 0.2988281
vt 0.2636719 0.2988281
vt 0.2636719 0.2883301
vt 0.2775879 0.2883301
vt 0.09106445 0.6650391
vt 0.1333008 0.6650391
vt 0.1333008 0.668457
vt 0.0980835 0.668457
vt 0.1333008 0.6650391
vt 0.1439209 0.6894531
vt 0.1439209 0.6933594
vt 0.1333008 0.668457
vt 0.0980835 0.668457
vt 0.1333008 0.668457
vt 0.1121826 0.6791992
vt 0.09460449 0.671875
vt 0.1121826 0.6791992
vt 0.1333008 0.668457
vt 0.1439209 0.6933594
vt 0.1227417 0.6967773
vt 0.1403809 0.7001953
vt 0.09460449 0.671875
vt 0.1121826 0.6791992
vt 0.1086426 0.6826172
vt 0.08752441 0.671875
vt 0.1121826 0.6791992
vt 0.1227417 0.6967773
vt 0.1192017 0.6967773
vt 0.1086426 0.6826172
vt 0.1333008 0.7602539
vt 0.1157227 0.7636719
vt 0.1227417 0.7319336
vt 0.1333008 0.7319336
vt 0.1333008 0.7602539
vt 0.1333008 0.7319336
vt 0.1439209 0.7319336
vt 0.1508789 0.7636719
vt 0.4819336 0.9853516
vt 0.4819336 0.9819336
vt 0.3198242 0.9819336
vt 0.3198242 0.9853516
vt 0.5908203 0.9609375
vt 0.6826172 0.9609375
vt 0.6826172 0.9570313
vt 0.5908203 0.9570313
vt 0.0980835 0.668457
vt 0.09460449 0.671875
vt 0.08752441 0.671875
vt 0.09106445 0.6650391
vt 0.1439209 0.5908203
vt 0.1473389 0.6225586
vt 0.1403809 0.6298828
vt 0.1403809 0.5908203
vt 0.1403809 0.6298828
vt 0.1227417 0.6191406
vt 0.1297607 0.5874023
vt 0.1227417 0.6967773
vt 0.1333008 0.7143555
vt 0.1262207 0.7143555
vt 0.1192017 0.6967773
vt 0.1333008 0.7143555
vt 0.1227417 0.6967773
vt 0.1403809 0.7001953
vt 0.1439209 0.7143555
vt 0.1333008 0.7143555
vt 0.1439209 0.7143555
vt 0.1439209 0.7177734
vt 0.1333008 0.7211914
vt 0.1439209 0.7319336
vt 0.1333008 0.7319336
vt 0.1333008 0.7285156
vt 0.1473389 0.7285156
vt 0.1403809 0.6542969
vt 0.1403809 0.6298828
vt 0.1473389 0.6333008
vt 0.1439209 0.6582031
vt 0.1333008 0.6650391
vt 0.1403809 0.6542969
vt 0.1439209 0.6582031
vt 0.1403809 0.6650391
vt 0.1403809 0.6298828
vt 0.1473389 0.6225586
vt 0.1508789 0.6298828
vt 0.1473389 0.6333008
vt 0.1439209 0.5595703
vt 0.1439209 0.5908203
vt 0.1403809 0.5908203
vt 0.1368408 0.5595703
vt 0.1333008 0.7211914
vt 0.1333008 0.7285156
vt 0.1227417 0.7285156
vt 0.1227417 0.7177734
vt 0.1333008 0.7285156
vt 0.1333008 0.7211914
vt 0.1439209 0.7177734
vt 0.1473389 0.7285156
vt 0.1333008 0.7319336
vt 0.1227417 0.7319336
vt 0.1227417 0.7285156
vt 0.1333008 0.7285156
vt 0.1262207 0.7143555
vt 0.1333008 0.7143555
vt 0.1333008 0.7211914
vt 0.1227417 0.7177734
vt 0.3198242 0.9609375
vt 0.4819336 0.9609375
vt 0.4819336 0.9570313
vt 0.3198242 0.9570313
vt 0.5908203 0.9609375
vt 0.5908203 0.9570313
vt 0.5874023 0.9570313
vt 0.5874023 0.9609375
vt 0.6826172 0.9853516
vt 0.6826172 0.9819336
vt 0.5908203 0.9819336
vt 0.5908203 0.9853516
vt 0.4819336 0.9819336
vt 0.4819336 0.9853516
vt 0.4819336 0.9853516
vt 0.4819336 0.9819336
vt 0.4853516 0.9853516
vt 0.4853516 0.9819336
vt 0.4819336 0.9819336
vt 0.4819336 0.9853516
vt 0.5839844 0.9609375
vt 0.5874023 0.9609375
vt 0.5874023 0.9570313
vt 0.5839844 0.9570313
vt 0.4819336 0.9570313
vt 0.4819336 0.9609375
vt 0.4819336 0.9609375
vt 0.4819336 0.9570313
vt 0.5908203 0.9853516
vt 0.5908203 0.9819336
vt 0.5874023 0.9819336
vt 0.5874023 0.9853516
vt 0.2741699 0.3093262
vt 0.270752 0.3093262
vt 0.2636719 0.2988281
vt 0.2775879 0.2988281
vt 0.2883301 0.2883301
vt 0.2883301 0.2988281
vt 0.2775879 0.2988281
vt 0.2775879 0.2883301
vt 0.1297607 0.8022461
vt 0.1333008 0.7602539
vt 0.1508789 0.7636719
vt 0.1368408 0.8056641
vt 0.1297607 0.8022461
vt 0.1227417 0.8056641
vt 0.1157227 0.7636719
vt 0.1333008 0.7602539
vt 0.1368408 0.8095703
vt 0.1297607 0.8056641
vt 0.1297607 0.8022461
vt 0.1368408 0.8056641
vt 0.1297607 0.8056641
vt 0.1262207 0.8095703
vt 0.1227417 0.8056641
vt 0.1297607 0.8022461
vt 0.4853516 0.9609375
vt 0.534668 0.9609375
vt 0.534668 0.9570313
vt 0.4853516 0.9570313
vt 0.5839844 0.9853516
vt 0.5839844 0.9819336
vt 0.534668 0.9819336
vt 0.534668 0.9853516
vt 0.4819336 0.9609375
vt 0.4853516 0.9609375
vt 0.4853516 0.9570313
vt 0.4819336 0.9570313
vt 0.534668 0.9853516
vt 0.534668 0.9819336
vt 0.4853516 0.9819336
vt 0.4853516 0.9853516
vt 0.5874023 0.9853516
vt 0.5874023 0.9819336
vt 0.5839844 0.9819336
vt 0.5839844 0.9853516
vt 0.534668 0.9609375
vt 0.5839844 0.9609375
vt 0.5839844 0.9570313
vt 0.534668 0.9570313
vt 0.1333008 0.5522461
vt 0.1368408 0.5595703
vt 0.1368408 0.4819336
vt 0.1297607 0.5874023
vt 0.1403809 0.5908203
vt 0.1403809 0.6542969
vt 0.1051636 0.6508789
vt 0.09106445 0.6650391
vt 0.1333008 0.6650391
vt 0.1403809 0.6298828
vt 0.1051636 0.6508789
vt 0.1227417 0.6191406
vt 0.1439209 0.6894531
vt 0.1473389 0.6791992
vt 0.1403809 0.6650391
vt 0.1333008 0.6650391
vt 0.2883301 0.2988281
vt 0.2775879 0.2988281
vt 0.2741699 0.3093262
vt 0.284668 0.3093262
vt 0.2775879 0.2988281
vt 0.2775879 0.2883301
vt 0.2636719 0.2883301
vt 0.2636719 0.2988281
vt 0.09106445 0.6650391
vt 0.0980835 0.668457
vt 0.1333008 0.668457
vt 0.1333008 0.6650391
vt 0.1333008 0.6650391
vt 0.1333008 0.668457
vt 0.1439209 0.6933594
vt 0.1439209 0.6894531
vt 0.0980835 0.668457
vt 0.09460449 0.671875
vt 0.1121826 0.6791992
vt 0.1333008 0.668457
vt 0.1439209 0.6933594
vt 0.1333008 0.668457
vt 0.1121826 0.6791992
vt 0.1227417 0.6967773
vt 0.1403809 0.7001953
vt 0.09460449 0.671875
vt 0.08752441 0.671875
vt 0.1086426 0.6826172
vt 0.1121826 0.6791992
vt 0.1121826 0.6791992
vt 0.1086426 0.6826172
vt 0.1192017 0.6967773
vt 0.1227417 0.6967773
vt 0.1333008 0.7602539
vt 0.1333008 0.7319336
vt 0.1227417 0.7319336
vt 0.1157227 0.7636719
vt 0.1333008 0.7602539
vt 0.1508789 0.7636719
vt 0.1439209 0.7319336
vt 0.1333008 0.7319336
vt 0.4819336 0.9643555
vt 0.3198242 0.9643555
vt 0.3198242 0.9677734
vt 0.4819336 0.9677734
vt 0.5908203 0.9609375
vt 0.5908203 0.9643555
vt 0.6826172 0.9643555
vt 0.6826172 0.9609375
vt 0.0980835 0.668457
vt 0.09106445 0.6650391
vt 0.08752441 0.671875
vt 0.09460449 0.671875
vt 0.1439209 0.5908203
vt 0.1403809 0.6298828
vt 0.1473389 0.6225586
vt 0.1403809 0.5908203
vt 0.1297607 0.5874023
vt 0.1227417 0.6191406
vt 0.1403809 0.6298828
vt 0.1227417 0.6967773
vt 0.1192017 0.6967773
vt 0.1262207 0.7143555
vt 0.1333008 0.7143555
vt 0.1333008 0.7143555
vt 0.1439209 0.7143555
vt 0.1403809 0.7001953
vt 0.1227417 0.6967773
vt 0.1333008 0.7143555
vt 0.1333008 0.7211914
vt 0.1439209 0.7177734
vt 0.1439209 0.7143555
vt 0.1439209 0.7319336
vt 0.1473389 0.7285156
vt 0.1333008 0.7285156
vt 0.1333008 0.7319336
vt 0.1403809 0.6542969
vt 0.1439209 0.6582031
vt 0.1473389 0.6333008
vt 0.1403809 0.6298828
vt 0.1333008 0.6650391
vt 0.1403809 0.6650391
vt 0.1439209 0.6582031
vt 0.1403809 0.6542969
vt 0.1403809 0.6298828
vt 0.1473389 0.6333008
vt 0.1508789 0.6298828
vt 0.1473389 0.6225586
vt 0.1439209 0.5595703
vt 0.1368408 0.5595703
vt 0.1403809 0.5908203
vt 0.1439209 0.5908203
vt 0.1333008 0.7211914
vt 0.1227417 0.7177734
vt 0.1227417 0.7285156
vt 0.1333008 0.7285156
vt 0.1333008 0.7285156
vt 0.1473389 0.7285156
vt 0.1439209 0.7177734
vt 0.1333008 0.7211914
vt 0.1333008 0.7319336
vt 0.1333008 0.7285156
vt 0.1227417 0.7285156
vt 0.1227417 0.7319336
vt 0.1262207 0.7143555
vt 0.1227417 0.7177734
vt 0.1333008 0.7211914
vt 0.1333008 0.7143555
vt 0.3198242 0.9609375
vt 0.3198242 0.9643555
vt 0.4819336 0.9643555
vt 0.4819336 0.9609375
vt 0.5908203 0.9609375
vt 0.5874023 0.9609375
vt 0.5874023 0.9643555
vt 0.5908203 0.9643555
vt 0.6826172 0.9643555
vt 0.5908203 0.9643555
vt 0.5908203 0.9677734
vt 0.6826172 0.9677734
vt 0.4819336 0.9677734
vt 0.4819336 0.9677734
vt 0.4819336 0.9643555
vt 0.4819336 0.9643555
vt 0.4853516 0.9643555
vt 0.4819336 0.9643555
vt 0.4819336 0.9677734
vt 0.4853516 0.9677734
vt 0.5839844 0.9609375
vt 0.5839844 0.9643555
vt 0.5874023 0.9643555
vt 0.5874023 0.9609375
vt 0.4819336 0.9643555
vt 0.4819336 0.9643555
vt 0.4819336 0.9609375
vt 0.4819336 0.9609375
vt 0.5908203 0.9643555
vt 0.5874023 0.9643555
vt 0.5874023 0.9677734
vt 0.5908203 0.9677734
vt 0.2741699 0.3093262
vt 0.2775879 0.2988281
vt 0.2636719 0.2988281
vt 0.270752 0.3093262
vt 0.2883301 0.2883301
vt 0.2775879 0.2883301
vt 0.2775879 0.2988281
vt 0.2883301 0.2988281
vt 0.1297607 0.8022461
vt 0.1368408 0.8056641
vt 0.1508789 0.7636719
vt 0.1333008 0.7602539
vt 0.1297607 0.8022461
vt 0.1333008 0.7602539
vt 0.1157227 0.7636719
vt 0.1227417 0.8056641
vt 0.1368408 0.8095703
vt 0.1368408 0.8056641
vt 0.1297607 0.8022461
vt 0.1297607 0.8056641
vt 0.1297607 0.8056641
vt 0.1297607 0.8022461
vt 0.1227417 0.8056641
vt 0.1262207 0.8095703
vt 0.4853516 0.9609375
vt 0.4853516 0.9643555
vt 0.534668 0.9643555
vt 0.534668 0.9609375
vt 0.5839844 0.9643555
vt 0.534668 0.9643555
vt 0.534668 0.9677734
vt 0.5839844 0.9677734
vt 0.4819336 0.9609375
vt 0.4819336 0.9643555
vt 0.4853516 0.9643555
vt 0.4853516 0.9609375
vt 0.534668 0.9643555
vt 0.4853516 0.9643555
vt 0.4853516 0.9677734
vt 0.534668 0.9677734
vt 0.5874023 0.9643555
vt 0.5839844 0.9643555
vt 0.5839844 0.9677734
vt 0.5874023 0.9677734
vt 0.534668 0.9609375
vt 0.534668 0.9643555
vt 0.5839844 0.9643555
vt 0.5839844 0.9609375

g Spear_1161_8
usemtl Spear_1161_8
usemap Spear_1161_8
f 1/1/1 3/3/3 2/2/2
f 4/4/4 6/6/6 5/5/5
f 7/7/7 9/9/9 8/8/8
f 10/10/10 12/12/12 11/11/11
f 13/13/13 15/15/15 14/14/14
f 16/16/16 18/18/18 17/17/17
f 19/19/19 21/21/21 20/20/20
f 22/22/22 24/24/24 23/23/23
f 25/25/25 27/27/27 26/26/26
f 28/28/28 30/30/30 29/29/29
f 31/31/31 33/33/33 32/32/32
f 34/34/34 36/36/36 35/35/35
f 37/37/37 39/39/39 38/38/38
f 40/40/40 42/42/42 41/41/41
f 43/43/43 45/45/45 44/44/44
f 46/46/46 48/48/48 47/47/47
f 49/49/49 51/51/51 50/50/50
f 52/52/52 54/54/54 53/53/53
f 55/55/55 57/57/57 56/56/56
f 58/58/58 60/60/60 59/59/59
f 61/61/61 63/63/63 62/62/62
f 62/62/62 64/64/64 61/61/61
f 62/62/62 65/65/65 64/64/64
f 66/66/66 68/68/68 67/67/67
f 66/66/66 69/69/69 68/68/68
f 70/70/70 66/66/66 71/71/71
f 70/70/70 71/71/71 72/72/72
f 73/73/73 75/75/75 74/74/74
f 73/73/73 76/76/76 75/75/75
f 77/77/77 79/79/79 78/78/78
f 77/77/77 80/80/80 79/79/79
f 81/81/81 83/83/83 82/82/82
f 81/81/81 84/84/84 83/83/83
f 85/85/85 87/87/87 86/86/86
f 85/85/85 88/88/88 87/87/87
f 89/89/89 91/91/91 90/90/90
f 89/89/89 92/92/92 91/91/91
f 93/93/93 95/95/95 94/94/94
f 93/93/93 96/96/96 95/95/95
f 97/97/97 99/99/99 98/98/98
f 99/99/99 97/97/97 100/100/100
f 100/100/100 97/97/97 101/101/101
f 102/102/102 104/104/104 103/103/103
f 102/102/102 105/105/105 104/104/104
f 106/106/106 108/108/108 107/107/107
f 106/106/106 109/109/109 108/108/108
f 110/110/110 112/112/112 111/111/111
f 110/110/110 113/113/113 112/112/112
f 114/114/114 116/116/116 115/115/115
f 114/114/114 117/117/117 116/116/116
f 118/118/118 120/120/120 119/119/119
f 118/118/118 121/121/121 120/120/120
f 122/122/122 124/124/124 123/123/123
f 122/122/122 125/125/125 124/124/124
f 126/126/126 128/128/128 127/127/127
f 126/126/126 129/129/129 128/128/128
f 130/130/130 132/132/132 131/131/131
f 130/130/130 131/131/131 133/133/133
f 133/133/133 135/135/135 134/134/134
f 133/133/133 136/136/136 135/135/135
f 137/137/137 139/139/139 138/138/138
f 137/137/137 140/140/140 139/139/139
f 141/141/141 143/143/143 142/142/142
f 141/141/141 144/144/144 143/143/143
f 145/145/145 147/147/147 146/146/146
f 145/145/145 148/148/148 147/147/147
f 149/149/149 151/151/151 150/150/150
f 149/149/149 152/152/152 151/151/151
f 153/153/153 155/155/155 154/154/154
f 153/153/153 156/156/156 155/155/155
f 157/157/157 159/159/159 158/158/158
f 157/157/157 160/160/160 159/159/159
f 161/161/161 163/163/163 162/162/162
f 161/161/161 164/164/164 163/163/163
f 165/165/165 167/167/167 166/166/166
f 165/165/165 168/168/168 167/167/167
f 169/169/169 171/171/171 170/170/170
f 169/169/169 172/172/172 171/171/171
f 173/173/173 175/175/175 174/174/174
f 173/173/173 176/176/176 175/175/175
f 177/177/177 179/179/179 178/178/178
f 177/177/177 180/180/180 179/179/179
f 181/181/181 183/183/183 182/182/182
f 181/181/181 184/184/184 183/183/183
f 185/185/185 187/187/187 186/186/186
f 185/185/185 188/188/188 187/187/187
f 189/189/189 191/191/191 190/190/190
f 189/189/189 192/192/192 191/191/191
f 193/193/193 195/195/195 194/194/194
f 193/193/193 196/196/196 195/195/195
f 197/197/197 199/199/199 198/198/198
f 197/197/197 200/200/200 199/199/199
f 201/201/201 203/203/203 202/202/202
f 201/201/201 204/204/204 203/203/203
f 205/205/205 207/207/207 206/206/206
f 205/205/205 208/208/208 207/207/207
f 209/209/209 211/211/211 210/210/210
f 209/209/209 212/212/212 211/211/211
f 213/213/213 215/215/215 214/214/214
f 213/213/213 216/216/216 215/215/215
f 217/217/217 219/219/219 218/218/218
f 217/217/217 220/220/220 219/219/219
f 221/221/221 223/223/223 222/222/222
f 221/221/221 224/224/224 223/223/223
f 225/225/225 227/227/227 226/226/226
f 225/225/225 228/228/228 227/227/227
f 229/229/229 231/231/231 230/230/230
f 229/229/229 232/232/232 231/231/231
f 233/233/233 235/235/235 234/234/234
f 233/233/233 236/236/236 235/235/235
f 237/237/237 239/239/239 238/238/238
f 237/237/237 240/240/240 239/239/239
f 241/241/241 243/243/243 242/242/242
f 241/241/241 244/244/244 243/243/243
f 245/245/245 247/247/247 246/246/246
f 245/245/245 248/248/248 247/247/247
f 249/249/249 251/251/251 250/250/250
f 249/249/249 252/252/252 251/251/251
f 253/253/253 255/255/255 254/254/254
f 253/253/253 256/256/256 255/255/255
f 257/257/257 259/259/259 258/258/258
f 257/257/257 260/260/260 259/259/259
f 261/261/261 263/263/263 262/262/262
f 261/261/261 264/264/264 263/263/263
f 265/265/265 267/267/267 266/266/266
f 267/267/267 265/265/265 268/268/268
f 267/267/267 268/268/268 269/269/269
f 270/270/270 272/272/272 271/271/271
f 270/270/270 273/273/273 272/272/272
f 274/274/274 275/275/275 270/270/270
f 274/274/274 276/276/276 275/275/275
f 277/277/277 279/279/279 278/278/278
f 277/277/277 280/280/280 279/279/279
f 281/281/281 283/283/283 282/282/282
f 281/281/281 284/284/284 283/283/283
f 285/285/285 287/287/287 286/286/286
f 285/285/285 288/288/288 287/287/287
f 289/289/289 291/291/291 290/290/290
f 289/289/289 292/292/292 291/291/291
f 293/293/293 295/295/295 294/294/294
f 293/293/293 296/296/296 295/295/295
f 297/297/297 299/299/299 298/298/298
f 297/297/297 300/300/300 299/299/299
f 301/301/301 303/303/303 302/302/302
f 303/303/303 301/301/301 304/304/304
f 303/303/303 304/304/304 305/305/305
f 306/306/306 308/308/308 307/307/307
f 306/306/306 309/309/309 308/308/308
f 310/310/310 312/312/312 311/311/311
f 310/310/310 313/313/313 312/312/312
f 314/314/314 316/316/316 315/315/315
f 314/314/314 317/317/317 316/316/316
f 318/318/318 320/320/320 319/319/319
f 318/318/318 321/321/321 320/320/320
f 322/322/322 324/324/324 323/323/323
f 322/322/322 325/325/325 324/324/324
f 326/326/326 328/328/328 327/327/327
f 326/326/326 329/329/329 328/328/328
f 330/330/330 332/332/332 331/331/331
f 330/330/330 333/333/333 332/332/332
f 334/334/334 336/336/336 335/335/335
f 334/334/334 337/337/337 336/336/336
f 337/337/337 339/339/339 338/338/338
f 337/337/337 340/340/340 339/339/339
f 341/341/341 343/343/343 342/342/342
f 341/341/341 344/344/344 343/343/343
f 345/345/345 347/347/347 346/346/346
f 345/345/345 348/348/348 347/347/347
f 349/349/349 351/351/351 350/350/350
f 349/349/349 352/352/352 351/351/351
f 353/353/353 355/355/355 354/354/354
f 353/353/353 356/356/356 355/355/355
f 357/357/357 359/359/359 358/358/358
f 357/357/357 360/360/360 359/359/359
f 361/361/361 363/363/363 362/362/362
f 361/361/361 364/364/364 363/363/363
f 365/365/365 367/367/367 366/366/366
f 365/365/365 368/368/368 367/367/367
f 369/369/369 371/371/371 370/370/370
f 369/369/369 372/372/372 371/371/371
f 373/373/373 375/375/375 374/374/374
f 373/373/373 376/376/376 375/375/375
f 377/377/377 379/379/379 378/378/378
f 377/377/377 380/380/380 379/379/379
f 381/381/381 383/383/383 382/382/382
f 381/381/381 384/384/384 383/383/383
f 385/385/385 387/387/387 386/386/386
f 385/385/385 388/388/388 387/387/387
f 389/389/389 391/391/391 390/390/390
f 389/389/389 392/392/392 391/391/391
f 393/393/393 395/395/395 394/394/394
f 393/393/393 396/396/396 395/395/395
f 397/397/397 399/399/399 398/398/398
f 397/397/397 400/400/400 399/399/399
f 401/401/401 403/403/403 402/402/402
f 401/401/401 404/404/404 403/403/403
f 405/405/405 407/407/407 406/406/406
f 405/405/405 408/408/408 407/407/407
f 409/409/409 411/411/411 410/410/410
f 409/409/409 412/412/412 411/411/411
f 413/413/413 415/415/415 414/414/414
f 413/413/413 416/416/416 415/415/415
f 417/417/417 419/419/419 418/418/418
f 417/417/417 420/420/420 419/419/419
f 421/421/421 423/423/423 422/422/422
f 421/421/421 424/424/424 423/423/423
f 425/425/425 427/427/427 426/426/426
f 425/425/425 428/428/428 427/427/427
f 429/429/429 431/431/431 430/430/430
f 429/429/429 432/432/432 431/431/431
f 433/433/433 435/435/435 434/434/434
f 433/433/433 436/436/436 435/435/435
f 437/437/437 439/439/439 438/438/438
f 437/437/437 440/440/440 439/439/439
f 441/441/441 443/443/443 442/442/442
f 441/441/441 444/444/444 443/443/443
f 445/445/445 447/447/447 446/446/446
f 445/445/445 448/448/448 447/447/447
f 449/449/449 451/451/451 450/450/450
f 449/449/449 452/452/452 451/451/451
f 453/453/453 455/455/455 454/454/454
f 453/453/453 456/456/456 455/455/455
f 457/457/457 459/459/459 458/458/458
f 457/457/457 460/460/460 459/459/459
f 461/461/461 463/463/463 462/462/462
f 461/461/461 464/464/464 463/463/463
f 465/465/465 467/467/467 466/466/466
f 465/465/465 468/468/468 467/467/467
f 469/469/469 471/471/471 470/470/470
f 471/471/471 469/469/469 472/472/472
f 471/471/471 472/472/472 473/473/473
f 474/474/474 476/476/476 475/475/475
f 474/474/474 477/477/477 476/476/476
f 478/478/478 479/479/479 474/474/474
f 478/478/478 480/480/480 479/479/479
f 481/481/481 483/483/483 482/482/482
f 481/481/481 484/484/484 483/483/483
f 485/485/485 487/487/487 486/486/486
f 485/485/485 488/488/488 487/487/487
f 489/489/489 491/491/491 490/490/490
f 489/489/489 492/492/492 491/491/491
f 493/493/493 495/495/495 494/494/494
f 493/493/493 496/496/496 495/495/495
f 497/497/497 499/499/499 498/498/498
f 497/497/497 500/500/500 499/499/499
f 501/501/501 503/503/503 502/502/502
f 501/501/501 504/504/504 503/503/503
f 505/505/505 507/507/507 506/506/506
f 507/507/507 505/505/505 508/508/508
f 507/507/507 508/508/508 509/509/509
f 510/510/510 512/512/512 511/511/511
f 510/510/510 513/513/513 512/512/512
f 514/514/514 516/516/516 515/515/515
f 514/514/514 517/517/517 516/516/516
f 518/518/518 520/520/520 519/519/519
f 518/518/518 521/521/521 520/520/520
f 522/522/522 524/524/524 523/523/523
f 522/522/522 525/525/525 524/524/524
f 526/526/526 528/528/528 527/527/527
f 526/526/526 529/529/529 528/528/528
f 530/530/530 532/532/532 531/531/531
f 530/530/530 533/533/533 532/532/532
f 534/534/534 536/536/536 535/535/535
f 534/534/534 537/537/537 536/536/536
f 538/538/538 540/540/540 539/539/539
f 538/538/538 541/541/541 540/540/540
f 541/541/541 543/543/543 542/542/542
f 541/541/541 544/544/544 543/543/543
f 545/545/545 547/547/547 546/546/546
f 545/545/545 548/548/548 547/547/547
f 549/549/549 551/551/551 550/550/550
f 549/549/549 552/552/552 551/551/551
f 553/553/553 555/555/555 554/554/554
f 553/553/553 556/556/556 555/555/555
f 557/557/557 559/559/559 558/558/558
f 557/557/557 560/560/560 559/559/559
f 561/561/561 563/563/563 562/562/562
f 561/561/561 564/564/564 563/563/563
f 565/565/565 567/567/567 566/566/566
f 565/565/565 568/568/568 567/567/567
f 569/569/569 571/571/571 570/570/570
f 569/569/569 572/572/572 571/571/571
f 573/573/573 575/575/575 574/574/574
f 573/573/573 576/576/576 575/575/575
f 577/577/577 579/579/579 578/578/578
f 577/577/577 580/580/580 579/579/579
f 581/581/581 583/583/583 582/582/582
f 581/581/581 584/584/584 583/583/583
f 585/585/585 587/587/587 586/586/586
f 585/585/585 588/588/588 587/587/587
f 589/589/589 591/591/591 590/590/590
f 589/589/589 592/592/592 591/591/591
f 593/593/593 595/595/595 594/594/594
f 593/593/593 596/596/596 595/595/595
f 597/597/597 599/599/599 598/598/598
f 597/597/597 600/600/600 599/599/599
f 601/601/601 603/603/603 602/602/602
f 601/601/601 604/604/604 603/603/603
f 605/605/605 607/607/607 606/606/606
f 605/605/605 608/608/608 607/607/607
f 609/609/609 611/611/611 610/610/610
f 609/609/609 612/612/612 611/611/611
f 613/613/613 615/615/615 614/614/614
f 613/613/613 616/616/616 615/615/615
f 617/617/617 619/619/619 618/618/618
f 617/617/617 620/620/620 619/619/619
f 621/621/621 623/623/623 622/622/622
f 621/621/621 624/624/624 623/623/623
f 625/625/625 627/627/627 626/626/626
f 625/625/625 628/628/628 627/627/627
f 629/629/629 631/631/631 630/630/630
f 629/629/629 632/632/632 631/631/631
f 633/633/633 635/635/635 634/634/634
f 633/633/633 636/636/636 635/635/635
f 637/637/637 639/639/639 638/638/638
f 637/637/637 640/640/640 639/639/639
f 641/641/641 643/643/643 642/642/642
f 641/641/641 644/644/644 643/643/643
f 645/645/645 647/647/647 646/646/646
f 645/645/645 648/648/648 647/647/647
f 649/649/649 651/651/651 650/650/650
f 649/649/649 652/652/652 651/651/651
f 653/653/653 655/655/655 654/654/654
f 653/653/653 656/656/656 655/655/655
f 657/657/657 659/659/659 658/658/658
f 657/657/657 660/660/660 659/659/659
f 661/661/661 663/663/663 662/662/662
f 661/661/661 664/664/664 663/663/663
f 665/665/665 667/667/667 666/666/666
f 665/665/665 668/668/668 667/667/667
f 669/669/669 671/671/671 670/670/670
f 669/669/669 672/672/672 671/671/671
f 673/673/673 675/675/675 674/674/674
f 674/674/674 676/676/676 673/673/673
f 674/674/674 677/677/677 676/676/676
f 678/678/678 680/680/680 679/679/679
f 678/678/678 681/681/681 680/680/680
f 682/682/682 678/678/678 683/683/683
f 682/682/682 683/683/683 684/684/684
f 685/685/685 687/687/687 686/686/686
f 685/685/685 688/688/688 687/687/687
f 689/689/689 691/691/691 690/690/690
f 689/689/689 692/692/692 691/691/691
f 693/693/693 695/695/695 694/694/694
f 693/693/693 696/696/696 695/695/695
f 697/697/697 699/699/699 698/698/698
f 697/697/697 700/700/700 699/699/699
f 701/701/701 703/703/703 702/702/702
f 701/701/701 704/704/704 703/703/703
f 705/705/705 707/707/707 706/706/706
f 705/705/705 708/708/708 707/707/707
f 709/709/709 711/711/711 710/710/710
f 711/711/711 709/709/709 712/712/712
f 712/712/712 709/709/709 713/713/713
f 714/714/714 716/716/716 715/715/715
f 714/714/714 717/717/717 716/716/716
f 718/718/718 720/720/720 719/719/719
f 718/718/718 721/721/721 720/720/720
f 722/722/722 724/724/724 723/723/723
f 722/722/722 725/725/725 724/724/724
f 726/726/726 728/728/728 727/727/727
f 726/726/726 729/729/729 728/728/728
f 730/730/730 732/732/732 731/731/731
f 730/730/730 733/733/733 732/732/732
f 734/734/734 736/736/736 735/735/735
f 734/734/734 737/737/737 736/736/736
f 738/738/738 740/740/740 739/739/739
f 738/738/738 741/741/741 740/740/740
f 742/742/742 744/744/744 743/743/743
f 742/742/742 743/743/743 745/745/745
f 745/745/745 747/747/747 746/746/746
f 745/745/745 748/748/748 747/747/747
f 749/749/749 751/751/751 750/750/750
f 749/749/749 752/752/752 751/751/751
f 753/753/753 755/755/755 754/754/754
f 753/753/753 756/756/756 755/755/755
f 757/757/757 759/759/759 758/758/758
f 757/757/757 760/760/760 759/759/759
f 761/761/761 763/763/763 762/762/762
f 761/761/761 764/764/764 763/763/763
f 765/765/765 767/767/767 766/766/766
f 765/765/765 768/768/768 767/767/767
f 769/769/769 771/771/771 770/770/770
f 769/769/769 772/772/772 771/771/771
f 773/773/773 775/775/775 774/774/774
f 773/773/773 776/776/776 775/775/775
f 777/777/777 779/779/779 778/778/778
f 777/777/777 780/780/780 779/779/779
f 781/781/781 783/783/783 782/782/782
f 781/781/781 784/784/784 783/783/783
f 785/785/785 787/787/787 786/786/786
f 785/785/785 788/788/788 787/787/787
f 789/789/789 791/791/791 790/790/790
f 789/789/789 792/792/792 791/791/791
f 793/793/793 795/795/795 794/794/794
f 793/793/793 796/796/796 795/795/795
f 797/797/797 799/799/799 798/798/798
f 797/797/797 800/800/800 799/799/799
f 801/801/801 803/803/803 802/802/802
f 801/801/801 804/804/804 803/803/803
f 805/805/805 807/807/807 806/806/806
f 805/805/805 808/808/808 807/807/807
f 809/809/809 811/811/811 810/810/810
f 809/809/809 812/812/812 811/811/811
f 813/813/813 815/815/815 814/814/814
f 813/813/813 816/816/816 815/815/815
f 817/817/817 819/819/819 818/818/818
f 817/817/817 820/820/820 819/819/819
f 821/821/821 823/823/823 822/822/822
f 821/821/821 824/824/824 823/823/823
f 825/825/825 827/827/827 826/826/826
f 825/825/825 828/828/828 827/827/827
f 829/829/829 831/831/831 830/830/830
f 829/829/829 832/832/832 831/831/831
f 833/833/833 835/835/835 834/834/834
f 833/833/833 836/836/836 835/835/835
f 837/837/837 839/839/839 838/838/838
f 837/837/837 840/840/840 839/839/839
f 841/841/841 843/843/843 842/842/842
f 841/841/841 844/844/844 843/843/843
f 845/845/845 847/847/847 846/846/846
f 845/845/845 848/848/848 847/847/847
f 849/849/849 851/851/851 850/850/850
f 849/849/849 852/852/852 851/851/851
f 853/853/853 855/855/855 854/854/854
f 853/853/853 856/856/856 855/855/855
f 857/857/857 859/859/859 858/858/858
f 857/857/857 860/860/860 859/859/859
f 861/861/861 863/863/863 862/862/862
f 861/861/861 864/864/864 863/863/863
f 865/865/865 867/867/867 866/866/866
f 865/865/865 868/868/868 867/867/867
f 869/869/869 871/871/871 870/870/870
f 869/869/869 872/872/872 871/871/871
f 873/873/873 875/875/875 874/874/874
f 873/873/873 876/876/876 875/875/875
