#Spear_01_1087_45.obj

v 0.09611702 -0.05810404 -0.2617362
v -0.2081547 0.05535126 0.2237433
v -0.0907402 -0.02921009 0.2538578
v 0.09611702 -0.05810404 -0.2617362
v 0.01434517 0.06180906 0.3040182
v -0.0833602 0.1344562 0.2202349
v 0.09611702 -0.05810404 -0.2617362
v -0.0907402 -0.02921009 0.2538578
v 0.01434517 0.06180906 0.3040182
v 0.09611702 -0.05810404 -0.2617362
v -0.0833602 0.1344562 0.2202349
v -0.2081547 0.05535126 0.2237433
v -0.6684728 0.3143296 1.662251
v -0.6686292 0.4041953 1.820741
v -0.5630221 0.31739 1.700297
v -0.5630221 0.31739 1.700297
v -0.6686292 0.4041953 1.820741
v -0.5580735 0.427134 1.677751
v -0.5580735 0.427134 1.677751
v -0.6686292 0.4041953 1.820741
v -0.6635237 0.4240737 1.639706
v -0.6635237 0.4240737 1.639706
v -0.6686292 0.4041953 1.820741
v -0.6684728 0.3143296 1.662251
v -0.0833602 0.1344562 0.2202349
v -0.0907402 -0.02921009 0.2538578
v -0.2081547 0.05535126 0.2237433
v -0.0907402 -0.02921009 0.2538578
v -0.0833602 0.1344562 0.2202349
v 0.01434517 0.06180906 0.3040182
v -0.1120133 0.01126003 0.2056228
v -0.5658975 0.3276515 1.646096
v -0.0456996 0.01318455 0.2295479
v -0.6322112 0.325726 1.622171
v -0.0456996 0.01318455 0.2295479
v -0.5627851 0.3966651 1.631918
v -0.04258728 0.08219862 0.2153699
v -0.5658975 0.3276515 1.646096
v -0.04258728 0.08219862 0.2153699
v -0.6290989 0.3947406 1.607993
v -0.108901 0.08027363 0.1914449
v -0.5627851 0.3966651 1.631918
v -0.108901 0.08027363 0.1914449
v -0.6322112 0.325726 1.622171
v -0.1120133 0.01126003 0.2056228
v -0.6290989 0.3947406 1.607993
v -0.6322112 0.325726 1.622171
v -0.5630221 0.31739 1.700297
v -0.5658975 0.3276515 1.646096
v -0.6684728 0.3143296 1.662251
v -0.5658975 0.3276515 1.646096
v -0.5580735 0.427134 1.677751
v -0.5627851 0.3966651 1.631918
v -0.5630221 0.31739 1.700297
v -0.5627851 0.3966651 1.631918
v -0.6635237 0.4240737 1.639706
v -0.6290989 0.3947406 1.607993
v -0.5580735 0.427134 1.677751
v -0.6290989 0.3947406 1.607993
v -0.6684728 0.3143296 1.662251
v -0.6322112 0.325726 1.622171
v -0.6635237 0.4240737 1.639706
v -0.3030043 0.1092739 0.6949981
v -0.3792129 0.2103362 1.17021
v -0.2162018 0.1117935 0.7263152
v -0.4660158 0.2078166 1.138893
v -0.2162018 0.1117935 0.7263152
v -0.3751392 0.300673 1.151652
v -0.2121282 0.2021308 0.7077568
v -0.3792129 0.2103362 1.17021
v -0.2121282 0.2021308 0.7077568
v -0.4619422 0.2981534 1.120335
v -0.2989306 0.1996112 0.6764396
v -0.3751392 0.300673 1.151652
v -0.2989306 0.1996112 0.6764396
v -0.4660158 0.2078166 1.138893
v -0.3030043 0.1092739 0.6949981
v -0.4619422 0.2981534 1.120335
v -0.2989306 0.1996112 0.6764396
v -0.2162018 0.1117935 0.7263152
v -0.2121282 0.2021308 0.7077568
v -0.3030043 0.1092739 0.6949981
v -0.3751392 0.300673 1.151652
v -0.4660158 0.2078166 1.138893
v -0.4619422 0.2981534 1.120335
v -0.3792129 0.2103362 1.17021

vn 0.007774353 0.05874634 0.9980469
vn -0.5512695 -0.1538086 0.8203125
vn 0.007774353 0.05874634 0.9980469
vn 0.0949707 -0.338623 -0.9360352
vn 0.6337891 -0.07159424 -0.7700195
vn 0.0949707 -0.338623 -0.9360352
vn 0.007774353 0.05874634 0.9980469
vn 0.007774353 0.05874634 0.9980469
vn 0.5634766 0.2484131 0.7875977
vn 0.0949707 -0.338623 -0.9360352
vn 0.0949707 -0.338623 -0.9360352
vn -0.480957 -0.473877 -0.737793
vn -0.1508789 0.4875488 0.8598633
vn -0.1508789 0.4875488 0.8598633
vn -0.1508789 0.4875488 0.8598633
vn 0.7807617 0.6181641 -0.09179688
vn 0.7807617 0.6181641 -0.09179688
vn 0.7807617 0.6181641 -0.09179688
vn -0.06738281 0.1069946 -0.9921875
vn -0.06738281 0.1069946 -0.9921875
vn -0.06738281 0.1069946 -0.9921875
vn -0.9990234 -0.02375793 -0.04016113
vn -0.9990234 -0.02375793 -0.04016113
vn -0.9990234 -0.02375793 -0.04016113
vn -0.102356 0.9736328 -0.2045898
vn -0.102356 0.9736328 -0.2045898
vn -0.102356 0.9736328 -0.2045898
vn -0.5527344 0.8110352 -0.1915283
vn -0.5527344 0.8110352 -0.1915283
vn -0.5527344 0.8110352 -0.1915283
vn -0.04412842 0.2010498 0.9785156
vn -0.04412842 0.2010498 0.9785156
vn -0.04412842 0.2010498 0.9785156
vn -0.04412842 0.2010498 0.9785156
vn 0.9404297 0.3393555 -0.02729797
vn 0.9404297 0.3393555 -0.02729797
vn 0.9404297 0.3393555 -0.02729797
vn 0.9404297 0.3393555 -0.02729797
vn 0.04412842 -0.2010498 -0.9785156
vn 0.04412842 -0.2010498 -0.9785156
vn 0.04412842 -0.2010498 -0.9785156
vn 0.04412842 -0.2010498 -0.9785156
vn -0.9404297 -0.3393555 0.02729797
vn -0.9404297 -0.3393555 0.02729797
vn -0.9404297 -0.3393555 0.02729797
vn -0.9404297 -0.3393555 0.02729797
vn 0.09692383 -0.1900635 0.9770508
vn 0.09692383 -0.1900635 0.9770508
vn 0.09692383 -0.1900635 0.9770508
vn 0.09692383 -0.1900635 0.9770508
vn 0.9960938 -0.06384277 0.05804443
vn 0.9960938 -0.06384277 0.05804443
vn 0.9960938 -0.06384277 0.05804443
vn 0.9960938 -0.06384277 0.05804443
vn 0.1776123 -0.5576172 -0.8110352
vn 0.1776123 -0.5576172 -0.8110352
vn 0.1776123 -0.5576172 -0.8110352
vn 0.1776123 -0.5576172 -0.8110352
vn -0.7216797 -0.6835938 0.1079102
vn -0.7216797 -0.6835938 0.1079102
vn -0.7216797 -0.6835938 0.1079102
vn -0.7216797 -0.6835938 0.1079102
vn -0.04412842 0.2010498 0.9785156
vn -0.04412842 0.2010498 0.9785156
vn -0.04412842 0.2010498 0.9785156
vn -0.04412842 0.2010498 0.9785156
vn 0.9404297 0.3393555 -0.02729797
vn 0.9404297 0.3393555 -0.02729797
vn 0.9404297 0.3393555 -0.02729797
vn 0.9404297 0.3393555 -0.02729797
vn 0.04412842 -0.2010498 -0.9785156
vn 0.04412842 -0.2010498 -0.9785156
vn 0.04412842 -0.2010498 -0.9785156
vn 0.04412842 -0.2010498 -0.9785156
vn -0.9404297 -0.3393555 0.02729797
vn -0.9404297 -0.3393555 0.02729797
vn -0.9404297 -0.3393555 0.02729797
vn -0.9404297 -0.3393555 0.02729797
vn 0.3374023 -0.9189453 0.2039795
vn 0.3374023 -0.9189453 0.2039795
vn 0.3374023 -0.9189453 0.2039795
vn 0.3374023 -0.9189453 0.2039795
vn -0.3374023 0.9189453 -0.2039795
vn -0.3374023 0.9189453 -0.2039795
vn -0.3374023 0.9189453 -0.2039795
vn -0.3374023 0.9189453 -0.2039795

vt 0.8476563 0.578125
vt 0.8457031 0.578125
vt 0.8476563 0.5683594
vt 0.8476563 0.578125
vt 0.8496094 0.578125
vt 0.8476563 0.5878906
vt 0.8476563 0.578125
vt 0.8476563 0.5683594
vt 0.8496094 0.578125
vt 0.8476563 0.578125
vt 0.8476563 0.5878906
vt 0.8457031 0.578125
vt 0.8500977 0.5683594
vt 0.8520508 0.578125
vt 0.8540039 0.5683594
vt 0.8540039 0.5683594
vt 0.8520508 0.578125
vt 0.8540039 0.5878906
vt 0.8540039 0.5878906
vt 0.8520508 0.578125
vt 0.8500977 0.5878906
vt 0.8500977 0.5878906
vt 0.8520508 0.578125
vt 0.8500977 0.5683594
vt 0.8476563 0.5878906
vt 0.8476563 0.5683594
vt 0.8457031 0.578125
vt 0.8476563 0.5683594
vt 0.8476563 0.5878906
vt 0.8496094 0.578125
vt 0.447998 0.03475952
vt 0.4521484 0.03475952
vt 0.4521484 0.03475952
vt 0.447998 0.03475952
vt 0.4521484 0.03475952
vt 0.4521484 0.05401611
vt 0.4521484 0.05401611
vt 0.4521484 0.03475952
vt 0.4521484 0.05401611
vt 0.447998 0.05401611
vt 0.447998 0.05401611
vt 0.4521484 0.05401611
vt 0.447998 0.05401611
vt 0.447998 0.03475952
vt 0.447998 0.03475952
vt 0.447998 0.05401611
vt 0.8500977 0.5683594
vt 0.8540039 0.5683594
vt 0.8540039 0.5683594
vt 0.8500977 0.5683594
vt 0.8540039 0.5683594
vt 0.8540039 0.5878906
vt 0.8540039 0.5878906
vt 0.8540039 0.5683594
vt 0.8540039 0.5878906
vt 0.8500977 0.5878906
vt 0.8500977 0.5878906
vt 0.8540039 0.5878906
vt 0.8500977 0.5878906
vt 0.8500977 0.5683594
vt 0.8500977 0.5683594
vt 0.8500977 0.5878906
vt 0.8461914 0.03131104
vt 0.8505859 0.03131104
vt 0.8505859 0.03131104
vt 0.8461914 0.03131104
vt 0.8505859 0.03131104
vt 0.8505859 0.05059814
vt 0.8505859 0.05059814
vt 0.8505859 0.03131104
vt 0.8505859 0.05059814
vt 0.8461914 0.05059814
vt 0.8461914 0.05059814
vt 0.8505859 0.05059814
vt 0.8461914 0.05059814
vt 0.8461914 0.03131104
vt 0.8461914 0.03131104
vt 0.8461914 0.05059814
vt 0.8461914 0.05059814
vt 0.8505859 0.03131104
vt 0.8505859 0.05059814
vt 0.8461914 0.03131104
vt 0.8505859 0.05059814
vt 0.8461914 0.03131104
vt 0.8461914 0.05059814
vt 0.8505859 0.03131104

g Spear_01_1087_45
usemtl Spear_01_1087_45
usemap Spear_01_1087_45
f 1/1/1 3/3/3 2/2/2
f 4/4/4 6/6/6 5/5/5
f 7/7/7 9/9/9 8/8/8
f 10/10/10 12/12/12 11/11/11
f 13/13/13 15/15/15 14/14/14
f 16/16/16 18/18/18 17/17/17
f 19/19/19 21/21/21 20/20/20
f 22/22/22 24/24/24 23/23/23
f 25/25/25 27/27/27 26/26/26
f 28/28/28 30/30/30 29/29/29
f 31/31/31 33/33/33 32/32/32
f 32/32/32 34/34/34 31/31/31
f 35/35/35 37/37/37 36/36/36
f 36/36/36 38/38/38 35/35/35
f 39/39/39 41/41/41 40/40/40
f 40/40/40 42/42/42 39/39/39
f 43/43/43 45/45/45 44/44/44
f 44/44/44 46/46/46 43/43/43
f 47/47/47 49/49/49 48/48/48
f 48/48/48 50/50/50 47/47/47
f 51/51/51 53/53/53 52/52/52
f 52/52/52 54/54/54 51/51/51
f 55/55/55 57/57/57 56/56/56
f 56/56/56 58/58/58 55/55/55
f 59/59/59 61/61/61 60/60/60
f 60/60/60 62/62/62 59/59/59
f 63/63/63 65/65/65 64/64/64
f 64/64/64 66/66/66 63/63/63
f 67/67/67 69/69/69 68/68/68
f 68/68/68 70/70/70 67/67/67
f 71/71/71 73/73/73 72/72/72
f 72/72/72 74/74/74 71/71/71
f 75/75/75 77/77/77 76/76/76
f 76/76/76 78/78/78 75/75/75
f 79/79/79 81/81/81 80/80/80
f 80/80/80 82/82/82 79/79/79
f 83/83/83 85/85/85 84/84/84
f 84/84/84 86/86/86 83/83/83
