#Tree_11_Green_(2)_394_77.obj

v 0.4705263 -0.9927483 2.322839
v -0.4689701 -0.6828626 1.996823
v 0.3423192 -1.194257 2.308598
v -0.4689701 -0.6828626 1.996823
v 0.4705263 -0.9927483 2.322839
v -0.3802466 -0.4090933 2.008125
v -0.5066004 -0.6773449 2.158554
v 0.3469503 -1.070825 2.513241
v 0.30267 -1.179138 2.440279
v 0.3469503 -1.070825 2.513241
v -0.5066004 -0.6773449 2.158554
v -0.481053 -0.5377007 2.24507
v 0.3423192 -1.194257 2.308598
v 1.016738 -1.427727 3.076959
v 0.4705263 -0.9927483 2.322839
v 0.4308772 -0.9776291 2.45452
v 1.016738 -1.427727 3.076959
v 0.3469503 -1.070825 2.513241
v 0.3469503 -1.070825 2.513241
v 1.016738 -1.427727 3.076959
v 0.30267 -1.179138 2.440279
v 0.30267 -1.179138 2.440279
v 1.016738 -1.427727 3.076959
v 0.3423192 -1.194257 2.308598
v -2.003538 -1.153205 2.857601
v -0.5814044 -0.4835591 2.318341
v -0.5148399 -0.5837916 2.2573
v -2.032965 -1.055769 2.905256
v -0.6676169 -0.4071325 2.248128
v -0.5814044 -0.4835591 2.318341
v -2.030696 -1.174373 2.750734
v -0.6872622 -0.4309386 2.116875
v -2.116712 -1.000676 2.739177
v -0.6872622 -0.4309386 2.116875
v -2.030696 -1.174373 2.750734
v -0.5344865 -0.6075963 2.126046
v -2.030696 -1.174373 2.750734
v -2.709466 -1.308466 3.199426
v -2.003538 -1.153205 2.857601
v -2.089551 -0.9795047 2.846043
v -2.709466 -1.308466 3.199426
v -2.116712 -1.000676 2.739177
v -2.116712 -1.000676 2.739177
v -2.709466 -1.308466 3.199426
v -2.030696 -1.174373 2.750734
v -0.3056242 0.7596352 2.322839
v -0.3927366 -0.4057534 1.996823
v -0.08653596 0.6645426 2.308598
v -0.3927366 -0.4057534 1.996823
v -0.3056242 0.7596352 2.322839
v -0.677019 -0.3609661 2.008125
v -0.08653596 0.6645426 2.308598
v 0.1460959 1.307534 3.142406
v -0.3056242 0.7596352 2.322839
v -0.3056242 0.7596352 2.322839
v 0.1460959 1.307534 3.142406
v -0.3143519 0.7181095 2.45452
v -0.3143519 0.7181095 2.45452
v 0.1460959 1.307534 3.142406
v -0.2091716 0.6498004 2.513241
v -0.2091716 0.6498004 2.513241
v 0.1460959 1.307534 3.142406
v -0.09526241 0.6230155 2.440279
v 0.236348 -2.033751 3.316548
v 0.4636491 -1.123098 3.420956
v 0.5894343 -1.644961 3.480939
v 0.4636491 -1.123098 3.420956
v 0.236348 -2.033751 3.316548
v 0.02514232 -1.123946 3.231409
v 0.3523201 -2.311237E-08 1.089716E-15
v -0.3794143 -0.2444695 1.406414
v 0.1761604 0.3051182 -3.637292E-08
v -0.2440781 -0.4699062 1.379011
v -0.1761596 0.3051182 -3.637292E-08
v -0.3794143 -0.2444695 1.406414
v -0.6431516 -0.2497634 1.421011
v 0.1761604 0.3051182 -3.637292E-08
v -0.3523201 2.311237E-08 4.761458E-15
v -0.6431516 -0.2497634 1.421011
v -0.7715555 -0.4804936 1.408205
v -0.1761596 0.3051182 -3.637292E-08
v -0.1761604 -0.3051182 3.637292E-08
v -0.7715555 -0.4804936 1.408205
v -0.6362205 -0.7059288 1.380802
v -0.3523201 2.311237E-08 4.761458E-15
v -0.1761604 -0.3051182 3.637292E-08
v -0.3724832 -0.700635 1.366205
v 0.1761596 -0.3051182 3.637292E-08
v -0.6362205 -0.7059288 1.380802
v 0.1761596 -0.3051182 3.637292E-08
v -0.2440781 -0.4699062 1.379011
v 0.3523201 -2.311237E-08 1.089716E-15
v -0.3724832 -0.700635 1.366205
v -0.4711716 -0.3458582 3.217022
v -0.2440781 -0.4699062 1.379011
v -0.3600463 -0.5347157 3.225298
v -0.3794143 -0.2444695 1.406414
v -0.6431516 -0.2497634 1.421011
v -0.4711716 -0.3458582 3.217022
v -0.6899579 -0.3465262 3.240083
v -0.3794143 -0.2444695 1.406414
v -0.6899579 -0.3465262 3.240083
v -0.7715555 -0.4804936 1.408205
v -0.6431516 -0.2497634 1.421011
v -0.797619 -0.5360516 3.27142
v -0.2951443 0.2124279 5.118436
v -0.3820635 0.05955994 5.133761
v -0.6362205 -0.7059288 1.380802
v -0.797619 -0.5360516 3.27142
v -0.6864937 -0.7249091 3.279696
v -0.7715555 -0.4804936 1.408205
v -0.4677059 -0.7242399 3.256635
v -0.6362205 -0.7059288 1.380802
v -0.6864937 -0.7249091 3.279696
v -0.3724832 -0.700635 1.366205
v -0.3724832 -0.700635 1.366205
v -0.3600463 -0.5347157 3.225298
v -0.2440781 -0.4699062 1.379011
v -0.4677059 -0.7242399 3.256635
v -0.03439208 0.05956051 5.072458
v -0.1213101 -0.09330887 5.087783
v -0.1213099 0.2124283 5.087783
v -0.3600463 -0.5347157 3.225298
v -0.03439208 0.05956051 5.072458
v -0.4711716 -0.3458582 3.217022
v -0.6899579 -0.3465262 3.240083
v -0.1213099 0.2124283 5.087783
v -0.2951443 0.2124279 5.118436
v -0.4711716 -0.3458582 3.217022
v -0.2951444 -0.09330924 5.118436
v -0.797619 -0.5360516 3.27142
v -0.3820635 0.05955994 5.133761
v -0.6864937 -0.7249091 3.279696
v -0.1213101 -0.09330887 5.087783
v -0.6864937 -0.7249091 3.279696
v -0.2951444 -0.09330924 5.118436
v -0.4677059 -0.7242399 3.256635
v 0.4705263 -0.9927483 2.322839
v -0.4178754 -0.4035743 2.169855
v -0.3802466 -0.4090933 2.008125
v 0.4308772 -0.9776291 2.45452
v 1.016738 -1.427727 3.076959
v -0.481053 -0.5377007 2.24507
v 0.4308772 -0.9776291 2.45452
v 0.3469503 -1.070825 2.513241
v -0.4178754 -0.4035743 2.169855
v 0.3423192 -1.194257 2.308598
v -0.5066004 -0.6773449 2.158554
v 0.30267 -1.179138 2.440279
v -0.4689701 -0.6828626 1.996823
v -0.5148399 -0.5837916 2.2573
v -2.030696 -1.174373 2.750734
v -2.003538 -1.153205 2.857601
v -0.5344865 -0.6075963 2.126046
v -0.5814044 -0.4835591 2.318341
v -2.003538 -1.153205 2.857601
v -2.032965 -1.055769 2.905256
v -2.709466 -1.308466 3.199426
v -0.6676169 -0.4071325 2.248128
v -2.032965 -1.055769 2.905256
v -2.089551 -0.9795047 2.846043
v -2.709466 -1.308466 3.199426
v -2.116712 -1.000676 2.739177
v -0.6676169 -0.4071325 2.248128
v -2.089551 -0.9795047 2.846043
v -0.6872622 -0.4309386 2.116875
v -0.6765807 -0.3989955 2.169855
v -0.3056242 0.7596352 2.322839
v -0.3143519 0.7181095 2.45452
v -0.677019 -0.3609661 2.008125
v -0.5342209 -0.440403 2.24507
v -0.3143519 0.7181095 2.45452
v -0.2091716 0.6498004 2.513241
v -0.6765807 -0.3989955 2.169855
v -0.3922983 -0.4437827 2.158554
v -0.2091716 0.6498004 2.513241
v -0.09526241 0.6230155 2.440279
v -0.5342209 -0.440403 2.24507
v -0.3922983 -0.4437827 2.158554
v -0.08653596 0.6645426 2.308598
v -0.3927366 -0.4057534 1.996823
v -0.09526241 0.6230155 2.440279
v 0.1460959 1.307534 3.142406
v 0.767266 -0.5090716 3.623911
v 0.402173 0.9588224 3.901278
v 0.1087585 0.5293696 3.645487
v 1.334645 -0.5133017 3.934943
v 0.1087585 0.5293696 3.645487
v -1.462772 0.9630533 3.962403
v -1.208259 0.52937 3.645487
v 0.402173 0.9588224 3.901278
v -1.208259 0.52937 3.645487
v -2.395244 -0.50484 4.057191
v -1.866767 -0.5090723 3.623911
v -1.462772 0.9630533 3.962403
v -1.866767 -0.5090723 3.623911
v -1.462772 -1.976964 4.090855
v -1.208258 -1.547512 3.602334
v -2.395244 -0.50484 4.057191
v -1.208258 -1.547512 3.602334
v 0.4021728 -1.981195 4.029731
v 0.1087564 -1.547513 3.602334
v -1.462772 -1.976964 4.090855
v 0.1087564 -1.547513 3.602334
v 1.334645 -0.5133017 3.934943
v 0.767266 -0.5090716 3.623911
v 0.4021728 -1.981195 4.029731
v 1.334645 -0.5133017 3.934943
v -0.005097892 0.4386729 4.207655
v 0.402173 0.9588224 3.901278
v 0.5579281 -0.4507456 4.239138
v 0.402173 0.9588224 3.901278
v -1.131151 0.4440392 4.259824
v -1.462772 0.9630533 3.962403
v -0.005097892 0.4386729 4.207655
v -1.462772 0.9630533 3.962403
v -1.694177 -0.4400172 4.343475
v -2.395244 -0.50484 4.057191
v -1.131151 0.4440392 4.259824
v -2.395244 -0.50484 4.057191
v -1.13115 -1.329434 4.374959
v -1.462772 -1.976964 4.090855
v -1.694177 -0.4400172 4.343475
v -1.462772 -1.976964 4.090855
v -0.0050991 -1.334801 4.32279
v 0.4021728 -1.981195 4.029731
v -1.13115 -1.329434 4.374959
v 0.4021728 -1.981195 4.029731
v 0.5579281 -0.4507456 4.239138
v 1.334645 -0.5133017 3.934943
v -0.0050991 -1.334801 4.32279
v 0.1087564 -1.547513 3.602334
v -1.866767 -0.5090723 3.623911
v -1.208258 -1.547512 3.602334
v 0.767266 -0.5090716 3.623911
v -1.208259 0.52937 3.645487
v 0.1087585 0.5293696 3.645487
v 0.5579281 -0.4507456 4.239138
v 0.2171391 0.7188606 4.530315
v -0.005097892 0.4386729 4.207655
v 0.9452465 -0.4128703 4.608937
v -0.005097892 0.4386729 4.207655
v -1.239073 0.7306232 4.603034
v -1.131151 0.4440392 4.259824
v 0.2171391 0.7188606 4.530315
v -1.131151 0.4440392 4.259824
v -1.967181 -0.3893422 4.754375
v -1.694177 -0.4400172 4.343475
v -1.239073 0.7306232 4.603034
v -1.694177 -0.4400172 4.343475
v -1.239073 -1.521073 4.832997
v -1.13115 -1.329434 4.374959
v -1.967181 -0.3893422 4.754375
v -1.13115 -1.329434 4.374959
v 0.2171404 -1.532837 4.760278
v -0.0050991 -1.334801 4.32279
v -1.239073 -1.521073 4.832997
v -0.0050991 -1.334801 4.32279
v 0.9452465 -0.4128703 4.608937
v 0.5579281 -0.4507456 4.239138
v 0.2171404 -1.532837 4.760278
v 0.2171391 0.7188606 4.530315
v 0.4765622 -0.3678875 4.887011
v 0.06396549 0.2919448 4.860178
v 0.9452465 -0.4128703 4.608937
v -1.239073 0.7306232 4.603034
v 0.06396549 0.2919448 4.860178
v -0.7612288 0.3048517 4.939966
v 0.2171391 0.7188606 4.530315
v -1.967181 -0.3893422 4.754375
v -0.7612288 0.3048517 4.939966
v -1.173825 -0.3420723 5.046589
v -1.239073 0.7306232 4.603034
v -1.967181 -0.3893422 4.754375
v -0.761228 -1.001902 5.073423
v -1.239073 -1.521073 4.832997
v -1.173825 -0.3420723 5.046589
v -1.239073 -1.521073 4.832997
v 0.06396484 -1.01481 4.993634
v 0.2171404 -1.532837 4.760278
v -0.761228 -1.001902 5.073423
v 0.9452465 -0.4128703 4.608937
v 0.06396484 -1.01481 4.993634
v 0.4765622 -0.3678875 4.887011
v 0.2171404 -1.532837 4.760278
v -0.4083408 -0.597721 5.434424
v 0.1830876 -0.2978027 5.320251
v -0.01405497 -0.6065845 5.379634
v -0.6054828 -0.280077 5.429831
v -0.01405447 0.01984127 5.315658
v -0.4083403 0.0287048 5.370448
v 0.2097315 0.4376425 5.058581
v 0.1830876 -0.2978027 5.320251
v -0.01405447 0.01984127 5.315658
v 0.6911612 -0.3373138 5.076013
v -0.7531282 0.4572856 5.18
v -0.01405447 0.01984127 5.315658
v -0.4083403 0.0287048 5.370448
v 0.2097315 0.4376425 5.058581
v -1.234557 -0.298029 5.318851
v -0.4083403 0.0287048 5.370448
v -0.6054828 -0.280077 5.429831
v -0.7531282 0.4572856 5.18
v -0.4083408 -0.597721 5.434424
v -1.234557 -0.298029 5.318851
v -0.6054828 -0.280077 5.429831
v -0.7531274 -1.072985 5.336284
v -0.01405497 -0.6065845 5.379634
v -0.7531274 -1.072985 5.336284
v -0.4083408 -0.597721 5.434424
v 0.2097311 -1.092627 5.214865
v 0.1830876 -0.2978027 5.320251
v 0.2097311 -1.092627 5.214865
v -0.01405497 -0.6065845 5.379634
v 0.6911612 -0.3373138 5.076013
v 0.06396549 0.2919448 4.860178
v 0.6911612 -0.3373138 5.076013
v 0.2097315 0.4376425 5.058581
v 0.4765622 -0.3678875 4.887011
v -0.7612288 0.3048517 4.939966
v 0.2097315 0.4376425 5.058581
v -0.7531282 0.4572856 5.18
v 0.06396549 0.2919448 4.860178
v -1.173825 -0.3420723 5.046589
v -0.7531282 0.4572856 5.18
v -1.234557 -0.298029 5.318851
v -0.7612288 0.3048517 4.939966
v -0.7531274 -1.072985 5.336284
v -1.173825 -0.3420723 5.046589
v -1.234557 -0.298029 5.318851
v -0.761228 -1.001902 5.073423
v 0.2097311 -1.092627 5.214865
v -0.761228 -1.001902 5.073423
v -0.7531274 -1.072985 5.336284
v 0.06396484 -1.01481 4.993634
v 0.6911612 -0.3373138 5.076013
v 0.06396484 -1.01481 4.993634
v 0.2097311 -1.092627 5.214865
v 0.4765622 -0.3678875 4.887011
v 1.593859 -0.8388985 2.680583
v 0.6907514 -0.2526533 2.836622
v 0.7649895 -0.6080538 2.692721
v 1.865287 -0.5803871 2.855561
v 0.7649895 -0.6080538 2.692721
v -0.1966016 -1.107337 2.871009
v 0.1398274 -1.213162 2.692722
v 0.6907514 -0.2526533 2.836622
v 0.1398274 -1.213162 2.692722
v 0.09057815 -2.289754 2.924334
v 0.3435378 -2.049116 2.680583
v -0.1966016 -1.107337 2.871009
v 0.3435378 -2.049116 2.680583
v 1.265111 -2.617488 2.943272
v 1.172409 -2.279962 2.668445
v 0.09057815 -2.289754 2.924334
v 1.172409 -2.279962 2.668445
v 2.152464 -1.762804 2.908885
v 1.79757 -1.674852 2.668445
v 1.265111 -2.617488 2.943272
v 1.79757 -1.674852 2.668445
v 1.865287 -0.5803871 2.855561
v 1.593859 -0.8388985 2.680583
v 2.152464 -1.762804 2.908885
v 1.865287 -0.5803871 2.855561
v 0.7560357 -0.7069524 3.00898
v 0.6907514 -0.2526533 2.836622
v 1.465492 -0.9051211 3.026691
v 0.6907514 -0.2526533 2.836622
v 0.218855 -1.221566 3.038329
v -0.1966016 -1.107337 2.871009
v 0.7560357 -0.7069524 3.00898
v -0.1966016 -1.107337 2.871009
v 0.3911296 -1.93435 3.085389
v 0.09057815 -2.289754 2.924334
v 0.218855 -1.221566 3.038329
v 0.09057815 -2.289754 2.924334
v 1.100588 -2.132517 3.1031
v 1.265111 -2.617488 2.943272
v 0.3911296 -1.93435 3.085389
v 1.265111 -2.617488 2.943272
v 1.637769 -1.617904 3.073752
v 2.152464 -1.762804 2.908885
v 1.100588 -2.132517 3.1031
v 2.152464 -1.762804 2.908885
v 1.465492 -0.9051211 3.026691
v 1.865287 -0.5803871 2.855561
v 1.637769 -1.617904 3.073752
v 1.79757 -1.674852 2.668445
v 0.3435378 -2.049116 2.680583
v 1.172409 -2.279962 2.668445
v 1.593859 -0.8388985 2.680583
v 0.1398274 -1.213162 2.692722
v 0.7649895 -0.6080538 2.692721
v 1.465492 -0.9051211 3.026691
v 0.7222247 -0.4609237 3.190499
v 0.7560357 -0.7069524 3.00898
v 1.630514 -0.7077114 3.234729
v 0.7560357 -0.7069524 3.00898
v 0.02514232 -1.123946 3.231409
v 0.218855 -1.221566 3.038329
v 0.7222247 -0.4609237 3.190499
v 0.218855 -1.221566 3.038329
v 0.236348 -2.033751 3.316548
v 0.3911296 -1.93435 3.085389
v 0.02514232 -1.123946 3.231409
v 0.3911296 -1.93435 3.085389
v 1.144637 -2.280539 3.360779
v 1.100588 -2.132517 3.1031
v 0.236348 -2.033751 3.316548
v 1.100588 -2.132517 3.1031
v 1.84172 -1.617517 3.31987
v 1.637769 -1.617904 3.073752
v 1.144637 -2.280539 3.360779
v 1.637769 -1.617904 3.073752
v 1.630514 -0.7077114 3.234729
v 1.465492 -0.9051211 3.026691
v 1.84172 -1.617517 3.31987
v 0.7222247 -0.4609237 3.190499
v 1.385674 -0.899945 3.391165
v 0.8617697 -0.7505893 3.37607
v 1.630514 -0.7077114 3.234729
v 0.02514232 -1.123946 3.231409
v 0.8617697 -0.7505893 3.37607
v 0.4636491 -1.123098 3.420956
v 0.7222247 -0.4609237 3.190499
v 0.236348 -2.033751 3.316548
v 1.113339 -1.794317 3.496035
v 1.144637 -2.280539 3.360779
v 0.5894343 -1.644961 3.480939
v 1.144637 -2.280539 3.360779
v 1.511459 -1.421808 3.451148
v 1.84172 -1.617517 3.31987
v 1.113339 -1.794317 3.496035
v 1.630514 -0.7077114 3.234729
v 1.511459 -1.421808 3.451148
v 1.385674 -0.899945 3.391165
v 1.84172 -1.617517 3.31987
v 1.385674 -0.899945 3.391165
v 0.4636491 -1.123098 3.420956
v 0.8617697 -0.7505893 3.37607
v 0.5894343 -1.644961 3.480939
v 1.511459 -1.421808 3.451148
v 1.113339 -1.794317 3.496035
v -1.851508 -1.80924 2.975711
v -1.422367 -0.8414587 3.086738
v -1.755924 -0.9686582 2.984348
v -1.558411 -2.032685 3.100213
v -1.755924 -0.9686582 2.984348
v -2.389835 -0.112453 3.111205
v -2.440406 -0.4555168 2.984348
v -1.422367 -0.8414587 3.086738
v -2.440406 -0.4555168 2.984348
v -3.493343 -0.5746725 3.149148
v -3.22047 -0.7829599 2.975711
v -2.389835 -0.112453 3.111205
v -3.22047 -0.7829599 2.975711
v -3.629389 -1.765897 3.162623
v -3.31605 -1.623541 2.967075
v -3.493343 -0.5746725 3.149148
v -3.31605 -1.623541 2.967075
v -2.661922 -2.494902 3.138156
v -2.631569 -2.13668 2.967075
v -3.629389 -1.765897 3.162623
v -2.631569 -2.13668 2.967075
v -1.558411 -2.032685 3.100213
v -1.851508 -1.80924 2.975711
v -2.661922 -2.494902 3.138156
v -1.558411 -2.032685 3.100213
v -1.853337 -0.9753035 3.209376
v -1.422367 -0.8414587 3.086738
v -1.935714 -1.694876 3.221979
v -1.422367 -0.8414587 3.086738
v -2.436308 -0.5335512 3.230258
v -2.389835 -0.112453 3.111205
v -1.853337 -0.9753035 3.209376
v -2.389835 -0.112453 3.111205
v -3.101653 -0.8113685 3.263743
v -3.493343 -0.5746725 3.149148
v -2.436308 -0.5335512 3.230258
v -3.493343 -0.5746725 3.149148
v -3.184031 -1.530939 3.276346
v -3.629389 -1.765897 3.162623
v -3.101653 -0.8113685 3.263743
v -3.629389 -1.765897 3.162623
v -2.60106 -1.972692 3.255463
v -2.661922 -2.494902 3.138156
v -3.184031 -1.530939 3.276346
v -2.661922 -2.494902 3.138156
v -1.935714 -1.694876 3.221979
v -1.558411 -2.032685 3.100213
v -2.60106 -1.972692 3.255463
v -2.631569 -2.13668 2.967075
v -3.22047 -0.7829599 2.975711
v -3.31605 -1.623541 2.967075
v -1.851508 -1.80924 2.975711
v -2.440406 -0.4555168 2.984348
v -1.755924 -0.9686582 2.984348
v -1.935714 -1.694876 3.221979
v -1.619704 -0.9043175 3.338532
v -1.853337 -0.9753035 3.209376
v -1.718449 -1.824484 3.370004
v -1.853337 -0.9753035 3.209376
v -2.371568 -0.3303264 3.367641
v -2.436308 -0.5335512 3.230258
v -1.619704 -0.9043175 3.338532
v -2.436308 -0.5335512 3.230258
v -3.222176 -0.6765014 3.428221
v -3.101653 -0.8113685 3.263743
v -2.371568 -0.3303264 3.367641
v -3.101653 -0.8113685 3.263743
v -3.320917 -1.596665 3.459692
v -3.184031 -1.530939 3.276346
v -3.222176 -0.6765014 3.428221
v -3.184031 -1.530939 3.276346
v -2.569053 -2.170656 3.430584
v -2.60106 -1.972692 3.255463
v -3.320917 -1.596665 3.459692
v -2.60106 -1.972692 3.255463
v -1.718449 -1.824484 3.370004
v -1.935714 -1.694876 3.221979
v -2.569053 -2.170656 3.430584
v -1.619704 -0.9043175 3.338532
v -1.943068 -1.616574 3.481313
v -1.879306 -1.084733 3.470572
v -1.718449 -1.824484 3.370004
v -2.371568 -0.3303264 3.367641
v -1.879306 -1.084733 3.470572
v -2.302737 -0.7559592 3.50251
v -1.619704 -0.9043175 3.338532
v -3.222176 -0.6765014 3.428221
v -2.302737 -0.7559592 3.50251
v -2.78992 -0.9590259 3.54519
v -2.371568 -0.3303264 3.367641
v -3.222176 -0.6765014 3.428221
v -2.853681 -1.490869 3.555931
v -3.320917 -1.596665 3.459692
v -2.78992 -0.9590259 3.54519
v -3.320917 -1.596665 3.459692
v -2.430256 -1.819642 3.523993
v -2.569053 -2.170656 3.430584
v -2.853681 -1.490869 3.555931
v -1.718449 -1.824484 3.370004
v -2.430256 -1.819642 3.523993
v -1.943068 -1.616574 3.481313
v -2.569053 -2.170656 3.430584
v -1.943068 -1.616574 3.481313
v -2.302737 -0.7559592 3.50251
v -1.879306 -1.084733 3.470572
v -2.78992 -0.9590259 3.54519
v -2.430256 -1.819642 3.523993
v -2.853681 -1.490869 3.555931
v 0.6152729 0.8528336 2.936418
v 0.9478757 1.602907 3.071658
v 0.6893537 1.50432 2.946939
v 0.8424345 0.6796538 3.088072
v 0.6893537 1.50432 2.946939
v 0.1980457 2.167917 3.101461
v 0.1588522 1.902027 2.946939
v 0.9478757 1.602907 3.071658
v 0.1588522 1.902027 2.946939
v -0.65722 1.809677 3.147678
v -0.4457302 1.648245 2.936418
v 0.1980457 2.167917 3.101461
v -0.4457302 1.648245 2.936418
v -0.7626625 0.8864253 3.164092
v -0.519811 0.9967588 2.925898
v -0.65722 1.809677 3.147678
v -0.519811 0.9967588 2.925898
v -0.0128339 0.3214137 3.134289
v 0.01069043 0.5990515 2.925898
v -0.7626625 0.8864253 3.164092
v 0.01069043 0.5990515 2.925898
v 0.8424345 0.6796538 3.088072
v 0.6152729 0.8528336 2.936418
v -0.0128339 0.3214137 3.134289
v 0.8424345 0.6796538 3.088072
v 0.6138558 1.49917 3.221041
v 0.9478757 1.602907 3.071658
v 0.55001 0.9414719 3.236392
v 0.9478757 1.602907 3.071658
v 0.1620281 1.841549 3.246478
v 0.1980457 2.167917 3.101461
v 0.6138558 1.49917 3.221041
v 0.1980457 2.167917 3.101461
v -0.3536456 1.626228 3.287265
v -0.65722 1.809677 3.147678
v 0.1620281 1.841549 3.246478
v -0.65722 1.809677 3.147678
v -0.4174902 1.068528 3.302616
v -0.7626625 0.8864253 3.164092
v -0.3536456 1.626228 3.287265
v -0.7626625 0.8864253 3.164092
v 0.0343376 0.7261502 3.27718
v -0.0128339 0.3214137 3.134289
v -0.4174902 1.068528 3.302616
v -0.0128339 0.3214137 3.134289
v 0.55001 0.9414719 3.236392
v 0.8424345 0.6796538 3.088072
v 0.0343376 0.7261502 3.27718
v 0.01069043 0.5990515 2.925898
v -0.4457302 1.648245 2.936418
v -0.519811 0.9967588 2.925898
v 0.6152729 0.8528336 2.936418
v 0.1588522 1.902027 2.946939
v 0.6893537 1.50432 2.946939
v 0.0343376 0.7261502 3.27718
v 0.6138558 1.49917 3.221041
v 0.55001 0.9414719 3.236392
v 0.1620281 1.841549 3.246478
v -0.4174902 1.068528 3.302616
v -0.3536456 1.626228 3.287265

vn -0.1401367 -0.949707 -0.2805176
vn -0.1401367 -0.949707 -0.2805176
vn -0.1401367 -0.949707 -0.2805176
vn -0.1915283 -0.9492188 -0.2502441
vn -0.1915283 -0.9492188 -0.2502441
vn -0.1915283 -0.9492188 -0.2502441
vn 0.5927734 0.8022461 0.0690918
vn 0.5927734 0.8022461 0.0690918
vn 0.5927734 0.8022461 0.0690918
vn 0.6318359 0.7739258 0.03994751
vn 0.6318359 0.7739258 0.03994751
vn 0.6318359 0.7739258 0.03994751
vn -0.2434082 -0.6748047 -0.6967773
vn -0.2434082 -0.6748047 -0.6967773
vn -0.2434082 -0.6748047 -0.6967773
vn -0.2575684 0.7075195 0.6577148
vn -0.2575684 0.7075195 0.6577148
vn -0.2575684 0.7075195 0.6577148
vn 0.6420898 0.6992188 0.3139648
vn 0.6420898 0.6992188 0.3139648
vn 0.6420898 0.6992188 0.3139648
vn 0.8740234 0.007423401 -0.4855957
vn 0.8740234 0.007423401 -0.4855957
vn 0.8740234 0.007423401 -0.4855957
vn -0.1738281 0.8666992 -0.4675293
vn -0.1738281 0.8666992 -0.4675293
vn -0.1738281 0.8666992 -0.4675293
vn -0.4716797 0.7241211 0.5029297
vn -0.4716797 0.7241211 0.5029297
vn -0.4716797 0.7241211 0.5029297
vn 0.3803711 -0.9238281 0.0453186
vn 0.3803711 -0.9238281 0.0453186
vn 0.3803711 -0.9238281 0.0453186
vn 0.3952637 -0.9179688 -0.0322876
vn 0.3952637 -0.9179688 -0.0322876
vn 0.3952637 -0.9179688 -0.0322876
vn 0.4304199 0.1210327 -0.8945313
vn 0.4304199 0.1210327 -0.8945313
vn 0.4304199 0.1210327 -0.8945313
vn -0.2086182 -0.0480957 0.9770508
vn -0.2086182 -0.0480957 0.9770508
vn -0.2086182 -0.0480957 0.9770508
vn 0.5595703 -0.8227539 0.09967041
vn 0.5595703 -0.8227539 0.09967041
vn 0.5595703 -0.8227539 0.09967041
vn -0.2149658 -0.9628906 0.1643066
vn -0.2149658 -0.9628906 0.1643066
vn -0.2149658 -0.9628906 0.1643066
vn -0.1810303 -0.9628906 0.1990967
vn -0.1810303 -0.9628906 0.1990967
vn -0.1810303 -0.9628906 0.1990967
vn -0.6831055 -0.6342773 0.3623047
vn -0.6831055 -0.6342773 0.3623047
vn -0.6831055 -0.6342773 0.3623047
vn 0.2819824 0.1107788 0.953125
vn 0.2819824 0.1107788 0.953125
vn 0.2819824 0.1107788 0.953125
vn 0.6904297 0.7075195 0.1512451
vn 0.6904297 0.7075195 0.1512451
vn 0.6904297 0.7075195 0.1512451
vn 0.3103027 0.6362305 -0.706543
vn 0.3103027 0.6362305 -0.706543
vn 0.3103027 0.6362305 -0.706543
vn 0.3093262 0.9121094 0.2697754
vn 0.3061523 0.9145508 0.2646484
vn 0.3166504 0.9057617 0.2817383
vn 0.3061523 0.9145508 0.2646484
vn 0.3093262 0.9121094 0.2697754
vn 0.3017578 0.9179688 0.2578125
vn -0.8632813 0.4733887 -0.1740723
vn -0.8632813 0.4733887 -0.1740723
vn -0.8632813 0.4733887 -0.1740723
vn -0.8544922 0.4760742 -0.2076416
vn -0.6171875 0.3642578 0.6977539
vn -0.6171875 0.3642578 0.6977539
vn -0.6171875 0.3642578 0.6977539
vn -0.6157227 0.3640137 0.6987305
vn 0.3283691 -0.09185791 0.9399414
vn 0.3283691 -0.09185791 0.9399414
vn 0.3283691 -0.09185791 0.9399414
vn 0.317627 -0.08898926 0.9438477
vn 0.8945313 -0.3959961 0.206543
vn 0.8945313 -0.3959961 0.206543
vn 0.8945313 -0.3959961 0.206543
vn 0.9008789 -0.3937988 0.1816406
vn 0.6352539 -0.2780762 -0.7207031
vn 0.6352539 -0.2780762 -0.7207031
vn 0.6352539 -0.2780762 -0.7207031
vn 0.6323242 -0.2775879 -0.7231445
vn -0.3125 0.2000732 -0.9287109
vn -0.3125 0.2000732 -0.9287109
vn -0.3125 0.2000732 -0.9287109
vn -0.3178711 0.201416 -0.9267578
vn -0.9799805 0.07171631 -0.1864014
vn -0.9799805 0.07171631 -0.1864014
vn -0.9799805 0.07171631 -0.1864014
vn -0.9794922 0.07189941 -0.1877441
vn -0.6621094 0.05319214 0.7475586
vn -0.6621094 0.05319214 0.7475586
vn -0.6621094 0.05319214 0.7475586
vn -0.6474609 0.05505371 0.7602539
vn 0.3251953 0.002576828 0.9458008
vn 0.3251953 0.002576828 0.9458008
vn 0.3339844 0.003372192 0.9423828
vn 0.3251953 0.002576828 0.9458008
vn 0.3222656 0.03469849 0.9462891
vn 0.3222656 0.03469849 0.9462891
vn 0.9814453 -0.02787781 0.1884766
vn 0.9814453 -0.02787781 0.1884766
vn 0.9814453 -0.02787781 0.1884766
vn 0.9824219 -0.02728271 0.1835938
vn 0.659668 -0.009941101 -0.7514648
vn 0.659668 -0.009941101 -0.7514648
vn 0.659668 -0.009941101 -0.7514648
vn 0.6464844 -0.01150513 -0.7626953
vn -0.3305664 0.03781128 -0.9428711
vn -0.3305664 0.03781128 -0.9428711
vn -0.3320313 0.03768921 -0.9423828
vn -0.3305664 0.03781128 -0.9428711
vn -0.3256836 0.005664825 -0.9453125
vn -0.3256836 0.005664825 -0.9453125
vn -0.9379883 -0.3024902 -0.1687012
vn -0.9379883 -0.3024902 -0.1687012
vn -0.9379883 -0.3024902 -0.1687012
vn -0.9355469 -0.2966309 -0.1920166
vn -0.609375 -0.2800293 0.7416992
vn -0.5991211 -0.2758789 0.7514648
vn -0.5986328 -0.2753906 0.7524414
vn -0.6098633 -0.2802734 0.7412109
vn 0.9272461 0.3361816 0.1634521
vn 0.9272461 0.3361816 0.1634521
vn 0.9272461 0.3361816 0.1634521
vn 0.9228516 0.3347168 0.19104
vn 0.5864258 0.314209 -0.746582
vn 0.5981445 0.3190918 -0.7353516
vn 0.5854492 0.3137207 -0.7475586
vn 0.5986328 0.3193359 -0.734375
vn -0.9609375 0.06750488 0.2683105
vn -0.9609375 0.06750488 0.2683105
vn -0.9575195 0.09674072 0.2717285
vn -0.9609375 0.06750488 0.2683105
vn -0.965332 0.07299805 0.2514648
vn -0.3664551 0.862793 0.3481445
vn -0.3664551 0.862793 0.3481445
vn -0.3664551 0.862793 0.3481445
vn -0.3383789 0.8774414 0.3395996
vn 0.9511719 -0.05575562 -0.3044434
vn 0.9511719 -0.05575562 -0.3044434
vn 0.9511719 -0.05575562 -0.3044434
vn 0.9472656 -0.08862305 -0.3083496
vn 0.3186035 0.08410645 -0.9443359
vn 0.3186035 0.08410645 -0.9443359
vn 0.3186035 0.08410645 -0.9443359
vn 0.3112793 0.1072388 -0.9443359
vn -0.1553955 0.8476563 -0.5073242
vn -0.1553955 0.8476563 -0.5073242
vn -0.1553955 0.8476563 -0.5073242
vn -0.1713867 0.8417969 -0.5117188
vn -0.4716797 0.7646484 0.4387207
vn -0.4716797 0.7646484 0.4387207
vn -0.4716797 0.7646484 0.4387207
vn -0.4938965 0.7553711 0.4309082
vn -0.3032227 -0.07904053 0.949707
vn -0.3032227 -0.07904053 0.949707
vn -0.3032227 -0.07904053 0.949707
vn -0.2949219 -0.1036987 0.949707
vn 0.5161133 0.03173828 0.855957
vn 0.5161133 0.03173828 0.855957
vn 0.5161133 0.03173828 0.855957
vn 0.519043 0.07208252 0.8515625
vn 0.4238281 0.8554688 0.2976074
vn 0.4238281 0.8554688 0.2976074
vn 0.4238281 0.8554688 0.2976074
vn 0.4050293 0.8740234 0.2683105
vn -0.1094971 0.8256836 -0.5537109
vn -0.1094971 0.8256836 -0.5537109
vn -0.1094971 0.8256836 -0.5537109
vn -0.1359863 0.8056641 -0.5761719
vn -0.5493164 -0.01916504 -0.8354492
vn -0.5493164 -0.01916504 -0.8354492
vn -0.5532227 -0.06317139 -0.8305664
vn -0.5493164 -0.01916504 -0.8354492
vn -0.5141602 -0.03231812 -0.8569336
vn -0.5180664 -0.8500977 -0.09338379
vn -0.484375 -0.8720703 -0.07122803
vn -0.4633789 -0.8842773 -0.05786133
vn -0.5292969 -0.8422852 -0.100769
vn -0.3371582 -0.8442383 0.4165039
vn -0.3728027 -0.8198242 0.434082
vn -0.3901367 -0.8076172 0.442627
vn -0.3271484 -0.8505859 0.411377
vn 0.2027588 -0.7880859 0.5810547
vn 0.19104 -0.7451172 0.6391602
vn 0.1831055 -0.715332 0.6743164
vn 0.2071533 -0.8046875 0.5566406
vn 0.7036133 -0.7026367 0.1035767
vn 0.7197266 -0.684082 0.1177979
vn 0.730957 -0.6704102 0.1279297
vn 0.6962891 -0.7114258 0.09692383
vn 0.5019531 -0.6757813 -0.5400391
vn 0.4797363 -0.6972656 -0.5322266
vn 0.4641113 -0.7124023 -0.5263672
vn 0.5102539 -0.6669922 -0.5429688
vn -0.1469727 -0.7734375 -0.6166992
vn -0.1568604 -0.8149414 -0.5581055
vn -0.1639404 -0.8442383 -0.5107422
vn -0.1427002 -0.7553711 -0.6396484
vn -0.4448242 0.8945313 -0.04803467
vn -0.4384766 0.8974609 -0.05010986
vn -0.4338379 0.8994141 -0.05151367
vn -0.4533691 0.8901367 -0.04534912
vn -0.3544922 0.8691406 0.3452148
vn -0.3583984 0.8618164 0.3583984
vn -0.3598633 0.8588867 0.3640137
vn -0.3508301 0.875 0.333252
vn 0.06799316 0.8862305 0.4587402
vn 0.08233643 0.8774414 0.4726563
vn 0.08953857 0.8730469 0.4794922
vn 0.05432129 0.8935547 0.4453125
vn 0.4020996 0.9111328 0.08770752
vn 0.4091797 0.9086914 0.08514404
vn 0.4133301 0.9067383 0.08355713
vn 0.3942871 0.9145508 0.09057617
vn 0.2445068 0.9111328 -0.3312988
vn 0.2421875 0.9150391 -0.3225098
vn 0.2409668 0.9169922 -0.3173828
vn 0.2468262 0.9072266 -0.3405762
vn -0.1723633 0.9130859 -0.3691406
vn -0.1622314 0.9189453 -0.359375
vn -0.1544189 0.9233398 -0.3518066
vn -0.1854248 0.9052734 -0.3818359
vn -0.01374054 -1 0.01557922
vn -0.01374054 -1 0.01557922
vn -0.01374054 -1 0.01557922
vn -0.01374054 -1 0.01557922
vn -0.01374054 -1 0.01557922
vn -0.01374054 -1 0.01557922
vn -0.7006836 -0.6982422 -0.1447754
vn -0.6894531 -0.7114258 -0.1359863
vn -0.6826172 -0.7192383 -0.1307373
vn -0.7055664 -0.6933594 -0.1481934
vn -0.4851074 -0.6455078 0.5898438
vn -0.4851074 -0.6455078 0.5898438
vn -0.4851074 -0.6455078 0.5898438
vn -0.4853516 -0.6450195 0.5898438
vn 0.28125 -0.5556641 0.7822266
vn 0.2770996 -0.5444336 0.7919922
vn 0.2749023 -0.5380859 0.796875
vn 0.282959 -0.5600586 0.7788086
vn 0.8984375 -0.423584 0.1152954
vn 0.90625 -0.4033203 0.1268311
vn 0.9101563 -0.3916016 0.1334229
vn 0.8950195 -0.4318848 0.1105347
vn 0.6274414 -0.3933105 -0.671875
vn 0.6245117 -0.3991699 -0.6713867
vn 0.6225586 -0.4025879 -0.6713867
vn 0.628418 -0.3911133 -0.6723633
vn -0.1624756 -0.5737305 -0.8027344
vn -0.1671143 -0.5996094 -0.7827148
vn -0.1702881 -0.6181641 -0.7675781
vn -0.1601563 -0.5615234 -0.8120117
vn -0.6474609 0.7592773 -0.06939697
vn -0.6313477 0.7734375 -0.05557251
vn -0.6635742 0.7436523 -0.08361816
vn -0.6230469 0.7807617 -0.04855347
vn -0.4731445 0.7641602 0.4382324
vn -0.4477539 0.7851563 0.4279785
vn -0.5063477 0.7348633 0.4509277
vn -0.4309082 0.7983398 0.4211426
vn 0.02175903 0.8764648 0.4807129
vn 0.02320862 0.8793945 0.4753418
vn 0.01742554 0.8681641 0.4960938
vn 0.02581787 0.8842773 0.4658203
vn 0.3461914 0.9331055 0.09918213
vn 0.3413086 0.9345703 0.1015625
vn 0.3322754 0.9370117 0.105896
vn 0.361084 0.9282227 0.09210205
vn 0.2463379 0.8950195 -0.3723145
vn 0.2385254 0.9072266 -0.347168
vn 0.2325439 0.9155273 -0.328125
vn 0.2573242 0.8754883 -0.4086914
vn -0.2478027 0.8442383 -0.4748535
vn -0.2418213 0.8344727 -0.4951172
vn -0.2541504 0.8544922 -0.4533691
vn -0.2384033 0.8291016 -0.5058594
vn -0.1708984 0.9853516 -0.01655579
vn -0.1708984 0.9853516 -0.01655579
vn -0.1708984 0.9853516 -0.01655579
vn -0.1708984 0.9853516 -0.01655579
vn -0.1708984 0.9853516 -0.01655579
vn -0.1708984 0.9853516 -0.01655579
vn -0.5175781 0.8525391 -0.07299805
vn -0.5170898 0.8530273 -0.0723877
vn -0.5209961 0.8500977 -0.07727051
vn -0.5151367 0.8540039 -0.07012939
vn -0.4101563 0.8686523 0.2773438
vn -0.407959 0.8701172 0.2768555
vn -0.4213867 0.862793 0.2800293
vn -0.4025879 0.8730469 0.2756348
vn -0.06005859 0.9428711 0.328125
vn -0.05999756 0.9428711 0.3278809
vn -0.06246948 0.9404297 0.3342285
vn -0.05871582 0.9438477 0.3244629
vn 0.1824951 0.9819336 0.04742432
vn 0.1826172 0.9819336 0.04736328
vn 0.1884766 0.980957 0.04400635
vn 0.1793213 0.9824219 0.04922485
vn 0.09381104 0.9541016 -0.2851563
vn 0.09405518 0.953125 -0.2868652
vn 0.09576416 0.949707 -0.2983398
vn 0.09295654 0.9555664 -0.2792969
vn -0.2509766 0.8979492 -0.361084
vn -0.2514648 0.8979492 -0.3613281
vn -0.2558594 0.8955078 -0.364502
vn -0.2487793 0.8994141 -0.359375
vn -0.6889648 -0.7128906 -0.1313477
vn -0.6762695 -0.7241211 -0.1347656
vn -0.6923828 -0.7094727 -0.130249
vn -0.6708984 -0.7290039 -0.1363525
vn -0.519043 -0.5400391 0.6625977
vn -0.5131836 -0.5615234 0.6489258
vn -0.5205078 -0.5341797 0.6660156
vn -0.5102539 -0.5708008 0.6430664
vn 0.3056641 -0.2668457 0.9140625
vn 0.3037109 -0.2751465 0.9121094
vn 0.3063965 -0.2644043 0.9145508
vn 0.3029785 -0.2788086 0.9111328
vn 0.9804688 -0.1140137 0.1591797
vn 0.980957 -0.1054688 0.1622314
vn 0.9814453 -0.1030884 0.1630859
vn 0.9804688 -0.1174316 0.1578369
vn 0.6660156 -0.2939453 -0.6855469
vn 0.6748047 -0.2663574 -0.6879883
vn 0.6772461 -0.2592773 -0.6889648
vn 0.6621094 -0.3054199 -0.684082
vn -0.1341553 -0.6103516 -0.7807617
vn -0.1340332 -0.5957031 -0.7919922
vn -0.1339111 -0.5913086 -0.7954102
vn -0.1341553 -0.6166992 -0.7753906
vn -0.3911133 -0.8876953 0.2427979
vn -0.3520508 -0.90625 0.2347412
vn -0.329834 -0.9155273 0.2299805
vn -0.4025879 -0.8818359 0.2452393
vn 0.04098511 -0.8945313 0.4453125
vn 0.02920532 -0.8764648 0.4804688
vn 0.02319336 -0.8666992 0.4980469
vn 0.04431152 -0.8994141 0.4350586
vn 0.494873 -0.8383789 0.2276611
vn 0.5336914 -0.7993164 0.2768555
vn 0.5537109 -0.7758789 0.3029785
vn 0.4816895 -0.8505859 0.2113037
vn 0.5351563 -0.765625 -0.3571777
vn 0.5595703 -0.746582 -0.3598633
vn 0.5742188 -0.734375 -0.3613281
vn 0.5258789 -0.7724609 -0.355957
vn -0.01182556 -0.7583008 -0.6518555
vn -0.02185059 -0.777832 -0.628418
vn -0.02851868 -0.7900391 -0.6123047
vn -0.008148193 -0.7509766 -0.6601563
vn -0.4868164 -0.8251953 -0.2868652
vn -0.4475098 -0.8618164 -0.2387695
vn -0.4206543 -0.8833008 -0.2067871
vn -0.4997559 -0.8115234 -0.3029785
vn -0.3115234 0.9233398 0.2248535
vn -0.3078613 0.9257813 0.2191162
vn -0.3059082 0.9272461 0.2159424
vn -0.3154297 0.9204102 0.2312012
vn -0.01457977 0.9125977 0.4089355
vn -0.008995056 0.9077148 0.4199219
vn -0.006565094 0.9052734 0.4245605
vn -0.0196991 0.9169922 0.3986816
vn 0.3232422 0.9179688 0.2290039
vn 0.3427734 0.9111328 0.2296143
vn 0.3513184 0.9077148 0.2297363
vn 0.3061523 0.9243164 0.2285156
vn 0.3063965 0.9355469 -0.1757813
vn 0.3098145 0.9331055 -0.1818848
vn 0.3115234 0.9321289 -0.1851807
vn 0.3029785 0.9379883 -0.1697998
vn -0.046875 0.9423828 -0.3317871
vn -0.04299927 0.9448242 -0.3251953
vn -0.04058838 0.9462891 -0.3210449
vn -0.05111694 0.9394531 -0.3391113
vn -0.3320313 0.9360352 -0.1161499
vn -0.3183594 0.940918 -0.1160278
vn -0.309082 0.9438477 -0.1159058
vn -0.3483887 0.9301758 -0.116272
vn 0.0007605553 -1 0.0163269
vn 0.0007605553 -1 0.0163269
vn 0.0007605553 -1 0.0163269
vn 0.0007605553 -1 0.0163269
vn 0.0007605553 -1 0.0163269
vn 0.0007605553 -1 0.0163269
vn -0.5615234 -0.7587891 0.3303223
vn -0.5454102 -0.7714844 0.3276367
vn -0.5366211 -0.777832 0.3261719
vn -0.5664063 -0.7543945 0.3310547
vn 0.05685425 -0.7314453 0.6791992
vn 0.05697632 -0.7319336 0.6791992
vn 0.05700684 -0.7319336 0.6791992
vn 0.05682373 -0.7314453 0.6796875
vn 0.7119141 -0.625 0.3208008
vn 0.7177734 -0.6123047 0.331543
vn 0.7202148 -0.6069336 0.3359375
vn 0.7099609 -0.628418 0.3178711
vn 0.7158203 -0.4916992 -0.4960938
vn 0.7333984 -0.4663086 -0.494873
vn 0.7407227 -0.4550781 -0.4941406
vn 0.7104492 -0.4990234 -0.4963379
vn -0.01370239 -0.4772949 -0.878418
vn -0.01580811 -0.484375 -0.875
vn -0.01687622 -0.487793 -0.8725586
vn -0.01304626 -0.4753418 -0.8798828
vn -0.6459961 -0.644043 -0.409668
vn -0.6298828 -0.671875 -0.3891602
vn -0.6201172 -0.6879883 -0.3771973
vn -0.6513672 -0.6337891 -0.4169922
vn -0.4709473 0.8139648 0.3398438
vn -0.4482422 0.8276367 0.3374023
vn -0.4919434 0.8007813 0.342041
vn -0.4387207 0.8334961 0.3361816
vn -0.03475952 0.8330078 0.5522461
vn -0.02426147 0.8491211 0.5273438
vn -0.04925537 0.809082 0.5859375
vn -0.01727295 0.8598633 0.5107422
vn 0.2766113 0.9511719 -0.1375732
vn 0.2744141 0.9526367 -0.1324463
vn 0.2712402 0.9541016 -0.1251221
vn 0.2817383 0.9477539 -0.1496582
vn -0.07098389 0.9306641 -0.3583984
vn -0.06082153 0.9389648 -0.3388672
vn -0.0524292 0.9448242 -0.3227539
vn -0.08703613 0.9169922 -0.3891602
vn -0.4506836 0.8823242 -0.1361084
vn -0.4616699 0.8735352 -0.1535645
vn -0.440918 0.8896484 -0.1204834
vn -0.4665527 0.8696289 -0.161499
vn -0.0793457 0.9931641 0.08361816
vn -0.0793457 0.9931641 0.08361816
vn -0.0793457 0.9931641 0.08361816
vn -0.0793457 0.9931641 0.08361816
vn -0.0793457 0.9931641 0.08361816
vn -0.0793457 0.9931641 0.08361816
vn -0.2303467 -0.9360352 -0.2661133
vn -0.2171631 -0.9477539 -0.2346191
vn -0.2102051 -0.953125 -0.2180176
vn -0.2338867 -0.9326172 -0.2746582
vn -0.3291016 -0.9404297 0.08428955
vn -0.361084 -0.9291992 0.0802002
vn -0.3762207 -0.9233398 0.07818604
vn -0.3208008 -0.9433594 0.08532715
vn -0.1137085 -0.9057617 0.4086914
vn -0.1516113 -0.8774414 0.4553223
vn -0.1702881 -0.8618164 0.4777832
vn -0.1030273 -0.9125977 0.3952637
vn 0.3527832 -0.8549805 0.3803711
vn 0.3615723 -0.8398438 0.4047852
vn 0.3664551 -0.831543 0.4179688
vn 0.3498535 -0.859375 0.3730469
vn 0.5209961 -0.8486328 -0.09259033
vn 0.4946289 -0.8637695 -0.0970459
vn 0.479248 -0.8720703 -0.09960938
vn 0.5288086 -0.84375 -0.09118652
vn 0.1634521 -0.8950195 -0.4147949
vn 0.1269531 -0.9204102 -0.3696289
vn 0.1054077 -0.9335938 -0.3425293
vn 0.1743164 -0.8867188 -0.4279785
vn -0.2036133 0.9575195 -0.2042236
vn -0.1984863 0.9589844 -0.2020264
vn -0.1958008 0.9599609 -0.2008057
vn -0.2089844 0.9560547 -0.206665
vn -0.3061523 0.9511719 0.03768921
vn -0.3146973 0.9482422 0.04345703
vn -0.3181152 0.9467773 0.04577637
vn -0.2988281 0.9536133 0.03271484
vn -0.1318359 0.9545898 0.2670898
vn -0.130249 0.9501953 0.2832031
vn -0.1296387 0.9482422 0.2897949
vn -0.1330566 0.9580078 0.2539063
vn 0.1655273 0.9648438 0.2049561
vn 0.1707764 0.9633789 0.2070313
vn 0.1733398 0.9624023 0.2081299
vn 0.1606445 0.9658203 0.2030029
vn 0.2382813 0.9682617 -0.07342529
vn 0.2335205 0.9697266 -0.06958008
vn 0.2307129 0.9707031 -0.06738281
vn 0.2434082 0.9667969 -0.07745361
vn 0.04647827 0.9648438 -0.2583008
vn 0.0479126 0.9677734 -0.2474365
vn 0.04882813 0.9692383 -0.2404785
vn 0.0447998 0.9614258 -0.2709961
vn -0.01158142 -1 0.002407074
vn -0.01158142 -1 0.002407074
vn -0.01158142 -1 0.002407074
vn -0.01158142 -1 0.002407074
vn -0.01158142 -1 0.002408981
vn -0.01158142 -1 0.002408981
vn -0.3361816 -0.8491211 -0.4074707
vn -0.3295898 -0.8588867 -0.3916016
vn -0.3266602 -0.8632813 -0.3842773
vn -0.3378906 -0.8461914 -0.4116211
vn -0.5429688 -0.8291016 0.1339111
vn -0.5424805 -0.8291016 0.1340332
vn -0.5424805 -0.8291016 0.1340332
vn -0.5429688 -0.8291016 0.1339111
vn -0.175293 -0.7421875 0.6469727
vn -0.1854248 -0.7299805 0.6577148
vn -0.1887207 -0.7260742 0.6616211
vn -0.1730957 -0.7446289 0.6445313
vn 0.5454102 -0.6166992 0.5673828
vn 0.5527344 -0.5869141 0.5917969
vn 0.5546875 -0.5771484 0.5996094
vn 0.5439453 -0.6225586 0.5625
vn 0.7880859 -0.6000977 -0.1384277
vn 0.7817383 -0.6079102 -0.1395264
vn 0.7788086 -0.6113281 -0.1398926
vn 0.7895508 -0.5981445 -0.1381836
vn 0.2587891 -0.7568359 -0.6000977
vn 0.2392578 -0.7827148 -0.574707
vn 0.2296143 -0.7949219 -0.5620117
vn 0.2644043 -0.7495117 -0.6069336
vn -0.3239746 0.8881836 -0.3256836
vn -0.3166504 0.8979492 -0.3049316
vn -0.3300781 0.8793945 -0.3430176
vn -0.3139648 0.9013672 -0.2976074
vn -0.4321289 0.9008789 0.04119873
vn -0.4064941 0.9125977 0.04623413
vn -0.4643555 0.8847656 0.03466797
vn -0.3918457 0.918457 0.04907227
vn -0.1643066 0.9506836 0.2626953
vn -0.1604004 0.9526367 0.2590332
vn -0.1727295 0.9472656 0.2702637
vn -0.1556396 0.9545898 0.2548828
vn 0.1330566 0.9736328 0.1862793
vn 0.1287842 0.9741211 0.1850586
vn 0.1230469 0.9750977 0.1834717
vn 0.1425781 0.9716797 0.1889648
vn 0.2565918 0.9619141 -0.09484863
vn 0.2419434 0.9667969 -0.08435059
vn 0.2305908 0.9702148 -0.07629395
vn 0.2788086 0.9541016 -0.1109009
vn 0.0480957 0.9331055 -0.3566895
vn 0.06088257 0.9272461 -0.3691406
vn 0.03771973 0.9375 -0.3464355
vn 0.06610107 0.9248047 -0.3742676
vn -0.06903076 0.996582 -0.04730225
vn -0.06903076 0.996582 -0.04730225
vn -0.06903076 0.996582 -0.04730225
vn -0.06903076 0.996582 -0.04730225
vn -0.06903076 0.996582 -0.04730225
vn -0.06903076 0.996582 -0.04730225
vn -0.3325195 -0.8618164 -0.3835449
vn -0.3186035 -0.8828125 -0.3447266
vn -0.3100586 -0.8945313 -0.3217773
vn -0.3366699 -0.8544922 -0.3955078
vn -0.479248 -0.8691406 0.1223145
vn -0.5166016 -0.8486328 0.1152344
vn -0.5361328 -0.8369141 0.1113892
vn -0.4677734 -0.875 0.1243896
vn -0.1607666 -0.8037109 0.5732422
vn -0.2038574 -0.7607422 0.6162109
vn -0.2280273 -0.7338867 0.6396484
vn -0.1451416 -0.8178711 0.5566406
vn 0.4694824 -0.722168 0.5078125
vn 0.4743652 -0.7026367 0.5297852
vn 0.4775391 -0.6894531 0.5449219
vn 0.4672852 -0.7304688 0.498291
vn 0.6875 -0.715332 -0.1229248
vn 0.6645508 -0.7358398 -0.1297607
vn 0.6474609 -0.75 -0.1346436
vn 0.6967773 -0.7070313 -0.1201172
vn 0.223877 -0.7895508 -0.5712891
vn 0.1816406 -0.8305664 -0.5263672
vn 0.1519775 -0.855957 -0.4938965
vn 0.2390137 -0.7734375 -0.5869141
vn -0.3017578 0.9038086 -0.3029785
vn -0.2954102 0.9067383 -0.300293
vn -0.2915039 0.9086914 -0.2988281
vn -0.3093262 0.9003906 -0.3059082
vn -0.4509277 0.890625 0.05569458
vn -0.4611816 0.8852539 0.06347656
vn -0.4658203 0.8823242 0.06707764
vn -0.4411621 0.8959961 0.04827881
vn -0.1948242 0.8974609 0.3955078
vn -0.1916504 0.8891602 0.4157715
vn -0.1901855 0.8852539 0.4248047
vn -0.1975098 0.9047852 0.376709
vn 0.2479248 0.9189453 0.3068848
vn 0.255127 0.9160156 0.3093262
vn 0.2587891 0.9145508 0.310791
vn 0.2408447 0.9213867 0.3044434
vn 0.3583984 0.9272461 -0.1102905
vn 0.3520508 0.9301758 -0.1050415
vn 0.3481445 0.9321289 -0.1016846
vn 0.3652344 0.9233398 -0.116272
vn 0.06964111 0.9194336 -0.3864746
vn 0.07196045 0.925293 -0.3723145
vn 0.07354736 0.9291992 -0.3623047
vn 0.06677246 0.9121094 -0.4042969
vn -0.01820374 -1 0.00378418
vn -0.01820374 -1 0.00378418
vn -0.01820374 -1 0.00378418
vn -0.01820374 -1 0.00378418
vn -0.01820374 -1 0.00378418
vn -0.01820374 -1 0.00378418
vn -0.06591797 0.9970703 -0.03231812
vn -0.06591797 0.9970703 -0.03231812
vn -0.06591797 0.9970703 -0.03231812
vn -0.06591797 0.9970703 -0.03231812
vn -0.06591797 0.9970703 -0.03231812
vn -0.06591797 0.9970703 -0.03231812

vt 0.8266602 0.4970703
vt 0.7890625 0.4775391
vt 0.8217773 0.4960938
vt 0.7890625 0.4775391
vt 0.8266602 0.4970703
vt 0.7924805 0.4780273
vt 0.7875977 0.4870605
vt 0.8217773 0.5083008
vt 0.8198242 0.5039063
vt 0.8217773 0.5083008
vt 0.7875977 0.4870605
vt 0.7885742 0.4924316
vt 0.8217773 0.4960938
vt 0.8486328 0.5424805
vt 0.8266602 0.4970703
vt 0.8251953 0.5048828
vt 0.8486328 0.5424805
vt 0.8217773 0.5083008
vt 0.8217773 0.5083008
vt 0.8486328 0.5424805
vt 0.8198242 0.5039063
vt 0.8198242 0.5039063
vt 0.8486328 0.5424805
vt 0.8217773 0.4960938
vt 0.7275391 0.5292969
vt 0.784668 0.4968262
vt 0.7871094 0.4931641
vt 0.7265625 0.5317383
vt 0.78125 0.4924316
vt 0.784668 0.4968262
vt 0.7265625 0.5224609
vt 0.7802734 0.4846191
vt 0.7231445 0.5219727
vt 0.7802734 0.4846191
vt 0.7265625 0.5224609
vt 0.7866211 0.4851074
vt 0.7265625 0.5224609
vt 0.699707 0.5498047
vt 0.7275391 0.5292969
vt 0.7241211 0.5283203
vt 0.699707 0.5498047
vt 0.7231445 0.5219727
vt 0.7231445 0.5219727
vt 0.699707 0.5498047
vt 0.7265625 0.5224609
vt 0.7954102 0.4970703
vt 0.7919922 0.4775391
vt 0.8041992 0.4960938
vt 0.7919922 0.4775391
vt 0.7954102 0.4970703
vt 0.7807617 0.4780273
vt 0.8041992 0.4960938
vt 0.8134766 0.5463867
vt 0.7954102 0.4970703
vt 0.7954102 0.4970703
vt 0.8134766 0.5463867
vt 0.7954102 0.5048828
vt 0.7954102 0.5048828
vt 0.8134766 0.5463867
vt 0.7993164 0.5083008
vt 0.7993164 0.5083008
vt 0.8134766 0.5463867
vt 0.8041992 0.5039063
vt 0.1964111 0.5068359
vt 0.2272949 0.5209961
vt 0.2443848 0.5292969
vt 0.2272949 0.5209961
vt 0.1964111 0.5068359
vt 0.1676025 0.4951172
vt 0.8217773 0.357666
vt 0.7924805 0.4421387
vt 0.8149414 0.357666
vt 0.7978516 0.4404297
vt 0.8007813 0.357666
vt 0.7924805 0.4421387
vt 0.7822266 0.4428711
vt 0.8149414 0.357666
vt 0.7939453 0.357666
vt 0.7822266 0.4428711
vt 0.7768555 0.4421387
vt 0.8007813 0.357666
vt 0.8007813 0.357666
vt 0.7768555 0.4421387
vt 0.7822266 0.4404297
vt 0.7939453 0.357666
vt 0.8007813 0.357666
vt 0.7929688 0.4396973
vt 0.8149414 0.357666
vt 0.7822266 0.4404297
vt 0.8149414 0.357666
vt 0.7978516 0.4404297
vt 0.8217773 0.357666
vt 0.7929688 0.4396973
vt 0.7890625 0.5507813
vt 0.7978516 0.4404297
vt 0.793457 0.5512695
vt 0.7924805 0.4421387
vt 0.7822266 0.4428711
vt 0.7890625 0.5507813
vt 0.7802734 0.5522461
vt 0.7924805 0.4421387
vt 0.7802734 0.5522461
vt 0.7768555 0.4421387
vt 0.7822266 0.4428711
vt 0.7758789 0.5537109
vt 0.7958984 0.6645508
vt 0.7924805 0.6655273
vt 0.7822266 0.4404297
vt 0.7758789 0.5537109
vt 0.7802734 0.5541992
vt 0.7768555 0.4421387
vt 0.7890625 0.5532227
vt 0.7822266 0.4404297
vt 0.7802734 0.5541992
vt 0.7929688 0.4396973
vt 0.7929688 0.4396973
vt 0.793457 0.5512695
vt 0.7978516 0.4404297
vt 0.7890625 0.5532227
vt 0.8066406 0.6621094
vt 0.8032227 0.6630859
vt 0.8032227 0.6630859
vt 0.793457 0.5512695
vt 0.8066406 0.6621094
vt 0.7890625 0.5507813
vt 0.7802734 0.5522461
vt 0.8032227 0.6630859
vt 0.7958984 0.6645508
vt 0.7890625 0.5507813
vt 0.7958984 0.6645508
vt 0.7758789 0.5537109
vt 0.7924805 0.6655273
vt 0.7802734 0.5541992
vt 0.8032227 0.6630859
vt 0.7802734 0.5541992
vt 0.7958984 0.6645508
vt 0.7890625 0.5532227
vt 0.8266602 0.4970703
vt 0.7910156 0.487793
vt 0.7924805 0.4780273
vt 0.8251953 0.5048828
vt 0.8486328 0.5424805
vt 0.7885742 0.4924316
vt 0.8251953 0.5048828
vt 0.8217773 0.5083008
vt 0.7910156 0.487793
vt 0.8217773 0.4960938
vt 0.7875977 0.4870605
vt 0.8198242 0.5039063
vt 0.7890625 0.4775391
vt 0.7871094 0.4931641
vt 0.7265625 0.5224609
vt 0.7275391 0.5292969
vt 0.7866211 0.4851074
vt 0.784668 0.4968262
vt 0.7275391 0.5292969
vt 0.7265625 0.5317383
vt 0.699707 0.5498047
vt 0.78125 0.4924316
vt 0.7265625 0.5317383
vt 0.7241211 0.5283203
vt 0.699707 0.5498047
vt 0.7231445 0.5219727
vt 0.78125 0.4924316
vt 0.7241211 0.5283203
vt 0.7802734 0.4846191
vt 0.7807617 0.487793
vt 0.7954102 0.4970703
vt 0.7954102 0.5048828
vt 0.7807617 0.4780273
vt 0.7866211 0.4924316
vt 0.7954102 0.5048828
vt 0.7993164 0.5083008
vt 0.7807617 0.487793
vt 0.7919922 0.4870605
vt 0.7993164 0.5083008
vt 0.8041992 0.5039063
vt 0.7866211 0.4924316
vt 0.7919922 0.4870605
vt 0.8041992 0.4960938
vt 0.7919922 0.4775391
vt 0.8041992 0.5039063
vt 0.8134766 0.5463867
vt 0.4284668 0.1466064
vt 0.3933105 0.1734619
vt 0.3649902 0.1486816
vt 0.4833984 0.1766357
vt 0.3649902 0.1486816
vt 0.2131348 0.1793213
vt 0.2376709 0.1486816
vt 0.3933105 0.1734619
vt 0.2376709 0.1486816
vt 0.1229858 0.1884766
vt 0.1740723 0.1466064
vt 0.2131348 0.1793213
vt 0.1740723 0.1466064
vt 0.2131348 0.1917725
vt 0.2376709 0.1445313
vt 0.1229858 0.1884766
vt 0.2376709 0.1445313
vt 0.3933105 0.185791
vt 0.3649902 0.1445313
vt 0.2131348 0.1917725
vt 0.3649902 0.1445313
vt 0.4833984 0.1766357
vt 0.4284668 0.1466064
vt 0.3933105 0.185791
vt 0.4833984 0.1766357
vt 0.3540039 0.2030029
vt 0.3933105 0.1734619
vt 0.4084473 0.2060547
vt 0.3933105 0.1734619
vt 0.2451172 0.2080078
vt 0.2131348 0.1793213
vt 0.3540039 0.2030029
vt 0.2131348 0.1793213
vt 0.1906738 0.2161865
vt 0.1229858 0.1884766
vt 0.2451172 0.2080078
vt 0.1229858 0.1884766
vt 0.2451172 0.2192383
vt 0.2131348 0.1917725
vt 0.1906738 0.2161865
vt 0.2131348 0.1917725
vt 0.3540039 0.2141113
vt 0.3933105 0.185791
vt 0.2451172 0.2192383
vt 0.3933105 0.185791
vt 0.4084473 0.2060547
vt 0.4833984 0.1766357
vt 0.3540039 0.2141113
vt 0.3649902 0.1445313
vt 0.1740723 0.1466064
vt 0.2376709 0.1445313
vt 0.4284668 0.1466064
vt 0.2376709 0.1486816
vt 0.3649902 0.1486816
vt 0.4020996 0.4448242
vt 0.3557129 0.484375
vt 0.3254395 0.4406738
vt 0.4545898 0.4951172
vt 0.3254395 0.4406738
vt 0.1575928 0.4943848
vt 0.1722412 0.4477539
vt 0.3557129 0.484375
vt 0.1722412 0.4477539
vt 0.05856323 0.5151367
vt 0.09570313 0.4589844
vt 0.1575928 0.4943848
vt 0.09570313 0.4589844
vt 0.1575928 0.5258789
vt 0.1722412 0.4633789
vt 0.05856323 0.5151367
vt 0.1722412 0.4633789
vt 0.3557129 0.515625
vt 0.3254395 0.4562988
vt 0.1575928 0.5258789
vt 0.3254395 0.4562988
vt 0.4545898 0.4951172
vt 0.4020996 0.4448242
vt 0.3557129 0.515625
vt 0.3557129 0.484375
vt 0.3908691 0.5332031
vt 0.3347168 0.5292969
vt 0.4545898 0.4951172
vt 0.1575928 0.4943848
vt 0.3347168 0.5292969
vt 0.2225342 0.5400391
vt 0.3557129 0.484375
vt 0.05856323 0.5151367
vt 0.2225342 0.5400391
vt 0.1665039 0.5546875
vt 0.1575928 0.4943848
vt 0.05856323 0.5151367
vt 0.2225342 0.5585938
vt 0.1575928 0.5258789
vt 0.1665039 0.5546875
vt 0.1575928 0.5258789
vt 0.3347168 0.5473633
vt 0.3557129 0.515625
vt 0.2225342 0.5585938
vt 0.4545898 0.4951172
vt 0.3347168 0.5473633
vt 0.3908691 0.5332031
vt 0.3557129 0.515625
vt 0.2423096 0.8666992
vt 0.3605957 0.8442383
vt 0.3212891 0.855957
vt 0.2028809 0.8662109
vt 0.3212891 0.8432617
vt 0.2423096 0.8540039
vt 0.3659668 0.7915039
vt 0.3605957 0.8442383
vt 0.3212891 0.8432617
vt 0.4621582 0.7954102
vt 0.1734619 0.815918
vt 0.3212891 0.8432617
vt 0.2423096 0.8540039
vt 0.3659668 0.7915039
vt 0.07714844 0.84375
vt 0.2423096 0.8540039
vt 0.2028809 0.8662109
vt 0.1734619 0.815918
vt 0.2423096 0.8666992
vt 0.07714844 0.84375
vt 0.2028809 0.8662109
vt 0.1734619 0.847168
vt 0.3212891 0.855957
vt 0.1734619 0.847168
vt 0.2423096 0.8666992
vt 0.3659668 0.8227539
vt 0.3605957 0.8442383
vt 0.3659668 0.8227539
vt 0.3212891 0.855957
vt 0.4621582 0.7954102
vt 0.3369141 0.7519531
vt 0.4621582 0.7954102
vt 0.3659668 0.7915039
vt 0.4194336 0.7573242
vt 0.1717529 0.7680664
vt 0.3659668 0.7915039
vt 0.1734619 0.815918
vt 0.3369141 0.7519531
vt 0.08929443 0.7895508
vt 0.1734619 0.815918
vt 0.07714844 0.84375
vt 0.1717529 0.7680664
vt 0.1734619 0.847168
vt 0.08929443 0.7895508
vt 0.07714844 0.84375
vt 0.1717529 0.7949219
vt 0.3659668 0.8227539
vt 0.1717529 0.7949219
vt 0.1734619 0.847168
vt 0.3369141 0.7788086
vt 0.4621582 0.7954102
vt 0.3369141 0.7788086
vt 0.3659668 0.8227539
vt 0.4194336 0.7573242
vt 0.3896484 0.1519775
vt 0.253418 0.1755371
vt 0.2644043 0.1538086
vt 0.4306641 0.1783447
vt 0.2644043 0.1538086
vt 0.1193237 0.1806641
vt 0.170166 0.1538086
vt 0.253418 0.1755371
vt 0.170166 0.1538086
vt 0.1627197 0.1887207
vt 0.2009277 0.1519775
vt 0.1193237 0.1806641
vt 0.2009277 0.1519775
vt 0.3400879 0.1916504
vt 0.3259277 0.1501465
vt 0.1627197 0.1887207
vt 0.3259277 0.1501465
vt 0.4741211 0.1864014
vt 0.4204102 0.1501465
vt 0.3400879 0.1916504
vt 0.4204102 0.1501465
vt 0.4306641 0.1783447
vt 0.3896484 0.1519775
vt 0.4741211 0.1864014
vt 0.4306641 0.1783447
vt 0.2631836 0.2015381
vt 0.253418 0.1755371
vt 0.3703613 0.2042236
vt 0.253418 0.1755371
vt 0.1820068 0.2059326
vt 0.1193237 0.1806641
vt 0.2631836 0.2015381
vt 0.1193237 0.1806641
vt 0.2080078 0.2131348
vt 0.1627197 0.1887207
vt 0.1820068 0.2059326
vt 0.1627197 0.1887207
vt 0.3151855 0.2158203
vt 0.3400879 0.1916504
vt 0.2080078 0.2131348
vt 0.3400879 0.1916504
vt 0.3962402 0.2113037
vt 0.4741211 0.1864014
vt 0.3151855 0.2158203
vt 0.4741211 0.1864014
vt 0.3703613 0.2042236
vt 0.4306641 0.1783447
vt 0.3962402 0.2113037
vt 0.4204102 0.1501465
vt 0.2009277 0.1519775
vt 0.3259277 0.1501465
vt 0.3896484 0.1519775
vt 0.170166 0.1538086
vt 0.2644043 0.1538086
vt 0.3635254 0.4672852
vt 0.2624512 0.4897461
vt 0.2670898 0.4648438
vt 0.3859863 0.4956055
vt 0.2670898 0.4648438
vt 0.1676025 0.4951172
vt 0.1939697 0.4689941
vt 0.2624512 0.4897461
vt 0.1939697 0.4689941
vt 0.1964111 0.5068359
vt 0.2174072 0.4753418
vt 0.1676025 0.4951172
vt 0.2174072 0.4753418
vt 0.3198242 0.5126953
vt 0.3139648 0.4777832
vt 0.1964111 0.5068359
vt 0.3139648 0.4777832
vt 0.4147949 0.5073242
vt 0.3869629 0.4736328
vt 0.3198242 0.5126953
vt 0.3869629 0.4736328
vt 0.3859863 0.4956055
vt 0.3635254 0.4672852
vt 0.4147949 0.5073242
vt 0.2624512 0.4897461
vt 0.3527832 0.5170898
vt 0.2814941 0.5146484
vt 0.3859863 0.4956055
vt 0.1676025 0.4951172
vt 0.2814941 0.5146484
vt 0.2272949 0.5209961
vt 0.2624512 0.4897461
vt 0.1964111 0.5068359
vt 0.3156738 0.53125
vt 0.3198242 0.5126953
vt 0.2443848 0.5292969
vt 0.3198242 0.5126953
vt 0.369873 0.5249023
vt 0.4147949 0.5073242
vt 0.3156738 0.53125
vt 0.3859863 0.4956055
vt 0.369873 0.5249023
vt 0.3527832 0.5170898
vt 0.4147949 0.5073242
vt 0.3527832 0.5170898
vt 0.2272949 0.5209961
vt 0.2814941 0.5146484
vt 0.2443848 0.5292969
vt 0.369873 0.5249023
vt 0.3156738 0.53125
vt 0.3562012 0.1541748
vt 0.4208984 0.1708984
vt 0.3706055 0.1553955
vt 0.4003906 0.1729736
vt 0.3706055 0.1553955
vt 0.2749023 0.1745605
vt 0.2670898 0.1553955
vt 0.4208984 0.1708984
vt 0.2670898 0.1553955
vt 0.1082153 0.1802979
vt 0.1494141 0.1541748
vt 0.2749023 0.1745605
vt 0.1494141 0.1541748
vt 0.08764648 0.182373
vt 0.1350098 0.152832
vt 0.1082153 0.1802979
vt 0.1350098 0.152832
vt 0.2337646 0.1785889
vt 0.2382813 0.152832
vt 0.08764648 0.182373
vt 0.2382813 0.152832
vt 0.4003906 0.1729736
vt 0.3562012 0.1541748
vt 0.2337646 0.1785889
vt 0.4003906 0.1729736
vt 0.355957 0.1894531
vt 0.4208984 0.1708984
vt 0.3435059 0.1912842
vt 0.4208984 0.1708984
vt 0.2678223 0.1925049
vt 0.2749023 0.1745605
vt 0.355957 0.1894531
vt 0.2749023 0.1745605
vt 0.1673584 0.1976318
vt 0.1082153 0.1802979
vt 0.2678223 0.1925049
vt 0.1082153 0.1802979
vt 0.1549072 0.1994629
vt 0.08764648 0.182373
vt 0.1673584 0.1976318
vt 0.08764648 0.182373
vt 0.2429199 0.1964111
vt 0.2337646 0.1785889
vt 0.1549072 0.1994629
vt 0.2337646 0.1785889
vt 0.3435059 0.1912842
vt 0.4003906 0.1729736
vt 0.2429199 0.1964111
vt 0.2382813 0.152832
vt 0.1494141 0.1541748
vt 0.1350098 0.152832
vt 0.3562012 0.1541748
vt 0.2670898 0.1553955
vt 0.3706055 0.1553955
vt 0.2666016 0.4758301
vt 0.3095703 0.4914551
vt 0.277832 0.4741211
vt 0.2961426 0.4958496
vt 0.277832 0.4741211
vt 0.2072754 0.4956055
vt 0.1984863 0.4768066
vt 0.3095703 0.4914551
vt 0.1984863 0.4768066
vt 0.09161377 0.5039063
vt 0.1079712 0.4814453
vt 0.2072754 0.4956055
vt 0.1079712 0.4814453
vt 0.07818604 0.5078125
vt 0.09680176 0.4831543
vt 0.09161377 0.5039063
vt 0.09680176 0.4831543
vt 0.1804199 0.5039063
vt 0.1760254 0.4802246
vt 0.07818604 0.5078125
vt 0.1760254 0.4802246
vt 0.2961426 0.4958496
vt 0.2666016 0.4758301
vt 0.1804199 0.5039063
vt 0.3095703 0.4914551
vt 0.265625 0.5107422
vt 0.2741699 0.5097656
vt 0.2961426 0.4958496
vt 0.2072754 0.4956055
vt 0.2741699 0.5097656
vt 0.2166748 0.5136719
vt 0.3095703 0.4914551
vt 0.09161377 0.5039063
vt 0.2166748 0.5136719
vt 0.1503906 0.5195313
vt 0.2072754 0.4956055
vt 0.09161377 0.5039063
vt 0.1417236 0.5209961
vt 0.07818604 0.5078125
vt 0.1503906 0.5195313
vt 0.07818604 0.5078125
vt 0.1993408 0.5166016
vt 0.1804199 0.5039063
vt 0.1417236 0.5209961
vt 0.2961426 0.4958496
vt 0.1993408 0.5166016
vt 0.265625 0.5107422
vt 0.1804199 0.5039063
vt 0.265625 0.5107422
vt 0.2166748 0.5136719
vt 0.2741699 0.5097656
vt 0.1503906 0.5195313
vt 0.1993408 0.5166016
vt 0.1417236 0.5209961
vt 0.3833008 0.1602783
vt 0.4335938 0.1806641
vt 0.3945313 0.1618652
vt 0.4174805 0.1832275
vt 0.3945313 0.1618652
vt 0.3203125 0.1851807
vt 0.3144531 0.1618652
vt 0.4335938 0.1806641
vt 0.3144531 0.1618652
vt 0.1911621 0.1922607
vt 0.2230225 0.1602783
vt 0.3203125 0.1851807
vt 0.2230225 0.1602783
vt 0.1751709 0.1947021
vt 0.2119141 0.1586914
vt 0.1911621 0.1922607
vt 0.2119141 0.1586914
vt 0.2883301 0.1901855
vt 0.2919922 0.1586914
vt 0.1751709 0.1947021
vt 0.2919922 0.1586914
vt 0.4174805 0.1832275
vt 0.3833008 0.1602783
vt 0.2883301 0.1901855
vt 0.4174805 0.1832275
vt 0.3830566 0.2032471
vt 0.4335938 0.1806641
vt 0.3735352 0.2055664
vt 0.4335938 0.1806641
vt 0.3149414 0.2071533
vt 0.3203125 0.1851807
vt 0.3830566 0.2032471
vt 0.3203125 0.1851807
vt 0.2369385 0.2132568
vt 0.1911621 0.1922607
vt 0.3149414 0.2071533
vt 0.1911621 0.1922607
vt 0.2272949 0.2155762
vt 0.1751709 0.1947021
vt 0.2369385 0.2132568
vt 0.1751709 0.1947021
vt 0.2956543 0.211792
vt 0.2883301 0.1901855
vt 0.2272949 0.2155762
vt 0.2883301 0.1901855
vt 0.3735352 0.2055664
vt 0.4174805 0.1832275
vt 0.2956543 0.211792
vt 0.2919922 0.1586914
vt 0.2230225 0.1602783
vt 0.2119141 0.1586914
vt 0.3833008 0.1602783
vt 0.3144531 0.1618652
vt 0.3945313 0.1618652
vt 0.2956543 0.211792
vt 0.3830566 0.2032471
vt 0.3735352 0.2055664
vt 0.3149414 0.2071533
vt 0.2272949 0.2155762
vt 0.2369385 0.2132568

g Tree_11_Green_(2)_394_77
usemtl Tree_11_Green_(2)_394_77
usemap Tree_11_Green_(2)_394_77
f 1/1/1 3/3/3 2/2/2
f 4/4/4 6/6/6 5/5/5
f 7/7/7 9/9/9 8/8/8
f 10/10/10 12/12/12 11/11/11
f 13/13/13 15/15/15 14/14/14
f 16/16/16 18/18/18 17/17/17
f 19/19/19 21/21/21 20/20/20
f 22/22/22 24/24/24 23/23/23
f 25/25/25 27/27/27 26/26/26
f 28/28/28 30/30/30 29/29/29
f 31/31/31 33/33/33 32/32/32
f 34/34/34 36/36/36 35/35/35
f 37/37/37 39/39/39 38/38/38
f 40/40/40 42/42/42 41/41/41
f 43/43/43 45/45/45 44/44/44
f 46/46/46 48/48/48 47/47/47
f 49/49/49 51/51/51 50/50/50
f 52/52/52 54/54/54 53/53/53
f 55/55/55 57/57/57 56/56/56
f 58/58/58 60/60/60 59/59/59
f 61/61/61 63/63/63 62/62/62
f 64/64/64 66/66/66 65/65/65
f 67/67/67 69/69/69 68/68/68
f 70/70/70 72/72/72 71/71/71
f 71/71/71 73/73/73 70/70/70
f 74/74/74 76/76/76 75/75/75
f 75/75/75 77/77/77 74/74/74
f 78/78/78 80/80/80 79/79/79
f 79/79/79 81/81/81 78/78/78
f 82/82/82 84/84/84 83/83/83
f 83/83/83 85/85/85 82/82/82
f 86/86/86 88/88/88 87/87/87
f 87/87/87 89/89/89 86/86/86
f 90/90/90 92/92/92 91/91/91
f 91/91/91 93/93/93 90/90/90
f 94/94/94 96/96/96 95/95/95
f 95/95/95 97/97/97 94/94/94
f 98/98/98 100/100/100 99/99/99
f 99/99/99 101/101/101 98/98/98
f 102/102/102 104/104/104 103/103/103
f 103/103/103 105/105/105 102/102/102
f 106/106/106 102/102/102 105/105/105
f 105/105/105 107/107/107 106/106/106
f 108/108/108 110/110/110 109/109/109
f 109/109/109 111/111/111 108/108/108
f 112/112/112 114/114/114 113/113/113
f 113/113/113 115/115/115 112/112/112
f 116/116/116 118/118/118 117/117/117
f 117/117/117 119/119/119 116/116/116
f 119/119/119 117/117/117 120/120/120
f 120/120/120 121/121/121 119/119/119
f 122/122/122 124/124/124 123/123/123
f 123/123/123 125/125/125 122/122/122
f 126/126/126 128/128/128 127/127/127
f 127/127/127 129/129/129 126/126/126
f 130/130/130 132/132/132 131/131/131
f 131/131/131 133/133/133 130/130/130
f 134/134/134 136/136/136 135/135/135
f 135/135/135 137/137/137 134/134/134
f 138/138/138 140/140/140 139/139/139
f 139/139/139 141/141/141 138/138/138
f 138/138/138 141/141/141 142/142/142
f 143/143/143 145/145/145 144/144/144
f 144/144/144 146/146/146 143/143/143
f 147/147/147 149/149/149 148/148/148
f 148/148/148 150/150/150 147/147/147
f 151/151/151 153/153/153 152/152/152
f 152/152/152 154/154/154 151/151/151
f 155/155/155 157/157/157 156/156/156
f 156/156/156 157/157/157 158/158/158
f 159/159/159 161/161/161 160/160/160
f 160/160/160 161/161/161 162/162/162
f 163/163/163 165/165/165 164/164/164
f 164/164/164 166/166/166 163/163/163
f 167/167/167 169/169/169 168/168/168
f 168/168/168 170/170/170 167/167/167
f 171/171/171 173/173/173 172/172/172
f 172/172/172 174/174/174 171/171/171
f 175/175/175 177/177/177 176/176/176
f 176/176/176 178/178/178 175/175/175
f 179/179/179 181/181/181 180/180/180
f 180/180/180 182/182/182 179/179/179
f 182/182/182 180/180/180 183/183/183
f 184/184/184 186/186/186 185/185/185
f 185/185/185 187/187/187 184/184/184
f 188/188/188 190/190/190 189/189/189
f 189/189/189 191/191/191 188/188/188
f 192/192/192 194/194/194 193/193/193
f 193/193/193 195/195/195 192/192/192
f 196/196/196 198/198/198 197/197/197
f 197/197/197 199/199/199 196/196/196
f 200/200/200 202/202/202 201/201/201
f 201/201/201 203/203/203 200/200/200
f 204/204/204 206/206/206 205/205/205
f 205/205/205 207/207/207 204/204/204
f 208/208/208 210/210/210 209/209/209
f 209/209/209 211/211/211 208/208/208
f 212/212/212 214/214/214 213/213/213
f 213/213/213 215/215/215 212/212/212
f 216/216/216 218/218/218 217/217/217
f 217/217/217 219/219/219 216/216/216
f 220/220/220 222/222/222 221/221/221
f 221/221/221 223/223/223 220/220/220
f 224/224/224 226/226/226 225/225/225
f 225/225/225 227/227/227 224/224/224
f 228/228/228 230/230/230 229/229/229
f 229/229/229 231/231/231 228/228/228
f 232/232/232 234/234/234 233/233/233
f 233/233/233 235/235/235 232/232/232
f 235/235/235 233/233/233 236/236/236
f 236/236/236 237/237/237 235/235/235
f 238/238/238 240/240/240 239/239/239
f 239/239/239 241/241/241 238/238/238
f 242/242/242 244/244/244 243/243/243
f 243/243/243 245/245/245 242/242/242
f 246/246/246 248/248/248 247/247/247
f 247/247/247 249/249/249 246/246/246
f 250/250/250 252/252/252 251/251/251
f 251/251/251 253/253/253 250/250/250
f 254/254/254 256/256/256 255/255/255
f 255/255/255 257/257/257 254/254/254
f 258/258/258 260/260/260 259/259/259
f 259/259/259 261/261/261 258/258/258
f 262/262/262 264/264/264 263/263/263
f 263/263/263 265/265/265 262/262/262
f 266/266/266 268/268/268 267/267/267
f 267/267/267 269/269/269 266/266/266
f 270/270/270 272/272/272 271/271/271
f 271/271/271 273/273/273 270/270/270
f 274/274/274 276/276/276 275/275/275
f 275/275/275 277/277/277 274/274/274
f 278/278/278 280/280/280 279/279/279
f 279/279/279 281/281/281 278/278/278
f 282/282/282 284/284/284 283/283/283
f 283/283/283 285/285/285 282/282/282
f 286/286/286 288/288/288 287/287/287
f 287/287/287 289/289/289 286/286/286
f 289/289/289 287/287/287 290/290/290
f 290/290/290 291/291/291 289/289/289
f 292/292/292 294/294/294 293/293/293
f 293/293/293 295/295/295 292/292/292
f 296/296/296 298/298/298 297/297/297
f 297/297/297 299/299/299 296/296/296
f 300/300/300 302/302/302 301/301/301
f 301/301/301 303/303/303 300/300/300
f 304/304/304 306/306/306 305/305/305
f 305/305/305 307/307/307 304/304/304
f 308/308/308 310/310/310 309/309/309
f 309/309/309 311/311/311 308/308/308
f 312/312/312 314/314/314 313/313/313
f 313/313/313 315/315/315 312/312/312
f 316/316/316 318/318/318 317/317/317
f 317/317/317 319/319/319 316/316/316
f 320/320/320 322/322/322 321/321/321
f 321/321/321 323/323/323 320/320/320
f 324/324/324 326/326/326 325/325/325
f 325/325/325 327/327/327 324/324/324
f 328/328/328 330/330/330 329/329/329
f 329/329/329 331/331/331 328/328/328
f 332/332/332 334/334/334 333/333/333
f 333/333/333 335/335/335 332/332/332
f 336/336/336 338/338/338 337/337/337
f 337/337/337 339/339/339 336/336/336
f 340/340/340 342/342/342 341/341/341
f 341/341/341 343/343/343 340/340/340
f 344/344/344 346/346/346 345/345/345
f 345/345/345 347/347/347 344/344/344
f 348/348/348 350/350/350 349/349/349
f 349/349/349 351/351/351 348/348/348
f 352/352/352 354/354/354 353/353/353
f 353/353/353 355/355/355 352/352/352
f 356/356/356 358/358/358 357/357/357
f 357/357/357 359/359/359 356/356/356
f 360/360/360 362/362/362 361/361/361
f 361/361/361 363/363/363 360/360/360
f 364/364/364 366/366/366 365/365/365
f 365/365/365 367/367/367 364/364/364
f 368/368/368 370/370/370 369/369/369
f 369/369/369 371/371/371 368/368/368
f 372/372/372 374/374/374 373/373/373
f 373/373/373 375/375/375 372/372/372
f 376/376/376 378/378/378 377/377/377
f 377/377/377 379/379/379 376/376/376
f 380/380/380 382/382/382 381/381/381
f 381/381/381 383/383/383 380/380/380
f 384/384/384 386/386/386 385/385/385
f 385/385/385 387/387/387 384/384/384
f 388/388/388 390/390/390 389/389/389
f 389/389/389 391/391/391 388/388/388
f 391/391/391 389/389/389 392/392/392
f 392/392/392 393/393/393 391/391/391
f 394/394/394 396/396/396 395/395/395
f 395/395/395 397/397/397 394/394/394
f 398/398/398 400/400/400 399/399/399
f 399/399/399 401/401/401 398/398/398
f 402/402/402 404/404/404 403/403/403
f 403/403/403 405/405/405 402/402/402
f 406/406/406 408/408/408 407/407/407
f 407/407/407 409/409/409 406/406/406
f 410/410/410 412/412/412 411/411/411
f 411/411/411 413/413/413 410/410/410
f 414/414/414 416/416/416 415/415/415
f 415/415/415 417/417/417 414/414/414
f 418/418/418 420/420/420 419/419/419
f 419/419/419 421/421/421 418/418/418
f 422/422/422 424/424/424 423/423/423
f 423/423/423 425/425/425 422/422/422
f 426/426/426 428/428/428 427/427/427
f 427/427/427 429/429/429 426/426/426
f 430/430/430 432/432/432 431/431/431
f 431/431/431 433/433/433 430/430/430
f 434/434/434 436/436/436 435/435/435
f 435/435/435 437/437/437 434/434/434
f 438/438/438 440/440/440 439/439/439
f 439/439/439 441/441/441 438/438/438
f 442/442/442 438/438/438 441/441/441
f 441/441/441 443/443/443 442/442/442
f 444/444/444 446/446/446 445/445/445
f 445/445/445 447/447/447 444/444/444
f 448/448/448 450/450/450 449/449/449
f 449/449/449 451/451/451 448/448/448
f 452/452/452 454/454/454 453/453/453
f 453/453/453 455/455/455 452/452/452
f 456/456/456 458/458/458 457/457/457
f 457/457/457 459/459/459 456/456/456
f 460/460/460 462/462/462 461/461/461
f 461/461/461 463/463/463 460/460/460
f 464/464/464 466/466/466 465/465/465
f 465/465/465 467/467/467 464/464/464
f 468/468/468 470/470/470 469/469/469
f 469/469/469 471/471/471 468/468/468
f 472/472/472 474/474/474 473/473/473
f 473/473/473 475/475/475 472/472/472
f 476/476/476 478/478/478 477/477/477
f 477/477/477 479/479/479 476/476/476
f 480/480/480 482/482/482 481/481/481
f 481/481/481 483/483/483 480/480/480
f 484/484/484 486/486/486 485/485/485
f 485/485/485 487/487/487 484/484/484
f 488/488/488 490/490/490 489/489/489
f 489/489/489 491/491/491 488/488/488
f 492/492/492 494/494/494 493/493/493
f 493/493/493 495/495/495 492/492/492
f 495/495/495 493/493/493 496/496/496
f 496/496/496 497/497/497 495/495/495
f 498/498/498 500/500/500 499/499/499
f 499/499/499 501/501/501 498/498/498
f 502/502/502 504/504/504 503/503/503
f 503/503/503 505/505/505 502/502/502
f 506/506/506 508/508/508 507/507/507
f 507/507/507 509/509/509 506/506/506
f 510/510/510 512/512/512 511/511/511
f 511/511/511 513/513/513 510/510/510
f 514/514/514 516/516/516 515/515/515
f 515/515/515 517/517/517 514/514/514
f 518/518/518 520/520/520 519/519/519
f 519/519/519 521/521/521 518/518/518
f 522/522/522 524/524/524 523/523/523
f 523/523/523 525/525/525 522/522/522
f 526/526/526 528/528/528 527/527/527
f 527/527/527 529/529/529 526/526/526
f 530/530/530 532/532/532 531/531/531
f 531/531/531 533/533/533 530/530/530
f 534/534/534 536/536/536 535/535/535
f 535/535/535 537/537/537 534/534/534
f 538/538/538 540/540/540 539/539/539
f 539/539/539 541/541/541 538/538/538
f 542/542/542 544/544/544 543/543/543
f 543/543/543 545/545/545 542/542/542
f 546/546/546 548/548/548 547/547/547
f 547/547/547 549/549/549 546/546/546
f 550/550/550 546/546/546 549/549/549
f 549/549/549 551/551/551 550/550/550
f 552/552/552 554/554/554 553/553/553
f 553/553/553 555/555/555 552/552/552
f 556/556/556 558/558/558 557/557/557
f 557/557/557 559/559/559 556/556/556
f 560/560/560 562/562/562 561/561/561
f 561/561/561 563/563/563 560/560/560
f 564/564/564 566/566/566 565/565/565
f 565/565/565 567/567/567 564/564/564
f 568/568/568 570/570/570 569/569/569
f 569/569/569 571/571/571 568/568/568
f 572/572/572 574/574/574 573/573/573
f 573/573/573 575/575/575 572/572/572
f 576/576/576 578/578/578 577/577/577
f 577/577/577 579/579/579 576/576/576
f 580/580/580 582/582/582 581/581/581
f 581/581/581 583/583/583 580/580/580
f 584/584/584 586/586/586 585/585/585
f 585/585/585 587/587/587 584/584/584
f 588/588/588 590/590/590 589/589/589
f 589/589/589 591/591/591 588/588/588
f 592/592/592 594/594/594 593/593/593
f 593/593/593 595/595/595 592/592/592
f 596/596/596 598/598/598 597/597/597
f 597/597/597 599/599/599 596/596/596
f 600/600/600 602/602/602 601/601/601
f 601/601/601 603/603/603 600/600/600
f 603/603/603 601/601/601 604/604/604
f 604/604/604 605/605/605 603/603/603
f 606/606/606 608/608/608 607/607/607
f 607/607/607 609/609/609 606/606/606
f 610/610/610 606/606/606 609/609/609
f 609/609/609 611/611/611 610/610/610
