#Tree_01_Green_(5)_337_70.obj

v 0.2940663 0.4911568 2.518307
v 0.5344637 0.07456665 2.524441
v 0.08547862 0.1088743 3.590388
v -0.1867302 0.4916244 2.532838
v 0.2940663 0.4911568 2.518307
v 0.08547862 0.1088743 3.590388
v -0.4271285 0.07550202 2.553504
v -0.1867302 0.4916244 2.532838
v 0.08547862 0.1088743 3.590388
v -0.1867302 -0.3410883 2.559639
v -0.4271285 0.07550202 2.553504
v 0.08547862 0.1088743 3.590388
v 0.2940663 -0.341556 2.545108
v -0.1867302 -0.3410883 2.559639
v 0.08547862 0.1088743 3.590388
v 0.5344637 0.07456665 2.524441
v 0.2940663 -0.341556 2.545108
v 0.08547862 0.1088743 3.590388
v 0.3009327 -1.894173E-32 1.031174E-16
v 0.1459734 0.2625927 1.151188
v 0.1504668 0.2606156 -3.10678E-08
v 0.2799177 0.03047825 1.154606
v 0.1504668 0.2606156 -3.10678E-08
v -0.1219153 0.2628533 1.159285
v -0.1504668 0.2606156 -3.10678E-08
v 0.1459734 0.2625927 1.151188
v -0.1504668 0.2606156 -3.10678E-08
v -0.2558597 0.03099939 1.170799
v -0.3009327 -2.483526E-08 3.239322E-15
v -0.1219153 0.2628533 1.159285
v -0.3009327 -2.483526E-08 3.239322E-15
v -0.1219153 -0.2011149 1.174217
v -0.1504668 -0.2606156 3.10678E-08
v -0.2558597 0.03099939 1.170799
v -0.1504668 -0.2606156 3.10678E-08
v 0.1459734 -0.2013755 1.166121
v 0.1504668 -0.2606156 3.10678E-08
v -0.1219153 -0.2011149 1.174217
v 0.1504668 -0.2606156 3.10678E-08
v 0.2799177 0.03047825 1.154606
v 0.3009327 -1.894173E-32 1.031174E-16
v 0.1459734 -0.2013755 1.166121
v 0.5565945 0.9781256 0.8795398
v 0.6715298 0.05087095 1.788212
v 0.3515339 0.6053968 1.780046
v 1.108292 0.02207832 0.8936189
v -0.5468011 0.9791988 0.9128885
v 0.3515339 0.6053968 1.780046
v -0.2884563 0.6060193 1.799389
v 0.5565945 0.9781256 0.8795398
v -1.098498 0.02422486 0.9603159
v -0.2884563 0.6060193 1.799389
v -0.6084521 0.05211602 1.826898
v -0.5468011 0.9791988 0.9128885
v -0.5468011 -0.9318221 0.974395
v -0.6084521 0.05211602 1.826898
v -0.2884563 -0.5024099 1.835063
v -1.098498 0.02422486 0.9603159
v 0.5565945 -0.9328952 0.9410465
v -0.2884563 -0.5024099 1.835063
v 0.3515347 -0.5030325 1.815721
v -0.5468011 -0.9318221 0.974395
v 1.108292 0.02207832 0.8936189
v 0.3515347 -0.5030325 1.815721
v 0.6715298 0.05087095 1.788212
v 0.5565945 -0.9328952 0.9410465
v -0.5468011 -0.9318221 0.974395
v -0.5468011 0.9791988 0.9128885
v -1.098498 0.02422486 0.9603159
v 0.5565945 -0.9328952 0.9410465
v 0.5565945 0.9781256 0.8795398
v 1.108292 0.02207832 0.8936189
v 0.2373036 0.3926487 2.535802
v 0.7712849 0.05089932 1.789092
v 0.4205584 0.07508279 2.540479
v 0.4014706 0.691757 1.779655
v -0.1292062 0.3930052 2.546879
v 0.4014706 0.691757 1.779655
v 0.2373036 0.3926487 2.535802
v -0.3381578 0.6924764 1.802009
v -0.312461 0.07579581 2.562633
v -0.3381578 0.6924764 1.802009
v -0.1292062 0.3930052 2.546879
v -0.7079712 0.05233817 1.833801
v -0.1292062 -0.24177 2.56731
v -0.7079712 0.05233817 1.833801
v -0.312461 0.07579581 2.562633
v -0.338157 -0.5885194 1.843238
v 0.2373036 -0.2421266 2.556232
v -0.338157 -0.5885194 1.843238
v -0.1292062 -0.24177 2.56731
v 0.4014706 -0.5892391 1.820884
v 0.4205584 0.07508279 2.540479
v 0.4014706 -0.5892391 1.820884
v 0.2373036 -0.2421266 2.556232
v 0.7712849 0.05089932 1.789092
v 0.4014706 0.691757 1.779655
v 0.6715298 0.05087095 1.788212
v 0.7712849 0.05089932 1.789092
v 0.3515339 0.6053968 1.780046
v -0.3381578 0.6924764 1.802009
v -0.2884563 0.6060193 1.799389
v -0.7079712 0.05233817 1.833801
v -0.6084521 0.05211602 1.826898
v -0.338157 -0.5885194 1.843238
v -0.6084521 0.05211602 1.826898
v -0.7079712 0.05233817 1.833801
v -0.2884563 -0.5024099 1.835063
v 0.4014706 -0.5892391 1.820884
v 0.3515347 -0.5030325 1.815721
v 0.7712849 0.05089932 1.789092
v 0.6715298 0.05087095 1.788212
v 0.2940663 0.4911568 2.518307
v 0.4205584 0.07508279 2.540479
v 0.5344637 0.07456665 2.524441
v 0.2373036 0.3926487 2.535802
v -0.1867302 0.4916244 2.532838
v 0.2373036 0.3926487 2.535802
v 0.2940663 0.4911568 2.518307
v -0.1292062 0.3930052 2.546879
v -0.4271285 0.07550202 2.553504
v -0.1292062 0.3930052 2.546879
v -0.1867302 0.4916244 2.532838
v -0.312461 0.07579581 2.562633
v -0.1867302 -0.3410883 2.559639
v -0.312461 0.07579581 2.562633
v -0.4271285 0.07550202 2.553504
v -0.1292062 -0.24177 2.56731
v 0.2940663 -0.341556 2.545108
v -0.1292062 -0.24177 2.56731
v -0.1867302 -0.3410883 2.559639
v 0.2373036 -0.2421266 2.556232
v 0.5344637 0.07456665 2.524441
v 0.2373036 -0.2421266 2.556232
v 0.2940663 -0.341556 2.545108
v 0.4205584 0.07508279 2.540479

vn 0.8159971 0.3283939 -0.4757168
vn 0.8159971 0.3283939 -0.4757168
vn 0.8159971 0.3283939 -0.4757169
vn 0.01112361 0.3377646 -0.9411654
vn 0.01112361 0.3377646 -0.9411654
vn 0.0111236 0.3377646 -0.9411654
vn -0.7937493 0.3770461 -0.4772826
vn -0.7937493 0.3770462 -0.4772826
vn -0.7937493 0.3770462 -0.4772826
vn -0.7937495 0.4069569 0.4520488
vn -0.7937496 0.4069569 0.4520488
vn -0.7937495 0.4069569 0.4520488
vn 0.01112388 0.3975863 0.9174978
vn 0.01112388 0.3975864 0.9174978
vn 0.01112388 0.3975863 0.9174978
vn 0.8159973 0.3583048 0.453615
vn 0.8159973 0.3583048 0.453615
vn 0.8159973 0.3583048 0.4536149
vn 0.8660226 0.002521553 -0.4999987
vn 0.8660226 0.002521554 -0.4999987
vn 0.8660226 0.002521554 -0.4999988
vn 0.8661146 0.002570356 -0.4998391
vn 0 -0.001930179 -0.9999987
vn 0 -0.001930179 -0.9999987
vn 0 -0.00193018 -0.9999987
vn 0.0009208589 -0.001713817 -0.9999986
vn -0.8658506 0.02009773 -0.4998992
vn -0.8658506 0.02009773 -0.4998992
vn -0.8658506 0.02009773 -0.4998991
vn -0.8652734 0.0203435 -0.5008875
vn -0.8650949 0.04634408 0.4994632
vn -0.8650949 0.04634408 0.4994632
vn -0.8650948 0.04634408 0.4994631
vn -0.8654922 0.04652551 0.4987575
vn 0 0.05073562 0.9987125
vn 0 0.05073562 0.9987125
vn 0 0.05073562 0.9987125
vn 0.0005577099 0.05059419 0.9987196
vn 0.8656623 0.02894945 0.4997909
vn 0.8656623 0.02894945 0.4997909
vn 0.8656624 0.02894945 0.4997908
vn 0.8661506 0.0286851 0.4989595
vn 0.8002842 0.3756774 -0.4673457
vn 0.8002842 0.3756774 -0.4673457
vn 0.8002842 0.3756774 -0.4673457
vn 0.8002844 0.3756772 -0.4673455
vn 0.01252906 0.3848491 -0.922895
vn 0.01252906 0.3848491 -0.922895
vn 0.01252906 0.3848491 -0.922895
vn 0.01252919 0.384849 -0.922895
vn -0.7752259 0.4232947 -0.4688783
vn -0.7752258 0.4232947 -0.4688783
vn -0.7752259 0.4232947 -0.4688783
vn -0.7752259 0.423295 -0.4688781
vn -0.7752258 0.4525694 0.4406884
vn -0.7752258 0.4525693 0.4406884
vn -0.7752258 0.4525694 0.4406884
vn -0.7752259 0.4525692 0.4406885
vn 0.01252901 0.4433976 0.896238
vn 0.01252901 0.4433976 0.8962379
vn 0.01252901 0.4433976 0.8962379
vn 0.01252936 0.4433978 0.8962379
vn 0.8002844 0.4049518 0.4422208
vn 0.8002844 0.4049518 0.4422208
vn 0.8002844 0.4049518 0.4422208
vn 0.8002843 0.4049517 0.4422211
vn -0.03022533 -0.9990263 0.03215382
vn -0.03022539 -0.9990263 0.03215385
vn -0.03022532 -0.9990263 0.03215382
vn -0.03022537 -0.9990263 0.03215385
vn -0.03022543 -0.9990263 0.03215389
vn -0.03022534 -0.9990263 0.03215389
vn 0.80547 0.3608405 -0.4701199
vn 0.8054699 0.3608405 -0.4701198
vn 0.80547 0.3608405 -0.4701198
vn 0.80547 0.3608406 -0.4701197
vn 0.01208835 0.3700774 -0.9289228
vn 0.01208835 0.3700774 -0.9289228
vn 0.01208835 0.3700774 -0.9289228
vn 0.01208866 0.3700776 -0.9289227
vn -0.7812924 0.4087984 -0.4716636
vn -0.7812924 0.4087984 -0.4716636
vn -0.7812924 0.4087984 -0.4716635
vn -0.7812929 0.408798 -0.4716631
vn -0.7812927 0.4382817 0.4444
vn -0.7812927 0.4382817 0.4444
vn -0.7812927 0.4382817 0.4444
vn -0.7812927 0.4382817 0.4443997
vn 0.01208929 0.4290448 0.9032029
vn 0.01208929 0.4290448 0.9032029
vn 0.01208929 0.4290448 0.9032029
vn 0.01208865 0.4290451 0.9032027
vn 0.8054696 0.3903247 0.4459437
vn 0.8054695 0.3903247 0.4459437
vn 0.8054695 0.3903247 0.4459437
vn 0.8054701 0.3903242 0.4459431
vn 0.008829449 -0.9999151 0.009630189
vn 0.00882945 -0.9999151 0.009630189
vn 0.00882945 -0.9999151 0.009630189
vn 0.008825884 -0.9999151 0.009631691
vn -0.03019498 -0.9994609 -0.01293365
vn -0.03019444 -0.9994608 -0.012938
vn -0.06921926 -0.9975562 0.009553652
vn -0.06921732 -0.9975563 0.00955512
vn -0.06921731 -0.9961061 0.05461189
vn -0.06921731 -0.9961061 0.05461189
vn -0.06921731 -0.9961061 0.05461189
vn -0.06922094 -0.9961058 0.05461342
vn -0.03019478 -0.9965602 0.07718171
vn -0.0301942 -0.9965605 0.07717702
vn 0.008827267 -0.9984649 0.05468727
vn 0.00882945 -0.9984649 0.05468892
vn -0.1392112 -0.9857104 0.09484937
vn -0.1392112 -0.9857104 0.09484937
vn -0.1392112 -0.9857104 0.09484937
vn -0.1392099 -0.9857105 0.09484899
vn -0.02998322 -0.9869822 0.1580136
vn -0.02998322 -0.9869822 0.1580136
vn -0.02998322 -0.9869822 0.1580136
vn -0.02998346 -0.9869819 0.1580146
vn 0.07924389 -0.9923127 0.09506211
vn 0.0792439 -0.9923127 0.09506211
vn 0.07924389 -0.9923127 0.09506209
vn 0.07924631 -0.9923123 0.09506437
vn 0.07924636 -0.9963716 -0.03105638
vn 0.07924636 -0.9963716 -0.03105638
vn 0.07924635 -0.9963716 -0.03105638
vn 0.07924329 -0.996372 -0.03105546
vn -0.02998357 -0.9951003 -0.09421997
vn -0.02998357 -0.9951003 -0.09421995
vn -0.02998357 -0.9951003 -0.09421996
vn -0.02998519 -0.9951009 -0.09421322
vn -0.1392061 -0.9897703 -0.03126463
vn -0.1392061 -0.9897703 -0.03126462
vn -0.1392061 -0.9897703 -0.03126462
vn -0.1392112 -0.9897693 -0.03126947

vt 0.7879072 0.8242779
vt 0.8001339 0.8242779
vt 0.7756804 0.8798555
vt 0.7634536 0.8242779
vt 0.7879072 0.8242779
vt 0.7756804 0.8798555
vt 0.7512268 0.8242779
vt 0.7634536 0.8242779
vt 0.7756804 0.8798555
vt 0.7634536 0.8242779
vt 0.7512268 0.8242779
vt 0.7756804 0.8798555
vt 0.7879071 0.8242779
vt 0.7634536 0.8242779
vt 0.7756804 0.8798555
vt 0.8001339 0.8242779
vt 0.7879071 0.8242779
vt 0.7756804 0.8798555
vt 0.2209835 0.388818
vt 0.2013809 0.6456031
vt 0.2047579 0.388818
vt 0.2142294 0.6456031
vt 0.2047579 0.388818
vt 0.1756839 0.6456031
vt 0.1723069 0.388818
vt 0.2013809 0.6456031
vt 0.1723069 0.388818
vt 0.1628353 0.6456031
vt 0.1560813 0.388818
vt 0.1756839 0.6456031
vt 0.1560813 0.388818
vt 0.1756839 0.6456031
vt 0.1723069 0.388818
vt 0.1628353 0.6456031
vt 0.1723069 0.388818
vt 0.2013809 0.6456031
vt 0.2047579 0.388818
vt 0.1756839 0.6456031
vt 0.2047579 0.388818
vt 0.2142294 0.6456031
vt 0.2209835 0.388818
vt 0.2013809 0.6456031
vt 0.8142501 0.06201676
vt 0.8231531 0.09522417
vt 0.8087789 0.09522417
vt 0.8340955 0.06201676
vt 0.7745592 0.06201676
vt 0.8087789 0.09522417
vt 0.7800304 0.09522417
vt 0.8142501 0.06201676
vt 0.7547137 0.06201676
vt 0.7800304 0.09522417
vt 0.7656561 0.09522417
vt 0.7745592 0.06201676
vt 0.7745592 0.06201676
vt 0.7656561 0.09522417
vt 0.7800303 0.09522417
vt 0.7547137 0.06201676
vt 0.8142501 0.06201676
vt 0.7800303 0.09522417
vt 0.8087789 0.09522417
vt 0.7745592 0.06201676
vt 0.8340955 0.06201676
vt 0.8087789 0.09522417
vt 0.8231531 0.09522417
vt 0.8142501 0.06201676
vt 0.7745592 0.06201676
vt 0.7745592 0.06201676
vt 0.7547137 0.06201676
vt 0.8142501 0.06201676
vt 0.8142501 0.06201676
vt 0.8340955 0.06201676
vt 0.7983752 0.5092804
vt 0.8222791 0.4698847
vt 0.8076957 0.5092804
vt 0.805667 0.4698847
vt 0.7797344 0.5092804
vt 0.805667 0.4698847
vt 0.7983752 0.5092804
vt 0.7724427 0.4698847
vt 0.7704139 0.5092804
vt 0.7724427 0.4698847
vt 0.7797344 0.5092804
vt 0.7558305 0.4698847
vt 0.7797344 0.5092804
vt 0.7558305 0.4698847
vt 0.7704139 0.5092804
vt 0.7724427 0.4698847
vt 0.7983752 0.5092804
vt 0.7724427 0.4698847
vt 0.7797344 0.5092804
vt 0.8056669 0.4698847
vt 0.8076957 0.5092804
vt 0.8056669 0.4698847
vt 0.7983752 0.5092804
vt 0.8222791 0.4698847
vt 0.805667 0.4698847
vt 0.8178033 0.4697098
vt 0.8222791 0.4698847
vt 0.8034291 0.4697098
vt 0.7724427 0.4698847
vt 0.7746806 0.4697098
vt 0.7558305 0.4698847
vt 0.7603062 0.4697098
vt 0.7724427 0.4698847
vt 0.7603062 0.4697098
vt 0.7558305 0.4698847
vt 0.7746805 0.4697098
vt 0.8056669 0.4698847
vt 0.8034291 0.4697098
vt 0.8222791 0.4698847
vt 0.8178033 0.4697098
vt 0.7879072 0.8242779
vt 0.7943213 0.8249183
vt 0.8001339 0.8242779
vt 0.7850008 0.8249183
vt 0.7634536 0.8242779
vt 0.7850008 0.8249183
vt 0.7879072 0.8242779
vt 0.7663599 0.8249183
vt 0.7512268 0.8242779
vt 0.7663599 0.8249183
vt 0.7634536 0.8242779
vt 0.7570394 0.8249183
vt 0.7634536 0.8242779
vt 0.7570394 0.8249183
vt 0.7512268 0.8242779
vt 0.7663599 0.8249183
vt 0.7879071 0.8242779
vt 0.7663599 0.8249183
vt 0.7634536 0.8242779
vt 0.7850008 0.8249183
vt 0.8001339 0.8242779
vt 0.7850008 0.8249183
vt 0.7879071 0.8242779
vt 0.7943213 0.8249183

g Tree_01_Green_(5)_337_70
usemtl Tree_01_Green_(5)_337_70
usemap Tree_01_Green_(5)_337_70
f 1/1/1 3/3/3 2/2/2
f 4/4/4 6/6/6 5/5/5
f 7/7/7 9/9/9 8/8/8
f 10/10/10 12/12/12 11/11/11
f 13/13/13 15/15/15 14/14/14
f 16/16/16 18/18/18 17/17/17
f 19/19/19 21/21/21 20/20/20
f 20/20/20 22/22/22 19/19/19
f 23/23/23 25/25/25 24/24/24
f 24/24/24 26/26/26 23/23/23
f 27/27/27 29/29/29 28/28/28
f 28/28/28 30/30/30 27/27/27
f 31/31/31 33/33/33 32/32/32
f 32/32/32 34/34/34 31/31/31
f 35/35/35 37/37/37 36/36/36
f 36/36/36 38/38/38 35/35/35
f 39/39/39 41/41/41 40/40/40
f 40/40/40 42/42/42 39/39/39
f 43/43/43 45/45/45 44/44/44
f 44/44/44 46/46/46 43/43/43
f 47/47/47 49/49/49 48/48/48
f 48/48/48 50/50/50 47/47/47
f 51/51/51 53/53/53 52/52/52
f 52/52/52 54/54/54 51/51/51
f 55/55/55 57/57/57 56/56/56
f 56/56/56 58/58/58 55/55/55
f 59/59/59 61/61/61 60/60/60
f 60/60/60 62/62/62 59/59/59
f 63/63/63 65/65/65 64/64/64
f 64/64/64 66/66/66 63/63/63
f 67/67/67 69/69/69 68/68/68
f 68/68/68 70/70/70 67/67/67
f 70/70/70 68/68/68 71/71/71
f 71/71/71 72/72/72 70/70/70
f 73/73/73 75/75/75 74/74/74
f 74/74/74 76/76/76 73/73/73
f 77/77/77 79/79/79 78/78/78
f 78/78/78 80/80/80 77/77/77
f 81/81/81 83/83/83 82/82/82
f 82/82/82 84/84/84 81/81/81
f 85/85/85 87/87/87 86/86/86
f 86/86/86 88/88/88 85/85/85
f 89/89/89 91/91/91 90/90/90
f 90/90/90 92/92/92 89/89/89
f 93/93/93 95/95/95 94/94/94
f 94/94/94 96/96/96 93/93/93
f 97/97/97 99/99/99 98/98/98
f 98/98/98 100/100/100 97/97/97
f 101/101/101 97/97/97 100/100/100
f 100/100/100 102/102/102 101/101/101
f 103/103/103 101/101/101 102/102/102
f 102/102/102 104/104/104 103/103/103
f 105/105/105 107/107/107 106/106/106
f 106/106/106 108/108/108 105/105/105
f 109/109/109 105/105/105 108/108/108
f 108/108/108 110/110/110 109/109/109
f 111/111/111 109/109/109 110/110/110
f 110/110/110 112/112/112 111/111/111
f 113/113/113 115/115/115 114/114/114
f 114/114/114 116/116/116 113/113/113
f 117/117/117 119/119/119 118/118/118
f 118/118/118 120/120/120 117/117/117
f 121/121/121 123/123/123 122/122/122
f 122/122/122 124/124/124 121/121/121
f 125/125/125 127/127/127 126/126/126
f 126/126/126 128/128/128 125/125/125
f 129/129/129 131/131/131 130/130/130
f 130/130/130 132/132/132 129/129/129
f 133/133/133 135/135/135 134/134/134
f 134/134/134 136/136/136 133/133/133
