#Tree_12_Green_(2)_374_70.obj

v -0.369442 -0.2337475 3.06073
v 0.5435353 0.0425021 -5.066481E-09
v -0.1991269 -0.4884949 3.048805
v 0.5435353 0.0425021 -5.066481E-09
v -0.369442 -0.2337475 3.06073
v 0.3241819 0.3872825 -4.616782E-08
v -0.369442 -0.2337475 3.06073
v -0.1145183 0.387284 -4.616782E-08
v 0.3241819 0.3872825 -4.616782E-08
v -0.1145183 0.387284 -4.616782E-08
v -0.369442 -0.2337475 3.06073
v -0.697805 -0.2397335 3.045327
v -0.8558565 -0.5004593 3.017998
v -0.1145198 -0.3022826 3.603485E-08
v -0.3338693 0.04249766 -5.066477E-09
v -0.1145198 -0.3022826 3.603485E-08
v -0.8558565 -0.5004593 3.017998
v -0.6855451 -0.7551991 3.006072
v -0.3571783 -0.7492132 3.021476
v -0.1145198 -0.3022826 3.603485E-08
v -0.6855451 -0.7551991 3.006072
v -0.1145198 -0.3022826 3.603485E-08
v -0.3571783 -0.7492132 3.021476
v 0.3241843 -0.3022843 3.603485E-08
v -0.2751794 0.2825469 4.67662
v -0.1991269 -0.4884949 3.048805
v -0.1669514 0.1098045 4.661294
v -0.1991269 -0.4884949 3.048805
v -0.2751794 0.2825469 4.67662
v -0.369442 -0.2337475 3.06073
v -0.8558565 -0.5004593 3.017998
v -0.4916351 0.2825424 4.707273
v -0.5998664 0.1098033 4.722598
v -0.3338693 0.04249766 -5.066477E-09
v -0.697805 -0.2397335 3.045327
v -0.1145183 0.387284 -4.616782E-08
v -0.4916351 0.2825424 4.707273
v -0.8558565 -0.5004593 3.017998
v -0.697805 -0.2397335 3.045327
v -0.6855451 -0.7551991 3.006072
v -0.5998664 0.1098033 4.722598
v -0.4916384 -0.06293917 4.707273
v -0.5998664 0.1098033 4.722598
v -0.6855451 -0.7551991 3.006072
v -0.8558565 -0.5004593 3.017998
v -0.1669514 0.1098045 4.661294
v -0.3571783 -0.7492132 3.021476
v -0.2751789 -0.06293479 4.67662
v -0.3571783 -0.7492132 3.021476
v -0.1669514 0.1098045 4.661294
v -0.1991269 -0.4884949 3.048805
v -0.2071494 -0.5350937 2.197926
v 1.952264 -0.3657846 2.850094
v -0.2171527 -0.1639064 2.212508
v 1.952264 -0.3657846 2.850094
v -0.2071494 -0.5350937 2.197926
v 1.883125 -0.6660873 2.831719
v 1.897531 -0.3644783 3.019996
v -0.2843679 -0.3637444 2.518226
v -0.2652986 -0.1734026 2.42118
v -0.2843679 -0.3637444 2.518226
v 1.897531 -0.3644783 3.019996
v 1.835593 -0.5139689 3.09576
v 1.883125 -0.6660873 2.831719
v 2.332395 -0.2780032 3.945592
v 1.952264 -0.3657846 2.850094
v 1.952264 -0.3657846 2.850094
v 2.332395 -0.2780032 3.945592
v 1.897531 -0.3644783 3.019996
v 1.897531 -0.3644783 3.019996
v 2.332395 -0.2780032 3.945592
v 1.835593 -0.5139689 3.09576
v 1.835593 -0.5139689 3.09576
v 2.332395 -0.2780032 3.945592
v 1.828388 -0.664781 3.001621
v 1.828388 -0.664781 3.001621
v 2.332395 -0.2780032 3.945592
v 1.883125 -0.6660873 2.831719
v 1.819419 0.2612239 4.375931
v 1.129369 -0.6781865 4.24627
v 1.315123 0.4667534 4.140537
v 1.129369 -0.6781865 4.24627
v 1.819419 0.2612239 4.375931
v 1.718206 -0.3977001 4.450423
v -0.1991269 -0.4884949 3.048805
v 0.3241843 -0.3022843 3.603485E-08
v -0.3571783 -0.7492132 3.021476
v 0.5435353 0.0425021 -5.066481E-09
v -0.697805 -0.2397335 3.045327
v -0.2751794 0.2825469 4.67662
v -0.4916351 0.2825424 4.707273
v -0.369442 -0.2337475 3.06073
v -0.2751789 -0.06293479 4.67662
v -0.6855451 -0.7551991 3.006072
v -0.4916384 -0.06293917 4.707273
v -0.3571783 -0.7492132 3.021476
v 1.952264 -0.3657846 2.850094
v -0.2652986 -0.1734026 2.42118
v -0.2171527 -0.1639064 2.212508
v 1.897531 -0.3644783 3.019996
v 1.835593 -0.5139689 3.09576
v -0.2552952 -0.5445899 2.406599
v -0.2843679 -0.3637444 2.518226
v 1.828388 -0.664781 3.001621
v -0.2552952 -0.5445899 2.406599
v 1.883125 -0.6660873 2.831719
v -0.2071494 -0.5350937 2.197926
v 1.828388 -0.664781 3.001621
v 2.275564 -1.581882 4.649595
v -0.5013121 -2.291758 4.409579
v -0.4427762 -3.177613 4.678726
v 1.416128 -1.164968 4.428249
v 2.064575 1.328951 4.702488
v 1.416128 -1.164968 4.428249
v 2.275564 -1.581882 4.649595
v 1.26139 0.890364 4.428249
v -0.8647539 2.644053 4.784512
v 1.26139 0.890364 4.428249
v 2.064575 1.328951 4.702488
v -0.8107882 1.818909 4.409579
v -3.583094 1.048321 4.813643
v -0.8107882 1.818909 4.409579
v -0.8647539 2.644053 4.784512
v -2.728228 0.6921225 4.390908
v -3.372105 -1.862508 4.76075
v -2.728228 0.6921225 4.390908
v -3.583094 1.048321 4.813643
v -2.57349 -1.363209 4.390908
v -0.4427762 -3.177613 4.678726
v -2.57349 -1.363209 4.390908
v -3.372105 -1.862508 4.76075
v -0.5013121 -2.291758 4.409579
v 1.228525 -0.9959412 4.914714
v -0.4427762 -3.177613 4.678726
v -0.4138667 -1.959499 4.941957
v 2.275564 -1.581882 4.649595
v 1.106528 0.7618868 4.959858
v 2.275564 -1.581882 4.649595
v 1.228525 -0.9959412 4.914714
v 2.064575 1.328951 4.702488
v -0.6578603 1.556157 5.032245
v 2.064575 1.328951 4.702488
v 1.106528 0.7618868 4.959858
v -0.8647539 2.644053 4.784512
v -2.300252 0.5926064 5.059489
v -0.8647539 2.644053 4.784512
v -0.6578603 1.556157 5.032245
v -3.583094 1.048321 4.813643
v -2.178255 -1.165222 5.014344
v -3.583094 1.048321 4.813643
v -2.300252 0.5926064 5.059489
v -3.372105 -1.862508 4.76075
v -0.4138667 -1.959499 4.941957
v -3.372105 -1.862508 4.76075
v -2.178255 -1.165222 5.014344
v -0.4427762 -3.177613 4.678726
v -2.57349 -1.363209 4.390908
v -0.8107882 1.818909 4.409579
v -2.728228 0.6921225 4.390908
v -0.5013121 -2.291758 4.409579
v 1.26139 0.890364 4.428249
v 1.416128 -1.164968 4.428249
v 1.792866 -1.316024 5.193923
v -0.4138667 -1.959499 4.941957
v -0.2956021 -2.56033 5.261958
v 1.228525 -0.9959412 4.914714
v 1.64437 0.9576635 5.256851
v 1.228525 -0.9959412 4.914714
v 1.792866 -1.316024 5.193923
v 1.106528 0.7618868 4.959858
v -0.5925927 1.987045 5.387812
v 1.106528 0.7618868 4.959858
v 1.64437 0.9576635 5.256851
v -0.6578603 1.556157 5.032245
v -2.68106 0.7427392 5.455846
v -0.6578603 1.556157 5.032245
v -0.5925927 1.987045 5.387812
v -2.300252 0.5926064 5.059489
v -2.532565 -1.530948 5.392919
v -2.300252 0.5926064 5.059489
v -2.68106 0.7427392 5.455846
v -2.178255 -1.165222 5.014344
v -0.2956021 -2.56033 5.261958
v -2.178255 -1.165222 5.014344
v -2.532565 -1.530948 5.392919
v -0.4138667 -1.959499 4.941957
v -0.2642584 -1.824608 5.502586
v 1.792866 -1.316024 5.193923
v -0.2956021 -2.56033 5.261958
v 0.9547783 -1.117732 5.479366
v 0.9547783 -1.117732 5.479366
v 1.64437 0.9576635 5.256851
v 1.792866 -1.316024 5.193923
v 0.8826184 0.171297 5.54841
v 0.8826184 0.171297 5.54841
v -0.5925927 1.987045 5.387812
v 1.64437 0.9576635 5.256851
v -0.4085744 0.753442 5.640676
v -1.627607 0.04656586 5.663896
v -0.5925927 1.987045 5.387812
v -0.4085744 0.753442 5.640676
v -2.68106 0.7427392 5.455846
v -1.555451 -1.242463 5.59485
v -2.68106 0.7427392 5.455846
v -1.627607 0.04656586 5.663896
v -2.532565 -1.530948 5.392919
v -1.555451 -1.242463 5.59485
v -0.2956021 -2.56033 5.261958
v -2.532565 -1.530948 5.392919
v -0.2642584 -1.824608 5.502586
v -0.809731 -0.4655666 5.976283
v -0.1641082 -1.359922 5.877484
v -0.780431 -1.081734 5.928871
v -0.2227081 -0.1275874 5.972309
v 0.4229148 -1.021943 5.87351
v 0.3936148 -0.4057755 5.920921
v -0.1641082 -1.359922 5.877484
v 1.251788 -1.331302 5.651052
v -0.1803099 -2.156592 5.666137
v 0.4229148 -1.021943 5.87351
v 0.4229148 -1.021943 5.87351
v 1.176391 0.1732054 5.756121
v 1.251788 -1.331302 5.651052
v 0.3936148 -0.4057755 5.920921
v 0.3936148 -0.4057755 5.920921
v -0.3311048 0.8524261 5.876274
v 1.176391 0.1732054 5.756121
v -0.2227081 -0.1275874 5.972309
v -0.3311048 0.8524261 5.876274
v -0.809731 -0.4655666 5.976283
v -1.763203 0.02713966 5.891359
v -0.2227081 -0.1275874 5.972309
v -1.763203 0.02713966 5.891359
v -0.780431 -1.081734 5.928871
v -1.687805 -1.477367 5.786289
v -0.809731 -0.4655666 5.976283
v -1.687805 -1.477367 5.786289
v -0.1641082 -1.359922 5.877484
v -0.1803099 -2.156592 5.666137
v -0.780431 -1.081734 5.928871
v -0.1803099 -2.156592 5.666137
v 0.9547783 -1.117732 5.479366
v -0.2642584 -1.824608 5.502586
v 1.251788 -1.331302 5.651052
v 1.251788 -1.331302 5.651052
v 0.8826184 0.171297 5.54841
v 0.9547783 -1.117732 5.479366
v 1.176391 0.1732054 5.756121
v 1.176391 0.1732054 5.756121
v -0.4085744 0.753442 5.640676
v 0.8826184 0.171297 5.54841
v -0.3311048 0.8524261 5.876274
v -0.4085744 0.753442 5.640676
v -1.763203 0.02713966 5.891359
v -1.627607 0.04656586 5.663896
v -0.3311048 0.8524261 5.876274
v -1.627607 0.04656586 5.663896
v -1.687805 -1.477367 5.786289
v -1.555451 -1.242463 5.59485
v -1.763203 0.02713966 5.891359
v -1.555451 -1.242463 5.59485
v -0.1803099 -2.156592 5.666137
v -0.2642584 -1.824608 5.502586
v -1.687805 -1.477367 5.786289
v 2.490306 1.154518 3.650262
v 3.252006 0.05555441 3.456481
v 3.68565 0.2247918 3.673782
v 2.408243 0.7111582 3.471556
v 1.068135 0.5902626 3.692966
v 2.408243 0.7111582 3.471556
v 2.490306 1.154518 3.650262
v 1.404894 0.3102235 3.471556
v 0.8413024 -0.9037179 3.759189
v 1.404894 0.3102235 3.471556
v 1.068135 0.5902626 3.692966
v 1.245308 -0.7463226 3.456481
v 2.036646 -1.833444 3.782708
v 1.245308 -0.7463226 3.456481
v 0.8413024 -0.9037179 3.759189
v 2.08907 -1.401934 3.441408
v 3.458818 -1.269189 3.740004
v 2.08907 -1.401934 3.441408
v 2.036646 -1.833444 3.782708
v 3.092419 -1.000992 3.441408
v 3.68565 0.2247918 3.673782
v 3.092419 -1.000992 3.441408
v 3.458818 -1.269189 3.740004
v 3.252006 0.05555441 3.456481
v 2.351381 0.6017321 3.864309
v 3.68565 0.2247918 3.673782
v 3.073309 0.03990762 3.886304
v 2.490306 1.154518 3.650262
v 1.49175 0.2633468 3.900756
v 2.490306 1.154518 3.650262
v 2.351381 0.6017321 3.864309
v 1.068135 0.5902626 3.692966
v 1.354045 -0.6368552 3.959199
v 1.068135 0.5902626 3.692966
v 1.49175 0.2633468 3.900756
v 0.8413024 -0.9037179 3.759189
v 2.075974 -1.19868 3.981195
v 0.8413024 -0.9037179 3.759189
v 1.354045 -0.6368552 3.959199
v 2.036646 -1.833444 3.782708
v 2.935608 -0.8602945 3.944747
v 2.036646 -1.833444 3.782708
v 2.075974 -1.19868 3.981195
v 3.458818 -1.269189 3.740004
v 3.073309 0.03990762 3.886304
v 3.458818 -1.269189 3.740004
v 2.935608 -0.8602945 3.944747
v 3.68565 0.2247918 3.673782
v 3.092419 -1.000992 3.441408
v 1.245308 -0.7463226 3.456481
v 2.08907 -1.401934 3.441408
v 3.252006 0.05555441 3.456481
v 1.404894 0.3102235 3.471556
v 2.408243 0.7111582 3.471556
v 2.428391 0.9003704 4.089733
v 3.073309 0.03990762 3.886304
v 3.355906 0.18904 4.144661
v 2.351381 0.6017321 3.864309
v 1.315123 0.4667534 4.140537
v 2.351381 0.6017321 3.864309
v 2.428391 0.9003704 4.089733
v 1.49175 0.2633468 3.900756
v 1.129369 -0.6781865 4.24627
v 1.49175 0.2633468 3.900756
v 1.315123 0.4667534 4.140537
v 1.354045 -0.6368552 3.959199
v 2.056887 -1.389517 4.301198
v 1.354045 -0.6368552 3.959199
v 1.129369 -0.6781865 4.24627
v 2.075974 -1.19868 3.981195
v 3.170152 -0.9558999 4.250394
v 2.075974 -1.19868 3.981195
v 2.056887 -1.389517 4.301198
v 2.935608 -0.8602945 3.944747
v 3.355906 0.18904 4.144661
v 2.935608 -0.8602945 3.944747
v 3.170152 -0.9558999 4.250394
v 3.073309 0.03990762 3.886304
v 2.984028 0.08344095 4.338935
v 2.428391 0.9003704 4.089733
v 3.355906 0.18904 4.144661
v 2.452334 0.5017943 4.320188
v 2.452334 0.5017943 4.320188
v 1.315123 0.4667534 4.140537
v 2.428391 0.9003704 4.089733
v 1.819419 0.2612239 4.375931
v 2.249899 -0.8160459 4.46917
v 1.129369 -0.6781865 4.24627
v 1.718206 -0.3977001 4.450423
v 2.056887 -1.389517 4.301198
v 2.88281 -0.5754753 4.413426
v 2.056887 -1.389517 4.301198
v 2.249899 -0.8160459 4.46917
v 3.170152 -0.9558999 4.250394
v 2.88281 -0.5754753 4.413426
v 3.355906 0.18904 4.144661
v 3.170152 -0.9558999 4.250394
v 2.984028 0.08344095 4.338935
v 2.984028 0.08344095 4.338935
v 1.819419 0.2612239 4.375931
v 2.452334 0.5017943 4.320188
v 1.718206 -0.3977001 4.450423
v 2.88281 -0.5754753 4.413426
v 2.249899 -0.8160459 4.46917

vn 0.7875977 0.2866211 -0.5454102
vn 0.7875977 0.2866211 -0.5454102
vn 0.7875977 0.2866211 -0.5454102
vn 0.793457 0.2873535 -0.5366211
vn 0.793457 0.2873535 -0.5366211
vn 0.793457 0.2873535 -0.5366211
vn -0.02761841 0.1988525 -0.9794922
vn -0.02761841 0.1988525 -0.9794922
vn -0.02761841 0.1988525 -0.9794922
vn -0.0546875 0.1966553 -0.9790039
vn -0.0546875 0.1966553 -0.9790039
vn -0.0546875 0.1966553 -0.9790039
vn -0.8051758 -0.2357178 0.5444336
vn -0.8051758 -0.2357178 0.5444336
vn -0.8051758 -0.2357178 0.5444336
vn -0.7978516 -0.2347412 0.5551758
vn -0.7978516 -0.2347412 0.5551758
vn -0.7978516 -0.2347412 0.5551758
vn 0.05264282 -0.1442871 0.9882813
vn 0.05264282 -0.1442871 0.9882813
vn 0.05264282 -0.1442871 0.9882813
vn 0.02787781 -0.1463623 0.9887695
vn 0.02787781 -0.1463623 0.9887695
vn 0.02787781 -0.1463623 0.9887695
vn 0.8037109 -0.2138672 -0.5551758
vn 0.8037109 -0.2138672 -0.5551758
vn 0.8037109 -0.2138672 -0.5551758
vn 0.7900391 -0.2224121 -0.5712891
vn 0.7900391 -0.2224121 -0.5712891
vn 0.7900391 -0.2224121 -0.5712891
vn -0.8657227 -0.05340576 -0.4975586
vn -0.862793 -0.0609436 -0.5019531
vn -0.862793 -0.0609436 -0.5019531
vn -0.8574219 -0.05102539 -0.512207
vn -0.8574219 -0.05102539 -0.512207
vn -0.8574219 -0.05102539 -0.512207
vn -0.8652344 -0.05847168 -0.4978027
vn -0.8652344 -0.05847168 -0.4978027
vn -0.8652344 -0.05847168 -0.4978027
vn -0.7797852 0.3041992 0.5473633
vn -0.7797852 0.3041992 0.5473633
vn -0.7797852 0.3041992 0.5473633
vn -0.7680664 0.3103027 0.5600586
vn -0.7680664 0.3103027 0.5600586
vn -0.7680664 0.3103027 0.5600586
vn 0.855957 0.1706543 0.4882813
vn 0.855957 0.1706543 0.4882813
vn 0.855957 0.1706543 0.4882813
vn 0.8476563 0.1777344 0.5
vn 0.8476563 0.1777344 0.5
vn 0.8476563 0.1777344 0.5
vn 0.2841797 -0.9575195 -0.05334473
vn 0.2841797 -0.9575195 -0.05334473
vn 0.2841797 -0.9575195 -0.05334473
vn 0.2897949 -0.9570313 -2.986193E-05
vn 0.2897949 -0.9570313 -2.986193E-05
vn 0.2897949 -0.9570313 -2.986193E-05
vn -0.2116699 0.8647461 -0.4550781
vn -0.2116699 0.8647461 -0.4550781
vn -0.2116699 0.8647461 -0.4550781
vn -0.2072754 0.8408203 -0.5004883
vn -0.2072754 0.8408203 -0.5004883
vn -0.2072754 0.8408203 -0.5004883
vn 0.9365234 -0.307373 0.1693115
vn 0.9365234 -0.307373 0.1693115
vn 0.9365234 -0.307373 0.1693115
vn -0.135498 -0.04229736 -0.9897461
vn -0.135498 -0.04229736 -0.9897461
vn -0.135498 -0.04229736 -0.9897461
vn -0.8149414 0.329834 -0.4763184
vn -0.8149414 0.329834 -0.4763184
vn -0.8149414 0.329834 -0.4763184
vn -0.7758789 0.5419922 0.322998
vn -0.7758789 0.5419922 0.322998
vn -0.7758789 0.5419922 0.322998
vn 0.4458008 0.1424561 0.8837891
vn 0.4458008 0.1424561 0.8837891
vn 0.4458008 0.1424561 0.8837891
vn -0.3798828 0.9145508 -0.1392822
vn -0.3847656 0.9121094 -0.1429443
vn -0.373291 0.9179688 -0.1342773
vn -0.3847656 0.9121094 -0.1429443
vn -0.3798828 0.9145508 -0.1392822
vn -0.395752 0.9057617 -0.1514893
vn 0.8588867 0.1129761 0.4997559
vn 0.8588867 0.1129761 0.4997559
vn 0.8588867 0.1129761 0.4997559
vn 0.8530273 0.1113281 0.5097656
vn -0.03335571 -0.3034668 -0.9521484
vn -0.06427002 -0.2958984 -0.953125
vn -0.06860352 -0.2949219 -0.953125
vn -0.02992249 -0.3041992 -0.9521484
vn 0.07293701 0.3725586 0.925293
vn 0.02937317 0.3820801 0.9238281
vn 0.07867432 0.3713379 0.925293
vn 0.02488708 0.3830566 0.9233398
vn 0.04620361 0.06240845 -0.9970703
vn 0.04620361 0.06240845 -0.9970703
vn 0.04620361 0.06240845 -0.9970703
vn 0.05465698 0.01896667 -0.9985352
vn -0.2416992 0.8032227 0.5444336
vn -0.2416992 0.8032227 0.5444336
vn -0.2416992 0.8032227 0.5444336
vn -0.2498779 0.8237305 0.5087891
vn -0.0174408 -0.0559082 0.9980469
vn -0.0174408 -0.0559082 0.9980469
vn -0.0174408 -0.0559082 0.9980469
vn -0.02659607 -0.009933472 0.9995117
vn 0.1508789 -0.9604492 0.2349854
vn 0.1588135 -0.9506836 0.265625
vn 0.1607666 -0.9482422 0.2736816
vn 0.1466064 -0.9648438 0.21875
vn 0.2973633 -0.9541016 -0.03573608
vn 0.2724609 -0.9614258 -0.04226685
vn 0.2648926 -0.9633789 -0.04425049
vn 0.310791 -0.949707 -0.03222656
vn 0.166626 -0.8999023 -0.4033203
vn 0.1279297 -0.9248047 -0.3588867
vn 0.1191406 -0.9296875 -0.3486328
vn 0.1827393 -0.8881836 -0.4216309
vn -0.2561035 -0.8735352 -0.4143066
vn -0.2502441 -0.8867188 -0.388916
vn -0.2486572 -0.8901367 -0.3820801
vn -0.2592773 -0.8662109 -0.4277344
vn -0.4174805 -0.9077148 0.03778076
vn -0.4401855 -0.8974609 0.03118896
vn -0.447998 -0.8935547 0.02891541
vn -0.4033203 -0.9140625 0.04180908
vn -0.1339111 -0.9379883 0.3203125
vn -0.1713867 -0.9155273 0.3635254
vn -0.1804199 -0.909668 0.3737793
vn -0.1157227 -0.9472656 0.2993164
vn 0.1384277 0.9692383 0.2026367
vn 0.1427002 0.9682617 0.2055664
vn 0.1464844 0.9667969 0.208252
vn 0.1365967 0.9697266 0.201416
vn 0.255127 0.9667969 -0.006523132
vn 0.248291 0.96875 -0.002586365
vn 0.241333 0.9702148 0.00138855
vn 0.2585449 0.9658203 -0.008499146
vn 0.1296387 0.9614258 -0.243042
vn 0.1292725 0.965332 -0.2271729
vn 0.1289063 0.9682617 -0.21521
vn 0.1297607 0.9599609 -0.248291
vn -0.1160278 0.972168 -0.2042236
vn -0.1116333 0.9731445 -0.2015381
vn -0.1081543 0.9741211 -0.1993408
vn -0.1179199 0.9716797 -0.2054443
vn -0.1917725 0.9804688 0.03890991
vn -0.1954346 0.9799805 0.04141235
vn -0.2003174 0.9785156 0.04476929
vn -0.1889648 0.9814453 0.03695679
vn -0.06063843 0.9741211 0.2167969
vn -0.06054688 0.9716797 0.2276611
vn -0.0604248 0.9692383 0.2392578
vn -0.06069946 0.9755859 0.2110596
vn 0.009300232 -1 -0.0009646416
vn 0.009300232 -1 -0.0009646416
vn 0.009300232 -1 -0.0009641647
vn 0.009300232 -1 -0.0009646416
vn 0.009300232 -1 -0.0009646416
vn 0.009300232 -1 -0.0009641647
vn 0.2302246 -0.8886719 0.3964844
vn 0.2344971 -0.8798828 0.4128418
vn 0.2355957 -0.8779297 0.4169922
vn 0.2282715 -0.8925781 0.3891602
vn 0.4658203 -0.8823242 -0.06811523
vn 0.4658203 -0.8823242 -0.06811523
vn 0.4658203 -0.8823242 -0.06811523
vn 0.4655762 -0.8823242 -0.0682373
vn 0.2174072 -0.7695313 -0.6000977
vn 0.206665 -0.7817383 -0.5883789
vn 0.204834 -0.7836914 -0.5864258
vn 0.2202148 -0.7666016 -0.6030273
vn -0.4160156 -0.6435547 -0.6425781
vn -0.4099121 -0.6748047 -0.6137695
vn -0.4089355 -0.6796875 -0.6088867
vn -0.4174805 -0.6342773 -0.6508789
vn -0.7163086 -0.6962891 0.05102539
vn -0.7236328 -0.6884766 0.04925537
vn -0.7250977 -0.6870117 0.04885864
vn -0.7133789 -0.6992188 0.05172729
vn -0.2509766 -0.8217773 0.5112305
vn -0.2729492 -0.7973633 0.5380859
vn -0.277832 -0.7919922 0.5439453
vn -0.2421875 -0.831543 0.5
vn 0.2260742 0.9228516 0.3122559
vn 0.2305908 0.9140625 0.333252
vn 0.2246094 0.925293 0.3056641
vn 0.2342529 0.9067383 0.3505859
vn 0.3349609 0.9423828 0.0007805824
vn 0.3544922 0.9350586 0.007472992
vn 0.3212891 0.9467773 -0.003829956
vn 0.3830566 0.9233398 0.01727295
vn 0.151001 0.9643555 -0.2171631
vn 0.1552734 0.9628906 -0.2208252
vn 0.1470947 0.9658203 -0.2139893
vn 0.1623535 0.9604492 -0.2266846
vn -0.08428955 0.9799805 -0.1794434
vn -0.08813477 0.9794922 -0.1811523
vn -0.09509277 0.9780273 -0.1844482
vn -0.08007813 0.980957 -0.1773682
vn -0.2010498 0.9780273 0.05197144
vn -0.211792 0.9755859 0.05862427
vn -0.232666 0.9697266 0.07165527
vn -0.1898193 0.980957 0.04498291
vn -0.08319092 0.940918 0.3283691
vn -0.07055664 0.9458008 0.3168945
vn -0.08740234 0.9389648 0.3322754
vn -0.06207275 0.9487305 0.3093262
vn 0.05157471 0.9960938 0.07287598
vn 0.05157471 0.9960938 0.07287598
vn 0.05157471 0.9960938 0.07287598
vn 0.05157471 0.9960938 0.07287598
vn 0.05157471 0.9960938 0.07287598
vn 0.05160522 0.9960938 0.07287598
vn 0.164917 0.953125 0.2531738
vn 0.164917 0.953125 0.2543945
vn 0.1647949 0.9536133 0.251709
vn 0.164917 0.9521484 0.2578125
vn 0.2441406 0.9682617 0.05099487
vn 0.244751 0.9682617 0.05136108
vn 0.2408447 0.9692383 0.04891968
vn 0.2512207 0.9663086 0.05541992
vn 0.1257324 0.9858398 -0.112793
vn 0.1262207 0.9853516 -0.1130981
vn 0.1243286 0.9858398 -0.1119385
vn 0.1291504 0.9848633 -0.1148071
vn -0.0461731 0.9946289 -0.09008789
vn -0.0458374 0.9951172 -0.08996582
vn -0.04431152 0.9951172 -0.08947754
vn -0.04901123 0.9946289 -0.09100342
vn -0.12323 0.9892578 0.08123779
vn -0.12323 0.9892578 0.08123779
vn -0.1205444 0.9897461 0.07867432
vn -0.1281738 0.987793 0.08587646
vn -0.03062439 0.965332 0.2587891
vn -0.03071594 0.9658203 0.2580566
vn -0.03091431 0.9658203 0.2565918
vn -0.03019714 0.9643555 0.2624512
vn 0.22229 -0.8955078 0.3857422
vn 0.2325439 -0.8886719 0.3952637
vn 0.2194824 -0.8969727 0.3833008
vn 0.2342529 -0.8876953 0.3967285
vn 0.5449219 -0.8334961 -0.09295654
vn 0.5673828 -0.8173828 -0.1001587
vn 0.5366211 -0.8388672 -0.090271
vn 0.5722656 -0.8139648 -0.1018066
vn 0.3098145 -0.4736328 -0.824707
vn 0.3115234 -0.4584961 -0.8325195
vn 0.3093262 -0.4777832 -0.8222656
vn 0.3115234 -0.456543 -0.8334961
vn -0.5151367 -0.1971436 -0.8339844
vn -0.515625 -0.2177734 -0.8286133
vn -0.515625 -0.2215576 -0.8276367
vn -0.5151367 -0.1950684 -0.8344727
vn -0.8535156 -0.5195313 0.03207397
vn -0.8227539 -0.5673828 0.03622437
vn -0.8134766 -0.5805664 0.03741455
vn -0.8579102 -0.5126953 0.03143311
vn -0.2746582 -0.8173828 0.5063477
vn -0.2651367 -0.8295898 0.4916992
vn -0.262207 -0.8325195 0.4875488
vn -0.2763672 -0.8154297 0.5087891
vn 0.2462158 -0.90625 -0.3439941
vn 0.2797852 -0.8876953 -0.3654785
vn 0.2897949 -0.8818359 -0.3718262
vn 0.2271729 -0.9155273 -0.3317871
vn -0.1973877 -0.8764648 -0.4389648
vn -0.1959229 -0.8945313 -0.4018555
vn -0.1954346 -0.8994141 -0.3913574
vn -0.197998 -0.8666992 -0.4575195
vn -0.597168 -0.7993164 -0.07000732
vn -0.543457 -0.8383789 -0.03775024
vn -0.5253906 -0.8505859 -0.02711487
vn -0.625 -0.7758789 -0.08746338
vn -0.3959961 -0.746582 0.534668
vn -0.3742676 -0.765625 0.5234375
vn -0.3659668 -0.7724609 0.519043
vn -0.4094238 -0.734375 0.5410156
vn 0.2427979 -0.777832 0.5795898
vn 0.2418213 -0.7583008 0.6054688
vn 0.241333 -0.7509766 0.6147461
vn 0.2434082 -0.7900391 0.5625
vn 0.5029297 -0.8618164 0.06488037
vn 0.5571289 -0.8251953 0.09606934
vn 0.574707 -0.8115234 0.1065674
vn 0.4665527 -0.8833008 0.04452515
vn 0.2104492 0.9257813 -0.3139648
vn 0.2116699 0.9233398 -0.3205566
vn 0.2131348 0.9204102 -0.3278809
vn 0.2097168 0.9272461 -0.3103027
vn -0.1401367 0.9077148 -0.395752
vn -0.1311035 0.9125977 -0.3874512
vn -0.1226807 0.9169922 -0.3798828
vn -0.144165 0.9052734 -0.3994141
vn -0.4018555 0.9111328 -0.09338379
vn -0.3835449 0.9179688 -0.09979248
vn -0.3671875 0.9243164 -0.1054077
vn -0.4099121 0.9077148 -0.09051514
vn -0.2253418 0.9331055 0.2797852
vn -0.2242432 0.9355469 0.2729492
vn -0.2232666 0.9379883 0.2661133
vn -0.2258301 0.9321289 0.2834473
vn 0.1553955 0.9448242 0.2890625
vn 0.1612549 0.9423828 0.2937012
vn 0.1678467 0.9394531 0.2990723
vn 0.1516113 0.9462891 0.2858887
vn 0.3388672 0.940918 -0.004180908
vn 0.3515625 0.9360352 -0.008865356
vn 0.3669434 0.9301758 -0.01454926
vn 0.3303223 0.9438477 -0.0010252
vn -0.006492615 -1 -0.01500702
vn -0.006492615 -1 -0.01500702
vn -0.006492615 -1 -0.01500702
vn -0.006492615 -1 -0.01500702
vn -0.006492615 -1 -0.01500702
vn -0.006492615 -1 -0.01500702
vn 0.394043 -0.7714844 -0.4995117
vn 0.4082031 -0.7587891 -0.5078125
vn 0.4125977 -0.7543945 -0.5102539
vn 0.3867188 -0.777832 -0.4951172
vn -0.2937012 -0.7319336 -0.6152344
vn -0.2937012 -0.7314453 -0.6152344
vn -0.2937012 -0.7314453 -0.6152344
vn -0.2937012 -0.7319336 -0.6147461
vn -0.7885742 -0.6123047 -0.05596924
vn -0.7792969 -0.625 -0.0480957
vn -0.7763672 -0.628418 -0.0458374
vn -0.7924805 -0.6069336 -0.0592041
vn -0.5107422 -0.4663086 0.722168
vn -0.4936523 -0.4916992 0.7172852
vn -0.4885254 -0.4990234 0.7158203
vn -0.5180664 -0.4550781 0.7241211
vn 0.3244629 -0.484375 0.8125
vn 0.3237305 -0.4772949 0.8168945
vn 0.3234863 -0.4753418 0.8183594
vn 0.324707 -0.487793 0.8105469
vn 0.7270508 -0.671875 0.1411133
vn 0.7490234 -0.644043 0.1544189
vn 0.7568359 -0.6337891 0.1593018
vn 0.7138672 -0.6879883 0.1331787
vn 0.2998047 0.8276367 -0.4741211
vn 0.3200684 0.8139648 -0.4846191
vn 0.2912598 0.8334961 -0.4697266
vn 0.3388672 0.8007813 -0.4938965
vn -0.1639404 0.8491211 -0.5019531
vn -0.1629639 0.8330078 -0.5288086
vn -0.1645508 0.8598633 -0.4836426
vn -0.161377 0.809082 -0.5654297
vn -0.2097168 0.9526367 0.2210693
vn -0.210083 0.9511719 0.2265625
vn -0.2105713 0.9477539 0.2397461
vn -0.2093506 0.9541016 0.2130127
vn 0.1768799 0.9389648 0.2954102
vn 0.1932373 0.9306641 0.3100586
vn 0.2191162 0.9169922 0.333252
vn 0.163208 0.9448242 0.2832031
vn 0.486084 0.8735352 -0.01976013
vn 0.4697266 0.8823242 -0.03222656
vn 0.4934082 0.8696289 -0.01412201
vn 0.4550781 0.8896484 -0.04333496
vn 0.0446167 0.9931641 -0.1062622
vn 0.0446167 0.9931641 -0.1062622
vn 0.0446167 0.9931641 -0.1062622
vn 0.0446167 0.9931641 -0.1062622
vn 0.0446167 0.9931641 -0.1062622
vn 0.0446167 0.9931641 -0.1062622

vt 0.7924805 0.4421387
vt 0.8217773 0.357666
vt 0.7978516 0.4404297
vt 0.8217773 0.357666
vt 0.7924805 0.4421387
vt 0.8149414 0.357666
vt 0.7924805 0.4421387
vt 0.8007813 0.357666
vt 0.8149414 0.357666
vt 0.8007813 0.357666
vt 0.7924805 0.4421387
vt 0.7822266 0.4428711
vt 0.7768555 0.4421387
vt 0.8007813 0.357666
vt 0.7939453 0.357666
vt 0.8007813 0.357666
vt 0.7768555 0.4421387
vt 0.7822266 0.4404297
vt 0.7929688 0.4396973
vt 0.8007813 0.357666
vt 0.7822266 0.4404297
vt 0.8007813 0.357666
vt 0.7929688 0.4396973
vt 0.8149414 0.357666
vt 0.8032227 0.6630859
vt 0.7978516 0.4404297
vt 0.8066406 0.6621094
vt 0.7978516 0.4404297
vt 0.8032227 0.6630859
vt 0.7924805 0.4421387
vt 0.7768555 0.4421387
vt 0.7958984 0.6645508
vt 0.7924805 0.6655273
vt 0.7939453 0.357666
vt 0.7822266 0.4428711
vt 0.8007813 0.357666
vt 0.7958984 0.6645508
vt 0.7768555 0.4421387
vt 0.7822266 0.4428711
vt 0.7822266 0.4404297
vt 0.7924805 0.6655273
vt 0.7958984 0.6645508
vt 0.7924805 0.6655273
vt 0.7822266 0.4404297
vt 0.7768555 0.4421387
vt 0.8066406 0.6621094
vt 0.7929688 0.4396973
vt 0.8032227 0.6630859
vt 0.7929688 0.4396973
vt 0.8066406 0.6621094
vt 0.7978516 0.4404297
vt 0.7890625 0.4775391
vt 0.8266602 0.4970703
vt 0.7924805 0.4780273
vt 0.8266602 0.4970703
vt 0.7890625 0.4775391
vt 0.8217773 0.4960938
vt 0.8251953 0.5048828
vt 0.7885742 0.4924316
vt 0.7910156 0.487793
vt 0.7885742 0.4924316
vt 0.8251953 0.5048828
vt 0.8217773 0.5083008
vt 0.8217773 0.4960938
vt 0.8486328 0.5424805
vt 0.8266602 0.4970703
vt 0.8266602 0.4970703
vt 0.8486328 0.5424805
vt 0.8251953 0.5048828
vt 0.8251953 0.5048828
vt 0.8486328 0.5424805
vt 0.8217773 0.5083008
vt 0.8217773 0.5083008
vt 0.8486328 0.5424805
vt 0.8198242 0.5039063
vt 0.8198242 0.5039063
vt 0.8486328 0.5424805
vt 0.8217773 0.4960938
vt 0.2272949 0.5209961
vt 0.1964111 0.5068359
vt 0.1676025 0.4951172
vt 0.1964111 0.5068359
vt 0.2272949 0.5209961
vt 0.2443848 0.5292969
vt 0.7978516 0.4404297
vt 0.8149414 0.357666
vt 0.7929688 0.4396973
vt 0.8217773 0.357666
vt 0.7822266 0.4428711
vt 0.8032227 0.6630859
vt 0.7958984 0.6645508
vt 0.7924805 0.4421387
vt 0.8032227 0.6630859
vt 0.7822266 0.4404297
vt 0.7958984 0.6645508
vt 0.7929688 0.4396973
vt 0.8266602 0.4970703
vt 0.7910156 0.487793
vt 0.7924805 0.4780273
vt 0.8251953 0.5048828
vt 0.8217773 0.5083008
vt 0.7875977 0.4870605
vt 0.7885742 0.4924316
vt 0.8198242 0.5039063
vt 0.7875977 0.4870605
vt 0.8217773 0.4960938
vt 0.7890625 0.4775391
vt 0.8198242 0.5039063
vt 0.3933105 0.1734619
vt 0.4284668 0.1466064
vt 0.4833984 0.1766357
vt 0.3649902 0.1486816
vt 0.2131348 0.1793213
vt 0.3649902 0.1486816
vt 0.3933105 0.1734619
vt 0.2376709 0.1486816
vt 0.1229858 0.1884766
vt 0.2376709 0.1486816
vt 0.2131348 0.1793213
vt 0.1740723 0.1466064
vt 0.2131348 0.1917725
vt 0.1740723 0.1466064
vt 0.1229858 0.1884766
vt 0.2376709 0.1445313
vt 0.3933105 0.185791
vt 0.2376709 0.1445313
vt 0.2131348 0.1917725
vt 0.3649902 0.1445313
vt 0.4833984 0.1766357
vt 0.3649902 0.1445313
vt 0.3933105 0.185791
vt 0.4284668 0.1466064
vt 0.3540039 0.2030029
vt 0.4833984 0.1766357
vt 0.4084473 0.2060547
vt 0.3933105 0.1734619
vt 0.2451172 0.2080078
vt 0.3933105 0.1734619
vt 0.3540039 0.2030029
vt 0.2131348 0.1793213
vt 0.1906738 0.2161865
vt 0.2131348 0.1793213
vt 0.2451172 0.2080078
vt 0.1229858 0.1884766
vt 0.2451172 0.2192383
vt 0.1229858 0.1884766
vt 0.1906738 0.2161865
vt 0.2131348 0.1917725
vt 0.3540039 0.2141113
vt 0.2131348 0.1917725
vt 0.2451172 0.2192383
vt 0.3933105 0.185791
vt 0.4084473 0.2060547
vt 0.3933105 0.185791
vt 0.3540039 0.2141113
vt 0.4833984 0.1766357
vt 0.3649902 0.1445313
vt 0.1740723 0.1466064
vt 0.2376709 0.1445313
vt 0.4284668 0.1466064
vt 0.2376709 0.1486816
vt 0.3649902 0.1486816
vt 0.3557129 0.484375
vt 0.4020996 0.4448242
vt 0.4545898 0.4951172
vt 0.3254395 0.4406738
vt 0.1575928 0.4943848
vt 0.3254395 0.4406738
vt 0.3557129 0.484375
vt 0.1722412 0.4477539
vt 0.05856323 0.5151367
vt 0.1722412 0.4477539
vt 0.1575928 0.4943848
vt 0.09570313 0.4589844
vt 0.1575928 0.5258789
vt 0.09570313 0.4589844
vt 0.05856323 0.5151367
vt 0.1722412 0.4633789
vt 0.3557129 0.515625
vt 0.1722412 0.4633789
vt 0.1575928 0.5258789
vt 0.3254395 0.4562988
vt 0.4545898 0.4951172
vt 0.3254395 0.4562988
vt 0.3557129 0.515625
vt 0.4020996 0.4448242
vt 0.3908691 0.5332031
vt 0.3557129 0.484375
vt 0.4545898 0.4951172
vt 0.3347168 0.5292969
vt 0.3347168 0.5292969
vt 0.1575928 0.4943848
vt 0.3557129 0.484375
vt 0.2225342 0.5400391
vt 0.2225342 0.5400391
vt 0.05856323 0.5151367
vt 0.1575928 0.4943848
vt 0.1665039 0.5546875
vt 0.2225342 0.5585938
vt 0.05856323 0.5151367
vt 0.1665039 0.5546875
vt 0.1575928 0.5258789
vt 0.3347168 0.5473633
vt 0.1575928 0.5258789
vt 0.2225342 0.5585938
vt 0.3557129 0.515625
vt 0.3347168 0.5473633
vt 0.4545898 0.4951172
vt 0.3557129 0.515625
vt 0.3908691 0.5332031
vt 0.2423096 0.8666992
vt 0.3605957 0.8442383
vt 0.3212891 0.855957
vt 0.2028809 0.8662109
vt 0.3212891 0.8432617
vt 0.2423096 0.8540039
vt 0.3605957 0.8442383
vt 0.3659668 0.7915039
vt 0.4621582 0.7954102
vt 0.3212891 0.8432617
vt 0.3212891 0.8432617
vt 0.1734619 0.815918
vt 0.3659668 0.7915039
vt 0.2423096 0.8540039
vt 0.2423096 0.8540039
vt 0.07714844 0.84375
vt 0.1734619 0.815918
vt 0.2028809 0.8662109
vt 0.07714844 0.84375
vt 0.2423096 0.8666992
vt 0.1734619 0.847168
vt 0.2028809 0.8662109
vt 0.1734619 0.847168
vt 0.3212891 0.855957
vt 0.3659668 0.8227539
vt 0.2423096 0.8666992
vt 0.3659668 0.8227539
vt 0.3605957 0.8442383
vt 0.4621582 0.7954102
vt 0.3212891 0.855957
vt 0.4621582 0.7954102
vt 0.3369141 0.7519531
vt 0.4194336 0.7573242
vt 0.3659668 0.7915039
vt 0.3659668 0.7915039
vt 0.1717529 0.7680664
vt 0.3369141 0.7519531
vt 0.1734619 0.815918
vt 0.1734619 0.815918
vt 0.08929443 0.7895508
vt 0.1717529 0.7680664
vt 0.07714844 0.84375
vt 0.08929443 0.7895508
vt 0.1734619 0.847168
vt 0.1717529 0.7949219
vt 0.07714844 0.84375
vt 0.1717529 0.7949219
vt 0.3659668 0.8227539
vt 0.3369141 0.7788086
vt 0.1734619 0.847168
vt 0.3369141 0.7788086
vt 0.4621582 0.7954102
vt 0.4194336 0.7573242
vt 0.3659668 0.8227539
vt 0.253418 0.1755371
vt 0.3896484 0.1519775
vt 0.4306641 0.1783447
vt 0.2644043 0.1538086
vt 0.1193237 0.1806641
vt 0.2644043 0.1538086
vt 0.253418 0.1755371
vt 0.170166 0.1538086
vt 0.1627197 0.1887207
vt 0.170166 0.1538086
vt 0.1193237 0.1806641
vt 0.2009277 0.1519775
vt 0.3400879 0.1916504
vt 0.2009277 0.1519775
vt 0.1627197 0.1887207
vt 0.3259277 0.1501465
vt 0.4741211 0.1864014
vt 0.3259277 0.1501465
vt 0.3400879 0.1916504
vt 0.4204102 0.1501465
vt 0.4306641 0.1783447
vt 0.4204102 0.1501465
vt 0.4741211 0.1864014
vt 0.3896484 0.1519775
vt 0.2631836 0.2015381
vt 0.4306641 0.1783447
vt 0.3703613 0.2042236
vt 0.253418 0.1755371
vt 0.1820068 0.2059326
vt 0.253418 0.1755371
vt 0.2631836 0.2015381
vt 0.1193237 0.1806641
vt 0.2080078 0.2131348
vt 0.1193237 0.1806641
vt 0.1820068 0.2059326
vt 0.1627197 0.1887207
vt 0.3151855 0.2158203
vt 0.1627197 0.1887207
vt 0.2080078 0.2131348
vt 0.3400879 0.1916504
vt 0.3962402 0.2113037
vt 0.3400879 0.1916504
vt 0.3151855 0.2158203
vt 0.4741211 0.1864014
vt 0.3703613 0.2042236
vt 0.4741211 0.1864014
vt 0.3962402 0.2113037
vt 0.4306641 0.1783447
vt 0.4204102 0.1501465
vt 0.2009277 0.1519775
vt 0.3259277 0.1501465
vt 0.3896484 0.1519775
vt 0.170166 0.1538086
vt 0.2644043 0.1538086
vt 0.2624512 0.4897461
vt 0.3635254 0.4672852
vt 0.3859863 0.4956055
vt 0.2670898 0.4648438
vt 0.1676025 0.4951172
vt 0.2670898 0.4648438
vt 0.2624512 0.4897461
vt 0.1939697 0.4689941
vt 0.1964111 0.5068359
vt 0.1939697 0.4689941
vt 0.1676025 0.4951172
vt 0.2174072 0.4753418
vt 0.3198242 0.5126953
vt 0.2174072 0.4753418
vt 0.1964111 0.5068359
vt 0.3139648 0.4777832
vt 0.4147949 0.5073242
vt 0.3139648 0.4777832
vt 0.3198242 0.5126953
vt 0.3869629 0.4736328
vt 0.3859863 0.4956055
vt 0.3869629 0.4736328
vt 0.4147949 0.5073242
vt 0.3635254 0.4672852
vt 0.3527832 0.5170898
vt 0.2624512 0.4897461
vt 0.3859863 0.4956055
vt 0.2814941 0.5146484
vt 0.2814941 0.5146484
vt 0.1676025 0.4951172
vt 0.2624512 0.4897461
vt 0.2272949 0.5209961
vt 0.3156738 0.53125
vt 0.1964111 0.5068359
vt 0.2443848 0.5292969
vt 0.3198242 0.5126953
vt 0.369873 0.5249023
vt 0.3198242 0.5126953
vt 0.3156738 0.53125
vt 0.4147949 0.5073242
vt 0.369873 0.5249023
vt 0.3859863 0.4956055
vt 0.4147949 0.5073242
vt 0.3527832 0.5170898
vt 0.3527832 0.5170898
vt 0.2272949 0.5209961
vt 0.2814941 0.5146484
vt 0.2443848 0.5292969
vt 0.369873 0.5249023
vt 0.3156738 0.53125

g Tree_12_Green_(2)_374_70
usemtl Tree_12_Green_(2)_374_70
usemap Tree_12_Green_(2)_374_70
f 1/1/1 3/3/3 2/2/2
f 4/4/4 6/6/6 5/5/5
f 7/7/7 9/9/9 8/8/8
f 10/10/10 12/12/12 11/11/11
f 13/13/13 15/15/15 14/14/14
f 16/16/16 18/18/18 17/17/17
f 19/19/19 21/21/21 20/20/20
f 22/22/22 24/24/24 23/23/23
f 25/25/25 27/27/27 26/26/26
f 28/28/28 30/30/30 29/29/29
f 31/31/31 33/33/33 32/32/32
f 34/34/34 31/31/31 35/35/35
f 35/35/35 36/36/36 34/34/34
f 37/37/37 39/39/39 38/38/38
f 40/40/40 42/42/42 41/41/41
f 43/43/43 45/45/45 44/44/44
f 46/46/46 48/48/48 47/47/47
f 49/49/49 51/51/51 50/50/50
f 52/52/52 54/54/54 53/53/53
f 55/55/55 57/57/57 56/56/56
f 58/58/58 60/60/60 59/59/59
f 61/61/61 63/63/63 62/62/62
f 64/64/64 66/66/66 65/65/65
f 67/67/67 69/69/69 68/68/68
f 70/70/70 72/72/72 71/71/71
f 73/73/73 75/75/75 74/74/74
f 76/76/76 78/78/78 77/77/77
f 79/79/79 81/81/81 80/80/80
f 82/82/82 84/84/84 83/83/83
f 85/85/85 87/87/87 86/86/86
f 86/86/86 88/88/88 85/85/85
f 89/89/89 91/91/91 90/90/90
f 90/90/90 92/92/92 89/89/89
f 93/93/93 95/95/95 94/94/94
f 94/94/94 96/96/96 93/93/93
f 97/97/97 99/99/99 98/98/98
f 98/98/98 100/100/100 97/97/97
f 101/101/101 103/103/103 102/102/102
f 102/102/102 104/104/104 101/101/101
f 105/105/105 107/107/107 106/106/106
f 106/106/106 108/108/108 105/105/105
f 109/109/109 111/111/111 110/110/110
f 110/110/110 112/112/112 109/109/109
f 113/113/113 115/115/115 114/114/114
f 114/114/114 116/116/116 113/113/113
f 117/117/117 119/119/119 118/118/118
f 118/118/118 120/120/120 117/117/117
f 121/121/121 123/123/123 122/122/122
f 122/122/122 124/124/124 121/121/121
f 125/125/125 127/127/127 126/126/126
f 126/126/126 128/128/128 125/125/125
f 129/129/129 131/131/131 130/130/130
f 130/130/130 132/132/132 129/129/129
f 133/133/133 135/135/135 134/134/134
f 134/134/134 136/136/136 133/133/133
f 137/137/137 139/139/139 138/138/138
f 138/138/138 140/140/140 137/137/137
f 141/141/141 143/143/143 142/142/142
f 142/142/142 144/144/144 141/141/141
f 145/145/145 147/147/147 146/146/146
f 146/146/146 148/148/148 145/145/145
f 149/149/149 151/151/151 150/150/150
f 150/150/150 152/152/152 149/149/149
f 153/153/153 155/155/155 154/154/154
f 154/154/154 156/156/156 153/153/153
f 157/157/157 159/159/159 158/158/158
f 158/158/158 160/160/160 157/157/157
f 160/160/160 158/158/158 161/161/161
f 161/161/161 162/162/162 160/160/160
f 163/163/163 165/165/165 164/164/164
f 164/164/164 166/166/166 163/163/163
f 167/167/167 169/169/169 168/168/168
f 168/168/168 170/170/170 167/167/167
f 171/171/171 173/173/173 172/172/172
f 172/172/172 174/174/174 171/171/171
f 175/175/175 177/177/177 176/176/176
f 176/176/176 178/178/178 175/175/175
f 179/179/179 181/181/181 180/180/180
f 180/180/180 182/182/182 179/179/179
f 183/183/183 185/185/185 184/184/184
f 184/184/184 186/186/186 183/183/183
f 187/187/187 189/189/189 188/188/188
f 188/188/188 190/190/190 187/187/187
f 191/191/191 193/193/193 192/192/192
f 192/192/192 194/194/194 191/191/191
f 195/195/195 197/197/197 196/196/196
f 196/196/196 198/198/198 195/195/195
f 199/199/199 201/201/201 200/200/200
f 200/200/200 202/202/202 199/199/199
f 203/203/203 205/205/205 204/204/204
f 204/204/204 206/206/206 203/203/203
f 207/207/207 209/209/209 208/208/208
f 208/208/208 210/210/210 207/207/207
f 211/211/211 213/213/213 212/212/212
f 212/212/212 214/214/214 211/211/211
f 214/214/214 212/212/212 215/215/215
f 215/215/215 216/216/216 214/214/214
f 217/217/217 219/219/219 218/218/218
f 218/218/218 220/220/220 217/217/217
f 221/221/221 223/223/223 222/222/222
f 222/222/222 224/224/224 221/221/221
f 225/225/225 227/227/227 226/226/226
f 226/226/226 228/228/228 225/225/225
f 229/229/229 231/231/231 230/230/230
f 230/230/230 232/232/232 229/229/229
f 233/233/233 235/235/235 234/234/234
f 234/234/234 236/236/236 233/233/233
f 237/237/237 239/239/239 238/238/238
f 238/238/238 240/240/240 237/237/237
f 241/241/241 243/243/243 242/242/242
f 242/242/242 244/244/244 241/241/241
f 245/245/245 247/247/247 246/246/246
f 246/246/246 248/248/248 245/245/245
f 249/249/249 251/251/251 250/250/250
f 250/250/250 252/252/252 249/249/249
f 253/253/253 255/255/255 254/254/254
f 254/254/254 256/256/256 253/253/253
f 257/257/257 259/259/259 258/258/258
f 258/258/258 260/260/260 257/257/257
f 261/261/261 263/263/263 262/262/262
f 262/262/262 264/264/264 261/261/261
f 265/265/265 267/267/267 266/266/266
f 266/266/266 268/268/268 265/265/265
f 269/269/269 271/271/271 270/270/270
f 270/270/270 272/272/272 269/269/269
f 273/273/273 275/275/275 274/274/274
f 274/274/274 276/276/276 273/273/273
f 277/277/277 279/279/279 278/278/278
f 278/278/278 280/280/280 277/277/277
f 281/281/281 283/283/283 282/282/282
f 282/282/282 284/284/284 281/281/281
f 285/285/285 287/287/287 286/286/286
f 286/286/286 288/288/288 285/285/285
f 289/289/289 291/291/291 290/290/290
f 290/290/290 292/292/292 289/289/289
f 293/293/293 295/295/295 294/294/294
f 294/294/294 296/296/296 293/293/293
f 297/297/297 299/299/299 298/298/298
f 298/298/298 300/300/300 297/297/297
f 301/301/301 303/303/303 302/302/302
f 302/302/302 304/304/304 301/301/301
f 305/305/305 307/307/307 306/306/306
f 306/306/306 308/308/308 305/305/305
f 309/309/309 311/311/311 310/310/310
f 310/310/310 312/312/312 309/309/309
f 313/313/313 315/315/315 314/314/314
f 314/314/314 316/316/316 313/313/313
f 316/316/316 314/314/314 317/317/317
f 317/317/317 318/318/318 316/316/316
f 319/319/319 321/321/321 320/320/320
f 320/320/320 322/322/322 319/319/319
f 323/323/323 325/325/325 324/324/324
f 324/324/324 326/326/326 323/323/323
f 327/327/327 329/329/329 328/328/328
f 328/328/328 330/330/330 327/327/327
f 331/331/331 333/333/333 332/332/332
f 332/332/332 334/334/334 331/331/331
f 335/335/335 337/337/337 336/336/336
f 336/336/336 338/338/338 335/335/335
f 339/339/339 341/341/341 340/340/340
f 340/340/340 342/342/342 339/339/339
f 343/343/343 345/345/345 344/344/344
f 344/344/344 346/346/346 343/343/343
f 347/347/347 349/349/349 348/348/348
f 348/348/348 350/350/350 347/347/347
f 351/351/351 353/353/353 352/352/352
f 352/352/352 354/354/354 351/351/351
f 355/355/355 357/357/357 356/356/356
f 356/356/356 358/358/358 355/355/355
f 359/359/359 361/361/361 360/360/360
f 360/360/360 362/362/362 359/359/359
f 363/363/363 365/365/365 364/364/364
f 364/364/364 366/366/366 363/363/363
f 367/367/367 363/363/363 366/366/366
f 366/366/366 368/368/368 367/367/367
