#Tree_12_Green_373_69.obj

v -0.3694401 -0.2337494 3.06073
v 0.5435352 0.04249954 -5.066481E-09
v -0.1991272 -0.4884911 3.048805
v 0.5435352 0.04249954 -5.066481E-09
v -0.3694401 -0.2337494 3.06073
v 0.3241844 0.3872833 -4.616782E-08
v -0.3694401 -0.2337494 3.06073
v -0.1145191 0.3872833 -4.616782E-08
v 0.3241844 0.3872833 -4.616782E-08
v -0.1145191 0.3872833 -4.616782E-08
v -0.3694401 -0.2337494 3.06073
v -0.6978054 -0.2397308 3.045327
v -0.8558578 -0.5004539 3.017998
v -0.1145191 -0.3022804 3.603485E-08
v -0.3338718 0.04249954 -5.066477E-09
v -0.1145191 -0.3022804 3.603485E-08
v -0.8558578 -0.5004539 3.017998
v -0.685545 -0.7551994 3.006072
v -0.3571796 -0.749218 3.021476
v -0.1145191 -0.3022804 3.603485E-08
v -0.685545 -0.7551994 3.006072
v -0.1145191 -0.3022804 3.603485E-08
v -0.3571796 -0.749218 3.021476
v 0.3241844 -0.3022804 3.603485E-08
v -0.2751789 0.282547 4.67662
v -0.1991272 -0.4884911 3.048805
v -0.1669502 0.1098061 4.661294
v -0.1991272 -0.4884911 3.048805
v -0.2751789 0.282547 4.67662
v -0.3694401 -0.2337494 3.06073
v -0.8558578 -0.5004539 3.017998
v -0.4916363 0.282547 4.707273
v -0.599865 0.1098061 4.722598
v -0.3338718 0.04249954 -5.066477E-09
v -0.6978054 -0.2397308 3.045327
v -0.1145191 0.3872833 -4.616782E-08
v -0.4916363 0.282547 4.707273
v -0.8558578 -0.5004539 3.017998
v -0.6978054 -0.2397308 3.045327
v -0.685545 -0.7551994 3.006072
v -0.599865 0.1098061 4.722598
v -0.4916363 -0.06293488 4.707273
v -0.599865 0.1098061 4.722598
v -0.685545 -0.7551994 3.006072
v -0.8558578 -0.5004539 3.017998
v -0.1669502 0.1098061 4.661294
v -0.3571796 -0.749218 3.021476
v -0.2751789 -0.06293488 4.67662
v -0.3571796 -0.749218 3.021476
v -0.1669502 0.1098061 4.661294
v -0.1991272 -0.4884911 3.048805
v -0.2071514 -0.5350914 2.197926
v 1.952267 -0.3657875 2.850094
v -0.2171535 -0.1639099 2.212508
v 1.952267 -0.3657875 2.850094
v -0.2071514 -0.5350914 2.197926
v 1.883123 -0.6660881 2.831719
v 1.897533 -0.3644753 3.019996
v -0.2843685 -0.3637428 2.518226
v -0.2652969 -0.1734047 2.42118
v -0.2843685 -0.3637428 2.518226
v 1.897533 -0.3644753 3.019996
v 1.835594 -0.5139732 3.09576
v 1.883123 -0.6660881 2.831719
v 2.332396 -0.2780037 3.945592
v 1.952267 -0.3657875 2.850094
v 1.952267 -0.3657875 2.850094
v 2.332396 -0.2780037 3.945592
v 1.897533 -0.3644753 3.019996
v 1.897533 -0.3644753 3.019996
v 2.332396 -0.2780037 3.945592
v 1.835594 -0.5139732 3.09576
v 1.835594 -0.5139732 3.09576
v 2.332396 -0.2780037 3.945592
v 1.82839 -0.6647758 3.001621
v 1.82839 -0.6647758 3.001621
v 2.332396 -0.2780037 3.945592
v 1.883123 -0.6660881 2.831719
v 1.819422 0.261219 4.375931
v 1.12937 -0.6781883 4.24627
v 1.315123 0.4667511 4.140537
v 1.12937 -0.6781883 4.24627
v 1.819422 0.261219 4.375931
v 1.718204 -0.3977013 4.450423
v -0.1991272 -0.4884911 3.048805
v 0.3241844 -0.3022804 3.603485E-08
v -0.3571796 -0.749218 3.021476
v 0.5435352 0.04249954 -5.066481E-09
v -0.6978054 -0.2397308 3.045327
v -0.2751789 0.282547 4.67662
v -0.4916363 0.282547 4.707273
v -0.3694401 -0.2337494 3.06073
v -0.2751789 -0.06293488 4.67662
v -0.685545 -0.7551994 3.006072
v -0.4916363 -0.06293488 4.707273
v -0.3571796 -0.749218 3.021476
v 1.952267 -0.3657875 2.850094
v -0.2652969 -0.1734047 2.42118
v -0.2171535 -0.1639099 2.212508
v 1.897533 -0.3644753 3.019996
v 1.835594 -0.5139732 3.09576
v -0.2552948 -0.54459 2.406599
v -0.2843685 -0.3637428 2.518226
v 1.82839 -0.6647758 3.001621
v -0.2552948 -0.54459 2.406599
v 1.883123 -0.6660881 2.831719
v -0.2071514 -0.5350914 2.197926
v 1.82839 -0.6647758 3.001621
v 2.275564 -1.581882 4.649595
v -0.5013123 -2.291759 4.409579
v -0.4427757 -3.177616 4.678726
v 1.416126 -1.164974 4.428249
v 2.064575 1.328949 4.702488
v 1.416126 -1.164974 4.428249
v 2.275564 -1.581882 4.649595
v 1.261389 0.8903618 4.428249
v -0.8647537 2.644054 4.784512
v 1.261389 0.8903618 4.428249
v 2.064575 1.328949 4.702488
v -0.8107872 1.818909 4.409579
v -3.583094 1.048325 4.813643
v -0.8107872 1.818909 4.409579
v -0.8647537 2.644054 4.784512
v -2.728228 0.6921234 4.390908
v -3.372105 -1.862507 4.76075
v -2.728228 0.6921234 4.390908
v -3.583094 1.048325 4.813643
v -2.57349 -1.363209 4.390908
v -0.4427757 -3.177616 4.678726
v -2.57349 -1.363209 4.390908
v -3.372105 -1.862507 4.76075
v -0.5013123 -2.291759 4.409579
v 1.228525 -0.995945 4.914714
v -0.4427757 -3.177616 4.678726
v -0.413866 -1.959499 4.941957
v 2.275564 -1.581882 4.649595
v 1.106529 0.7618828 4.959858
v 2.275564 -1.581882 4.649595
v 1.228525 -0.995945 4.914714
v 2.064575 1.328949 4.702488
v -0.6578579 1.556156 5.032245
v 2.064575 1.328949 4.702488
v 1.106529 0.7618828 4.959858
v -0.8647537 2.644054 4.784512
v -2.300251 0.5926056 5.059489
v -0.8647537 2.644054 4.784512
v -0.6578579 1.556156 5.032245
v -3.583094 1.048325 4.813643
v -2.178253 -1.165226 5.014344
v -3.583094 1.048325 4.813643
v -2.300251 0.5926056 5.059489
v -3.372105 -1.862507 4.76075
v -0.413866 -1.959499 4.941957
v -3.372105 -1.862507 4.76075
v -2.178253 -1.165226 5.014344
v -0.4427757 -3.177616 4.678726
v -2.57349 -1.363209 4.390908
v -0.8107872 1.818909 4.409579
v -2.728228 0.6921234 4.390908
v -0.5013123 -2.291759 4.409579
v 1.261389 0.8903618 4.428249
v 1.416126 -1.164974 4.428249
v 1.792866 -1.316021 5.193923
v -0.413866 -1.959499 4.941957
v -0.2956009 -2.560329 5.261958
v 1.228525 -0.995945 4.914714
v 1.644371 0.9576607 5.256851
v 1.228525 -0.995945 4.914714
v 1.792866 -1.316021 5.193923
v 1.106529 0.7618828 4.959858
v -0.5925922 1.987041 5.387812
v 1.106529 0.7618828 4.959858
v 1.644371 0.9576607 5.256851
v -0.6578579 1.556156 5.032245
v -2.681061 0.7427368 5.455846
v -0.6578579 1.556156 5.032245
v -0.5925922 1.987041 5.387812
v -2.300251 0.5926056 5.059489
v -2.532564 -1.530949 5.392919
v -2.300251 0.5926056 5.059489
v -2.681061 0.7427368 5.455846
v -2.178253 -1.165226 5.014344
v -0.2956009 -2.560329 5.261958
v -2.178253 -1.165226 5.014344
v -2.532564 -1.530949 5.392919
v -0.413866 -1.959499 4.941957
v -0.2642574 -1.824604 5.502586
v 1.792866 -1.316021 5.193923
v -0.2956009 -2.560329 5.261958
v 0.9547768 -1.117733 5.479366
v 0.9547768 -1.117733 5.479366
v 1.644371 0.9576607 5.256851
v 1.792866 -1.316021 5.193923
v 0.8826199 0.1712952 5.54841
v 0.8826199 0.1712952 5.54841
v -0.5925922 1.987041 5.387812
v 1.644371 0.9576607 5.256851
v -0.4085751 0.7534447 5.640676
v -1.627609 0.04656601 5.663896
v -0.5925922 1.987041 5.387812
v -0.4085751 0.7534447 5.640676
v -2.681061 0.7427368 5.455846
v -1.55545 -1.242458 5.59485
v -2.681061 0.7427368 5.455846
v -1.627609 0.04656601 5.663896
v -2.532564 -1.530949 5.392919
v -1.55545 -1.242458 5.59485
v -0.2956009 -2.560329 5.261958
v -2.532564 -1.530949 5.392919
v -0.2642574 -1.824604 5.502586
v -0.8097305 -0.4655724 5.976283
v -0.1641083 -1.359921 5.877484
v -0.7804317 -1.081738 5.928871
v -0.2227077 -0.1275902 5.972309
v 0.4229126 -1.021946 5.87351
v 0.3936138 -0.405777 5.920921
v -0.1641083 -1.359921 5.877484
v 1.251787 -1.331303 5.651052
v -0.1803112 -2.15659 5.666137
v 0.4229126 -1.021946 5.87351
v 0.4229126 -1.021946 5.87351
v 1.17639 0.1732063 5.756121
v 1.251787 -1.331303 5.651052
v 0.3936138 -0.405777 5.920921
v 0.3936138 -0.405777 5.920921
v -0.3311043 0.8524284 5.876274
v 1.17639 0.1732063 5.756121
v -0.2227077 -0.1275902 5.972309
v -0.3311043 0.8524284 5.876274
v -0.8097305 -0.4655724 5.976283
v -1.763203 0.02714157 5.891359
v -0.2227077 -0.1275902 5.972309
v -1.763203 0.02714157 5.891359
v -0.7804317 -1.081738 5.928871
v -1.687807 -1.477367 5.786289
v -0.8097305 -0.4655724 5.976283
v -1.687807 -1.477367 5.786289
v -0.1641083 -1.359921 5.877484
v -0.1803112 -2.15659 5.666137
v -0.7804317 -1.081738 5.928871
v -0.1803112 -2.15659 5.666137
v 0.9547768 -1.117733 5.479366
v -0.2642574 -1.824604 5.502586
v 1.251787 -1.331303 5.651052
v 1.251787 -1.331303 5.651052
v 0.8826199 0.1712952 5.54841
v 0.9547768 -1.117733 5.479366
v 1.17639 0.1732063 5.756121
v 1.17639 0.1732063 5.756121
v -0.4085751 0.7534447 5.640676
v 0.8826199 0.1712952 5.54841
v -0.3311043 0.8524284 5.876274
v -0.4085751 0.7534447 5.640676
v -1.763203 0.02714157 5.891359
v -1.627609 0.04656601 5.663896
v -0.3311043 0.8524284 5.876274
v -1.627609 0.04656601 5.663896
v -1.687807 -1.477367 5.786289
v -1.55545 -1.242458 5.59485
v -1.763203 0.02714157 5.891359
v -1.55545 -1.242458 5.59485
v -0.1803112 -2.15659 5.666137
v -0.2642574 -1.824604 5.502586
v -1.687807 -1.477367 5.786289
v 2.490305 1.154518 3.650262
v 3.252007 0.05554962 3.456481
v 3.68565 0.2247925 3.673782
v 2.408243 0.7111588 3.471556
v 1.068134 0.5902634 3.692966
v 2.408243 0.7111588 3.471556
v 2.490305 1.154518 3.650262
v 1.404896 0.3102226 3.471556
v 0.8413048 -0.9037209 3.759189
v 1.404896 0.3102226 3.471556
v 1.068134 0.5902634 3.692966
v 1.24531 -0.7463264 3.456481
v 2.036646 -1.833447 3.782708
v 1.24531 -0.7463264 3.456481
v 0.8413048 -0.9037209 3.759189
v 2.089071 -1.401928 3.441408
v 3.458818 -1.269192 3.740004
v 2.089071 -1.401928 3.441408
v 2.036646 -1.833447 3.782708
v 3.092419 -1.000996 3.441408
v 3.68565 0.2247925 3.673782
v 3.092419 -1.000996 3.441408
v 3.458818 -1.269192 3.740004
v 3.252007 0.05554962 3.456481
v 2.351381 0.6017303 3.864309
v 3.68565 0.2247925 3.673782
v 3.073311 0.03990555 3.886304
v 2.490305 1.154518 3.650262
v 1.491749 0.2633476 3.900756
v 2.490305 1.154518 3.650262
v 2.351381 0.6017303 3.864309
v 1.068134 0.5902634 3.692966
v 1.354046 -0.6368523 3.959199
v 1.068134 0.5902634 3.692966
v 1.491749 0.2633476 3.900756
v 0.8413048 -0.9037209 3.759189
v 2.075975 -1.198681 3.981195
v 0.8413048 -0.9037209 3.759189
v 1.354046 -0.6368523 3.959199
v 2.036646 -1.833447 3.782708
v 2.935608 -0.8602943 3.944747
v 2.036646 -1.833447 3.782708
v 2.075975 -1.198681 3.981195
v 3.458818 -1.269192 3.740004
v 3.073311 0.03990555 3.886304
v 3.458818 -1.269192 3.740004
v 2.935608 -0.8602943 3.944747
v 3.68565 0.2247925 3.673782
v 3.092419 -1.000996 3.441408
v 1.24531 -0.7463264 3.456481
v 2.089071 -1.401928 3.441408
v 3.252007 0.05554962 3.456481
v 1.404896 0.3102226 3.471556
v 2.408243 0.7111588 3.471556
v 2.428391 0.9003677 4.089733
v 3.073311 0.03990555 3.886304
v 3.355906 0.1890411 4.144661
v 2.351381 0.6017303 3.864309
v 1.315123 0.4667511 4.140537
v 2.351381 0.6017303 3.864309
v 2.428391 0.9003677 4.089733
v 1.491749 0.2633476 3.900756
v 1.12937 -0.6781883 4.24627
v 1.491749 0.2633476 3.900756
v 1.315123 0.4667511 4.140537
v 1.354046 -0.6368523 3.959199
v 2.056885 -1.389515 4.301198
v 1.354046 -0.6368523 3.959199
v 1.12937 -0.6781883 4.24627
v 2.075975 -1.198681 3.981195
v 3.170155 -0.9558983 4.250394
v 2.075975 -1.198681 3.981195
v 2.056885 -1.389515 4.301198
v 2.935608 -0.8602943 3.944747
v 3.355906 0.1890411 4.144661
v 2.935608 -0.8602943 3.944747
v 3.170155 -0.9558983 4.250394
v 3.073311 0.03990555 3.886304
v 2.984028 0.08344269 4.338935
v 2.428391 0.9003677 4.089733
v 3.355906 0.1890411 4.144661
v 2.452333 0.5017929 4.320188
v 2.452333 0.5017929 4.320188
v 1.315123 0.4667511 4.140537
v 2.428391 0.9003677 4.089733
v 1.819422 0.261219 4.375931
v 2.249897 -0.8160515 4.46917
v 1.12937 -0.6781883 4.24627
v 1.718204 -0.3977013 4.450423
v 2.056885 -1.389515 4.301198
v 2.882811 -0.5754738 4.413426
v 2.056885 -1.389515 4.301198
v 2.249897 -0.8160515 4.46917
v 3.170155 -0.9558983 4.250394
v 2.882811 -0.5754738 4.413426
v 3.355906 0.1890411 4.144661
v 3.170155 -0.9558983 4.250394
v 2.984028 0.08344269 4.338935
v 2.984028 0.08344269 4.338935
v 1.819422 0.261219 4.375931
v 2.452333 0.5017929 4.320188
v 1.718204 -0.3977013 4.450423
v 2.882811 -0.5754738 4.413426
v 2.249897 -0.8160515 4.46917

vn 0.8027344 0.2866211 -0.5229492
vn 0.8027344 0.2866211 -0.5229492
vn 0.8027344 0.2866211 -0.5229492
vn 0.8081055 0.2873535 -0.5141602
vn 0.8081055 0.2873535 -0.5141602
vn 0.8081055 0.2873535 -0.5141602
vn 0 0.1988525 -0.9799805
vn 0 0.1988525 -0.9799805
vn 0 0.1988525 -0.9799805
vn -0.02708435 0.1966553 -0.9799805
vn -0.02708435 0.1966553 -0.9799805
vn -0.02708435 0.1966553 -0.9799805
vn -0.8198242 -0.2357178 0.5214844
vn -0.8198242 -0.2357178 0.5214844
vn -0.8198242 -0.2357178 0.5214844
vn -0.8129883 -0.2347412 0.5327148
vn -0.8129883 -0.2347412 0.5327148
vn -0.8129883 -0.2347412 0.5327148
vn 0.02479553 -0.1442871 0.9892578
vn 0.02479553 -0.1442871 0.9892578
vn 0.02479553 -0.1442871 0.9892578
vn 0 -0.1463623 0.9892578
vn 0 -0.1463623 0.9892578
vn 0 -0.1463623 0.9892578
vn 0.8193359 -0.2138672 -0.5322266
vn 0.8193359 -0.2138672 -0.5322266
vn 0.8193359 -0.2138672 -0.5322266
vn 0.8056641 -0.2224121 -0.5488281
vn 0.8056641 -0.2224121 -0.5488281
vn 0.8056641 -0.2224121 -0.5488281
vn -0.8515625 -0.05340576 -0.5219727
vn -0.8481445 -0.0609436 -0.5258789
vn -0.8481445 -0.0609436 -0.5258789
vn -0.8427734 -0.05102539 -0.5361328
vn -0.8427734 -0.05102539 -0.5361328
vn -0.8427734 -0.05102539 -0.5361328
vn -0.8510742 -0.05847168 -0.5219727
vn -0.8510742 -0.05847168 -0.5219727
vn -0.8510742 -0.05847168 -0.5219727
vn -0.7949219 0.3041992 0.5249023
vn -0.7949219 0.3041992 0.5249023
vn -0.7949219 0.3041992 0.5249023
vn -0.7836914 0.3103027 0.5385742
vn -0.7836914 0.3103027 0.5385742
vn -0.7836914 0.3103027 0.5385742
vn 0.8417969 0.1706543 0.512207
vn 0.8417969 0.1706543 0.512207
vn 0.8417969 0.1706543 0.512207
vn 0.8330078 0.1777344 0.5239258
vn 0.8330078 0.1777344 0.5239258
vn 0.8330078 0.1777344 0.5239258
vn 0.2856445 -0.9575195 -0.04528809
vn 0.2856445 -0.9575195 -0.04528809
vn 0.2856445 -0.9575195 -0.04528809
vn 0.2897949 -0.9570313 0.008132935
vn 0.2897949 -0.9570313 0.008132935
vn 0.2897949 -0.9570313 0.008132935
vn -0.1987305 0.8647461 -0.4609375
vn -0.1987305 0.8647461 -0.4609375
vn -0.1987305 0.8647461 -0.4609375
vn -0.1931152 0.8408203 -0.5058594
vn -0.1931152 0.8408203 -0.5058594
vn -0.1931152 0.8408203 -0.5058594
vn 0.9311523 -0.307373 0.1955566
vn 0.9311523 -0.307373 0.1955566
vn 0.9311523 -0.307373 0.1955566
vn -0.1074829 -0.04229736 -0.9931641
vn -0.1074829 -0.04229736 -0.9931641
vn -0.1074829 -0.04229736 -0.9931641
vn -0.8012695 0.329834 -0.4992676
vn -0.8012695 0.329834 -0.4992676
vn -0.8012695 0.329834 -0.4992676
vn -0.784668 0.5419922 0.3010254
vn -0.784668 0.5419922 0.3010254
vn -0.784668 0.5419922 0.3010254
vn 0.4206543 0.1424561 0.8959961
vn 0.4206543 0.1424561 0.8959961
vn 0.4206543 0.1424561 0.8959961
vn -0.3759766 0.9145508 -0.1499023
vn -0.3806152 0.9121094 -0.1536865
vn -0.3693848 0.9179688 -0.1446533
vn -0.3806152 0.9121094 -0.1536865
vn -0.3759766 0.9145508 -0.1499023
vn -0.3913574 0.9057617 -0.1624756
vn 0.8442383 0.1129761 0.5239258
vn 0.8442383 0.1129761 0.5239258
vn 0.8442383 0.1129761 0.5239258
vn 0.8383789 0.1113281 0.5332031
vn -0.006511688 -0.3034668 -0.9526367
vn -0.03738403 -0.2958984 -0.9545898
vn -0.04174805 -0.2949219 -0.9545898
vn -0.00308609 -0.3041992 -0.9526367
vn 0.04681396 0.3725586 0.9267578
vn 0.003341675 0.3820801 0.9243164
vn 0.05258179 0.3713379 0.9272461
vn -0.001140594 0.3830566 0.9238281
vn 0.07427979 0.06240845 -0.9951172
vn 0.07427979 0.06240845 -0.9951172
vn 0.07427979 0.06240845 -0.9951172
vn 0.08276367 0.01896667 -0.996582
vn -0.2568359 0.8032227 0.5371094
vn -0.2568359 0.8032227 0.5371094
vn -0.2568359 0.8032227 0.5371094
vn -0.2641602 0.8237305 0.5014648
vn -0.04556274 -0.0559082 0.9975586
vn -0.04556274 -0.0559082 0.9975586
vn -0.04556274 -0.0559082 0.9975586
vn -0.05474854 -0.009933472 0.9985352
vn 0.144165 -0.9604492 0.2391357
vn 0.1512451 -0.9506836 0.2700195
vn 0.1530762 -0.9482422 0.2780762
vn 0.1403809 -0.9648438 0.2229004
vn 0.2983398 -0.9541016 -0.02734375
vn 0.2734375 -0.9614258 -0.03457642
vn 0.2658691 -0.9633789 -0.03677368
vn 0.3115234 -0.949707 -0.02345276
vn 0.1779785 -0.8999023 -0.3984375
vn 0.1380615 -0.9248047 -0.3552246
vn 0.1289063 -0.9296875 -0.3452148
vn 0.1945801 -0.8881836 -0.4162598
vn -0.2443848 -0.8735352 -0.4213867
vn -0.2392578 -0.8867188 -0.395752
vn -0.237793 -0.8901367 -0.388916
vn -0.2470703 -0.8662109 -0.4348145
vn -0.418457 -0.9077148 0.02598572
vn -0.440918 -0.8974609 0.01876831
vn -0.4487305 -0.8935547 0.01628113
vn -0.4042969 -0.9140625 0.03044128
vn -0.1428223 -0.9379883 0.3164063
vn -0.1816406 -0.9155273 0.3583984
vn -0.190918 -0.909668 0.3684082
vn -0.1240845 -0.9472656 0.2958984
vn 0.1326904 0.9692383 0.206543
vn 0.1368408 0.9682617 0.2095947
vn 0.140625 0.9667969 0.2122803
vn 0.1308594 0.9697266 0.2050781
vn 0.2553711 0.9667969 0.0006713867
vn 0.248291 0.96875 0.00440979
vn 0.2410889 0.9702148 0.00818634
vn 0.2587891 0.9658203 -0.001205444
vn 0.1363525 0.9614258 -0.2392578
vn 0.1356201 0.965332 -0.2235107
vn 0.1348877 0.9682617 -0.2114258
vn 0.1367188 0.9599609 -0.2446289
vn -0.1102295 0.972168 -0.2073975
vn -0.105896 0.9731445 -0.2045898
vn -0.1025391 0.9741211 -0.2022705
vn -0.1120605 0.9716797 -0.2086182
vn -0.1928711 0.9804688 0.03347778
vn -0.1965332 0.9799805 0.03588867
vn -0.201416 0.9785156 0.03912354
vn -0.1899414 0.9814453 0.03161621
vn -0.06671143 0.9741211 0.2149658
vn -0.06695557 0.9716797 0.2258301
vn -0.06713867 0.9692383 0.2374268
vn -0.06665039 0.9755859 0.2092285
vn 0.00932312 -1 -0.0007019043
vn 0.00932312 -1 -0.0007019043
vn 0.00932312 -1 -0.0007019043
vn 0.00932312 -1 -0.0007019043
vn 0.00932312 -1 -0.0007019043
vn 0.00932312 -1 -0.0007019043
vn 0.2188721 -0.8886719 0.402832
vn 0.2227783 -0.8798828 0.4194336
vn 0.2237549 -0.8779297 0.423584
vn 0.2171631 -0.8925781 0.3955078
vn 0.4675293 -0.8823242 -0.05496216
vn 0.4675293 -0.8823242 -0.05496216
vn 0.4675293 -0.8823242 -0.05496216
vn 0.4672852 -0.8823242 -0.05508423
vn 0.2342529 -0.7695313 -0.59375
vn 0.2231445 -0.7817383 -0.5825195
vn 0.2213135 -0.7836914 -0.5805664
vn 0.2371826 -0.7666016 -0.5966797
vn -0.3977051 -0.6435547 -0.6538086
vn -0.3925781 -0.6748047 -0.625
vn -0.3916016 -0.6796875 -0.6201172
vn -0.3989258 -0.6342773 -0.6621094
vn -0.7172852 -0.6962891 0.03083801
vn -0.7246094 -0.6884766 0.02883911
vn -0.7260742 -0.6870117 0.02841187
vn -0.7143555 -0.6992188 0.03161621
vn -0.2653809 -0.8217773 0.5039063
vn -0.2878418 -0.7973633 0.5302734
vn -0.2929688 -0.7919922 0.5356445
vn -0.2561035 -0.831543 0.4931641
vn 0.2171631 0.9228516 0.3186035
vn 0.2210693 0.9140625 0.3395996
vn 0.2159424 0.925293 0.3117676
vn 0.2243652 0.9067383 0.3571777
vn 0.3347168 0.9423828 0.01021576
vn 0.354248 0.9350586 0.01745605
vn 0.3212891 0.9467773 0.005226135
vn 0.3825684 0.9233398 0.02806091
vn 0.1569824 0.9643555 -0.2128906
vn 0.161499 0.9628906 -0.2163086
vn 0.1530762 0.9658203 -0.2097168
vn 0.1687012 0.9604492 -0.2220459
vn -0.0791626 0.9799805 -0.1816406
vn -0.08300781 0.9794922 -0.1835938
vn -0.08984375 0.9780273 -0.1871338
vn -0.07501221 0.980957 -0.1795654
vn -0.2025146 0.9780273 0.04629517
vn -0.2132568 0.9755859 0.05264282
vn -0.2346191 0.9697266 0.06506348
vn -0.19104 0.980957 0.03961182
vn -0.09240723 0.940918 0.3259277
vn -0.07940674 0.9458008 0.3149414
vn -0.09674072 0.9389648 0.3295898
vn -0.07073975 0.9487305 0.307373
vn 0.04949951 0.9960938 0.07427979
vn 0.04949951 0.9960938 0.07427979
vn 0.04949951 0.9960938 0.07427979
vn 0.04949951 0.9960938 0.07427979
vn 0.04949951 0.9960938 0.07427979
vn 0.04953003 0.9960938 0.07427979
vn 0.1577148 0.953125 0.2578125
vn 0.1575928 0.953125 0.2587891
vn 0.1577148 0.9536133 0.2561035
vn 0.1575928 0.9521484 0.2624512
vn 0.2426758 0.9682617 0.05786133
vn 0.2432861 0.9682617 0.05822754
vn 0.2393799 0.9692383 0.05569458
vn 0.2496338 0.9663086 0.06246948
vn 0.1289063 0.9858398 -0.1091919
vn 0.1293945 0.9853516 -0.1094971
vn 0.1274414 0.9858398 -0.1083984
vn 0.1323242 0.9848633 -0.111145
vn -0.04360962 0.9946289 -0.09130859
vn -0.04330444 0.9951172 -0.09118652
vn -0.04177856 0.9951172 -0.09069824
vn -0.04641724 0.9946289 -0.09234619
vn -0.1254883 0.9892578 0.07769775
vn -0.1254883 0.9892578 0.07769775
vn -0.1226807 0.9897461 0.07525635
vn -0.1304932 0.987793 0.08221436
vn -0.03790283 0.965332 0.2578125
vn -0.03799438 0.9658203 0.2570801
vn -0.03811646 0.9658203 0.2556152
vn -0.03756714 0.9643555 0.2614746
vn 0.2113037 -0.8955078 0.3918457
vn 0.2213135 -0.8886719 0.4016113
vn 0.2086182 -0.8969727 0.3891602
vn 0.2230225 -0.8876953 0.4033203
vn 0.5473633 -0.8334961 -0.07757568
vn 0.5698242 -0.8173828 -0.08416748
vn 0.5390625 -0.8388672 -0.07513428
vn 0.574707 -0.8139648 -0.08563232
vn 0.3330078 -0.4736328 -0.8154297
vn 0.3347168 -0.4584961 -0.8232422
vn 0.3325195 -0.4777832 -0.8129883
vn 0.3349609 -0.456543 -0.8242188
vn -0.4914551 -0.1971436 -0.8481445
vn -0.4921875 -0.2177734 -0.8427734
vn -0.4924316 -0.2215576 -0.8417969
vn -0.4912109 -0.1950684 -0.8491211
vn -0.8544922 -0.5195313 0.007995605
vn -0.8232422 -0.5673828 0.01302338
vn -0.8139648 -0.5805664 0.01447296
vn -0.8588867 -0.5126953 0.007240295
vn -0.2888184 -0.8173828 0.498291
vn -0.2788086 -0.8295898 0.4841309
vn -0.2758789 -0.8325195 0.4799805
vn -0.2905273 -0.8154297 0.5009766
vn 0.2558594 -0.90625 -0.3369141
vn 0.2900391 -0.8876953 -0.3574219
vn 0.3000488 -0.8818359 -0.3635254
vn 0.2364502 -0.9155273 -0.3251953
vn -0.1849365 -0.8764648 -0.4443359
vn -0.1845703 -0.8945313 -0.4072266
vn -0.1843262 -0.8994141 -0.3964844
vn -0.1849365 -0.8666992 -0.4628906
vn -0.5947266 -0.7993164 -0.08685303
vn -0.5424805 -0.8383789 -0.05307007
vn -0.5244141 -0.8505859 -0.04190063
vn -0.6220703 -0.7758789 -0.1050415
vn -0.4108887 -0.746582 0.5229492
vn -0.3886719 -0.765625 0.5126953
vn -0.3803711 -0.7724609 0.5087891
vn -0.4245605 -0.734375 0.5292969
vn 0.2263184 -0.777832 0.5864258
vn 0.2246094 -0.7583008 0.6118164
vn 0.223877 -0.7509766 0.6210938
vn 0.227417 -0.7900391 0.5693359
vn 0.5009766 -0.8618164 0.07904053
vn 0.5541992 -0.8251953 0.1117554
vn 0.5712891 -0.8115234 0.1227417
vn 0.4650879 -0.8833008 0.05764771
vn 0.2192383 0.9257813 -0.3078613
vn 0.2207031 0.9233398 -0.3144531
vn 0.22229 0.9204102 -0.3217773
vn 0.2183838 0.9272461 -0.3041992
vn -0.1290283 0.9077148 -0.3996582
vn -0.1201172 0.9125977 -0.3911133
vn -0.1119385 0.9169922 -0.3830566
vn -0.1328125 0.9052734 -0.4033203
vn -0.3991699 0.9111328 -0.1046143
vn -0.3803711 0.9179688 -0.1105347
vn -0.3640137 0.9243164 -0.1156616
vn -0.4072266 0.9077148 -0.1020508
vn -0.2331543 0.9331055 0.2731934
vn -0.2318115 0.9355469 0.2663574
vn -0.2305908 0.9379883 0.2597656
vn -0.2337646 0.9321289 0.2768555
vn 0.1470947 0.9448242 0.2932129
vn 0.1529541 0.9423828 0.2980957
vn 0.1593018 0.9394531 0.3037109
vn 0.1435547 0.9462891 0.2900391
vn 0.3388672 0.940918 0.005367279
vn 0.3518066 0.9360352 0.00104332
vn 0.3671875 0.9301758 -0.004203796
vn 0.3300781 0.9438477 0.008277893
vn -0.006065369 -1 -0.0151825
vn -0.006065369 -1 -0.0151825
vn -0.006065369 -1 -0.0151825
vn -0.006065369 -1 -0.0151825
vn -0.006065369 -1 -0.0151825
vn -0.006065369 -1 -0.0151825
vn 0.407959 -0.7714844 -0.4880371
vn 0.4221191 -0.7587891 -0.4958496
vn 0.427002 -0.7543945 -0.498291
vn 0.4003906 -0.777832 -0.4841309
vn -0.276123 -0.7319336 -0.6230469
vn -0.276123 -0.7314453 -0.6235352
vn -0.276123 -0.7314453 -0.6235352
vn -0.276123 -0.7319336 -0.6230469
vn -0.7866211 -0.6123047 -0.07818604
vn -0.777832 -0.625 -0.07000732
vn -0.7749023 -0.628418 -0.06768799
vn -0.7905273 -0.6069336 -0.08154297
vn -0.5307617 -0.4663086 0.7075195
vn -0.5136719 -0.4916992 0.703125
vn -0.5087891 -0.4990234 0.7016602
vn -0.5380859 -0.4550781 0.7094727
vn 0.3012695 -0.484375 0.8212891
vn 0.3005371 -0.4772949 0.8256836
vn 0.3005371 -0.4753418 0.8271484
vn 0.3017578 -0.487793 0.8193359
vn 0.7226563 -0.671875 0.161499
vn 0.7446289 -0.644043 0.1755371
vn 0.7524414 -0.6337891 0.180542
vn 0.7094727 -0.6879883 0.1531982
vn 0.3129883 0.8276367 -0.4655762
vn 0.3337402 0.8139648 -0.4753418
vn 0.3044434 0.8334961 -0.4611816
vn 0.3527832 0.8007813 -0.4841309
vn -0.1497803 0.8491211 -0.5063477
vn -0.1480713 0.8330078 -0.5332031
vn -0.1508789 0.8598633 -0.4880371
vn -0.1453857 0.809082 -0.5698242
vn -0.2159424 0.9526367 0.2150879
vn -0.2163086 0.9511719 0.2205811
vn -0.2172852 0.9477539 0.2336426
vn -0.215332 0.9541016 0.2070313
vn 0.168457 0.9389648 0.300293
vn 0.1844482 0.9306641 0.3154297
vn 0.2097168 0.9169922 0.3391113
vn 0.1551514 0.9448242 0.2878418
vn 0.4865723 0.8735352 -0.006057739
vn 0.470459 0.8823242 -0.01898193
vn 0.4936523 0.8696289 -0.000213623
vn 0.4560547 0.8896484 -0.03050232
vn 0.0475769 0.9931641 -0.1049805
vn 0.0475769 0.9931641 -0.1049805
vn 0.0475769 0.9931641 -0.1049805
vn 0.0475769 0.9931641 -0.1049805
vn 0.0475769 0.9931641 -0.1049805
vn 0.0475769 0.9931641 -0.1049805

vt 0.7924805 0.4421387
vt 0.8217773 0.357666
vt 0.7978516 0.4404297
vt 0.8217773 0.357666
vt 0.7924805 0.4421387
vt 0.8149414 0.357666
vt 0.7924805 0.4421387
vt 0.8007813 0.357666
vt 0.8149414 0.357666
vt 0.8007813 0.357666
vt 0.7924805 0.4421387
vt 0.7822266 0.4428711
vt 0.7768555 0.4421387
vt 0.8007813 0.357666
vt 0.7939453 0.357666
vt 0.8007813 0.357666
vt 0.7768555 0.4421387
vt 0.7822266 0.4404297
vt 0.7929688 0.4396973
vt 0.8007813 0.357666
vt 0.7822266 0.4404297
vt 0.8007813 0.357666
vt 0.7929688 0.4396973
vt 0.8149414 0.357666
vt 0.8032227 0.6630859
vt 0.7978516 0.4404297
vt 0.8066406 0.6621094
vt 0.7978516 0.4404297
vt 0.8032227 0.6630859
vt 0.7924805 0.4421387
vt 0.7768555 0.4421387
vt 0.7958984 0.6645508
vt 0.7924805 0.6655273
vt 0.7939453 0.357666
vt 0.7822266 0.4428711
vt 0.8007813 0.357666
vt 0.7958984 0.6645508
vt 0.7768555 0.4421387
vt 0.7822266 0.4428711
vt 0.7822266 0.4404297
vt 0.7924805 0.6655273
vt 0.7958984 0.6645508
vt 0.7924805 0.6655273
vt 0.7822266 0.4404297
vt 0.7768555 0.4421387
vt 0.8066406 0.6621094
vt 0.7929688 0.4396973
vt 0.8032227 0.6630859
vt 0.7929688 0.4396973
vt 0.8066406 0.6621094
vt 0.7978516 0.4404297
vt 0.7890625 0.4775391
vt 0.8266602 0.4970703
vt 0.7924805 0.4780273
vt 0.8266602 0.4970703
vt 0.7890625 0.4775391
vt 0.8217773 0.4960938
vt 0.8251953 0.5048828
vt 0.7885742 0.4924316
vt 0.7910156 0.487793
vt 0.7885742 0.4924316
vt 0.8251953 0.5048828
vt 0.8217773 0.5083008
vt 0.8217773 0.4960938
vt 0.8486328 0.5424805
vt 0.8266602 0.4970703
vt 0.8266602 0.4970703
vt 0.8486328 0.5424805
vt 0.8251953 0.5048828
vt 0.8251953 0.5048828
vt 0.8486328 0.5424805
vt 0.8217773 0.5083008
vt 0.8217773 0.5083008
vt 0.8486328 0.5424805
vt 0.8198242 0.5039063
vt 0.8198242 0.5039063
vt 0.8486328 0.5424805
vt 0.8217773 0.4960938
vt 0.2272949 0.5209961
vt 0.1964111 0.5068359
vt 0.1676025 0.4951172
vt 0.1964111 0.5068359
vt 0.2272949 0.5209961
vt 0.2443848 0.5292969
vt 0.7978516 0.4404297
vt 0.8149414 0.357666
vt 0.7929688 0.4396973
vt 0.8217773 0.357666
vt 0.7822266 0.4428711
vt 0.8032227 0.6630859
vt 0.7958984 0.6645508
vt 0.7924805 0.4421387
vt 0.8032227 0.6630859
vt 0.7822266 0.4404297
vt 0.7958984 0.6645508
vt 0.7929688 0.4396973
vt 0.8266602 0.4970703
vt 0.7910156 0.487793
vt 0.7924805 0.4780273
vt 0.8251953 0.5048828
vt 0.8217773 0.5083008
vt 0.7875977 0.4870605
vt 0.7885742 0.4924316
vt 0.8198242 0.5039063
vt 0.7875977 0.4870605
vt 0.8217773 0.4960938
vt 0.7890625 0.4775391
vt 0.8198242 0.5039063
vt 0.3933105 0.1734619
vt 0.4284668 0.1466064
vt 0.4833984 0.1766357
vt 0.3649902 0.1486816
vt 0.2131348 0.1793213
vt 0.3649902 0.1486816
vt 0.3933105 0.1734619
vt 0.2376709 0.1486816
vt 0.1229858 0.1884766
vt 0.2376709 0.1486816
vt 0.2131348 0.1793213
vt 0.1740723 0.1466064
vt 0.2131348 0.1917725
vt 0.1740723 0.1466064
vt 0.1229858 0.1884766
vt 0.2376709 0.1445313
vt 0.3933105 0.185791
vt 0.2376709 0.1445313
vt 0.2131348 0.1917725
vt 0.3649902 0.1445313
vt 0.4833984 0.1766357
vt 0.3649902 0.1445313
vt 0.3933105 0.185791
vt 0.4284668 0.1466064
vt 0.3540039 0.2030029
vt 0.4833984 0.1766357
vt 0.4084473 0.2060547
vt 0.3933105 0.1734619
vt 0.2451172 0.2080078
vt 0.3933105 0.1734619
vt 0.3540039 0.2030029
vt 0.2131348 0.1793213
vt 0.1906738 0.2161865
vt 0.2131348 0.1793213
vt 0.2451172 0.2080078
vt 0.1229858 0.1884766
vt 0.2451172 0.2192383
vt 0.1229858 0.1884766
vt 0.1906738 0.2161865
vt 0.2131348 0.1917725
vt 0.3540039 0.2141113
vt 0.2131348 0.1917725
vt 0.2451172 0.2192383
vt 0.3933105 0.185791
vt 0.4084473 0.2060547
vt 0.3933105 0.185791
vt 0.3540039 0.2141113
vt 0.4833984 0.1766357
vt 0.3649902 0.1445313
vt 0.1740723 0.1466064
vt 0.2376709 0.1445313
vt 0.4284668 0.1466064
vt 0.2376709 0.1486816
vt 0.3649902 0.1486816
vt 0.3557129 0.484375
vt 0.4020996 0.4448242
vt 0.4545898 0.4951172
vt 0.3254395 0.4406738
vt 0.1575928 0.4943848
vt 0.3254395 0.4406738
vt 0.3557129 0.484375
vt 0.1722412 0.4477539
vt 0.05856323 0.5151367
vt 0.1722412 0.4477539
vt 0.1575928 0.4943848
vt 0.09570313 0.4589844
vt 0.1575928 0.5258789
vt 0.09570313 0.4589844
vt 0.05856323 0.5151367
vt 0.1722412 0.4633789
vt 0.3557129 0.515625
vt 0.1722412 0.4633789
vt 0.1575928 0.5258789
vt 0.3254395 0.4562988
vt 0.4545898 0.4951172
vt 0.3254395 0.4562988
vt 0.3557129 0.515625
vt 0.4020996 0.4448242
vt 0.3908691 0.5332031
vt 0.3557129 0.484375
vt 0.4545898 0.4951172
vt 0.3347168 0.5292969
vt 0.3347168 0.5292969
vt 0.1575928 0.4943848
vt 0.3557129 0.484375
vt 0.2225342 0.5400391
vt 0.2225342 0.5400391
vt 0.05856323 0.5151367
vt 0.1575928 0.4943848
vt 0.1665039 0.5546875
vt 0.2225342 0.5585938
vt 0.05856323 0.5151367
vt 0.1665039 0.5546875
vt 0.1575928 0.5258789
vt 0.3347168 0.5473633
vt 0.1575928 0.5258789
vt 0.2225342 0.5585938
vt 0.3557129 0.515625
vt 0.3347168 0.5473633
vt 0.4545898 0.4951172
vt 0.3557129 0.515625
vt 0.3908691 0.5332031
vt 0.2423096 0.8666992
vt 0.3605957 0.8442383
vt 0.3212891 0.855957
vt 0.2028809 0.8662109
vt 0.3212891 0.8432617
vt 0.2423096 0.8540039
vt 0.3605957 0.8442383
vt 0.3659668 0.7915039
vt 0.4621582 0.7954102
vt 0.3212891 0.8432617
vt 0.3212891 0.8432617
vt 0.1734619 0.815918
vt 0.3659668 0.7915039
vt 0.2423096 0.8540039
vt 0.2423096 0.8540039
vt 0.07714844 0.84375
vt 0.1734619 0.815918
vt 0.2028809 0.8662109
vt 0.07714844 0.84375
vt 0.2423096 0.8666992
vt 0.1734619 0.847168
vt 0.2028809 0.8662109
vt 0.1734619 0.847168
vt 0.3212891 0.855957
vt 0.3659668 0.8227539
vt 0.2423096 0.8666992
vt 0.3659668 0.8227539
vt 0.3605957 0.8442383
vt 0.4621582 0.7954102
vt 0.3212891 0.855957
vt 0.4621582 0.7954102
vt 0.3369141 0.7519531
vt 0.4194336 0.7573242
vt 0.3659668 0.7915039
vt 0.3659668 0.7915039
vt 0.1717529 0.7680664
vt 0.3369141 0.7519531
vt 0.1734619 0.815918
vt 0.1734619 0.815918
vt 0.08929443 0.7895508
vt 0.1717529 0.7680664
vt 0.07714844 0.84375
vt 0.08929443 0.7895508
vt 0.1734619 0.847168
vt 0.1717529 0.7949219
vt 0.07714844 0.84375
vt 0.1717529 0.7949219
vt 0.3659668 0.8227539
vt 0.3369141 0.7788086
vt 0.1734619 0.847168
vt 0.3369141 0.7788086
vt 0.4621582 0.7954102
vt 0.4194336 0.7573242
vt 0.3659668 0.8227539
vt 0.253418 0.1755371
vt 0.3896484 0.1519775
vt 0.4306641 0.1783447
vt 0.2644043 0.1538086
vt 0.1193237 0.1806641
vt 0.2644043 0.1538086
vt 0.253418 0.1755371
vt 0.170166 0.1538086
vt 0.1627197 0.1887207
vt 0.170166 0.1538086
vt 0.1193237 0.1806641
vt 0.2009277 0.1519775
vt 0.3400879 0.1916504
vt 0.2009277 0.1519775
vt 0.1627197 0.1887207
vt 0.3259277 0.1501465
vt 0.4741211 0.1864014
vt 0.3259277 0.1501465
vt 0.3400879 0.1916504
vt 0.4204102 0.1501465
vt 0.4306641 0.1783447
vt 0.4204102 0.1501465
vt 0.4741211 0.1864014
vt 0.3896484 0.1519775
vt 0.2631836 0.2015381
vt 0.4306641 0.1783447
vt 0.3703613 0.2042236
vt 0.253418 0.1755371
vt 0.1820068 0.2059326
vt 0.253418 0.1755371
vt 0.2631836 0.2015381
vt 0.1193237 0.1806641
vt 0.2080078 0.2131348
vt 0.1193237 0.1806641
vt 0.1820068 0.2059326
vt 0.1627197 0.1887207
vt 0.3151855 0.2158203
vt 0.1627197 0.1887207
vt 0.2080078 0.2131348
vt 0.3400879 0.1916504
vt 0.3962402 0.2113037
vt 0.3400879 0.1916504
vt 0.3151855 0.2158203
vt 0.4741211 0.1864014
vt 0.3703613 0.2042236
vt 0.4741211 0.1864014
vt 0.3962402 0.2113037
vt 0.4306641 0.1783447
vt 0.4204102 0.1501465
vt 0.2009277 0.1519775
vt 0.3259277 0.1501465
vt 0.3896484 0.1519775
vt 0.170166 0.1538086
vt 0.2644043 0.1538086
vt 0.2624512 0.4897461
vt 0.3635254 0.4672852
vt 0.3859863 0.4956055
vt 0.2670898 0.4648438
vt 0.1676025 0.4951172
vt 0.2670898 0.4648438
vt 0.2624512 0.4897461
vt 0.1939697 0.4689941
vt 0.1964111 0.5068359
vt 0.1939697 0.4689941
vt 0.1676025 0.4951172
vt 0.2174072 0.4753418
vt 0.3198242 0.5126953
vt 0.2174072 0.4753418
vt 0.1964111 0.5068359
vt 0.3139648 0.4777832
vt 0.4147949 0.5073242
vt 0.3139648 0.4777832
vt 0.3198242 0.5126953
vt 0.3869629 0.4736328
vt 0.3859863 0.4956055
vt 0.3869629 0.4736328
vt 0.4147949 0.5073242
vt 0.3635254 0.4672852
vt 0.3527832 0.5170898
vt 0.2624512 0.4897461
vt 0.3859863 0.4956055
vt 0.2814941 0.5146484
vt 0.2814941 0.5146484
vt 0.1676025 0.4951172
vt 0.2624512 0.4897461
vt 0.2272949 0.5209961
vt 0.3156738 0.53125
vt 0.1964111 0.5068359
vt 0.2443848 0.5292969
vt 0.3198242 0.5126953
vt 0.369873 0.5249023
vt 0.3198242 0.5126953
vt 0.3156738 0.53125
vt 0.4147949 0.5073242
vt 0.369873 0.5249023
vt 0.3859863 0.4956055
vt 0.4147949 0.5073242
vt 0.3527832 0.5170898
vt 0.3527832 0.5170898
vt 0.2272949 0.5209961
vt 0.2814941 0.5146484
vt 0.2443848 0.5292969
vt 0.369873 0.5249023
vt 0.3156738 0.53125

g Tree_12_Green_373_69
usemtl Tree_12_Green_373_69
usemap Tree_12_Green_373_69
f 1/1/1 3/3/3 2/2/2
f 4/4/4 6/6/6 5/5/5
f 7/7/7 9/9/9 8/8/8
f 10/10/10 12/12/12 11/11/11
f 13/13/13 15/15/15 14/14/14
f 16/16/16 18/18/18 17/17/17
f 19/19/19 21/21/21 20/20/20
f 22/22/22 24/24/24 23/23/23
f 25/25/25 27/27/27 26/26/26
f 28/28/28 30/30/30 29/29/29
f 31/31/31 33/33/33 32/32/32
f 34/34/34 31/31/31 35/35/35
f 35/35/35 36/36/36 34/34/34
f 37/37/37 39/39/39 38/38/38
f 40/40/40 42/42/42 41/41/41
f 43/43/43 45/45/45 44/44/44
f 46/46/46 48/48/48 47/47/47
f 49/49/49 51/51/51 50/50/50
f 52/52/52 54/54/54 53/53/53
f 55/55/55 57/57/57 56/56/56
f 58/58/58 60/60/60 59/59/59
f 61/61/61 63/63/63 62/62/62
f 64/64/64 66/66/66 65/65/65
f 67/67/67 69/69/69 68/68/68
f 70/70/70 72/72/72 71/71/71
f 73/73/73 75/75/75 74/74/74
f 76/76/76 78/78/78 77/77/77
f 79/79/79 81/81/81 80/80/80
f 82/82/82 84/84/84 83/83/83
f 85/85/85 87/87/87 86/86/86
f 86/86/86 88/88/88 85/85/85
f 89/89/89 91/91/91 90/90/90
f 90/90/90 92/92/92 89/89/89
f 93/93/93 95/95/95 94/94/94
f 94/94/94 96/96/96 93/93/93
f 97/97/97 99/99/99 98/98/98
f 98/98/98 100/100/100 97/97/97
f 101/101/101 103/103/103 102/102/102
f 102/102/102 104/104/104 101/101/101
f 105/105/105 107/107/107 106/106/106
f 106/106/106 108/108/108 105/105/105
f 109/109/109 111/111/111 110/110/110
f 110/110/110 112/112/112 109/109/109
f 113/113/113 115/115/115 114/114/114
f 114/114/114 116/116/116 113/113/113
f 117/117/117 119/119/119 118/118/118
f 118/118/118 120/120/120 117/117/117
f 121/121/121 123/123/123 122/122/122
f 122/122/122 124/124/124 121/121/121
f 125/125/125 127/127/127 126/126/126
f 126/126/126 128/128/128 125/125/125
f 129/129/129 131/131/131 130/130/130
f 130/130/130 132/132/132 129/129/129
f 133/133/133 135/135/135 134/134/134
f 134/134/134 136/136/136 133/133/133
f 137/137/137 139/139/139 138/138/138
f 138/138/138 140/140/140 137/137/137
f 141/141/141 143/143/143 142/142/142
f 142/142/142 144/144/144 141/141/141
f 145/145/145 147/147/147 146/146/146
f 146/146/146 148/148/148 145/145/145
f 149/149/149 151/151/151 150/150/150
f 150/150/150 152/152/152 149/149/149
f 153/153/153 155/155/155 154/154/154
f 154/154/154 156/156/156 153/153/153
f 157/157/157 159/159/159 158/158/158
f 158/158/158 160/160/160 157/157/157
f 160/160/160 158/158/158 161/161/161
f 161/161/161 162/162/162 160/160/160
f 163/163/163 165/165/165 164/164/164
f 164/164/164 166/166/166 163/163/163
f 167/167/167 169/169/169 168/168/168
f 168/168/168 170/170/170 167/167/167
f 171/171/171 173/173/173 172/172/172
f 172/172/172 174/174/174 171/171/171
f 175/175/175 177/177/177 176/176/176
f 176/176/176 178/178/178 175/175/175
f 179/179/179 181/181/181 180/180/180
f 180/180/180 182/182/182 179/179/179
f 183/183/183 185/185/185 184/184/184
f 184/184/184 186/186/186 183/183/183
f 187/187/187 189/189/189 188/188/188
f 188/188/188 190/190/190 187/187/187
f 191/191/191 193/193/193 192/192/192
f 192/192/192 194/194/194 191/191/191
f 195/195/195 197/197/197 196/196/196
f 196/196/196 198/198/198 195/195/195
f 199/199/199 201/201/201 200/200/200
f 200/200/200 202/202/202 199/199/199
f 203/203/203 205/205/205 204/204/204
f 204/204/204 206/206/206 203/203/203
f 207/207/207 209/209/209 208/208/208
f 208/208/208 210/210/210 207/207/207
f 211/211/211 213/213/213 212/212/212
f 212/212/212 214/214/214 211/211/211
f 214/214/214 212/212/212 215/215/215
f 215/215/215 216/216/216 214/214/214
f 217/217/217 219/219/219 218/218/218
f 218/218/218 220/220/220 217/217/217
f 221/221/221 223/223/223 222/222/222
f 222/222/222 224/224/224 221/221/221
f 225/225/225 227/227/227 226/226/226
f 226/226/226 228/228/228 225/225/225
f 229/229/229 231/231/231 230/230/230
f 230/230/230 232/232/232 229/229/229
f 233/233/233 235/235/235 234/234/234
f 234/234/234 236/236/236 233/233/233
f 237/237/237 239/239/239 238/238/238
f 238/238/238 240/240/240 237/237/237
f 241/241/241 243/243/243 242/242/242
f 242/242/242 244/244/244 241/241/241
f 245/245/245 247/247/247 246/246/246
f 246/246/246 248/248/248 245/245/245
f 249/249/249 251/251/251 250/250/250
f 250/250/250 252/252/252 249/249/249
f 253/253/253 255/255/255 254/254/254
f 254/254/254 256/256/256 253/253/253
f 257/257/257 259/259/259 258/258/258
f 258/258/258 260/260/260 257/257/257
f 261/261/261 263/263/263 262/262/262
f 262/262/262 264/264/264 261/261/261
f 265/265/265 267/267/267 266/266/266
f 266/266/266 268/268/268 265/265/265
f 269/269/269 271/271/271 270/270/270
f 270/270/270 272/272/272 269/269/269
f 273/273/273 275/275/275 274/274/274
f 274/274/274 276/276/276 273/273/273
f 277/277/277 279/279/279 278/278/278
f 278/278/278 280/280/280 277/277/277
f 281/281/281 283/283/283 282/282/282
f 282/282/282 284/284/284 281/281/281
f 285/285/285 287/287/287 286/286/286
f 286/286/286 288/288/288 285/285/285
f 289/289/289 291/291/291 290/290/290
f 290/290/290 292/292/292 289/289/289
f 293/293/293 295/295/295 294/294/294
f 294/294/294 296/296/296 293/293/293
f 297/297/297 299/299/299 298/298/298
f 298/298/298 300/300/300 297/297/297
f 301/301/301 303/303/303 302/302/302
f 302/302/302 304/304/304 301/301/301
f 305/305/305 307/307/307 306/306/306
f 306/306/306 308/308/308 305/305/305
f 309/309/309 311/311/311 310/310/310
f 310/310/310 312/312/312 309/309/309
f 313/313/313 315/315/315 314/314/314
f 314/314/314 316/316/316 313/313/313
f 316/316/316 314/314/314 317/317/317
f 317/317/317 318/318/318 316/316/316
f 319/319/319 321/321/321 320/320/320
f 320/320/320 322/322/322 319/319/319
f 323/323/323 325/325/325 324/324/324
f 324/324/324 326/326/326 323/323/323
f 327/327/327 329/329/329 328/328/328
f 328/328/328 330/330/330 327/327/327
f 331/331/331 333/333/333 332/332/332
f 332/332/332 334/334/334 331/331/331
f 335/335/335 337/337/337 336/336/336
f 336/336/336 338/338/338 335/335/335
f 339/339/339 341/341/341 340/340/340
f 340/340/340 342/342/342 339/339/339
f 343/343/343 345/345/345 344/344/344
f 344/344/344 346/346/346 343/343/343
f 347/347/347 349/349/349 348/348/348
f 348/348/348 350/350/350 347/347/347
f 351/351/351 353/353/353 352/352/352
f 352/352/352 354/354/354 351/351/351
f 355/355/355 357/357/357 356/356/356
f 356/356/356 358/358/358 355/355/355
f 359/359/359 361/361/361 360/360/360
f 360/360/360 362/362/362 359/359/359
f 363/363/363 365/365/365 364/364/364
f 364/364/364 366/366/366 363/363/363
f 367/367/367 363/363/363 366/366/366
f 366/366/366 368/368/368 367/367/367
