#Tree_06_470_46.obj

v 0.2515001 -0.6991787 1.816889
v 0.6453686 -1.000072 2.053999
v 0.64223 -0.9614296 2.080755
v 0.6453686 -1.000072 2.053999
v 0.2515001 -0.6991787 1.816889
v 0.2381229 -0.7664137 1.766901
v 0.226531 -0.6511593 1.766318
v 0.64223 -0.9614296 2.080755
v 0.6118622 -0.9601021 2.116739
v 0.64223 -0.9614296 2.080755
v 0.226531 -0.6511593 1.766318
v 0.2515001 -0.6991787 1.816889
v 0.5846348 -0.9974155 2.125969
v 0.226531 -0.6511593 1.766318
v 0.6118622 -0.9601021 2.116739
v 0.226531 -0.6511593 1.766318
v 0.5846348 -0.9974155 2.125969
v 0.1881886 -0.7205505 1.796528
v 0.5877743 -1.036057 2.099214
v 0.1881886 -0.7205505 1.796528
v 0.5846348 -0.9974155 2.125969
v 0.1881886 -0.7205505 1.796528
v 0.5877743 -1.036057 2.099214
v 0.1748123 -0.7877865 1.746543
v 0.6181421 -1.037385 2.06323
v 0.1748123 -0.7877865 1.746543
v 0.5877743 -1.036057 2.099214
v 0.1748123 -0.7877865 1.746543
v 0.6181421 -1.037385 2.06323
v 0.1997795 -0.8358059 1.797112
v 0.2381229 -0.7664137 1.766901
v 0.6181421 -1.037385 2.06323
v 0.6453686 -1.000072 2.053999
v 0.6181421 -1.037385 2.06323
v 0.2381229 -0.7664137 1.766901
v 0.1997795 -0.8358059 1.797112
v -0.9728603 0.5023975 2.540282
v -0.848731 0.1826448 2.407863
v -0.8604269 0.236805 2.305744
v -0.848731 0.1826448 2.407863
v -0.9728603 0.5023975 2.540282
v -0.8922033 0.4537735 2.572353
v -0.788825 0.4021416 2.517353
v -0.7767401 0.2848825 2.268867
v -0.7923603 0.1916924 2.397731
v -0.7767401 0.2848825 2.268867
v -0.788825 0.4021416 2.517353
v -0.8265753 0.4024143 2.363517
v -0.7381153 0.0739336 3.112648
v -0.6390104 -0.008743286 2.916964
v -0.7158937 0.005310059 3.077405
v -0.6304321 0.03759289 2.922344
v -0.6942434 0.07659721 2.86637
v -0.6390104 -0.008743286 2.916964
v -0.6942434 0.07659721 2.86637
v -0.6304321 0.03759289 2.922344
v -0.7214556 0.1364326 2.856302
v 0.3682899 -0.8928909 2.016426
v 0.4120798 -0.9477978 2.013025
v 0.3393278 -0.9230671 2.002921
v 0.4017305 -0.7853165 1.923198
v 0.2747679 -0.7471123 1.962428
v 0.2969923 -0.7200508 1.813808
v 0.2747679 -0.7471123 1.962428
v 0.4017305 -0.7853165 1.923198
v 0.3124008 -0.8021564 1.972101
v 0.4726152 -0.8983774 2.007884
v 0.2320337 -0.8645697 1.83398
v 0.4120798 -0.9477978 2.013025
v 0.2320337 -0.8645697 1.83398
v 0.4017305 -0.7853165 1.923198
v 0.2969923 -0.7200508 1.813808
v 0.4726152 -0.8983774 2.007884
v 0.4017305 -0.7853165 1.923198
v 0.2320337 -0.8645697 1.83398
v 0.3682899 -0.8928909 2.016426
v 0.2747679 -0.7471123 1.962428
v 0.3124008 -0.8021564 1.972101
v -0.09396553 -0.228673 1.383583
v 0.0598526 -0.5657349 1.767751
v 0.0701046 -0.642952 1.64099
v 0.0598526 -0.5657349 1.767751
v -0.09396553 -0.228673 1.383583
v 0.02193642 -0.2633514 1.543051
v 0.8127317 0.7007561 1.843931
v 0.843688 0.6774158 1.757191
v 0.8235264 0.6272907 1.843931
v 0.843688 0.6774158 1.757191
v 0.8127317 0.7007561 1.843931
v 0.8781252 0.7779875 1.783051
v 0.1048193 -0.03511047 1.566177
v -0.5006638 0.06507969 2.195878
v -0.5726614 0.09480858 2.186091
v -0.5006638 0.06507969 2.195878
v 0.1048193 -0.03511047 1.566177
v -0.006830215 -0.07823849 1.740156
v -0.5449781 0.005498886 2.195878
v -0.5726614 0.09480858 2.186091
v -0.5006638 0.06507969 2.195878
v -0.5726614 0.09480858 2.186091
v -0.5449781 0.005498886 2.195878
v -0.6458292 -0.002872467 2.134998
v 0.4978456 0.5551329 1.594591
v 0.5728512 0.5230885 1.636424
v 0.384963 0.4444494 1.593928
v 0.3117476 0 0
v 0.1428757 0.1926842 0.6786004
v 0.1558743 0.2699814 -3.218432E-08
v 0.2734299 -0.02979279 0.7166381
v 0.05243969 0.115386 1.411715
v 0.1576738 -0.05958557 1.48779
v -0.4076185 0.04344463 2.046885
v -0.4653521 0.1932993 1.96963
v -0.6104069 0.1464758 2.368715
v -0.6824245 0.2712135 2.368715
v -0.4460316 0.108408 3.166456
v -0.4100285 0.03228092 3.141247
v 0.1558743 0.2699814 -3.218432E-08
v -0.1182318 0.1853857 0.6513638
v -0.1558743 0.2699814 -3.218431E-08
v 0.1428757 0.1926842 0.6786004
v -0.1580276 0.10079 1.357242
v 0.05243969 0.115386 1.411715
v -0.4653521 0.1932993 1.96963
v -0.605237 0.1860018 1.857417
v -0.6824245 0.2712135 2.368715
v -0.8264589 0.2712135 2.368715
v -0.5180387 0.108408 3.216875
v -0.4460316 0.108408 3.166456
v -0.1182318 0.1853857 0.6513638
v -0.3117476 -5.967961E-31 3.248914E-15
v -0.1558743 0.2699814 -3.218431E-08
v -0.248785 -0.04438877 0.6621653
v -0.1580276 0.10079 1.357242
v -0.2632608 -0.0887785 1.378844
v -0.605237 0.1860018 1.857417
v -0.6873903 0.02884865 1.822459
v -0.8264589 0.2712135 2.368715
v -0.8984766 0.1464758 2.368715
v -0.5540419 0.03228092 3.242085
v -0.5180387 0.108408 3.216875
v -0.248785 -0.04438877 0.6621653
v -0.1558743 -0.2699814 3.218432E-08
v -0.3117476 -5.967961E-31 3.248914E-15
v -0.1182318 -0.2668657 0.7002031
v -0.2632608 -0.0887785 1.378844
v -0.1580276 -0.2637501 1.45492
v -0.6296568 -0.121006 1.899713
v -0.6873903 0.02884865 1.822459
v -0.8264589 0.02173805 2.368715
v -0.8984766 0.1464758 2.368715
v -0.5180387 -0.04384613 3.216875
v -0.5540419 0.03228092 3.242085
v -0.1182318 -0.2668657 0.7002031
v 0.1558743 -0.2699814 3.218432E-08
v -0.1558743 -0.2699814 3.218432E-08
v 0.1428757 -0.2595682 0.7274395
v -0.1580276 -0.2637501 1.45492
v 0.05243969 -0.2491541 1.509393
v -0.4897718 -0.1137085 2.011926
v -0.6296568 -0.121006 1.899713
v -0.6824245 0.02173805 2.368715
v -0.8264589 0.02173805 2.368715
v -0.4460316 -0.04384613 3.166456
v -0.5180387 -0.04384613 3.216875
v 0.1558743 -0.2699814 3.218432E-08
v 0.2734299 -0.02979279 0.7166381
v 0.3117476 0 0
v 0.1428757 -0.2595682 0.7274395
v 0.1576738 -0.05958557 1.48779
v 0.05243969 -0.2491541 1.509393
v -0.4076185 0.04344463 2.046885
v -0.4897718 -0.1137085 2.011926
v -0.6104069 0.1464758 2.368715
v -0.6824245 0.02173805 2.368715
v -0.4100285 0.03228092 3.141247
v -0.4460316 -0.04384613 3.166456
v -0.5180387 0.108408 3.216875
v -0.5180387 -0.04384613 3.216875
v -0.5540419 0.03228092 3.242085
v -0.4460316 0.108408 3.166456
v -0.4460316 -0.04384613 3.166456
v -0.4100285 0.03228092 3.141247
v -0.5773621 0.08254433 2.82145
v -0.930377 0.06062508 3.143831
v -0.5949984 0.1543703 2.772995
v -0.9045992 0.01679039 3.161881
v -0.5949984 0.1543703 2.772995
v -0.9819326 0.06062508 3.107732
v -0.63027 0.1543703 2.676088
v -0.930377 0.06062508 3.143831
v -0.63027 0.1543703 2.676088
v -1.00771 0.01679039 3.089682
v -0.6479053 0.08254433 2.627635
v -0.9819326 0.06062508 3.107732
v -0.6479053 0.08254433 2.627635
v -0.9819326 -0.0270443 3.107731
v -0.63027 0.0107193 2.676088
v -1.00771 0.01679039 3.089682
v -0.63027 0.0107193 2.676088
v -0.930377 -0.0270443 3.143831
v -0.5949984 0.0107193 2.772995
v -0.9819326 -0.0270443 3.107731
v -0.5949984 0.0107193 2.772995
v -0.9045992 0.01679039 3.161881
v -0.5773621 0.08254433 2.82145
v -0.930377 -0.0270443 3.143831
v -0.9819326 0.06062508 3.107732
v -0.9819326 -0.0270443 3.107731
v -1.00771 0.01679039 3.089682
v -0.930377 0.06062508 3.143831
v -0.930377 -0.0270443 3.143831
v -0.9045992 0.01679039 3.161881
v -0.6602612 0.1540794 2.008636
v -0.95961 0.4482021 2.336961
v -0.7300034 0.07173347 2.039906
v -0.9071579 0.4987173 2.307436
v -1.003027 0.659565 2.693948
v -0.979826 0.6918154 2.6817
v -0.7300034 0.07173347 2.039906
v -0.9394951 0.4009647 2.396447
v -0.7119932 0.01631355 2.135962
v -0.95961 0.4482021 2.336961
v -0.9855099 0.6279945 2.714562
v -1.003027 0.659565 2.693948
v -0.7119932 0.01631355 2.135962
v -0.8669281 0.4042425 2.42641
v -0.6242428 0.04324055 2.20075
v -0.9394951 0.4009647 2.396447
v -0.9447918 0.6286755 2.722926
v -0.9855099 0.6279945 2.714562
v -0.6242428 0.04324055 2.20075
v -0.8144751 0.4547577 2.396889
v -0.5545006 0.1255865 2.169479
v -0.8669281 0.4042425 2.42641
v -0.9215908 0.6609259 2.710678
v -0.9447918 0.6286755 2.722926
v -0.5545006 0.1255865 2.169479
v -0.83459 0.5019951 2.337402
v -0.5725107 0.1810064 2.073422
v -0.8144751 0.4547577 2.396889
v -0.9391079 0.6924963 2.690065
v -0.9215908 0.6609259 2.710678
v -0.5725107 0.1810064 2.073422
v -0.9071579 0.4987173 2.307436
v -0.6602612 0.1540794 2.008636
v -0.83459 0.5019951 2.337402
v -0.979826 0.6918154 2.6817
v -0.9391079 0.6924963 2.690065
v -0.9855099 0.6279945 2.714562
v -0.9215908 0.6609259 2.710678
v -0.9447918 0.6286755 2.722926
v -1.003027 0.659565 2.693948
v -0.9391079 0.6924963 2.690065
v -0.979826 0.6918154 2.6817
v -0.003043175 -0.2429981 1.140666
v 0.2924223 -0.6375093 1.518534
v 0.150198 -0.164217 1.205792
v 0.1939335 -0.6804752 1.461255
v 0.1818008 -0.9901142 2.060862
v 0.2755346 -0.9319324 2.096819
v -0.004425049 -0.9903097 2.552495
v 0.04687405 -0.9583397 2.574782
v 0.150198 -0.164217 1.205792
v 0.2837286 -0.5381451 1.588375
v 0.1388464 -0.03446198 1.336043
v 0.2924223 -0.6375093 1.518534
v 0.2755346 -0.9319324 2.096819
v 0.2667007 -0.8203888 2.122978
v 0.1388464 -0.03446198 1.336043
v 0.1765471 -0.4817457 1.600938
v -0.0257473 0.01651287 1.401169
v 0.2837286 -0.5381451 1.588375
v 0.2667007 -0.8203888 2.122978
v 0.1641331 -0.7670259 2.113184
v -0.01527214 -0.8663282 2.585843
v 0.0414505 -0.896349 2.591453
v -0.0257473 0.01651287 1.401169
v 0.07805824 -0.5247107 1.543661
v -0.1789894 -0.06226921 1.336043
v 0.1765471 -0.4817457 1.600938
v 0.07039928 -0.8252058 2.077229
v 0.1641331 -0.7670259 2.113184
v -0.06657219 -0.8982964 2.563558
v -0.01527214 -0.8663282 2.585843
v -0.1789894 -0.06226921 1.336043
v 0.08675098 -0.6240749 1.473819
v -0.1676369 -0.1920242 1.205791
v 0.07805824 -0.5247107 1.543661
v 0.07923317 -0.9367495 2.051068
v 0.07039928 -0.8252058 2.077229
v -0.06114864 -0.9602871 2.546885
v -0.06657219 -0.8982964 2.563558
v -0.1676369 -0.1920242 1.205791
v 0.1939335 -0.6804752 1.461255
v -0.003043175 -0.2429981 1.140666
v 0.08675098 -0.6240749 1.473819
v 0.07923317 -0.9367495 2.051068
v 0.1818008 -0.9901142 2.060862
v -0.06114864 -0.9602871 2.546885
v -0.004425049 -0.9903097 2.552495
v 0.0414505 -0.896349 2.591453
v -0.06657219 -0.8982964 2.563558
v -0.01527214 -0.8663282 2.585843
v 0.04687405 -0.9583397 2.574782
v -0.06114864 -0.9602871 2.546885
v -0.004425049 -0.9903097 2.552495
v 0.2667007 -0.8203888 2.122978
v 0.04687405 -0.9583397 2.574782
v 0.0414505 -0.896349 2.591453
v 0.2755346 -0.9319324 2.096819
v 0.6118622 -0.9601021 2.116739
v 0.5877743 -1.036057 2.099214
v 0.5846348 -0.9974155 2.125969
v 0.64223 -0.9614296 2.080755
v 0.6181421 -1.037385 2.06323
v 0.6453686 -1.000072 2.053999
v 0.1316128 -0.03875446 1.008596
v 0.5408859 0.5793734 1.315461
v 0.0323801 0.098176 1.01851
v 0.6446304 0.5116749 1.313367
v 1.076967 0.869812 1.809313
v 1.000193 0.9594688 1.811852
v 0.0323801 0.098176 1.01851
v 0.4670296 0.5764885 1.414893
v -0.09465218 0.1027889 1.130478
v 0.5408859 0.5793734 1.315461
v 1.000193 0.9594688 1.811852
v 0.8875418 0.9385824 1.835169
v 0.9945345 0.9418287 2.46778
v 0.9318047 0.9303818 2.482963
v -0.09465218 0.1027889 1.130478
v 0.4969168 0.505908 1.512232
v -0.1224518 -0.02952671 1.232531
v 0.4670296 0.5764885 1.414893
v 0.8875418 0.9385824 1.835169
v 0.8516636 0.8280411 1.855954
v 0.9114723 0.8690968 2.494249
v 0.9318047 0.9303818 2.482963
v -0.1224518 -0.02952671 1.232531
v 0.6006603 0.4382114 1.510141
v -0.02321911 -0.1664572 1.222616
v 0.4969168 0.505908 1.512232
v 0.9284353 0.7383842 1.853417
v 0.8516636 0.8280411 1.855954
v -0.02321911 -0.1664572 1.222616
v 0.6745167 0.4410954 1.410708
v 0.1038132 -0.1710711 1.110648
v 0.6006603 0.4382114 1.510141
v 1.041087 0.7592697 1.830098
v 0.9284353 0.7383842 1.853417
v 1.016599 0.8307037 2.475163
v 0.9538689 0.8192568 2.490347
v 0.1038132 -0.1710711 1.110648
v 0.6446304 0.5116749 1.313367
v 0.1316128 -0.03875446 1.008596
v 0.6745167 0.4410954 1.410708
v 1.041087 0.7592697 1.830098
v 1.076967 0.869812 1.809313
v 1.016599 0.8307037 2.475163
v 1.036933 0.8919888 2.463876
v 0.9318047 0.9303818 2.482963
v 0.9538689 0.8192568 2.490347
v 0.9114723 0.8690968 2.494249
v 0.9945345 0.9418287 2.46778
v 1.016599 0.8307037 2.475163
v 1.036933 0.8919888 2.463876
v 1.000193 0.9594688 1.811852
v 1.036933 0.8919888 2.463876
v 0.9945345 0.9418287 2.46778
v 1.076967 0.869812 1.809313
v 0.9538689 0.8192568 2.490347
v 0.8516636 0.8280411 1.855954
v 0.9114723 0.8690968 2.494249
v 0.9284353 0.7383842 1.853417
v 0.742116 0.1956511 2.013898
v 0.7461023 0.09001541 1.993628
v 0.7135925 0.1406422 2.009185
v 0.8031502 0.2000341 2.003055
v 0.8071346 0.0943985 1.982786
v 0.835659 0.1494083 1.987497
v 0.7400475 0.2011633 1.592859
v 0.3496618 0.3378134 1.23065
v 0.3814211 0.24613 1.174844
v 0.701683 0.2962742 1.626723
v 0.835659 0.1494083 1.987497
v 0.8031502 0.2000341 2.003055
v 0.701683 0.2962742 1.626723
v 0.2643108 0.3323393 1.30116
v 0.3496618 0.3378134 1.23065
v 0.6207314 0.2903709 1.667941
v 0.8031502 0.2000341 2.003055
v 0.742116 0.1956511 2.013898
v 0.6207314 0.2903709 1.667941
v 0.2107172 0.2351828 1.315871
v 0.2643108 0.3323393 1.30116
v 0.5781441 0.1893568 1.675302
v 0.742116 0.1956511 2.013898
v 0.7135925 0.1406422 2.009185
v 0.2107172 0.2351828 1.315871
v 0.6165066 0.09424496 1.641442
v 0.2424746 0.1434994 1.260069
v 0.5781441 0.1893568 1.675302
v 0.7461023 0.09001541 1.993628
v 0.7135925 0.1406422 2.009185
v 0.2424746 0.1434994 1.260069
v 0.6974573 0.1001482 1.600221
v 0.3278265 0.1489735 1.189556
v 0.6165066 0.09424496 1.641442
v 0.8071346 0.0943985 1.982786
v 0.7461023 0.09001541 1.993628
v 0.3278265 0.1489735 1.189556
v 0.7400475 0.2011633 1.592859
v 0.3814211 0.24613 1.174844
v 0.6974573 0.1001482 1.600221
v 0.835659 0.1494083 1.987497
v 0.8071346 0.0943985 1.982786
v 0.08350182 0.1740084 1.434738
v 0.4306097 0.1514673 1.540931
v 0.1483431 0.03658009 1.434738
v 0.4198151 0.2249317 1.540931
v 0.1956387 0.2617083 1.504217
v 0.1448441 -0.08434772 1.27527
v 0.4306097 0.1514673 1.540931
v 0.5025415 0.1813555 1.414171
v 0.1483431 0.03658009 1.434738
v 0.4198151 0.2249317 1.540931
v 0.5025415 0.1813555 1.414171
v 0.4306097 0.1514673 1.540931
v 0.4852085 0.3021631 1.363077
v 0.2004366 0.318161 1.27527
v 0.08350182 0.1740084 1.434738
v 0.01609421 0.1574469 1.173083
v 0.1956387 0.2617083 1.504217
v 0.01609421 0.1574469 1.173083
v 0.1483431 0.03658009 1.434738
v 0.1448441 -0.08434772 1.27527
v 0.08350182 0.1740084 1.434738
v 0.1956387 0.2617083 1.504217
v 0.4852085 0.3021631 1.363077
v 0.4198151 0.2249317 1.540931
v 0.2004366 0.318161 1.27527
v -0.8160534 0.5149698 2.581772
v -0.848731 0.1826448 2.407863
v -0.8922033 0.4537735 2.572353
v -0.7923603 0.1916924 2.397731
v -0.788825 0.4021416 2.517353
v -0.7923603 0.1916924 2.397731
v -0.8604269 0.236805 2.305744
v -0.848731 0.1826448 2.407863
v -0.7767401 0.2848825 2.268867
v -0.8265753 0.4024143 2.363517
v -0.8160534 0.5149698 2.581772
v -0.8774376 0.5620584 2.526276
v -0.788825 0.4021416 2.517353
v -0.8774376 0.5620584 2.526276
v -0.8922033 0.4537735 2.572353
v -0.9728603 0.5023975 2.540282
v -0.8160534 0.5149698 2.581772
v -0.6390104 -0.008743286 2.916964
v -0.7381153 0.0739336 3.112648
v -0.6304321 0.03759289 2.922344
v -0.6889877 0.07861805 3.050777
v -0.8504591 -0.003728867 3.028818
v -0.6390104 -0.008743286 2.916964
v -0.6942434 0.07659721 2.86637
v -0.7158937 0.005310059 3.077405
v -0.7881889 0.08214951 2.959609
v -0.7381153 0.0739336 3.112648
v -0.8820934 0.06171799 3.03543
v -0.6889877 0.07861805 3.050777
v -0.8820934 0.06171799 3.03543
v -0.7158937 0.005310059 3.077405
v -0.8504591 -0.003728867 3.028818
v -0.7381153 0.0739336 3.112648
v -0.6889877 0.07861805 3.050777
v -0.7214556 0.1364326 2.856302
v -0.6304321 0.03759289 2.922344
v -0.7881889 0.08214951 2.959609
v 0.2747679 -0.7471123 1.962428
v 0.3393278 -0.9230671 2.002921
v 0.2343283 -0.8252096 1.943571
v 0.3682899 -0.8928909 2.016426
v 0.2320337 -0.8645697 1.83398
v 0.3393278 -0.9230671 2.002921
v 0.4120798 -0.9477978 2.013025
v 0.2343283 -0.8252096 1.943571
v 0.4120798 -0.9477978 2.013025
v 0.3682899 -0.8928909 2.016426
v 0.4726152 -0.8983774 2.007884
v 0.3124008 -0.8021564 1.972101
v 0.4017305 -0.7853165 1.923198
v 0.2969923 -0.7200508 1.813808
v 0.2343283 -0.8252096 1.943571
v 0.2320337 -0.8645697 1.83398
v 0.2747679 -0.7471123 1.962428
v 0.171464 -0.2362881 1.543051
v 0.0598526 -0.5657349 1.767751
v 0.02193642 -0.2633514 1.543051
v 0.1336079 -0.5743217 1.767751
v 0.2271528 -0.3673029 1.731037
v 0.1336079 -0.5743217 1.767751
v 0.0701046 -0.642952 1.64099
v 0.0598526 -0.5657349 1.767751
v 0.1912823 -0.6574755 1.589897
v 0.2804394 -0.386548 1.51793
v 0.171464 -0.2362881 1.543051
v 0.1729136 -0.1668911 1.417045
v 0.2271528 -0.3673029 1.731037
v 0.1729136 -0.1668911 1.417045
v 0.02193642 -0.2633514 1.543051
v -0.09396553 -0.228673 1.383583
v 0.171464 -0.2362881 1.543051
v 0.2271528 -0.3673029 1.731037
v 0.1912823 -0.6574755 1.589897
v 0.1336079 -0.5743217 1.767751
v 0.2804394 -0.386548 1.51793
v 0.843688 0.6774158 1.757191
v 0.629755 0.4818029 1.605603
v 0.8235264 0.6272907 1.843931
v 0.6156101 0.4521437 1.506064
v 0.4359837 0.3363152 1.532288
v 0.3875322 0.2268715 1.419949
v 0.4554367 0.5611305 1.438508
v 0.384963 0.4444494 1.593928
v 0.2953482 0.399992 1.346785
v 0.4978456 0.5551329 1.594591
v 0.6155252 0.7222691 1.695244
v 0.6107273 0.6658163 1.760267
v 0.2953482 0.399992 1.346785
v 0.4359837 0.3363152 1.532288
v 0.3875322 0.2268715 1.419949
v 0.384963 0.4444494 1.593928
v 0.6107273 0.6658163 1.760267
v 0.8781252 0.7779875 1.783051
v 0.8127317 0.7007561 1.843931
v 0.6155252 0.7222691 1.695244
v 0.6107273 0.6658163 1.760267
v 0.5728512 0.5230885 1.636424
v 0.4978456 0.5551329 1.594591
v 0.8127317 0.7007561 1.843931
v 0.8235264 0.6272907 1.843931
v 0.629755 0.4818029 1.605603
v 0.384963 0.4444494 1.593928
v 0.4359837 0.3363152 1.532288
v -0.04721546 -0.1907778 1.740156
v -0.5006638 0.06507969 2.195878
v -0.006830215 -0.07823849 1.740156
v -0.5449781 0.005498886 2.195878
v -0.3774328 -0.1126347 2.006941
v -0.420743 -0.1491594 1.941918
v -0.04721546 -0.1907778 1.740156
v 0.04758739 -0.2227097 1.493012
v -0.3774328 -0.1126347 2.006941
v 0.04758739 -0.2227097 1.493012
v -0.006830215 -0.07823849 1.740156
v 0.1048193 -0.03511047 1.566177
v -0.04721546 -0.1907778 1.740156
v -0.3774328 -0.1126347 2.006941
v -0.6458292 -0.002872467 2.134998
v -0.5449781 0.005498886 2.195878
v -0.420743 -0.1491594 1.941918

vn 0.6870117 -0.5698242 -0.4504395
vn 0.6870117 -0.5698242 -0.4504395
vn 0.6870117 -0.5698242 -0.4504395
vn 0.6660156 -0.6557617 -0.3552246
vn 0.6660156 -0.6557617 -0.3552246
vn 0.6660156 -0.6557617 -0.3552246
vn 0.4060059 0.3110352 -0.859375
vn 0.4060059 0.3110352 -0.859375
vn 0.4060059 0.3110352 -0.859375
vn -0.03289795 -0.6796875 0.7329102
vn -0.03289795 -0.6796875 0.7329102
vn -0.03289795 -0.6796875 0.7329102
vn -0.3625488 0.8081055 -0.4643555
vn -0.3625488 0.8081055 -0.4643555
vn -0.3625488 0.8081055 -0.4643555
vn -0.3041992 0.800293 -0.5166016
vn -0.3041992 0.800293 -0.5166016
vn -0.3041992 0.800293 -0.5166016
vn -0.7353516 0.527832 0.4250488
vn -0.7353516 0.527832 0.4250488
vn -0.7353516 0.527832 0.4250488
vn -0.71875 0.6186523 0.3168945
vn -0.71875 0.6186523 0.3168945
vn -0.71875 0.6186523 0.3168945
vn -0.3342285 -0.2485352 0.9091797
vn -0.3342285 -0.2485352 0.9091797
vn -0.3342285 -0.2485352 0.9091797
vn -0.1226807 0.7143555 -0.6889648
vn -0.1226807 0.7143555 -0.6889648
vn -0.1226807 0.7143555 -0.6889648
vn 0.3300781 -0.831543 0.4465332
vn 0.3300781 -0.831543 0.4465332
vn 0.3300781 -0.831543 0.4465332
vn 0.2749023 -0.8164063 0.5073242
vn 0.2749023 -0.8164063 0.5073242
vn 0.2749023 -0.8164063 0.5073242
vn -0.7041016 0.5166016 0.4873047
vn -0.925293 0.04174805 0.3764648
vn -0.9394531 -0.07037354 0.3354492
vn -0.925293 0.04174805 0.3764648
vn -0.7041016 0.5166016 0.4873047
vn -0.5615234 0.6645508 0.4931641
vn 0.9746094 -0.05484009 -0.2166748
vn 0.9204102 -0.2792969 0.2736816
vn 0.6577148 -0.3342285 0.675293
vn 0.9204102 -0.2792969 0.2736816
vn 0.9746094 -0.05484009 -0.2166748
vn 0.8320313 -0.2032471 -0.5166016
vn 0.8696289 0.4748535 0.1361084
vn 0.8515625 0.4990234 0.1600342
vn 0.9018555 0.4257813 -0.07336426
vn 0.8071289 -0.4680176 -0.3596191
vn 0.7080078 -0.6835938 -0.1774902
vn 0.6479492 -0.7607422 0.03161621
vn 0.7080078 -0.6835938 -0.1774902
vn 0.8071289 -0.4680176 -0.3596191
vn 0.4660645 0.006896973 -0.8847656
vn -0.00687027 0.9853516 -0.1694336
vn 0.001555443 0.9980469 0.06057739
vn -0.2088623 0.9516602 0.2254639
vn 0.3813477 0.4450684 -0.8100586
vn 0.3879395 0.5029297 -0.7724609
vn 0.3422852 0.2176514 -0.9140625
vn 0.3879395 0.5029297 -0.7724609
vn 0.3813477 0.4450684 -0.8100586
vn 0.3789063 0.8320313 -0.4052734
vn 0.4191895 -0.6938477 0.5854492
vn 0.4191895 -0.6938477 0.5854492
vn 0.4191895 -0.6938477 0.5854492
vn 0.5595703 -0.7485352 0.355957
vn 0.5595703 -0.7485352 0.355957
vn 0.5595703 -0.7485352 0.355957
vn 0.5415039 -0.7998047 0.2595215
vn 0.5415039 -0.7998047 0.2595215
vn 0.5415039 -0.7998047 0.2595215
vn -0.4140625 0.9077148 -0.07049561
vn -0.362793 0.9248047 -0.1142578
vn 0.7988281 0.1728516 -0.5761719
vn -0.8681641 0.4743652 -0.1444092
vn -0.9575195 0.2086182 0.1992188
vn -0.9458008 0.1099854 0.3061523
vn -0.9575195 0.2086182 0.1992188
vn -0.8681641 0.4743652 -0.1444092
vn -0.7177734 0.5991211 -0.3549805
vn 0.5102539 0.7197266 -0.4707031
vn 0.9067383 0.3752441 0.1914063
vn 0.9438477 0.2995605 -0.1386719
vn 0.9067383 0.3752441 0.1914063
vn 0.5102539 0.7197266 -0.4707031
vn 0.2988281 0.8608398 -0.4116211
vn 0.6254883 0.5068359 -0.5932617
vn 0.3701172 0.2120361 -0.9042969
vn 0.3520508 0.192749 -0.9160156
vn 0.3701172 0.2120361 -0.9042969
vn 0.6254883 0.5068359 -0.5932617
vn 0.6567383 0.5493164 -0.5161133
vn -0.3200684 0.8276367 0.4606934
vn -0.3349609 0.9423828 0.0005345345
vn -0.1031494 0.9916992 -0.07672119
vn -0.3349609 0.9423828 0.0005345345
vn -0.3200684 0.8276367 0.4606934
vn -0.3256836 0.6699219 0.6674805
vn -0.4572754 0.8852539 -0.08544922
vn -0.2832031 0.8208008 0.4963379
vn -0.04714966 0.9365234 0.347168
vn 0.8618164 0.07189941 -0.5019531
vn 0.8505859 0.1079102 -0.5146484
vn 0.8637695 0.07336426 -0.4985352
vn 0.8457031 0.1153564 -0.5205078
vn 0.7456055 0.3283691 -0.5795898
vn 0.7304688 0.3447266 -0.5893555
vn 0.7294922 0.4458008 -0.519043
vn 0.7333984 0.4484863 -0.5112305
vn 0.8588867 0.1185303 -0.4978027
vn 0.8623047 0.09320068 -0.4978027
vn 0.8701172 -0.1569824 -0.4675293
vn 0.871582 -0.1574707 -0.4643555
vn -0.00958252 0.1248169 -0.9921875
vn -0.03417969 0.1166992 -0.9926758
vn -1.192093E-07 0.1287842 -0.9916992
vn -0.0447998 0.1123047 -0.9926758
vn -0.04745483 -0.03942871 -0.9980469
vn -0.06488037 -0.0165863 -0.9975586
vn 0.05435181 -0.1429443 -0.9882813
vn 0.05282593 -0.1392822 -0.9887695
vn 0.009246826 0.003135681 -1
vn 0 0.01676941 -1
vn 0.1022949 0.168335 -0.9804688
vn 0.1159058 0.1655273 -0.9794922
vn -0.8657227 0.06762695 -0.4956055
vn -0.8608398 0.1144409 -0.4963379
vn -0.8603516 0.1142578 -0.4968262
vn -0.8671875 0.06039429 -0.4943848
vn -0.8500977 -0.2880859 -0.4406738
vn -0.8134766 -0.3959961 -0.4260254
vn -0.6953125 -0.5478516 -0.465332
vn -0.6787109 -0.5595703 -0.4755859
vn -0.8632813 -0.02256775 -0.5043945
vn -0.8657227 -0.0249176 -0.4997559
vn -0.7841797 0.3791504 -0.4916992
vn -0.7817383 0.3793945 -0.4953613
vn -0.862793 0.006595612 0.5053711
vn -0.8652344 0.04876709 0.4992676
vn -0.8652344 0.04876709 0.4995117
vn -0.8613281 -0.004058838 0.5083008
vn -0.7763672 -0.265625 0.5717773
vn -0.765625 -0.2766113 0.5805664
vn -0.777832 -0.3754883 0.503418
vn -0.7807617 -0.3759766 0.4987793
vn -0.8676758 0.009658813 0.4968262
vn -0.8657227 0.02958679 0.4997559
vn -0.8344727 0.2658691 0.482666
vn -0.8344727 0.2658691 0.482666
vn 0.02337646 0.009117126 0.9995117
vn 0.006038666 0.006813049 1
vn 0 0.004447937 1
vn 0.0302124 0.01143646 0.9995117
vn 0.01844788 0.1459961 0.9892578
vn 0.03735352 0.121521 0.9916992
vn -0.1292725 0.2398682 0.9619141
vn -0.1194458 0.2346191 0.9648438
vn -0.01596069 0.1136475 0.9931641
vn -0.001742363 0.1046753 0.9946289
vn -0.03948975 -0.06317139 0.9970703
vn -0.04302979 -0.0614624 0.9970703
vn 0.8666992 0.02485657 0.498291
vn 0.8686523 0.06378174 0.4916992
vn 0.8657227 0.0255127 0.4997559
vn 0.8696289 0.06835938 0.4892578
vn 0.8256836 0.3791504 0.4174805
vn 0.7856445 0.4726563 0.3994141
vn 0.6201172 0.6430664 0.4494629
vn 0.6123047 0.6464844 0.454834
vn 0.8500977 0.1531982 0.503418
vn 0.8544922 0.1633301 0.4934082
vn 0.8271484 -0.2849121 0.4846191
vn 0.8266602 -0.2849121 0.4853516
vn 0.5737305 0.8193359 -1.192093E-07
vn 0.5737305 0.8193359 -1.192093E-07
vn 0.5737305 0.8193359 -1.192093E-07
vn 0.5737305 0.8193359 -1.192093E-07
vn 0.5737305 0.8193359 5.960464E-08
vn 0.5737305 0.8193359 5.960464E-08
vn 0.5400391 0.6293945 -0.5585938
vn 0.534668 0.6240234 -0.5693359
vn 0.5405273 0.6298828 -0.5576172
vn 0.5341797 0.6235352 -0.5708008
vn -0.1765137 0.07092285 -0.9819336
vn -0.1151123 0.142334 -0.9829102
vn -0.1807861 0.0657959 -0.9814453
vn -0.1065063 0.1520996 -0.9824219
vn -0.7138672 -0.482666 -0.5073242
vn -0.6904297 -0.4389648 -0.574707
vn -0.715332 -0.4853516 -0.5029297
vn -0.6875 -0.4335938 -0.5825195
vn -0.6293945 -0.5605469 0.5375977
vn -0.6035156 -0.5512695 0.5756836
vn -0.6318359 -0.5615234 0.5341797
vn -0.6005859 -0.550293 0.5800781
vn 0.07550049 -0.03201294 0.996582
vn 0.04290771 -0.05300903 0.9975586
vn 0.08001709 -0.02911377 0.996582
vn 0.03890991 -0.05557251 0.9975586
vn 0.6601563 0.5336914 0.5288086
vn 0.6347656 0.5141602 0.5766602
vn 0.6625977 0.5356445 0.5239258
vn 0.6318359 0.5117188 0.5820313
vn -0.5737305 0.8193359 5.602837E-06
vn -0.5737305 0.8193359 5.602837E-06
vn -0.5737305 0.8193359 5.602837E-06
vn -0.5737305 0.8193359 5.602837E-06
vn -0.5737305 0.8193359 -1.192093E-07
vn -0.5737305 0.8193359 -1.192093E-07
vn -0.6108398 -0.7587891 -0.225708
vn -0.7055664 -0.5922852 -0.388916
vn -0.609375 -0.7592773 -0.2276611
vn -0.7016602 -0.6123047 -0.364502
vn -0.8051758 -0.3867188 -0.4494629
vn -0.8125 -0.3840332 -0.4387207
vn -0.8837891 -0.09588623 0.458252
vn -0.9213867 0.0005435944 0.388916
vn -0.8842773 -0.09777832 0.4567871
vn -0.9155273 -0.003715515 0.4018555
vn -0.9072266 0.12854 0.4006348
vn -0.9008789 0.1345215 0.4121094
vn -0.3098145 0.6977539 0.6459961
vn -0.2366943 0.644043 0.7275391
vn -0.3149414 0.6953125 0.6459961
vn -0.2294922 0.6445313 0.7294922
vn -0.1142578 0.5668945 0.815918
vn -0.1030273 0.5678711 0.8164063
vn 0.5449219 0.8261719 0.1418457
vn 0.65625 0.7026367 0.2758789
vn 0.5415039 0.828125 0.1442871
vn 0.6689453 0.6850586 0.2890625
vn 0.7768555 0.4975586 0.3857422
vn 0.784668 0.4919434 0.3776855
vn 0.824707 0.1580811 -0.5429688
vn 0.8642578 0.09960938 -0.4929199
vn 0.824707 0.1585693 -0.5429688
vn 0.8666992 0.09320068 -0.4899902
vn 0.8813477 -0.008110046 -0.472168
vn 0.878418 -0.01425934 -0.4780273
vn 0.2457275 -0.6386719 -0.7290039
vn 0.1895752 -0.5454102 -0.8164063
vn 0.2468262 -0.6376953 -0.7294922
vn 0.1890869 -0.5512695 -0.8125
vn 0.08575439 -0.453125 -0.887207
vn 0.07879639 -0.4555664 -0.8867188
vn -0.185791 0.8666992 -0.4628906
vn -0.185791 0.8666992 -0.4628906
vn -0.185791 0.8666992 -0.4628906
vn -0.185791 0.8666992 -0.4628906
vn -0.185791 0.8666992 -0.4628906
vn -0.185791 0.8666992 -0.4628906
vn 0.5234375 -0.7763672 0.3513184
vn 0.5800781 -0.5698242 0.5825195
vn 0.5151367 -0.777832 0.359375
vn 0.5878906 -0.6279297 0.5102539
vn 0.5488281 -0.09613037 0.8305664
vn 0.5512695 -0.09796143 0.8286133
vn 0.4655762 0.1749268 0.8676758
vn 0.4650879 0.1745605 0.8676758
vn 0.96875 -0.1314697 -0.2114258
vn 0.9897461 -0.05667114 -0.1308594
vn 0.9682617 -0.1287842 -0.2139893
vn 0.9926758 -0.03967285 -0.1147461
vn 0.9667969 0.2548828 -0.01558685
vn 0.9697266 0.2440186 -0.01928711
vn 0.4382324 0.7568359 -0.4851074
vn 0.4101563 0.6660156 -0.6230469
vn 0.4475098 0.7524414 -0.4833984
vn 0.4331055 0.5737305 -0.6948242
vn 0.4001465 0.394043 -0.8276367
vn 0.3928223 0.3991699 -0.8286133
vn 0.4135742 0.3359375 -0.8461914
vn 0.4143066 0.3364258 -0.8457031
vn -0.4614258 0.8759766 -0.1420898
vn -0.5761719 0.7080078 -0.4089355
vn -0.4494629 0.8813477 -0.145752
vn -0.590332 0.6391602 -0.4926758
vn -0.5668945 0.1888428 -0.8022461
vn -0.5698242 0.1917725 -0.7993164
vn -0.5224609 -0.01928711 -0.8525391
vn -0.5229492 -0.01934814 -0.8520508
vn -0.8911133 0.2868652 0.3513184
vn -0.9736328 0.1306152 0.1862793
vn -0.8935547 0.2756348 0.3549805
vn -0.9594727 0.1832275 0.213501
vn -0.9853516 -0.1657715 0.03833008
vn -0.9868164 -0.1577148 0.04110718
vn -0.9619141 -0.2727051 0.01101685
vn -0.9619141 -0.2727051 0.010849
vn -0.4414063 -0.6186523 0.6503906
vn -0.4448242 -0.5058594 0.7387695
vn -0.4450684 -0.6147461 0.6508789
vn -0.4350586 -0.565918 0.7006836
vn -0.420166 -0.3068848 0.8540039
vn -0.4179688 -0.2995605 0.8574219
vn -0.4470215 -0.1695557 0.878418
vn -0.4477539 -0.1699219 0.8779297
vn -0.236084 0.9331055 0.2717285
vn -0.236084 0.9331055 0.2717285
vn -0.236084 0.9331055 0.2717285
vn -0.236084 0.9331055 0.2714844
vn -0.236084 0.9331055 0.2717285
vn -0.236084 0.9331055 0.2717285
vn 0.9697266 0.2440186 -0.01928711
vn 0.902832 0.4284668 0.03536987
vn 0.902832 0.4282227 0.03619385
vn 0.9667969 0.2548828 -0.01558685
vn 0.7050781 0.6083984 0.3640137
vn 0.7050781 0.6083984 0.3640137
vn 0.7050781 0.6083984 0.3640137
vn 0.7050781 0.6083984 0.3640137
vn 0.7050781 0.6083984 0.3640137
vn 0.7050781 0.6083984 0.3640137
vn 0.2719727 -0.9213867 -0.2773438
vn 0.2834473 -0.8564453 -0.4318848
vn 0.2814941 -0.9204102 -0.270752
vn 0.2929688 -0.8300781 -0.4746094
vn 0.6748047 -0.4243164 -0.6040039
vn 0.6865234 -0.4121094 -0.5991211
vn -0.4147949 -0.4790039 -0.7739258
vn -0.4558105 -0.3398438 -0.8227539
vn -0.4035645 -0.4897461 -0.7729492
vn -0.4685059 -0.3242188 -0.8217773
vn -0.2283936 -0.1811523 -0.956543
vn -0.2280273 -0.2619629 -0.9379883
vn -0.1740723 0.0243988 -0.984375
vn -0.1737061 0.02433777 -0.984375
vn -0.684082 0.5048828 -0.5258789
vn -0.7485352 0.5214844 -0.4099121
vn -0.6845703 0.5009766 -0.5297852
vn -0.7333984 0.5322266 -0.4233398
vn -0.9067383 0.2481689 -0.3410645
vn -0.8823242 0.3183594 -0.3461914
vn -0.9433594 0.06848145 -0.324707
vn -0.9428711 0.06854248 -0.3254395
vn -0.2142334 0.9487305 0.2319336
vn -0.2678223 0.862793 0.4287109
vn -0.2178955 0.9492188 0.2265625
vn -0.2497559 0.8857422 0.3916016
vn -0.6333008 0.5205078 0.5732422
vn -0.6503906 0.5004883 0.5712891
vn 0.46875 0.5336914 0.7036133
vn 0.4812012 0.3483887 0.8041992
vn 0.4592285 0.5498047 0.6977539
vn 0.4787598 0.3469238 0.8066406
vn 0.2445068 0.265625 0.9326172
vn 0.2374268 0.328125 0.9140625
vn 0.2050781 0.1152344 0.972168
vn 0.2052002 0.1152344 0.9716797
vn 0.7646484 -0.4331055 0.4770508
vn 0.7739258 -0.503418 0.3842773
vn 0.7680664 -0.4187012 0.484375
vn 0.7836914 -0.5039063 0.362793
vn 0.9106445 -0.2370605 0.3381348
vn 0.9291992 -0.1610107 0.3322754
vn 0.9506836 0.06848145 0.302002
vn 0.9506836 0.06842041 0.3027344
vn 0.2154541 0.9707031 -0.1072388
vn 0.2154541 0.9707031 -0.1072388
vn 0.2154541 0.9707031 -0.1072388
vn 0.215332 0.9707031 -0.1072388
vn 0.2154541 0.9707031 -0.1072388
vn 0.2154541 0.9707031 -0.1072388
vn 0.6865234 -0.4121094 -0.5991211
vn 0.762207 0.02401733 -0.6469727
vn 0.762207 0.02397156 -0.6464844
vn 0.6748047 -0.4243164 -0.6040039
vn -0.7524414 0.1122437 0.6489258
vn -0.6503906 0.5004883 0.5712891
vn -0.7524414 0.1122437 0.6489258
vn -0.6333008 0.5205078 0.5732422
vn 0.1845703 0.9663086 0.1784668
vn 0.1845703 0.9663086 0.1784668
vn 0.1845703 0.9663086 0.1784668
vn 0.1845703 0.9663086 0.1784668
vn 0.1845703 0.9663086 0.1784668
vn 0.1845703 0.9663086 0.1784668
vn 0.8061523 -0.3686523 -0.4628906
vn 0.6674805 -0.5180664 -0.534668
vn 0.6655273 -0.5126953 -0.5424805
vn 0.8041992 -0.3701172 -0.465332
vn 0.8398438 -0.09442139 -0.5341797
vn 0.8271484 -0.08087158 -0.5561523
vn 0.02171326 0.1778564 -0.9838867
vn 0.01049805 0.09613037 -0.9951172
vn 0.01292419 0.09295654 -0.9956055
vn 0.01533508 0.1787109 -0.9838867
vn -0.01036835 0.265625 -0.9638672
vn -0.02099609 0.270752 -0.9624023
vn -0.7480469 0.5541992 -0.3654785
vn -0.6225586 0.6586914 -0.4230957
vn -0.6186523 0.6513672 -0.4396973
vn -0.7470703 0.5610352 -0.3566895
vn -0.8300781 0.3947754 -0.3933105
vn -0.8291016 0.3942871 -0.3962402
vn -0.6323242 0.5537109 0.5419922
vn -0.7519531 0.4580078 0.473877
vn -0.6303711 0.546875 0.5512695
vn -0.7504883 0.4589844 0.4753418
vn -0.7954102 0.2469482 0.5532227
vn -0.7836914 0.2340088 0.5751953
vn -0.01696777 -0.1040649 0.9946289
vn 0.02967834 -0.07861328 0.996582
vn -0.01945496 -0.100769 0.9946289
vn 0.02990723 -0.08483887 0.9960938
vn 0.06390381 -0.0352478 0.9975586
vn 0.06524658 -0.03598022 0.9970703
vn 0.6567383 -0.6147461 0.4367676
vn 0.7998047 -0.4645996 0.380127
vn 0.6523438 -0.6083984 0.4519043
vn 0.7949219 -0.479248 0.3720703
vn 0.8696289 -0.2568359 0.4213867
vn 0.8671875 -0.255127 0.4277344
vn -0.2770996 0.9375 0.2105713
vn -0.2958984 0.953125 0.06665039
vn -0.2980957 0.9443359 0.140625
vn -0.2836914 0.9521484 0.1118164
vn -0.2137451 0.8798828 0.4240723
vn 0.2619629 0.4675293 0.8442383
vn 0.480957 0.2327881 0.8452148
vn 0.5600586 0.1246338 0.8188477
vn 0.09747314 0.6000977 0.7939453
vn 0.5742188 0.5371094 -0.6176758
vn 0.8466797 0.4611816 -0.265625
vn 0.8500977 0.5117188 -0.1248779
vn 0.3742676 0.4299316 -0.8217773
vn -0.6835938 0.1452637 -0.715332
vn -0.6801758 0.1499023 -0.7177734
vn -0.6923828 0.1334229 -0.7089844
vn -0.6689453 0.1646729 -0.7246094
vn -0.8847656 0.2719727 0.3789063
vn -0.8837891 0.2702637 0.3818359
vn -0.890625 0.2871094 0.3527832
vn -0.8754883 0.251709 0.4130859
vn 0.01881409 0.3110352 -0.9501953
vn 0.3742676 0.4299316 -0.8217773
vn 0.5742188 0.5371094 -0.6176758
vn -0.01914978 0.2390137 -0.9707031
vn 0.2335205 0.8496094 0.4724121
vn 0.2346191 0.8515625 0.46875
vn 0.2712402 0.8417969 0.467041
vn 0.2183838 0.8549805 0.4707031
vn 0.008552551 0.8691406 0.4941406
vn 0.6577148 -0.3342285 0.675293
vn 0.1794434 -0.5371094 0.8242188
vn 0.05615234 -0.4729004 0.8793945
vn 0.9204102 -0.2792969 0.2736816
vn 0.8481445 -0.2744141 -0.4528809
vn 0.8085938 -0.2998047 -0.5058594
vn 0.7451172 -0.3337402 -0.5776367
vn 0.9111328 -0.2229004 -0.347168
vn -0.2785645 0.8696289 -0.407959
vn -0.2597656 0.8754883 -0.407959
vn -0.1183472 0.9077148 -0.4023438
vn -0.4240723 0.8110352 -0.402832
vn 0.8515625 0.4990234 0.1600342
vn 0.8696289 0.4748535 0.1361084
vn 0.8237305 0.512207 0.2421875
vn 0.6645508 0.4846191 0.5688477
vn -0.130127 -0.2025146 0.9707031
vn -0.2685547 -0.4702148 0.8408203
vn -0.3713379 -0.6733398 0.6396484
vn 0.03013611 0.1015625 0.9941406
vn -0.1013794 0.08636475 -0.9912109
vn -0.07080078 0.07653809 -0.9946289
vn -0.1358643 0.09741211 -0.9858398
vn -0.01960754 0.05999756 -0.9980469
vn -0.3378906 0.8759766 0.3439941
vn -0.359375 0.8168945 0.4509277
vn -0.3146973 0.9169922 0.244751
vn -0.3703613 0.7719727 0.5166016
vn 0.2978516 0.2259521 -0.9272461
vn 0.4660645 0.006896973 -0.8847656
vn 0.8071289 -0.4680176 -0.3596191
vn -0.2565918 0.3144531 -0.9140625
vn -0.362793 0.9248047 -0.1142578
vn -0.4589844 0.8876953 -0.03588867
vn -0.4702148 0.8818359 -0.0304718
vn -0.4140625 0.9077148 -0.07049561
vn -0.6660156 0.171875 0.7255859
vn -0.4023438 -0.06072998 0.9135742
vn -0.302002 -0.1348877 0.9438477
vn -0.7314453 0.2440186 0.6367188
vn 0.001555443 0.9980469 0.06057739
vn -0.00687027 0.9853516 -0.1694336
vn 0.1464844 0.9155273 -0.3745117
vn 0.2012939 0.7602539 -0.6176758
vn 0.2514648 0.6923828 -0.6762695
vn -0.9003906 -0.08959961 -0.4260254
vn -0.8984375 -0.08526611 -0.4301758
vn -0.9116211 -0.1219482 -0.3928223
vn -0.8823242 -0.04669189 -0.4682617
vn -0.2780762 0.7729492 -0.5703125
vn 0.02784729 0.8300781 -0.5566406
vn -0.1057739 0.8046875 -0.5844727
vn -0.1453857 0.8164063 -0.559082
vn -0.7416992 0.5170898 -0.427002
vn 0.447998 0.5371094 0.7148438
vn 0.03744507 0.4611816 0.8867188
vn -0.09936523 0.5117188 0.8535156
vn 0.6850586 0.4382324 0.5820313
vn 0.809082 0.1983643 -0.5537109
vn 0.8037109 0.2457275 -0.5419922
vn 0.7954102 0.2993164 -0.5268555
vn 0.8120117 0.1520996 -0.5634766
vn -0.2067871 0.4262695 -0.8808594
vn -0.2219238 0.4111328 -0.8842773
vn -0.253418 0.3779297 -0.890625
vn -0.1567383 0.4750977 -0.8657227
vn 0.9082031 0.3210449 0.2685547
vn 0.6850586 0.4382324 0.5820313
vn 0.447998 0.5371094 0.7148438
vn 0.9365234 0.2558594 0.2402344
vn 0.7270508 -0.166748 0.6660156
vn 0.6083984 0.1226807 0.7841797
vn 0.7353516 -0.2028809 0.6469727
vn 0.5644531 0.2097168 0.7983398
vn 0.534668 0.4189453 0.7338867
vn 0.5263672 0.4658203 0.7114258
vn -0.7548828 0.1943359 -0.6264648
vn -0.7172852 0.1799316 -0.6728516
vn -0.7431641 0.1522217 -0.6518555
vn -0.8032227 0.2443848 -0.5429688
vn -0.855957 0.2902832 -0.4279785
vn -0.8554688 0.302002 -0.4206543
vn -0.7988281 0.4824219 0.3588867
vn -0.7861328 0.4506836 0.4228516
vn -0.8125 0.546875 0.2015381
vn -0.7412109 0.3696289 0.5605469
vn -0.3544922 0.5898438 -0.7255859
vn 0.2988281 0.8608398 -0.4116211
vn 0.5102539 0.7197266 -0.4707031
vn -0.3527832 0.5986328 -0.7192383
vn -0.2722168 0.7612305 0.5883789
vn -0.2832031 0.8208008 0.4963379
vn -0.4572754 0.8852539 -0.08544922
vn -0.5224609 0.815918 0.2475586
vn -0.5854492 0.7924805 0.1704102
vn -0.08685303 0.75 0.6557617
vn -0.04714966 0.9365234 0.347168
vn 0.03207397 0.8745117 0.4833984
vn 0.6108398 0.7495117 0.2553711
vn 0.5405273 0.7509766 0.3793945
vn 0.625 0.7475586 0.2242432
vn 0.5244141 0.7480469 0.4072266
vn 0.4709473 0.7285156 0.4973145
vn 0.1010742 0.3769531 0.9208984
vn -0.03866577 0.1326904 0.9902344
vn -0.05212402 0.1082764 0.9926758
vn 0.1268311 0.420166 0.8984375
vn 0.8330078 0.4042969 0.3776855
vn 0.8486328 0.3935547 0.3535156
vn 0.8105469 0.4182129 0.4104004
vn 0.8725586 0.3752441 0.3129883
vn -0.105896 0.5097656 0.8535156
vn -0.3256836 0.6699219 0.6674805
vn -0.3200684 0.8276367 0.4606934
vn -0.09002686 0.5327148 0.8413086

vt 0.1572266 0.4711914
vt 0.182251 0.4863281
vt 0.1820068 0.4880371
vt 0.182251 0.4863281
vt 0.1572266 0.4711914
vt 0.1563721 0.4680176
vt 0.1556396 0.4680176
vt 0.1820068 0.4880371
vt 0.1800537 0.4902344
vt 0.1820068 0.4880371
vt 0.1556396 0.4680176
vt 0.1572266 0.4711914
vt 0.1783447 0.4909668
vt 0.1556396 0.4680176
vt 0.1800537 0.4902344
vt 0.1556396 0.4680176
vt 0.1783447 0.4909668
vt 0.1531982 0.4699707
vt 0.1785889 0.4892578
vt 0.1531982 0.4699707
vt 0.1783447 0.4909668
vt 0.1531982 0.4699707
vt 0.1785889 0.4892578
vt 0.1523438 0.4667969
vt 0.180542 0.4868164
vt 0.1523438 0.4667969
vt 0.1785889 0.4892578
vt 0.1523438 0.4667969
vt 0.180542 0.4868164
vt 0.1539307 0.4699707
vt 0.1563721 0.4680176
vt 0.180542 0.4868164
vt 0.182251 0.4863281
vt 0.180542 0.4868164
vt 0.1563721 0.4680176
vt 0.1539307 0.4699707
vt 0.8422852 0.597168
vt 0.8432617 0.5771484
vt 0.8349609 0.5693359
vt 0.8432617 0.5771484
vt 0.8422852 0.597168
vt 0.8515625 0.5942383
vt 0.8564453 0.5825195
vt 0.8398438 0.5605469
vt 0.8476563 0.5727539
vt 0.8398438 0.5605469
vt 0.8564453 0.5825195
vt 0.8422852 0.5722656
vt 0.902832 0.6289063
vt 0.8974609 0.6054688
vt 0.9023438 0.6245117
vt 0.8984375 0.6054688
vt 0.8891602 0.6049805
vt 0.8974609 0.6054688
vt 0.8891602 0.6049805
vt 0.8984375 0.6054688
vt 0.8862305 0.6064453
vt 0.918457 0.4580078
vt 0.921875 0.4545898
vt 0.9150391 0.4587402
vt 0.9150391 0.4477539
vt 0.9067383 0.4599609
vt 0.8979492 0.4458008
vt 0.9067383 0.4599609
vt 0.9150391 0.4477539
vt 0.9106445 0.458252
vt 0.9267578 0.449707
vt 0.894043 0.4521484
vt 0.921875 0.4545898
vt 0.894043 0.4521484
vt 0.9150391 0.4477539
vt 0.8979492 0.4458008
vt 0.9267578 0.449707
vt 0.9150391 0.4477539
vt 0.894043 0.4521484
vt 0.918457 0.4580078
vt 0.9067383 0.4599609
vt 0.9106445 0.458252
vt 0.8344727 0.4372559
vt 0.875 0.4587402
vt 0.8666992 0.4472656
vt 0.875 0.4587402
vt 0.8344727 0.4372559
vt 0.8554688 0.4423828
vt 0.9438477 0.4118652
vt 0.9404297 0.4023438
vt 0.9448242 0.4111328
vt 0.9404297 0.4023438
vt 0.9438477 0.4118652
vt 0.9453125 0.4020996
vt 0.8642578 0.4384766
vt 0.8579102 0.534668
vt 0.8510742 0.5390625
vt 0.8579102 0.534668
vt 0.8642578 0.4384766
vt 0.8671875 0.4611816
vt 0.8540039 0.5380859
vt 0.8510742 0.5390625
vt 0.8579102 0.534668
vt 0.8510742 0.5390625
vt 0.8540039 0.5380859
vt 0.8413086 0.5400391
vt 0.8994141 0.4130859
vt 0.9086914 0.411377
vt 0.8901367 0.4208984
vt 0.1610107 0.3557129
vt 0.1502686 0.3989258
vt 0.151123 0.3557129
vt 0.1585693 0.4013672
vt 0.1445313 0.4455566
vt 0.1512451 0.4504395
vt 0.1153564 0.4858398
vt 0.1116943 0.480957
vt 0.102478 0.5063477
vt 0.09790039 0.5063477
vt 0.112915 0.5571289
vt 0.1151733 0.5551758
vt 0.151123 0.3557129
vt 0.1337891 0.3972168
vt 0.1313477 0.3557129
vt 0.1502686 0.3989258
vt 0.1312256 0.4421387
vt 0.1445313 0.4455566
vt 0.1116943 0.480957
vt 0.1027832 0.473877
vt 0.09790039 0.5063477
vt 0.08874512 0.5063477
vt 0.1083374 0.5600586
vt 0.112915 0.5571289
vt 0.1337891 0.3972168
vt 0.12146 0.3557129
vt 0.1313477 0.3557129
vt 0.1254883 0.3979492
vt 0.1312256 0.4421387
vt 0.1245117 0.4433594
vt 0.1027832 0.473877
vt 0.09759521 0.4716797
vt 0.08874512 0.5063477
vt 0.08416748 0.5063477
vt 0.1060181 0.5620117
vt 0.1083374 0.5600586
vt 0.1254883 0.3979492
vt 0.1313477 0.3557129
vt 0.12146 0.3557129
vt 0.1337891 0.4003906
vt 0.1245117 0.4433594
vt 0.1312256 0.4482422
vt 0.1012573 0.4765625
vt 0.09759521 0.4716797
vt 0.08874512 0.5063477
vt 0.08416748 0.5063477
vt 0.1083374 0.5600586
vt 0.1060181 0.5620117
vt 0.1337891 0.4003906
vt 0.151123 0.3557129
vt 0.1313477 0.3557129
vt 0.1502686 0.4020996
vt 0.1312256 0.4482422
vt 0.1445313 0.4516602
vt 0.1101074 0.4836426
vt 0.1012573 0.4765625
vt 0.09790039 0.5063477
vt 0.08874512 0.5063477
vt 0.112915 0.5571289
vt 0.1083374 0.5600586
vt 0.151123 0.3557129
vt 0.1585693 0.4013672
vt 0.1610107 0.3557129
vt 0.1502686 0.4020996
vt 0.1512451 0.4504395
vt 0.1445313 0.4516602
vt 0.1153564 0.4858398
vt 0.1101074 0.4836426
vt 0.102478 0.5063477
vt 0.09790039 0.5063477
vt 0.1151733 0.5551758
vt 0.112915 0.5571289
vt 0.1083374 0.5600586
vt 0.1083374 0.5600586
vt 0.1060181 0.5620117
vt 0.112915 0.5571289
vt 0.112915 0.5571289
vt 0.1151733 0.5551758
vt 0.1045532 0.5351563
vt 0.08215332 0.5556641
vt 0.1034546 0.5317383
vt 0.08380127 0.5566406
vt 0.1034546 0.5317383
vt 0.07885742 0.5532227
vt 0.1011963 0.5258789
vt 0.08215332 0.5556641
vt 0.1011963 0.5258789
vt 0.07720947 0.5522461
vt 0.1000977 0.5229492
vt 0.07885742 0.5532227
vt 0.1000977 0.5229492
vt 0.07885742 0.5532227
vt 0.1011963 0.5258789
vt 0.07720947 0.5522461
vt 0.1011963 0.5258789
vt 0.08215332 0.5556641
vt 0.1034546 0.5317383
vt 0.07885742 0.5532227
vt 0.1034546 0.5317383
vt 0.08380127 0.5566406
vt 0.1045532 0.5351563
vt 0.08215332 0.5556641
vt 0.07885742 0.5532227
vt 0.07885742 0.5532227
vt 0.07720947 0.5522461
vt 0.08215332 0.5556641
vt 0.08215332 0.5556641
vt 0.08380127 0.5566406
vt 0.0993042 0.4833984
vt 0.08026123 0.5043945
vt 0.09484863 0.4853516
vt 0.08361816 0.5024414
vt 0.07751465 0.5268555
vt 0.07897949 0.5263672
vt 0.09484863 0.4853516
vt 0.08154297 0.5078125
vt 0.0960083 0.4914551
vt 0.08026123 0.5043945
vt 0.07861328 0.5283203
vt 0.07751465 0.5268555
vt 0.0960083 0.4914551
vt 0.08618164 0.5097656
vt 0.1015625 0.4956055
vt 0.08154297 0.5078125
vt 0.08123779 0.5288086
vt 0.07861328 0.5283203
vt 0.1015625 0.4956055
vt 0.08947754 0.5083008
vt 0.1060181 0.4936523
vt 0.08618164 0.5097656
vt 0.08270264 0.527832
vt 0.08123779 0.5288086
vt 0.1060181 0.4936523
vt 0.0881958 0.5043945
vt 0.1048584 0.4875488
vt 0.08947754 0.5083008
vt 0.081604 0.5268555
vt 0.08270264 0.527832
vt 0.1048584 0.4875488
vt 0.08361816 0.5024414
vt 0.0993042 0.4833984
vt 0.0881958 0.5043945
vt 0.07897949 0.5263672
vt 0.081604 0.5268555
vt 0.07861328 0.5283203
vt 0.08270264 0.527832
vt 0.08123779 0.5288086
vt 0.07751465 0.5268555
vt 0.081604 0.5268555
vt 0.07897949 0.5263672
vt 0.1409912 0.4282227
vt 0.15979 0.4523926
vt 0.1507568 0.432373
vt 0.1535645 0.4487305
vt 0.152832 0.4868164
vt 0.1586914 0.4890137
vt 0.1409912 0.5180664
vt 0.144165 0.5195313
vt 0.1507568 0.432373
vt 0.1593018 0.4567871
vt 0.1500244 0.4406738
vt 0.15979 0.4523926
vt 0.1586914 0.4890137
vt 0.1582031 0.4907227
vt 0.1500244 0.4406738
vt 0.1524658 0.4575195
vt 0.1396484 0.4448242
vt 0.1593018 0.4567871
vt 0.1582031 0.4907227
vt 0.1516113 0.4899902
vt 0.1402588 0.5200195
vt 0.1439209 0.5205078
vt 0.1396484 0.4448242
vt 0.1462402 0.4538574
vt 0.1298828 0.4406738
vt 0.1524658 0.4575195
vt 0.145752 0.487793
vt 0.1516113 0.4899902
vt 0.1369629 0.5185547
vt 0.1402588 0.5200195
vt 0.1298828 0.4406738
vt 0.1467285 0.4494629
vt 0.1306152 0.432373
vt 0.1462402 0.4538574
vt 0.1462402 0.486084
vt 0.145752 0.487793
vt 0.1373291 0.5175781
vt 0.1369629 0.5185547
vt 0.1306152 0.432373
vt 0.1535645 0.4487305
vt 0.1409912 0.4282227
vt 0.1467285 0.4494629
vt 0.1462402 0.486084
vt 0.152832 0.4868164
vt 0.1373291 0.5175781
vt 0.1409912 0.5180664
vt 0.1439209 0.5205078
vt 0.1369629 0.5185547
vt 0.1402588 0.5200195
vt 0.144165 0.5195313
vt 0.1373291 0.5175781
vt 0.1409912 0.5180664
vt 0.1582031 0.4907227
vt 0.144165 0.5195313
vt 0.1439209 0.5205078
vt 0.1586914 0.4890137
vt 0.1800537 0.4902344
vt 0.1785889 0.4892578
vt 0.1783447 0.4909668
vt 0.1820068 0.4880371
vt 0.180542 0.4868164
vt 0.182251 0.4863281
vt 0.1496582 0.4199219
vt 0.1756592 0.4394531
vt 0.1433105 0.4204102
vt 0.182251 0.439209
vt 0.2097168 0.4707031
vt 0.204834 0.4709473
vt 0.1433105 0.4204102
vt 0.1708984 0.4458008
vt 0.1352539 0.4277344
vt 0.1756592 0.4394531
vt 0.204834 0.4709473
vt 0.1976318 0.4724121
vt 0.2044678 0.5126953
vt 0.2004395 0.5136719
vt 0.1352539 0.4277344
vt 0.1728516 0.4519043
vt 0.1334229 0.434082
vt 0.1708984 0.4458008
vt 0.1976318 0.4724121
vt 0.1953125 0.4736328
vt 0.1990967 0.5141602
vt 0.2004395 0.5136719
vt 0.1334229 0.434082
vt 0.1794434 0.4516602
vt 0.1397705 0.4335938
vt 0.1728516 0.4519043
vt 0.2001953 0.4736328
vt 0.1953125 0.4736328
vt 0.1397705 0.4335938
vt 0.184082 0.4453125
vt 0.1478271 0.4262695
vt 0.1794434 0.4516602
vt 0.2073975 0.472168
vt 0.2001953 0.4736328
vt 0.2058105 0.5131836
vt 0.2017822 0.5141602
vt 0.1478271 0.4262695
vt 0.182251 0.439209
vt 0.1496582 0.4199219
vt 0.184082 0.4453125
vt 0.2073975 0.472168
vt 0.2097168 0.4707031
vt 0.2058105 0.5131836
vt 0.2071533 0.512207
vt 0.2004395 0.5136719
vt 0.2017822 0.5141602
vt 0.1990967 0.5141602
vt 0.2044678 0.5126953
vt 0.2058105 0.5131836
vt 0.2071533 0.512207
vt 0.204834 0.4709473
vt 0.2071533 0.512207
vt 0.2044678 0.5126953
vt 0.2097168 0.4707031
vt 0.2017822 0.5141602
vt 0.1953125 0.4736328
vt 0.1990967 0.5141602
vt 0.2001953 0.4736328
vt 0.1883545 0.4836426
vt 0.1885986 0.4824219
vt 0.1865234 0.4833984
vt 0.1922607 0.4831543
vt 0.1925049 0.4816895
vt 0.1943359 0.4821777
vt 0.1882324 0.4570313
vt 0.1634521 0.434082
vt 0.1655273 0.4304199
vt 0.185791 0.4592285
vt 0.1943359 0.4821777
vt 0.1922607 0.4831543
vt 0.185791 0.4592285
vt 0.1580811 0.4384766
vt 0.1634521 0.434082
vt 0.1806641 0.4616699
vt 0.1922607 0.4831543
vt 0.1883545 0.4836426
vt 0.1806641 0.4616699
vt 0.1546631 0.4394531
vt 0.1580811 0.4384766
vt 0.1779785 0.4621582
vt 0.1883545 0.4836426
vt 0.1865234 0.4833984
vt 0.1546631 0.4394531
vt 0.1804199 0.4602051
vt 0.1566162 0.435791
vt 0.1779785 0.4621582
vt 0.1885986 0.4824219
vt 0.1865234 0.4833984
vt 0.1566162 0.435791
vt 0.1855469 0.4575195
vt 0.1621094 0.4313965
vt 0.1804199 0.4602051
vt 0.1925049 0.4816895
vt 0.1885986 0.4824219
vt 0.1621094 0.4313965
vt 0.1882324 0.4570313
vt 0.1655273 0.4304199
vt 0.1855469 0.4575195
vt 0.1943359 0.4821777
vt 0.1925049 0.4816895
vt 0.8530273 0.4289551
vt 0.8901367 0.4133301
vt 0.8588867 0.4243164
vt 0.8891602 0.4140625
vt 0.8676758 0.4267578
vt 0.847168 0.4111328
vt 0.8901367 0.4133301
vt 0.887207 0.3974609
vt 0.8588867 0.4243164
vt 0.8891602 0.4140625
vt 0.887207 0.3974609
vt 0.8901367 0.4133301
vt 0.8823242 0.3942871
vt 0.8515625 0.4072266
vt 0.8530273 0.4289551
vt 0.8291016 0.4116211
vt 0.8676758 0.4267578
vt 0.8291016 0.4116211
vt 0.8588867 0.4243164
vt 0.847168 0.4111328
vt 0.8530273 0.4289551
vt 0.8676758 0.4267578
vt 0.8823242 0.3942871
vt 0.8891602 0.4140625
vt 0.8515625 0.4072266
vt 0.8583984 0.5898438
vt 0.8432617 0.5771484
vt 0.8515625 0.5942383
vt 0.8476563 0.5727539
vt 0.8564453 0.5825195
vt 0.8476563 0.5727539
vt 0.8349609 0.5693359
vt 0.8432617 0.5771484
vt 0.8398438 0.5605469
vt 0.8422852 0.5722656
vt 0.8583984 0.5898438
vt 0.8496094 0.5893555
vt 0.8564453 0.5825195
vt 0.8496094 0.5893555
vt 0.8515625 0.5942383
vt 0.8422852 0.597168
vt 0.8583984 0.5898438
vt 0.8974609 0.6054688
vt 0.902832 0.6289063
vt 0.8984375 0.6054688
vt 0.9023438 0.6206055
vt 0.887207 0.6298828
vt 0.8974609 0.6054688
vt 0.8891602 0.6049805
vt 0.9023438 0.6245117
vt 0.8876953 0.6196289
vt 0.902832 0.6289063
vt 0.8852539 0.6328125
vt 0.9023438 0.6206055
vt 0.8852539 0.6328125
vt 0.9023438 0.6245117
vt 0.887207 0.6298828
vt 0.902832 0.6289063
vt 0.9023438 0.6206055
vt 0.8862305 0.6064453
vt 0.8984375 0.6054688
vt 0.8876953 0.6196289
vt 0.9067383 0.4599609
vt 0.9150391 0.4587402
vt 0.9018555 0.4611816
vt 0.918457 0.4580078
vt 0.894043 0.4521484
vt 0.9150391 0.4587402
vt 0.921875 0.4545898
vt 0.9018555 0.4611816
vt 0.921875 0.4545898
vt 0.918457 0.4580078
vt 0.9267578 0.449707
vt 0.9106445 0.458252
vt 0.9150391 0.4477539
vt 0.8979492 0.4458008
vt 0.9018555 0.4611816
vt 0.894043 0.4521484
vt 0.9067383 0.4599609
vt 0.8681641 0.4318848
vt 0.875 0.4587402
vt 0.8554688 0.4423828
vt 0.8808594 0.4536133
vt 0.8862305 0.4438477
vt 0.8808594 0.4536133
vt 0.8666992 0.4472656
vt 0.875 0.4587402
vt 0.8735352 0.4343262
vt 0.8759766 0.421875
vt 0.8681641 0.4318848
vt 0.859375 0.4211426
vt 0.8862305 0.4438477
vt 0.859375 0.4211426
vt 0.8554688 0.4423828
vt 0.8344727 0.4372559
vt 0.8681641 0.4318848
vt 0.8862305 0.4438477
vt 0.8735352 0.4343262
vt 0.8808594 0.4536133
vt 0.8759766 0.421875
vt 0.9404297 0.4023438
vt 0.9116211 0.404541
vt 0.9448242 0.4111328
vt 0.9033203 0.3972168
vt 0.8901367 0.4121094
vt 0.8779297 0.4060059
vt 0.8847656 0.402832
vt 0.8901367 0.4208984
vt 0.8647461 0.4064941
vt 0.8994141 0.4130859
vt 0.9165039 0.4130859
vt 0.9208984 0.4189453
vt 0.8647461 0.4064941
vt 0.8901367 0.4121094
vt 0.8779297 0.4060059
vt 0.8901367 0.4208984
vt 0.9208984 0.4189453
vt 0.9453125 0.4020996
vt 0.9438477 0.4118652
vt 0.9165039 0.4130859
vt 0.9208984 0.4189453
vt 0.9086914 0.411377
vt 0.8994141 0.4130859
vt 0.9438477 0.4118652
vt 0.9448242 0.4111328
vt 0.9116211 0.404541
vt 0.8901367 0.4208984
vt 0.8901367 0.4121094
vt 0.8637695 0.4641113
vt 0.8579102 0.534668
vt 0.8671875 0.4611816
vt 0.8540039 0.5380859
vt 0.8549805 0.5102539
vt 0.8466797 0.5078125
vt 0.8637695 0.4641113
vt 0.8544922 0.4365234
vt 0.8549805 0.5102539
vt 0.8544922 0.4365234
vt 0.8671875 0.4611816
vt 0.8642578 0.4384766
vt 0.8637695 0.4641113
vt 0.8549805 0.5102539
vt 0.8413086 0.5400391
vt 0.8540039 0.5380859
vt 0.8466797 0.5078125

g Tree_06_470_46
usemtl Tree_06_470_46
usemap Tree_06_470_46
f 1/1/1 3/3/3 2/2/2
f 4/4/4 6/6/6 5/5/5
f 7/7/7 9/9/9 8/8/8
f 10/10/10 12/12/12 11/11/11
f 13/13/13 15/15/15 14/14/14
f 16/16/16 18/18/18 17/17/17
f 19/19/19 21/21/21 20/20/20
f 22/22/22 24/24/24 23/23/23
f 25/25/25 27/27/27 26/26/26
f 28/28/28 30/30/30 29/29/29
f 31/31/31 33/33/33 32/32/32
f 34/34/34 36/36/36 35/35/35
f 37/37/37 39/39/39 38/38/38
f 40/40/40 42/42/42 41/41/41
f 43/43/43 45/45/45 44/44/44
f 46/46/46 48/48/48 47/47/47
f 49/49/49 51/51/51 50/50/50
f 52/52/52 54/54/54 53/53/53
f 55/55/55 57/57/57 56/56/56
f 58/58/58 60/60/60 59/59/59
f 61/61/61 63/63/63 62/62/62
f 64/64/64 66/66/66 65/65/65
f 67/67/67 69/69/69 68/68/68
f 70/70/70 72/72/72 71/71/71
f 73/73/73 75/75/75 74/74/74
f 76/76/76 78/78/78 77/77/77
f 79/79/79 81/81/81 80/80/80
f 82/82/82 84/84/84 83/83/83
f 85/85/85 87/87/87 86/86/86
f 88/88/88 90/90/90 89/89/89
f 91/91/91 93/93/93 92/92/92
f 94/94/94 96/96/96 95/95/95
f 97/97/97 99/99/99 98/98/98
f 100/100/100 102/102/102 101/101/101
f 103/103/103 105/105/105 104/104/104
f 106/106/106 108/108/108 107/107/107
f 107/107/107 109/109/109 106/106/106
f 109/109/109 107/107/107 110/110/110
f 110/110/110 111/111/111 109/109/109
f 112/112/112 111/111/111 110/110/110
f 110/110/110 113/113/113 112/112/112
f 114/114/114 112/112/112 113/113/113
f 113/113/113 115/115/115 114/114/114
f 114/114/114 115/115/115 116/116/116
f 116/116/116 117/117/117 114/114/114
f 118/118/118 120/120/120 119/119/119
f 119/119/119 121/121/121 118/118/118
f 121/121/121 119/119/119 122/122/122
f 122/122/122 123/123/123 121/121/121
f 124/124/124 123/123/123 122/122/122
f 122/122/122 125/125/125 124/124/124
f 126/126/126 124/124/124 125/125/125
f 125/125/125 127/127/127 126/126/126
f 126/126/126 127/127/127 128/128/128
f 128/128/128 129/129/129 126/126/126
f 130/130/130 132/132/132 131/131/131
f 131/131/131 133/133/133 130/130/130
f 134/134/134 130/130/130 133/133/133
f 133/133/133 135/135/135 134/134/134
f 136/136/136 134/134/134 135/135/135
f 135/135/135 137/137/137 136/136/136
f 138/138/138 136/136/136 137/137/137
f 137/137/137 139/139/139 138/138/138
f 138/138/138 139/139/139 140/140/140
f 140/140/140 141/141/141 138/138/138
f 142/142/142 144/144/144 143/143/143
f 143/143/143 145/145/145 142/142/142
f 146/146/146 142/142/142 145/145/145
f 145/145/145 147/147/147 146/146/146
f 146/146/146 147/147/147 148/148/148
f 148/148/148 149/149/149 146/146/146
f 149/149/149 148/148/148 150/150/150
f 150/150/150 151/151/151 149/149/149
f 151/151/151 150/150/150 152/152/152
f 152/152/152 153/153/153 151/151/151
f 154/154/154 156/156/156 155/155/155
f 155/155/155 157/157/157 154/154/154
f 158/158/158 154/154/154 157/157/157
f 157/157/157 159/159/159 158/158/158
f 158/158/158 159/159/159 160/160/160
f 160/160/160 161/161/161 158/158/158
f 161/161/161 160/160/160 162/162/162
f 162/162/162 163/163/163 161/161/161
f 163/163/163 162/162/162 164/164/164
f 164/164/164 165/165/165 163/163/163
f 166/166/166 168/168/168 167/167/167
f 167/167/167 169/169/169 166/166/166
f 169/169/169 167/167/167 170/170/170
f 170/170/170 171/171/171 169/169/169
f 171/171/171 170/170/170 172/172/172
f 172/172/172 173/173/173 171/171/171
f 173/173/173 172/172/172 174/174/174
f 174/174/174 175/175/175 173/173/173
f 175/175/175 174/174/174 176/176/176
f 176/176/176 177/177/177 175/175/175
f 178/178/178 180/180/180 179/179/179
f 179/179/179 181/181/181 178/178/178
f 181/181/181 179/179/179 182/182/182
f 182/182/182 183/183/183 181/181/181
f 184/184/184 186/186/186 185/185/185
f 185/185/185 187/187/187 184/184/184
f 188/188/188 190/190/190 189/189/189
f 189/189/189 191/191/191 188/188/188
f 192/192/192 194/194/194 193/193/193
f 193/193/193 195/195/195 192/192/192
f 196/196/196 198/198/198 197/197/197
f 197/197/197 199/199/199 196/196/196
f 200/200/200 202/202/202 201/201/201
f 201/201/201 203/203/203 200/200/200
f 204/204/204 206/206/206 205/205/205
f 205/205/205 207/207/207 204/204/204
f 208/208/208 210/210/210 209/209/209
f 209/209/209 211/211/211 208/208/208
f 211/211/211 209/209/209 212/212/212
f 212/212/212 213/213/213 211/211/211
f 214/214/214 216/216/216 215/215/215
f 215/215/215 217/217/217 214/214/214
f 217/217/217 215/215/215 218/218/218
f 218/218/218 219/219/219 217/217/217
f 220/220/220 222/222/222 221/221/221
f 221/221/221 223/223/223 220/220/220
f 223/223/223 221/221/221 224/224/224
f 224/224/224 225/225/225 223/223/223
f 226/226/226 228/228/228 227/227/227
f 227/227/227 229/229/229 226/226/226
f 229/229/229 227/227/227 230/230/230
f 230/230/230 231/231/231 229/229/229
f 232/232/232 234/234/234 233/233/233
f 233/233/233 235/235/235 232/232/232
f 235/235/235 233/233/233 236/236/236
f 236/236/236 237/237/237 235/235/235
f 238/238/238 240/240/240 239/239/239
f 239/239/239 241/241/241 238/238/238
f 241/241/241 239/239/239 242/242/242
f 242/242/242 243/243/243 241/241/241
f 244/244/244 246/246/246 245/245/245
f 245/245/245 247/247/247 244/244/244
f 247/247/247 245/245/245 248/248/248
f 248/248/248 249/249/249 247/247/247
f 250/250/250 252/252/252 251/251/251
f 251/251/251 253/253/253 250/250/250
f 253/253/253 251/251/251 254/254/254
f 254/254/254 255/255/255 253/253/253
f 256/256/256 258/258/258 257/257/257
f 257/257/257 259/259/259 256/256/256
f 260/260/260 259/259/259 257/257/257
f 257/257/257 261/261/261 260/260/260
f 262/262/262 260/260/260 261/261/261
f 261/261/261 263/263/263 262/262/262
f 264/264/264 266/266/266 265/265/265
f 265/265/265 267/267/267 264/264/264
f 268/268/268 267/267/267 265/265/265
f 265/265/265 269/269/269 268/268/268
f 270/270/270 272/272/272 271/271/271
f 271/271/271 273/273/273 270/270/270
f 274/274/274 273/273/273 271/271/271
f 271/271/271 275/275/275 274/274/274
f 274/274/274 275/275/275 276/276/276
f 276/276/276 277/277/277 274/274/274
f 278/278/278 280/280/280 279/279/279
f 279/279/279 281/281/281 278/278/278
f 281/281/281 279/279/279 282/282/282
f 282/282/282 283/283/283 281/281/281
f 283/283/283 282/282/282 284/284/284
f 284/284/284 285/285/285 283/283/283
f 286/286/286 288/288/288 287/287/287
f 287/287/287 289/289/289 286/286/286
f 289/289/289 287/287/287 290/290/290
f 290/290/290 291/291/291 289/289/289
f 291/291/291 290/290/290 292/292/292
f 292/292/292 293/293/293 291/291/291
f 294/294/294 296/296/296 295/295/295
f 295/295/295 297/297/297 294/294/294
f 298/298/298 297/297/297 295/295/295
f 295/295/295 299/299/299 298/298/298
f 300/300/300 298/298/298 299/299/299
f 299/299/299 301/301/301 300/300/300
f 302/302/302 304/304/304 303/303/303
f 303/303/303 305/305/305 302/302/302
f 305/305/305 303/303/303 306/306/306
f 306/306/306 307/307/307 305/305/305
f 308/308/308 310/310/310 309/309/309
f 309/309/309 311/311/311 308/308/308
f 312/312/312 314/314/314 313/313/313
f 313/313/313 315/315/315 312/312/312
f 315/315/315 313/313/313 316/316/316
f 316/316/316 317/317/317 315/315/315
f 318/318/318 320/320/320 319/319/319
f 319/319/319 321/321/321 318/318/318
f 322/322/322 321/321/321 319/319/319
f 319/319/319 323/323/323 322/322/322
f 324/324/324 326/326/326 325/325/325
f 325/325/325 327/327/327 324/324/324
f 328/328/328 327/327/327 325/325/325
f 325/325/325 329/329/329 328/328/328
f 330/330/330 328/328/328 329/329/329
f 329/329/329 331/331/331 330/330/330
f 332/332/332 334/334/334 333/333/333
f 333/333/333 335/335/335 332/332/332
f 336/336/336 335/335/335 333/333/333
f 333/333/333 337/337/337 336/336/336
f 336/336/336 337/337/337 338/338/338
f 338/338/338 339/339/339 336/336/336
f 340/340/340 342/342/342 341/341/341
f 341/341/341 343/343/343 340/340/340
f 343/343/343 341/341/341 344/344/344
f 344/344/344 345/345/345 343/343/343
f 346/346/346 348/348/348 347/347/347
f 347/347/347 349/349/349 346/346/346
f 349/349/349 347/347/347 350/350/350
f 350/350/350 351/351/351 349/349/349
f 351/351/351 350/350/350 352/352/352
f 352/352/352 353/353/353 351/351/351
f 354/354/354 356/356/356 355/355/355
f 355/355/355 357/357/357 354/354/354
f 358/358/358 357/357/357 355/355/355
f 355/355/355 359/359/359 358/358/358
f 360/360/360 358/358/358 359/359/359
f 359/359/359 361/361/361 360/360/360
f 362/362/362 364/364/364 363/363/363
f 363/363/363 365/365/365 362/362/362
f 365/365/365 363/363/363 366/366/366
f 366/366/366 367/367/367 365/365/365
f 368/368/368 370/370/370 369/369/369
f 369/369/369 371/371/371 368/368/368
f 372/372/372 374/374/374 373/373/373
f 373/373/373 375/375/375 372/372/372
f 376/376/376 378/378/378 377/377/377
f 377/377/377 379/379/379 376/376/376
f 379/379/379 377/377/377 380/380/380
f 380/380/380 381/381/381 379/379/379
f 382/382/382 384/384/384 383/383/383
f 383/383/383 385/385/385 382/382/382
f 386/386/386 382/382/382 385/385/385
f 385/385/385 387/387/387 386/386/386
f 388/388/388 390/390/390 389/389/389
f 389/389/389 391/391/391 388/388/388
f 392/392/392 388/388/388 391/391/391
f 391/391/391 393/393/393 392/392/392
f 394/394/394 396/396/396 395/395/395
f 395/395/395 397/397/397 394/394/394
f 398/398/398 394/394/394 397/397/397
f 397/397/397 399/399/399 398/398/398
f 400/400/400 402/402/402 401/401/401
f 401/401/401 403/403/403 400/400/400
f 403/403/403 401/401/401 404/404/404
f 404/404/404 405/405/405 403/403/403
f 406/406/406 408/408/408 407/407/407
f 407/407/407 409/409/409 406/406/406
f 409/409/409 407/407/407 410/410/410
f 410/410/410 411/411/411 409/409/409
f 412/412/412 414/414/414 413/413/413
f 413/413/413 415/415/415 412/412/412
f 415/415/415 413/413/413 416/416/416
f 416/416/416 417/417/417 415/415/415
f 418/418/418 420/420/420 419/419/419
f 419/419/419 421/421/421 418/418/418
f 421/421/421 422/422/422 418/418/418
f 423/423/423 425/425/425 424/424/424
f 424/424/424 426/426/426 423/423/423
f 427/427/427 429/429/429 428/428/428
f 428/428/428 430/430/430 427/427/427
f 431/431/431 433/433/433 432/432/432
f 432/432/432 434/434/434 431/431/431
f 435/435/435 437/437/437 436/436/436
f 436/436/436 438/438/438 435/435/435
f 439/439/439 441/441/441 440/440/440
f 440/440/440 442/442/442 439/439/439
f 443/443/443 445/445/445 444/444/444
f 444/444/444 446/446/446 443/443/443
f 446/446/446 447/447/447 443/443/443
f 448/448/448 450/450/450 449/449/449
f 449/449/449 451/451/451 448/448/448
f 452/452/452 454/454/454 453/453/453
f 453/453/453 455/455/455 452/452/452
f 456/456/456 458/458/458 457/457/457
f 457/457/457 459/459/459 456/456/456
f 460/460/460 462/462/462 461/461/461
f 462/462/462 463/463/463 461/461/461
f 464/464/464 466/466/466 465/465/465
f 465/465/465 467/467/467 464/464/464
f 468/468/468 470/470/470 469/469/469
f 469/469/469 471/471/471 468/468/468
f 472/472/472 474/474/474 473/473/473
f 473/473/473 475/475/475 472/472/472
f 476/476/476 478/478/478 477/477/477
f 477/477/477 479/479/479 476/476/476
f 480/480/480 482/482/482 481/481/481
f 481/481/481 483/483/483 480/480/480
f 484/484/484 486/486/486 485/485/485
f 485/485/485 487/487/487 484/484/484
f 488/488/488 490/490/490 489/489/489
f 491/491/491 489/489/489 490/490/490
f 490/490/490 492/492/492 491/491/491
f 493/493/493 495/495/495 494/494/494
f 494/494/494 496/496/496 493/493/493
f 497/497/497 499/499/499 498/498/498
f 498/498/498 500/500/500 497/497/497
f 500/500/500 501/501/501 497/497/497
f 502/502/502 504/504/504 503/503/503
f 503/503/503 505/505/505 502/502/502
f 506/506/506 508/508/508 507/507/507
f 507/507/507 509/509/509 506/506/506
f 510/510/510 512/512/512 511/511/511
f 511/511/511 513/513/513 510/510/510
f 514/514/514 516/516/516 515/515/515
f 515/515/515 517/517/517 514/514/514
f 518/518/518 520/520/520 519/519/519
f 519/519/519 521/521/521 518/518/518
f 521/521/521 519/519/519 522/522/522
f 522/522/522 523/523/523 521/521/521
f 524/524/524 526/526/526 525/525/525
f 525/525/525 527/527/527 524/524/524
f 528/528/528 524/524/524 527/527/527
f 527/527/527 529/529/529 528/528/528
f 530/530/530 532/532/532 531/531/531
f 531/531/531 533/533/533 530/530/530
f 534/534/534 536/536/536 535/535/535
f 535/535/535 537/537/537 534/534/534
f 538/538/538 540/540/540 539/539/539
f 539/539/539 541/541/541 538/538/538
f 542/542/542 541/541/541 539/539/539
f 539/539/539 543/543/543 542/542/542
f 543/543/543 539/539/539 544/544/544
f 544/544/544 545/545/545 543/543/543
f 546/546/546 548/548/548 547/547/547
f 547/547/547 549/549/549 546/546/546
f 549/549/549 550/550/550 546/546/546
f 551/551/551 553/553/553 552/552/552
f 552/552/552 554/554/554 551/551/551
f 555/555/555 557/557/557 556/556/556
f 556/556/556 558/558/558 555/555/555
f 559/559/559 561/561/561 560/560/560
f 560/560/560 562/562/562 559/559/559
