#Tree_11_Green_395_81.obj

v 0.4705259 -0.9927444 2.322839
v -0.4689699 -0.6828613 1.996823
v 0.3423191 -1.19426 2.308598
v -0.4689699 -0.6828613 1.996823
v 0.4705259 -0.9927444 2.322839
v -0.3802466 -0.4090958 2.008125
v -0.5065995 -0.6773453 2.158554
v 0.3469496 -1.070824 2.513241
v 0.3026701 -1.179138 2.440279
v 0.3469496 -1.070824 2.513241
v -0.5065995 -0.6773453 2.158554
v -0.4810526 -0.5376968 2.24507
v 0.3423191 -1.19426 2.308598
v 1.016738 -1.427727 3.076959
v 0.4705259 -0.9927444 2.322839
v 0.4308778 -0.9776306 2.45452
v 1.016738 -1.427727 3.076959
v 0.3469496 -1.070824 2.513241
v 0.3469496 -1.070824 2.513241
v 1.016738 -1.427727 3.076959
v 0.3026701 -1.179138 2.440279
v 0.3026701 -1.179138 2.440279
v 1.016738 -1.427727 3.076959
v 0.3423191 -1.19426 2.308598
v -2.003537 -1.153206 2.857601
v -0.5814047 -0.4835587 2.318341
v -0.5148399 -0.5837936 2.2573
v -2.032964 -1.055771 2.905256
v -0.6676157 -0.407135 2.248128
v -0.5814047 -0.4835587 2.318341
v -2.030697 -1.174377 2.750734
v -0.6872623 -0.4309387 2.116875
v -2.116711 -1.000679 2.739177
v -0.6872623 -0.4309387 2.116875
v -2.030697 -1.174377 2.750734
v -0.5344865 -0.6075974 2.126046
v -2.030697 -1.174377 2.750734
v -2.709465 -1.308464 3.199426
v -2.003537 -1.153206 2.857601
v -2.08955 -0.9794998 2.846043
v -2.709465 -1.308464 3.199426
v -2.116711 -1.000679 2.739177
v -2.116711 -1.000679 2.739177
v -2.709465 -1.308464 3.199426
v -2.030697 -1.174377 2.750734
v -0.3056251 0.7596359 2.322839
v -0.3927369 -0.4057541 1.996823
v -0.08653557 0.6645432 2.308598
v -0.3927369 -0.4057541 1.996823
v -0.3056251 0.7596359 2.322839
v -0.6770189 -0.3609619 2.008125
v -0.08653557 0.6645432 2.308598
v 0.1460947 1.307533 3.142406
v -0.3056251 0.7596359 2.322839
v -0.3056251 0.7596359 2.322839
v 0.1460947 1.307533 3.142406
v -0.3143526 0.7181091 2.45452
v -0.3143526 0.7181091 2.45452
v 0.1460947 1.307533 3.142406
v -0.209172 0.6498032 2.513241
v -0.209172 0.6498032 2.513241
v 0.1460947 1.307533 3.142406
v -0.09526348 0.6230164 2.440279
v 0.2363478 -2.033752 3.316548
v 0.4636496 -1.1231 3.420956
v 0.5894355 -1.644958 3.480939
v 0.4636496 -1.1231 3.420956
v 0.2363478 -2.033752 3.316548
v 0.02514136 -1.123947 3.231409
v 0.3523202 -2.001709E-31 1.089716E-15
v -0.3794132 -0.2444687 1.406414
v 0.1761601 0.3051147 -3.637292E-08
v -0.2440784 -0.469902 1.379011
v -0.1761601 0.3051147 -3.637292E-08
v -0.3794132 -0.2444687 1.406414
v -0.6431513 -0.2497635 1.421011
v 0.1761601 0.3051147 -3.637292E-08
v -0.3523202 -8.746367E-31 4.761458E-15
v -0.6431513 -0.2497635 1.421011
v -0.7715549 -0.4804916 1.408205
v -0.1761601 0.3051147 -3.637292E-08
v -0.1761601 -0.3051147 3.637292E-08
v -0.7715549 -0.4804916 1.408205
v -0.63622 -0.7059326 1.380802
v -0.3523202 -8.746367E-31 4.761458E-15
v -0.1761601 -0.3051147 3.637292E-08
v -0.3724818 -0.7006378 1.366205
v 0.17616 -0.3051147 3.637292E-08
v -0.63622 -0.7059326 1.380802
v 0.17616 -0.3051147 3.637292E-08
v -0.2440784 -0.469902 1.379011
v 0.3523202 -2.001709E-31 1.089716E-15
v -0.3724818 -0.7006378 1.366205
v -0.4711716 -0.3458557 3.217022
v -0.2440784 -0.469902 1.379011
v -0.3600454 -0.5347137 3.225298
v -0.3794132 -0.2444687 1.406414
v -0.6431513 -0.2497635 1.421011
v -0.4711716 -0.3458557 3.217022
v -0.6899586 -0.3465271 3.240083
v -0.3794132 -0.2444687 1.406414
v -0.6899586 -0.3465271 3.240083
v -0.7715549 -0.4804916 1.408205
v -0.6431513 -0.2497635 1.421011
v -0.7976191 -0.5360489 3.27142
v -0.295145 0.2124329 5.118436
v -0.3820629 0.05956268 5.133761
v -0.63622 -0.7059326 1.380802
v -0.7976191 -0.5360489 3.27142
v -0.6864927 -0.7249069 3.279696
v -0.7715549 -0.4804916 1.408205
v -0.467706 -0.7242432 3.256635
v -0.63622 -0.7059326 1.380802
v -0.6864927 -0.7249069 3.279696
v -0.3724818 -0.7006378 1.366205
v -0.3724818 -0.7006378 1.366205
v -0.3600454 -0.5347137 3.225298
v -0.2440784 -0.469902 1.379011
v -0.467706 -0.7242432 3.256635
v -0.03439188 0.05956268 5.072458
v -0.1213095 -0.0933075 5.087783
v -0.1213095 0.2124329 5.087783
v -0.3600454 -0.5347137 3.225298
v -0.03439188 0.05956268 5.072458
v -0.4711716 -0.3458557 3.217022
v -0.6899586 -0.3465271 3.240083
v -0.1213095 0.2124329 5.087783
v -0.295145 0.2124329 5.118436
v -0.4711716 -0.3458557 3.217022
v -0.295145 -0.0933075 5.118436
v -0.7976191 -0.5360489 3.27142
v -0.3820629 0.05956268 5.133761
v -0.6864927 -0.7249069 3.279696
v -0.1213095 -0.0933075 5.087783
v -0.6864927 -0.7249069 3.279696
v -0.295145 -0.0933075 5.118436
v -0.467706 -0.7242432 3.256635
v 0.4705259 -0.9927444 2.322839
v -0.4178761 -0.4035721 2.169855
v -0.3802466 -0.4090958 2.008125
v 0.4308778 -0.9776306 2.45452
v 1.016738 -1.427727 3.076959
v -0.4810526 -0.5376968 2.24507
v 0.4308778 -0.9776306 2.45452
v 0.3469496 -1.070824 2.513241
v -0.4178761 -0.4035721 2.169855
v 0.3423191 -1.19426 2.308598
v -0.5065995 -0.6773453 2.158554
v 0.3026701 -1.179138 2.440279
v -0.4689699 -0.6828613 1.996823
v -0.5148399 -0.5837936 2.2573
v -2.030697 -1.174377 2.750734
v -2.003537 -1.153206 2.857601
v -0.5344865 -0.6075974 2.126046
v -0.5814047 -0.4835587 2.318341
v -2.003537 -1.153206 2.857601
v -2.032964 -1.055771 2.905256
v -2.709465 -1.308464 3.199426
v -0.6676157 -0.407135 2.248128
v -2.032964 -1.055771 2.905256
v -2.08955 -0.9794998 2.846043
v -2.709465 -1.308464 3.199426
v -2.116711 -1.000679 2.739177
v -0.6676157 -0.407135 2.248128
v -2.08955 -0.9794998 2.846043
v -0.6872623 -0.4309387 2.116875
v -0.6765807 -0.3989944 2.169855
v -0.3056251 0.7596359 2.322839
v -0.3143526 0.7181091 2.45452
v -0.6770189 -0.3609619 2.008125
v -0.5342207 -0.4404068 2.24507
v -0.3143526 0.7181091 2.45452
v -0.209172 0.6498032 2.513241
v -0.6765807 -0.3989944 2.169855
v -0.3922989 -0.443779 2.158554
v -0.209172 0.6498032 2.513241
v -0.09526348 0.6230164 2.440279
v -0.5342207 -0.4404068 2.24507
v -0.3922989 -0.443779 2.158554
v -0.08653557 0.6645432 2.308598
v -0.3927369 -0.4057541 1.996823
v -0.09526348 0.6230164 2.440279
v 0.1460947 1.307533 3.142406
v 0.7672657 -0.5090714 3.623911
v 0.4021729 0.9588242 3.901278
v 0.1087577 0.5293732 3.645487
v 1.334646 -0.513298 3.934943
v 0.1087577 0.5293732 3.645487
v -1.462772 0.9630508 3.962403
v -1.208259 0.5293732 3.645487
v 0.4021729 0.9588242 3.901278
v -1.208259 0.5293732 3.645487
v -2.395244 -0.504837 4.057191
v -1.866766 -0.5090714 3.623911
v -1.462772 0.9630508 3.962403
v -1.866766 -0.5090714 3.623911
v -1.462772 -1.976967 4.090855
v -1.208259 -1.547508 3.602334
v -2.395244 -0.504837 4.057191
v -1.208259 -1.547508 3.602334
v 0.4021727 -1.981194 4.029731
v 0.1087575 -1.547508 3.602334
v -1.462772 -1.976967 4.090855
v 0.1087575 -1.547508 3.602334
v 1.334646 -0.513298 3.934943
v 0.7672657 -0.5090714 3.623911
v 0.4021727 -1.981194 4.029731
v 1.334646 -0.513298 3.934943
v -0.005098581 0.4386749 4.207655
v 0.4021729 0.9588242 3.901278
v 0.5579279 -0.4507446 4.239138
v 0.4021729 0.9588242 3.901278
v -1.131151 0.4440384 4.259824
v -1.462772 0.9630508 3.962403
v -0.005098581 0.4386749 4.207655
v -1.462772 0.9630508 3.962403
v -1.694177 -0.4400177 4.343475
v -2.395244 -0.504837 4.057191
v -1.131151 0.4440384 4.259824
v -2.395244 -0.504837 4.057191
v -1.131151 -1.329437 4.374959
v -1.462772 -1.976967 4.090855
v -1.694177 -0.4400177 4.343475
v -1.462772 -1.976967 4.090855
v -0.005098701 -1.334801 4.32279
v 0.4021727 -1.981194 4.029731
v -1.131151 -1.329437 4.374959
v 0.4021727 -1.981194 4.029731
v 0.5579279 -0.4507446 4.239138
v 1.334646 -0.513298 3.934943
v -0.005098701 -1.334801 4.32279
v 0.1087575 -1.547508 3.602334
v -1.866766 -0.5090714 3.623911
v -1.208259 -1.547508 3.602334
v 0.7672657 -0.5090714 3.623911
v -1.208259 0.5293732 3.645487
v 0.1087577 0.5293732 3.645487
v 0.5579279 -0.4507446 4.239138
v 0.2171397 0.7188644 4.530315
v -0.005098581 0.4386749 4.207655
v 0.9452456 -0.4128723 4.608937
v -0.005098581 0.4386749 4.207655
v -1.239073 0.7306213 4.603034
v -1.131151 0.4440384 4.259824
v 0.2171397 0.7188644 4.530315
v -1.131151 0.4440384 4.259824
v -1.96718 -0.3893433 4.754375
v -1.694177 -0.4400177 4.343475
v -1.239073 0.7306213 4.603034
v -1.694177 -0.4400177 4.343475
v -1.239073 -1.521072 4.832997
v -1.131151 -1.329437 4.374959
v -1.96718 -0.3893433 4.754375
v -1.131151 -1.329437 4.374959
v 0.2171396 -1.532837 4.760278
v -0.005098701 -1.334801 4.32279
v -1.239073 -1.521072 4.832997
v -0.005098701 -1.334801 4.32279
v 0.9452456 -0.4128723 4.608937
v 0.5579279 -0.4507446 4.239138
v 0.2171396 -1.532837 4.760278
v 0.2171397 0.7188644 4.530315
v 0.476561 -0.3678894 4.887011
v 0.06396484 0.2919464 4.860178
v 0.9452456 -0.4128723 4.608937
v -1.239073 0.7306213 4.603034
v 0.06396484 0.2919464 4.860178
v -0.7612281 0.3048553 4.939966
v 0.2171397 0.7188644 4.530315
v -1.96718 -0.3893433 4.754375
v -0.7612281 0.3048553 4.939966
v -1.173824 -0.3420715 5.046589
v -1.239073 0.7306213 4.603034
v -1.96718 -0.3893433 4.754375
v -0.7612281 -1.0019 5.073423
v -1.239073 -1.521072 4.832997
v -1.173824 -0.3420715 5.046589
v -1.239073 -1.521072 4.832997
v 0.06396472 -1.014809 4.993634
v 0.2171396 -1.532837 4.760278
v -0.7612281 -1.0019 5.073423
v 0.9452456 -0.4128723 4.608937
v 0.06396472 -1.014809 4.993634
v 0.476561 -0.3678894 4.887011
v 0.2171396 -1.532837 4.760278
v -0.4083408 -0.5977173 5.434424
v 0.1830876 -0.2978058 5.320251
v -0.01405501 -0.6065826 5.379634
v -0.6054835 -0.2800751 5.429831
v -0.01405501 0.01984406 5.315658
v -0.4083409 0.02870941 5.370448
v 0.2097311 0.437645 5.058581
v 0.1830876 -0.2978058 5.320251
v -0.01405501 0.01984406 5.315658
v 0.6911606 -0.3373108 5.076013
v -0.7531281 0.457283 5.18
v -0.01405501 0.01984406 5.315658
v -0.4083409 0.02870941 5.370448
v 0.2097311 0.437645 5.058581
v -1.234557 -0.298027 5.318851
v -0.4083409 0.02870941 5.370448
v -0.6054835 -0.2800751 5.429831
v -0.7531281 0.457283 5.18
v -0.4083408 -0.5977173 5.434424
v -1.234557 -0.298027 5.318851
v -0.6054835 -0.2800751 5.429831
v -0.7531281 -1.072983 5.336284
v -0.01405501 -0.6065826 5.379634
v -0.7531281 -1.072983 5.336284
v -0.4083408 -0.5977173 5.434424
v 0.2097311 -1.092628 5.214865
v 0.1830876 -0.2978058 5.320251
v 0.2097311 -1.092628 5.214865
v -0.01405501 -0.6065826 5.379634
v 0.6911606 -0.3373108 5.076013
v 0.06396484 0.2919464 4.860178
v 0.6911606 -0.3373108 5.076013
v 0.2097311 0.437645 5.058581
v 0.476561 -0.3678894 4.887011
v -0.7612281 0.3048553 4.939966
v 0.2097311 0.437645 5.058581
v -0.7531281 0.457283 5.18
v 0.06396484 0.2919464 4.860178
v -1.173824 -0.3420715 5.046589
v -0.7531281 0.457283 5.18
v -1.234557 -0.298027 5.318851
v -0.7612281 0.3048553 4.939966
v -0.7531281 -1.072983 5.336284
v -1.173824 -0.3420715 5.046589
v -1.234557 -0.298027 5.318851
v -0.7612281 -1.0019 5.073423
v 0.2097311 -1.092628 5.214865
v -0.7612281 -1.0019 5.073423
v -0.7531281 -1.072983 5.336284
v 0.06396472 -1.014809 4.993634
v 0.6911606 -0.3373108 5.076013
v 0.06396472 -1.014809 4.993634
v 0.2097311 -1.092628 5.214865
v 0.476561 -0.3678894 4.887011
v 1.593859 -0.8388977 2.680583
v 0.6907516 -0.252655 2.836622
v 0.764988 -0.6080551 2.692721
v 1.865286 -0.5803833 2.855561
v 0.764988 -0.6080551 2.692721
v -0.1966019 -1.107338 2.871009
v 0.1398276 -1.213165 2.692722
v 0.6907516 -0.252655 2.836622
v 0.1398276 -1.213165 2.692722
v 0.09057748 -2.289757 2.924334
v 0.343538 -2.049118 2.680583
v -0.1966019 -1.107338 2.871009
v 0.343538 -2.049118 2.680583
v 1.265111 -2.617485 2.943272
v 1.172408 -2.279961 2.668445
v 0.09057748 -2.289757 2.924334
v 1.172408 -2.279961 2.668445
v 2.152465 -1.762802 2.908885
v 1.797569 -1.67485 2.668445
v 1.265111 -2.617485 2.943272
v 1.797569 -1.67485 2.668445
v 1.865286 -0.5803833 2.855561
v 1.593859 -0.8388977 2.680583
v 2.152465 -1.762802 2.908885
v 1.865286 -0.5803833 2.855561
v 0.756035 -0.706955 3.00898
v 0.6907516 -0.252655 2.836622
v 1.465492 -0.9051208 3.026691
v 0.6907516 -0.252655 2.836622
v 0.2188542 -1.221565 3.038329
v -0.1966019 -1.107338 2.871009
v 0.756035 -0.706955 3.00898
v -0.1966019 -1.107338 2.871009
v 0.3911302 -1.934349 3.085389
v 0.09057748 -2.289757 2.924334
v 0.2188542 -1.221565 3.038329
v 0.09057748 -2.289757 2.924334
v 1.100587 -2.132515 3.1031
v 1.265111 -2.617485 2.943272
v 0.3911302 -1.934349 3.085389
v 1.265111 -2.617485 2.943272
v 1.637768 -1.617905 3.073752
v 2.152465 -1.762802 2.908885
v 1.100587 -2.132515 3.1031
v 2.152465 -1.762802 2.908885
v 1.465492 -0.9051208 3.026691
v 1.865286 -0.5803833 2.855561
v 1.637768 -1.617905 3.073752
v 1.797569 -1.67485 2.668445
v 0.343538 -2.049118 2.680583
v 1.172408 -2.279961 2.668445
v 1.593859 -0.8388977 2.680583
v 0.1398276 -1.213165 2.692722
v 0.764988 -0.6080551 2.692721
v 1.465492 -0.9051208 3.026691
v 0.7222244 -0.4609222 3.190499
v 0.756035 -0.706955 3.00898
v 1.630513 -0.7077103 3.234729
v 0.756035 -0.706955 3.00898
v 0.02514136 -1.123947 3.231409
v 0.2188542 -1.221565 3.038329
v 0.7222244 -0.4609222 3.190499
v 0.2188542 -1.221565 3.038329
v 0.2363478 -2.033752 3.316548
v 0.3911302 -1.934349 3.085389
v 0.02514136 -1.123947 3.231409
v 0.3911302 -1.934349 3.085389
v 1.144636 -2.28054 3.360779
v 1.100587 -2.132515 3.1031
v 0.2363478 -2.033752 3.316548
v 1.100587 -2.132515 3.1031
v 1.841719 -1.617516 3.31987
v 1.637768 -1.617905 3.073752
v 1.144636 -2.28054 3.360779
v 1.637768 -1.617905 3.073752
v 1.630513 -0.7077103 3.234729
v 1.465492 -0.9051208 3.026691
v 1.841719 -1.617516 3.31987
v 0.7222244 -0.4609222 3.190499
v 1.385673 -0.8999405 3.391165
v 0.8617691 -0.7505875 3.37607
v 1.630513 -0.7077103 3.234729
v 0.02514136 -1.123947 3.231409
v 0.8617691 -0.7505875 3.37607
v 0.4636496 -1.1231 3.420956
v 0.7222244 -0.4609222 3.190499
v 0.2363478 -2.033752 3.316548
v 1.11334 -1.794319 3.496035
v 1.144636 -2.28054 3.360779
v 0.5894355 -1.644958 3.480939
v 1.144636 -2.28054 3.360779
v 1.511459 -1.421806 3.451148
v 1.841719 -1.617516 3.31987
v 1.11334 -1.794319 3.496035
v 1.630513 -0.7077103 3.234729
v 1.511459 -1.421806 3.451148
v 1.385673 -0.8999405 3.391165
v 1.841719 -1.617516 3.31987
v 1.385673 -0.8999405 3.391165
v 0.4636496 -1.1231 3.420956
v 0.8617691 -0.7505875 3.37607
v 0.5894355 -1.644958 3.480939
v 1.511459 -1.421806 3.451148
v 1.11334 -1.794319 3.496035
v -1.851507 -1.809242 2.975711
v -1.422368 -0.8414612 3.086738
v -1.755925 -0.9686584 2.984348
v -1.558411 -2.032684 3.100213
v -1.755925 -0.9686584 2.984348
v -2.389834 -0.1124496 3.111205
v -2.440405 -0.455513 2.984348
v -1.422368 -0.8414612 3.086738
v -2.440405 -0.455513 2.984348
v -3.493343 -0.5746689 3.149148
v -3.220468 -0.782959 2.975711
v -2.389834 -0.1124496 3.111205
v -3.220468 -0.782959 2.975711
v -3.629387 -1.7659 3.162623
v -3.316049 -1.623543 2.967075
v -3.493343 -0.5746689 3.149148
v -3.316049 -1.623543 2.967075
v -2.661922 -2.494904 3.138156
v -2.631568 -2.136681 2.967075
v -3.629387 -1.7659 3.162623
v -2.631568 -2.136681 2.967075
v -1.558411 -2.032684 3.100213
v -1.851507 -1.809242 2.975711
v -2.661922 -2.494904 3.138156
v -1.558411 -2.032684 3.100213
v -1.853337 -0.9753036 3.209376
v -1.422368 -0.8414612 3.086738
v -1.935713 -1.694878 3.221979
v -1.422368 -0.8414612 3.086738
v -2.436307 -0.5335464 3.230258
v -2.389834 -0.1124496 3.111205
v -1.853337 -0.9753036 3.209376
v -2.389834 -0.1124496 3.111205
v -3.101653 -0.8113708 3.263743
v -3.493343 -0.5746689 3.149148
v -2.436307 -0.5335464 3.230258
v -3.493343 -0.5746689 3.149148
v -3.18403 -1.530937 3.276346
v -3.629387 -1.7659 3.162623
v -3.101653 -0.8113708 3.263743
v -3.629387 -1.7659 3.162623
v -2.601059 -1.972694 3.255463
v -2.661922 -2.494904 3.138156
v -3.18403 -1.530937 3.276346
v -2.661922 -2.494904 3.138156
v -1.935713 -1.694878 3.221979
v -1.558411 -2.032684 3.100213
v -2.601059 -1.972694 3.255463
v -2.631568 -2.136681 2.967075
v -3.220468 -0.782959 2.975711
v -3.316049 -1.623543 2.967075
v -1.851507 -1.809242 2.975711
v -2.440405 -0.455513 2.984348
v -1.755925 -0.9686584 2.984348
v -1.935713 -1.694878 3.221979
v -1.619704 -0.9043198 3.338532
v -1.853337 -0.9753036 3.209376
v -1.718447 -1.824486 3.370004
v -1.853337 -0.9753036 3.209376
v -2.371568 -0.3303299 3.367641
v -2.436307 -0.5335464 3.230258
v -1.619704 -0.9043198 3.338532
v -2.436307 -0.5335464 3.230258
v -3.222175 -0.6764984 3.428221
v -3.101653 -0.8113708 3.263743
v -2.371568 -0.3303299 3.367641
v -3.101653 -0.8113708 3.263743
v -3.320916 -1.596664 3.459692
v -3.18403 -1.530937 3.276346
v -3.222175 -0.6764984 3.428221
v -3.18403 -1.530937 3.276346
v -2.569053 -2.170654 3.430584
v -2.601059 -1.972694 3.255463
v -3.320916 -1.596664 3.459692
v -2.601059 -1.972694 3.255463
v -1.718447 -1.824486 3.370004
v -1.935713 -1.694878 3.221979
v -2.569053 -2.170654 3.430584
v -1.619704 -0.9043198 3.338532
v -1.943066 -1.61657 3.481313
v -1.879307 -1.084732 3.470572
v -1.718447 -1.824486 3.370004
v -2.371568 -0.3303299 3.367641
v -1.879307 -1.084732 3.470572
v -2.302735 -0.7559586 3.50251
v -1.619704 -0.9043198 3.338532
v -3.222175 -0.6764984 3.428221
v -2.302735 -0.7559586 3.50251
v -2.789921 -0.9590302 3.54519
v -2.371568 -0.3303299 3.367641
v -3.222175 -0.6764984 3.428221
v -2.853681 -1.490868 3.555931
v -3.320916 -1.596664 3.459692
v -2.789921 -0.9590302 3.54519
v -3.320916 -1.596664 3.459692
v -2.430254 -1.819641 3.523993
v -2.569053 -2.170654 3.430584
v -2.853681 -1.490868 3.555931
v -1.718447 -1.824486 3.370004
v -2.430254 -1.819641 3.523993
v -1.943066 -1.61657 3.481313
v -2.569053 -2.170654 3.430584
v -1.943066 -1.61657 3.481313
v -2.302735 -0.7559586 3.50251
v -1.879307 -1.084732 3.470572
v -2.789921 -0.9590302 3.54519
v -2.430254 -1.819641 3.523993
v -2.853681 -1.490868 3.555931
v 0.6152729 0.8528366 2.936418
v 0.9478741 1.602905 3.071658
v 0.6893529 1.504318 2.946939
v 0.8424348 0.679657 3.088072
v 0.6893529 1.504318 2.946939
v 0.198046 2.167915 3.101461
v 0.1588509 1.902031 2.946939
v 0.9478741 1.602905 3.071658
v 0.1588509 1.902031 2.946939
v -0.6572218 1.809677 3.147678
v -0.4457313 1.648247 2.936418
v 0.198046 2.167915 3.101461
v -0.4457313 1.648247 2.936418
v -0.7626624 0.8864288 3.164092
v -0.5198109 0.9967575 2.925898
v -0.6572218 1.809677 3.147678
v -0.5198109 0.9967575 2.925898
v -0.01283383 0.3214188 3.134289
v 0.01069105 0.5990524 2.925898
v -0.7626624 0.8864288 3.164092
v 0.01069105 0.5990524 2.925898
v 0.8424348 0.679657 3.088072
v 0.6152729 0.8528366 2.936418
v -0.01283383 0.3214188 3.134289
v 0.8424348 0.679657 3.088072
v 0.6138541 1.499168 3.221041
v 0.9478741 1.602905 3.071658
v 0.5500092 0.9414749 3.236392
v 0.9478741 1.602905 3.071658
v 0.1620269 1.841553 3.246478
v 0.198046 2.167915 3.101461
v 0.6138541 1.499168 3.221041
v 0.198046 2.167915 3.101461
v -0.3536452 1.626228 3.287265
v -0.6572218 1.809677 3.147678
v 0.1620269 1.841553 3.246478
v -0.6572218 1.809677 3.147678
v -0.417491 1.068527 3.302616
v -0.7626624 0.8864288 3.164092
v -0.3536452 1.626228 3.287265
v -0.7626624 0.8864288 3.164092
v 0.03433681 0.7261505 3.27718
v -0.01283383 0.3214188 3.134289
v -0.417491 1.068527 3.302616
v -0.01283383 0.3214188 3.134289
v 0.5500092 0.9414749 3.236392
v 0.8424348 0.679657 3.088072
v 0.03433681 0.7261505 3.27718
v 0.01069105 0.5990524 2.925898
v -0.4457313 1.648247 2.936418
v -0.5198109 0.9967575 2.925898
v 0.6152729 0.8528366 2.936418
v 0.1588509 1.902031 2.946939
v 0.6893529 1.504318 2.946939
v 0.03433681 0.7261505 3.27718
v 0.6138541 1.499168 3.221041
v 0.5500092 0.9414749 3.236392
v 0.1620269 1.841553 3.246478
v -0.417491 1.068527 3.302616
v -0.3536452 1.626228 3.287265

vn 0.2905273 -0.949707 0.1177979
vn 0.2905273 -0.949707 0.1177979
vn 0.2905273 -0.949707 0.1177979
vn 0.309082 -0.9492188 0.06103516
vn 0.309082 -0.9492188 0.06103516
vn 0.309082 -0.9492188 0.06103516
vn -0.4902344 0.8022461 0.3400879
vn -0.4902344 0.8022461 0.3400879
vn -0.4902344 0.8022461 0.3400879
vn -0.5004883 0.7739258 0.3879395
vn -0.5004883 0.7739258 0.3879395
vn -0.5004883 0.7739258 0.3879395
vn 0.6435547 -0.6748047 0.3615723
vn 0.6435547 -0.6748047 0.3615723
vn 0.6435547 -0.6748047 0.3615723
vn -0.2419434 0.7075195 -0.6635742
vn -0.2419434 0.7075195 -0.6635742
vn -0.2419434 0.7075195 -0.6635742
vn -0.6894531 0.6992188 0.189209
vn -0.6894531 0.6992188 0.189209
vn -0.6894531 0.6992188 0.189209
vn -0.3347168 0.007423401 0.9423828
vn -0.3347168 0.007423401 0.9423828
vn -0.3347168 0.007423401 0.9423828
vn 0.4396973 0.8666992 0.2358398
vn 0.4396973 0.8666992 0.2358398
vn 0.4396973 0.8666992 0.2358398
vn 0.02114868 0.7241211 -0.6894531
vn 0.02114868 0.7241211 -0.6894531
vn 0.02114868 0.7241211 -0.6894531
vn -0.3154297 -0.9238281 0.2176514
vn -0.3154297 -0.9238281 0.2176514
vn -0.3154297 -0.9238281 0.2176514
vn -0.2751465 -0.9179688 0.2856445
vn -0.2751465 -0.9179688 0.2856445
vn -0.2751465 -0.9179688 0.2856445
vn 0.2687988 0.1210327 0.9555664
vn 0.2687988 0.1210327 0.9555664
vn 0.2687988 0.1210327 0.9555664
vn -0.489502 -0.0480957 -0.8706055
vn -0.489502 -0.0480957 -0.8706055
vn -0.489502 -0.0480957 -0.8706055
vn -0.4855957 -0.8227539 0.295166
vn -0.4855957 -0.8227539 0.295166
vn -0.4855957 -0.8227539 0.295166
vn 0.0526123 -0.9628906 -0.2653809
vn 0.0526123 -0.9628906 -0.2653809
vn 0.0526123 -0.9628906 -0.2653809
vn 0.004112244 -0.9628906 -0.269043
vn 0.004112244 -0.9628906 -0.269043
vn 0.004112244 -0.9628906 -0.269043
vn 0.2727051 -0.6342773 -0.7236328
vn 0.2727051 -0.6342773 -0.7236328
vn 0.2727051 -0.6342773 -0.7236328
vn -0.8417969 0.1107788 -0.5283203
vn -0.8417969 0.1107788 -0.5283203
vn -0.8417969 0.1107788 -0.5283203
vn -0.6176758 0.7075195 0.3430176
vn -0.6176758 0.7075195 0.3430176
vn -0.6176758 0.7075195 0.3430176
vn 0.2346191 0.6362305 0.7353516
vn 0.2346191 0.6362305 0.7353516
vn 0.2346191 0.6362305 0.7353516
vn -0.4104004 0.9121094 0.002111435
vn -0.404541 0.9145508 0.003850937
vn -0.4238281 0.9057617 -0.001947403
vn -0.404541 0.9145508 0.003850937
vn -0.4104004 0.9121094 0.002111435
vn -0.3967285 0.9179688 0.006206512
vn 0.7626953 0.4733887 -0.4404297
vn 0.7626953 0.4733887 -0.4404297
vn 0.7626953 0.4733887 -0.4404297
vn 0.7783203 0.4760742 -0.4094238
vn 0.001459122 0.3642578 -0.9311523
vn 0.001459122 0.3642578 -0.9311523
vn 0.001459122 0.3642578 -0.9311523
vn 0 0.3640137 -0.9316406
vn -0.8681641 -0.09185791 -0.4880371
vn -0.8681641 -0.09185791 -0.4880371
vn -0.8681641 -0.09185791 -0.4880371
vn -0.862793 -0.08898926 -0.4980469
vn -0.8076172 -0.3959961 0.4367676
vn -0.8076172 -0.3959961 0.4367676
vn -0.8076172 -0.3959961 0.4367676
vn -0.7958984 -0.3937988 0.4597168
vn 0 -0.2780762 0.9604492
vn 0 -0.2780762 0.9604492
vn 0 -0.2780762 0.9604492
vn 0.003921509 -0.2775879 0.9609375
vn 0.8486328 0.2000732 0.4899902
vn 0.8486328 0.2000732 0.4899902
vn 0.8486328 0.2000732 0.4899902
vn 0.8510742 0.201416 0.4848633
vn 0.8583984 0.07171631 -0.5083008
vn 0.8583984 0.07171631 -0.5083008
vn 0.8583984 0.07171631 -0.5083008
vn 0.8588867 0.07189941 -0.5068359
vn 0.002557755 0.05319214 -0.9985352
vn 0.002557755 0.05319214 -0.9985352
vn 0.002557755 0.05319214 -0.9985352
vn -0.01699829 0.05505371 -0.9985352
vn -0.8691406 0.002576828 -0.4941406
vn -0.8691406 0.002576828 -0.4941406
vn -0.8740234 0.003372192 -0.486084
vn -0.8691406 0.002576828 -0.4941406
vn -0.8671875 0.03469849 -0.496582
vn -0.8671875 0.03469849 -0.496582
vn -0.8608398 -0.02787781 0.5078125
vn -0.8608398 -0.02787781 0.5078125
vn -0.8608398 -0.02787781 0.5078125
vn -0.8583984 -0.02728271 0.512207
vn 0.002004623 -0.009941101 1
vn 0.002004623 -0.009941101 1
vn 0.002004623 -0.009941101 1
vn 0.0194397 -0.01150513 0.9995117
vn 0.871582 0.03781128 0.4887695
vn 0.871582 0.03781128 0.4887695
vn 0.8720703 0.03768921 0.4875488
vn 0.871582 0.03781128 0.4887695
vn 0.8696289 0.005664825 0.4938965
vn 0.8696289 0.005664825 0.4938965
vn 0.8154297 -0.3024902 -0.4938965
vn 0.8154297 -0.3024902 -0.4938965
vn 0.8154297 -0.3024902 -0.4938965
vn 0.8286133 -0.2966309 -0.4746094
vn -0.03341675 -0.2800293 -0.9594727
vn -0.04745483 -0.2758789 -0.9599609
vn -0.04858398 -0.2753906 -0.9599609
vn -0.0324707 -0.2802734 -0.9594727
vn -0.8037109 0.3361816 0.4907227
vn -0.8037109 0.3361816 0.4907227
vn -0.8037109 0.3361816 0.4907227
vn -0.8183594 0.3347168 0.467041
vn 0.05401611 0.314209 0.9477539
vn 0.03768921 0.3190918 0.9467773
vn 0.05532837 0.3137207 0.9477539
vn 0.03656006 0.3193359 0.9467773
vn 0.543457 0.06750488 -0.8369141
vn 0.543457 0.06750488 -0.8369141
vn 0.5385742 0.09674072 -0.8369141
vn 0.543457 0.06750488 -0.8369141
vn 0.5576172 0.07299805 -0.8266602
vn 0.04467773 0.862793 -0.503418
vn 0.04467773 0.862793 -0.503418
vn 0.04467773 0.862793 -0.503418
vn 0.02920532 0.8774414 -0.4785156
vn -0.512207 -0.05575562 0.8569336
vn -0.512207 -0.05575562 0.8569336
vn -0.512207 -0.05575562 0.8569336
vn -0.5063477 -0.08862305 0.8574219
vn 0.385498 0.08410645 0.9189453
vn 0.385498 0.08410645 0.9189453
vn 0.385498 0.08410645 0.9189453
vn 0.3911133 0.1072388 0.9140625
vn 0.4521484 0.8476563 0.277832
vn 0.4521484 0.8476563 0.277832
vn 0.4521484 0.8476563 0.277832
vn 0.467041 0.8417969 0.2705078
vn 0.06359863 0.7646484 -0.6411133
vn 0.06359863 0.7646484 -0.6411133
vn 0.06359863 0.7646484 -0.6411133
vn 0.08563232 0.7553711 -0.6499023
vn -0.4006348 -0.07904053 -0.9125977
vn -0.4006348 -0.07904053 -0.9125977
vn -0.4006348 -0.07904053 -0.9125977
vn -0.4069824 -0.1036987 -0.9077148
vn -0.953125 0.03173828 -0.3010254
vn -0.953125 0.03173828 -0.3010254
vn -0.953125 0.03173828 -0.3010254
vn -0.9526367 0.07208252 -0.2954102
vn -0.5146484 0.8554688 0.05700684
vn -0.5146484 0.8554688 0.05700684
vn -0.5146484 0.8554688 0.05700684
vn -0.4812012 0.8740234 0.06671143
vn 0.4482422 0.8256836 0.3427734
vn 0.4482422 0.8256836 0.3427734
vn 0.4482422 0.8256836 0.3427734
vn 0.4831543 0.8056641 0.3422852
vn 0.9643555 -0.01916504 0.2634277
vn 0.9643555 -0.01916504 0.2634277
vn 0.9643555 -0.06317139 0.2575684
vn 0.9643555 -0.01916504 0.2634277
vn 0.9526367 -0.03231812 0.3027344
vn 0.4504395 -0.8500977 -0.2727051
vn 0.4104004 -0.8720703 -0.2668457
vn 0.3857422 -0.8842773 -0.2629395
vn 0.4638672 -0.8422852 -0.2744141
vn -0.02252197 -0.8442383 -0.5351563
vn -0.007453918 -0.8198242 -0.5722656
vn 0 -0.8076172 -0.5898438
vn -0.02668762 -0.8505859 -0.5249023
vn -0.5366211 -0.7880859 -0.302002
vn -0.565918 -0.7451172 -0.3530273
vn -0.5834961 -0.715332 -0.3847656
vn -0.5234375 -0.8046875 -0.2805176
vn -0.5961914 -0.7026367 0.3876953
vn -0.6176758 -0.684082 0.3876953
vn -0.6328125 -0.6704102 0.3874512
vn -0.5864258 -0.7114258 0.3876953
vn -0.0191803 -0.6757813 0.7368164
vn -0.007904053 -0.6972656 0.7167969
vn 0 -0.7124023 0.7021484
vn -0.02354431 -0.6669922 0.7446289
vn 0.5180664 -0.7734375 0.3652344
vn 0.4868164 -0.8149414 0.3149414
vn 0.4606934 -0.8442383 0.2746582
vn 0.5302734 -0.7553711 0.385498
vn 0.3654785 0.8945313 -0.2583008
vn 0.3620605 0.8974609 -0.2521973
vn 0.3596191 0.8994141 -0.248291
vn 0.3701172 0.8901367 -0.2658691
vn 0.03762817 0.8691406 -0.4931641
vn 0.03173828 0.8618164 -0.5058594
vn 0.02931213 0.8588867 -0.5112305
vn 0.04284668 0.875 -0.4819336
vn -0.354248 0.8862305 -0.2990723
vn -0.3742676 0.8774414 -0.3000488
vn -0.3842773 0.8730469 -0.3005371
vn -0.3352051 0.8935547 -0.2980957
vn -0.3596191 0.9111328 0.2001953
vn -0.3632813 0.9086914 0.206665
vn -0.3654785 0.9067383 0.2106934
vn -0.3557129 0.9145508 0.192749
vn 0.0357666 0.9111328 0.4104004
vn 0.03152466 0.9150391 0.4020996
vn 0.02915955 0.9169922 0.3974609
vn 0.04003906 0.9072266 0.4187012
vn 0.3735352 0.9130859 0.1629639
vn 0.359375 0.9189453 0.1623535
vn 0.3486328 0.9233398 0.1617432
vn 0.3916016 0.9052734 0.1636963
vn 0 -1 -0.02076721
vn 0 -1 -0.02076721
vn 0 -1 -0.02076721
vn 0 -1 -0.02076721
vn 0 -1 -0.02076721
vn 0 -1 -0.02076721
vn 0.621582 -0.6982422 -0.3549805
vn 0.6069336 -0.7114258 -0.3540039
vn 0.5986328 -0.7192383 -0.3532715
vn 0.6269531 -0.6933594 -0.3552246
vn -0.02627563 -0.6455078 -0.7631836
vn -0.02627563 -0.6455078 -0.7631836
vn -0.02627563 -0.6455078 -0.7631836
vn -0.02604675 -0.6450195 -0.7636719
vn -0.7285156 -0.5556641 -0.4008789
vn -0.7314453 -0.5444336 -0.4106445
vn -0.7329102 -0.5380859 -0.4157715
vn -0.7270508 -0.5600586 -0.3969727
vn -0.75 -0.423584 0.5078125
vn -0.7636719 -0.4033203 0.5039063
vn -0.7709961 -0.3916016 0.5019531
vn -0.7446289 -0.4318848 0.5087891
vn -0.02619934 -0.3933105 0.9189453
vn -0.02420044 -0.3991699 0.9165039
vn -0.02301025 -0.4025879 0.9150391
vn -0.02696228 -0.3911133 0.9199219
vn 0.652832 -0.5737305 0.4946289
vn 0.6430664 -0.5996094 0.4765625
vn 0.6352539 -0.6181641 0.4631348
vn 0.6572266 -0.5615234 0.5029297
vn 0.53125 0.7592773 -0.3759766
vn 0.5102539 0.7734375 -0.3757324
vn 0.5532227 0.7436523 -0.3759766
vn 0.4992676 0.7807617 -0.3754883
vn 0.06512451 0.7641602 -0.6416016
vn 0.05288696 0.7851563 -0.6171875
vn 0.081604 0.7348633 -0.6733398
vn 0.04470825 0.7983398 -0.6005859
vn -0.3342285 0.8764648 -0.3461914
vn -0.3317871 0.8793945 -0.3413086
vn -0.3413086 0.8681641 -0.3605957
vn -0.3273926 0.8842773 -0.3325195
vn -0.3251953 0.9331055 0.154541
vn -0.3232422 0.9345703 0.1495361
vn -0.3190918 0.9370117 0.1402588
vn -0.3317871 0.9282227 0.1696777
vn 0.0614624 0.8950195 0.4421387
vn 0.05059814 0.9072266 0.4179688
vn 0.04248047 0.9155273 0.3999023
vn 0.07720947 0.8754883 0.4765625
vn 0.5 0.8442383 0.1922607
vn 0.5087891 0.8344727 0.2114258
vn 0.4904785 0.8544922 0.1719971
vn 0.5131836 0.8291016 0.2216797
vn 0.1391602 0.9853516 -0.1005859
vn 0.1391602 0.9853516 -0.1005859
vn 0.1391602 0.9853516 -0.1005859
vn 0.1391602 0.9853516 -0.1005859
vn 0.1391602 0.9853516 -0.1005859
vn 0.1391602 0.9853516 -0.1005859
vn 0.4365234 0.8525391 -0.2875977
vn 0.435791 0.8530273 -0.2875977
vn 0.4418945 0.8500977 -0.286377
vn 0.4328613 0.8540039 -0.2880859
vn 0.1242065 0.8686523 -0.479248
vn 0.1229248 0.8701172 -0.4775391
vn 0.1308594 0.862793 -0.4885254
vn 0.119751 0.8730469 -0.4729004
vn -0.171875 0.9428711 -0.2858887
vn -0.171875 0.9428711 -0.2856445
vn -0.1741943 0.9404297 -0.2919922
vn -0.1705322 0.9438477 -0.2822266
vn -0.1682129 0.9819336 0.08514404
vn -0.168335 0.9819336 0.08520508
vn -0.1704102 0.980957 0.09161377
vn -0.1671143 0.9824219 0.08166504
vn 0.1181641 0.9541016 0.2758789
vn 0.1191406 0.953125 0.2773438
vn 0.1254883 0.949707 0.2871094
vn 0.1149902 0.9555664 0.2709961
vn 0.427002 0.8979492 0.1047974
vn 0.4274902 0.8979492 0.1047363
vn 0.4328613 0.8955078 0.104187
vn 0.4243164 0.8994141 0.1050415
vn 0.6035156 -0.7128906 -0.3569336
vn 0.5966797 -0.7241211 -0.3461914
vn 0.6054688 -0.7094727 -0.3603516
vn 0.5932617 -0.7290039 -0.3413086
vn -0.04888916 -0.5400391 -0.840332
vn -0.04434204 -0.5615234 -0.8261719
vn -0.05014038 -0.5341797 -0.84375
vn -0.04238892 -0.5708008 -0.8198242
vn -0.8339844 -0.2668457 -0.4833984
vn -0.8310547 -0.2751465 -0.4833984
vn -0.8344727 -0.2644043 -0.4833984
vn -0.8300781 -0.2788086 -0.4833984
vn -0.8408203 -0.1140137 0.5292969
vn -0.8432617 -0.1054688 0.5273438
vn -0.84375 -0.1030884 0.5263672
vn -0.8398438 -0.1174316 0.5297852
vn -0.04638672 -0.2939453 0.9545898
vn -0.05111694 -0.2663574 0.9624023
vn -0.05236816 -0.2592773 0.9643555
vn -0.04440308 -0.3054199 0.9511719
vn 0.6166992 -0.6103516 0.4968262
vn 0.6240234 -0.5957031 0.5053711
vn 0.6264648 -0.5913086 0.5078125
vn 0.6137695 -0.6166992 0.4929199
vn 0.1326904 -0.8876953 -0.4406738
vn 0.1088257 -0.90625 -0.4089355
vn 0.09539795 -0.9155273 -0.390625
vn 0.1397705 -0.8818359 -0.4501953
vn -0.3251953 -0.8945313 -0.3068848
vn -0.3395996 -0.8764648 -0.3410645
vn -0.3466797 -0.8666992 -0.3581543
vn -0.3210449 -0.8994141 -0.2971191
vn -0.5219727 -0.8383789 0.1564941
vn -0.5834961 -0.7993164 0.1452637
vn -0.6157227 -0.7758789 0.1387939
vn -0.5009766 -0.8505859 0.1600342
vn -0.1652832 -0.765625 0.6220703
vn -0.1818848 -0.746582 0.6401367
vn -0.1920166 -0.734375 0.6508789
vn -0.1591797 -0.7724609 0.6152344
vn 0.4399414 -0.7583008 0.4812012
vn 0.4318848 -0.777832 0.4567871
vn 0.4262695 -0.7900391 0.4404297
vn 0.442627 -0.7509766 0.4899902
vn 0.5551758 -0.8251953 -0.1066895
vn 0.4934082 -0.8618164 -0.1168213
vn 0.4523926 -0.8833008 -0.1230469
vn 0.5751953 -0.8115234 -0.1031494
vn 0.08496094 0.9233398 -0.3745117
vn 0.08605957 0.9257813 -0.3679199
vn 0.08666992 0.9272461 -0.3642578
vn 0.08374023 0.9204102 -0.3820801
vn -0.2595215 0.9125977 -0.3164063
vn -0.2709961 0.9077148 -0.3208008
vn -0.2758789 0.9052734 -0.3227539
vn -0.2489014 0.9169922 -0.3120117
vn -0.394043 0.9179688 0.04199219
vn -0.4089355 0.9111328 0.05450439
vn -0.4155273 0.9077148 0.05996704
vn -0.3806152 0.9243164 0.03100586
vn -0.1135254 0.9355469 0.3344727
vn -0.1120605 0.9331055 0.3413086
vn -0.1112671 0.9321289 0.3449707
vn -0.1149292 0.9379883 0.3276367
vn 0.2546387 0.9423828 0.2178955
vn 0.2473145 0.9448242 0.2155762
vn 0.2427979 0.9462891 0.2139893
vn 0.2624512 0.9394531 0.220459
vn 0.3259277 0.9360352 -0.1324463
vn 0.3154297 0.940918 -0.1235352
vn 0.3085938 0.9438477 -0.1174927
vn 0.3381348 0.9301758 -0.1431885
vn -0.0113678 -1 -0.01174927
vn -0.0113678 -1 -0.01174927
vn -0.0113678 -1 -0.01174927
vn -0.0113678 -1 -0.01174927
vn -0.0113678 -1 -0.01174927
vn -0.0113678 -1 -0.01174927
vn 0.2026367 -0.7587891 -0.6191406
vn 0.1923828 -0.7714844 -0.6064453
vn 0.1868896 -0.777832 -0.5996094
vn 0.2060547 -0.7543945 -0.6230469
vn -0.4919434 -0.7314453 -0.4719238
vn -0.4919434 -0.7319336 -0.4716797
vn -0.4916992 -0.7319336 -0.4716797
vn -0.4919434 -0.7314453 -0.472168
vn -0.7460938 -0.625 0.2301025
vn -0.7578125 -0.6123047 0.2260742
vn -0.762207 -0.6069336 0.2243652
vn -0.7426758 -0.628418 0.2312012
vn -0.2087402 -0.4916992 0.8452148
vn -0.2229004 -0.4663086 0.855957
vn -0.2290039 -0.4550781 0.8603516
vn -0.2044678 -0.4990234 0.8422852
vn 0.5913086 -0.4772949 0.6499023
vn 0.590332 -0.484375 0.6455078
vn 0.5898438 -0.487793 0.6435547
vn 0.5917969 -0.4753418 0.6513672
vn 0.7553711 -0.644043 -0.1199341
vn 0.7299805 -0.671875 -0.1246338
vn 0.7148438 -0.6879883 -0.1273193
vn 0.7646484 -0.6337891 -0.1181641
vn 0.12854 0.8139648 -0.5664063
vn 0.1131592 0.8276367 -0.5493164
vn 0.1428223 0.8007813 -0.581543
vn 0.1067505 0.8334961 -0.5424805
vn -0.3391113 0.8330078 -0.4372559
vn -0.3305664 0.8491211 -0.4116211
vn -0.3505859 0.809082 -0.472168
vn -0.324707 0.8598633 -0.3942871
vn -0.1165161 0.9511719 0.2861328
vn -0.1182251 0.9526367 0.2807617
vn -0.1207275 0.9541016 0.2731934
vn -0.1124268 0.9477539 0.298584
vn 0.2902832 0.9306641 0.2219238
vn 0.2697754 0.9389648 0.2139893
vn 0.2526855 0.9448242 0.2073975
vn 0.3227539 0.9169922 0.234375
vn 0.4282227 0.8823242 -0.1959229
vn 0.447998 0.8735352 -0.1900635
vn 0.4104004 0.8896484 -0.2011719
vn 0.4567871 0.8696289 -0.1873779
vn 0.00421524 0.9931641 -0.1151733
vn 0.00421524 0.9931641 -0.1151733
vn 0.00421524 0.9931641 -0.1151733
vn 0.00421524 0.9931641 -0.1151733
vn 0.00421524 0.9931641 -0.1151733
vn 0.00421524 0.9931641 -0.1151733
vn 0.3486328 -0.9360352 0.04724121
vn 0.3181152 -0.9477539 0.03234863
vn 0.302002 -0.953125 0.02453613
vn 0.3569336 -0.9326172 0.05133057
vn 0.1911621 -0.9404297 -0.2807617
vn 0.2177734 -0.9291992 -0.2988281
vn 0.2304688 -0.9233398 -0.307373
vn 0.1842041 -0.9433594 -0.276123
vn -0.1849365 -0.9057617 -0.3818359
vn -0.1872559 -0.8774414 -0.4416504
vn -0.1882324 -0.8618164 -0.4709473
vn -0.184082 -0.9125977 -0.3647461
vn -0.5161133 -0.8549805 -0.05215454
vn -0.5390625 -0.8398438 -0.0645752
vn -0.5512695 -0.831543 -0.07122803
vn -0.5092773 -0.859375 -0.0484314
vn -0.3295898 -0.8486328 0.4140625
vn -0.3068848 -0.8637695 0.3999023
vn -0.293457 -0.8720703 0.3916016
vn -0.3364258 -0.84375 0.4182129
vn 0.1517334 -0.8950195 0.4191895
vn 0.1491699 -0.9204102 0.361084
vn 0.1474609 -0.9335938 0.3266602
vn 0.1523438 -0.8867188 0.4365234
vn 0.2878418 0.9575195 0.01858521
vn 0.2824707 0.9589844 0.0202179
vn 0.2797852 0.9599609 0.02108765
vn 0.293457 0.9560547 0.0168457
vn 0.2047119 0.9511719 -0.2307129
vn 0.2072754 0.9482422 -0.2407227
vn 0.208374 0.9467773 -0.244751
vn 0.2023926 0.9536133 -0.2220459
vn -0.07769775 0.9545898 -0.2875977
vn -0.08953857 0.9501953 -0.298584
vn -0.09429932 0.9482422 -0.3029785
vn -0.06799316 0.9580078 -0.2783203
vn -0.2597656 0.9648438 -0.04431152
vn -0.2651367 0.9633789 -0.04241943
vn -0.2675781 0.9624023 -0.04147339
vn -0.2546387 0.9658203 -0.04608154
vn -0.130249 0.9682617 0.2126465
vn -0.1291504 0.9697266 0.206665
vn -0.128418 0.9707031 0.203125
vn -0.1313477 0.9667969 0.2189941
vn 0.1359863 0.9648438 0.2244873
vn 0.1276855 0.9677734 0.2172852
vn 0.1224365 0.9692383 0.2126465
vn 0.1456299 0.9614258 0.2329102
vn 0.007095337 -1 -0.009468079
vn 0.007095337 -1 -0.009468079
vn 0.007095337 -1 -0.009468079
vn 0.007095337 -1 -0.009468079
vn 0.007099152 -1 -0.009468079
vn 0.007099152 -1 -0.009468079
vn 0.5214844 -0.8491211 0.08331299
vn 0.5063477 -0.8588867 0.07568359
vn 0.4992676 -0.8632813 0.07226563
vn 0.5258789 -0.8461914 0.08538818
vn 0.3186035 -0.8291016 -0.4594727
vn 0.3183594 -0.8291016 -0.4592285
vn 0.3183594 -0.8291016 -0.4592285
vn 0.3186035 -0.8291016 -0.4594727
vn -0.2963867 -0.7421875 -0.6010742
vn -0.2958984 -0.7299805 -0.6162109
vn -0.2958984 -0.7260742 -0.6210938
vn -0.2963867 -0.7446289 -0.5976563
vn -0.7841797 -0.6166992 -0.06506348
vn -0.8056641 -0.5869141 -0.07849121
vn -0.8125 -0.5771484 -0.08294678
vn -0.7797852 -0.6225586 -0.06240845
vn -0.4995117 -0.6000977 0.625
vn -0.4941406 -0.6079102 0.621582
vn -0.4919434 -0.6113281 0.6201172
vn -0.5009766 -0.5981445 0.6254883
vn 0.2025146 -0.7568359 0.6210938
vn 0.2005615 -0.7827148 0.5893555
vn 0.1994629 -0.7949219 0.5732422
vn 0.203125 -0.7495117 0.6303711
vn 0.4584961 0.8881836 0.03004456
vn 0.439209 0.8979492 0.01934814
vn 0.4743652 0.8793945 0.03912354
vn 0.432373 0.9013672 0.01556396
vn 0.296875 0.9008789 -0.3166504
vn 0.2744141 0.9125977 -0.3034668
vn 0.3254395 0.8847656 -0.3330078
vn 0.2614746 0.918457 -0.2958984
vn -0.05041504 0.9506836 -0.3056641
vn -0.05099487 0.9526367 -0.3005371
vn -0.0491333 0.9472656 -0.3168945
vn -0.05169678 0.9545898 -0.2939453
vn -0.2230225 0.9736328 -0.05175781
vn -0.2189941 0.9741211 -0.05371094
vn -0.213623 0.9750977 -0.05627441
vn -0.2319336 0.9716797 -0.04742432
vn -0.1297607 0.9619141 0.2408447
vn -0.1257324 0.9667969 0.2232666
vn -0.1225586 0.9702148 0.2097168
vn -0.1358643 0.9541016 0.2675781
vn 0.1998291 0.9331055 0.2993164
vn 0.1984863 0.9272461 0.3171387
vn 0.2008057 0.9375 0.2849121
vn 0.197876 0.9248047 0.3244629
vn 0.08306885 0.996582 -0.01016998
vn 0.08306885 0.996582 -0.01016998
vn 0.08306885 0.996582 -0.01016998
vn 0.08306885 0.996582 -0.01016998
vn 0.08306885 0.996582 -0.01016998
vn 0.08306885 0.996582 -0.01016998
vn 0.5029297 -0.8618164 0.06768799
vn 0.4667969 -0.8828125 0.04782104
vn 0.4453125 -0.8945313 0.03619385
vn 0.5141602 -0.8544922 0.07391357
vn 0.2785645 -0.8691406 -0.4086914
vn 0.3112793 -0.8486328 -0.4279785
vn 0.3283691 -0.8369141 -0.4379883
vn 0.2685547 -0.875 -0.4025879
vn -0.2583008 -0.8037109 -0.5361328
vn -0.2546387 -0.7607422 -0.597168
vn -0.2519531 -0.7338867 -0.6303711
vn -0.2592773 -0.8178711 -0.5136719
vn -0.6879883 -0.722168 -0.0703125
vn -0.706543 -0.7026367 -0.08380127
vn -0.7182617 -0.6894531 -0.09283447
vn -0.6801758 -0.7304688 -0.06469727
vn -0.4345703 -0.715332 0.546875
vn -0.4128418 -0.7358398 0.5371094
vn -0.3967285 -0.75 0.5292969
vn -0.4433594 -0.7070313 0.5507813
vn 0.2098389 -0.7895508 0.5766602
vn 0.2119141 -0.8305664 0.5151367
vn 0.2125244 -0.855957 0.4709473
vn 0.2088623 -0.7734375 0.5981445
vn 0.4267578 0.9038086 0.02763367
vn 0.420166 0.9067383 0.02998352
vn 0.4162598 0.9086914 0.03137207
vn 0.4343262 0.9003906 0.02494812
vn 0.3015137 0.890625 -0.3400879
vn 0.3039551 0.8852539 -0.3525391
vn 0.3051758 0.8823242 -0.3583984
vn 0.2988281 0.8959961 -0.3278809
vn -0.1153564 0.8974609 -0.425293
vn -0.1311035 0.8891602 -0.4384766
vn -0.1383057 0.8852539 -0.4445801
vn -0.1009521 0.9047852 -0.4133301
vn -0.388916 0.9189453 -0.06628418
vn -0.3959961 0.9160156 -0.06347656
vn -0.3996582 0.9145508 -0.06192017
vn -0.3820801 0.9213867 -0.0690918
vn -0.1958008 0.9272461 0.3198242
vn -0.1945801 0.9301758 0.3115234
vn -0.1938477 0.9321289 0.3063965
vn -0.1971436 0.9233398 0.3288574
vn 0.2033691 0.9194336 0.3361816
vn 0.1922607 0.925293 0.3269043
vn 0.1844482 0.9291992 0.3203125
vn 0.2171631 0.9121094 0.3474121
vn 0.01115417 -1 -0.01487732
vn 0.01115417 -1 -0.01487732
vn 0.01115417 -1 -0.01487732
vn 0.01115417 -1 -0.01487732
vn 0.01115417 -1 -0.01487732
vn 0.01115417 -1 -0.01487732
vn 0.07080078 0.9970703 -0.01934814
vn 0.07080078 0.9970703 -0.01934814
vn 0.07080078 0.9970703 -0.01934814
vn 0.07080078 0.9970703 -0.01934814
vn 0.07080078 0.9970703 -0.01934814
vn 0.07080078 0.9970703 -0.01934814

vt 0.8266602 0.4970703
vt 0.7890625 0.4775391
vt 0.8217773 0.4960938
vt 0.7890625 0.4775391
vt 0.8266602 0.4970703
vt 0.7924805 0.4780273
vt 0.7875977 0.4870605
vt 0.8217773 0.5083008
vt 0.8198242 0.5039063
vt 0.8217773 0.5083008
vt 0.7875977 0.4870605
vt 0.7885742 0.4924316
vt 0.8217773 0.4960938
vt 0.8486328 0.5424805
vt 0.8266602 0.4970703
vt 0.8251953 0.5048828
vt 0.8486328 0.5424805
vt 0.8217773 0.5083008
vt 0.8217773 0.5083008
vt 0.8486328 0.5424805
vt 0.8198242 0.5039063
vt 0.8198242 0.5039063
vt 0.8486328 0.5424805
vt 0.8217773 0.4960938
vt 0.7275391 0.5292969
vt 0.784668 0.4968262
vt 0.7871094 0.4931641
vt 0.7265625 0.5317383
vt 0.78125 0.4924316
vt 0.784668 0.4968262
vt 0.7265625 0.5224609
vt 0.7802734 0.4846191
vt 0.7231445 0.5219727
vt 0.7802734 0.4846191
vt 0.7265625 0.5224609
vt 0.7866211 0.4851074
vt 0.7265625 0.5224609
vt 0.699707 0.5498047
vt 0.7275391 0.5292969
vt 0.7241211 0.5283203
vt 0.699707 0.5498047
vt 0.7231445 0.5219727
vt 0.7231445 0.5219727
vt 0.699707 0.5498047
vt 0.7265625 0.5224609
vt 0.7954102 0.4970703
vt 0.7919922 0.4775391
vt 0.8041992 0.4960938
vt 0.7919922 0.4775391
vt 0.7954102 0.4970703
vt 0.7807617 0.4780273
vt 0.8041992 0.4960938
vt 0.8134766 0.5463867
vt 0.7954102 0.4970703
vt 0.7954102 0.4970703
vt 0.8134766 0.5463867
vt 0.7954102 0.5048828
vt 0.7954102 0.5048828
vt 0.8134766 0.5463867
vt 0.7993164 0.5083008
vt 0.7993164 0.5083008
vt 0.8134766 0.5463867
vt 0.8041992 0.5039063
vt 0.1964111 0.5068359
vt 0.2272949 0.5209961
vt 0.2443848 0.5292969
vt 0.2272949 0.5209961
vt 0.1964111 0.5068359
vt 0.1676025 0.4951172
vt 0.8217773 0.357666
vt 0.7924805 0.4421387
vt 0.8149414 0.357666
vt 0.7978516 0.4404297
vt 0.8007813 0.357666
vt 0.7924805 0.4421387
vt 0.7822266 0.4428711
vt 0.8149414 0.357666
vt 0.7939453 0.357666
vt 0.7822266 0.4428711
vt 0.7768555 0.4421387
vt 0.8007813 0.357666
vt 0.8007813 0.357666
vt 0.7768555 0.4421387
vt 0.7822266 0.4404297
vt 0.7939453 0.357666
vt 0.8007813 0.357666
vt 0.7929688 0.4396973
vt 0.8149414 0.357666
vt 0.7822266 0.4404297
vt 0.8149414 0.357666
vt 0.7978516 0.4404297
vt 0.8217773 0.357666
vt 0.7929688 0.4396973
vt 0.7890625 0.5507813
vt 0.7978516 0.4404297
vt 0.793457 0.5512695
vt 0.7924805 0.4421387
vt 0.7822266 0.4428711
vt 0.7890625 0.5507813
vt 0.7802734 0.5522461
vt 0.7924805 0.4421387
vt 0.7802734 0.5522461
vt 0.7768555 0.4421387
vt 0.7822266 0.4428711
vt 0.7758789 0.5537109
vt 0.7958984 0.6645508
vt 0.7924805 0.6655273
vt 0.7822266 0.4404297
vt 0.7758789 0.5537109
vt 0.7802734 0.5541992
vt 0.7768555 0.4421387
vt 0.7890625 0.5532227
vt 0.7822266 0.4404297
vt 0.7802734 0.5541992
vt 0.7929688 0.4396973
vt 0.7929688 0.4396973
vt 0.793457 0.5512695
vt 0.7978516 0.4404297
vt 0.7890625 0.5532227
vt 0.8066406 0.6621094
vt 0.8032227 0.6630859
vt 0.8032227 0.6630859
vt 0.793457 0.5512695
vt 0.8066406 0.6621094
vt 0.7890625 0.5507813
vt 0.7802734 0.5522461
vt 0.8032227 0.6630859
vt 0.7958984 0.6645508
vt 0.7890625 0.5507813
vt 0.7958984 0.6645508
vt 0.7758789 0.5537109
vt 0.7924805 0.6655273
vt 0.7802734 0.5541992
vt 0.8032227 0.6630859
vt 0.7802734 0.5541992
vt 0.7958984 0.6645508
vt 0.7890625 0.5532227
vt 0.8266602 0.4970703
vt 0.7910156 0.487793
vt 0.7924805 0.4780273
vt 0.8251953 0.5048828
vt 0.8486328 0.5424805
vt 0.7885742 0.4924316
vt 0.8251953 0.5048828
vt 0.8217773 0.5083008
vt 0.7910156 0.487793
vt 0.8217773 0.4960938
vt 0.7875977 0.4870605
vt 0.8198242 0.5039063
vt 0.7890625 0.4775391
vt 0.7871094 0.4931641
vt 0.7265625 0.5224609
vt 0.7275391 0.5292969
vt 0.7866211 0.4851074
vt 0.784668 0.4968262
vt 0.7275391 0.5292969
vt 0.7265625 0.5317383
vt 0.699707 0.5498047
vt 0.78125 0.4924316
vt 0.7265625 0.5317383
vt 0.7241211 0.5283203
vt 0.699707 0.5498047
vt 0.7231445 0.5219727
vt 0.78125 0.4924316
vt 0.7241211 0.5283203
vt 0.7802734 0.4846191
vt 0.7807617 0.487793
vt 0.7954102 0.4970703
vt 0.7954102 0.5048828
vt 0.7807617 0.4780273
vt 0.7866211 0.4924316
vt 0.7954102 0.5048828
vt 0.7993164 0.5083008
vt 0.7807617 0.487793
vt 0.7919922 0.4870605
vt 0.7993164 0.5083008
vt 0.8041992 0.5039063
vt 0.7866211 0.4924316
vt 0.7919922 0.4870605
vt 0.8041992 0.4960938
vt 0.7919922 0.4775391
vt 0.8041992 0.5039063
vt 0.8134766 0.5463867
vt 0.4284668 0.1466064
vt 0.3933105 0.1734619
vt 0.3649902 0.1486816
vt 0.4833984 0.1766357
vt 0.3649902 0.1486816
vt 0.2131348 0.1793213
vt 0.2376709 0.1486816
vt 0.3933105 0.1734619
vt 0.2376709 0.1486816
vt 0.1229858 0.1884766
vt 0.1740723 0.1466064
vt 0.2131348 0.1793213
vt 0.1740723 0.1466064
vt 0.2131348 0.1917725
vt 0.2376709 0.1445313
vt 0.1229858 0.1884766
vt 0.2376709 0.1445313
vt 0.3933105 0.185791
vt 0.3649902 0.1445313
vt 0.2131348 0.1917725
vt 0.3649902 0.1445313
vt 0.4833984 0.1766357
vt 0.4284668 0.1466064
vt 0.3933105 0.185791
vt 0.4833984 0.1766357
vt 0.3540039 0.2030029
vt 0.3933105 0.1734619
vt 0.4084473 0.2060547
vt 0.3933105 0.1734619
vt 0.2451172 0.2080078
vt 0.2131348 0.1793213
vt 0.3540039 0.2030029
vt 0.2131348 0.1793213
vt 0.1906738 0.2161865
vt 0.1229858 0.1884766
vt 0.2451172 0.2080078
vt 0.1229858 0.1884766
vt 0.2451172 0.2192383
vt 0.2131348 0.1917725
vt 0.1906738 0.2161865
vt 0.2131348 0.1917725
vt 0.3540039 0.2141113
vt 0.3933105 0.185791
vt 0.2451172 0.2192383
vt 0.3933105 0.185791
vt 0.4084473 0.2060547
vt 0.4833984 0.1766357
vt 0.3540039 0.2141113
vt 0.3649902 0.1445313
vt 0.1740723 0.1466064
vt 0.2376709 0.1445313
vt 0.4284668 0.1466064
vt 0.2376709 0.1486816
vt 0.3649902 0.1486816
vt 0.4020996 0.4448242
vt 0.3557129 0.484375
vt 0.3254395 0.4406738
vt 0.4545898 0.4951172
vt 0.3254395 0.4406738
vt 0.1575928 0.4943848
vt 0.1722412 0.4477539
vt 0.3557129 0.484375
vt 0.1722412 0.4477539
vt 0.05856323 0.5151367
vt 0.09570313 0.4589844
vt 0.1575928 0.4943848
vt 0.09570313 0.4589844
vt 0.1575928 0.5258789
vt 0.1722412 0.4633789
vt 0.05856323 0.5151367
vt 0.1722412 0.4633789
vt 0.3557129 0.515625
vt 0.3254395 0.4562988
vt 0.1575928 0.5258789
vt 0.3254395 0.4562988
vt 0.4545898 0.4951172
vt 0.4020996 0.4448242
vt 0.3557129 0.515625
vt 0.3557129 0.484375
vt 0.3908691 0.5332031
vt 0.3347168 0.5292969
vt 0.4545898 0.4951172
vt 0.1575928 0.4943848
vt 0.3347168 0.5292969
vt 0.2225342 0.5400391
vt 0.3557129 0.484375
vt 0.05856323 0.5151367
vt 0.2225342 0.5400391
vt 0.1665039 0.5546875
vt 0.1575928 0.4943848
vt 0.05856323 0.5151367
vt 0.2225342 0.5585938
vt 0.1575928 0.5258789
vt 0.1665039 0.5546875
vt 0.1575928 0.5258789
vt 0.3347168 0.5473633
vt 0.3557129 0.515625
vt 0.2225342 0.5585938
vt 0.4545898 0.4951172
vt 0.3347168 0.5473633
vt 0.3908691 0.5332031
vt 0.3557129 0.515625
vt 0.2423096 0.8666992
vt 0.3605957 0.8442383
vt 0.3212891 0.855957
vt 0.2028809 0.8662109
vt 0.3212891 0.8432617
vt 0.2423096 0.8540039
vt 0.3659668 0.7915039
vt 0.3605957 0.8442383
vt 0.3212891 0.8432617
vt 0.4621582 0.7954102
vt 0.1734619 0.815918
vt 0.3212891 0.8432617
vt 0.2423096 0.8540039
vt 0.3659668 0.7915039
vt 0.07714844 0.84375
vt 0.2423096 0.8540039
vt 0.2028809 0.8662109
vt 0.1734619 0.815918
vt 0.2423096 0.8666992
vt 0.07714844 0.84375
vt 0.2028809 0.8662109
vt 0.1734619 0.847168
vt 0.3212891 0.855957
vt 0.1734619 0.847168
vt 0.2423096 0.8666992
vt 0.3659668 0.8227539
vt 0.3605957 0.8442383
vt 0.3659668 0.8227539
vt 0.3212891 0.855957
vt 0.4621582 0.7954102
vt 0.3369141 0.7519531
vt 0.4621582 0.7954102
vt 0.3659668 0.7915039
vt 0.4194336 0.7573242
vt 0.1717529 0.7680664
vt 0.3659668 0.7915039
vt 0.1734619 0.815918
vt 0.3369141 0.7519531
vt 0.08929443 0.7895508
vt 0.1734619 0.815918
vt 0.07714844 0.84375
vt 0.1717529 0.7680664
vt 0.1734619 0.847168
vt 0.08929443 0.7895508
vt 0.07714844 0.84375
vt 0.1717529 0.7949219
vt 0.3659668 0.8227539
vt 0.1717529 0.7949219
vt 0.1734619 0.847168
vt 0.3369141 0.7788086
vt 0.4621582 0.7954102
vt 0.3369141 0.7788086
vt 0.3659668 0.8227539
vt 0.4194336 0.7573242
vt 0.3896484 0.1519775
vt 0.253418 0.1755371
vt 0.2644043 0.1538086
vt 0.4306641 0.1783447
vt 0.2644043 0.1538086
vt 0.1193237 0.1806641
vt 0.170166 0.1538086
vt 0.253418 0.1755371
vt 0.170166 0.1538086
vt 0.1627197 0.1887207
vt 0.2009277 0.1519775
vt 0.1193237 0.1806641
vt 0.2009277 0.1519775
vt 0.3400879 0.1916504
vt 0.3259277 0.1501465
vt 0.1627197 0.1887207
vt 0.3259277 0.1501465
vt 0.4741211 0.1864014
vt 0.4204102 0.1501465
vt 0.3400879 0.1916504
vt 0.4204102 0.1501465
vt 0.4306641 0.1783447
vt 0.3896484 0.1519775
vt 0.4741211 0.1864014
vt 0.4306641 0.1783447
vt 0.2631836 0.2015381
vt 0.253418 0.1755371
vt 0.3703613 0.2042236
vt 0.253418 0.1755371
vt 0.1820068 0.2059326
vt 0.1193237 0.1806641
vt 0.2631836 0.2015381
vt 0.1193237 0.1806641
vt 0.2080078 0.2131348
vt 0.1627197 0.1887207
vt 0.1820068 0.2059326
vt 0.1627197 0.1887207
vt 0.3151855 0.2158203
vt 0.3400879 0.1916504
vt 0.2080078 0.2131348
vt 0.3400879 0.1916504
vt 0.3962402 0.2113037
vt 0.4741211 0.1864014
vt 0.3151855 0.2158203
vt 0.4741211 0.1864014
vt 0.3703613 0.2042236
vt 0.4306641 0.1783447
vt 0.3962402 0.2113037
vt 0.4204102 0.1501465
vt 0.2009277 0.1519775
vt 0.3259277 0.1501465
vt 0.3896484 0.1519775
vt 0.170166 0.1538086
vt 0.2644043 0.1538086
vt 0.3635254 0.4672852
vt 0.2624512 0.4897461
vt 0.2670898 0.4648438
vt 0.3859863 0.4956055
vt 0.2670898 0.4648438
vt 0.1676025 0.4951172
vt 0.1939697 0.4689941
vt 0.2624512 0.4897461
vt 0.1939697 0.4689941
vt 0.1964111 0.5068359
vt 0.2174072 0.4753418
vt 0.1676025 0.4951172
vt 0.2174072 0.4753418
vt 0.3198242 0.5126953
vt 0.3139648 0.4777832
vt 0.1964111 0.5068359
vt 0.3139648 0.4777832
vt 0.4147949 0.5073242
vt 0.3869629 0.4736328
vt 0.3198242 0.5126953
vt 0.3869629 0.4736328
vt 0.3859863 0.4956055
vt 0.3635254 0.4672852
vt 0.4147949 0.5073242
vt 0.2624512 0.4897461
vt 0.3527832 0.5170898
vt 0.2814941 0.5146484
vt 0.3859863 0.4956055
vt 0.1676025 0.4951172
vt 0.2814941 0.5146484
vt 0.2272949 0.5209961
vt 0.2624512 0.4897461
vt 0.1964111 0.5068359
vt 0.3156738 0.53125
vt 0.3198242 0.5126953
vt 0.2443848 0.5292969
vt 0.3198242 0.5126953
vt 0.369873 0.5249023
vt 0.4147949 0.5073242
vt 0.3156738 0.53125
vt 0.3859863 0.4956055
vt 0.369873 0.5249023
vt 0.3527832 0.5170898
vt 0.4147949 0.5073242
vt 0.3527832 0.5170898
vt 0.2272949 0.5209961
vt 0.2814941 0.5146484
vt 0.2443848 0.5292969
vt 0.369873 0.5249023
vt 0.3156738 0.53125
vt 0.3562012 0.1541748
vt 0.4208984 0.1708984
vt 0.3706055 0.1553955
vt 0.4003906 0.1729736
vt 0.3706055 0.1553955
vt 0.2749023 0.1745605
vt 0.2670898 0.1553955
vt 0.4208984 0.1708984
vt 0.2670898 0.1553955
vt 0.1082153 0.1802979
vt 0.1494141 0.1541748
vt 0.2749023 0.1745605
vt 0.1494141 0.1541748
vt 0.08764648 0.182373
vt 0.1350098 0.152832
vt 0.1082153 0.1802979
vt 0.1350098 0.152832
vt 0.2337646 0.1785889
vt 0.2382813 0.152832
vt 0.08764648 0.182373
vt 0.2382813 0.152832
vt 0.4003906 0.1729736
vt 0.3562012 0.1541748
vt 0.2337646 0.1785889
vt 0.4003906 0.1729736
vt 0.355957 0.1894531
vt 0.4208984 0.1708984
vt 0.3435059 0.1912842
vt 0.4208984 0.1708984
vt 0.2678223 0.1925049
vt 0.2749023 0.1745605
vt 0.355957 0.1894531
vt 0.2749023 0.1745605
vt 0.1673584 0.1976318
vt 0.1082153 0.1802979
vt 0.2678223 0.1925049
vt 0.1082153 0.1802979
vt 0.1549072 0.1994629
vt 0.08764648 0.182373
vt 0.1673584 0.1976318
vt 0.08764648 0.182373
vt 0.2429199 0.1964111
vt 0.2337646 0.1785889
vt 0.1549072 0.1994629
vt 0.2337646 0.1785889
vt 0.3435059 0.1912842
vt 0.4003906 0.1729736
vt 0.2429199 0.1964111
vt 0.2382813 0.152832
vt 0.1494141 0.1541748
vt 0.1350098 0.152832
vt 0.3562012 0.1541748
vt 0.2670898 0.1553955
vt 0.3706055 0.1553955
vt 0.2666016 0.4758301
vt 0.3095703 0.4914551
vt 0.277832 0.4741211
vt 0.2961426 0.4958496
vt 0.277832 0.4741211
vt 0.2072754 0.4956055
vt 0.1984863 0.4768066
vt 0.3095703 0.4914551
vt 0.1984863 0.4768066
vt 0.09161377 0.5039063
vt 0.1079712 0.4814453
vt 0.2072754 0.4956055
vt 0.1079712 0.4814453
vt 0.07818604 0.5078125
vt 0.09680176 0.4831543
vt 0.09161377 0.5039063
vt 0.09680176 0.4831543
vt 0.1804199 0.5039063
vt 0.1760254 0.4802246
vt 0.07818604 0.5078125
vt 0.1760254 0.4802246
vt 0.2961426 0.4958496
vt 0.2666016 0.4758301
vt 0.1804199 0.5039063
vt 0.3095703 0.4914551
vt 0.265625 0.5107422
vt 0.2741699 0.5097656
vt 0.2961426 0.4958496
vt 0.2072754 0.4956055
vt 0.2741699 0.5097656
vt 0.2166748 0.5136719
vt 0.3095703 0.4914551
vt 0.09161377 0.5039063
vt 0.2166748 0.5136719
vt 0.1503906 0.5195313
vt 0.2072754 0.4956055
vt 0.09161377 0.5039063
vt 0.1417236 0.5209961
vt 0.07818604 0.5078125
vt 0.1503906 0.5195313
vt 0.07818604 0.5078125
vt 0.1993408 0.5166016
vt 0.1804199 0.5039063
vt 0.1417236 0.5209961
vt 0.2961426 0.4958496
vt 0.1993408 0.5166016
vt 0.265625 0.5107422
vt 0.1804199 0.5039063
vt 0.265625 0.5107422
vt 0.2166748 0.5136719
vt 0.2741699 0.5097656
vt 0.1503906 0.5195313
vt 0.1993408 0.5166016
vt 0.1417236 0.5209961
vt 0.3833008 0.1602783
vt 0.4335938 0.1806641
vt 0.3945313 0.1618652
vt 0.4174805 0.1832275
vt 0.3945313 0.1618652
vt 0.3203125 0.1851807
vt 0.3144531 0.1618652
vt 0.4335938 0.1806641
vt 0.3144531 0.1618652
vt 0.1911621 0.1922607
vt 0.2230225 0.1602783
vt 0.3203125 0.1851807
vt 0.2230225 0.1602783
vt 0.1751709 0.1947021
vt 0.2119141 0.1586914
vt 0.1911621 0.1922607
vt 0.2119141 0.1586914
vt 0.2883301 0.1901855
vt 0.2919922 0.1586914
vt 0.1751709 0.1947021
vt 0.2919922 0.1586914
vt 0.4174805 0.1832275
vt 0.3833008 0.1602783
vt 0.2883301 0.1901855
vt 0.4174805 0.1832275
vt 0.3830566 0.2032471
vt 0.4335938 0.1806641
vt 0.3735352 0.2055664
vt 0.4335938 0.1806641
vt 0.3149414 0.2071533
vt 0.3203125 0.1851807
vt 0.3830566 0.2032471
vt 0.3203125 0.1851807
vt 0.2369385 0.2132568
vt 0.1911621 0.1922607
vt 0.3149414 0.2071533
vt 0.1911621 0.1922607
vt 0.2272949 0.2155762
vt 0.1751709 0.1947021
vt 0.2369385 0.2132568
vt 0.1751709 0.1947021
vt 0.2956543 0.211792
vt 0.2883301 0.1901855
vt 0.2272949 0.2155762
vt 0.2883301 0.1901855
vt 0.3735352 0.2055664
vt 0.4174805 0.1832275
vt 0.2956543 0.211792
vt 0.2919922 0.1586914
vt 0.2230225 0.1602783
vt 0.2119141 0.1586914
vt 0.3833008 0.1602783
vt 0.3144531 0.1618652
vt 0.3945313 0.1618652
vt 0.2956543 0.211792
vt 0.3830566 0.2032471
vt 0.3735352 0.2055664
vt 0.3149414 0.2071533
vt 0.2272949 0.2155762
vt 0.2369385 0.2132568

g Tree_11_Green_395_81
usemtl Tree_11_Green_395_81
usemap Tree_11_Green_395_81
f 1/1/1 3/3/3 2/2/2
f 4/4/4 6/6/6 5/5/5
f 7/7/7 9/9/9 8/8/8
f 10/10/10 12/12/12 11/11/11
f 13/13/13 15/15/15 14/14/14
f 16/16/16 18/18/18 17/17/17
f 19/19/19 21/21/21 20/20/20
f 22/22/22 24/24/24 23/23/23
f 25/25/25 27/27/27 26/26/26
f 28/28/28 30/30/30 29/29/29
f 31/31/31 33/33/33 32/32/32
f 34/34/34 36/36/36 35/35/35
f 37/37/37 39/39/39 38/38/38
f 40/40/40 42/42/42 41/41/41
f 43/43/43 45/45/45 44/44/44
f 46/46/46 48/48/48 47/47/47
f 49/49/49 51/51/51 50/50/50
f 52/52/52 54/54/54 53/53/53
f 55/55/55 57/57/57 56/56/56
f 58/58/58 60/60/60 59/59/59
f 61/61/61 63/63/63 62/62/62
f 64/64/64 66/66/66 65/65/65
f 67/67/67 69/69/69 68/68/68
f 70/70/70 72/72/72 71/71/71
f 71/71/71 73/73/73 70/70/70
f 74/74/74 76/76/76 75/75/75
f 75/75/75 77/77/77 74/74/74
f 78/78/78 80/80/80 79/79/79
f 79/79/79 81/81/81 78/78/78
f 82/82/82 84/84/84 83/83/83
f 83/83/83 85/85/85 82/82/82
f 86/86/86 88/88/88 87/87/87
f 87/87/87 89/89/89 86/86/86
f 90/90/90 92/92/92 91/91/91
f 91/91/91 93/93/93 90/90/90
f 94/94/94 96/96/96 95/95/95
f 95/95/95 97/97/97 94/94/94
f 98/98/98 100/100/100 99/99/99
f 99/99/99 101/101/101 98/98/98
f 102/102/102 104/104/104 103/103/103
f 103/103/103 105/105/105 102/102/102
f 106/106/106 102/102/102 105/105/105
f 105/105/105 107/107/107 106/106/106
f 108/108/108 110/110/110 109/109/109
f 109/109/109 111/111/111 108/108/108
f 112/112/112 114/114/114 113/113/113
f 113/113/113 115/115/115 112/112/112
f 116/116/116 118/118/118 117/117/117
f 117/117/117 119/119/119 116/116/116
f 119/119/119 117/117/117 120/120/120
f 120/120/120 121/121/121 119/119/119
f 122/122/122 124/124/124 123/123/123
f 123/123/123 125/125/125 122/122/122
f 126/126/126 128/128/128 127/127/127
f 127/127/127 129/129/129 126/126/126
f 130/130/130 132/132/132 131/131/131
f 131/131/131 133/133/133 130/130/130
f 134/134/134 136/136/136 135/135/135
f 135/135/135 137/137/137 134/134/134
f 138/138/138 140/140/140 139/139/139
f 139/139/139 141/141/141 138/138/138
f 138/138/138 141/141/141 142/142/142
f 143/143/143 145/145/145 144/144/144
f 144/144/144 146/146/146 143/143/143
f 147/147/147 149/149/149 148/148/148
f 148/148/148 150/150/150 147/147/147
f 151/151/151 153/153/153 152/152/152
f 152/152/152 154/154/154 151/151/151
f 155/155/155 157/157/157 156/156/156
f 156/156/156 157/157/157 158/158/158
f 159/159/159 161/161/161 160/160/160
f 160/160/160 161/161/161 162/162/162
f 163/163/163 165/165/165 164/164/164
f 164/164/164 166/166/166 163/163/163
f 167/167/167 169/169/169 168/168/168
f 168/168/168 170/170/170 167/167/167
f 171/171/171 173/173/173 172/172/172
f 172/172/172 174/174/174 171/171/171
f 175/175/175 177/177/177 176/176/176
f 176/176/176 178/178/178 175/175/175
f 179/179/179 181/181/181 180/180/180
f 180/180/180 182/182/182 179/179/179
f 182/182/182 180/180/180 183/183/183
f 184/184/184 186/186/186 185/185/185
f 185/185/185 187/187/187 184/184/184
f 188/188/188 190/190/190 189/189/189
f 189/189/189 191/191/191 188/188/188
f 192/192/192 194/194/194 193/193/193
f 193/193/193 195/195/195 192/192/192
f 196/196/196 198/198/198 197/197/197
f 197/197/197 199/199/199 196/196/196
f 200/200/200 202/202/202 201/201/201
f 201/201/201 203/203/203 200/200/200
f 204/204/204 206/206/206 205/205/205
f 205/205/205 207/207/207 204/204/204
f 208/208/208 210/210/210 209/209/209
f 209/209/209 211/211/211 208/208/208
f 212/212/212 214/214/214 213/213/213
f 213/213/213 215/215/215 212/212/212
f 216/216/216 218/218/218 217/217/217
f 217/217/217 219/219/219 216/216/216
f 220/220/220 222/222/222 221/221/221
f 221/221/221 223/223/223 220/220/220
f 224/224/224 226/226/226 225/225/225
f 225/225/225 227/227/227 224/224/224
f 228/228/228 230/230/230 229/229/229
f 229/229/229 231/231/231 228/228/228
f 232/232/232 234/234/234 233/233/233
f 233/233/233 235/235/235 232/232/232
f 235/235/235 233/233/233 236/236/236
f 236/236/236 237/237/237 235/235/235
f 238/238/238 240/240/240 239/239/239
f 239/239/239 241/241/241 238/238/238
f 242/242/242 244/244/244 243/243/243
f 243/243/243 245/245/245 242/242/242
f 246/246/246 248/248/248 247/247/247
f 247/247/247 249/249/249 246/246/246
f 250/250/250 252/252/252 251/251/251
f 251/251/251 253/253/253 250/250/250
f 254/254/254 256/256/256 255/255/255
f 255/255/255 257/257/257 254/254/254
f 258/258/258 260/260/260 259/259/259
f 259/259/259 261/261/261 258/258/258
f 262/262/262 264/264/264 263/263/263
f 263/263/263 265/265/265 262/262/262
f 266/266/266 268/268/268 267/267/267
f 267/267/267 269/269/269 266/266/266
f 270/270/270 272/272/272 271/271/271
f 271/271/271 273/273/273 270/270/270
f 274/274/274 276/276/276 275/275/275
f 275/275/275 277/277/277 274/274/274
f 278/278/278 280/280/280 279/279/279
f 279/279/279 281/281/281 278/278/278
f 282/282/282 284/284/284 283/283/283
f 283/283/283 285/285/285 282/282/282
f 286/286/286 288/288/288 287/287/287
f 287/287/287 289/289/289 286/286/286
f 289/289/289 287/287/287 290/290/290
f 290/290/290 291/291/291 289/289/289
f 292/292/292 294/294/294 293/293/293
f 293/293/293 295/295/295 292/292/292
f 296/296/296 298/298/298 297/297/297
f 297/297/297 299/299/299 296/296/296
f 300/300/300 302/302/302 301/301/301
f 301/301/301 303/303/303 300/300/300
f 304/304/304 306/306/306 305/305/305
f 305/305/305 307/307/307 304/304/304
f 308/308/308 310/310/310 309/309/309
f 309/309/309 311/311/311 308/308/308
f 312/312/312 314/314/314 313/313/313
f 313/313/313 315/315/315 312/312/312
f 316/316/316 318/318/318 317/317/317
f 317/317/317 319/319/319 316/316/316
f 320/320/320 322/322/322 321/321/321
f 321/321/321 323/323/323 320/320/320
f 324/324/324 326/326/326 325/325/325
f 325/325/325 327/327/327 324/324/324
f 328/328/328 330/330/330 329/329/329
f 329/329/329 331/331/331 328/328/328
f 332/332/332 334/334/334 333/333/333
f 333/333/333 335/335/335 332/332/332
f 336/336/336 338/338/338 337/337/337
f 337/337/337 339/339/339 336/336/336
f 340/340/340 342/342/342 341/341/341
f 341/341/341 343/343/343 340/340/340
f 344/344/344 346/346/346 345/345/345
f 345/345/345 347/347/347 344/344/344
f 348/348/348 350/350/350 349/349/349
f 349/349/349 351/351/351 348/348/348
f 352/352/352 354/354/354 353/353/353
f 353/353/353 355/355/355 352/352/352
f 356/356/356 358/358/358 357/357/357
f 357/357/357 359/359/359 356/356/356
f 360/360/360 362/362/362 361/361/361
f 361/361/361 363/363/363 360/360/360
f 364/364/364 366/366/366 365/365/365
f 365/365/365 367/367/367 364/364/364
f 368/368/368 370/370/370 369/369/369
f 369/369/369 371/371/371 368/368/368
f 372/372/372 374/374/374 373/373/373
f 373/373/373 375/375/375 372/372/372
f 376/376/376 378/378/378 377/377/377
f 377/377/377 379/379/379 376/376/376
f 380/380/380 382/382/382 381/381/381
f 381/381/381 383/383/383 380/380/380
f 384/384/384 386/386/386 385/385/385
f 385/385/385 387/387/387 384/384/384
f 388/388/388 390/390/390 389/389/389
f 389/389/389 391/391/391 388/388/388
f 391/391/391 389/389/389 392/392/392
f 392/392/392 393/393/393 391/391/391
f 394/394/394 396/396/396 395/395/395
f 395/395/395 397/397/397 394/394/394
f 398/398/398 400/400/400 399/399/399
f 399/399/399 401/401/401 398/398/398
f 402/402/402 404/404/404 403/403/403
f 403/403/403 405/405/405 402/402/402
f 406/406/406 408/408/408 407/407/407
f 407/407/407 409/409/409 406/406/406
f 410/410/410 412/412/412 411/411/411
f 411/411/411 413/413/413 410/410/410
f 414/414/414 416/416/416 415/415/415
f 415/415/415 417/417/417 414/414/414
f 418/418/418 420/420/420 419/419/419
f 419/419/419 421/421/421 418/418/418
f 422/422/422 424/424/424 423/423/423
f 423/423/423 425/425/425 422/422/422
f 426/426/426 428/428/428 427/427/427
f 427/427/427 429/429/429 426/426/426
f 430/430/430 432/432/432 431/431/431
f 431/431/431 433/433/433 430/430/430
f 434/434/434 436/436/436 435/435/435
f 435/435/435 437/437/437 434/434/434
f 438/438/438 440/440/440 439/439/439
f 439/439/439 441/441/441 438/438/438
f 442/442/442 438/438/438 441/441/441
f 441/441/441 443/443/443 442/442/442
f 444/444/444 446/446/446 445/445/445
f 445/445/445 447/447/447 444/444/444
f 448/448/448 450/450/450 449/449/449
f 449/449/449 451/451/451 448/448/448
f 452/452/452 454/454/454 453/453/453
f 453/453/453 455/455/455 452/452/452
f 456/456/456 458/458/458 457/457/457
f 457/457/457 459/459/459 456/456/456
f 460/460/460 462/462/462 461/461/461
f 461/461/461 463/463/463 460/460/460
f 464/464/464 466/466/466 465/465/465
f 465/465/465 467/467/467 464/464/464
f 468/468/468 470/470/470 469/469/469
f 469/469/469 471/471/471 468/468/468
f 472/472/472 474/474/474 473/473/473
f 473/473/473 475/475/475 472/472/472
f 476/476/476 478/478/478 477/477/477
f 477/477/477 479/479/479 476/476/476
f 480/480/480 482/482/482 481/481/481
f 481/481/481 483/483/483 480/480/480
f 484/484/484 486/486/486 485/485/485
f 485/485/485 487/487/487 484/484/484
f 488/488/488 490/490/490 489/489/489
f 489/489/489 491/491/491 488/488/488
f 492/492/492 494/494/494 493/493/493
f 493/493/493 495/495/495 492/492/492
f 495/495/495 493/493/493 496/496/496
f 496/496/496 497/497/497 495/495/495
f 498/498/498 500/500/500 499/499/499
f 499/499/499 501/501/501 498/498/498
f 502/502/502 504/504/504 503/503/503
f 503/503/503 505/505/505 502/502/502
f 506/506/506 508/508/508 507/507/507
f 507/507/507 509/509/509 506/506/506
f 510/510/510 512/512/512 511/511/511
f 511/511/511 513/513/513 510/510/510
f 514/514/514 516/516/516 515/515/515
f 515/515/515 517/517/517 514/514/514
f 518/518/518 520/520/520 519/519/519
f 519/519/519 521/521/521 518/518/518
f 522/522/522 524/524/524 523/523/523
f 523/523/523 525/525/525 522/522/522
f 526/526/526 528/528/528 527/527/527
f 527/527/527 529/529/529 526/526/526
f 530/530/530 532/532/532 531/531/531
f 531/531/531 533/533/533 530/530/530
f 534/534/534 536/536/536 535/535/535
f 535/535/535 537/537/537 534/534/534
f 538/538/538 540/540/540 539/539/539
f 539/539/539 541/541/541 538/538/538
f 542/542/542 544/544/544 543/543/543
f 543/543/543 545/545/545 542/542/542
f 546/546/546 548/548/548 547/547/547
f 547/547/547 549/549/549 546/546/546
f 550/550/550 546/546/546 549/549/549
f 549/549/549 551/551/551 550/550/550
f 552/552/552 554/554/554 553/553/553
f 553/553/553 555/555/555 552/552/552
f 556/556/556 558/558/558 557/557/557
f 557/557/557 559/559/559 556/556/556
f 560/560/560 562/562/562 561/561/561
f 561/561/561 563/563/563 560/560/560
f 564/564/564 566/566/566 565/565/565
f 565/565/565 567/567/567 564/564/564
f 568/568/568 570/570/570 569/569/569
f 569/569/569 571/571/571 568/568/568
f 572/572/572 574/574/574 573/573/573
f 573/573/573 575/575/575 572/572/572
f 576/576/576 578/578/578 577/577/577
f 577/577/577 579/579/579 576/576/576
f 580/580/580 582/582/582 581/581/581
f 581/581/581 583/583/583 580/580/580
f 584/584/584 586/586/586 585/585/585
f 585/585/585 587/587/587 584/584/584
f 588/588/588 590/590/590 589/589/589
f 589/589/589 591/591/591 588/588/588
f 592/592/592 594/594/594 593/593/593
f 593/593/593 595/595/595 592/592/592
f 596/596/596 598/598/598 597/597/597
f 597/597/597 599/599/599 596/596/596
f 600/600/600 602/602/602 601/601/601
f 601/601/601 603/603/603 600/600/600
f 603/603/603 601/601/601 604/604/604
f 604/604/604 605/605/605 603/603/603
f 606/606/606 608/608/608 607/607/607
f 607/607/607 609/609/609 606/606/606
f 610/610/610 606/606/606 609/609/609
f 609/609/609 611/611/611 610/610/610
