#Tree_11_Green_(1)_386_73.obj

v 0.4705249 -0.9927474 2.322839
v -0.4689695 -0.6828626 1.996823
v 0.3423176 -1.194257 2.308597
v -0.4689695 -0.6828626 1.996823
v 0.4705249 -0.9927474 2.322839
v -0.3802446 -0.4090934 2.008124
v -0.5066023 -0.677343 2.158553
v 0.3469495 -1.070823 2.51324
v 0.3026687 -1.179138 2.440279
v 0.3469495 -1.070823 2.51324
v -0.5066023 -0.677343 2.158553
v -0.481051 -0.5376996 2.245069
v 0.3423176 -1.194257 2.308597
v 1.016736 -1.427726 3.076958
v 0.4705249 -0.9927474 2.322839
v 0.430876 -0.9776288 2.45452
v 1.016736 -1.427726 3.076958
v 0.3469495 -1.070823 2.51324
v 0.3469495 -1.070823 2.51324
v 1.016736 -1.427726 3.076958
v 0.3026687 -1.179138 2.440279
v 0.3026687 -1.179138 2.440279
v 1.016736 -1.427726 3.076958
v 0.3423176 -1.194257 2.308597
v -2.003538 -1.153202 2.857601
v -0.5814018 -0.4835609 2.31834
v -0.5148408 -0.5837904 2.2573
v -2.032961 -1.055769 2.905256
v -0.6676169 -0.4071326 2.248128
v -0.5814018 -0.4835609 2.31834
v -2.030694 -1.174378 2.750734
v -0.6872637 -0.430938 2.116874
v -2.11671 -1.000679 2.739176
v -0.6872637 -0.430938 2.116874
v -2.030694 -1.174378 2.750734
v -0.5344876 -0.6075959 2.126046
v -2.030694 -1.174378 2.750734
v -2.709467 -1.308465 3.199426
v -2.003538 -1.153202 2.857601
v -2.089551 -0.9795015 2.846043
v -2.709467 -1.308465 3.199426
v -2.11671 -1.000679 2.739176
v -2.11671 -1.000679 2.739176
v -2.709467 -1.308465 3.199426
v -2.030694 -1.174378 2.750734
v -0.3056251 0.7596362 2.322839
v -0.3927359 -0.4057529 1.996823
v -0.08653471 0.6645406 2.308597
v -0.3927359 -0.4057529 1.996823
v -0.3056251 0.7596362 2.322839
v -0.6770188 -0.360965 2.008124
v -0.08653471 0.6645406 2.308597
v 0.1460938 1.307533 3.142406
v -0.3056251 0.7596362 2.322839
v -0.3056251 0.7596362 2.322839
v 0.1460938 1.307533 3.142406
v -0.3143536 0.7181108 2.45452
v -0.3143536 0.7181108 2.45452
v 0.1460938 1.307533 3.142406
v -0.2091689 0.6497981 2.51324
v -0.2091689 0.6497981 2.51324
v 0.1460938 1.307533 3.142406
v -0.09526319 0.6230151 2.440279
v 0.2363488 -2.033753 3.316547
v 0.4636505 -1.123098 3.420955
v 0.5894346 -1.644961 3.480938
v 0.4636505 -1.123098 3.420955
v 0.2363488 -2.033753 3.316547
v 0.02514176 -1.123944 3.231408
v 0.3523178 2.918826E-06 5.361619E-22
v -0.3794149 -0.2444691 1.406414
v 0.17616 0.305116 5.604699E-17
v -0.2440768 -0.4699061 1.379011
v -0.1761621 0.3051195 5.604762E-17
v -0.3794149 -0.2444691 1.406414
v -0.6431526 -0.2497631 1.421011
v 0.17616 0.305116 5.604699E-17
v -0.3523178 -2.918826E-06 -6.039245E-22
v -0.6431526 -0.2497631 1.421011
v -0.7715555 -0.4804962 1.408205
v -0.1761621 0.3051195 5.604762E-17
v -0.17616 -0.305116 -5.604712E-17
v -0.7715555 -0.4804962 1.408205
v -0.6362216 -0.7059268 1.380802
v -0.3523178 -2.918826E-06 -6.039245E-22
v -0.17616 -0.305116 -5.604712E-17
v -0.3724839 -0.7006328 1.366205
v 0.1761621 -0.3051195 -5.604775E-17
v -0.6362216 -0.7059268 1.380802
v 0.1761621 -0.3051195 -5.604775E-17
v -0.2440768 -0.4699061 1.379011
v 0.3523178 2.918826E-06 5.361619E-22
v -0.3724839 -0.7006328 1.366205
v -0.4711746 -0.345857 3.217021
v -0.2440768 -0.4699061 1.379011
v -0.360043 -0.5347165 3.225297
v -0.3794149 -0.2444691 1.406414
v -0.6431526 -0.2497631 1.421011
v -0.4711746 -0.345857 3.217021
v -0.6899605 -0.3465244 3.240082
v -0.3794149 -0.2444691 1.406414
v -0.6899605 -0.3465244 3.240082
v -0.7715555 -0.4804962 1.408205
v -0.6431526 -0.2497631 1.421011
v -0.797618 -0.5360535 3.271419
v -0.2951439 0.2124292 5.118435
v -0.3820619 0.05955664 5.133761
v -0.6362216 -0.7059268 1.380802
v -0.797618 -0.5360535 3.271419
v -0.6864938 -0.7249088 3.279695
v -0.7715555 -0.4804962 1.408205
v -0.4677047 -0.7242393 3.256634
v -0.6362216 -0.7059268 1.380802
v -0.6864938 -0.7249088 3.279695
v -0.3724839 -0.7006328 1.366205
v -0.3724839 -0.7006328 1.366205
v -0.360043 -0.5347165 3.225297
v -0.2440768 -0.4699061 1.379011
v -0.4677047 -0.7242393 3.256634
v -0.03439198 0.05955872 5.072457
v -0.121311 -0.09330537 5.087783
v -0.1213105 0.2124292 5.087783
v -0.360043 -0.5347165 3.225297
v -0.03439198 0.05955872 5.072457
v -0.4711746 -0.345857 3.217021
v -0.6899605 -0.3465244 3.240082
v -0.1213105 0.2124292 5.087783
v -0.2951439 0.2124292 5.118435
v -0.4711746 -0.345857 3.217021
v -0.2951475 -0.09330746 5.118435
v -0.797618 -0.5360535 3.271419
v -0.3820619 0.05955664 5.133761
v -0.6864938 -0.7249088 3.279695
v -0.121311 -0.09330537 5.087783
v -0.6864938 -0.7249088 3.279695
v -0.2951475 -0.09330746 5.118435
v -0.4677047 -0.7242393 3.256634
v 0.4705249 -0.9927474 2.322839
v -0.4178774 -0.4035737 2.169855
v -0.3802446 -0.4090934 2.008124
v 0.430876 -0.9776288 2.45452
v 1.016736 -1.427726 3.076958
v -0.481051 -0.5376996 2.245069
v 0.430876 -0.9776288 2.45452
v 0.3469495 -1.070823 2.51324
v -0.4178774 -0.4035737 2.169855
v 0.3423176 -1.194257 2.308597
v -0.5066023 -0.677343 2.158553
v 0.3026687 -1.179138 2.440279
v -0.4689695 -0.6828626 1.996823
v -0.5148408 -0.5837904 2.2573
v -2.030694 -1.174378 2.750734
v -2.003538 -1.153202 2.857601
v -0.5344876 -0.6075959 2.126046
v -0.5814018 -0.4835609 2.31834
v -2.003538 -1.153202 2.857601
v -2.032961 -1.055769 2.905256
v -2.709467 -1.308465 3.199426
v -0.6676169 -0.4071326 2.248128
v -2.032961 -1.055769 2.905256
v -2.089551 -0.9795015 2.846043
v -2.709467 -1.308465 3.199426
v -2.11671 -1.000679 2.739176
v -0.6676169 -0.4071326 2.248128
v -2.089551 -0.9795015 2.846043
v -0.6872637 -0.430938 2.116874
v -0.6765794 -0.3989963 2.169855
v -0.3056251 0.7596362 2.322839
v -0.3143536 0.7181108 2.45452
v -0.6770188 -0.360965 2.008124
v -0.5342204 -0.4404027 2.245069
v -0.3143536 0.7181108 2.45452
v -0.2091689 0.6497981 2.51324
v -0.6765794 -0.3989963 2.169855
v -0.3922966 -0.4437842 2.158553
v -0.2091689 0.6497981 2.51324
v -0.09526319 0.6230151 2.440279
v -0.5342204 -0.4404027 2.245069
v -0.3922966 -0.4437842 2.158553
v -0.08653471 0.6645406 2.308597
v -0.3927359 -0.4057529 1.996823
v -0.09526319 0.6230151 2.440279
v 0.1460938 1.307533 3.142406
v 0.7672648 -0.5090702 3.62391
v 0.4021721 0.9588233 3.901278
v 0.108758 0.5293686 3.645487
v 1.334646 -0.5133042 3.934942
v 0.108758 0.5293686 3.645487
v -1.46277 0.9630519 3.962402
v -1.208258 0.5293684 3.645487
v 0.4021721 0.9588233 3.901278
v -1.208258 0.5293684 3.645487
v -2.395242 -0.5048407 4.05719
v -1.866767 -0.5090706 3.62391
v -1.46277 0.9630519 3.962402
v -1.866767 -0.5090706 3.62391
v -1.462775 -1.976964 4.090854
v -1.20826 -1.547509 3.602334
v -2.395242 -0.5048407 4.05719
v -1.20826 -1.547509 3.602334
v 0.4021744 -1.981197 4.02973
v 0.108756 -1.547509 3.602334
v -1.462775 -1.976964 4.090854
v 0.108756 -1.547509 3.602334
v 1.334646 -0.5133042 3.934942
v 0.7672648 -0.5090702 3.62391
v 0.4021744 -1.981197 4.02973
v 1.334646 -0.5133042 3.934942
v -0.00509845 0.438671 4.207654
v 0.4021721 0.9588233 3.901278
v 0.5579267 -0.450743 4.239138
v 0.4021721 0.9588233 3.901278
v -1.13115 0.4440389 4.259823
v -1.46277 0.9630519 3.962402
v -0.00509845 0.438671 4.207654
v -1.46277 0.9630519 3.962402
v -1.694175 -0.4400158 4.343475
v -2.395242 -0.5048407 4.05719
v -1.13115 0.4440389 4.259823
v -2.395242 -0.5048407 4.05719
v -1.131149 -1.329438 4.374958
v -1.462775 -1.976964 4.090854
v -1.694175 -0.4400158 4.343475
v -1.462775 -1.976964 4.090854
v -0.005098538 -1.334798 4.322789
v 0.4021744 -1.981197 4.02973
v -1.131149 -1.329438 4.374958
v 0.4021744 -1.981197 4.02973
v 0.5579267 -0.450743 4.239138
v 1.334646 -0.5133042 3.934942
v -0.005098538 -1.334798 4.322789
v 0.108756 -1.547509 3.602334
v -1.866767 -0.5090706 3.62391
v -1.20826 -1.547509 3.602334
v 0.7672648 -0.5090702 3.62391
v -1.208258 0.5293684 3.645487
v 0.108758 0.5293686 3.645487
v 0.5579267 -0.450743 4.239138
v 0.2171379 0.7188605 4.530314
v -0.00509845 0.438671 4.207654
v 0.945246 -0.4128689 4.608937
v -0.00509845 0.438671 4.207654
v -1.239075 0.7306263 4.603034
v -1.13115 0.4440389 4.259823
v 0.2171379 0.7188605 4.530314
v -1.13115 0.4440389 4.259823
v -1.967179 -0.3893458 4.754375
v -1.694175 -0.4400158 4.343475
v -1.239075 0.7306263 4.603034
v -1.694175 -0.4400158 4.343475
v -1.239071 -1.521075 4.832996
v -1.131149 -1.329438 4.374958
v -1.967179 -0.3893458 4.754375
v -1.131149 -1.329438 4.374958
v 0.2171379 -1.532835 4.760278
v -0.005098538 -1.334798 4.322789
v -1.239071 -1.521075 4.832996
v -0.005098538 -1.334798 4.322789
v 0.945246 -0.4128689 4.608937
v 0.5579267 -0.450743 4.239138
v 0.2171379 -1.532835 4.760278
v 0.2171379 0.7188605 4.530314
v 0.4765605 -0.3678868 4.887011
v 0.0639635 0.2919452 4.860177
v 0.945246 -0.4128689 4.608937
v -1.239075 0.7306263 4.603034
v 0.0639635 0.2919452 4.860177
v -0.7612299 0.3048531 4.939966
v 0.2171379 0.7188605 4.530314
v -1.967179 -0.3893458 4.754375
v -0.7612299 0.3048531 4.939966
v -1.173826 -0.342071 5.046588
v -1.239075 0.7306263 4.603034
v -1.967179 -0.3893458 4.754375
v -0.7612294 -1.001903 5.073423
v -1.239071 -1.521075 4.832996
v -1.173826 -0.342071 5.046588
v -1.239071 -1.521075 4.832996
v 0.06396402 -1.014811 4.993633
v 0.2171379 -1.532835 4.760278
v -0.7612294 -1.001903 5.073423
v 0.945246 -0.4128689 4.608937
v 0.06396402 -1.014811 4.993633
v 0.4765605 -0.3678868 4.887011
v 0.2171379 -1.532835 4.760278
v -0.4083415 -0.5977215 5.434424
v 0.1830883 -0.2978037 5.32025
v -0.01405804 -0.6065826 5.379634
v -0.6054829 -0.280075 5.42983
v -0.01405309 0.01984285 5.315657
v -0.4083439 0.02870828 5.370447
v 0.2097293 0.4376459 5.05858
v 0.1830883 -0.2978037 5.32025
v -0.01405309 0.01984285 5.315657
v 0.6911604 -0.3373109 5.076013
v -0.7531295 0.4572846 5.179999
v -0.01405309 0.01984285 5.315657
v -0.4083439 0.02870828 5.370447
v 0.2097293 0.4376459 5.05858
v -1.234558 -0.298025 5.318851
v -0.4083439 0.02870828 5.370447
v -0.6054829 -0.280075 5.42983
v -0.7531295 0.4572846 5.179999
v -0.4083415 -0.5977215 5.434424
v -1.234558 -0.298025 5.318851
v -0.6054829 -0.280075 5.42983
v -0.75313 -1.072984 5.336284
v -0.01405804 -0.6065826 5.379634
v -0.75313 -1.072984 5.336284
v -0.4083415 -0.5977215 5.434424
v 0.2097329 -1.092629 5.214864
v 0.1830883 -0.2978037 5.32025
v 0.2097329 -1.092629 5.214864
v -0.01405804 -0.6065826 5.379634
v 0.6911604 -0.3373109 5.076013
v 0.0639635 0.2919452 4.860177
v 0.6911604 -0.3373109 5.076013
v 0.2097293 0.4376459 5.05858
v 0.4765605 -0.3678868 4.887011
v -0.7612299 0.3048531 4.939966
v 0.2097293 0.4376459 5.05858
v -0.7531295 0.4572846 5.179999
v 0.0639635 0.2919452 4.860177
v -1.173826 -0.342071 5.046588
v -0.7531295 0.4572846 5.179999
v -1.234558 -0.298025 5.318851
v -0.7612299 0.3048531 4.939966
v -0.75313 -1.072984 5.336284
v -1.173826 -0.342071 5.046588
v -1.234558 -0.298025 5.318851
v -0.7612294 -1.001903 5.073423
v 0.2097329 -1.092629 5.214864
v -0.7612294 -1.001903 5.073423
v -0.75313 -1.072984 5.336284
v 0.06396402 -1.014811 4.993633
v 0.6911604 -0.3373109 5.076013
v 0.06396402 -1.014811 4.993633
v 0.2097329 -1.092629 5.214864
v 0.4765605 -0.3678868 4.887011
v 1.59386 -0.8389003 2.680583
v 0.690754 -0.2526542 2.836622
v 0.7649856 -0.6080514 2.692721
v 1.865284 -0.5803831 2.85556
v 0.7649856 -0.6080514 2.692721
v -0.196602 -1.107336 2.871008
v 0.1398251 -1.213161 2.692721
v 0.690754 -0.2526542 2.836622
v 0.1398251 -1.213161 2.692721
v 0.0905766 -2.289754 2.924333
v 0.3435387 -2.04912 2.680583
v -0.196602 -1.107336 2.871008
v 0.3435387 -2.04912 2.680583
v 1.265111 -2.617489 2.943271
v 1.172409 -2.279962 2.668445
v 0.0905766 -2.289754 2.924333
v 1.172409 -2.279962 2.668445
v 2.152463 -1.7628 2.908885
v 1.797569 -1.674853 2.668445
v 1.265111 -2.617489 2.943271
v 1.797569 -1.674853 2.668445
v 1.865284 -0.5803831 2.85556
v 1.59386 -0.8389003 2.680583
v 2.152463 -1.7628 2.908885
v 1.865284 -0.5803831 2.85556
v 0.7560361 -0.7069546 3.008979
v 0.690754 -0.2526542 2.836622
v 1.465492 -0.9051195 3.026691
v 0.690754 -0.2526542 2.836622
v 0.2188561 -1.221567 3.038328
v -0.196602 -1.107336 2.871008
v 0.7560361 -0.7069546 3.008979
v -0.196602 -1.107336 2.871008
v 0.3911292 -1.934346 3.085388
v 0.0905766 -2.289754 2.924333
v 0.2188561 -1.221567 3.038328
v 0.0905766 -2.289754 2.924333
v 1.10059 -2.132517 3.1031
v 1.265111 -2.617489 2.943271
v 0.3911292 -1.934346 3.085388
v 1.265111 -2.617489 2.943271
v 1.63777 -1.617905 3.073751
v 2.152463 -1.7628 2.908885
v 1.10059 -2.132517 3.1031
v 2.152463 -1.7628 2.908885
v 1.465492 -0.9051195 3.026691
v 1.865284 -0.5803831 2.85556
v 1.63777 -1.617905 3.073751
v 1.797569 -1.674853 2.668445
v 0.3435387 -2.04912 2.680583
v 1.172409 -2.279962 2.668445
v 1.59386 -0.8389003 2.680583
v 0.1398251 -1.213161 2.692721
v 0.7649856 -0.6080514 2.692721
v 1.465492 -0.9051195 3.026691
v 0.7222221 -0.4609212 3.190499
v 0.7560361 -0.7069546 3.008979
v 1.630514 -0.7077142 3.234729
v 0.7560361 -0.7069546 3.008979
v 0.02514176 -1.123944 3.231408
v 0.2188561 -1.221567 3.038328
v 0.7222221 -0.4609212 3.190499
v 0.2188561 -1.221567 3.038328
v 0.2363488 -2.033753 3.316547
v 0.3911292 -1.934346 3.085388
v 0.02514176 -1.123944 3.231408
v 0.3911292 -1.934346 3.085388
v 1.144636 -2.28054 3.360778
v 1.10059 -2.132517 3.1031
v 0.2363488 -2.033753 3.316547
v 1.10059 -2.132517 3.1031
v 1.84172 -1.617515 3.319869
v 1.63777 -1.617905 3.073751
v 1.144636 -2.28054 3.360778
v 1.63777 -1.617905 3.073751
v 1.630514 -0.7077142 3.234729
v 1.465492 -0.9051195 3.026691
v 1.84172 -1.617515 3.319869
v 0.7222221 -0.4609212 3.190499
v 1.385672 -0.8999411 3.391165
v 0.8617671 -0.7505853 3.376069
v 1.630514 -0.7077142 3.234729
v 0.02514176 -1.123944 3.231408
v 0.8617671 -0.7505853 3.376069
v 0.4636505 -1.123098 3.420955
v 0.7222221 -0.4609212 3.190499
v 0.2363488 -2.033753 3.316547
v 1.113339 -1.794317 3.496034
v 1.144636 -2.28054 3.360778
v 0.5894346 -1.644961 3.480938
v 1.144636 -2.28054 3.360778
v 1.51146 -1.42181 3.451147
v 1.84172 -1.617515 3.319869
v 1.113339 -1.794317 3.496034
v 1.630514 -0.7077142 3.234729
v 1.51146 -1.42181 3.451147
v 1.385672 -0.8999411 3.391165
v 1.84172 -1.617515 3.319869
v 1.385672 -0.8999411 3.391165
v 0.4636505 -1.123098 3.420955
v 0.8617671 -0.7505853 3.376069
v 0.5894346 -1.644961 3.480938
v 1.51146 -1.42181 3.451147
v 1.113339 -1.794317 3.496034
v -1.851506 -1.80924 2.975711
v -1.42237 -0.8414562 3.086738
v -1.755926 -0.9686563 2.984348
v -1.558412 -2.032685 3.100213
v -1.755926 -0.9686563 2.984348
v -2.389833 -0.1124515 3.111205
v -2.440405 -0.4555206 2.984348
v -1.42237 -0.8414562 3.086738
v -2.440405 -0.4555206 2.984348
v -3.493346 -0.5746714 3.149147
v -3.220468 -0.7829625 2.975711
v -2.389833 -0.1124515 3.111205
v -3.220468 -0.7829625 2.975711
v -3.629385 -1.765898 3.162622
v -3.316048 -1.623538 2.967074
v -3.493346 -0.5746714 3.149147
v -3.316048 -1.623538 2.967074
v -2.661922 -2.494903 3.138155
v -2.631569 -2.136682 2.967074
v -3.629385 -1.765898 3.162622
v -2.631569 -2.136682 2.967074
v -1.558412 -2.032685 3.100213
v -1.851506 -1.80924 2.975711
v -2.661922 -2.494903 3.138155
v -1.558412 -2.032685 3.100213
v -1.853336 -0.975305 3.209376
v -1.42237 -0.8414562 3.086738
v -1.935714 -1.694873 3.221978
v -1.42237 -0.8414562 3.086738
v -2.436307 -0.5335501 3.230258
v -2.389833 -0.1124515 3.111205
v -1.853336 -0.975305 3.209376
v -2.389833 -0.1124515 3.111205
v -3.101651 -0.8113697 3.263743
v -3.493346 -0.5746714 3.149147
v -2.436307 -0.5335501 3.230258
v -3.493346 -0.5746714 3.149147
v -3.184029 -1.530938 3.276345
v -3.629385 -1.765898 3.162622
v -3.101651 -0.8113697 3.263743
v -3.629385 -1.765898 3.162622
v -2.601058 -1.972693 3.255463
v -2.661922 -2.494903 3.138155
v -3.184029 -1.530938 3.276345
v -2.661922 -2.494903 3.138155
v -1.935714 -1.694873 3.221978
v -1.558412 -2.032685 3.100213
v -2.601058 -1.972693 3.255463
v -2.631569 -2.136682 2.967074
v -3.220468 -0.7829625 2.975711
v -3.316048 -1.623538 2.967074
v -1.851506 -1.80924 2.975711
v -2.440405 -0.4555206 2.984348
v -1.755926 -0.9686563 2.984348
v -1.935714 -1.694873 3.221978
v -1.619704 -0.9043205 3.338532
v -1.853336 -0.975305 3.209376
v -1.718445 -1.824483 3.370004
v -1.853336 -0.975305 3.209376
v -2.37157 -0.3303272 3.36764
v -2.436307 -0.5335501 3.230258
v -1.619704 -0.9043205 3.338532
v -2.436307 -0.5335501 3.230258
v -3.222172 -0.6765027 3.42822
v -3.101651 -0.8113697 3.263743
v -2.37157 -0.3303272 3.36764
v -3.101651 -0.8113697 3.263743
v -3.320915 -1.596667 3.459691
v -3.184029 -1.530938 3.276345
v -3.222172 -0.6765027 3.42822
v -3.184029 -1.530938 3.276345
v -2.569054 -2.170654 3.430583
v -2.601058 -1.972693 3.255463
v -3.320915 -1.596667 3.459691
v -2.601058 -1.972693 3.255463
v -1.718445 -1.824483 3.370004
v -1.935714 -1.694873 3.221978
v -2.569054 -2.170654 3.430583
v -1.619704 -0.9043205 3.338532
v -1.943067 -1.616569 3.481313
v -1.879306 -1.084732 3.470572
v -1.718445 -1.824483 3.370004
v -2.37157 -0.3303272 3.36764
v -1.879306 -1.084732 3.470572
v -2.302736 -0.7559583 3.50251
v -1.619704 -0.9043205 3.338532
v -3.222172 -0.6765027 3.42822
v -2.302736 -0.7559583 3.50251
v -2.789922 -0.9590285 3.545189
v -2.37157 -0.3303272 3.36764
v -3.222172 -0.6765027 3.42822
v -2.853682 -1.490866 3.555931
v -3.320915 -1.596667 3.459691
v -2.789922 -0.9590285 3.545189
v -3.320915 -1.596667 3.459691
v -2.430253 -1.81964 3.523992
v -2.569054 -2.170654 3.430583
v -2.853682 -1.490866 3.555931
v -1.718445 -1.824483 3.370004
v -2.430253 -1.81964 3.523992
v -1.943067 -1.616569 3.481313
v -2.569054 -2.170654 3.430583
v -1.943067 -1.616569 3.481313
v -2.302736 -0.7559583 3.50251
v -1.879306 -1.084732 3.470572
v -2.789922 -0.9590285 3.545189
v -2.430253 -1.81964 3.523992
v -2.853682 -1.490866 3.555931
v 0.6152752 0.8528306 2.936418
v 0.9478756 1.602906 3.071658
v 0.6893535 1.504322 2.946939
v 0.8424343 0.6796543 3.088072
v 0.6893535 1.504322 2.946939
v 0.1980469 2.167917 3.101461
v 0.158849 1.90203 2.946939
v 0.9478756 1.602906 3.071658
v 0.158849 1.90203 2.946939
v -0.6572199 1.809677 3.147678
v -0.4457336 1.648247 2.936418
v 0.1980469 2.167917 3.101461
v -0.4457336 1.648247 2.936418
v -0.7626612 0.8864244 3.164092
v -0.5198087 0.9967574 2.925898
v -0.6572199 1.809677 3.147678
v -0.5198087 0.9967574 2.925898
v -0.01283246 0.3214144 3.134289
v 0.01068842 0.5990537 2.925898
v -0.7626612 0.8864244 3.164092
v 0.01068842 0.5990537 2.925898
v 0.8424343 0.6796543 3.088072
v 0.6152752 0.8528306 2.936418
v -0.01283246 0.3214144 3.134289
v 0.8424343 0.6796543 3.088072
v 0.6138542 1.499169 3.221041
v 0.9478756 1.602906 3.071658
v 0.5500085 0.9414733 3.236392
v 0.9478756 1.602906 3.071658
v 0.1620252 1.841552 3.246478
v 0.1980469 2.167917 3.101461
v 0.6138542 1.499169 3.221041
v 0.1980469 2.167917 3.101461
v -0.3536445 1.626225 3.287265
v -0.6572199 1.809677 3.147678
v 0.1620252 1.841552 3.246478
v -0.6572199 1.809677 3.147678
v -0.4174903 1.068529 3.302616
v -0.7626612 0.8864244 3.164092
v -0.3536445 1.626225 3.287265
v -0.7626612 0.8864244 3.164092
v 0.03433459 0.7261526 3.277179
v -0.01283246 0.3214144 3.134289
v -0.4174903 1.068529 3.302616
v -0.01283246 0.3214144 3.134289
v 0.5500085 0.9414733 3.236392
v 0.8424343 0.6796543 3.088072
v 0.03433459 0.7261526 3.277179
v 0.01068842 0.5990537 2.925898
v -0.4457336 1.648247 2.936418
v -0.5198087 0.9967574 2.925898
v 0.6152752 0.8528306 2.936418
v 0.158849 1.90203 2.946939
v 0.6893535 1.504322 2.946939
v 0.03433459 0.7261526 3.277179
v 0.6138542 1.499169 3.221041
v 0.5500085 0.9414733 3.236392
v 0.1620252 1.841552 3.246478
v -0.4174903 1.068529 3.302616
v -0.3536445 1.626225 3.287265

vn -0.2578125 -0.949707 0.1784668
vn -0.2578125 -0.949707 0.1784668
vn -0.2578125 -0.949707 0.1784668
vn -0.2205811 -0.9492188 0.2250977
vn -0.2205811 -0.9492188 0.2250977
vn -0.2205811 -0.9492188 0.2250977
vn -0.01557159 0.8022461 -0.5966797
vn -0.01557159 0.8022461 -0.5966797
vn -0.01557159 0.8022461 -0.5966797
vn -0.04995728 0.7739258 -0.6313477
vn -0.04995728 0.7739258 -0.6313477
vn -0.04995728 0.7739258 -0.6313477
vn -0.6552734 -0.6748047 0.3395996
vn -0.6552734 -0.6748047 0.3395996
vn -0.6552734 -0.6748047 0.3395996
vn 0.6879883 0.7075195 0.1617432
vn 0.6879883 0.7075195 0.1617432
vn 0.6879883 0.7075195 0.1617432
vn 0.2198486 0.6992188 -0.6801758
vn 0.2198486 0.6992188 -0.6801758
vn 0.2198486 0.6992188 -0.6801758
vn -0.6044922 0.007423401 -0.7963867
vn -0.6044922 0.007423401 -0.7963867
vn -0.6044922 0.007423401 -0.7963867
vn -0.4382324 0.8666992 0.2382813
vn -0.4382324 0.8666992 0.2382813
vn -0.4382324 0.8666992 0.2382813
vn 0.5649414 0.7241211 0.395752
vn 0.5649414 0.7241211 0.395752
vn 0.5649414 0.7241211 0.395752
vn -0.009033203 -0.9238281 -0.3830566
vn -0.009033203 -0.9238281 -0.3830566
vn -0.009033203 -0.9238281 -0.3830566
vn -0.08795166 -0.9179688 -0.3867188
vn -0.08795166 -0.9179688 -0.3867188
vn -0.08795166 -0.9179688 -0.3867188
vn -0.9462891 0.1210327 -0.2993164
vn -0.9462891 0.1210327 -0.2993164
vn -0.9462891 0.1210327 -0.2993164
vn 0.996582 -0.0480957 0.06817627
vn 0.996582 -0.0480957 0.06817627
vn 0.996582 -0.0480957 0.06817627
vn 0.0194397 -0.8227539 -0.5678711
vn 0.0194397 -0.8227539 -0.5678711
vn 0.0194397 -0.8227539 -0.5678711
vn 0.1931152 -0.9628906 0.1895752
vn 0.1931152 -0.9628906 0.1895752
vn 0.1931152 -0.9628906 0.1895752
vn 0.2227783 -0.9628906 0.151001
vn 0.2227783 -0.9628906 0.151001
vn 0.2227783 -0.9628906 0.151001
vn 0.4553223 -0.6342773 0.625
vn 0.4553223 -0.6342773 0.625
vn 0.4553223 -0.6342773 0.625
vn 0.9033203 0.1107788 -0.4143066
vn 0.9033203 0.1107788 -0.4143066
vn 0.9033203 0.1107788 -0.4143066
vn 0.0519104 0.7075195 -0.7045898
vn 0.0519104 0.7075195 -0.7045898
vn 0.0519104 0.7075195 -0.7045898
vn -0.7431641 0.6362305 -0.2070313
vn -0.7431641 0.6362305 -0.2070313
vn -0.7431641 0.6362305 -0.2070313
vn 0.2232666 0.9121094 -0.3442383
vn 0.2186279 0.9145508 -0.3405762
vn 0.2340088 0.9057617 -0.3532715
vn 0.2186279 0.9145508 -0.3405762
vn 0.2232666 0.9121094 -0.3442383
vn 0.2124023 0.9179688 -0.3352051
vn -0.05004883 0.4733887 0.8793945
vn -0.05004883 0.4733887 0.8793945
vn -0.05004883 0.4733887 0.8793945
vn -0.08447266 0.4760742 0.8754883
vn 0.777832 0.3642578 0.5117188
vn 0.777832 0.3642578 0.5117188
vn 0.777832 0.3642578 0.5117188
vn 0.7788086 0.3640137 0.5107422
vn 0.8842773 -0.09185791 -0.4580078
vn 0.8842773 -0.09185791 -0.4580078
vn 0.8842773 -0.09185791 -0.4580078
vn 0.8896484 -0.08898926 -0.4482422
vn 0.07769775 -0.3959961 -0.9150391
vn 0.07769775 -0.3959961 -0.9150391
vn 0.07769775 -0.3959961 -0.9150391
vn 0.05221558 -0.3937988 -0.9174805
vn -0.8032227 -0.2780762 -0.5268555
vn -0.8032227 -0.2780762 -0.5268555
vn -0.8032227 -0.2780762 -0.5268555
vn -0.8056641 -0.2775879 -0.5234375
vn -0.875 0.2000732 0.440918
vn -0.875 0.2000732 0.440918
vn -0.875 0.2000732 0.440918
vn -0.8720703 0.201416 0.4458008
vn -0.04574585 0.07171631 0.996582
vn -0.04574585 0.07171631 0.996582
vn -0.04574585 0.07171631 0.996582
vn -0.04714966 0.07189941 0.9960938
vn 0.8334961 0.05319214 0.5498047
vn 0.8334961 0.05319214 0.5498047
vn 0.8334961 0.05319214 0.5498047
vn 0.8442383 0.05505371 0.5332031
vn 0.8901367 0.002576828 -0.4558105
vn 0.8901367 0.002576828 -0.4558105
vn 0.8857422 0.003372192 -0.4641113
vn 0.8901367 0.002576828 -0.4558105
vn 0.8911133 0.03469849 -0.4528809
vn 0.8911133 0.03469849 -0.4528809
vn 0.04748535 -0.02787781 -0.9985352
vn 0.04748535 -0.02787781 -0.9985352
vn 0.04748535 -0.02787781 -0.9985352
vn 0.04260254 -0.02728271 -0.9985352
vn -0.8374023 -0.009941101 -0.546875
vn -0.8374023 -0.009941101 -0.546875
vn -0.8374023 -0.009941101 -0.546875
vn -0.8466797 -0.01150513 -0.5322266
vn -0.8867188 0.03781128 0.4606934
vn -0.8867188 0.03781128 0.4606934
vn -0.8862305 0.03768921 0.4621582
vn -0.8867188 0.03781128 0.4606934
vn -0.8896484 0.005664825 0.4562988
vn -0.8896484 0.005664825 0.4562988
vn -0.03408813 -0.3024902 0.9526367
vn -0.03408813 -0.3024902 0.9526367
vn -0.03408813 -0.3024902 0.9526367
vn -0.05755615 -0.2966309 0.953125
vn 0.8208008 -0.2800293 0.498291
vn 0.8286133 -0.2758789 0.4868164
vn 0.8295898 -0.2753906 0.4858398
vn 0.8198242 -0.2802734 0.4990234
vn 0.03042603 0.3361816 -0.9414063
vn 0.03042603 0.3361816 -0.9414063
vn 0.03042603 0.3361816 -0.9414063
vn 0.05838013 0.3347168 -0.9404297
vn -0.8222656 0.314209 -0.4746094
vn -0.8125 0.3190918 -0.487793
vn -0.8227539 0.3137207 -0.4736328
vn -0.8120117 0.3193359 -0.4887695
vn 0.4018555 0.06750488 0.9130859
vn 0.4018555 0.06750488 0.9130859
vn 0.4047852 0.09674072 0.9091797
vn 0.4018555 0.06750488 0.9130859
vn 0.385498 0.07299805 0.9199219
vn 0.3964844 0.862793 0.3134766
vn 0.3964844 0.862793 0.3134766
vn 0.3964844 0.862793 0.3134766
vn 0.3840332 0.8774414 0.2868652
vn -0.4360352 -0.05575562 -0.8984375
vn -0.4360352 -0.05575562 -0.8984375
vn -0.4360352 -0.05575562 -0.8984375
vn -0.4394531 -0.08862305 -0.894043
vn -0.9799805 0.08410645 -0.1816406
vn -0.9799805 0.08410645 -0.1816406
vn -0.9799805 0.08410645 -0.1816406
vn -0.9790039 0.1072388 -0.1743164
vn -0.4804688 0.8476563 0.225708
vn -0.4804688 0.8476563 0.225708
vn -0.4804688 0.8476563 0.225708
vn -0.4824219 0.8417969 0.2421875
vn 0.5009766 0.7646484 0.4047852
vn 0.5009766 0.7646484 0.4047852
vn 0.5009766 0.7646484 0.4047852
vn 0.496582 0.7553711 0.4279785
vn 0.9829102 -0.07904053 0.1655273
vn 0.9829102 -0.07904053 0.1655273
vn 0.9829102 -0.07904053 0.1655273
vn 0.9819336 -0.1036987 0.1574707
vn 0.7744141 0.03173828 -0.6318359
vn 0.7744141 0.03173828 -0.6318359
vn 0.7744141 0.03173828 -0.6318359
vn 0.7695313 0.07208252 -0.6347656
vn 0.2344971 0.8554688 -0.4616699
vn 0.2344971 0.8554688 -0.4616699
vn 0.2344971 0.8554688 -0.4616699
vn 0.2081299 0.8740234 -0.4389648
vn -0.5322266 0.8256836 0.1867676
vn -0.5322266 0.8256836 0.1867676
vn -0.5322266 0.8256836 0.1867676
vn -0.5512695 0.8056641 0.2163086
vn -0.7490234 -0.01916504 0.6621094
vn -0.7490234 -0.01916504 0.6621094
vn -0.7441406 -0.06317139 0.6650391
vn -0.7490234 -0.01916504 0.6621094
vn -0.7753906 -0.03231812 0.6303711
vn -0.01901245 -0.8500977 0.5263672
vn -0.001894951 -0.8720703 0.489502
vn 0.008369446 -0.8842773 0.4667969
vn -0.02479553 -0.8422852 0.5385742
vn 0.4599609 -0.8442383 0.2746582
vn 0.482666 -0.8198242 0.3076172
vn 0.4934082 -0.8076172 0.3234863
vn 0.4536133 -0.8505859 0.265625
vn 0.546875 -0.7880859 -0.282959
vn 0.6054688 -0.7451172 -0.2797852
vn 0.6416016 -0.715332 -0.2768555
vn 0.5219727 -0.8046875 -0.2839355
vn 0.002859116 -0.7026367 -0.7114258
vn 0.01467133 -0.684082 -0.7294922
vn 0.02311707 -0.6704102 -0.7416992
vn -0.002628326 -0.7114258 -0.7026367
vn -0.605957 -0.6757813 -0.420166
vn -0.5947266 -0.6972656 -0.3996582
vn -0.5869141 -0.7124023 -0.3850098
vn -0.6098633 -0.6669922 -0.4279785
vn -0.5893555 -0.7734375 0.2329102
vn -0.5302734 -0.8149414 0.234375
vn -0.4821777 -0.8442383 0.2346191
vn -0.6132813 -0.7553711 0.2319336
vn 0.01546478 0.8945313 0.4472656
vn 0.01248932 0.8974609 0.440918
vn 0.01047516 0.8994141 0.4367676
vn 0.01930237 0.8901367 0.4550781
vn 0.3918457 0.8691406 0.302002
vn 0.4055176 0.8618164 0.3039551
vn 0.4111328 0.8588867 0.3046875
vn 0.3793945 0.875 0.3000488
vn 0.4443359 0.8862305 -0.1322021
vn 0.4560547 0.8774414 -0.1484375
vn 0.4619141 0.8730469 -0.1564941
vn 0.4331055 0.8935547 -0.1168213
vn 0.02986145 0.9111328 -0.4104004
vn 0.02635193 0.9086914 -0.4169922
vn 0.02416992 0.9067383 -0.4211426
vn 0.03384399 0.9145508 -0.4030762
vn -0.362793 0.9111328 -0.1950684
vn -0.3535156 0.9150391 -0.1940918
vn -0.3483887 0.9169922 -0.1936035
vn -0.3720703 0.9072266 -0.1960449
vn -0.3410645 0.9130859 0.2229004
vn -0.3327637 0.9189453 0.2115479
vn -0.326416 0.9233398 0.2027588
vn -0.3518066 0.9052734 0.2376709
vn 0.0173645 -1 0.01139069
vn 0.0173645 -1 0.01139069
vn 0.0173645 -1 0.01139069
vn 0.0173645 -1 0.01139069
vn 0.0173645 -1 0.01139069
vn 0.0173645 -1 0.01139069
vn -0.04397583 -0.6982422 0.7143555
vn -0.03689575 -0.7114258 0.7016602
vn -0.03268433 -0.7192383 0.6943359
vn -0.04678345 -0.6933594 0.7192383
vn 0.652832 -0.6455078 0.3964844
vn 0.652832 -0.6455078 0.3964844
vn 0.652832 -0.6455078 0.3964844
vn 0.652832 -0.6450195 0.3969727
vn 0.734375 -0.5556641 -0.3891602
vn 0.7446289 -0.5444336 -0.3864746
vn 0.7495117 -0.5380859 -0.3847656
vn 0.7304688 -0.5600586 -0.3903809
vn -0.01313019 -0.423584 -0.9057617
vn -0.002765656 -0.4033203 -0.9150391
vn 0.003091812 -0.3916016 -0.9199219
vn -0.01734924 -0.4318848 -0.9018555
vn -0.7539063 -0.3933105 -0.5258789
vn -0.753418 -0.3991699 -0.5229492
vn -0.7524414 -0.4025879 -0.5209961
vn -0.7543945 -0.3911133 -0.5268555
vn -0.7714844 -0.5737305 0.2744141
vn -0.7509766 -0.5996094 0.276123
vn -0.7358398 -0.6181641 0.2773438
vn -0.7807617 -0.5615234 0.2736816
vn 0.02301025 0.7592773 0.6503906
vn 0.03439331 0.7734375 0.6328125
vn 0.01117706 0.7436523 0.668457
vn 0.04016113 0.7807617 0.6235352
vn 0.5004883 0.7641602 0.40625
vn 0.4870605 0.7851563 0.3828125
vn 0.5180664 0.7348633 0.4375
vn 0.4777832 0.7983398 0.3666992
vn 0.4726563 0.8764648 -0.08959961
vn 0.4672852 0.8793945 -0.09033203
vn 0.4887695 0.8681641 -0.08752441
vn 0.4575195 0.8842773 -0.09155273
vn 0.04916382 0.9331055 -0.3566895
vn 0.05218506 0.9345703 -0.3522949
vn 0.05776978 0.9370117 -0.34375
vn 0.04000854 0.9282227 -0.3703613
vn -0.4033203 0.8950195 -0.19104
vn -0.3774414 0.9072266 -0.1868896
vn -0.357666 0.9155273 -0.1837158
vn -0.440918 0.8754883 -0.1967773
vn -0.4350586 0.8442383 0.3125
vn -0.4558105 0.8344727 0.3093262
vn -0.4128418 0.8544922 0.3156738
vn -0.4667969 0.8291016 0.3076172
vn 0.007820129 0.9853516 0.1715088
vn 0.007820129 0.9853516 0.1715088
vn 0.007820129 0.9853516 0.1715088
vn 0.007820129 0.9853516 0.1715088
vn 0.007820129 0.9853516 0.1715088
vn 0.007820129 0.9853516 0.1715088
vn 0.001042366 0.8525391 0.5224609
vn 0.001588821 0.8530273 0.5219727
vn -0.002710342 0.8500977 0.5263672
vn 0.003549576 0.8540039 0.5200195
vn 0.3327637 0.8686523 0.3666992
vn 0.3317871 0.8701172 0.3647461
vn 0.3369141 0.862793 0.3774414
vn 0.329834 0.8730469 0.359375
vn 0.333252 0.9428711 0.01298523
vn 0.3330078 0.9428711 0.01295471
vn 0.3398438 0.9404297 0.01448059
vn 0.3295898 0.9438477 0.01215363
vn 0.02108765 0.9819336 -0.1873779
vn 0.02101135 0.9819336 -0.1875
vn 0.01687622 0.980957 -0.192749
vn 0.02331543 0.9824219 -0.1844482
vn -0.2954102 0.9541016 -0.05249023
vn -0.2973633 0.953125 -0.05249023
vn -0.3088379 0.949707 -0.05252075
vn -0.2897949 0.9555664 -0.05249023
vn -0.3217773 0.8979492 0.2995605
vn -0.3220215 0.8979492 0.3000488
vn -0.3244629 0.8955078 0.3049316
vn -0.3205566 0.8994141 0.2971191
vn -0.0324707 -0.7128906 0.7001953
vn -0.03762817 -0.7241211 0.6884766
vn -0.03085327 -0.7094727 0.7041016
vn -0.03991699 -0.7290039 0.6835938
vn 0.7294922 -0.5400391 0.4199219
vn 0.715332 -0.5615234 0.4160156
vn 0.7333984 -0.5341797 0.4208984
vn 0.7089844 -0.5708008 0.4140625
vn 0.8613281 -0.2668457 -0.4321289
vn 0.8598633 -0.2751465 -0.4299316
vn 0.8618164 -0.2644043 -0.4328613
vn 0.859375 -0.2788086 -0.4289551
vn 0.01863098 -0.1140137 -0.9931641
vn 0.02160645 -0.1054688 -0.9941406
vn 0.02246094 -0.1030884 -0.9946289
vn 0.01742554 -0.1174316 -0.9931641
vn -0.7729492 -0.2939453 -0.5625
vn -0.7768555 -0.2663574 -0.5708008
vn -0.777832 -0.2592773 -0.5727539
vn -0.7709961 -0.3054199 -0.5585938
vn -0.7539063 -0.6103516 0.2434082
vn -0.7646484 -0.5957031 0.244751
vn -0.7680664 -0.5913086 0.2452393
vn -0.7485352 -0.6166992 0.2426758
vn 0.2958984 -0.8876953 0.3527832
vn 0.2822266 -0.90625 0.3151855
vn 0.2744141 -0.9155273 0.2939453
vn 0.2998047 -0.8818359 0.3637695
vn 0.4350586 -0.8945313 -0.1036377
vn 0.4714355 -0.8764648 -0.09692383
vn 0.4897461 -0.8666992 -0.09350586
vn 0.4245605 -0.8994141 -0.1055298
vn 0.1552734 -0.8383789 -0.5224609
vn 0.1984863 -0.7993164 -0.5673828
vn 0.2215576 -0.7758789 -0.5908203
vn 0.1409912 -0.8505859 -0.5068359
vn -0.4294434 -0.765625 -0.479248
vn -0.4353027 -0.746582 -0.5029297
vn -0.4389648 -0.734375 -0.5175781
vn -0.427002 -0.7724609 -0.470459
vn -0.6435547 -0.7583008 0.1040039
vn -0.6186523 -0.777832 0.1105957
vn -0.6020508 -0.7900391 0.1149292
vn -0.6523438 -0.7509766 0.1015625
vn -0.2150879 -0.8251953 0.5224609
vn -0.1729736 -0.8618164 0.4768066
vn -0.1451416 -0.8833008 0.4455566
vn -0.229248 -0.8115234 0.5375977
vn 0.2666016 0.9233398 0.2763672
vn 0.260498 0.9257813 0.2736816
vn 0.2570801 0.9272461 0.2722168
vn 0.2734375 0.9204102 0.279541
vn 0.4067383 0.9125977 -0.04348755
vn 0.416748 0.9077148 -0.05056763
vn 0.4211426 0.9052734 -0.0536499
vn 0.3974609 0.9169922 -0.0369873
vn 0.1809082 0.9179688 -0.3525391
vn 0.1787109 0.9111328 -0.3718262
vn 0.1777344 0.9077148 -0.3803711
vn 0.1828613 0.9243164 -0.3354492
vn -0.2174072 0.9355469 -0.2783203
vn -0.223999 0.9331055 -0.2807617
vn -0.227417 0.9321289 -0.2822266
vn -0.2110596 0.9379883 -0.2758789
vn -0.3217773 0.9423828 0.09338379
vn -0.315918 0.9448242 0.08862305
vn -0.3122559 0.9462891 0.08569336
vn -0.3283691 0.9394531 0.09863281
vn -0.06799316 0.9360352 0.3449707
vn -0.06976318 0.940918 0.331543
vn -0.07098389 0.9438477 0.3225098
vn -0.0657959 0.9301758 0.3613281
vn 0.01605225 -1 -0.003067017
vn 0.01605225 -1 -0.003067017
vn 0.01605225 -1 -0.003067017
vn 0.01605225 -1 -0.003067017
vn 0.01605225 -1 -0.003067017
vn 0.01605225 -1 -0.003067017
vn 0.4064941 -0.7587891 0.5087891
vn 0.4016113 -0.7714844 0.4934082
vn 0.3989258 -0.777832 0.4851074
vn 0.407959 -0.7543945 0.5141602
vn 0.6645508 -0.7314453 -0.1524658
vn 0.6640625 -0.7319336 -0.1525879
vn 0.6640625 -0.7319336 -0.1525879
vn 0.6645508 -0.7314453 -0.1524658
vn 0.2167969 -0.625 -0.75
vn 0.2265625 -0.6123047 -0.7573242
vn 0.2304688 -0.6069336 -0.7607422
vn 0.2139893 -0.628418 -0.7480469
vn -0.5922852 -0.4916992 -0.6381836
vn -0.59375 -0.4663086 -0.6557617
vn -0.59375 -0.4550781 -0.6635742
vn -0.5917969 -0.4990234 -0.6328125
vn -0.8676758 -0.4772949 0.1380615
vn -0.8637695 -0.484375 0.1395264
vn -0.8618164 -0.487793 0.1403809
vn -0.8691406 -0.4753418 0.1375732
vn -0.3139648 -0.644043 0.6977539
vn -0.2961426 -0.671875 0.6787109
vn -0.2854004 -0.6879883 0.6674805
vn -0.3203125 -0.6337891 0.7041016
vn 0.4030762 0.8139648 0.4179688
vn 0.3974609 0.8276367 0.3959961
vn 0.4082031 0.8007813 0.4384766
vn 0.3950195 0.8334961 0.3867188
vn 0.5517578 0.8330078 -0.04382324
vn 0.5253906 0.8491211 -0.0506897
vn 0.5869141 0.809082 -0.03424072
vn 0.5078125 0.8598633 -0.0552063
vn -0.175293 0.9511719 -0.2543945
vn -0.1700439 0.9526367 -0.2529297
vn -0.1623535 0.9541016 -0.2507324
vn -0.1879883 0.9477539 -0.2578125
vn -0.3447266 0.9306641 0.1210327
vn -0.3269043 0.9389648 0.1082153
vn -0.3120117 0.9448242 0.09759521
vn -0.3728027 0.9169922 0.1413574
vn -0.07092285 0.8823242 0.4655762
vn -0.08666992 0.8735352 0.4787598
vn -0.05685425 0.8896484 0.4533691
vn -0.09375 0.8696289 0.4846191
vn 0.09399414 0.9931641 0.06671143
vn 0.09399414 0.9931641 0.06671143
vn 0.09399414 0.9931641 0.06671143
vn 0.09399414 0.9931641 0.06671143
vn 0.09399414 0.9931641 0.06671143
vn 0.09399414 0.9931641 0.06671143
vn -0.2307129 -0.9360352 0.265625
vn -0.201416 -0.9477539 0.248291
vn -0.1860352 -0.953125 0.2390137
vn -0.2387695 -0.9326172 0.2705078
vn 0.1300049 -0.9404297 0.3139648
vn 0.1304932 -0.9291992 0.3459473
vn 0.1307373 -0.9233398 0.3613281
vn 0.1298828 -0.9433594 0.3054199
vn 0.4206543 -0.9057617 0.0546875
vn 0.472168 -0.8774414 0.08563232
vn 0.4970703 -0.8618164 0.1009521
vn 0.4060059 -0.9125977 0.04602051
vn 0.3266602 -0.8549805 -0.4030762
vn 0.3496094 -0.8398438 -0.4152832
vn 0.3618164 -0.831543 -0.421875
vn 0.3198242 -0.859375 -0.3991699
vn -0.1654053 -0.8486328 -0.5029297
vn -0.1661377 -0.8637695 -0.4758301
vn -0.1665039 -0.8720703 -0.4602051
vn -0.1651611 -0.84375 -0.5107422
vn -0.4338379 -0.8950195 -0.1030884
vn -0.3837891 -0.9204102 -0.07330322
vn -0.3540039 -0.9335938 -0.05584717
vn -0.4484863 -0.8867188 -0.1119385
vn -0.1733398 0.9575195 0.2304688
vn -0.171875 0.9589844 0.2250977
vn -0.1710205 0.9599609 0.22229
vn -0.1749268 0.9560547 0.236084
vn 0.08068848 0.9511719 0.2976074
vn 0.08758545 0.9482422 0.3054199
vn 0.09039307 0.9467773 0.3083496
vn 0.07470703 0.9536133 0.2910156
vn 0.282959 0.9545898 0.09265137
vn 0.2988281 0.9501953 0.08886719
vn 0.3051758 0.9482422 0.08728027
vn 0.2700195 0.9580078 0.09576416
vn 0.1794434 0.9648438 -0.1928711
vn 0.1807861 0.9633789 -0.1983643
vn 0.1815186 0.9624023 -0.2010498
vn 0.1782227 0.9658203 -0.1877441
vn -0.1064453 0.9682617 -0.2254639
vn -0.1019897 0.9697266 -0.2213135
vn -0.09936523 0.9707031 -0.21875
vn -0.111145 0.9667969 -0.2299805
vn -0.2624512 0.9648438 -0.009422302
vn -0.251709 0.9677734 -0.01239014
vn -0.2449951 0.9692383 -0.01426697
vn -0.2746582 0.9614258 -0.005950928
vn 0.004024506 -1 0.01112366
vn 0.004024506 -1 0.01112366
vn 0.004024506 -1 0.01112366
vn 0.004024506 -1 0.01112366
vn 0.004024506 -1 0.01112366
vn 0.004024506 -1 0.01112366
vn -0.3557129 -0.8491211 0.3903809
vn -0.3408203 -0.8588867 0.3818359
vn -0.3342285 -0.8632813 0.3779297
vn -0.3596191 -0.8461914 0.3928223
vn 0.2094727 -0.8291016 0.5185547
vn 0.2094727 -0.8291016 0.5180664
vn 0.2094727 -0.8291016 0.5180664
vn 0.2094727 -0.8291016 0.5185547
vn 0.6650391 -0.7421875 0.08184814
vn 0.6777344 -0.7299805 0.09039307
vn 0.6816406 -0.7260742 0.09313965
vn 0.6625977 -0.7446289 0.08007813
vn 0.4846191 -0.6166992 -0.6201172
vn 0.5073242 -0.5869141 -0.6308594
vn 0.5151367 -0.5771484 -0.6337891
vn 0.4799805 -0.6225586 -0.6181641
vn -0.2485352 -0.6000977 -0.7602539
vn -0.2487793 -0.6079102 -0.7539063
vn -0.2489014 -0.6113281 -0.7514648
vn -0.2485352 -0.5981445 -0.7617188
vn -0.6303711 -0.7568359 -0.1712646
vn -0.6025391 -0.7827148 -0.1555176
vn -0.5888672 -0.7949219 -0.1477051
vn -0.6381836 -0.7495117 -0.1757813
vn -0.2766113 0.8881836 0.3669434
vn -0.2570801 0.8979492 0.3566895
vn -0.2929688 0.8793945 0.3752441
vn -0.25 0.9013672 0.3530273
vn 0.1019897 0.9008789 0.421875
vn 0.1033325 0.9125977 0.3959961
vn 0.1000977 0.8847656 0.4545898
vn 0.104126 0.918457 0.3811035
vn 0.2832031 0.9506836 0.1254883
vn 0.2792969 0.9526367 0.1221313
vn 0.2919922 0.9472656 0.1326904
vn 0.2741699 0.9545898 0.118042
vn 0.1655273 0.9736328 -0.1580811
vn 0.1650391 0.9741211 -0.1536865
vn 0.1641846 0.9750977 -0.1478271
vn 0.1668701 0.9716797 -0.1679688
vn -0.130249 0.9619141 -0.2404785
vn -0.1177979 0.9667969 -0.2275391
vn -0.1081543 0.9702148 -0.2174072
vn -0.149292 0.9541016 -0.260498
vn -0.3598633 0.9331055 0.002912521
vn -0.3740234 0.9272461 -0.007987976
vn -0.3483887 0.9375 0.01174164
vn -0.3798828 0.9248047 -0.01241302
vn -0.03704834 0.996582 0.07501221
vn -0.03704834 0.996582 0.07501221
vn -0.03704834 0.996582 0.07501221
vn -0.03704834 0.996582 0.07501221
vn -0.03704834 0.996582 0.07501221
vn -0.03704834 0.996582 0.07501221
vn -0.3325195 -0.8618164 0.3835449
vn -0.2961426 -0.8828125 0.3642578
vn -0.2744141 -0.8945313 0.3525391
vn -0.34375 -0.8544922 0.3894043
vn 0.1889648 -0.8691406 0.4570313
vn 0.1872559 -0.8486328 0.4951172
vn 0.1861572 -0.8369141 0.5146484
vn 0.1893311 -0.875 0.4453125
vn 0.5898438 -0.8037109 0.07800293
vn 0.6391602 -0.7607422 0.114502
vn 0.6655273 -0.7338867 0.1351318
vn 0.5717773 -0.8178711 0.06481934
vn 0.4360352 -0.722168 -0.5366211
vn 0.4575195 -0.7026367 -0.5449219
vn 0.4716797 -0.6894531 -0.5498047
vn 0.427002 -0.7304688 -0.5332031
vn -0.2191162 -0.715332 -0.6630859
vn -0.2226563 -0.7358398 -0.6396484
vn -0.2249756 -0.75 -0.6220703
vn -0.2176514 -0.7070313 -0.6728516
vn -0.597168 -0.7895508 -0.1407471
vn -0.546875 -0.8305664 -0.1052856
vn -0.5102539 -0.855957 -0.08050537
vn -0.6147461 -0.7734375 -0.1535645
vn -0.2570801 0.9038086 0.3417969
vn -0.2553711 0.9067383 0.3349609
vn -0.2543945 0.9086914 0.3308105
vn -0.2590332 0.9003906 0.3496094
vn 0.1190186 0.890625 0.4384766
vn 0.1281738 0.8852539 0.4475098
vn 0.1323242 0.8823242 0.4516602
vn 0.1102905 0.8959961 0.4299316
vn 0.4189453 0.8974609 0.1368408
vn 0.4387207 0.8891602 0.1308594
vn 0.4475098 0.8852539 0.1280518
vn 0.4008789 0.9047852 0.1422119
vn 0.2687988 0.9189453 -0.2890625
vn 0.2702637 0.9160156 -0.2961426
vn 0.2709961 0.9145508 -0.300293
vn 0.267334 0.9213867 -0.2814941
vn -0.1599121 0.9272461 -0.3391113
vn -0.1538086 0.9301758 -0.3337402
vn -0.1499023 0.9321289 -0.3300781
vn -0.1668701 0.9233398 -0.3452148
vn -0.3925781 0.9194336 -0.01420593
vn -0.3786621 0.925293 -0.01849365
vn -0.3691406 0.9291992 -0.02149963
vn -0.409668 0.9121094 -0.008872986
vn 0.006324768 -1 0.01748657
vn 0.006324768 -1 0.01748657
vn 0.006324768 -1 0.01748657
vn 0.006324768 -1 0.01748657
vn 0.006324768 -1 0.01748657
vn 0.006324768 -1 0.01748657
vn -0.0226593 0.9970703 0.06982422
vn -0.0226593 0.9970703 0.06982422
vn -0.0226593 0.9970703 0.06982422
vn -0.0226593 0.9970703 0.06982422
vn -0.0226593 0.9970703 0.06982422
vn -0.0226593 0.9970703 0.06982422

vt 0.8266602 0.4970703
vt 0.7890625 0.4775391
vt 0.8217773 0.4960938
vt 0.7890625 0.4775391
vt 0.8266602 0.4970703
vt 0.7924805 0.4780273
vt 0.7875977 0.4870605
vt 0.8217773 0.5083008
vt 0.8198242 0.5039063
vt 0.8217773 0.5083008
vt 0.7875977 0.4870605
vt 0.7885742 0.4924316
vt 0.8217773 0.4960938
vt 0.8486328 0.5424805
vt 0.8266602 0.4970703
vt 0.8251953 0.5048828
vt 0.8486328 0.5424805
vt 0.8217773 0.5083008
vt 0.8217773 0.5083008
vt 0.8486328 0.5424805
vt 0.8198242 0.5039063
vt 0.8198242 0.5039063
vt 0.8486328 0.5424805
vt 0.8217773 0.4960938
vt 0.7275391 0.5292969
vt 0.784668 0.4968262
vt 0.7871094 0.4931641
vt 0.7265625 0.5317383
vt 0.78125 0.4924316
vt 0.784668 0.4968262
vt 0.7265625 0.5224609
vt 0.7802734 0.4846191
vt 0.7231445 0.5219727
vt 0.7802734 0.4846191
vt 0.7265625 0.5224609
vt 0.7866211 0.4851074
vt 0.7265625 0.5224609
vt 0.699707 0.5498047
vt 0.7275391 0.5292969
vt 0.7241211 0.5283203
vt 0.699707 0.5498047
vt 0.7231445 0.5219727
vt 0.7231445 0.5219727
vt 0.699707 0.5498047
vt 0.7265625 0.5224609
vt 0.7954102 0.4970703
vt 0.7919922 0.4775391
vt 0.8041992 0.4960938
vt 0.7919922 0.4775391
vt 0.7954102 0.4970703
vt 0.7807617 0.4780273
vt 0.8041992 0.4960938
vt 0.8134766 0.5463867
vt 0.7954102 0.4970703
vt 0.7954102 0.4970703
vt 0.8134766 0.5463867
vt 0.7954102 0.5048828
vt 0.7954102 0.5048828
vt 0.8134766 0.5463867
vt 0.7993164 0.5083008
vt 0.7993164 0.5083008
vt 0.8134766 0.5463867
vt 0.8041992 0.5039063
vt 0.1964111 0.5068359
vt 0.2272949 0.5209961
vt 0.2443848 0.5292969
vt 0.2272949 0.5209961
vt 0.1964111 0.5068359
vt 0.1676025 0.4951172
vt 0.8217773 0.357666
vt 0.7924805 0.4421387
vt 0.8149414 0.357666
vt 0.7978516 0.4404297
vt 0.8007813 0.357666
vt 0.7924805 0.4421387
vt 0.7822266 0.4428711
vt 0.8149414 0.357666
vt 0.7939453 0.357666
vt 0.7822266 0.4428711
vt 0.7768555 0.4421387
vt 0.8007813 0.357666
vt 0.8007813 0.357666
vt 0.7768555 0.4421387
vt 0.7822266 0.4404297
vt 0.7939453 0.357666
vt 0.8007813 0.357666
vt 0.7929688 0.4396973
vt 0.8149414 0.357666
vt 0.7822266 0.4404297
vt 0.8149414 0.357666
vt 0.7978516 0.4404297
vt 0.8217773 0.357666
vt 0.7929688 0.4396973
vt 0.7890625 0.5507813
vt 0.7978516 0.4404297
vt 0.793457 0.5512695
vt 0.7924805 0.4421387
vt 0.7822266 0.4428711
vt 0.7890625 0.5507813
vt 0.7802734 0.5522461
vt 0.7924805 0.4421387
vt 0.7802734 0.5522461
vt 0.7768555 0.4421387
vt 0.7822266 0.4428711
vt 0.7758789 0.5537109
vt 0.7958984 0.6645508
vt 0.7924805 0.6655273
vt 0.7822266 0.4404297
vt 0.7758789 0.5537109
vt 0.7802734 0.5541992
vt 0.7768555 0.4421387
vt 0.7890625 0.5532227
vt 0.7822266 0.4404297
vt 0.7802734 0.5541992
vt 0.7929688 0.4396973
vt 0.7929688 0.4396973
vt 0.793457 0.5512695
vt 0.7978516 0.4404297
vt 0.7890625 0.5532227
vt 0.8066406 0.6621094
vt 0.8032227 0.6630859
vt 0.8032227 0.6630859
vt 0.793457 0.5512695
vt 0.8066406 0.6621094
vt 0.7890625 0.5507813
vt 0.7802734 0.5522461
vt 0.8032227 0.6630859
vt 0.7958984 0.6645508
vt 0.7890625 0.5507813
vt 0.7958984 0.6645508
vt 0.7758789 0.5537109
vt 0.7924805 0.6655273
vt 0.7802734 0.5541992
vt 0.8032227 0.6630859
vt 0.7802734 0.5541992
vt 0.7958984 0.6645508
vt 0.7890625 0.5532227
vt 0.8266602 0.4970703
vt 0.7910156 0.487793
vt 0.7924805 0.4780273
vt 0.8251953 0.5048828
vt 0.8486328 0.5424805
vt 0.7885742 0.4924316
vt 0.8251953 0.5048828
vt 0.8217773 0.5083008
vt 0.7910156 0.487793
vt 0.8217773 0.4960938
vt 0.7875977 0.4870605
vt 0.8198242 0.5039063
vt 0.7890625 0.4775391
vt 0.7871094 0.4931641
vt 0.7265625 0.5224609
vt 0.7275391 0.5292969
vt 0.7866211 0.4851074
vt 0.784668 0.4968262
vt 0.7275391 0.5292969
vt 0.7265625 0.5317383
vt 0.699707 0.5498047
vt 0.78125 0.4924316
vt 0.7265625 0.5317383
vt 0.7241211 0.5283203
vt 0.699707 0.5498047
vt 0.7231445 0.5219727
vt 0.78125 0.4924316
vt 0.7241211 0.5283203
vt 0.7802734 0.4846191
vt 0.7807617 0.487793
vt 0.7954102 0.4970703
vt 0.7954102 0.5048828
vt 0.7807617 0.4780273
vt 0.7866211 0.4924316
vt 0.7954102 0.5048828
vt 0.7993164 0.5083008
vt 0.7807617 0.487793
vt 0.7919922 0.4870605
vt 0.7993164 0.5083008
vt 0.8041992 0.5039063
vt 0.7866211 0.4924316
vt 0.7919922 0.4870605
vt 0.8041992 0.4960938
vt 0.7919922 0.4775391
vt 0.8041992 0.5039063
vt 0.8134766 0.5463867
vt 0.4284668 0.1466064
vt 0.3933105 0.1734619
vt 0.3649902 0.1486816
vt 0.4833984 0.1766357
vt 0.3649902 0.1486816
vt 0.2131348 0.1793213
vt 0.2376709 0.1486816
vt 0.3933105 0.1734619
vt 0.2376709 0.1486816
vt 0.1229858 0.1884766
vt 0.1740723 0.1466064
vt 0.2131348 0.1793213
vt 0.1740723 0.1466064
vt 0.2131348 0.1917725
vt 0.2376709 0.1445313
vt 0.1229858 0.1884766
vt 0.2376709 0.1445313
vt 0.3933105 0.185791
vt 0.3649902 0.1445313
vt 0.2131348 0.1917725
vt 0.3649902 0.1445313
vt 0.4833984 0.1766357
vt 0.4284668 0.1466064
vt 0.3933105 0.185791
vt 0.4833984 0.1766357
vt 0.3540039 0.2030029
vt 0.3933105 0.1734619
vt 0.4084473 0.2060547
vt 0.3933105 0.1734619
vt 0.2451172 0.2080078
vt 0.2131348 0.1793213
vt 0.3540039 0.2030029
vt 0.2131348 0.1793213
vt 0.1906738 0.2161865
vt 0.1229858 0.1884766
vt 0.2451172 0.2080078
vt 0.1229858 0.1884766
vt 0.2451172 0.2192383
vt 0.2131348 0.1917725
vt 0.1906738 0.2161865
vt 0.2131348 0.1917725
vt 0.3540039 0.2141113
vt 0.3933105 0.185791
vt 0.2451172 0.2192383
vt 0.3933105 0.185791
vt 0.4084473 0.2060547
vt 0.4833984 0.1766357
vt 0.3540039 0.2141113
vt 0.3649902 0.1445313
vt 0.1740723 0.1466064
vt 0.2376709 0.1445313
vt 0.4284668 0.1466064
vt 0.2376709 0.1486816
vt 0.3649902 0.1486816
vt 0.4020996 0.4448242
vt 0.3557129 0.484375
vt 0.3254395 0.4406738
vt 0.4545898 0.4951172
vt 0.3254395 0.4406738
vt 0.1575928 0.4943848
vt 0.1722412 0.4477539
vt 0.3557129 0.484375
vt 0.1722412 0.4477539
vt 0.05856323 0.5151367
vt 0.09570313 0.4589844
vt 0.1575928 0.4943848
vt 0.09570313 0.4589844
vt 0.1575928 0.5258789
vt 0.1722412 0.4633789
vt 0.05856323 0.5151367
vt 0.1722412 0.4633789
vt 0.3557129 0.515625
vt 0.3254395 0.4562988
vt 0.1575928 0.5258789
vt 0.3254395 0.4562988
vt 0.4545898 0.4951172
vt 0.4020996 0.4448242
vt 0.3557129 0.515625
vt 0.3557129 0.484375
vt 0.3908691 0.5332031
vt 0.3347168 0.5292969
vt 0.4545898 0.4951172
vt 0.1575928 0.4943848
vt 0.3347168 0.5292969
vt 0.2225342 0.5400391
vt 0.3557129 0.484375
vt 0.05856323 0.5151367
vt 0.2225342 0.5400391
vt 0.1665039 0.5546875
vt 0.1575928 0.4943848
vt 0.05856323 0.5151367
vt 0.2225342 0.5585938
vt 0.1575928 0.5258789
vt 0.1665039 0.5546875
vt 0.1575928 0.5258789
vt 0.3347168 0.5473633
vt 0.3557129 0.515625
vt 0.2225342 0.5585938
vt 0.4545898 0.4951172
vt 0.3347168 0.5473633
vt 0.3908691 0.5332031
vt 0.3557129 0.515625
vt 0.2423096 0.8666992
vt 0.3605957 0.8442383
vt 0.3212891 0.855957
vt 0.2028809 0.8662109
vt 0.3212891 0.8432617
vt 0.2423096 0.8540039
vt 0.3659668 0.7915039
vt 0.3605957 0.8442383
vt 0.3212891 0.8432617
vt 0.4621582 0.7954102
vt 0.1734619 0.815918
vt 0.3212891 0.8432617
vt 0.2423096 0.8540039
vt 0.3659668 0.7915039
vt 0.07714844 0.84375
vt 0.2423096 0.8540039
vt 0.2028809 0.8662109
vt 0.1734619 0.815918
vt 0.2423096 0.8666992
vt 0.07714844 0.84375
vt 0.2028809 0.8662109
vt 0.1734619 0.847168
vt 0.3212891 0.855957
vt 0.1734619 0.847168
vt 0.2423096 0.8666992
vt 0.3659668 0.8227539
vt 0.3605957 0.8442383
vt 0.3659668 0.8227539
vt 0.3212891 0.855957
vt 0.4621582 0.7954102
vt 0.3369141 0.7519531
vt 0.4621582 0.7954102
vt 0.3659668 0.7915039
vt 0.4194336 0.7573242
vt 0.1717529 0.7680664
vt 0.3659668 0.7915039
vt 0.1734619 0.815918
vt 0.3369141 0.7519531
vt 0.08929443 0.7895508
vt 0.1734619 0.815918
vt 0.07714844 0.84375
vt 0.1717529 0.7680664
vt 0.1734619 0.847168
vt 0.08929443 0.7895508
vt 0.07714844 0.84375
vt 0.1717529 0.7949219
vt 0.3659668 0.8227539
vt 0.1717529 0.7949219
vt 0.1734619 0.847168
vt 0.3369141 0.7788086
vt 0.4621582 0.7954102
vt 0.3369141 0.7788086
vt 0.3659668 0.8227539
vt 0.4194336 0.7573242
vt 0.3896484 0.1519775
vt 0.253418 0.1755371
vt 0.2644043 0.1538086
vt 0.4306641 0.1783447
vt 0.2644043 0.1538086
vt 0.1193237 0.1806641
vt 0.170166 0.1538086
vt 0.253418 0.1755371
vt 0.170166 0.1538086
vt 0.1627197 0.1887207
vt 0.2009277 0.1519775
vt 0.1193237 0.1806641
vt 0.2009277 0.1519775
vt 0.3400879 0.1916504
vt 0.3259277 0.1501465
vt 0.1627197 0.1887207
vt 0.3259277 0.1501465
vt 0.4741211 0.1864014
vt 0.4204102 0.1501465
vt 0.3400879 0.1916504
vt 0.4204102 0.1501465
vt 0.4306641 0.1783447
vt 0.3896484 0.1519775
vt 0.4741211 0.1864014
vt 0.4306641 0.1783447
vt 0.2631836 0.2015381
vt 0.253418 0.1755371
vt 0.3703613 0.2042236
vt 0.253418 0.1755371
vt 0.1820068 0.2059326
vt 0.1193237 0.1806641
vt 0.2631836 0.2015381
vt 0.1193237 0.1806641
vt 0.2080078 0.2131348
vt 0.1627197 0.1887207
vt 0.1820068 0.2059326
vt 0.1627197 0.1887207
vt 0.3151855 0.2158203
vt 0.3400879 0.1916504
vt 0.2080078 0.2131348
vt 0.3400879 0.1916504
vt 0.3962402 0.2113037
vt 0.4741211 0.1864014
vt 0.3151855 0.2158203
vt 0.4741211 0.1864014
vt 0.3703613 0.2042236
vt 0.4306641 0.1783447
vt 0.3962402 0.2113037
vt 0.4204102 0.1501465
vt 0.2009277 0.1519775
vt 0.3259277 0.1501465
vt 0.3896484 0.1519775
vt 0.170166 0.1538086
vt 0.2644043 0.1538086
vt 0.3635254 0.4672852
vt 0.2624512 0.4897461
vt 0.2670898 0.4648438
vt 0.3859863 0.4956055
vt 0.2670898 0.4648438
vt 0.1676025 0.4951172
vt 0.1939697 0.4689941
vt 0.2624512 0.4897461
vt 0.1939697 0.4689941
vt 0.1964111 0.5068359
vt 0.2174072 0.4753418
vt 0.1676025 0.4951172
vt 0.2174072 0.4753418
vt 0.3198242 0.5126953
vt 0.3139648 0.4777832
vt 0.1964111 0.5068359
vt 0.3139648 0.4777832
vt 0.4147949 0.5073242
vt 0.3869629 0.4736328
vt 0.3198242 0.5126953
vt 0.3869629 0.4736328
vt 0.3859863 0.4956055
vt 0.3635254 0.4672852
vt 0.4147949 0.5073242
vt 0.2624512 0.4897461
vt 0.3527832 0.5170898
vt 0.2814941 0.5146484
vt 0.3859863 0.4956055
vt 0.1676025 0.4951172
vt 0.2814941 0.5146484
vt 0.2272949 0.5209961
vt 0.2624512 0.4897461
vt 0.1964111 0.5068359
vt 0.3156738 0.53125
vt 0.3198242 0.5126953
vt 0.2443848 0.5292969
vt 0.3198242 0.5126953
vt 0.369873 0.5249023
vt 0.4147949 0.5073242
vt 0.3156738 0.53125
vt 0.3859863 0.4956055
vt 0.369873 0.5249023
vt 0.3527832 0.5170898
vt 0.4147949 0.5073242
vt 0.3527832 0.5170898
vt 0.2272949 0.5209961
vt 0.2814941 0.5146484
vt 0.2443848 0.5292969
vt 0.369873 0.5249023
vt 0.3156738 0.53125
vt 0.3562012 0.1541748
vt 0.4208984 0.1708984
vt 0.3706055 0.1553955
vt 0.4003906 0.1729736
vt 0.3706055 0.1553955
vt 0.2749023 0.1745605
vt 0.2670898 0.1553955
vt 0.4208984 0.1708984
vt 0.2670898 0.1553955
vt 0.1082153 0.1802979
vt 0.1494141 0.1541748
vt 0.2749023 0.1745605
vt 0.1494141 0.1541748
vt 0.08764648 0.182373
vt 0.1350098 0.152832
vt 0.1082153 0.1802979
vt 0.1350098 0.152832
vt 0.2337646 0.1785889
vt 0.2382813 0.152832
vt 0.08764648 0.182373
vt 0.2382813 0.152832
vt 0.4003906 0.1729736
vt 0.3562012 0.1541748
vt 0.2337646 0.1785889
vt 0.4003906 0.1729736
vt 0.355957 0.1894531
vt 0.4208984 0.1708984
vt 0.3435059 0.1912842
vt 0.4208984 0.1708984
vt 0.2678223 0.1925049
vt 0.2749023 0.1745605
vt 0.355957 0.1894531
vt 0.2749023 0.1745605
vt 0.1673584 0.1976318
vt 0.1082153 0.1802979
vt 0.2678223 0.1925049
vt 0.1082153 0.1802979
vt 0.1549072 0.1994629
vt 0.08764648 0.182373
vt 0.1673584 0.1976318
vt 0.08764648 0.182373
vt 0.2429199 0.1964111
vt 0.2337646 0.1785889
vt 0.1549072 0.1994629
vt 0.2337646 0.1785889
vt 0.3435059 0.1912842
vt 0.4003906 0.1729736
vt 0.2429199 0.1964111
vt 0.2382813 0.152832
vt 0.1494141 0.1541748
vt 0.1350098 0.152832
vt 0.3562012 0.1541748
vt 0.2670898 0.1553955
vt 0.3706055 0.1553955
vt 0.2666016 0.4758301
vt 0.3095703 0.4914551
vt 0.277832 0.4741211
vt 0.2961426 0.4958496
vt 0.277832 0.4741211
vt 0.2072754 0.4956055
vt 0.1984863 0.4768066
vt 0.3095703 0.4914551
vt 0.1984863 0.4768066
vt 0.09161377 0.5039063
vt 0.1079712 0.4814453
vt 0.2072754 0.4956055
vt 0.1079712 0.4814453
vt 0.07818604 0.5078125
vt 0.09680176 0.4831543
vt 0.09161377 0.5039063
vt 0.09680176 0.4831543
vt 0.1804199 0.5039063
vt 0.1760254 0.4802246
vt 0.07818604 0.5078125
vt 0.1760254 0.4802246
vt 0.2961426 0.4958496
vt 0.2666016 0.4758301
vt 0.1804199 0.5039063
vt 0.3095703 0.4914551
vt 0.265625 0.5107422
vt 0.2741699 0.5097656
vt 0.2961426 0.4958496
vt 0.2072754 0.4956055
vt 0.2741699 0.5097656
vt 0.2166748 0.5136719
vt 0.3095703 0.4914551
vt 0.09161377 0.5039063
vt 0.2166748 0.5136719
vt 0.1503906 0.5195313
vt 0.2072754 0.4956055
vt 0.09161377 0.5039063
vt 0.1417236 0.5209961
vt 0.07818604 0.5078125
vt 0.1503906 0.5195313
vt 0.07818604 0.5078125
vt 0.1993408 0.5166016
vt 0.1804199 0.5039063
vt 0.1417236 0.5209961
vt 0.2961426 0.4958496
vt 0.1993408 0.5166016
vt 0.265625 0.5107422
vt 0.1804199 0.5039063
vt 0.265625 0.5107422
vt 0.2166748 0.5136719
vt 0.2741699 0.5097656
vt 0.1503906 0.5195313
vt 0.1993408 0.5166016
vt 0.1417236 0.5209961
vt 0.3833008 0.1602783
vt 0.4335938 0.1806641
vt 0.3945313 0.1618652
vt 0.4174805 0.1832275
vt 0.3945313 0.1618652
vt 0.3203125 0.1851807
vt 0.3144531 0.1618652
vt 0.4335938 0.1806641
vt 0.3144531 0.1618652
vt 0.1911621 0.1922607
vt 0.2230225 0.1602783
vt 0.3203125 0.1851807
vt 0.2230225 0.1602783
vt 0.1751709 0.1947021
vt 0.2119141 0.1586914
vt 0.1911621 0.1922607
vt 0.2119141 0.1586914
vt 0.2883301 0.1901855
vt 0.2919922 0.1586914
vt 0.1751709 0.1947021
vt 0.2919922 0.1586914
vt 0.4174805 0.1832275
vt 0.3833008 0.1602783
vt 0.2883301 0.1901855
vt 0.4174805 0.1832275
vt 0.3830566 0.2032471
vt 0.4335938 0.1806641
vt 0.3735352 0.2055664
vt 0.4335938 0.1806641
vt 0.3149414 0.2071533
vt 0.3203125 0.1851807
vt 0.3830566 0.2032471
vt 0.3203125 0.1851807
vt 0.2369385 0.2132568
vt 0.1911621 0.1922607
vt 0.3149414 0.2071533
vt 0.1911621 0.1922607
vt 0.2272949 0.2155762
vt 0.1751709 0.1947021
vt 0.2369385 0.2132568
vt 0.1751709 0.1947021
vt 0.2956543 0.211792
vt 0.2883301 0.1901855
vt 0.2272949 0.2155762
vt 0.2883301 0.1901855
vt 0.3735352 0.2055664
vt 0.4174805 0.1832275
vt 0.2956543 0.211792
vt 0.2919922 0.1586914
vt 0.2230225 0.1602783
vt 0.2119141 0.1586914
vt 0.3833008 0.1602783
vt 0.3144531 0.1618652
vt 0.3945313 0.1618652
vt 0.2956543 0.211792
vt 0.3830566 0.2032471
vt 0.3735352 0.2055664
vt 0.3149414 0.2071533
vt 0.2272949 0.2155762
vt 0.2369385 0.2132568

g Tree_11_Green_(1)_386_73
usemtl Tree_11_Green_(1)_386_73
usemap Tree_11_Green_(1)_386_73
f 1/1/1 3/3/3 2/2/2
f 4/4/4 6/6/6 5/5/5
f 7/7/7 9/9/9 8/8/8
f 10/10/10 12/12/12 11/11/11
f 13/13/13 15/15/15 14/14/14
f 16/16/16 18/18/18 17/17/17
f 19/19/19 21/21/21 20/20/20
f 22/22/22 24/24/24 23/23/23
f 25/25/25 27/27/27 26/26/26
f 28/28/28 30/30/30 29/29/29
f 31/31/31 33/33/33 32/32/32
f 34/34/34 36/36/36 35/35/35
f 37/37/37 39/39/39 38/38/38
f 40/40/40 42/42/42 41/41/41
f 43/43/43 45/45/45 44/44/44
f 46/46/46 48/48/48 47/47/47
f 49/49/49 51/51/51 50/50/50
f 52/52/52 54/54/54 53/53/53
f 55/55/55 57/57/57 56/56/56
f 58/58/58 60/60/60 59/59/59
f 61/61/61 63/63/63 62/62/62
f 64/64/64 66/66/66 65/65/65
f 67/67/67 69/69/69 68/68/68
f 70/70/70 72/72/72 71/71/71
f 71/71/71 73/73/73 70/70/70
f 74/74/74 76/76/76 75/75/75
f 75/75/75 77/77/77 74/74/74
f 78/78/78 80/80/80 79/79/79
f 79/79/79 81/81/81 78/78/78
f 82/82/82 84/84/84 83/83/83
f 83/83/83 85/85/85 82/82/82
f 86/86/86 88/88/88 87/87/87
f 87/87/87 89/89/89 86/86/86
f 90/90/90 92/92/92 91/91/91
f 91/91/91 93/93/93 90/90/90
f 94/94/94 96/96/96 95/95/95
f 95/95/95 97/97/97 94/94/94
f 98/98/98 100/100/100 99/99/99
f 99/99/99 101/101/101 98/98/98
f 102/102/102 104/104/104 103/103/103
f 103/103/103 105/105/105 102/102/102
f 106/106/106 102/102/102 105/105/105
f 105/105/105 107/107/107 106/106/106
f 108/108/108 110/110/110 109/109/109
f 109/109/109 111/111/111 108/108/108
f 112/112/112 114/114/114 113/113/113
f 113/113/113 115/115/115 112/112/112
f 116/116/116 118/118/118 117/117/117
f 117/117/117 119/119/119 116/116/116
f 119/119/119 117/117/117 120/120/120
f 120/120/120 121/121/121 119/119/119
f 122/122/122 124/124/124 123/123/123
f 123/123/123 125/125/125 122/122/122
f 126/126/126 128/128/128 127/127/127
f 127/127/127 129/129/129 126/126/126
f 130/130/130 132/132/132 131/131/131
f 131/131/131 133/133/133 130/130/130
f 134/134/134 136/136/136 135/135/135
f 135/135/135 137/137/137 134/134/134
f 138/138/138 140/140/140 139/139/139
f 139/139/139 141/141/141 138/138/138
f 138/138/138 141/141/141 142/142/142
f 143/143/143 145/145/145 144/144/144
f 144/144/144 146/146/146 143/143/143
f 147/147/147 149/149/149 148/148/148
f 148/148/148 150/150/150 147/147/147
f 151/151/151 153/153/153 152/152/152
f 152/152/152 154/154/154 151/151/151
f 155/155/155 157/157/157 156/156/156
f 156/156/156 157/157/157 158/158/158
f 159/159/159 161/161/161 160/160/160
f 160/160/160 161/161/161 162/162/162
f 163/163/163 165/165/165 164/164/164
f 164/164/164 166/166/166 163/163/163
f 167/167/167 169/169/169 168/168/168
f 168/168/168 170/170/170 167/167/167
f 171/171/171 173/173/173 172/172/172
f 172/172/172 174/174/174 171/171/171
f 175/175/175 177/177/177 176/176/176
f 176/176/176 178/178/178 175/175/175
f 179/179/179 181/181/181 180/180/180
f 180/180/180 182/182/182 179/179/179
f 182/182/182 180/180/180 183/183/183
f 184/184/184 186/186/186 185/185/185
f 185/185/185 187/187/187 184/184/184
f 188/188/188 190/190/190 189/189/189
f 189/189/189 191/191/191 188/188/188
f 192/192/192 194/194/194 193/193/193
f 193/193/193 195/195/195 192/192/192
f 196/196/196 198/198/198 197/197/197
f 197/197/197 199/199/199 196/196/196
f 200/200/200 202/202/202 201/201/201
f 201/201/201 203/203/203 200/200/200
f 204/204/204 206/206/206 205/205/205
f 205/205/205 207/207/207 204/204/204
f 208/208/208 210/210/210 209/209/209
f 209/209/209 211/211/211 208/208/208
f 212/212/212 214/214/214 213/213/213
f 213/213/213 215/215/215 212/212/212
f 216/216/216 218/218/218 217/217/217
f 217/217/217 219/219/219 216/216/216
f 220/220/220 222/222/222 221/221/221
f 221/221/221 223/223/223 220/220/220
f 224/224/224 226/226/226 225/225/225
f 225/225/225 227/227/227 224/224/224
f 228/228/228 230/230/230 229/229/229
f 229/229/229 231/231/231 228/228/228
f 232/232/232 234/234/234 233/233/233
f 233/233/233 235/235/235 232/232/232
f 235/235/235 233/233/233 236/236/236
f 236/236/236 237/237/237 235/235/235
f 238/238/238 240/240/240 239/239/239
f 239/239/239 241/241/241 238/238/238
f 242/242/242 244/244/244 243/243/243
f 243/243/243 245/245/245 242/242/242
f 246/246/246 248/248/248 247/247/247
f 247/247/247 249/249/249 246/246/246
f 250/250/250 252/252/252 251/251/251
f 251/251/251 253/253/253 250/250/250
f 254/254/254 256/256/256 255/255/255
f 255/255/255 257/257/257 254/254/254
f 258/258/258 260/260/260 259/259/259
f 259/259/259 261/261/261 258/258/258
f 262/262/262 264/264/264 263/263/263
f 263/263/263 265/265/265 262/262/262
f 266/266/266 268/268/268 267/267/267
f 267/267/267 269/269/269 266/266/266
f 270/270/270 272/272/272 271/271/271
f 271/271/271 273/273/273 270/270/270
f 274/274/274 276/276/276 275/275/275
f 275/275/275 277/277/277 274/274/274
f 278/278/278 280/280/280 279/279/279
f 279/279/279 281/281/281 278/278/278
f 282/282/282 284/284/284 283/283/283
f 283/283/283 285/285/285 282/282/282
f 286/286/286 288/288/288 287/287/287
f 287/287/287 289/289/289 286/286/286
f 289/289/289 287/287/287 290/290/290
f 290/290/290 291/291/291 289/289/289
f 292/292/292 294/294/294 293/293/293
f 293/293/293 295/295/295 292/292/292
f 296/296/296 298/298/298 297/297/297
f 297/297/297 299/299/299 296/296/296
f 300/300/300 302/302/302 301/301/301
f 301/301/301 303/303/303 300/300/300
f 304/304/304 306/306/306 305/305/305
f 305/305/305 307/307/307 304/304/304
f 308/308/308 310/310/310 309/309/309
f 309/309/309 311/311/311 308/308/308
f 312/312/312 314/314/314 313/313/313
f 313/313/313 315/315/315 312/312/312
f 316/316/316 318/318/318 317/317/317
f 317/317/317 319/319/319 316/316/316
f 320/320/320 322/322/322 321/321/321
f 321/321/321 323/323/323 320/320/320
f 324/324/324 326/326/326 325/325/325
f 325/325/325 327/327/327 324/324/324
f 328/328/328 330/330/330 329/329/329
f 329/329/329 331/331/331 328/328/328
f 332/332/332 334/334/334 333/333/333
f 333/333/333 335/335/335 332/332/332
f 336/336/336 338/338/338 337/337/337
f 337/337/337 339/339/339 336/336/336
f 340/340/340 342/342/342 341/341/341
f 341/341/341 343/343/343 340/340/340
f 344/344/344 346/346/346 345/345/345
f 345/345/345 347/347/347 344/344/344
f 348/348/348 350/350/350 349/349/349
f 349/349/349 351/351/351 348/348/348
f 352/352/352 354/354/354 353/353/353
f 353/353/353 355/355/355 352/352/352
f 356/356/356 358/358/358 357/357/357
f 357/357/357 359/359/359 356/356/356
f 360/360/360 362/362/362 361/361/361
f 361/361/361 363/363/363 360/360/360
f 364/364/364 366/366/366 365/365/365
f 365/365/365 367/367/367 364/364/364
f 368/368/368 370/370/370 369/369/369
f 369/369/369 371/371/371 368/368/368
f 372/372/372 374/374/374 373/373/373
f 373/373/373 375/375/375 372/372/372
f 376/376/376 378/378/378 377/377/377
f 377/377/377 379/379/379 376/376/376
f 380/380/380 382/382/382 381/381/381
f 381/381/381 383/383/383 380/380/380
f 384/384/384 386/386/386 385/385/385
f 385/385/385 387/387/387 384/384/384
f 388/388/388 390/390/390 389/389/389
f 389/389/389 391/391/391 388/388/388
f 391/391/391 389/389/389 392/392/392
f 392/392/392 393/393/393 391/391/391
f 394/394/394 396/396/396 395/395/395
f 395/395/395 397/397/397 394/394/394
f 398/398/398 400/400/400 399/399/399
f 399/399/399 401/401/401 398/398/398
f 402/402/402 404/404/404 403/403/403
f 403/403/403 405/405/405 402/402/402
f 406/406/406 408/408/408 407/407/407
f 407/407/407 409/409/409 406/406/406
f 410/410/410 412/412/412 411/411/411
f 411/411/411 413/413/413 410/410/410
f 414/414/414 416/416/416 415/415/415
f 415/415/415 417/417/417 414/414/414
f 418/418/418 420/420/420 419/419/419
f 419/419/419 421/421/421 418/418/418
f 422/422/422 424/424/424 423/423/423
f 423/423/423 425/425/425 422/422/422
f 426/426/426 428/428/428 427/427/427
f 427/427/427 429/429/429 426/426/426
f 430/430/430 432/432/432 431/431/431
f 431/431/431 433/433/433 430/430/430
f 434/434/434 436/436/436 435/435/435
f 435/435/435 437/437/437 434/434/434
f 438/438/438 440/440/440 439/439/439
f 439/439/439 441/441/441 438/438/438
f 442/442/442 438/438/438 441/441/441
f 441/441/441 443/443/443 442/442/442
f 444/444/444 446/446/446 445/445/445
f 445/445/445 447/447/447 444/444/444
f 448/448/448 450/450/450 449/449/449
f 449/449/449 451/451/451 448/448/448
f 452/452/452 454/454/454 453/453/453
f 453/453/453 455/455/455 452/452/452
f 456/456/456 458/458/458 457/457/457
f 457/457/457 459/459/459 456/456/456
f 460/460/460 462/462/462 461/461/461
f 461/461/461 463/463/463 460/460/460
f 464/464/464 466/466/466 465/465/465
f 465/465/465 467/467/467 464/464/464
f 468/468/468 470/470/470 469/469/469
f 469/469/469 471/471/471 468/468/468
f 472/472/472 474/474/474 473/473/473
f 473/473/473 475/475/475 472/472/472
f 476/476/476 478/478/478 477/477/477
f 477/477/477 479/479/479 476/476/476
f 480/480/480 482/482/482 481/481/481
f 481/481/481 483/483/483 480/480/480
f 484/484/484 486/486/486 485/485/485
f 485/485/485 487/487/487 484/484/484
f 488/488/488 490/490/490 489/489/489
f 489/489/489 491/491/491 488/488/488
f 492/492/492 494/494/494 493/493/493
f 493/493/493 495/495/495 492/492/492
f 495/495/495 493/493/493 496/496/496
f 496/496/496 497/497/497 495/495/495
f 498/498/498 500/500/500 499/499/499
f 499/499/499 501/501/501 498/498/498
f 502/502/502 504/504/504 503/503/503
f 503/503/503 505/505/505 502/502/502
f 506/506/506 508/508/508 507/507/507
f 507/507/507 509/509/509 506/506/506
f 510/510/510 512/512/512 511/511/511
f 511/511/511 513/513/513 510/510/510
f 514/514/514 516/516/516 515/515/515
f 515/515/515 517/517/517 514/514/514
f 518/518/518 520/520/520 519/519/519
f 519/519/519 521/521/521 518/518/518
f 522/522/522 524/524/524 523/523/523
f 523/523/523 525/525/525 522/522/522
f 526/526/526 528/528/528 527/527/527
f 527/527/527 529/529/529 526/526/526
f 530/530/530 532/532/532 531/531/531
f 531/531/531 533/533/533 530/530/530
f 534/534/534 536/536/536 535/535/535
f 535/535/535 537/537/537 534/534/534
f 538/538/538 540/540/540 539/539/539
f 539/539/539 541/541/541 538/538/538
f 542/542/542 544/544/544 543/543/543
f 543/543/543 545/545/545 542/542/542
f 546/546/546 548/548/548 547/547/547
f 547/547/547 549/549/549 546/546/546
f 550/550/550 546/546/546 549/549/549
f 549/549/549 551/551/551 550/550/550
f 552/552/552 554/554/554 553/553/553
f 553/553/553 555/555/555 552/552/552
f 556/556/556 558/558/558 557/557/557
f 557/557/557 559/559/559 556/556/556
f 560/560/560 562/562/562 561/561/561
f 561/561/561 563/563/563 560/560/560
f 564/564/564 566/566/566 565/565/565
f 565/565/565 567/567/567 564/564/564
f 568/568/568 570/570/570 569/569/569
f 569/569/569 571/571/571 568/568/568
f 572/572/572 574/574/574 573/573/573
f 573/573/573 575/575/575 572/572/572
f 576/576/576 578/578/578 577/577/577
f 577/577/577 579/579/579 576/576/576
f 580/580/580 582/582/582 581/581/581
f 581/581/581 583/583/583 580/580/580
f 584/584/584 586/586/586 585/585/585
f 585/585/585 587/587/587 584/584/584
f 588/588/588 590/590/590 589/589/589
f 589/589/589 591/591/591 588/588/588
f 592/592/592 594/594/594 593/593/593
f 593/593/593 595/595/595 592/592/592
f 596/596/596 598/598/598 597/597/597
f 597/597/597 599/599/599 596/596/596
f 600/600/600 602/602/602 601/601/601
f 601/601/601 603/603/603 600/600/600
f 603/603/603 601/601/601 604/604/604
f 604/604/604 605/605/605 603/603/603
f 606/606/606 608/608/608 607/607/607
f 607/607/607 609/609/609 606/606/606
f 610/610/610 606/606/606 609/609/609
f 609/609/609 611/611/611 610/610/610
