#Tree_11_Green_(8)_388_75.obj

v 0.4705238 -0.9927453 2.322839
v -0.4689716 -0.6828645 1.996823
v 0.3423192 -1.194254 2.308598
v -0.4689716 -0.6828645 1.996823
v 0.4705238 -0.9927453 2.322839
v -0.380248 -0.4090929 2.008125
v -0.5066017 -0.6773449 2.158554
v 0.3469507 -1.070827 2.513241
v 0.3026699 -1.179137 2.440279
v 0.3469507 -1.070827 2.513241
v -0.5066017 -0.6773449 2.158554
v -0.4810536 -0.5377028 2.24507
v 0.3423192 -1.194254 2.308598
v 1.016739 -1.427726 3.076959
v 0.4705238 -0.9927453 2.322839
v 0.430878 -0.9776266 2.454521
v 1.016739 -1.427726 3.076959
v 0.3469507 -1.070827 2.513241
v 0.3469507 -1.070827 2.513241
v 1.016739 -1.427726 3.076959
v 0.3026699 -1.179137 2.440279
v 0.3026699 -1.179137 2.440279
v 1.016739 -1.427726 3.076959
v 0.3423192 -1.194254 2.308598
v -2.003538 -1.153203 2.857602
v -0.5814051 -0.4835555 2.318341
v -0.5148413 -0.5837924 2.2573
v -2.032964 -1.055764 2.905256
v -0.6676168 -0.4071306 2.248128
v -0.5814051 -0.4835555 2.318341
v -2.030699 -1.174375 2.750734
v -0.687264 -0.4309341 2.116875
v -2.116711 -1.000679 2.739177
v -0.687264 -0.4309341 2.116875
v -2.030699 -1.174375 2.750734
v -0.5344884 -0.6075959 2.126047
v -2.030699 -1.174375 2.750734
v -2.709466 -1.308463 3.199426
v -2.003538 -1.153203 2.857602
v -2.08955 -0.979506 2.846043
v -2.709466 -1.308463 3.199426
v -2.116711 -1.000679 2.739177
v -2.116711 -1.000679 2.739177
v -2.709466 -1.308463 3.199426
v -2.030699 -1.174375 2.750734
v -0.3056264 0.7596362 2.322839
v -0.3927366 -0.4057546 1.996823
v -0.08653773 0.6645445 2.308598
v -0.3927366 -0.4057546 1.996823
v -0.3056264 0.7596362 2.322839
v -0.6770176 -0.3609671 2.008125
v -0.08653773 0.6645445 2.308598
v 0.1460922 1.307536 3.142406
v -0.3056264 0.7596362 2.322839
v -0.3056264 0.7596362 2.322839
v 0.1460922 1.307536 3.142406
v -0.3143547 0.7181119 2.454521
v -0.3143547 0.7181119 2.454521
v 0.1460922 1.307536 3.142406
v -0.2091731 0.6498003 2.51324
v -0.2091731 0.6498003 2.51324
v 0.1460922 1.307536 3.142406
v -0.09526329 0.623013 2.440279
v 0.2363494 -2.033753 3.316548
v 0.4636508 -1.123096 3.420956
v 0.5894341 -1.644959 3.480939
v 0.4636508 -1.123096 3.420956
v 0.2363494 -2.033753 3.316548
v 0.0251396 -1.123947 3.231409
v 0.3523195 -9.196598E-07 -1.689332E-22
v -0.3794139 -0.2444718 1.406414
v 0.176161 0.3051201 5.604779E-17
v -0.2440768 -0.4699073 1.379011
v -0.1761621 0.3051196 5.604771E-17
v -0.3794139 -0.2444718 1.406414
v -0.6431532 -0.2497627 1.421011
v 0.176161 0.3051201 5.604779E-17
v -0.3523195 9.196598E-07 1.689332E-22
v -0.6431532 -0.2497627 1.421011
v -0.7715525 -0.4804961 1.408205
v -0.1761621 0.3051196 5.604771E-17
v -0.176161 -0.3051201 -5.604779E-17
v -0.7715525 -0.4804961 1.408205
v -0.6362216 -0.7059259 1.380802
v -0.3523195 9.196598E-07 1.689332E-22
v -0.176161 -0.3051201 -5.604779E-17
v -0.3724824 -0.7006351 1.366205
v 0.1761621 -0.3051196 -5.604771E-17
v -0.6362216 -0.7059259 1.380802
v 0.1761621 -0.3051196 -5.604771E-17
v -0.2440768 -0.4699073 1.379011
v 0.3523195 -9.196598E-07 -1.689332E-22
v -0.3724824 -0.7006351 1.366205
v -0.4711713 -0.3458576 3.217022
v -0.2440768 -0.4699073 1.379011
v -0.3600477 -0.5347151 3.225297
v -0.3794139 -0.2444718 1.406414
v -0.6431532 -0.2497627 1.421011
v -0.4711713 -0.3458576 3.217022
v -0.6899585 -0.3465278 3.240083
v -0.3794139 -0.2444718 1.406414
v -0.6899585 -0.3465278 3.240083
v -0.7715525 -0.4804961 1.408205
v -0.6431532 -0.2497627 1.421011
v -0.7976186 -0.5360541 3.27142
v -0.2951467 0.2124293 5.118436
v -0.3820626 0.0595578 5.133762
v -0.6362216 -0.7059259 1.380802
v -0.7976186 -0.5360541 3.27142
v -0.6864914 -0.7249102 3.279696
v -0.7715525 -0.4804961 1.408205
v -0.4677078 -0.7242413 3.256635
v -0.6362216 -0.7059259 1.380802
v -0.6864914 -0.7249102 3.279696
v -0.3724824 -0.7006351 1.366205
v -0.3724824 -0.7006351 1.366205
v -0.3600477 -0.5347151 3.225297
v -0.2440768 -0.4699073 1.379011
v -0.4677078 -0.7242413 3.256635
v -0.03439378 0.05956306 5.072458
v -0.1213096 -0.09330848 5.087783
v -0.1213092 0.2124291 5.087783
v -0.3600477 -0.5347151 3.225297
v -0.03439378 0.05956306 5.072458
v -0.4711713 -0.3458576 3.217022
v -0.6899585 -0.3465278 3.240083
v -0.1213092 0.2124291 5.087783
v -0.2951467 0.2124293 5.118436
v -0.4711713 -0.3458576 3.217022
v -0.2951472 -0.09330824 5.118436
v -0.7976186 -0.5360541 3.27142
v -0.3820626 0.0595578 5.133762
v -0.6864914 -0.7249102 3.279696
v -0.1213096 -0.09330848 5.087783
v -0.6864914 -0.7249102 3.279696
v -0.2951472 -0.09330824 5.118436
v -0.4677078 -0.7242413 3.256635
v 0.4705238 -0.9927453 2.322839
v -0.4178782 -0.4035732 2.169855
v -0.380248 -0.4090929 2.008125
v 0.430878 -0.9776266 2.454521
v 1.016739 -1.427726 3.076959
v -0.4810536 -0.5377028 2.24507
v 0.430878 -0.9776266 2.454521
v 0.3469507 -1.070827 2.513241
v -0.4178782 -0.4035732 2.169855
v 0.3423192 -1.194254 2.308598
v -0.5066017 -0.6773449 2.158554
v 0.3026699 -1.179137 2.440279
v -0.4689716 -0.6828645 1.996823
v -0.5148413 -0.5837924 2.2573
v -2.030699 -1.174375 2.750734
v -2.003538 -1.153203 2.857602
v -0.5344884 -0.6075959 2.126047
v -0.5814051 -0.4835555 2.318341
v -2.003538 -1.153203 2.857602
v -2.032964 -1.055764 2.905256
v -2.709466 -1.308463 3.199426
v -0.6676168 -0.4071306 2.248128
v -2.032964 -1.055764 2.905256
v -2.08955 -0.979506 2.846043
v -2.709466 -1.308463 3.199426
v -2.116711 -1.000679 2.739177
v -0.6676168 -0.4071306 2.248128
v -2.08955 -0.979506 2.846043
v -0.687264 -0.4309341 2.116875
v -0.6765836 -0.3989925 2.169855
v -0.3056264 0.7596362 2.322839
v -0.3143547 0.7181119 2.454521
v -0.6770176 -0.3609671 2.008125
v -0.5342199 -0.4404047 2.24507
v -0.3143547 0.7181119 2.454521
v -0.2091731 0.6498003 2.51324
v -0.6765836 -0.3989925 2.169855
v -0.3922991 -0.4437786 2.158554
v -0.2091731 0.6498003 2.51324
v -0.09526329 0.623013 2.440279
v -0.5342199 -0.4404047 2.24507
v -0.3922991 -0.4437786 2.158554
v -0.08653773 0.6645445 2.308598
v -0.3927366 -0.4057546 1.996823
v -0.09526329 0.623013 2.440279
v 0.1460922 1.307536 3.142406
v 0.7672657 -0.509071 3.62391
v 0.4021724 0.9588228 3.901278
v 0.1087563 0.5293736 3.645487
v 1.334645 -0.5133052 3.934943
v 0.1087563 0.5293736 3.645487
v -1.462775 0.9630542 3.962403
v -1.20826 0.5293722 3.645487
v 0.4021724 0.9588228 3.901278
v -1.20826 0.5293722 3.645487
v -2.395246 -0.504841 4.057191
v -1.866766 -0.5090739 3.62391
v -1.462775 0.9630542 3.962403
v -1.866766 -0.5090739 3.62391
v -1.462775 -1.976962 4.090854
v -1.20826 -1.547511 3.602334
v -2.395246 -0.504841 4.057191
v -1.20826 -1.547511 3.602334
v 0.4021717 -1.981193 4.029731
v 0.1087563 -1.54751 3.602334
v -1.462775 -1.976962 4.090854
v 0.1087563 -1.54751 3.602334
v 1.334645 -0.5133052 3.934943
v 0.7672657 -0.509071 3.62391
v 0.4021717 -1.981193 4.029731
v 1.334645 -0.5133052 3.934943
v -0.005101059 0.438676 4.207654
v 0.4021724 0.9588228 3.901278
v 0.5579286 -0.4507434 4.239138
v 0.4021724 0.9588228 3.901278
v -1.131154 0.4440409 4.259824
v -1.462775 0.9630542 3.962403
v -0.005101059 0.438676 4.207654
v -1.462775 0.9630542 3.962403
v -1.694177 -0.4400136 4.343475
v -2.395246 -0.504841 4.057191
v -1.131154 0.4440409 4.259824
v -2.395246 -0.504841 4.057191
v -1.131151 -1.329434 4.374959
v -1.462775 -1.976962 4.090854
v -1.694177 -0.4400136 4.343475
v -1.462775 -1.976962 4.090854
v -0.005098067 -1.334799 4.32279
v 0.4021717 -1.981193 4.029731
v -1.131151 -1.329434 4.374959
v 0.4021717 -1.981193 4.029731
v 0.5579286 -0.4507434 4.239138
v 1.334645 -0.5133052 3.934943
v -0.005098067 -1.334799 4.32279
v 0.1087563 -1.54751 3.602334
v -1.866766 -0.5090739 3.62391
v -1.20826 -1.547511 3.602334
v 0.7672657 -0.509071 3.62391
v -1.20826 0.5293722 3.645487
v 0.1087563 0.5293736 3.645487
v 0.5579286 -0.4507434 4.239138
v 0.2171392 0.7188596 4.530315
v -0.005101059 0.438676 4.207654
v 0.9452449 -0.4128722 4.608938
v -0.005101059 0.438676 4.207654
v -1.239076 0.7306238 4.603034
v -1.131154 0.4440409 4.259824
v 0.2171392 0.7188596 4.530315
v -1.131154 0.4440409 4.259824
v -1.967181 -0.3893423 4.754375
v -1.694177 -0.4400136 4.343475
v -1.239076 0.7306238 4.603034
v -1.694177 -0.4400136 4.343475
v -1.239075 -1.521074 4.832997
v -1.131151 -1.329434 4.374959
v -1.967181 -0.3893423 4.754375
v -1.131151 -1.329434 4.374959
v 0.2171394 -1.532838 4.760278
v -0.005098067 -1.334799 4.32279
v -1.239075 -1.521074 4.832997
v -0.005098067 -1.334799 4.32279
v 0.9452449 -0.4128722 4.608938
v 0.5579286 -0.4507434 4.239138
v 0.2171394 -1.532838 4.760278
v 0.2171392 0.7188596 4.530315
v 0.4765606 -0.3678889 4.887011
v 0.06396276 0.2919461 4.860178
v 0.9452449 -0.4128722 4.608938
v -1.239076 0.7306238 4.603034
v 0.06396276 0.2919461 4.860178
v -0.7612291 0.3048501 4.939966
v 0.2171392 0.7188596 4.530315
v -1.967181 -0.3893423 4.754375
v -0.7612291 0.3048501 4.939966
v -1.173826 -0.3420737 5.046588
v -1.239076 0.7306238 4.603034
v -1.967181 -0.3893423 4.754375
v -0.7612308 -1.001902 5.073423
v -1.239075 -1.521074 4.832997
v -1.173826 -0.3420737 5.046588
v -1.239075 -1.521074 4.832997
v 0.06396382 -1.014813 4.993634
v 0.2171394 -1.532838 4.760278
v -0.7612308 -1.001902 5.073423
v 0.9452449 -0.4128722 4.608938
v 0.06396382 -1.014813 4.993634
v 0.4765606 -0.3678889 4.887011
v 0.2171394 -1.532838 4.760278
v -0.4083411 -0.5977204 5.434425
v 0.1830892 -0.2978052 5.320251
v -0.01405755 -0.6065827 5.379634
v -0.6054841 -0.280075 5.42983
v -0.01405384 0.01984023 5.315658
v -0.4083436 0.02870825 5.370448
v 0.2097315 0.437642 5.058581
v 0.1830892 -0.2978052 5.320251
v -0.01405384 0.01984023 5.315658
v 0.6911589 -0.3373128 5.076013
v -0.7531299 0.4572839 5.18
v -0.01405384 0.01984023 5.315658
v -0.4083436 0.02870825 5.370448
v 0.2097315 0.437642 5.058581
v -1.23456 -0.2980276 5.318851
v -0.4083436 0.02870825 5.370448
v -0.6054841 -0.280075 5.42983
v -0.7531299 0.4572839 5.18
v -0.4083411 -0.5977204 5.434425
v -1.23456 -0.2980276 5.318851
v -0.6054841 -0.280075 5.42983
v -0.7531295 -1.072981 5.336284
v -0.01405755 -0.6065827 5.379634
v -0.7531295 -1.072981 5.336284
v -0.4083411 -0.5977204 5.434425
v 0.2097284 -1.092624 5.214864
v 0.1830892 -0.2978052 5.320251
v 0.2097284 -1.092624 5.214864
v -0.01405755 -0.6065827 5.379634
v 0.6911589 -0.3373128 5.076013
v 0.06396276 0.2919461 4.860178
v 0.6911589 -0.3373128 5.076013
v 0.2097315 0.437642 5.058581
v 0.4765606 -0.3678889 4.887011
v -0.7612291 0.3048501 4.939966
v 0.2097315 0.437642 5.058581
v -0.7531299 0.4572839 5.18
v 0.06396276 0.2919461 4.860178
v -1.173826 -0.3420737 5.046588
v -0.7531299 0.4572839 5.18
v -1.23456 -0.2980276 5.318851
v -0.7612291 0.3048501 4.939966
v -0.7531295 -1.072981 5.336284
v -1.173826 -0.3420737 5.046588
v -1.23456 -0.2980276 5.318851
v -0.7612308 -1.001902 5.073423
v 0.2097284 -1.092624 5.214864
v -0.7612308 -1.001902 5.073423
v -0.7531295 -1.072981 5.336284
v 0.06396382 -1.014813 4.993634
v 0.6911589 -0.3373128 5.076013
v 0.06396382 -1.014813 4.993634
v 0.2097284 -1.092624 5.214864
v 0.4765606 -0.3678889 4.887011
v 1.593858 -0.8388979 2.680583
v 0.6907508 -0.2526548 2.836622
v 0.7649854 -0.6080521 2.692721
v 1.865284 -0.5803844 2.855561
v 0.7649854 -0.6080521 2.692721
v -0.1966015 -1.107334 2.871008
v 0.1398269 -1.213165 2.692722
v 0.6907508 -0.2526548 2.836622
v 0.1398269 -1.213165 2.692722
v 0.09057555 -2.289753 2.924334
v 0.3435378 -2.049117 2.680583
v -0.1966015 -1.107334 2.871008
v 0.3435378 -2.049117 2.680583
v 1.265112 -2.617489 2.943272
v 1.17241 -2.279963 2.668445
v 0.09057555 -2.289753 2.924334
v 1.17241 -2.279963 2.668445
v 2.152465 -1.762802 2.908885
v 1.797569 -1.67485 2.668445
v 1.265112 -2.617489 2.943272
v 1.797569 -1.67485 2.668445
v 1.865284 -0.5803844 2.855561
v 1.593858 -0.8388979 2.680583
v 2.152465 -1.762802 2.908885
v 1.865284 -0.5803844 2.855561
v 0.7560356 -0.7069548 3.00898
v 0.6907508 -0.2526548 2.836622
v 1.465493 -0.9051222 3.026691
v 0.6907508 -0.2526548 2.836622
v 0.2188538 -1.221567 3.038329
v -0.1966015 -1.107334 2.871008
v 0.7560356 -0.7069548 3.00898
v -0.1966015 -1.107334 2.871008
v 0.3911297 -1.934346 3.085389
v 0.09057555 -2.289753 2.924334
v 0.2188538 -1.221567 3.038329
v 0.09057555 -2.289753 2.924334
v 1.100587 -2.132514 3.1031
v 1.265112 -2.617489 2.943272
v 0.3911297 -1.934346 3.085389
v 1.265112 -2.617489 2.943272
v 1.637766 -1.617903 3.073752
v 2.152465 -1.762802 2.908885
v 1.100587 -2.132514 3.1031
v 2.152465 -1.762802 2.908885
v 1.465493 -0.9051222 3.026691
v 1.865284 -0.5803844 2.855561
v 1.637766 -1.617903 3.073752
v 1.797569 -1.67485 2.668445
v 0.3435378 -2.049117 2.680583
v 1.17241 -2.279963 2.668445
v 1.593858 -0.8388979 2.680583
v 0.1398269 -1.213165 2.692722
v 0.7649854 -0.6080521 2.692721
v 1.465493 -0.9051222 3.026691
v 0.7222228 -0.4609225 3.190499
v 0.7560356 -0.7069548 3.00898
v 1.630515 -0.7077127 3.234729
v 0.7560356 -0.7069548 3.00898
v 0.0251396 -1.123947 3.231409
v 0.2188538 -1.221567 3.038329
v 0.7222228 -0.4609225 3.190499
v 0.2188538 -1.221567 3.038329
v 0.2363494 -2.033753 3.316548
v 0.3911297 -1.934346 3.085389
v 0.0251396 -1.123947 3.231409
v 0.3911297 -1.934346 3.085389
v 1.144635 -2.280538 3.360778
v 1.100587 -2.132514 3.1031
v 0.2363494 -2.033753 3.316548
v 1.100587 -2.132514 3.1031
v 1.841718 -1.617513 3.31987
v 1.637766 -1.617903 3.073752
v 1.144635 -2.280538 3.360778
v 1.637766 -1.617903 3.073752
v 1.630515 -0.7077127 3.234729
v 1.465493 -0.9051222 3.026691
v 1.841718 -1.617513 3.31987
v 0.7222228 -0.4609225 3.190499
v 1.385673 -0.899945 3.391165
v 0.8617705 -0.750589 3.37607
v 1.630515 -0.7077127 3.234729
v 0.0251396 -1.123947 3.231409
v 0.8617705 -0.750589 3.37607
v 0.4636508 -1.123096 3.420956
v 0.7222228 -0.4609225 3.190499
v 0.2363494 -2.033753 3.316548
v 1.113337 -1.794315 3.496035
v 1.144635 -2.280538 3.360778
v 0.5894341 -1.644959 3.480939
v 1.144635 -2.280538 3.360778
v 1.51146 -1.421807 3.451148
v 1.841718 -1.617513 3.31987
v 1.113337 -1.794315 3.496035
v 1.630515 -0.7077127 3.234729
v 1.51146 -1.421807 3.451148
v 1.385673 -0.899945 3.391165
v 1.841718 -1.617513 3.31987
v 1.385673 -0.899945 3.391165
v 0.4636508 -1.123096 3.420956
v 0.8617705 -0.750589 3.37607
v 0.5894341 -1.644959 3.480939
v 1.51146 -1.421807 3.451148
v 1.113337 -1.794315 3.496035
v -1.851506 -1.80924 2.975711
v -1.422369 -0.841462 3.086738
v -1.755925 -0.968659 2.984348
v -1.558415 -2.032682 3.100214
v -1.755925 -0.968659 2.984348
v -2.389834 -0.1124558 3.111206
v -2.440405 -0.4555193 2.984348
v -1.422369 -0.841462 3.086738
v -2.440405 -0.4555193 2.984348
v -3.493345 -0.5746695 3.149148
v -3.220468 -0.7829601 2.975711
v -2.389834 -0.1124558 3.111206
v -3.220468 -0.7829601 2.975711
v -3.629388 -1.765896 3.162623
v -3.316049 -1.623541 2.967075
v -3.493345 -0.5746695 3.149148
v -3.316049 -1.623541 2.967075
v -2.661923 -2.494903 3.138156
v -2.631569 -2.13668 2.967075
v -3.629388 -1.765896 3.162623
v -2.631569 -2.13668 2.967075
v -1.558415 -2.032682 3.100214
v -1.851506 -1.80924 2.975711
v -2.661923 -2.494903 3.138156
v -1.558415 -2.032682 3.100214
v -1.853339 -0.9753007 3.209376
v -1.422369 -0.841462 3.086738
v -1.935716 -1.694872 3.221979
v -1.422369 -0.841462 3.086738
v -2.43631 -0.5335476 3.230258
v -2.389834 -0.1124558 3.111206
v -1.853339 -0.9753007 3.209376
v -2.389834 -0.1124558 3.111206
v -3.101654 -0.8113649 3.263743
v -3.493345 -0.5746695 3.149148
v -2.43631 -0.5335476 3.230258
v -3.493345 -0.5746695 3.149148
v -3.184031 -1.530937 3.276346
v -3.629388 -1.765896 3.162623
v -3.101654 -0.8113649 3.263743
v -3.629388 -1.765896 3.162623
v -2.60106 -1.97269 3.255463
v -2.661923 -2.494903 3.138156
v -3.184031 -1.530937 3.276346
v -2.661923 -2.494903 3.138156
v -1.935716 -1.694872 3.221979
v -1.558415 -2.032682 3.100214
v -2.60106 -1.97269 3.255463
v -2.631569 -2.13668 2.967075
v -3.220468 -0.7829601 2.975711
v -3.316049 -1.623541 2.967075
v -1.851506 -1.80924 2.975711
v -2.440405 -0.4555193 2.984348
v -1.755925 -0.968659 2.984348
v -1.935716 -1.694872 3.221979
v -1.619704 -0.9043205 3.338532
v -1.853339 -0.9753007 3.209376
v -1.718448 -1.824484 3.370004
v -1.853339 -0.9753007 3.209376
v -2.371569 -0.3303277 3.367641
v -2.43631 -0.5335476 3.230258
v -1.619704 -0.9043205 3.338532
v -2.43631 -0.5335476 3.230258
v -3.222175 -0.6764973 3.42822
v -3.101654 -0.8113649 3.263743
v -2.371569 -0.3303277 3.367641
v -3.101654 -0.8113649 3.263743
v -3.320917 -1.596668 3.459692
v -3.184031 -1.530937 3.276346
v -3.222175 -0.6764973 3.42822
v -3.184031 -1.530937 3.276346
v -2.569054 -2.170654 3.430583
v -2.60106 -1.97269 3.255463
v -3.320917 -1.596668 3.459692
v -2.60106 -1.97269 3.255463
v -1.718448 -1.824484 3.370004
v -1.935716 -1.694872 3.221979
v -2.569054 -2.170654 3.430583
v -1.619704 -0.9043205 3.338532
v -1.943069 -1.616571 3.481313
v -1.879307 -1.084729 3.470572
v -1.718448 -1.824484 3.370004
v -2.371569 -0.3303277 3.367641
v -1.879307 -1.084729 3.470572
v -2.302736 -0.7559586 3.50251
v -1.619704 -0.9043205 3.338532
v -3.222175 -0.6764973 3.42822
v -2.302736 -0.7559586 3.50251
v -2.789922 -0.9590291 3.54519
v -2.371569 -0.3303277 3.367641
v -3.222175 -0.6764973 3.42822
v -2.853681 -1.49087 3.555932
v -3.320917 -1.596668 3.459692
v -2.789922 -0.9590291 3.54519
v -3.320917 -1.596668 3.459692
v -2.430256 -1.819641 3.523993
v -2.569054 -2.170654 3.430583
v -2.853681 -1.49087 3.555932
v -1.718448 -1.824484 3.370004
v -2.430256 -1.819641 3.523993
v -1.943069 -1.616571 3.481313
v -2.569054 -2.170654 3.430583
v -1.943069 -1.616571 3.481313
v -2.302736 -0.7559586 3.50251
v -1.879307 -1.084729 3.470572
v -2.789922 -0.9590291 3.54519
v -2.430256 -1.819641 3.523993
v -2.853681 -1.49087 3.555932
v 0.615275 0.8528302 2.936418
v 0.9478739 1.602907 3.071658
v 0.6893519 1.504322 2.946939
v 0.8424333 0.6796558 3.088072
v 0.6893519 1.504322 2.946939
v 0.1980455 2.167914 3.101461
v 0.1588511 1.902024 2.946939
v 0.9478739 1.602907 3.071658
v 0.1588511 1.902024 2.946939
v -0.6572227 1.809678 3.147678
v -0.445732 1.648249 2.936418
v 0.1980455 2.167914 3.101461
v -0.445732 1.648249 2.936418
v -0.7626633 0.8864264 3.164093
v -0.5198089 0.9967569 2.925898
v -0.6572227 1.809678 3.147678
v -0.5198089 0.9967569 2.925898
v -0.0128321 0.3214124 3.134289
v 0.01068831 0.5990535 2.925898
v -0.7626633 0.8864264 3.164093
v 0.01068831 0.5990535 2.925898
v 0.8424333 0.6796558 3.088072
v 0.615275 0.8528302 2.936418
v -0.0128321 0.3214124 3.134289
v 0.8424333 0.6796558 3.088072
v 0.6138528 1.499169 3.221041
v 0.9478739 1.602907 3.071658
v 0.5500074 0.9414736 3.236392
v 0.9478739 1.602907 3.071658
v 0.1620271 1.841548 3.246478
v 0.1980455 2.167914 3.101461
v 0.6138528 1.499169 3.221041
v 0.1980455 2.167914 3.101461
v -0.3536475 1.626229 3.287265
v -0.6572227 1.809678 3.147678
v 0.1620271 1.841548 3.246478
v -0.6572227 1.809678 3.147678
v -0.4174902 1.068526 3.302616
v -0.7626633 0.8864264 3.164093
v -0.3536475 1.626229 3.287265
v -0.7626633 0.8864264 3.164093
v 0.03433552 0.7261478 3.27718
v -0.0128321 0.3214124 3.134289
v -0.4174902 1.068526 3.302616
v -0.0128321 0.3214124 3.134289
v 0.5500074 0.9414736 3.236392
v 0.8424333 0.6796558 3.088072
v 0.03433552 0.7261478 3.27718
v 0.01068831 0.5990535 2.925898
v -0.445732 1.648249 2.936418
v -0.5198089 0.9967569 2.925898
v 0.615275 0.8528302 2.936418
v 0.1588511 1.902024 2.946939
v 0.6893519 1.504322 2.946939
v 0.03433552 0.7261478 3.27718
v 0.6138528 1.499169 3.221041
v 0.5500074 0.9414736 3.236392
v 0.1620271 1.841548 3.246478
v -0.4174902 1.068526 3.302616
v -0.3536475 1.626229 3.287265

vn -0.2144775 -0.949707 0.2288818
vn -0.2144775 -0.949707 0.2288818
vn -0.2144775 -0.949707 0.2288818
vn -0.1680908 -0.9492188 0.2666016
vn -0.1680908 -0.9492188 0.2666016
vn -0.1680908 -0.9492188 0.2666016
vn -0.1409912 0.8022461 -0.5795898
vn -0.1409912 0.8022461 -0.5795898
vn -0.1409912 0.8022461 -0.5795898
vn -0.1820068 0.7739258 -0.6064453
vn -0.1820068 0.7739258 -0.6064453
vn -0.1820068 0.7739258 -0.6064453
vn -0.5688477 -0.6748047 0.4702148
vn -0.5688477 -0.6748047 0.4702148
vn -0.5688477 -0.6748047 0.4702148
vn 0.706543 0.7075195 0.01300049
vn 0.706543 0.7075195 0.01300049
vn 0.706543 0.7075195 0.01300049
vn 0.0713501 0.6992188 -0.7114258
vn 0.0713501 0.6992188 -0.7114258
vn 0.0713501 0.6992188 -0.7114258
vn -0.7587891 0.007423401 -0.6513672
vn -0.7587891 0.007423401 -0.6513672
vn -0.7587891 0.007423401 -0.6513672
vn -0.3781738 0.8666992 0.3254395
vn -0.3781738 0.8666992 0.3254395
vn -0.3781738 0.8666992 0.3254395
vn 0.6352539 0.7241211 0.2675781
vn 0.6352539 0.7241211 0.2675781
vn 0.6352539 0.7241211 0.2675781
vn -0.08966064 -0.9238281 -0.3725586
vn -0.08966064 -0.9238281 -0.3725586
vn -0.08966064 -0.9238281 -0.3725586
vn -0.1674805 -0.9179688 -0.359375
vn -0.1674805 -0.9179688 -0.359375
vn -0.1674805 -0.9179688 -0.359375
vn -0.9882813 0.1210327 -0.09289551
vn -0.9882813 0.1210327 -0.09289551
vn -0.9882813 0.1210327 -0.09289551
vn 0.9882813 -0.0480957 -0.1435547
vn 0.9882813 -0.0480957 -0.1435547
vn 0.9882813 -0.0480957 -0.1435547
vn -0.1008301 -0.8227539 -0.559082
vn -0.1008301 -0.8227539 -0.559082
vn -0.1008301 -0.8227539 -0.559082
vn 0.2287598 -0.9628906 0.1445313
vn 0.2287598 -0.9628906 0.1445313
vn 0.2287598 -0.9628906 0.1445313
vn 0.2496338 -0.9628906 0.100647
vn 0.2496338 -0.9628906 0.100647
vn 0.2496338 -0.9628906 0.100647
vn 0.5771484 -0.6342773 0.5146484
vn 0.5771484 -0.6342773 0.5146484
vn 0.5771484 -0.6342773 0.5146484
vn 0.7958984 0.1107788 -0.5957031
vn 0.7958984 0.1107788 -0.5957031
vn 0.7958984 0.1107788 -0.5957031
vn -0.09790039 0.7075195 -0.699707
vn -0.09790039 0.7075195 -0.699707
vn -0.09790039 0.7075195 -0.699707
vn -0.7705078 0.6362305 -0.04553223
vn -0.7705078 0.6362305 -0.04553223
vn -0.7705078 0.6362305 -0.04553223
vn 0.1456299 0.9121094 -0.3837891
vn 0.1419678 0.9145508 -0.3789063
vn 0.1542969 0.9057617 -0.3947754
vn 0.1419678 0.9145508 -0.3789063
vn 0.1456299 0.9121094 -0.3837891
vn 0.1369629 0.9179688 -0.3725586
vn 0.1365967 0.4733887 0.8701172
vn 0.1365967 0.4733887 0.8701172
vn 0.1365967 0.4733887 0.8701172
vn 0.1020508 0.4760742 0.8735352
vn 0.8686523 0.3642578 0.3364258
vn 0.8686523 0.3642578 0.3364258
vn 0.8686523 0.3642578 0.3364258
vn 0.8691406 0.3640137 0.3349609
vn 0.7675781 -0.09185791 -0.6342773
vn 0.7675781 -0.09185791 -0.6342773
vn 0.7675781 -0.09185791 -0.6342773
vn 0.7749023 -0.08898926 -0.6259766
vn -0.1170654 -0.3959961 -0.9106445
vn -0.1170654 -0.3959961 -0.9106445
vn -0.1170654 -0.3959961 -0.9106445
vn -0.1425781 -0.3937988 -0.9082031
vn -0.8964844 -0.2780762 -0.345459
vn -0.8964844 -0.2780762 -0.345459
vn -0.8964844 -0.2780762 -0.345459
vn -0.8979492 -0.2775879 -0.3417969
vn -0.762207 0.2000732 0.6157227
vn -0.762207 0.2000732 0.6157227
vn -0.762207 0.2000732 0.6157227
vn -0.7583008 0.201416 0.6196289
vn 0.1655273 0.07171631 0.9833984
vn 0.1655273 0.07171631 0.9833984
vn 0.1655273 0.07171631 0.9833984
vn 0.1640625 0.07189941 0.9838867
vn 0.9306641 0.05319214 0.3615723
vn 0.9306641 0.05319214 0.3615723
vn 0.9306641 0.05319214 0.3615723
vn 0.9375 0.05505371 0.3432617
vn 0.7739258 0.002576828 -0.6333008
vn 0.7739258 0.002576828 -0.6333008
vn 0.7680664 0.003372192 -0.640625
vn 0.7739258 0.002576828 -0.6333008
vn 0.7753906 0.03469849 -0.6308594
vn 0.7753906 0.03469849 -0.6308594
vn -0.1641846 -0.02787781 -0.9858398
vn -0.1641846 -0.02787781 -0.9858398
vn -0.1641846 -0.02787781 -0.9858398
vn -0.1690674 -0.02728271 -0.9853516
vn -0.9335938 -0.009941101 -0.357666
vn -0.9335938 -0.009941101 -0.357666
vn -0.9335938 -0.009941101 -0.357666
vn -0.9399414 -0.01150513 -0.3415527
vn -0.7695313 0.03781128 0.637207
vn -0.7695313 0.03781128 0.637207
vn -0.7685547 0.03768921 0.6386719
vn -0.7695313 0.03781128 0.637207
vn -0.7734375 0.005664825 0.6337891
vn -0.7734375 0.005664825 0.6337891
vn 0.1676025 -0.3024902 0.9384766
vn 0.1676025 -0.3024902 0.9384766
vn 0.1676025 -0.3024902 0.9384766
vn 0.1447754 -0.2966309 0.9438477
vn 0.9072266 -0.2800293 0.3139648
vn 0.9130859 -0.2758789 0.3010254
vn 0.9130859 -0.2753906 0.3000488
vn 0.9067383 -0.2802734 0.3146973
vn -0.1688232 0.3361816 -0.9262695
vn -0.1688232 0.3361816 -0.9262695
vn -0.1688232 0.3361816 -0.9262695
vn -0.1413574 0.3347168 -0.9316406
vn -0.9038086 0.314209 -0.2905273
vn -0.8969727 0.3190918 -0.3054199
vn -0.9042969 0.3137207 -0.2893066
vn -0.8964844 0.3193359 -0.3063965
vn 0.5854492 0.06750488 0.8081055
vn 0.5854492 0.06750488 0.8081055
vn 0.5874023 0.09674072 0.8037109
vn 0.5854492 0.06750488 0.8081055
vn 0.5708008 0.07299805 0.8178711
vn 0.4536133 0.862793 0.2227783
vn 0.4536133 0.862793 0.2227783
vn 0.4536133 0.862793 0.2227783
vn 0.435791 0.8774414 0.1993408
vn -0.6157227 -0.05575562 -0.7861328
vn -0.6157227 -0.05575562 -0.7861328
vn -0.6157227 -0.05575562 -0.7861328
vn -0.6181641 -0.08862305 -0.78125
vn -0.9960938 0.08410645 0.02909851
vn -0.9960938 0.08410645 0.02909851
vn -0.9960938 0.08410645 0.02909851
vn -0.9936523 0.1072388 0.03610229
vn -0.421875 0.8476563 0.3220215
vn -0.421875 0.8476563 0.3220215
vn -0.421875 0.8476563 0.3220215
vn -0.4204102 0.8417969 0.338623
vn 0.5751953 0.7646484 0.2897949
vn 0.5751953 0.7646484 0.2897949
vn 0.5751953 0.7646484 0.2897949
vn 0.5756836 0.7553711 0.3137207
vn 0.9956055 -0.07904053 -0.04553223
vn 0.9956055 -0.07904053 -0.04553223
vn 0.9956055 -0.07904053 -0.04553223
vn 0.9931641 -0.1036987 -0.05322266
vn 0.6235352 0.03173828 -0.78125
vn 0.6235352 0.03173828 -0.78125
vn 0.6235352 0.03173828 -0.78125
vn 0.6181641 0.07208252 -0.7827148
vn 0.131958 0.8554688 -0.5004883
vn 0.131958 0.8554688 -0.5004883
vn 0.131958 0.8554688 -0.5004883
vn 0.1108398 0.8740234 -0.4729004
vn -0.4812012 0.8256836 0.2949219
vn -0.4812012 0.8256836 0.2949219
vn -0.4812012 0.8256836 0.2949219
vn -0.4931641 0.8056641 0.3276367
vn -0.5927734 -0.01916504 0.8051758
vn -0.5927734 -0.01916504 0.8051758
vn -0.5869141 -0.06317139 0.8071289
vn -0.5927734 -0.01916504 0.8051758
vn -0.625 -0.03231812 0.7797852
vn 0.09240723 -0.8500977 0.5185547
vn 0.1013794 -0.8720703 0.4787598
vn 0.1066895 -0.8842773 0.4545898
vn 0.08935547 -0.8422852 0.5317383
vn 0.5078125 -0.8442383 0.1715088
vn 0.5366211 -0.8198242 0.1988525
vn 0.550293 -0.8076172 0.2121582
vn 0.4995117 -0.8505859 0.1639404
vn 0.4746094 -0.7880859 -0.3918457
vn 0.5332031 -0.7451172 -0.401123
vn 0.5688477 -0.715332 -0.4060059
vn 0.4501953 -0.8046875 -0.3874512
vn -0.1472168 -0.7026367 -0.6958008
vn -0.1395264 -0.684082 -0.7158203
vn -0.1339111 -0.6704102 -0.7299805
vn -0.1508789 -0.7114258 -0.6865234
vn -0.6806641 -0.6757813 -0.282959
vn -0.6660156 -0.6972656 -0.2651367
vn -0.6547852 -0.7124023 -0.2524414
vn -0.6865234 -0.6669922 -0.2897949
vn -0.5268555 -0.7734375 0.3520508
vn -0.46875 -0.8149414 0.3408203
vn -0.421875 -0.8442383 0.3310547
vn -0.550293 -0.7553711 0.355957
vn 0.109436 0.8945313 0.4338379
vn 0.1052246 0.8974609 0.4284668
vn 0.102356 0.8994141 0.4248047
vn 0.1148682 0.8901367 0.440918
vn 0.4467773 0.8691406 0.2125244
vn 0.4606934 0.8618164 0.2115479
vn 0.4663086 0.8588867 0.2111816
vn 0.4343262 0.875 0.2132568
vn 0.4064941 0.8862305 -0.2230225
vn 0.4145508 0.8774414 -0.241333
vn 0.418457 0.8730469 -0.2504883
vn 0.3986816 0.8935547 -0.2055664
vn -0.05740356 0.9111328 -0.4074707
vn -0.06222534 0.9086914 -0.4133301
vn -0.06518555 0.9067383 -0.416748
vn -0.05194092 0.9145508 -0.401123
vn -0.395752 0.9111328 -0.1141968
vn -0.3864746 0.9150391 -0.1151733
vn -0.3813477 0.9169922 -0.1157227
vn -0.4050293 0.9072266 -0.1131592
vn -0.286377 0.9130859 0.2897949
vn -0.2807617 0.9189453 0.2768555
vn -0.2763672 0.9233398 0.2670898
vn -0.2937012 0.9052734 0.3066406
vn 0.01937866 -1 0.007472992
vn 0.01937866 -1 0.007472992
vn 0.01937866 -1 0.007472992
vn 0.01937866 -1 0.007472992
vn 0.01937866 -1 0.007472992
vn 0.01937866 -1 0.007472992
vn 0.107666 -0.6982422 0.7075195
vn 0.1119385 -0.7114258 0.6938477
vn 0.114502 -0.7192383 0.6855469
vn 0.105957 -0.6933594 0.7128906
vn 0.7216797 -0.6455078 0.25
vn 0.7216797 -0.6455078 0.25
vn 0.7216797 -0.6455078 0.25
vn 0.7216797 -0.6450195 0.2502441
vn 0.6357422 -0.5556641 -0.5356445
vn 0.6464844 -0.5444336 -0.534668
vn 0.6518555 -0.5380859 -0.5341797
vn 0.6318359 -0.5600586 -0.5356445
vn -0.2038574 -0.423584 -0.8823242
vn -0.1956787 -0.4033203 -0.894043
vn -0.19104 -0.3916016 -0.8999023
vn -0.2071533 -0.4318848 -0.8779297
vn -0.8481445 -0.3933105 -0.3549805
vn -0.8466797 -0.3991699 -0.3522949
vn -0.8457031 -0.4025879 -0.3505859
vn -0.8486328 -0.3911133 -0.355957
vn -0.6962891 -0.5737305 0.4311523
vn -0.6757813 -0.5996094 0.4284668
vn -0.6606445 -0.6181641 0.4262695
vn -0.7055664 -0.5615234 0.4321289
vn 0.159668 0.7592773 0.6308594
vn 0.1671143 0.7734375 0.6113281
vn 0.1519775 0.7436523 0.6513672
vn 0.1707764 0.7807617 0.6010742
vn 0.5751953 0.7641602 0.2915039
vn 0.5571289 0.7851563 0.2712402
vn 0.5986328 0.7348633 0.3183594
vn 0.5444336 0.7983398 0.2578125
vn 0.4431152 0.8764648 -0.1872559
vn 0.4377441 0.8793945 -0.1868896
vn 0.4592285 0.8681641 -0.1885986
vn 0.4279785 0.8842773 -0.1860352
vn -0.02722168 0.9331055 -0.3591309
vn -0.02330017 0.9345703 -0.3552246
vn -0.01605225 0.9370117 -0.3483887
vn -0.03903198 0.9282227 -0.3706055
vn -0.4345703 0.8950195 -0.1016846
vn -0.4082031 0.9072266 -0.1031494
vn -0.3884277 0.9155273 -0.104187
vn -0.4724121 0.8754883 -0.09936523
vn -0.359375 0.8442383 0.3974609
vn -0.3803711 0.8344727 0.3986816
vn -0.3369141 0.8544922 0.395752
vn -0.3913574 0.8291016 0.3991699
vn 0.04382324 0.9853516 0.1660156
vn 0.04382324 0.9853516 0.1660156
vn 0.04382324 0.9853516 0.1660156
vn 0.04382324 0.9853516 0.1660156
vn 0.04382324 0.9853516 0.1660156
vn 0.04382324 0.9853516 0.1660156
vn 0.1112671 0.8525391 0.5107422
vn 0.1116943 0.8530273 0.5102539
vn 0.1083984 0.8500977 0.5151367
vn 0.1131592 0.8540039 0.5078125
vn 0.4025879 0.8686523 0.2883301
vn 0.4013672 0.8701172 0.286377
vn 0.4089355 0.862793 0.2978516
vn 0.3981934 0.8730469 0.2817383
vn 0.3283691 0.9428711 -0.05758667
vn 0.3283691 0.9428711 -0.05761719
vn 0.3352051 0.9404297 -0.05752563
vn 0.324707 0.9438477 -0.05764771
vn -0.0189209 0.9819336 -0.1876221
vn -0.01899719 0.9819336 -0.1876221
vn -0.02416992 0.980957 -0.1920166
vn -0.01612854 0.9824219 -0.1853027
vn -0.2998047 0.9541016 0.01101685
vn -0.3017578 0.953125 0.01139832
vn -0.3129883 0.949707 0.01383209
vn -0.2941895 0.9555664 0.009811401
vn -0.2512207 0.8979492 0.3608398
vn -0.2514648 0.8979492 0.3613281
vn -0.2529297 0.8955078 0.3664551
vn -0.2504883 0.8994141 0.3581543
vn 0.1160278 -0.7128906 0.6914063
vn 0.1084595 -0.7241211 0.6811523
vn 0.1183472 -0.7094727 0.6948242
vn 0.1051636 -0.7290039 0.6762695
vn 0.8012695 -0.5400391 0.2565918
vn 0.7866211 -0.5615234 0.2556152
vn 0.8056641 -0.5341797 0.2565918
vn 0.7802734 -0.5708008 0.2553711
vn 0.7509766 -0.2668457 -0.6040039
vn 0.75 -0.2751465 -0.6015625
vn 0.7509766 -0.2644043 -0.6049805
vn 0.7495117 -0.2788086 -0.6005859
vn -0.1912842 -0.1140137 -0.9750977
vn -0.1885986 -0.1054688 -0.9765625
vn -0.1878662 -0.1030884 -0.9765625
vn -0.1923828 -0.1174316 -0.9741211
vn -0.8740234 -0.2939453 -0.3867188
vn -0.8798828 -0.2663574 -0.3937988
vn -0.8808594 -0.2592773 -0.395752
vn -0.871582 -0.3054199 -0.3835449
vn -0.6855469 -0.6103516 0.3969727
vn -0.6958008 -0.5957031 0.4006348
vn -0.6992188 -0.5913086 0.4018555
vn -0.6806641 -0.6166992 0.3952637
vn 0.3635254 -0.8876953 0.2824707
vn 0.3422852 -0.90625 0.2486572
vn 0.3300781 -0.9155273 0.2294922
vn 0.3696289 -0.8818359 0.2924805
vn 0.4033203 -0.8945313 -0.1929932
vn 0.4404297 -0.8764648 -0.1942139
vn 0.4589844 -0.8666992 -0.1947021
vn 0.3925781 -0.8994141 -0.192627
vn 0.04165649 -0.8383789 -0.543457
vn 0.07427979 -0.7993164 -0.5966797
vn 0.09191895 -0.7758789 -0.6240234
vn 0.03086853 -0.8505859 -0.5249023
vn -0.5209961 -0.765625 -0.3779297
vn -0.5317383 -0.746582 -0.3999023
vn -0.5380859 -0.734375 -0.4133301
vn -0.5166016 -0.7724609 -0.3696289
vn -0.6069336 -0.7583008 0.2374268
vn -0.581543 -0.777832 0.2386475
vn -0.5639648 -0.7900391 0.2393799
vn -0.6162109 -0.7509766 0.2369385
vn -0.1000366 -0.8251953 0.5561523
vn -0.06848145 -0.8618164 0.5024414
vn -0.04785156 -0.8833008 0.4663086
vn -0.1106567 -0.8115234 0.5737305
vn 0.3190918 0.9233398 0.2139893
vn 0.3125 0.9257813 0.2126465
vn 0.3085938 0.9272461 0.2119141
vn 0.326416 0.9204102 0.2154541
vn 0.3884277 0.9125977 -0.1282959
vn 0.3967285 0.9077148 -0.1373291
vn 0.4003906 0.9052734 -0.1412354
vn 0.3806152 0.9169922 -0.1199951
vn 0.1025391 0.9179688 -0.3828125
vn 0.09625244 0.9111328 -0.401123
vn 0.09344482 0.9077148 -0.4091797
vn 0.1080322 0.9243164 -0.3664551
vn -0.2712402 0.9355469 -0.2261963
vn -0.2780762 0.9331055 -0.2272949
vn -0.2817383 0.9321289 -0.2279053
vn -0.2644043 0.9379883 -0.2250977
vn -0.2949219 0.9423828 0.1591797
vn -0.2900391 0.9448242 0.1533203
vn -0.2871094 0.9462891 0.1495361
vn -0.300293 0.9394531 0.1656494
vn 0.006355286 0.9360352 0.3515625
vn 0.001760483 0.940918 0.3388672
vn -0.00133419 0.9438477 0.3303223
vn 0.01193237 0.9301758 0.3671875
vn 0.0150528 -1 -0.006385803
vn 0.0150528 -1 -0.006385803
vn 0.0150528 -1 -0.006385803
vn 0.0150528 -1 -0.006385803
vn 0.0150528 -1 -0.006385803
vn 0.0150528 -1 -0.006385803
vn 0.5048828 -0.7587891 0.4116211
vn 0.496582 -0.7714844 0.3974609
vn 0.4924316 -0.777832 0.3901367
vn 0.5073242 -0.7543945 0.4162598
vn 0.6171875 -0.7314453 -0.2893066
vn 0.6171875 -0.7319336 -0.2893066
vn 0.6171875 -0.7319336 -0.2893066
vn 0.6176758 -0.7314453 -0.2893066
vn 0.0536499 -0.625 -0.7788086
vn 0.06161499 -0.6123047 -0.7880859
vn 0.06488037 -0.6069336 -0.7919922
vn 0.0513916 -0.628418 -0.7763672
vn -0.7138672 -0.4916992 -0.4987793
vn -0.71875 -0.4663086 -0.515625
vn -0.7207031 -0.4550781 -0.5229492
vn -0.7124023 -0.4990234 -0.4936523
vn -0.8193359 -0.4772949 0.3178711
vn -0.8149414 -0.484375 0.3186035
vn -0.8125 -0.487793 0.3188477
vn -0.8203125 -0.4753418 0.317627
vn -0.15979 -0.644043 0.7480469
vn -0.1462402 -0.671875 0.7260742
vn -0.1381836 -0.6879883 0.7128906
vn -0.1646729 -0.6337891 0.7558594
vn 0.4821777 0.8139648 0.3237305
vn 0.4719238 0.8276367 0.3032227
vn 0.4914551 0.8007813 0.3425293
vn 0.4675293 0.8334961 0.2946777
vn 0.5297852 0.8330078 -0.1591797
vn 0.5029297 0.8491211 -0.1604004
vn 0.5664063 0.809082 -0.1572266
vn 0.4846191 0.8598633 -0.1611328
vn -0.2249756 0.9511719 -0.2116699
vn -0.2194824 0.9526367 -0.2113037
vn -0.2115479 0.9541016 -0.2109375
vn -0.2381592 0.9477539 -0.2122803
vn -0.3115234 0.9306641 0.19104
vn -0.296875 0.9389648 0.1748047
vn -0.2844238 0.9448242 0.1612549
vn -0.3347168 0.9169922 0.2167969
vn 0.02886963 0.8823242 0.4699707
vn 0.01628113 0.8735352 0.4863281
vn 0.0401001 0.8896484 0.4553223
vn 0.01059723 0.8696289 0.4936523
vn 0.105957 0.9931641 0.04534912
vn 0.105957 0.9931641 0.04534912
vn 0.105957 0.9931641 0.04534912
vn 0.105957 0.9931641 0.04534912
vn 0.105957 0.9931641 0.04534912
vn 0.105957 0.9931641 0.04534912
vn -0.1694336 -0.9360352 0.3083496
vn -0.1445313 -0.9477539 0.2851563
vn -0.1314697 -0.953125 0.2729492
vn -0.1762695 -0.9326172 0.3146973
vn 0.1933594 -0.9404297 0.2792969
vn 0.2005615 -0.9291992 0.310791
vn 0.2039795 -0.9233398 0.3256836
vn 0.1914063 -0.9433594 0.2712402
vn 0.4226074 -0.9057617 -0.0352478
vn 0.4794922 -0.8774414 -0.01589966
vn 0.5073242 -0.8618164 -0.006175995
vn 0.4064941 -0.9125977 -0.04064941
vn 0.2342529 -0.8549805 -0.4628906
vn 0.2541504 -0.8398438 -0.4797363
vn 0.2646484 -0.831543 -0.4887695
vn 0.2282715 -0.859375 -0.4577637
vn -0.2678223 -0.8486328 -0.456543
vn -0.2626953 -0.8637695 -0.4301758
vn -0.2597656 -0.8720703 -0.4147949
vn -0.2692871 -0.84375 -0.4643555
vn -0.4458008 -0.8950195 -0.009254456
vn -0.390625 -0.9204102 0.00933075
vn -0.3579102 -0.9335938 0.02009583
vn -0.4619141 -0.8867188 -0.0148468
vn -0.1208496 0.9575195 0.2617188
vn -0.1204834 0.9589844 0.2563477
vn -0.1202393 0.9599609 0.253418
vn -0.1212158 0.9560547 0.2678223
vn 0.1416016 0.9511719 0.2739258
vn 0.1500244 0.9482422 0.2800293
vn 0.1534424 0.9467773 0.2824707
vn 0.1343994 0.9536133 0.2687988
vn 0.2961426 0.9545898 0.03088379
vn 0.310791 0.9501953 0.02381897
vn 0.3166504 0.9482422 0.02098083
vn 0.2841797 0.9580078 0.03665161
vn 0.1347656 0.9648438 -0.2264404
vn 0.1348877 0.9633789 -0.2320557
vn 0.1350098 0.9624023 -0.2348633
vn 0.1346436 0.9658203 -0.2210693
vn -0.1516113 0.9682617 -0.197998
vn -0.1463623 0.9697266 -0.1948242
vn -0.1433105 0.9707031 -0.1928711
vn -0.1571045 0.9667969 -0.2012939
vn -0.2585449 0.9648438 0.04614258
vn -0.2486572 0.9677734 0.04098511
vn -0.2425537 0.9692383 0.03771973
vn -0.2697754 0.9614258 0.05212402
vn 0.006278992 -1 0.01002502
vn 0.006282806 -1 0.01002502
vn 0.006278992 -1 0.01002502
vn 0.006282806 -1 0.01002502
vn 0.006282806 -1 0.01002502
vn 0.006282806 -1 0.01002502
vn -0.2653809 -0.8491211 0.4567871
vn -0.2526855 -0.8588867 0.4450684
vn -0.2470703 -0.8632813 0.4399414
vn -0.2687988 -0.8461914 0.4597168
vn 0.314209 -0.8291016 0.4626465
vn 0.3139648 -0.8291016 0.4621582
vn 0.3139648 -0.8291016 0.4621582
vn 0.314209 -0.8291016 0.4626465
vn 0.6674805 -0.7421875 -0.06030273
vn 0.6811523 -0.7299805 -0.05456543
vn 0.6855469 -0.7260742 -0.05267334
vn 0.6645508 -0.7446289 -0.06149292
vn 0.3427734 -0.6166992 -0.7084961
vn 0.3630371 -0.5869141 -0.7236328
vn 0.3696289 -0.5771484 -0.7285156
vn 0.3388672 -0.6225586 -0.7055664
vn -0.4033203 -0.6000977 -0.690918
vn -0.4023438 -0.6079102 -0.6845703
vn -0.4018555 -0.6113281 -0.6821289
vn -0.4035645 -0.5981445 -0.6923828
vn -0.6523438 -0.7568359 -0.03442383
vn -0.6220703 -0.7827148 -0.02482605
vn -0.6069336 -0.7949219 -0.0201416
vn -0.6611328 -0.7495117 -0.03713989
vn -0.1928711 0.8881836 0.4169922
vn -0.1760254 0.8979492 0.402832
vn -0.2071533 0.8793945 0.4287109
vn -0.1700439 0.9013672 0.3979492
vn 0.1887207 0.9008789 0.3908691
vn 0.1845703 0.9125977 0.3652344
vn 0.1937256 0.8847656 0.4233398
vn 0.1821289 0.918457 0.3505859
vn 0.3034668 0.9506836 0.06292725
vn 0.298584 0.9526367 0.06048584
vn 0.3134766 0.9472656 0.06817627
vn 0.2929688 0.9545898 0.05752563
vn 0.12854 0.9736328 -0.1894531
vn 0.1289063 0.9741211 -0.1850586
vn 0.1293945 0.9750977 -0.1790771
vn 0.1276855 0.9716797 -0.1993408
vn -0.1779785 0.9619141 -0.2076416
vn -0.163208 0.9667969 -0.1976318
vn -0.1516113 0.9702148 -0.1896973
vn -0.2009277 0.9541016 -0.2230225
vn -0.3510742 0.9331055 0.07873535
vn -0.3674316 0.9272461 0.07110596
vn -0.3378906 0.9375 0.08496094
vn -0.3737793 0.9248047 0.06799316
vn -0.02038574 0.996582 0.08117676
vn -0.02038574 0.996582 0.08117676
vn -0.02038574 0.996582 0.08117676
vn -0.02038574 0.996582 0.08117676
vn -0.02038574 0.996582 0.08117676
vn -0.02038574 0.996582 0.08117676
vn -0.2441406 -0.8618164 0.4450684
vn -0.2125244 -0.8828125 0.418457
vn -0.1939697 -0.8945313 0.4025879
vn -0.2539063 -0.8544922 0.453125
vn 0.2810059 -0.8691406 0.4069824
vn 0.2873535 -0.8486328 0.4445801
vn 0.2905273 -0.8369141 0.4638672
vn 0.2790527 -0.875 0.3955078
vn 0.5932617 -0.8037109 -0.04821777
vn 0.6489258 -0.7607422 -0.02288818
vn 0.6791992 -0.7338867 -0.008270264
vn 0.5722656 -0.8178711 -0.05725098
vn 0.3129883 -0.722168 -0.6166992
vn 0.3322754 -0.7026367 -0.6289063
vn 0.3449707 -0.6894531 -0.6367188
vn 0.3049316 -0.7304688 -0.6113281
vn -0.3540039 -0.715332 -0.6020508
vn -0.3525391 -0.7358398 -0.578125
vn -0.3510742 -0.75 -0.5605469
vn -0.3547363 -0.7070313 -0.6118164
vn -0.6132813 -0.7895508 -0.01158142
vn -0.5566406 -0.8305664 0.01245117
vn -0.515625 -0.855957 0.02897644
vn -0.6333008 -0.7734375 -0.02035522
vn -0.1793213 0.9038086 0.3881836
vn -0.1790771 0.9067383 0.3813477
vn -0.1789551 0.9086914 0.3769531
vn -0.1794434 0.9003906 0.3962402
vn 0.2088623 0.890625 0.4035645
vn 0.2197266 0.8852539 0.4104004
vn 0.2246094 0.8823242 0.4135742
vn 0.1984863 0.8959961 0.3969727
vn 0.4384766 0.8974609 0.04534912
vn 0.4562988 0.8891602 0.03533936
vn 0.4645996 0.8852539 0.03077698
vn 0.421875 0.9047852 0.05441284
vn 0.2017822 0.9189453 -0.3391113
vn 0.2015381 0.9160156 -0.3466797
vn 0.2015381 0.9145508 -0.3505859
vn 0.2019043 0.9213867 -0.331543
vn -0.2279053 0.9272461 -0.2976074
vn -0.2208252 0.9301758 -0.2937012
vn -0.2161865 0.9321289 -0.2910156
vn -0.2359619 0.9233398 -0.3022461
vn -0.3867188 0.9194336 0.06890869
vn -0.3740234 0.925293 0.06182861
vn -0.3652344 0.9291992 0.05682373
vn -0.4023438 0.9121094 0.07775879
vn 0.009872437 -1 0.01576233
vn 0.009872437 -1 0.01576233
vn 0.009872437 -1 0.01576233
vn 0.009872437 -1 0.01576233
vn 0.009872437 -1 0.01576233
vn 0.009872437 -1 0.01576233
vn -0.007415771 0.9970703 0.07299805
vn -0.007415771 0.9970703 0.07299805
vn -0.007415771 0.9970703 0.07299805
vn -0.007415771 0.9970703 0.07299805
vn -0.007415771 0.9970703 0.07299805
vn -0.007415771 0.9970703 0.07299805

vt 0.8266602 0.4970703
vt 0.7890625 0.4775391
vt 0.8217773 0.4960938
vt 0.7890625 0.4775391
vt 0.8266602 0.4970703
vt 0.7924805 0.4780273
vt 0.7875977 0.4870605
vt 0.8217773 0.5083008
vt 0.8198242 0.5039063
vt 0.8217773 0.5083008
vt 0.7875977 0.4870605
vt 0.7885742 0.4924316
vt 0.8217773 0.4960938
vt 0.8486328 0.5424805
vt 0.8266602 0.4970703
vt 0.8251953 0.5048828
vt 0.8486328 0.5424805
vt 0.8217773 0.5083008
vt 0.8217773 0.5083008
vt 0.8486328 0.5424805
vt 0.8198242 0.5039063
vt 0.8198242 0.5039063
vt 0.8486328 0.5424805
vt 0.8217773 0.4960938
vt 0.7275391 0.5292969
vt 0.784668 0.4968262
vt 0.7871094 0.4931641
vt 0.7265625 0.5317383
vt 0.78125 0.4924316
vt 0.784668 0.4968262
vt 0.7265625 0.5224609
vt 0.7802734 0.4846191
vt 0.7231445 0.5219727
vt 0.7802734 0.4846191
vt 0.7265625 0.5224609
vt 0.7866211 0.4851074
vt 0.7265625 0.5224609
vt 0.699707 0.5498047
vt 0.7275391 0.5292969
vt 0.7241211 0.5283203
vt 0.699707 0.5498047
vt 0.7231445 0.5219727
vt 0.7231445 0.5219727
vt 0.699707 0.5498047
vt 0.7265625 0.5224609
vt 0.7954102 0.4970703
vt 0.7919922 0.4775391
vt 0.8041992 0.4960938
vt 0.7919922 0.4775391
vt 0.7954102 0.4970703
vt 0.7807617 0.4780273
vt 0.8041992 0.4960938
vt 0.8134766 0.5463867
vt 0.7954102 0.4970703
vt 0.7954102 0.4970703
vt 0.8134766 0.5463867
vt 0.7954102 0.5048828
vt 0.7954102 0.5048828
vt 0.8134766 0.5463867
vt 0.7993164 0.5083008
vt 0.7993164 0.5083008
vt 0.8134766 0.5463867
vt 0.8041992 0.5039063
vt 0.1964111 0.5068359
vt 0.2272949 0.5209961
vt 0.2443848 0.5292969
vt 0.2272949 0.5209961
vt 0.1964111 0.5068359
vt 0.1676025 0.4951172
vt 0.8217773 0.357666
vt 0.7924805 0.4421387
vt 0.8149414 0.357666
vt 0.7978516 0.4404297
vt 0.8007813 0.357666
vt 0.7924805 0.4421387
vt 0.7822266 0.4428711
vt 0.8149414 0.357666
vt 0.7939453 0.357666
vt 0.7822266 0.4428711
vt 0.7768555 0.4421387
vt 0.8007813 0.357666
vt 0.8007813 0.357666
vt 0.7768555 0.4421387
vt 0.7822266 0.4404297
vt 0.7939453 0.357666
vt 0.8007813 0.357666
vt 0.7929688 0.4396973
vt 0.8149414 0.357666
vt 0.7822266 0.4404297
vt 0.8149414 0.357666
vt 0.7978516 0.4404297
vt 0.8217773 0.357666
vt 0.7929688 0.4396973
vt 0.7890625 0.5507813
vt 0.7978516 0.4404297
vt 0.793457 0.5512695
vt 0.7924805 0.4421387
vt 0.7822266 0.4428711
vt 0.7890625 0.5507813
vt 0.7802734 0.5522461
vt 0.7924805 0.4421387
vt 0.7802734 0.5522461
vt 0.7768555 0.4421387
vt 0.7822266 0.4428711
vt 0.7758789 0.5537109
vt 0.7958984 0.6645508
vt 0.7924805 0.6655273
vt 0.7822266 0.4404297
vt 0.7758789 0.5537109
vt 0.7802734 0.5541992
vt 0.7768555 0.4421387
vt 0.7890625 0.5532227
vt 0.7822266 0.4404297
vt 0.7802734 0.5541992
vt 0.7929688 0.4396973
vt 0.7929688 0.4396973
vt 0.793457 0.5512695
vt 0.7978516 0.4404297
vt 0.7890625 0.5532227
vt 0.8066406 0.6621094
vt 0.8032227 0.6630859
vt 0.8032227 0.6630859
vt 0.793457 0.5512695
vt 0.8066406 0.6621094
vt 0.7890625 0.5507813
vt 0.7802734 0.5522461
vt 0.8032227 0.6630859
vt 0.7958984 0.6645508
vt 0.7890625 0.5507813
vt 0.7958984 0.6645508
vt 0.7758789 0.5537109
vt 0.7924805 0.6655273
vt 0.7802734 0.5541992
vt 0.8032227 0.6630859
vt 0.7802734 0.5541992
vt 0.7958984 0.6645508
vt 0.7890625 0.5532227
vt 0.8266602 0.4970703
vt 0.7910156 0.487793
vt 0.7924805 0.4780273
vt 0.8251953 0.5048828
vt 0.8486328 0.5424805
vt 0.7885742 0.4924316
vt 0.8251953 0.5048828
vt 0.8217773 0.5083008
vt 0.7910156 0.487793
vt 0.8217773 0.4960938
vt 0.7875977 0.4870605
vt 0.8198242 0.5039063
vt 0.7890625 0.4775391
vt 0.7871094 0.4931641
vt 0.7265625 0.5224609
vt 0.7275391 0.5292969
vt 0.7866211 0.4851074
vt 0.784668 0.4968262
vt 0.7275391 0.5292969
vt 0.7265625 0.5317383
vt 0.699707 0.5498047
vt 0.78125 0.4924316
vt 0.7265625 0.5317383
vt 0.7241211 0.5283203
vt 0.699707 0.5498047
vt 0.7231445 0.5219727
vt 0.78125 0.4924316
vt 0.7241211 0.5283203
vt 0.7802734 0.4846191
vt 0.7807617 0.487793
vt 0.7954102 0.4970703
vt 0.7954102 0.5048828
vt 0.7807617 0.4780273
vt 0.7866211 0.4924316
vt 0.7954102 0.5048828
vt 0.7993164 0.5083008
vt 0.7807617 0.487793
vt 0.7919922 0.4870605
vt 0.7993164 0.5083008
vt 0.8041992 0.5039063
vt 0.7866211 0.4924316
vt 0.7919922 0.4870605
vt 0.8041992 0.4960938
vt 0.7919922 0.4775391
vt 0.8041992 0.5039063
vt 0.8134766 0.5463867
vt 0.4284668 0.1466064
vt 0.3933105 0.1734619
vt 0.3649902 0.1486816
vt 0.4833984 0.1766357
vt 0.3649902 0.1486816
vt 0.2131348 0.1793213
vt 0.2376709 0.1486816
vt 0.3933105 0.1734619
vt 0.2376709 0.1486816
vt 0.1229858 0.1884766
vt 0.1740723 0.1466064
vt 0.2131348 0.1793213
vt 0.1740723 0.1466064
vt 0.2131348 0.1917725
vt 0.2376709 0.1445313
vt 0.1229858 0.1884766
vt 0.2376709 0.1445313
vt 0.3933105 0.185791
vt 0.3649902 0.1445313
vt 0.2131348 0.1917725
vt 0.3649902 0.1445313
vt 0.4833984 0.1766357
vt 0.4284668 0.1466064
vt 0.3933105 0.185791
vt 0.4833984 0.1766357
vt 0.3540039 0.2030029
vt 0.3933105 0.1734619
vt 0.4084473 0.2060547
vt 0.3933105 0.1734619
vt 0.2451172 0.2080078
vt 0.2131348 0.1793213
vt 0.3540039 0.2030029
vt 0.2131348 0.1793213
vt 0.1906738 0.2161865
vt 0.1229858 0.1884766
vt 0.2451172 0.2080078
vt 0.1229858 0.1884766
vt 0.2451172 0.2192383
vt 0.2131348 0.1917725
vt 0.1906738 0.2161865
vt 0.2131348 0.1917725
vt 0.3540039 0.2141113
vt 0.3933105 0.185791
vt 0.2451172 0.2192383
vt 0.3933105 0.185791
vt 0.4084473 0.2060547
vt 0.4833984 0.1766357
vt 0.3540039 0.2141113
vt 0.3649902 0.1445313
vt 0.1740723 0.1466064
vt 0.2376709 0.1445313
vt 0.4284668 0.1466064
vt 0.2376709 0.1486816
vt 0.3649902 0.1486816
vt 0.4020996 0.4448242
vt 0.3557129 0.484375
vt 0.3254395 0.4406738
vt 0.4545898 0.4951172
vt 0.3254395 0.4406738
vt 0.1575928 0.4943848
vt 0.1722412 0.4477539
vt 0.3557129 0.484375
vt 0.1722412 0.4477539
vt 0.05856323 0.5151367
vt 0.09570313 0.4589844
vt 0.1575928 0.4943848
vt 0.09570313 0.4589844
vt 0.1575928 0.5258789
vt 0.1722412 0.4633789
vt 0.05856323 0.5151367
vt 0.1722412 0.4633789
vt 0.3557129 0.515625
vt 0.3254395 0.4562988
vt 0.1575928 0.5258789
vt 0.3254395 0.4562988
vt 0.4545898 0.4951172
vt 0.4020996 0.4448242
vt 0.3557129 0.515625
vt 0.3557129 0.484375
vt 0.3908691 0.5332031
vt 0.3347168 0.5292969
vt 0.4545898 0.4951172
vt 0.1575928 0.4943848
vt 0.3347168 0.5292969
vt 0.2225342 0.5400391
vt 0.3557129 0.484375
vt 0.05856323 0.5151367
vt 0.2225342 0.5400391
vt 0.1665039 0.5546875
vt 0.1575928 0.4943848
vt 0.05856323 0.5151367
vt 0.2225342 0.5585938
vt 0.1575928 0.5258789
vt 0.1665039 0.5546875
vt 0.1575928 0.5258789
vt 0.3347168 0.5473633
vt 0.3557129 0.515625
vt 0.2225342 0.5585938
vt 0.4545898 0.4951172
vt 0.3347168 0.5473633
vt 0.3908691 0.5332031
vt 0.3557129 0.515625
vt 0.2423096 0.8666992
vt 0.3605957 0.8442383
vt 0.3212891 0.855957
vt 0.2028809 0.8662109
vt 0.3212891 0.8432617
vt 0.2423096 0.8540039
vt 0.3659668 0.7915039
vt 0.3605957 0.8442383
vt 0.3212891 0.8432617
vt 0.4621582 0.7954102
vt 0.1734619 0.815918
vt 0.3212891 0.8432617
vt 0.2423096 0.8540039
vt 0.3659668 0.7915039
vt 0.07714844 0.84375
vt 0.2423096 0.8540039
vt 0.2028809 0.8662109
vt 0.1734619 0.815918
vt 0.2423096 0.8666992
vt 0.07714844 0.84375
vt 0.2028809 0.8662109
vt 0.1734619 0.847168
vt 0.3212891 0.855957
vt 0.1734619 0.847168
vt 0.2423096 0.8666992
vt 0.3659668 0.8227539
vt 0.3605957 0.8442383
vt 0.3659668 0.8227539
vt 0.3212891 0.855957
vt 0.4621582 0.7954102
vt 0.3369141 0.7519531
vt 0.4621582 0.7954102
vt 0.3659668 0.7915039
vt 0.4194336 0.7573242
vt 0.1717529 0.7680664
vt 0.3659668 0.7915039
vt 0.1734619 0.815918
vt 0.3369141 0.7519531
vt 0.08929443 0.7895508
vt 0.1734619 0.815918
vt 0.07714844 0.84375
vt 0.1717529 0.7680664
vt 0.1734619 0.847168
vt 0.08929443 0.7895508
vt 0.07714844 0.84375
vt 0.1717529 0.7949219
vt 0.3659668 0.8227539
vt 0.1717529 0.7949219
vt 0.1734619 0.847168
vt 0.3369141 0.7788086
vt 0.4621582 0.7954102
vt 0.3369141 0.7788086
vt 0.3659668 0.8227539
vt 0.4194336 0.7573242
vt 0.3896484 0.1519775
vt 0.253418 0.1755371
vt 0.2644043 0.1538086
vt 0.4306641 0.1783447
vt 0.2644043 0.1538086
vt 0.1193237 0.1806641
vt 0.170166 0.1538086
vt 0.253418 0.1755371
vt 0.170166 0.1538086
vt 0.1627197 0.1887207
vt 0.2009277 0.1519775
vt 0.1193237 0.1806641
vt 0.2009277 0.1519775
vt 0.3400879 0.1916504
vt 0.3259277 0.1501465
vt 0.1627197 0.1887207
vt 0.3259277 0.1501465
vt 0.4741211 0.1864014
vt 0.4204102 0.1501465
vt 0.3400879 0.1916504
vt 0.4204102 0.1501465
vt 0.4306641 0.1783447
vt 0.3896484 0.1519775
vt 0.4741211 0.1864014
vt 0.4306641 0.1783447
vt 0.2631836 0.2015381
vt 0.253418 0.1755371
vt 0.3703613 0.2042236
vt 0.253418 0.1755371
vt 0.1820068 0.2059326
vt 0.1193237 0.1806641
vt 0.2631836 0.2015381
vt 0.1193237 0.1806641
vt 0.2080078 0.2131348
vt 0.1627197 0.1887207
vt 0.1820068 0.2059326
vt 0.1627197 0.1887207
vt 0.3151855 0.2158203
vt 0.3400879 0.1916504
vt 0.2080078 0.2131348
vt 0.3400879 0.1916504
vt 0.3962402 0.2113037
vt 0.4741211 0.1864014
vt 0.3151855 0.2158203
vt 0.4741211 0.1864014
vt 0.3703613 0.2042236
vt 0.4306641 0.1783447
vt 0.3962402 0.2113037
vt 0.4204102 0.1501465
vt 0.2009277 0.1519775
vt 0.3259277 0.1501465
vt 0.3896484 0.1519775
vt 0.170166 0.1538086
vt 0.2644043 0.1538086
vt 0.3635254 0.4672852
vt 0.2624512 0.4897461
vt 0.2670898 0.4648438
vt 0.3859863 0.4956055
vt 0.2670898 0.4648438
vt 0.1676025 0.4951172
vt 0.1939697 0.4689941
vt 0.2624512 0.4897461
vt 0.1939697 0.4689941
vt 0.1964111 0.5068359
vt 0.2174072 0.4753418
vt 0.1676025 0.4951172
vt 0.2174072 0.4753418
vt 0.3198242 0.5126953
vt 0.3139648 0.4777832
vt 0.1964111 0.5068359
vt 0.3139648 0.4777832
vt 0.4147949 0.5073242
vt 0.3869629 0.4736328
vt 0.3198242 0.5126953
vt 0.3869629 0.4736328
vt 0.3859863 0.4956055
vt 0.3635254 0.4672852
vt 0.4147949 0.5073242
vt 0.2624512 0.4897461
vt 0.3527832 0.5170898
vt 0.2814941 0.5146484
vt 0.3859863 0.4956055
vt 0.1676025 0.4951172
vt 0.2814941 0.5146484
vt 0.2272949 0.5209961
vt 0.2624512 0.4897461
vt 0.1964111 0.5068359
vt 0.3156738 0.53125
vt 0.3198242 0.5126953
vt 0.2443848 0.5292969
vt 0.3198242 0.5126953
vt 0.369873 0.5249023
vt 0.4147949 0.5073242
vt 0.3156738 0.53125
vt 0.3859863 0.4956055
vt 0.369873 0.5249023
vt 0.3527832 0.5170898
vt 0.4147949 0.5073242
vt 0.3527832 0.5170898
vt 0.2272949 0.5209961
vt 0.2814941 0.5146484
vt 0.2443848 0.5292969
vt 0.369873 0.5249023
vt 0.3156738 0.53125
vt 0.3562012 0.1541748
vt 0.4208984 0.1708984
vt 0.3706055 0.1553955
vt 0.4003906 0.1729736
vt 0.3706055 0.1553955
vt 0.2749023 0.1745605
vt 0.2670898 0.1553955
vt 0.4208984 0.1708984
vt 0.2670898 0.1553955
vt 0.1082153 0.1802979
vt 0.1494141 0.1541748
vt 0.2749023 0.1745605
vt 0.1494141 0.1541748
vt 0.08764648 0.182373
vt 0.1350098 0.152832
vt 0.1082153 0.1802979
vt 0.1350098 0.152832
vt 0.2337646 0.1785889
vt 0.2382813 0.152832
vt 0.08764648 0.182373
vt 0.2382813 0.152832
vt 0.4003906 0.1729736
vt 0.3562012 0.1541748
vt 0.2337646 0.1785889
vt 0.4003906 0.1729736
vt 0.355957 0.1894531
vt 0.4208984 0.1708984
vt 0.3435059 0.1912842
vt 0.4208984 0.1708984
vt 0.2678223 0.1925049
vt 0.2749023 0.1745605
vt 0.355957 0.1894531
vt 0.2749023 0.1745605
vt 0.1673584 0.1976318
vt 0.1082153 0.1802979
vt 0.2678223 0.1925049
vt 0.1082153 0.1802979
vt 0.1549072 0.1994629
vt 0.08764648 0.182373
vt 0.1673584 0.1976318
vt 0.08764648 0.182373
vt 0.2429199 0.1964111
vt 0.2337646 0.1785889
vt 0.1549072 0.1994629
vt 0.2337646 0.1785889
vt 0.3435059 0.1912842
vt 0.4003906 0.1729736
vt 0.2429199 0.1964111
vt 0.2382813 0.152832
vt 0.1494141 0.1541748
vt 0.1350098 0.152832
vt 0.3562012 0.1541748
vt 0.2670898 0.1553955
vt 0.3706055 0.1553955
vt 0.2666016 0.4758301
vt 0.3095703 0.4914551
vt 0.277832 0.4741211
vt 0.2961426 0.4958496
vt 0.277832 0.4741211
vt 0.2072754 0.4956055
vt 0.1984863 0.4768066
vt 0.3095703 0.4914551
vt 0.1984863 0.4768066
vt 0.09161377 0.5039063
vt 0.1079712 0.4814453
vt 0.2072754 0.4956055
vt 0.1079712 0.4814453
vt 0.07818604 0.5078125
vt 0.09680176 0.4831543
vt 0.09161377 0.5039063
vt 0.09680176 0.4831543
vt 0.1804199 0.5039063
vt 0.1760254 0.4802246
vt 0.07818604 0.5078125
vt 0.1760254 0.4802246
vt 0.2961426 0.4958496
vt 0.2666016 0.4758301
vt 0.1804199 0.5039063
vt 0.3095703 0.4914551
vt 0.265625 0.5107422
vt 0.2741699 0.5097656
vt 0.2961426 0.4958496
vt 0.2072754 0.4956055
vt 0.2741699 0.5097656
vt 0.2166748 0.5136719
vt 0.3095703 0.4914551
vt 0.09161377 0.5039063
vt 0.2166748 0.5136719
vt 0.1503906 0.5195313
vt 0.2072754 0.4956055
vt 0.09161377 0.5039063
vt 0.1417236 0.5209961
vt 0.07818604 0.5078125
vt 0.1503906 0.5195313
vt 0.07818604 0.5078125
vt 0.1993408 0.5166016
vt 0.1804199 0.5039063
vt 0.1417236 0.5209961
vt 0.2961426 0.4958496
vt 0.1993408 0.5166016
vt 0.265625 0.5107422
vt 0.1804199 0.5039063
vt 0.265625 0.5107422
vt 0.2166748 0.5136719
vt 0.2741699 0.5097656
vt 0.1503906 0.5195313
vt 0.1993408 0.5166016
vt 0.1417236 0.5209961
vt 0.3833008 0.1602783
vt 0.4335938 0.1806641
vt 0.3945313 0.1618652
vt 0.4174805 0.1832275
vt 0.3945313 0.1618652
vt 0.3203125 0.1851807
vt 0.3144531 0.1618652
vt 0.4335938 0.1806641
vt 0.3144531 0.1618652
vt 0.1911621 0.1922607
vt 0.2230225 0.1602783
vt 0.3203125 0.1851807
vt 0.2230225 0.1602783
vt 0.1751709 0.1947021
vt 0.2119141 0.1586914
vt 0.1911621 0.1922607
vt 0.2119141 0.1586914
vt 0.2883301 0.1901855
vt 0.2919922 0.1586914
vt 0.1751709 0.1947021
vt 0.2919922 0.1586914
vt 0.4174805 0.1832275
vt 0.3833008 0.1602783
vt 0.2883301 0.1901855
vt 0.4174805 0.1832275
vt 0.3830566 0.2032471
vt 0.4335938 0.1806641
vt 0.3735352 0.2055664
vt 0.4335938 0.1806641
vt 0.3149414 0.2071533
vt 0.3203125 0.1851807
vt 0.3830566 0.2032471
vt 0.3203125 0.1851807
vt 0.2369385 0.2132568
vt 0.1911621 0.1922607
vt 0.3149414 0.2071533
vt 0.1911621 0.1922607
vt 0.2272949 0.2155762
vt 0.1751709 0.1947021
vt 0.2369385 0.2132568
vt 0.1751709 0.1947021
vt 0.2956543 0.211792
vt 0.2883301 0.1901855
vt 0.2272949 0.2155762
vt 0.2883301 0.1901855
vt 0.3735352 0.2055664
vt 0.4174805 0.1832275
vt 0.2956543 0.211792
vt 0.2919922 0.1586914
vt 0.2230225 0.1602783
vt 0.2119141 0.1586914
vt 0.3833008 0.1602783
vt 0.3144531 0.1618652
vt 0.3945313 0.1618652
vt 0.2956543 0.211792
vt 0.3830566 0.2032471
vt 0.3735352 0.2055664
vt 0.3149414 0.2071533
vt 0.2272949 0.2155762
vt 0.2369385 0.2132568

g Tree_11_Green_(8)_388_75
usemtl Tree_11_Green_(8)_388_75
usemap Tree_11_Green_(8)_388_75
f 1/1/1 3/3/3 2/2/2
f 4/4/4 6/6/6 5/5/5
f 7/7/7 9/9/9 8/8/8
f 10/10/10 12/12/12 11/11/11
f 13/13/13 15/15/15 14/14/14
f 16/16/16 18/18/18 17/17/17
f 19/19/19 21/21/21 20/20/20
f 22/22/22 24/24/24 23/23/23
f 25/25/25 27/27/27 26/26/26
f 28/28/28 30/30/30 29/29/29
f 31/31/31 33/33/33 32/32/32
f 34/34/34 36/36/36 35/35/35
f 37/37/37 39/39/39 38/38/38
f 40/40/40 42/42/42 41/41/41
f 43/43/43 45/45/45 44/44/44
f 46/46/46 48/48/48 47/47/47
f 49/49/49 51/51/51 50/50/50
f 52/52/52 54/54/54 53/53/53
f 55/55/55 57/57/57 56/56/56
f 58/58/58 60/60/60 59/59/59
f 61/61/61 63/63/63 62/62/62
f 64/64/64 66/66/66 65/65/65
f 67/67/67 69/69/69 68/68/68
f 70/70/70 72/72/72 71/71/71
f 71/71/71 73/73/73 70/70/70
f 74/74/74 76/76/76 75/75/75
f 75/75/75 77/77/77 74/74/74
f 78/78/78 80/80/80 79/79/79
f 79/79/79 81/81/81 78/78/78
f 82/82/82 84/84/84 83/83/83
f 83/83/83 85/85/85 82/82/82
f 86/86/86 88/88/88 87/87/87
f 87/87/87 89/89/89 86/86/86
f 90/90/90 92/92/92 91/91/91
f 91/91/91 93/93/93 90/90/90
f 94/94/94 96/96/96 95/95/95
f 95/95/95 97/97/97 94/94/94
f 98/98/98 100/100/100 99/99/99
f 99/99/99 101/101/101 98/98/98
f 102/102/102 104/104/104 103/103/103
f 103/103/103 105/105/105 102/102/102
f 106/106/106 102/102/102 105/105/105
f 105/105/105 107/107/107 106/106/106
f 108/108/108 110/110/110 109/109/109
f 109/109/109 111/111/111 108/108/108
f 112/112/112 114/114/114 113/113/113
f 113/113/113 115/115/115 112/112/112
f 116/116/116 118/118/118 117/117/117
f 117/117/117 119/119/119 116/116/116
f 119/119/119 117/117/117 120/120/120
f 120/120/120 121/121/121 119/119/119
f 122/122/122 124/124/124 123/123/123
f 123/123/123 125/125/125 122/122/122
f 126/126/126 128/128/128 127/127/127
f 127/127/127 129/129/129 126/126/126
f 130/130/130 132/132/132 131/131/131
f 131/131/131 133/133/133 130/130/130
f 134/134/134 136/136/136 135/135/135
f 135/135/135 137/137/137 134/134/134
f 138/138/138 140/140/140 139/139/139
f 139/139/139 141/141/141 138/138/138
f 138/138/138 141/141/141 142/142/142
f 143/143/143 145/145/145 144/144/144
f 144/144/144 146/146/146 143/143/143
f 147/147/147 149/149/149 148/148/148
f 148/148/148 150/150/150 147/147/147
f 151/151/151 153/153/153 152/152/152
f 152/152/152 154/154/154 151/151/151
f 155/155/155 157/157/157 156/156/156
f 156/156/156 157/157/157 158/158/158
f 159/159/159 161/161/161 160/160/160
f 160/160/160 161/161/161 162/162/162
f 163/163/163 165/165/165 164/164/164
f 164/164/164 166/166/166 163/163/163
f 167/167/167 169/169/169 168/168/168
f 168/168/168 170/170/170 167/167/167
f 171/171/171 173/173/173 172/172/172
f 172/172/172 174/174/174 171/171/171
f 175/175/175 177/177/177 176/176/176
f 176/176/176 178/178/178 175/175/175
f 179/179/179 181/181/181 180/180/180
f 180/180/180 182/182/182 179/179/179
f 182/182/182 180/180/180 183/183/183
f 184/184/184 186/186/186 185/185/185
f 185/185/185 187/187/187 184/184/184
f 188/188/188 190/190/190 189/189/189
f 189/189/189 191/191/191 188/188/188
f 192/192/192 194/194/194 193/193/193
f 193/193/193 195/195/195 192/192/192
f 196/196/196 198/198/198 197/197/197
f 197/197/197 199/199/199 196/196/196
f 200/200/200 202/202/202 201/201/201
f 201/201/201 203/203/203 200/200/200
f 204/204/204 206/206/206 205/205/205
f 205/205/205 207/207/207 204/204/204
f 208/208/208 210/210/210 209/209/209
f 209/209/209 211/211/211 208/208/208
f 212/212/212 214/214/214 213/213/213
f 213/213/213 215/215/215 212/212/212
f 216/216/216 218/218/218 217/217/217
f 217/217/217 219/219/219 216/216/216
f 220/220/220 222/222/222 221/221/221
f 221/221/221 223/223/223 220/220/220
f 224/224/224 226/226/226 225/225/225
f 225/225/225 227/227/227 224/224/224
f 228/228/228 230/230/230 229/229/229
f 229/229/229 231/231/231 228/228/228
f 232/232/232 234/234/234 233/233/233
f 233/233/233 235/235/235 232/232/232
f 235/235/235 233/233/233 236/236/236
f 236/236/236 237/237/237 235/235/235
f 238/238/238 240/240/240 239/239/239
f 239/239/239 241/241/241 238/238/238
f 242/242/242 244/244/244 243/243/243
f 243/243/243 245/245/245 242/242/242
f 246/246/246 248/248/248 247/247/247
f 247/247/247 249/249/249 246/246/246
f 250/250/250 252/252/252 251/251/251
f 251/251/251 253/253/253 250/250/250
f 254/254/254 256/256/256 255/255/255
f 255/255/255 257/257/257 254/254/254
f 258/258/258 260/260/260 259/259/259
f 259/259/259 261/261/261 258/258/258
f 262/262/262 264/264/264 263/263/263
f 263/263/263 265/265/265 262/262/262
f 266/266/266 268/268/268 267/267/267
f 267/267/267 269/269/269 266/266/266
f 270/270/270 272/272/272 271/271/271
f 271/271/271 273/273/273 270/270/270
f 274/274/274 276/276/276 275/275/275
f 275/275/275 277/277/277 274/274/274
f 278/278/278 280/280/280 279/279/279
f 279/279/279 281/281/281 278/278/278
f 282/282/282 284/284/284 283/283/283
f 283/283/283 285/285/285 282/282/282
f 286/286/286 288/288/288 287/287/287
f 287/287/287 289/289/289 286/286/286
f 289/289/289 287/287/287 290/290/290
f 290/290/290 291/291/291 289/289/289
f 292/292/292 294/294/294 293/293/293
f 293/293/293 295/295/295 292/292/292
f 296/296/296 298/298/298 297/297/297
f 297/297/297 299/299/299 296/296/296
f 300/300/300 302/302/302 301/301/301
f 301/301/301 303/303/303 300/300/300
f 304/304/304 306/306/306 305/305/305
f 305/305/305 307/307/307 304/304/304
f 308/308/308 310/310/310 309/309/309
f 309/309/309 311/311/311 308/308/308
f 312/312/312 314/314/314 313/313/313
f 313/313/313 315/315/315 312/312/312
f 316/316/316 318/318/318 317/317/317
f 317/317/317 319/319/319 316/316/316
f 320/320/320 322/322/322 321/321/321
f 321/321/321 323/323/323 320/320/320
f 324/324/324 326/326/326 325/325/325
f 325/325/325 327/327/327 324/324/324
f 328/328/328 330/330/330 329/329/329
f 329/329/329 331/331/331 328/328/328
f 332/332/332 334/334/334 333/333/333
f 333/333/333 335/335/335 332/332/332
f 336/336/336 338/338/338 337/337/337
f 337/337/337 339/339/339 336/336/336
f 340/340/340 342/342/342 341/341/341
f 341/341/341 343/343/343 340/340/340
f 344/344/344 346/346/346 345/345/345
f 345/345/345 347/347/347 344/344/344
f 348/348/348 350/350/350 349/349/349
f 349/349/349 351/351/351 348/348/348
f 352/352/352 354/354/354 353/353/353
f 353/353/353 355/355/355 352/352/352
f 356/356/356 358/358/358 357/357/357
f 357/357/357 359/359/359 356/356/356
f 360/360/360 362/362/362 361/361/361
f 361/361/361 363/363/363 360/360/360
f 364/364/364 366/366/366 365/365/365
f 365/365/365 367/367/367 364/364/364
f 368/368/368 370/370/370 369/369/369
f 369/369/369 371/371/371 368/368/368
f 372/372/372 374/374/374 373/373/373
f 373/373/373 375/375/375 372/372/372
f 376/376/376 378/378/378 377/377/377
f 377/377/377 379/379/379 376/376/376
f 380/380/380 382/382/382 381/381/381
f 381/381/381 383/383/383 380/380/380
f 384/384/384 386/386/386 385/385/385
f 385/385/385 387/387/387 384/384/384
f 388/388/388 390/390/390 389/389/389
f 389/389/389 391/391/391 388/388/388
f 391/391/391 389/389/389 392/392/392
f 392/392/392 393/393/393 391/391/391
f 394/394/394 396/396/396 395/395/395
f 395/395/395 397/397/397 394/394/394
f 398/398/398 400/400/400 399/399/399
f 399/399/399 401/401/401 398/398/398
f 402/402/402 404/404/404 403/403/403
f 403/403/403 405/405/405 402/402/402
f 406/406/406 408/408/408 407/407/407
f 407/407/407 409/409/409 406/406/406
f 410/410/410 412/412/412 411/411/411
f 411/411/411 413/413/413 410/410/410
f 414/414/414 416/416/416 415/415/415
f 415/415/415 417/417/417 414/414/414
f 418/418/418 420/420/420 419/419/419
f 419/419/419 421/421/421 418/418/418
f 422/422/422 424/424/424 423/423/423
f 423/423/423 425/425/425 422/422/422
f 426/426/426 428/428/428 427/427/427
f 427/427/427 429/429/429 426/426/426
f 430/430/430 432/432/432 431/431/431
f 431/431/431 433/433/433 430/430/430
f 434/434/434 436/436/436 435/435/435
f 435/435/435 437/437/437 434/434/434
f 438/438/438 440/440/440 439/439/439
f 439/439/439 441/441/441 438/438/438
f 442/442/442 438/438/438 441/441/441
f 441/441/441 443/443/443 442/442/442
f 444/444/444 446/446/446 445/445/445
f 445/445/445 447/447/447 444/444/444
f 448/448/448 450/450/450 449/449/449
f 449/449/449 451/451/451 448/448/448
f 452/452/452 454/454/454 453/453/453
f 453/453/453 455/455/455 452/452/452
f 456/456/456 458/458/458 457/457/457
f 457/457/457 459/459/459 456/456/456
f 460/460/460 462/462/462 461/461/461
f 461/461/461 463/463/463 460/460/460
f 464/464/464 466/466/466 465/465/465
f 465/465/465 467/467/467 464/464/464
f 468/468/468 470/470/470 469/469/469
f 469/469/469 471/471/471 468/468/468
f 472/472/472 474/474/474 473/473/473
f 473/473/473 475/475/475 472/472/472
f 476/476/476 478/478/478 477/477/477
f 477/477/477 479/479/479 476/476/476
f 480/480/480 482/482/482 481/481/481
f 481/481/481 483/483/483 480/480/480
f 484/484/484 486/486/486 485/485/485
f 485/485/485 487/487/487 484/484/484
f 488/488/488 490/490/490 489/489/489
f 489/489/489 491/491/491 488/488/488
f 492/492/492 494/494/494 493/493/493
f 493/493/493 495/495/495 492/492/492
f 495/495/495 493/493/493 496/496/496
f 496/496/496 497/497/497 495/495/495
f 498/498/498 500/500/500 499/499/499
f 499/499/499 501/501/501 498/498/498
f 502/502/502 504/504/504 503/503/503
f 503/503/503 505/505/505 502/502/502
f 506/506/506 508/508/508 507/507/507
f 507/507/507 509/509/509 506/506/506
f 510/510/510 512/512/512 511/511/511
f 511/511/511 513/513/513 510/510/510
f 514/514/514 516/516/516 515/515/515
f 515/515/515 517/517/517 514/514/514
f 518/518/518 520/520/520 519/519/519
f 519/519/519 521/521/521 518/518/518
f 522/522/522 524/524/524 523/523/523
f 523/523/523 525/525/525 522/522/522
f 526/526/526 528/528/528 527/527/527
f 527/527/527 529/529/529 526/526/526
f 530/530/530 532/532/532 531/531/531
f 531/531/531 533/533/533 530/530/530
f 534/534/534 536/536/536 535/535/535
f 535/535/535 537/537/537 534/534/534
f 538/538/538 540/540/540 539/539/539
f 539/539/539 541/541/541 538/538/538
f 542/542/542 544/544/544 543/543/543
f 543/543/543 545/545/545 542/542/542
f 546/546/546 548/548/548 547/547/547
f 547/547/547 549/549/549 546/546/546
f 550/550/550 546/546/546 549/549/549
f 549/549/549 551/551/551 550/550/550
f 552/552/552 554/554/554 553/553/553
f 553/553/553 555/555/555 552/552/552
f 556/556/556 558/558/558 557/557/557
f 557/557/557 559/559/559 556/556/556
f 560/560/560 562/562/562 561/561/561
f 561/561/561 563/563/563 560/560/560
f 564/564/564 566/566/566 565/565/565
f 565/565/565 567/567/567 564/564/564
f 568/568/568 570/570/570 569/569/569
f 569/569/569 571/571/571 568/568/568
f 572/572/572 574/574/574 573/573/573
f 573/573/573 575/575/575 572/572/572
f 576/576/576 578/578/578 577/577/577
f 577/577/577 579/579/579 576/576/576
f 580/580/580 582/582/582 581/581/581
f 581/581/581 583/583/583 580/580/580
f 584/584/584 586/586/586 585/585/585
f 585/585/585 587/587/587 584/584/584
f 588/588/588 590/590/590 589/589/589
f 589/589/589 591/591/591 588/588/588
f 592/592/592 594/594/594 593/593/593
f 593/593/593 595/595/595 592/592/592
f 596/596/596 598/598/598 597/597/597
f 597/597/597 599/599/599 596/596/596
f 600/600/600 602/602/602 601/601/601
f 601/601/601 603/603/603 600/600/600
f 603/603/603 601/601/601 604/604/604
f 604/604/604 605/605/605 603/603/603
f 606/606/606 608/608/608 607/607/607
f 607/607/607 609/609/609 606/606/606
f 610/610/610 606/606/606 609/609/609
f 609/609/609 611/611/611 610/610/610
