#Tree_11_Green_(5)_387_71.obj

v 0.4705272 -0.9927496 2.322839
v -0.4689685 -0.6828634 1.996823
v 0.342318 -1.194255 2.308598
v -0.4689685 -0.6828634 1.996823
v 0.4705272 -0.9927496 2.322839
v -0.3802482 -0.4090923 2.008125
v -0.5065994 -0.6773442 2.158554
v 0.34695 -1.070824 2.513241
v 0.3026705 -1.179139 2.440279
v 0.34695 -1.070824 2.513241
v -0.5065994 -0.6773442 2.158554
v -0.4810533 -0.5377003 2.24507
v 0.342318 -1.194255 2.308598
v 1.016738 -1.427728 3.076959
v 0.4705272 -0.9927496 2.322839
v 0.4308778 -0.9776296 2.45452
v 1.016738 -1.427728 3.076959
v 0.34695 -1.070824 2.513241
v 0.34695 -1.070824 2.513241
v 1.016738 -1.427728 3.076959
v 0.3026705 -1.179139 2.440279
v 0.3026705 -1.179139 2.440279
v 1.016738 -1.427728 3.076959
v 0.342318 -1.194255 2.308598
v -2.003536 -1.153204 2.857601
v -0.5814031 -0.4835606 2.318341
v -0.5148412 -0.5837912 2.2573
v -2.032963 -1.055767 2.905256
v -0.6676151 -0.4071343 2.248128
v -0.5814031 -0.4835606 2.318341
v -2.030698 -1.174376 2.750734
v -0.6872641 -0.4309371 2.116875
v -2.11671 -1.000676 2.739177
v -0.6872641 -0.4309371 2.116875
v -2.030698 -1.174376 2.750734
v -0.5344871 -0.6075963 2.126046
v -2.030698 -1.174376 2.750734
v -2.709465 -1.308467 3.199426
v -2.003536 -1.153204 2.857601
v -2.089552 -0.9795032 2.846043
v -2.709465 -1.308467 3.199426
v -2.11671 -1.000676 2.739177
v -2.11671 -1.000676 2.739177
v -2.709465 -1.308467 3.199426
v -2.030698 -1.174376 2.750734
v -0.3056256 0.759635 2.322839
v -0.392738 -0.4057533 1.996823
v -0.08653496 0.664542 2.308598
v -0.392738 -0.4057533 1.996823
v -0.3056256 0.759635 2.322839
v -0.6770175 -0.3609663 2.008125
v -0.08653496 0.664542 2.308598
v 0.1460961 1.307534 3.142406
v -0.3056256 0.759635 2.322839
v -0.3056256 0.759635 2.322839
v 0.1460961 1.307534 3.142406
v -0.3143536 0.71811 2.45452
v -0.3143536 0.71811 2.45452
v 0.1460961 1.307534 3.142406
v -0.2091728 0.6498003 2.513241
v -0.2091728 0.6498003 2.513241
v 0.1460961 1.307534 3.142406
v -0.0952641 0.6230155 2.440279
v 0.2363486 -2.033752 3.316548
v 0.4636528 -1.1231 3.420956
v 0.5894334 -1.644959 3.480939
v 0.4636528 -1.1231 3.420956
v 0.2363486 -2.033752 3.316548
v 0.02514062 -1.123945 3.231409
v 0.3523198 2.99498E-07 1.089716E-15
v -0.3794141 -0.2444693 1.406414
v 0.1761605 0.3051175 -3.637292E-08
v -0.2440772 -0.4699068 1.379011
v -0.1761593 0.3051172 -3.637292E-08
v -0.3794141 -0.2444693 1.406414
v -0.6431506 -0.2497656 1.421011
v 0.1761605 0.3051175 -3.637292E-08
v -0.3523198 -2.99498E-07 4.761458E-15
v -0.6431506 -0.2497656 1.421011
v -0.771555 -0.4804934 1.408205
v -0.1761593 0.3051172 -3.637292E-08
v -0.1761605 -0.3051175 3.637292E-08
v -0.771555 -0.4804934 1.408205
v -0.6362211 -0.7059286 1.380802
v -0.3523198 -2.99498E-07 4.761458E-15
v -0.1761605 -0.3051175 3.637292E-08
v -0.3724816 -0.7006346 1.366205
v 0.1761593 -0.3051172 3.637292E-08
v -0.6362211 -0.7059286 1.380802
v 0.1761593 -0.3051172 3.637292E-08
v -0.2440772 -0.4699068 1.379011
v 0.3523198 2.99498E-07 1.089716E-15
v -0.3724816 -0.7006346 1.366205
v -0.4711714 -0.3458589 3.217022
v -0.2440772 -0.4699068 1.379011
v -0.3600462 -0.5347154 3.225298
v -0.3794141 -0.2444693 1.406414
v -0.6431506 -0.2497656 1.421011
v -0.4711714 -0.3458589 3.217022
v -0.6899564 -0.3465267 3.240083
v -0.3794141 -0.2444693 1.406414
v -0.6899564 -0.3465267 3.240083
v -0.771555 -0.4804934 1.408205
v -0.6431506 -0.2497656 1.421011
v -0.7976174 -0.5360524 3.27142
v -0.2951458 0.2124299 5.118436
v -0.3820638 0.05956095 5.133761
v -0.6362211 -0.7059286 1.380802
v -0.7976174 -0.5360524 3.27142
v -0.6864923 -0.7249089 3.279696
v -0.771555 -0.4804934 1.408205
v -0.4677061 -0.7242396 3.256635
v -0.6362211 -0.7059286 1.380802
v -0.6864923 -0.7249089 3.279696
v -0.3724816 -0.7006346 1.366205
v -0.3724816 -0.7006346 1.366205
v -0.3600462 -0.5347154 3.225298
v -0.2440772 -0.4699068 1.379011
v -0.4677061 -0.7242396 3.256635
v -0.03439112 0.05956066 5.072458
v -0.1213091 -0.09330832 5.087783
v -0.1213095 0.2124298 5.087783
v -0.3600462 -0.5347154 3.225298
v -0.03439112 0.05956066 5.072458
v -0.4711714 -0.3458589 3.217022
v -0.6899564 -0.3465267 3.240083
v -0.1213095 0.2124298 5.087783
v -0.2951458 0.2124299 5.118436
v -0.4711714 -0.3458589 3.217022
v -0.2951455 -0.09330818 5.118436
v -0.7976174 -0.5360524 3.27142
v -0.3820638 0.05956095 5.133761
v -0.6864923 -0.7249089 3.279696
v -0.1213091 -0.09330832 5.087783
v -0.6864923 -0.7249089 3.279696
v -0.2951455 -0.09330818 5.118436
v -0.4677061 -0.7242396 3.256635
v 0.4705272 -0.9927496 2.322839
v -0.4178749 -0.403574 2.169855
v -0.3802482 -0.4090923 2.008125
v 0.4308778 -0.9776296 2.45452
v 1.016738 -1.427728 3.076959
v -0.4810533 -0.5377003 2.24507
v 0.4308778 -0.9776296 2.45452
v 0.34695 -1.070824 2.513241
v -0.4178749 -0.403574 2.169855
v 0.342318 -1.194255 2.308598
v -0.5065994 -0.6773442 2.158554
v 0.3026705 -1.179139 2.440279
v -0.4689685 -0.6828634 1.996823
v -0.5148412 -0.5837912 2.2573
v -2.030698 -1.174376 2.750734
v -2.003536 -1.153204 2.857601
v -0.5344871 -0.6075963 2.126046
v -0.5814031 -0.4835606 2.318341
v -2.003536 -1.153204 2.857601
v -2.032963 -1.055767 2.905256
v -2.709465 -1.308467 3.199426
v -0.6676151 -0.4071343 2.248128
v -2.032963 -1.055767 2.905256
v -2.089552 -0.9795032 2.846043
v -2.709465 -1.308467 3.199426
v -2.11671 -1.000676 2.739177
v -0.6676151 -0.4071343 2.248128
v -2.089552 -0.9795032 2.846043
v -0.6872641 -0.4309371 2.116875
v -0.6765811 -0.3989954 2.169855
v -0.3056256 0.759635 2.322839
v -0.3143536 0.71811 2.45452
v -0.6770175 -0.3609663 2.008125
v -0.5342206 -0.440403 2.24507
v -0.3143536 0.71811 2.45452
v -0.2091728 0.6498003 2.513241
v -0.6765811 -0.3989954 2.169855
v -0.3922974 -0.4437831 2.158554
v -0.2091728 0.6498003 2.513241
v -0.0952641 0.6230155 2.440279
v -0.5342206 -0.440403 2.24507
v -0.3922974 -0.4437831 2.158554
v -0.08653496 0.664542 2.308598
v -0.392738 -0.4057533 1.996823
v -0.0952641 0.6230155 2.440279
v 0.1460961 1.307534 3.142406
v 0.7672666 -0.5090725 3.623911
v 0.4021747 0.9588233 3.901278
v 0.1087575 0.5293697 3.645487
v 1.334644 -0.5133 3.934943
v 0.1087575 0.5293697 3.645487
v -1.462772 0.9630531 3.962403
v -1.208257 0.52937 3.645487
v 0.4021747 0.9588233 3.901278
v -1.208257 0.52937 3.645487
v -2.395246 -0.5048411 4.057191
v -1.866768 -0.5090711 3.623911
v -1.462772 0.9630531 3.962403
v -1.866768 -0.5090711 3.623911
v -1.462773 -1.976965 4.090855
v -1.208258 -1.547513 3.602334
v -2.395246 -0.5048411 4.057191
v -1.208258 -1.547513 3.602334
v 0.4021713 -1.981193 4.029731
v 0.1087577 -1.547512 3.602334
v -1.462773 -1.976965 4.090855
v 0.1087577 -1.547512 3.602334
v 1.334644 -0.5133 3.934943
v 0.7672666 -0.5090725 3.623911
v 0.4021713 -1.981193 4.029731
v 1.334644 -0.5133 3.934943
v -0.005097836 0.4386743 4.207655
v 0.4021747 0.9588233 3.901278
v 0.5579292 -0.4507464 4.239138
v 0.4021747 0.9588233 3.901278
v -1.13115 0.4440374 4.259824
v -1.462772 0.9630531 3.962403
v -0.005097836 0.4386743 4.207655
v -1.462772 0.9630531 3.962403
v -1.694176 -0.4400165 4.343475
v -2.395246 -0.5048411 4.057191
v -1.13115 0.4440374 4.259824
v -2.395246 -0.5048411 4.057191
v -1.131152 -1.329435 4.374959
v -1.462773 -1.976965 4.090855
v -1.694176 -0.4400165 4.343475
v -1.462773 -1.976965 4.090855
v -0.00509741 -1.3348 4.32279
v 0.4021713 -1.981193 4.029731
v -1.131152 -1.329435 4.374959
v 0.4021713 -1.981193 4.029731
v 0.5579292 -0.4507464 4.239138
v 1.334644 -0.5133 3.934943
v -0.00509741 -1.3348 4.32279
v 0.1087577 -1.547512 3.602334
v -1.866768 -0.5090711 3.623911
v -1.208258 -1.547513 3.602334
v 0.7672666 -0.5090725 3.623911
v -1.208257 0.52937 3.645487
v 0.1087575 0.5293697 3.645487
v 0.5579292 -0.4507464 4.239138
v 0.2171384 0.7188611 4.530315
v -0.005097836 0.4386743 4.207655
v 0.9452487 -0.4128716 4.608937
v -0.005097836 0.4386743 4.207655
v -1.239074 0.7306247 4.603034
v -1.13115 0.4440374 4.259824
v 0.2171384 0.7188611 4.530315
v -1.13115 0.4440374 4.259824
v -1.967179 -0.3893421 4.754375
v -1.694176 -0.4400165 4.343475
v -1.239074 0.7306247 4.603034
v -1.694176 -0.4400165 4.343475
v -1.239073 -1.521074 4.832997
v -1.131152 -1.329435 4.374959
v -1.967179 -0.3893421 4.754375
v -1.131152 -1.329435 4.374959
v 0.2171434 -1.532838 4.760278
v -0.00509741 -1.3348 4.32279
v -1.239073 -1.521074 4.832997
v -0.00509741 -1.3348 4.32279
v 0.9452487 -0.4128716 4.608937
v 0.5579292 -0.4507464 4.239138
v 0.2171434 -1.532838 4.760278
v 0.2171384 0.7188611 4.530315
v 0.4765616 -0.3678869 4.887011
v 0.06396538 0.2919432 4.860178
v 0.9452487 -0.4128716 4.608937
v -1.239074 0.7306247 4.603034
v 0.06396538 0.2919432 4.860178
v -0.7612264 0.3048513 4.939966
v 0.2171384 0.7188611 4.530315
v -1.967179 -0.3893421 4.754375
v -0.7612264 0.3048513 4.939966
v -1.173823 -0.3420723 5.046589
v -1.239074 0.7306247 4.603034
v -1.967179 -0.3893421 4.754375
v -0.7612269 -1.001902 5.073423
v -1.239073 -1.521074 4.832997
v -1.173823 -0.3420723 5.046589
v -1.239073 -1.521074 4.832997
v 0.06396491 -1.01481 4.993634
v 0.2171434 -1.532838 4.760278
v -0.7612269 -1.001902 5.073423
v 0.9452487 -0.4128716 4.608937
v 0.06396491 -1.01481 4.993634
v 0.4765616 -0.3678869 4.887011
v 0.2171434 -1.532838 4.760278
v -0.4083413 -0.5977211 5.434424
v 0.1830886 -0.2978028 5.320251
v -0.01405311 -0.6065857 5.379634
v -0.6054847 -0.2800759 5.429831
v -0.01405488 0.01984232 5.315658
v -0.40834 0.02870461 5.370448
v 0.2097309 0.4376441 5.058581
v 0.1830886 -0.2978028 5.320251
v -0.01405488 0.01984232 5.315658
v 0.6911623 -0.3373129 5.076013
v -0.7531269 0.4572836 5.18
v -0.01405488 0.01984232 5.315658
v -0.40834 0.02870461 5.370448
v 0.2097309 0.4376441 5.058581
v -1.234555 -0.29803 5.318851
v -0.40834 0.02870461 5.370448
v -0.6054847 -0.2800759 5.429831
v -0.7531269 0.4572836 5.18
v -0.4083413 -0.5977211 5.434424
v -1.234555 -0.29803 5.318851
v -0.6054847 -0.2800759 5.429831
v -0.7531269 -1.072985 5.336284
v -0.01405311 -0.6065857 5.379634
v -0.7531269 -1.072985 5.336284
v -0.4083413 -0.5977211 5.434424
v 0.2097328 -1.092628 5.214865
v 0.1830886 -0.2978028 5.320251
v 0.2097328 -1.092628 5.214865
v -0.01405311 -0.6065857 5.379634
v 0.6911623 -0.3373129 5.076013
v 0.06396538 0.2919432 4.860178
v 0.6911623 -0.3373129 5.076013
v 0.2097309 0.4376441 5.058581
v 0.4765616 -0.3678869 4.887011
v -0.7612264 0.3048513 4.939966
v 0.2097309 0.4376441 5.058581
v -0.7531269 0.4572836 5.18
v 0.06396538 0.2919432 4.860178
v -1.173823 -0.3420723 5.046589
v -0.7531269 0.4572836 5.18
v -1.234555 -0.29803 5.318851
v -0.7612264 0.3048513 4.939966
v -0.7531269 -1.072985 5.336284
v -1.173823 -0.3420723 5.046589
v -1.234555 -0.29803 5.318851
v -0.7612269 -1.001902 5.073423
v 0.2097328 -1.092628 5.214865
v -0.7612269 -1.001902 5.073423
v -0.7531269 -1.072985 5.336284
v 0.06396491 -1.01481 4.993634
v 0.6911623 -0.3373129 5.076013
v 0.06396491 -1.01481 4.993634
v 0.2097328 -1.092628 5.214865
v 0.4765616 -0.3678869 4.887011
v 1.593858 -0.8388985 2.680583
v 0.6907522 -0.2526526 2.836622
v 0.7649871 -0.6080519 2.692721
v 1.865286 -0.5803849 2.855561
v 0.7649871 -0.6080519 2.692721
v -0.1966019 -1.107336 2.871009
v 0.139828 -1.213164 2.692722
v 0.6907522 -0.2526526 2.836622
v 0.139828 -1.213164 2.692722
v 0.09057642 -2.289753 2.924334
v 0.3435363 -2.049114 2.680583
v -0.1966019 -1.107336 2.871009
v 0.3435363 -2.049114 2.680583
v 1.265112 -2.617489 2.943272
v 1.172408 -2.27996 2.668445
v 0.09057642 -2.289753 2.924334
v 1.172408 -2.27996 2.668445
v 2.152464 -1.762802 2.908885
v 1.797572 -1.674854 2.668445
v 1.265112 -2.617489 2.943272
v 1.797572 -1.674854 2.668445
v 1.865286 -0.5803849 2.855561
v 1.593858 -0.8388985 2.680583
v 2.152464 -1.762802 2.908885
v 1.865286 -0.5803849 2.855561
v 0.756036 -0.7069533 3.00898
v 0.6907522 -0.2526526 2.836622
v 1.465491 -0.9051189 3.026691
v 0.6907522 -0.2526526 2.836622
v 0.2188538 -1.221566 3.038329
v -0.1966019 -1.107336 2.871009
v 0.756036 -0.7069533 3.00898
v -0.1966019 -1.107336 2.871009
v 0.3911311 -1.934351 3.085389
v 0.09057642 -2.289753 2.924334
v 0.2188538 -1.221566 3.038329
v 0.09057642 -2.289753 2.924334
v 1.100586 -2.132516 3.1031
v 1.265112 -2.617489 2.943272
v 0.3911311 -1.934351 3.085389
v 1.265112 -2.617489 2.943272
v 1.637768 -1.617903 3.073752
v 2.152464 -1.762802 2.908885
v 1.100586 -2.132516 3.1031
v 2.152464 -1.762802 2.908885
v 1.465491 -0.9051189 3.026691
v 1.865286 -0.5803849 2.855561
v 1.637768 -1.617903 3.073752
v 1.797572 -1.674854 2.668445
v 0.3435363 -2.049114 2.680583
v 1.172408 -2.27996 2.668445
v 1.593858 -0.8388985 2.680583
v 0.139828 -1.213164 2.692722
v 0.7649871 -0.6080519 2.692721
v 1.465491 -0.9051189 3.026691
v 0.7222254 -0.4609253 3.190499
v 0.756036 -0.7069533 3.00898
v 1.630511 -0.7077087 3.234729
v 0.756036 -0.7069533 3.00898
v 0.02514062 -1.123945 3.231409
v 0.2188538 -1.221566 3.038329
v 0.7222254 -0.4609253 3.190499
v 0.2188538 -1.221566 3.038329
v 0.2363486 -2.033752 3.316548
v 0.3911311 -1.934351 3.085389
v 0.02514062 -1.123945 3.231409
v 0.3911311 -1.934351 3.085389
v 1.14464 -2.28054 3.360779
v 1.100586 -2.132516 3.1031
v 0.2363486 -2.033752 3.316548
v 1.100586 -2.132516 3.1031
v 1.841719 -1.617515 3.31987
v 1.637768 -1.617903 3.073752
v 1.14464 -2.28054 3.360779
v 1.637768 -1.617903 3.073752
v 1.630511 -0.7077087 3.234729
v 1.465491 -0.9051189 3.026691
v 1.841719 -1.617515 3.31987
v 0.7222254 -0.4609253 3.190499
v 1.385674 -0.8999446 3.391165
v 0.8617668 -0.7505877 3.37607
v 1.630511 -0.7077087 3.234729
v 0.02514062 -1.123945 3.231409
v 0.8617668 -0.7505877 3.37607
v 0.4636528 -1.1231 3.420956
v 0.7222254 -0.4609253 3.190499
v 0.2363486 -2.033752 3.316548
v 1.11334 -1.794316 3.496035
v 1.14464 -2.28054 3.360779
v 0.5894334 -1.644959 3.480939
v 1.14464 -2.28054 3.360779
v 1.51146 -1.421809 3.451148
v 1.841719 -1.617515 3.31987
v 1.11334 -1.794316 3.496035
v 1.630511 -0.7077087 3.234729
v 1.51146 -1.421809 3.451148
v 1.385674 -0.8999446 3.391165
v 1.841719 -1.617515 3.31987
v 1.385674 -0.8999446 3.391165
v 0.4636528 -1.1231 3.420956
v 0.8617668 -0.7505877 3.37607
v 0.5894334 -1.644959 3.480939
v 1.51146 -1.421809 3.451148
v 1.11334 -1.794316 3.496035
v -1.851508 -1.809241 2.975711
v -1.422368 -0.841459 3.086738
v -1.755926 -0.9686578 2.984348
v -1.558411 -2.032684 3.100213
v -1.755926 -0.9686578 2.984348
v -2.389834 -0.1124535 3.111205
v -2.440406 -0.4555167 2.984348
v -1.422368 -0.841459 3.086738
v -2.440406 -0.4555167 2.984348
v -3.493344 -0.5746724 3.149148
v -3.220469 -0.7829585 2.975711
v -2.389834 -0.1124535 3.111205
v -3.220469 -0.7829585 2.975711
v -3.629389 -1.765898 3.162623
v -3.31605 -1.62354 2.967075
v -3.493344 -0.5746724 3.149148
v -3.31605 -1.62354 2.967075
v -2.661922 -2.494904 3.138156
v -2.631569 -2.136681 2.967075
v -3.629389 -1.765898 3.162623
v -2.631569 -2.136681 2.967075
v -1.558411 -2.032684 3.100213
v -1.851508 -1.809241 2.975711
v -2.661922 -2.494904 3.138156
v -1.558411 -2.032684 3.100213
v -1.853337 -0.9753045 3.209376
v -1.422368 -0.841459 3.086738
v -1.935713 -1.694876 3.221979
v -1.422368 -0.841459 3.086738
v -2.436308 -0.5335512 3.230258
v -2.389834 -0.1124535 3.111205
v -1.853337 -0.9753045 3.209376
v -2.389834 -0.1124535 3.111205
v -3.101653 -0.8113682 3.263743
v -3.493344 -0.5746724 3.149148
v -2.436308 -0.5335512 3.230258
v -3.493344 -0.5746724 3.149148
v -3.184031 -1.530938 3.276346
v -3.629389 -1.765898 3.162623
v -3.101653 -0.8113682 3.263743
v -3.629389 -1.765898 3.162623
v -2.601062 -1.972692 3.255463
v -2.661922 -2.494904 3.138156
v -3.184031 -1.530938 3.276346
v -2.661922 -2.494904 3.138156
v -1.935713 -1.694876 3.221979
v -1.558411 -2.032684 3.100213
v -2.601062 -1.972692 3.255463
v -2.631569 -2.136681 2.967075
v -3.220469 -0.7829585 2.975711
v -3.31605 -1.62354 2.967075
v -1.851508 -1.809241 2.975711
v -2.440406 -0.4555167 2.984348
v -1.755926 -0.9686578 2.984348
v -1.935713 -1.694876 3.221979
v -1.619705 -0.9043192 3.338532
v -1.853337 -0.9753045 3.209376
v -1.718447 -1.824482 3.370004
v -1.853337 -0.9753045 3.209376
v -2.371569 -0.3303284 3.367641
v -2.436308 -0.5335512 3.230258
v -1.619705 -0.9043192 3.338532
v -2.436308 -0.5335512 3.230258
v -3.222175 -0.6765009 3.428221
v -3.101653 -0.8113682 3.263743
v -2.371569 -0.3303284 3.367641
v -3.101653 -0.8113682 3.263743
v -3.320918 -1.596666 3.459692
v -3.184031 -1.530938 3.276346
v -3.222175 -0.6765009 3.428221
v -3.184031 -1.530938 3.276346
v -2.569054 -2.170656 3.430584
v -2.601062 -1.972692 3.255463
v -3.320918 -1.596666 3.459692
v -2.601062 -1.972692 3.255463
v -1.718447 -1.824482 3.370004
v -1.935713 -1.694876 3.221979
v -2.569054 -2.170656 3.430584
v -1.619705 -0.9043192 3.338532
v -1.943066 -1.616573 3.481313
v -1.879305 -1.084733 3.470572
v -1.718447 -1.824482 3.370004
v -2.371569 -0.3303284 3.367641
v -1.879305 -1.084733 3.470572
v -2.302735 -0.7559591 3.50251
v -1.619705 -0.9043192 3.338532
v -3.222175 -0.6765009 3.428221
v -2.302735 -0.7559591 3.50251
v -2.789922 -0.9590254 3.54519
v -2.371569 -0.3303284 3.367641
v -3.222175 -0.6765009 3.428221
v -2.85368 -1.490869 3.555931
v -3.320918 -1.596666 3.459692
v -2.789922 -0.9590254 3.54519
v -3.320918 -1.596666 3.459692
v -2.430254 -1.819641 3.523993
v -2.569054 -2.170656 3.430584
v -2.85368 -1.490869 3.555931
v -1.718447 -1.824482 3.370004
v -2.430254 -1.819641 3.523993
v -1.943066 -1.616573 3.481313
v -2.569054 -2.170656 3.430584
v -1.943066 -1.616573 3.481313
v -2.302735 -0.7559591 3.50251
v -1.879305 -1.084733 3.470572
v -2.789922 -0.9590254 3.54519
v -2.430254 -1.819641 3.523993
v -2.85368 -1.490869 3.555931
v 0.6152743 0.852833 2.936418
v 0.9478754 1.602907 3.071658
v 0.689353 1.504322 2.946939
v 0.8424352 0.6796553 3.088072
v 0.689353 1.504322 2.946939
v 0.1980457 2.167918 3.101461
v 0.1588517 1.902027 2.946939
v 0.9478754 1.602907 3.071658
v 0.1588517 1.902027 2.946939
v -0.6572199 1.809676 3.147678
v -0.4457315 1.648245 2.936418
v 0.1980457 2.167918 3.101461
v -0.4457315 1.648245 2.936418
v -0.7626631 0.8864263 3.164092
v -0.5198091 0.996758 2.925898
v -0.6572199 1.809676 3.147678
v -0.5198091 0.996758 2.925898
v -0.0128334 0.3214155 3.134289
v 0.01069107 0.5990515 2.925898
v -0.7626631 0.8864263 3.164092
v 0.01069107 0.5990515 2.925898
v 0.8424352 0.6796553 3.088072
v 0.6152743 0.852833 2.936418
v -0.0128334 0.3214155 3.134289
v 0.8424352 0.6796553 3.088072
v 0.6138557 1.49917 3.221041
v 0.9478754 1.602907 3.071658
v 0.5500101 0.9414707 3.236392
v 0.9478754 1.602907 3.071658
v 0.1620272 1.841549 3.246478
v 0.1980457 2.167918 3.101461
v 0.6138557 1.49917 3.221041
v 0.1980457 2.167918 3.101461
v -0.3536456 1.62623 3.287265
v -0.6572199 1.809676 3.147678
v 0.1620272 1.841549 3.246478
v -0.6572199 1.809676 3.147678
v -0.4174923 1.068529 3.302616
v -0.7626631 0.8864263 3.164092
v -0.3536456 1.62623 3.287265
v -0.7626631 0.8864263 3.164092
v 0.0343361 0.7261502 3.27718
v -0.0128334 0.3214155 3.134289
v -0.4174923 1.068529 3.302616
v -0.0128334 0.3214155 3.134289
v 0.5500101 0.9414707 3.236392
v 0.8424352 0.6796553 3.088072
v 0.0343361 0.7261502 3.27718
v 0.01069107 0.5990515 2.925898
v -0.4457315 1.648245 2.936418
v -0.5198091 0.996758 2.925898
v 0.6152743 0.852833 2.936418
v 0.1588517 1.902027 2.946939
v 0.689353 1.504322 2.946939
v 0.0343361 0.7261502 3.27718
v 0.6138557 1.49917 3.221041
v 0.5500101 0.9414707 3.236392
v 0.1620272 1.841549 3.246478
v -0.4174923 1.068529 3.302616
v -0.3536456 1.62623 3.287265

vn -0.08404541 -0.949707 -0.3022461
vn -0.08404541 -0.949707 -0.3022461
vn -0.08404541 -0.949707 -0.3022461
vn -0.1403809 -0.9492188 -0.2822266
vn -0.1403809 -0.9492188 -0.2822266
vn -0.1403809 -0.9492188 -0.2822266
vn 0.5688477 0.8022461 0.1807861
vn 0.5688477 0.8022461 0.1807861
vn 0.5688477 0.8022461 0.1807861
vn 0.612793 0.7739258 0.15979
vn 0.612793 0.7739258 0.15979
vn 0.612793 0.7739258 0.15979
vn -0.1060791 -0.6748047 -0.7304688
vn -0.1060791 -0.6748047 -0.7304688
vn -0.1060791 -0.6748047 -0.7304688
vn -0.3781738 0.7075195 0.5966797
vn -0.3781738 0.7075195 0.5966797
vn -0.3781738 0.7075195 0.5966797
vn 0.5708008 0.6992188 0.4306641
vn 0.5708008 0.6992188 0.4306641
vn 0.5708008 0.6992188 0.4306641
vn 0.9506836 0.007423401 -0.3098145
vn 0.9506836 0.007423401 -0.3098145
vn 0.9506836 0.007423401 -0.3098145
vn -0.08148193 0.8666992 -0.4921875
vn -0.08148193 0.8666992 -0.4921875
vn -0.08148193 0.8666992 -0.4921875
vn -0.559082 0.7241211 0.4038086
vn -0.559082 0.7241211 0.4038086
vn -0.559082 0.7241211 0.4038086
vn 0.3647461 -0.9238281 0.1170654
vn 0.3647461 -0.9238281 0.1170654
vn 0.3647461 -0.9238281 0.1170654
vn 0.394043 -0.9179688 0.04367065
vn 0.394043 -0.9179688 0.04367065
vn 0.394043 -0.9179688 0.04367065
vn 0.5932617 0.1210327 -0.7958984
vn 0.5932617 0.1210327 -0.7958984
vn 0.5932617 0.1210327 -0.7958984
vn -0.3911133 -0.0480957 0.9189453
vn -0.3911133 -0.0480957 0.9189453
vn -0.3911133 -0.0480957 0.9189453
vn 0.5302734 -0.8227539 0.2045898
vn 0.5302734 -0.8227539 0.2045898
vn 0.5302734 -0.8227539 0.2045898
vn -0.2423096 -0.9628906 0.1202393
vn -0.2423096 -0.9628906 0.1202393
vn -0.2423096 -0.9628906 0.1202393
vn -0.2156982 -0.9628906 0.1610107
vn -0.2156982 -0.9628906 0.1610107
vn -0.2156982 -0.9628906 0.1610107
vn -0.7397461 -0.6342773 0.2253418
vn -0.7397461 -0.6342773 0.2253418
vn -0.7397461 -0.6342773 0.2253418
vn 0.09515381 0.1107788 0.9892578
vn 0.09515381 0.1107788 0.9892578
vn 0.09515381 0.1107788 0.9892578
vn 0.6489258 0.7075195 0.2800293
vn 0.6489258 0.7075195 0.2800293
vn 0.6489258 0.7075195 0.2800293
vn 0.439209 0.6362305 -0.6342773
vn 0.439209 0.6362305 -0.6342773
vn 0.439209 0.6362305 -0.6342773
vn 0.2521973 0.9121094 0.3237305
vn 0.25 0.9145508 0.3181152
vn 0.2570801 0.9057617 0.3369141
vn 0.25 0.9145508 0.3181152
vn 0.2521973 0.9121094 0.3237305
vn 0.2470703 0.9179688 0.3105469
vn -0.8144531 0.4733887 -0.3356934
vn -0.8144531 0.4733887 -0.3356934
vn -0.8144531 0.4733887 -0.3356934
vn -0.7993164 0.4760742 -0.3666992
vn -0.7387695 0.3642578 0.5673828
vn -0.7387695 0.3642578 0.5673828
vn -0.7387695 0.3642578 0.5673828
vn -0.737793 0.3640137 0.5683594
vn 0.1429443 -0.09185791 0.9853516
vn 0.1429443 -0.09185791 0.9853516
vn 0.1429443 -0.09185791 0.9853516
vn 0.1318359 -0.08898926 0.9873047
vn 0.8388672 -0.3959961 0.373291
vn 0.8388672 -0.3959961 0.373291
vn 0.8388672 -0.3959961 0.373291
vn 0.8500977 -0.3937988 0.3500977
vn 0.7607422 -0.2780762 -0.5859375
vn 0.7607422 -0.2780762 -0.5859375
vn 0.7607422 -0.2780762 -0.5859375
vn 0.7587891 -0.2775879 -0.5893555
vn -0.1296387 0.2000732 -0.9711914
vn -0.1296387 0.2000732 -0.9711914
vn -0.1296387 0.2000732 -0.9711914
vn -0.1352539 0.201416 -0.9702148
vn -0.9262695 0.07171631 -0.369873
vn -0.9262695 0.07171631 -0.369873
vn -0.9262695 0.07171631 -0.369873
vn -0.9257813 0.07189941 -0.3710938
vn -0.7924805 0.05319214 0.6074219
vn -0.7924805 0.05319214 0.6074219
vn -0.7924805 0.05319214 0.6074219
vn -0.7807617 0.05505371 0.6225586
vn 0.138916 0.002576828 0.9902344
vn 0.138916 0.002576828 0.9902344
vn 0.1480713 0.003372192 0.9887695
vn 0.138916 0.002576828 0.9902344
vn 0.1358643 0.03469849 0.9902344
vn 0.1358643 0.03469849 0.9902344
vn 0.9277344 -0.02787781 0.3723145
vn 0.9277344 -0.02787781 0.3723145
vn 0.9277344 -0.02787781 0.3723145
vn 0.9296875 -0.02728271 0.3676758
vn 0.7910156 -0.009941101 -0.6118164
vn 0.7910156 -0.009941101 -0.6118164
vn 0.7910156 -0.009941101 -0.6118164
vn 0.7802734 -0.01150513 -0.6254883
vn -0.1445313 0.03781128 -0.9887695
vn -0.1445313 0.03781128 -0.9887695
vn -0.1461182 0.03768921 -0.9887695
vn -0.1445313 0.03781128 -0.9887695
vn -0.1394043 0.005664825 -0.9902344
vn -0.1394043 0.005664825 -0.9902344
vn -0.8886719 -0.3024902 -0.3444824
vn -0.8886719 -0.3024902 -0.3444824
vn -0.8886719 -0.3024902 -0.3444824
vn -0.8818359 -0.2966309 -0.3669434
vn -0.7397461 -0.2800293 0.6118164
vn -0.7314453 -0.2758789 0.6235352
vn -0.730957 -0.2753906 0.6245117
vn -0.7402344 -0.2802734 0.6113281
vn 0.8793945 0.3361816 0.3374023
vn 0.8793945 0.3361816 0.3374023
vn 0.8793945 0.3361816 0.3374023
vn 0.8696289 0.3347168 0.3635254
vn 0.7177734 0.314209 -0.6210938
vn 0.7270508 0.3190918 -0.6079102
vn 0.7172852 0.3137207 -0.6220703
vn 0.7280273 0.3193359 -0.6069336
vn -0.9946289 0.06750488 0.0802002
vn -0.9946289 0.06750488 0.0802002
vn -0.9916992 0.09674072 0.08422852
vn -0.9946289 0.06750488 0.0802002
vn -0.9951172 0.07299805 0.06274414
vn -0.4260254 0.862793 0.2717285
vn -0.4260254 0.862793 0.2717285
vn -0.4260254 0.862793 0.2717285
vn -0.3967285 0.8774414 0.2687988
vn 0.9916992 -0.05575562 -0.1173706
vn 0.9916992 -0.05575562 -0.1173706
vn 0.9916992 -0.05575562 -0.1173706
vn 0.9887695 -0.08862305 -0.1220093
vn 0.4929199 0.08410645 -0.8662109
vn 0.4929199 0.08410645 -0.8662109
vn 0.4929199 0.08410645 -0.8662109
vn 0.4855957 0.1072388 -0.8676758
vn -0.05578613 0.8476563 -0.527832
vn -0.05578613 0.8476563 -0.527832
vn -0.05578613 0.8476563 -0.527832
vn -0.07067871 0.8417969 -0.5351563
vn -0.546875 0.7646484 0.3408203
vn -0.546875 0.7646484 0.3408203
vn -0.546875 0.7646484 0.3408203
vn -0.5668945 0.7553711 0.3286133
vn -0.4787598 -0.07904053 0.8745117
vn -0.4787598 -0.07904053 0.8745117
vn -0.4787598 -0.07904053 0.8745117
vn -0.4707031 -0.1036987 0.8759766
vn 0.3432617 0.03173828 0.9389648
vn 0.3432617 0.03173828 0.9389648
vn 0.3432617 0.03173828 0.9389648
vn 0.347168 0.07208252 0.9350586
vn 0.3591309 0.8554688 0.3728027
vn 0.3591309 0.8554688 0.3728027
vn 0.3591309 0.8554688 0.3728027
vn 0.3464355 0.8740234 0.3405762
vn -0.001911163 0.8256836 -0.5644531
vn -0.001911163 0.8256836 -0.5644531
vn -0.001911163 0.8256836 -0.5644531
vn -0.02365112 0.8056641 -0.5917969
vn -0.3798828 -0.01916504 -0.9248047
vn -0.3798828 -0.01916504 -0.9248047
vn -0.3845215 -0.06317139 -0.9208984
vn -0.3798828 -0.01916504 -0.9248047
vn -0.3415527 -0.03231812 -0.9394531
vn -0.4909668 -0.8500977 -0.1904297
vn -0.4616699 -0.8720703 -0.1622314
vn -0.4438477 -0.8842773 -0.1451416
vn -0.5004883 -0.8422852 -0.1999512
vn -0.4104004 -0.8442383 0.3444824
vn -0.4487305 -0.8198242 0.3552246
vn -0.4675293 -0.8076172 0.3601074
vn -0.3996582 -0.8505859 0.3415527
vn 0.08813477 -0.7880859 0.609375
vn 0.06567383 -0.7451172 0.6640625
vn 0.05114746 -0.715332 0.6967773
vn 0.09716797 -0.8046875 0.5859375
vn 0.6708984 -0.7026367 0.2359619
vn 0.684082 -0.684082 0.2529297
vn 0.6933594 -0.6704102 0.2648926
vn 0.6650391 -0.7114258 0.2279053
vn 0.5957031 -0.6757813 -0.4345703
vn 0.5727539 -0.6972656 -0.4311523
vn 0.5561523 -0.7124023 -0.4282227
vn 0.6044922 -0.6669922 -0.435791
vn -0.02674866 -0.7734375 -0.6333008
vn -0.04754639 -0.8149414 -0.5776367
vn -0.06359863 -0.8442383 -0.5327148
vn -0.01808167 -0.7553711 -0.6552734
vn -0.4274902 0.8945313 -0.131958
vn -0.4206543 0.8974609 -0.1328125
vn -0.4160156 0.8994141 -0.1333008
vn -0.4362793 0.8901367 -0.1309814
vn -0.4138184 0.8691406 0.2712402
vn -0.420166 0.8618164 0.2834473
vn -0.4228516 0.8588867 0.2885742
vn -0.407959 0.875 0.2602539
vn -0.02073669 0.8862305 0.4631348
vn -0.009284973 0.8774414 0.4797363
vn -0.003555298 0.8730469 0.487793
vn -0.03158569 0.8935547 0.4475098
vn 0.3779297 0.9111328 0.1628418
vn 0.3852539 0.9086914 0.1616211
vn 0.3898926 0.9067383 0.1608887
vn 0.3696289 0.9145508 0.1640625
vn 0.3032227 0.9111328 -0.2788086
vn 0.2993164 0.9150391 -0.2702637
vn 0.2971191 0.9169922 -0.265625
vn 0.3071289 0.9072266 -0.2871094
vn -0.09881592 0.9130859 -0.3952637
vn -0.09069824 0.9189453 -0.3837891
vn -0.08453369 0.9233398 -0.3747559
vn -0.1092529 0.9052734 -0.4101563
vn -0.01646423 -1 0.01268005
vn -0.01646423 -1 0.01268005
vn -0.01646423 -1 0.01268005
vn -0.01646423 -1 0.01268005
vn -0.01646423 -1 0.01268005
vn -0.01646423 -1 0.01268005
vn -0.6606445 -0.6982422 -0.2756348
vn -0.6508789 -0.7114258 -0.2648926
vn -0.6450195 -0.7192383 -0.2585449
vn -0.6640625 -0.6933594 -0.2800293
vn -0.5888672 -0.6455078 0.4865723
vn -0.5888672 -0.6455078 0.4865723
vn -0.5888672 -0.6455078 0.4865723
vn -0.5888672 -0.6450195 0.4865723
vn 0.1269531 -0.5556641 0.8217773
vn 0.1209717 -0.5444336 0.8300781
vn 0.1177979 -0.5380859 0.8344727
vn 0.1291504 -0.5600586 0.8183594
vn 0.8598633 -0.423584 0.2844238
vn 0.8652344 -0.4033203 0.2973633
vn 0.8681641 -0.3916016 0.3044434
vn 0.8574219 -0.4318848 0.2792969
vn 0.7441406 -0.3933105 -0.5400391
vn 0.7407227 -0.3991699 -0.5400391
vn 0.7392578 -0.4025879 -0.5400391
vn 0.7451172 -0.3911133 -0.5400391
vn -0.006408691 -0.5737305 -0.8188477
vn -0.01473236 -0.5996094 -0.800293
vn -0.02081299 -0.6181641 -0.7861328
vn -0.002433777 -0.5615234 -0.8276367
vn -0.6220703 0.7592773 -0.1915283
vn -0.6088867 0.7734375 -0.1749268
vn -0.6352539 0.7436523 -0.2086182
vn -0.6020508 0.7807617 -0.1663818
vn -0.5478516 0.7641602 0.3398438
vn -0.5214844 0.7851563 0.3347168
vn -0.5830078 0.7348633 0.3461914
vn -0.503418 0.7983398 0.3310547
vn -0.0703125 0.8764648 0.4760742
vn -0.06787109 0.8793945 0.4709473
vn -0.07751465 0.8681641 0.4904785
vn -0.0635376 0.8842773 0.4621582
vn 0.3210449 0.9331055 0.1634521
vn 0.3156738 0.9345703 0.1647949
vn 0.3059082 0.9370117 0.1672363
vn 0.3369141 0.9282227 0.1593018
vn 0.3127441 0.8950195 -0.3186035
vn 0.300293 0.9072266 -0.295166
vn 0.2907715 0.9155273 -0.2775879
vn 0.3305664 0.8754883 -0.3520508
vn -0.15271 0.8442383 -0.5136719
vn -0.1429443 0.8344727 -0.5322266
vn -0.1630859 0.8544922 -0.4934082
vn -0.1375732 0.8291016 -0.5419922
vn -0.1646729 0.9853516 -0.04885864
vn -0.1646729 0.9853516 -0.04885864
vn -0.1646729 0.9853516 -0.04885864
vn -0.1646729 0.9853516 -0.04885864
vn -0.1646729 0.9853516 -0.04885864
vn -0.1646729 0.9853516 -0.04885864
vn -0.4941406 0.8525391 -0.1704102
vn -0.4938965 0.8530273 -0.1696777
vn -0.496582 0.8500977 -0.1751709
vn -0.4924316 0.8540039 -0.1671143
vn -0.4555664 0.8686523 0.1940918
vn -0.4533691 0.8701172 0.1939697
vn -0.467041 0.862793 0.194458
vn -0.4477539 0.8730469 0.1937256
vn -0.121521 0.9428711 0.3105469
vn -0.12146 0.9428711 0.3105469
vn -0.1251221 0.9404297 0.3161621
vn -0.1195068 0.9438477 0.307373
vn 0.170166 0.9819336 0.08135986
vn 0.170166 0.9819336 0.08129883
vn 0.1766357 0.980957 0.0791626
vn 0.166626 0.9824219 0.08251953
vn 0.1464844 0.9541016 -0.2619629
vn 0.1470947 0.953125 -0.2636719
vn 0.1508789 0.949707 -0.2746582
vn 0.1445313 0.9555664 -0.2565918
vn -0.1776123 0.8979492 -0.4023438
vn -0.1779785 0.8979492 -0.4025879
vn -0.1816406 0.8955078 -0.4064941
vn -0.1756592 0.8994141 -0.4001465
vn -0.6508789 -0.7128906 -0.2602539
vn -0.6381836 -0.7241211 -0.2612305
vn -0.6547852 -0.7094727 -0.2600098
vn -0.6323242 -0.7290039 -0.2617188
vn -0.6357422 -0.5400391 0.5512695
vn -0.6274414 -0.5615234 0.5390625
vn -0.6376953 -0.5341797 0.5546875
vn -0.6235352 -0.5708008 0.5336914
vn 0.1258545 -0.2668457 0.9555664
vn 0.1242065 -0.2751465 0.953125
vn 0.1263428 -0.2644043 0.9560547
vn 0.1235352 -0.2788086 0.9521484
vn 0.9321289 -0.1140137 0.3432617
vn 0.9321289 -0.1054688 0.3464355
vn 0.9321289 -0.1030884 0.347168
vn 0.9321289 -0.1174316 0.342041
vn 0.784668 -0.2939453 -0.5458984
vn 0.7939453 -0.2663574 -0.546875
vn 0.7958984 -0.2592773 -0.546875
vn 0.7807617 -0.3054199 -0.5454102
vn 0.01719666 -0.6103516 -0.7919922
vn 0.01948547 -0.5957031 -0.8027344
vn 0.02018738 -0.5913086 -0.8061523
vn 0.01615906 -0.6166992 -0.7871094
vn -0.4301758 -0.8876953 0.1638184
vn -0.3903809 -0.90625 0.163208
vn -0.3676758 -0.9155273 0.1628418
vn -0.4418945 -0.8818359 0.1639404
vn -0.04467773 -0.8945313 0.4448242
vn -0.06298828 -0.8764648 0.4770508
vn -0.07220459 -0.8666992 0.4931641
vn -0.03948975 -0.8994141 0.4355469
vn 0.4423828 -0.8383789 0.3178711
vn 0.4709473 -0.7993164 0.3735352
vn 0.4855957 -0.7758789 0.4030762
vn 0.4326172 -0.8505859 0.2993164
vn 0.59375 -0.765625 -0.2485352
vn 0.6181641 -0.746582 -0.24646
vn 0.6328125 -0.734375 -0.2449951
vn 0.5844727 -0.7724609 -0.2491455
vn 0.1127319 -0.7583008 -0.6420898
vn 0.09832764 -0.777832 -0.6210938
vn 0.08874512 -0.7900391 -0.6064453
vn 0.1179199 -0.7509766 -0.6499023
vn -0.4230957 -0.8251953 -0.3745117
vn -0.3937988 -0.8618164 -0.3195801
vn -0.3735352 -0.8833008 -0.2832031
vn -0.4328613 -0.8115234 -0.3928223
vn -0.3486328 0.9233398 0.1612549
vn -0.3439941 0.9257813 0.1563721
vn -0.3415527 0.9272461 0.1535645
vn -0.3537598 0.9204102 0.166748
vn -0.09228516 0.9125977 0.3984375
vn -0.08886719 0.9077148 0.4104004
vn -0.08740234 0.9052734 0.4155273
vn -0.09539795 0.9169922 0.3876953
vn 0.2736816 0.9179688 0.2866211
vn 0.2927246 0.9111328 0.2907715
vn 0.3010254 0.9077148 0.2924805
vn 0.2568359 0.9243164 0.2827148
vn 0.3342285 0.9355469 -0.1141357
vn 0.3388672 0.9331055 -0.1195068
vn 0.3410645 0.9321289 -0.1223145
vn 0.329834 0.9379883 -0.1089478
vn 0.01727295 0.9423828 -0.3347168
vn 0.01980591 0.9448242 -0.3273926
vn 0.02139282 0.9462891 -0.322998
vn 0.01446533 0.9394531 -0.3425293
vn -0.3037109 0.9360352 -0.1773682
vn -0.2905273 0.940918 -0.1745605
vn -0.2814941 0.9438477 -0.1727295
vn -0.3198242 0.9301758 -0.180542
vn -0.002368927 -1 0.01617432
vn -0.002368927 -1 0.01617432
vn -0.002368927 -1 0.01617432
vn -0.002368927 -1 0.01617432
vn -0.002368927 -1 0.01617432
vn -0.002368927 -1 0.01617432
vn -0.6142578 -0.7587891 0.2171631
vn -0.5976563 -0.7714844 0.2176514
vn -0.5893555 -0.777832 0.2178955
vn -0.6191406 -0.7543945 0.2169189
vn -0.07373047 -0.7314453 0.6777344
vn -0.0736084 -0.7319336 0.6777344
vn -0.07354736 -0.7319336 0.6772461
vn -0.0737915 -0.7314453 0.6777344
vn 0.6376953 -0.625 0.4506836
vn 0.6416016 -0.6123047 0.4624023
vn 0.6430664 -0.6069336 0.467041
vn 0.6362305 -0.628418 0.4472656
vn 0.796875 -0.4916992 -0.3505859
vn 0.8139648 -0.4663086 -0.3459473
vn 0.8212891 -0.4550781 -0.34375
vn 0.7919922 -0.4990234 -0.3518066
vn 0.1540527 -0.4772949 -0.8652344
vn 0.1513672 -0.484375 -0.8618164
vn 0.1499023 -0.487793 -0.8598633
vn 0.1550293 -0.4753418 -0.8662109
vn -0.5561523 -0.644043 -0.5253906
vn -0.5444336 -0.671875 -0.5024414
vn -0.5371094 -0.6879883 -0.4885254
vn -0.5600586 -0.6337891 -0.5336914
vn -0.5268555 0.8139648 0.2437744
vn -0.5043945 0.8276367 0.2456055
vn -0.5478516 0.8007813 0.2419434
vn -0.4946289 0.8334961 0.2463379
vn -0.1394043 0.8330078 0.5356445
vn -0.1243896 0.8491211 0.5131836
vn -0.1601563 0.809082 0.565918
vn -0.1143188 0.8598633 0.4978027
vn 0.2978516 0.9511719 -0.08227539
vn 0.2946777 0.9526367 -0.07769775
vn 0.2900391 0.9541016 -0.07110596
vn 0.3051758 0.9477539 -0.09313965
vn -0.00129509 0.9306641 -0.3654785
vn 0.004936218 0.9389648 -0.3442383
vn 0.01009369 0.9448242 -0.3269043
vn -0.01124573 0.9169922 -0.3986816
vn -0.4165039 0.8823242 -0.2196045
vn -0.4238281 0.8735352 -0.2388916
vn -0.409668 0.8896484 -0.2023926
vn -0.4272461 0.8696289 -0.2474365
vn -0.09381104 0.9931641 0.06695557
vn -0.09381104 0.9931641 0.06695557
vn -0.09381104 0.9931641 0.06695557
vn -0.09381104 0.9931641 0.06695557
vn -0.09381104 0.9931641 0.06695557
vn -0.09381104 0.9931641 0.06695557
vn -0.175415 -0.9360352 -0.3051758
vn -0.168457 -0.9477539 -0.2717285
vn -0.1647949 -0.953125 -0.2541504
vn -0.1772461 -0.9326172 -0.314209
vn -0.3391113 -0.9404297 0.0199585
vn -0.3696289 -0.9291992 0.009864807
vn -0.3842773 -0.9233398 0.005012512
vn -0.3312988 -0.9433594 0.02256775
vn -0.1895752 -0.9057617 0.3793945
vn -0.2357178 -0.8774414 0.4179688
vn -0.2583008 -0.8618164 0.4365234
vn -0.1765137 -0.9125977 0.3684082
vn 0.2736816 -0.8549805 0.4406738
vn 0.277832 -0.8398438 0.4665527
vn 0.2800293 -0.831543 0.4802246
vn 0.2724609 -0.859375 0.4328613
vn 0.5292969 -0.8486328 0.008499146
vn 0.5039063 -0.8637695 -0.000951767
vn 0.489502 -0.8720703 -0.006385803
vn 0.5366211 -0.84375 0.01135254
vn 0.239624 -0.8950195 -0.3759766
vn 0.1950684 -0.9204102 -0.338623
vn 0.1688232 -0.9335938 -0.3161621
vn 0.2526855 -0.8867188 -0.3869629
vn -0.1608887 0.9575195 -0.2393799
vn -0.1563721 0.9589844 -0.236084
vn -0.1539307 0.9599609 -0.2344971
vn -0.1656494 0.9560547 -0.2426758
vn -0.3076172 0.9511719 -0.02139282
vn -0.3171387 0.9482422 -0.01734924
vn -0.3210449 0.9467773 -0.01573181
vn -0.2995605 0.9536133 -0.02487183
vn -0.1802979 0.9545898 0.2370605
vn -0.1818848 0.9501953 0.2531738
vn -0.1824951 0.9482422 0.2595215
vn -0.1790771 0.9580078 0.2237549
vn 0.1233521 0.9648438 0.2327881
vn 0.1281738 0.9633789 0.2358398
vn 0.1304932 0.9624023 0.2373047
vn 0.1189575 0.9658203 0.2299805
vn 0.2479248 0.9682617 -0.02661133
vn 0.2424316 0.9697266 -0.02380371
vn 0.2392578 0.9707031 -0.0221405
vn 0.2536621 0.9667969 -0.02960205
vn 0.09490967 0.9648438 -0.244751
vn 0.09423828 0.9677734 -0.2337646
vn 0.09381104 0.9692383 -0.2268066
vn 0.09570313 0.9614258 -0.2575684
vn -0.01183319 -1 0.0001544952
vn -0.01183319 -1 0.0001544952
vn -0.01183319 -1 0.0001544952
vn -0.01183319 -1 0.0001544952
vn -0.01183319 -1 0.0001544952
vn -0.01183319 -1 0.0001544952
vn -0.2521973 -0.8491211 -0.4641113
vn -0.2489014 -0.8588867 -0.4472656
vn -0.2474365 -0.8632813 -0.4396973
vn -0.2531738 -0.8461914 -0.4685059
vn -0.5585938 -0.8291016 0.02793884
vn -0.5581055 -0.8291016 0.02804565
vn -0.5581055 -0.8291016 0.02807617
vn -0.5585938 -0.8291016 0.02792358
vn -0.2954102 -0.7421875 0.6015625
vn -0.3076172 -0.7299805 0.6103516
vn -0.3115234 -0.7260742 0.6132813
vn -0.2927246 -0.7446289 0.5996094
vn 0.427002 -0.6166992 0.6611328
vn 0.4294434 -0.5869141 0.6860352
vn 0.4301758 -0.5771484 0.6943359
vn 0.4265137 -0.6225586 0.6557617
vn 0.7998047 -0.6000977 0.01445007
vn 0.7939453 -0.6079102 0.01213837
vn 0.7915039 -0.6113281 0.01119995
vn 0.8012695 -0.5981445 0.01495361
vn 0.3684082 -0.7568359 -0.5395508
vn 0.3444824 -0.7827148 -0.5185547
vn 0.3325195 -0.7949219 -0.5078125
vn 0.3752441 -0.7495117 -0.5454102
vn -0.2558594 0.8881836 -0.3815918
vn -0.2526855 0.8979492 -0.3598633
vn -0.2585449 0.8793945 -0.3996582
vn -0.2514648 0.9013672 -0.3520508
vn -0.4318848 0.9008789 -0.04196167
vn -0.407959 0.9125977 -0.03216553
vn -0.4624023 0.8847656 -0.05450439
vn -0.394043 0.918457 -0.02658081
vn -0.2114258 0.9506836 0.2264404
vn -0.2069092 0.9526367 0.2237549
vn -0.2210693 0.9472656 0.2322998
vn -0.201416 0.9545898 0.220459
vn 0.09503174 0.9736328 0.208252
vn 0.09106445 0.9741211 0.2062988
vn 0.08575439 0.9750977 0.2036133
vn 0.1039429 0.9716797 0.2126465
vn 0.2700195 0.9619141 -0.04415894
vn 0.2536621 0.9667969 -0.03668213
vn 0.2408447 0.9702148 -0.03088379
vn 0.2949219 0.9541016 -0.05569458
vn 0.1152344 0.9331055 -0.3410645
vn 0.130127 0.9272461 -0.3508301
vn 0.1030884 0.9375 -0.3330078
vn 0.1362305 0.9248047 -0.3547363
vn -0.05874634 0.996582 -0.05960083
vn -0.05874634 0.996582 -0.05960083
vn -0.05874634 0.996582 -0.05960083
vn -0.05874634 0.996582 -0.05960083
vn -0.05874634 0.996582 -0.05960083
vn -0.05874634 0.996582 -0.05960083
vn -0.253418 -0.8618164 -0.4399414
vn -0.2470703 -0.8828125 -0.3991699
vn -0.2431641 -0.8945313 -0.375
vn -0.255127 -0.8544922 -0.4523926
vn -0.4936523 -0.8691406 0.02867126
vn -0.5292969 -0.8486328 0.01456451
vn -0.5473633 -0.8369141 0.007141113
vn -0.4829102 -0.875 0.03289795
vn -0.2670898 -0.8037109 0.5317383
vn -0.317627 -0.7607422 0.565918
vn -0.3459473 -0.7338867 0.5844727
vn -0.2486572 -0.8178711 0.519043
vn 0.3640137 -0.722168 0.5878906
vn 0.3647461 -0.7026367 0.6108398
vn 0.3647461 -0.6894531 0.6259766
vn 0.3637695 -0.7304688 0.578125
vn 0.6982422 -0.715332 0.01045227
vn 0.6772461 -0.7358398 -0.0006361008
vn 0.6616211 -0.75 -0.008628845
vn 0.7070313 -0.7070313 0.01496124
vn 0.3288574 -0.7895508 -0.5180664
vn 0.2788086 -0.8305664 -0.4821777
vn 0.2434082 -0.855957 -0.4558105
vn 0.3466797 -0.7734375 -0.5307617
vn -0.2385254 0.9038086 -0.3549805
vn -0.232666 0.9067383 -0.3510742
vn -0.229126 0.9086914 -0.348877
vn -0.2452393 0.9003906 -0.359375
vn -0.4533691 0.890625 -0.03131104
vn -0.4648438 0.8852539 -0.02563477
vn -0.4702148 0.8823242 -0.02302551
vn -0.4421387 0.8959961 -0.03671265
vn -0.2666016 0.8974609 0.3510742
vn -0.267334 0.8891602 0.371582
vn -0.2678223 0.8852539 0.3808594
vn -0.2658691 0.9047852 0.3322754
vn 0.1848145 0.9189453 0.3486328
vn 0.1912842 0.9160156 0.3522949
vn 0.1948242 0.9145508 0.3544922
vn 0.1783447 0.9213867 0.3447266
vn 0.3728027 0.9272461 -0.03994751
vn 0.3657227 0.9301758 -0.03598022
vn 0.361084 0.9321289 -0.03341675
vn 0.3808594 0.9233398 -0.04443359
vn 0.1420898 0.9194336 -0.3662109
vn 0.1416016 0.925293 -0.3518066
vn 0.1412354 0.9291992 -0.3415527
vn 0.1427002 0.9121094 -0.3840332
vn -0.01858521 -1 0.0002427101
vn -0.01858521 -1 0.0002427101
vn -0.01858521 -1 0.0002427101
vn -0.01858521 -1 0.0002427101
vn -0.01858521 -1 0.0002427101
vn -0.01858521 -1 0.0002427101
vn -0.05853271 0.9970703 -0.04428101
vn -0.05853271 0.9970703 -0.04428101
vn -0.05853271 0.9970703 -0.04428101
vn -0.05853271 0.9970703 -0.04428101
vn -0.05853271 0.9970703 -0.04428101
vn -0.05853271 0.9970703 -0.04428101

vt 0.8266602 0.4970703
vt 0.7890625 0.4775391
vt 0.8217773 0.4960938
vt 0.7890625 0.4775391
vt 0.8266602 0.4970703
vt 0.7924805 0.4780273
vt 0.7875977 0.4870605
vt 0.8217773 0.5083008
vt 0.8198242 0.5039063
vt 0.8217773 0.5083008
vt 0.7875977 0.4870605
vt 0.7885742 0.4924316
vt 0.8217773 0.4960938
vt 0.8486328 0.5424805
vt 0.8266602 0.4970703
vt 0.8251953 0.5048828
vt 0.8486328 0.5424805
vt 0.8217773 0.5083008
vt 0.8217773 0.5083008
vt 0.8486328 0.5424805
vt 0.8198242 0.5039063
vt 0.8198242 0.5039063
vt 0.8486328 0.5424805
vt 0.8217773 0.4960938
vt 0.7275391 0.5292969
vt 0.784668 0.4968262
vt 0.7871094 0.4931641
vt 0.7265625 0.5317383
vt 0.78125 0.4924316
vt 0.784668 0.4968262
vt 0.7265625 0.5224609
vt 0.7802734 0.4846191
vt 0.7231445 0.5219727
vt 0.7802734 0.4846191
vt 0.7265625 0.5224609
vt 0.7866211 0.4851074
vt 0.7265625 0.5224609
vt 0.699707 0.5498047
vt 0.7275391 0.5292969
vt 0.7241211 0.5283203
vt 0.699707 0.5498047
vt 0.7231445 0.5219727
vt 0.7231445 0.5219727
vt 0.699707 0.5498047
vt 0.7265625 0.5224609
vt 0.7954102 0.4970703
vt 0.7919922 0.4775391
vt 0.8041992 0.4960938
vt 0.7919922 0.4775391
vt 0.7954102 0.4970703
vt 0.7807617 0.4780273
vt 0.8041992 0.4960938
vt 0.8134766 0.5463867
vt 0.7954102 0.4970703
vt 0.7954102 0.4970703
vt 0.8134766 0.5463867
vt 0.7954102 0.5048828
vt 0.7954102 0.5048828
vt 0.8134766 0.5463867
vt 0.7993164 0.5083008
vt 0.7993164 0.5083008
vt 0.8134766 0.5463867
vt 0.8041992 0.5039063
vt 0.1964111 0.5068359
vt 0.2272949 0.5209961
vt 0.2443848 0.5292969
vt 0.2272949 0.5209961
vt 0.1964111 0.5068359
vt 0.1676025 0.4951172
vt 0.8217773 0.357666
vt 0.7924805 0.4421387
vt 0.8149414 0.357666
vt 0.7978516 0.4404297
vt 0.8007813 0.357666
vt 0.7924805 0.4421387
vt 0.7822266 0.4428711
vt 0.8149414 0.357666
vt 0.7939453 0.357666
vt 0.7822266 0.4428711
vt 0.7768555 0.4421387
vt 0.8007813 0.357666
vt 0.8007813 0.357666
vt 0.7768555 0.4421387
vt 0.7822266 0.4404297
vt 0.7939453 0.357666
vt 0.8007813 0.357666
vt 0.7929688 0.4396973
vt 0.8149414 0.357666
vt 0.7822266 0.4404297
vt 0.8149414 0.357666
vt 0.7978516 0.4404297
vt 0.8217773 0.357666
vt 0.7929688 0.4396973
vt 0.7890625 0.5507813
vt 0.7978516 0.4404297
vt 0.793457 0.5512695
vt 0.7924805 0.4421387
vt 0.7822266 0.4428711
vt 0.7890625 0.5507813
vt 0.7802734 0.5522461
vt 0.7924805 0.4421387
vt 0.7802734 0.5522461
vt 0.7768555 0.4421387
vt 0.7822266 0.4428711
vt 0.7758789 0.5537109
vt 0.7958984 0.6645508
vt 0.7924805 0.6655273
vt 0.7822266 0.4404297
vt 0.7758789 0.5537109
vt 0.7802734 0.5541992
vt 0.7768555 0.4421387
vt 0.7890625 0.5532227
vt 0.7822266 0.4404297
vt 0.7802734 0.5541992
vt 0.7929688 0.4396973
vt 0.7929688 0.4396973
vt 0.793457 0.5512695
vt 0.7978516 0.4404297
vt 0.7890625 0.5532227
vt 0.8066406 0.6621094
vt 0.8032227 0.6630859
vt 0.8032227 0.6630859
vt 0.793457 0.5512695
vt 0.8066406 0.6621094
vt 0.7890625 0.5507813
vt 0.7802734 0.5522461
vt 0.8032227 0.6630859
vt 0.7958984 0.6645508
vt 0.7890625 0.5507813
vt 0.7958984 0.6645508
vt 0.7758789 0.5537109
vt 0.7924805 0.6655273
vt 0.7802734 0.5541992
vt 0.8032227 0.6630859
vt 0.7802734 0.5541992
vt 0.7958984 0.6645508
vt 0.7890625 0.5532227
vt 0.8266602 0.4970703
vt 0.7910156 0.487793
vt 0.7924805 0.4780273
vt 0.8251953 0.5048828
vt 0.8486328 0.5424805
vt 0.7885742 0.4924316
vt 0.8251953 0.5048828
vt 0.8217773 0.5083008
vt 0.7910156 0.487793
vt 0.8217773 0.4960938
vt 0.7875977 0.4870605
vt 0.8198242 0.5039063
vt 0.7890625 0.4775391
vt 0.7871094 0.4931641
vt 0.7265625 0.5224609
vt 0.7275391 0.5292969
vt 0.7866211 0.4851074
vt 0.784668 0.4968262
vt 0.7275391 0.5292969
vt 0.7265625 0.5317383
vt 0.699707 0.5498047
vt 0.78125 0.4924316
vt 0.7265625 0.5317383
vt 0.7241211 0.5283203
vt 0.699707 0.5498047
vt 0.7231445 0.5219727
vt 0.78125 0.4924316
vt 0.7241211 0.5283203
vt 0.7802734 0.4846191
vt 0.7807617 0.487793
vt 0.7954102 0.4970703
vt 0.7954102 0.5048828
vt 0.7807617 0.4780273
vt 0.7866211 0.4924316
vt 0.7954102 0.5048828
vt 0.7993164 0.5083008
vt 0.7807617 0.487793
vt 0.7919922 0.4870605
vt 0.7993164 0.5083008
vt 0.8041992 0.5039063
vt 0.7866211 0.4924316
vt 0.7919922 0.4870605
vt 0.8041992 0.4960938
vt 0.7919922 0.4775391
vt 0.8041992 0.5039063
vt 0.8134766 0.5463867
vt 0.4284668 0.1466064
vt 0.3933105 0.1734619
vt 0.3649902 0.1486816
vt 0.4833984 0.1766357
vt 0.3649902 0.1486816
vt 0.2131348 0.1793213
vt 0.2376709 0.1486816
vt 0.3933105 0.1734619
vt 0.2376709 0.1486816
vt 0.1229858 0.1884766
vt 0.1740723 0.1466064
vt 0.2131348 0.1793213
vt 0.1740723 0.1466064
vt 0.2131348 0.1917725
vt 0.2376709 0.1445313
vt 0.1229858 0.1884766
vt 0.2376709 0.1445313
vt 0.3933105 0.185791
vt 0.3649902 0.1445313
vt 0.2131348 0.1917725
vt 0.3649902 0.1445313
vt 0.4833984 0.1766357
vt 0.4284668 0.1466064
vt 0.3933105 0.185791
vt 0.4833984 0.1766357
vt 0.3540039 0.2030029
vt 0.3933105 0.1734619
vt 0.4084473 0.2060547
vt 0.3933105 0.1734619
vt 0.2451172 0.2080078
vt 0.2131348 0.1793213
vt 0.3540039 0.2030029
vt 0.2131348 0.1793213
vt 0.1906738 0.2161865
vt 0.1229858 0.1884766
vt 0.2451172 0.2080078
vt 0.1229858 0.1884766
vt 0.2451172 0.2192383
vt 0.2131348 0.1917725
vt 0.1906738 0.2161865
vt 0.2131348 0.1917725
vt 0.3540039 0.2141113
vt 0.3933105 0.185791
vt 0.2451172 0.2192383
vt 0.3933105 0.185791
vt 0.4084473 0.2060547
vt 0.4833984 0.1766357
vt 0.3540039 0.2141113
vt 0.3649902 0.1445313
vt 0.1740723 0.1466064
vt 0.2376709 0.1445313
vt 0.4284668 0.1466064
vt 0.2376709 0.1486816
vt 0.3649902 0.1486816
vt 0.4020996 0.4448242
vt 0.3557129 0.484375
vt 0.3254395 0.4406738
vt 0.4545898 0.4951172
vt 0.3254395 0.4406738
vt 0.1575928 0.4943848
vt 0.1722412 0.4477539
vt 0.3557129 0.484375
vt 0.1722412 0.4477539
vt 0.05856323 0.5151367
vt 0.09570313 0.4589844
vt 0.1575928 0.4943848
vt 0.09570313 0.4589844
vt 0.1575928 0.5258789
vt 0.1722412 0.4633789
vt 0.05856323 0.5151367
vt 0.1722412 0.4633789
vt 0.3557129 0.515625
vt 0.3254395 0.4562988
vt 0.1575928 0.5258789
vt 0.3254395 0.4562988
vt 0.4545898 0.4951172
vt 0.4020996 0.4448242
vt 0.3557129 0.515625
vt 0.3557129 0.484375
vt 0.3908691 0.5332031
vt 0.3347168 0.5292969
vt 0.4545898 0.4951172
vt 0.1575928 0.4943848
vt 0.3347168 0.5292969
vt 0.2225342 0.5400391
vt 0.3557129 0.484375
vt 0.05856323 0.5151367
vt 0.2225342 0.5400391
vt 0.1665039 0.5546875
vt 0.1575928 0.4943848
vt 0.05856323 0.5151367
vt 0.2225342 0.5585938
vt 0.1575928 0.5258789
vt 0.1665039 0.5546875
vt 0.1575928 0.5258789
vt 0.3347168 0.5473633
vt 0.3557129 0.515625
vt 0.2225342 0.5585938
vt 0.4545898 0.4951172
vt 0.3347168 0.5473633
vt 0.3908691 0.5332031
vt 0.3557129 0.515625
vt 0.2423096 0.8666992
vt 0.3605957 0.8442383
vt 0.3212891 0.855957
vt 0.2028809 0.8662109
vt 0.3212891 0.8432617
vt 0.2423096 0.8540039
vt 0.3659668 0.7915039
vt 0.3605957 0.8442383
vt 0.3212891 0.8432617
vt 0.4621582 0.7954102
vt 0.1734619 0.815918
vt 0.3212891 0.8432617
vt 0.2423096 0.8540039
vt 0.3659668 0.7915039
vt 0.07714844 0.84375
vt 0.2423096 0.8540039
vt 0.2028809 0.8662109
vt 0.1734619 0.815918
vt 0.2423096 0.8666992
vt 0.07714844 0.84375
vt 0.2028809 0.8662109
vt 0.1734619 0.847168
vt 0.3212891 0.855957
vt 0.1734619 0.847168
vt 0.2423096 0.8666992
vt 0.3659668 0.8227539
vt 0.3605957 0.8442383
vt 0.3659668 0.8227539
vt 0.3212891 0.855957
vt 0.4621582 0.7954102
vt 0.3369141 0.7519531
vt 0.4621582 0.7954102
vt 0.3659668 0.7915039
vt 0.4194336 0.7573242
vt 0.1717529 0.7680664
vt 0.3659668 0.7915039
vt 0.1734619 0.815918
vt 0.3369141 0.7519531
vt 0.08929443 0.7895508
vt 0.1734619 0.815918
vt 0.07714844 0.84375
vt 0.1717529 0.7680664
vt 0.1734619 0.847168
vt 0.08929443 0.7895508
vt 0.07714844 0.84375
vt 0.1717529 0.7949219
vt 0.3659668 0.8227539
vt 0.1717529 0.7949219
vt 0.1734619 0.847168
vt 0.3369141 0.7788086
vt 0.4621582 0.7954102
vt 0.3369141 0.7788086
vt 0.3659668 0.8227539
vt 0.4194336 0.7573242
vt 0.3896484 0.1519775
vt 0.253418 0.1755371
vt 0.2644043 0.1538086
vt 0.4306641 0.1783447
vt 0.2644043 0.1538086
vt 0.1193237 0.1806641
vt 0.170166 0.1538086
vt 0.253418 0.1755371
vt 0.170166 0.1538086
vt 0.1627197 0.1887207
vt 0.2009277 0.1519775
vt 0.1193237 0.1806641
vt 0.2009277 0.1519775
vt 0.3400879 0.1916504
vt 0.3259277 0.1501465
vt 0.1627197 0.1887207
vt 0.3259277 0.1501465
vt 0.4741211 0.1864014
vt 0.4204102 0.1501465
vt 0.3400879 0.1916504
vt 0.4204102 0.1501465
vt 0.4306641 0.1783447
vt 0.3896484 0.1519775
vt 0.4741211 0.1864014
vt 0.4306641 0.1783447
vt 0.2631836 0.2015381
vt 0.253418 0.1755371
vt 0.3703613 0.2042236
vt 0.253418 0.1755371
vt 0.1820068 0.2059326
vt 0.1193237 0.1806641
vt 0.2631836 0.2015381
vt 0.1193237 0.1806641
vt 0.2080078 0.2131348
vt 0.1627197 0.1887207
vt 0.1820068 0.2059326
vt 0.1627197 0.1887207
vt 0.3151855 0.2158203
vt 0.3400879 0.1916504
vt 0.2080078 0.2131348
vt 0.3400879 0.1916504
vt 0.3962402 0.2113037
vt 0.4741211 0.1864014
vt 0.3151855 0.2158203
vt 0.4741211 0.1864014
vt 0.3703613 0.2042236
vt 0.4306641 0.1783447
vt 0.3962402 0.2113037
vt 0.4204102 0.1501465
vt 0.2009277 0.1519775
vt 0.3259277 0.1501465
vt 0.3896484 0.1519775
vt 0.170166 0.1538086
vt 0.2644043 0.1538086
vt 0.3635254 0.4672852
vt 0.2624512 0.4897461
vt 0.2670898 0.4648438
vt 0.3859863 0.4956055
vt 0.2670898 0.4648438
vt 0.1676025 0.4951172
vt 0.1939697 0.4689941
vt 0.2624512 0.4897461
vt 0.1939697 0.4689941
vt 0.1964111 0.5068359
vt 0.2174072 0.4753418
vt 0.1676025 0.4951172
vt 0.2174072 0.4753418
vt 0.3198242 0.5126953
vt 0.3139648 0.4777832
vt 0.1964111 0.5068359
vt 0.3139648 0.4777832
vt 0.4147949 0.5073242
vt 0.3869629 0.4736328
vt 0.3198242 0.5126953
vt 0.3869629 0.4736328
vt 0.3859863 0.4956055
vt 0.3635254 0.4672852
vt 0.4147949 0.5073242
vt 0.2624512 0.4897461
vt 0.3527832 0.5170898
vt 0.2814941 0.5146484
vt 0.3859863 0.4956055
vt 0.1676025 0.4951172
vt 0.2814941 0.5146484
vt 0.2272949 0.5209961
vt 0.2624512 0.4897461
vt 0.1964111 0.5068359
vt 0.3156738 0.53125
vt 0.3198242 0.5126953
vt 0.2443848 0.5292969
vt 0.3198242 0.5126953
vt 0.369873 0.5249023
vt 0.4147949 0.5073242
vt 0.3156738 0.53125
vt 0.3859863 0.4956055
vt 0.369873 0.5249023
vt 0.3527832 0.5170898
vt 0.4147949 0.5073242
vt 0.3527832 0.5170898
vt 0.2272949 0.5209961
vt 0.2814941 0.5146484
vt 0.2443848 0.5292969
vt 0.369873 0.5249023
vt 0.3156738 0.53125
vt 0.3562012 0.1541748
vt 0.4208984 0.1708984
vt 0.3706055 0.1553955
vt 0.4003906 0.1729736
vt 0.3706055 0.1553955
vt 0.2749023 0.1745605
vt 0.2670898 0.1553955
vt 0.4208984 0.1708984
vt 0.2670898 0.1553955
vt 0.1082153 0.1802979
vt 0.1494141 0.1541748
vt 0.2749023 0.1745605
vt 0.1494141 0.1541748
vt 0.08764648 0.182373
vt 0.1350098 0.152832
vt 0.1082153 0.1802979
vt 0.1350098 0.152832
vt 0.2337646 0.1785889
vt 0.2382813 0.152832
vt 0.08764648 0.182373
vt 0.2382813 0.152832
vt 0.4003906 0.1729736
vt 0.3562012 0.1541748
vt 0.2337646 0.1785889
vt 0.4003906 0.1729736
vt 0.355957 0.1894531
vt 0.4208984 0.1708984
vt 0.3435059 0.1912842
vt 0.4208984 0.1708984
vt 0.2678223 0.1925049
vt 0.2749023 0.1745605
vt 0.355957 0.1894531
vt 0.2749023 0.1745605
vt 0.1673584 0.1976318
vt 0.1082153 0.1802979
vt 0.2678223 0.1925049
vt 0.1082153 0.1802979
vt 0.1549072 0.1994629
vt 0.08764648 0.182373
vt 0.1673584 0.1976318
vt 0.08764648 0.182373
vt 0.2429199 0.1964111
vt 0.2337646 0.1785889
vt 0.1549072 0.1994629
vt 0.2337646 0.1785889
vt 0.3435059 0.1912842
vt 0.4003906 0.1729736
vt 0.2429199 0.1964111
vt 0.2382813 0.152832
vt 0.1494141 0.1541748
vt 0.1350098 0.152832
vt 0.3562012 0.1541748
vt 0.2670898 0.1553955
vt 0.3706055 0.1553955
vt 0.2666016 0.4758301
vt 0.3095703 0.4914551
vt 0.277832 0.4741211
vt 0.2961426 0.4958496
vt 0.277832 0.4741211
vt 0.2072754 0.4956055
vt 0.1984863 0.4768066
vt 0.3095703 0.4914551
vt 0.1984863 0.4768066
vt 0.09161377 0.5039063
vt 0.1079712 0.4814453
vt 0.2072754 0.4956055
vt 0.1079712 0.4814453
vt 0.07818604 0.5078125
vt 0.09680176 0.4831543
vt 0.09161377 0.5039063
vt 0.09680176 0.4831543
vt 0.1804199 0.5039063
vt 0.1760254 0.4802246
vt 0.07818604 0.5078125
vt 0.1760254 0.4802246
vt 0.2961426 0.4958496
vt 0.2666016 0.4758301
vt 0.1804199 0.5039063
vt 0.3095703 0.4914551
vt 0.265625 0.5107422
vt 0.2741699 0.5097656
vt 0.2961426 0.4958496
vt 0.2072754 0.4956055
vt 0.2741699 0.5097656
vt 0.2166748 0.5136719
vt 0.3095703 0.4914551
vt 0.09161377 0.5039063
vt 0.2166748 0.5136719
vt 0.1503906 0.5195313
vt 0.2072754 0.4956055
vt 0.09161377 0.5039063
vt 0.1417236 0.5209961
vt 0.07818604 0.5078125
vt 0.1503906 0.5195313
vt 0.07818604 0.5078125
vt 0.1993408 0.5166016
vt 0.1804199 0.5039063
vt 0.1417236 0.5209961
vt 0.2961426 0.4958496
vt 0.1993408 0.5166016
vt 0.265625 0.5107422
vt 0.1804199 0.5039063
vt 0.265625 0.5107422
vt 0.2166748 0.5136719
vt 0.2741699 0.5097656
vt 0.1503906 0.5195313
vt 0.1993408 0.5166016
vt 0.1417236 0.5209961
vt 0.3833008 0.1602783
vt 0.4335938 0.1806641
vt 0.3945313 0.1618652
vt 0.4174805 0.1832275
vt 0.3945313 0.1618652
vt 0.3203125 0.1851807
vt 0.3144531 0.1618652
vt 0.4335938 0.1806641
vt 0.3144531 0.1618652
vt 0.1911621 0.1922607
vt 0.2230225 0.1602783
vt 0.3203125 0.1851807
vt 0.2230225 0.1602783
vt 0.1751709 0.1947021
vt 0.2119141 0.1586914
vt 0.1911621 0.1922607
vt 0.2119141 0.1586914
vt 0.2883301 0.1901855
vt 0.2919922 0.1586914
vt 0.1751709 0.1947021
vt 0.2919922 0.1586914
vt 0.4174805 0.1832275
vt 0.3833008 0.1602783
vt 0.2883301 0.1901855
vt 0.4174805 0.1832275
vt 0.3830566 0.2032471
vt 0.4335938 0.1806641
vt 0.3735352 0.2055664
vt 0.4335938 0.1806641
vt 0.3149414 0.2071533
vt 0.3203125 0.1851807
vt 0.3830566 0.2032471
vt 0.3203125 0.1851807
vt 0.2369385 0.2132568
vt 0.1911621 0.1922607
vt 0.3149414 0.2071533
vt 0.1911621 0.1922607
vt 0.2272949 0.2155762
vt 0.1751709 0.1947021
vt 0.2369385 0.2132568
vt 0.1751709 0.1947021
vt 0.2956543 0.211792
vt 0.2883301 0.1901855
vt 0.2272949 0.2155762
vt 0.2883301 0.1901855
vt 0.3735352 0.2055664
vt 0.4174805 0.1832275
vt 0.2956543 0.211792
vt 0.2919922 0.1586914
vt 0.2230225 0.1602783
vt 0.2119141 0.1586914
vt 0.3833008 0.1602783
vt 0.3144531 0.1618652
vt 0.3945313 0.1618652
vt 0.2956543 0.211792
vt 0.3830566 0.2032471
vt 0.3735352 0.2055664
vt 0.3149414 0.2071533
vt 0.2272949 0.2155762
vt 0.2369385 0.2132568

g Tree_11_Green_(5)_387_71
usemtl Tree_11_Green_(5)_387_71
usemap Tree_11_Green_(5)_387_71
f 1/1/1 3/3/3 2/2/2
f 4/4/4 6/6/6 5/5/5
f 7/7/7 9/9/9 8/8/8
f 10/10/10 12/12/12 11/11/11
f 13/13/13 15/15/15 14/14/14
f 16/16/16 18/18/18 17/17/17
f 19/19/19 21/21/21 20/20/20
f 22/22/22 24/24/24 23/23/23
f 25/25/25 27/27/27 26/26/26
f 28/28/28 30/30/30 29/29/29
f 31/31/31 33/33/33 32/32/32
f 34/34/34 36/36/36 35/35/35
f 37/37/37 39/39/39 38/38/38
f 40/40/40 42/42/42 41/41/41
f 43/43/43 45/45/45 44/44/44
f 46/46/46 48/48/48 47/47/47
f 49/49/49 51/51/51 50/50/50
f 52/52/52 54/54/54 53/53/53
f 55/55/55 57/57/57 56/56/56
f 58/58/58 60/60/60 59/59/59
f 61/61/61 63/63/63 62/62/62
f 64/64/64 66/66/66 65/65/65
f 67/67/67 69/69/69 68/68/68
f 70/70/70 72/72/72 71/71/71
f 71/71/71 73/73/73 70/70/70
f 74/74/74 76/76/76 75/75/75
f 75/75/75 77/77/77 74/74/74
f 78/78/78 80/80/80 79/79/79
f 79/79/79 81/81/81 78/78/78
f 82/82/82 84/84/84 83/83/83
f 83/83/83 85/85/85 82/82/82
f 86/86/86 88/88/88 87/87/87
f 87/87/87 89/89/89 86/86/86
f 90/90/90 92/92/92 91/91/91
f 91/91/91 93/93/93 90/90/90
f 94/94/94 96/96/96 95/95/95
f 95/95/95 97/97/97 94/94/94
f 98/98/98 100/100/100 99/99/99
f 99/99/99 101/101/101 98/98/98
f 102/102/102 104/104/104 103/103/103
f 103/103/103 105/105/105 102/102/102
f 106/106/106 102/102/102 105/105/105
f 105/105/105 107/107/107 106/106/106
f 108/108/108 110/110/110 109/109/109
f 109/109/109 111/111/111 108/108/108
f 112/112/112 114/114/114 113/113/113
f 113/113/113 115/115/115 112/112/112
f 116/116/116 118/118/118 117/117/117
f 117/117/117 119/119/119 116/116/116
f 119/119/119 117/117/117 120/120/120
f 120/120/120 121/121/121 119/119/119
f 122/122/122 124/124/124 123/123/123
f 123/123/123 125/125/125 122/122/122
f 126/126/126 128/128/128 127/127/127
f 127/127/127 129/129/129 126/126/126
f 130/130/130 132/132/132 131/131/131
f 131/131/131 133/133/133 130/130/130
f 134/134/134 136/136/136 135/135/135
f 135/135/135 137/137/137 134/134/134
f 138/138/138 140/140/140 139/139/139
f 139/139/139 141/141/141 138/138/138
f 138/138/138 141/141/141 142/142/142
f 143/143/143 145/145/145 144/144/144
f 144/144/144 146/146/146 143/143/143
f 147/147/147 149/149/149 148/148/148
f 148/148/148 150/150/150 147/147/147
f 151/151/151 153/153/153 152/152/152
f 152/152/152 154/154/154 151/151/151
f 155/155/155 157/157/157 156/156/156
f 156/156/156 157/157/157 158/158/158
f 159/159/159 161/161/161 160/160/160
f 160/160/160 161/161/161 162/162/162
f 163/163/163 165/165/165 164/164/164
f 164/164/164 166/166/166 163/163/163
f 167/167/167 169/169/169 168/168/168
f 168/168/168 170/170/170 167/167/167
f 171/171/171 173/173/173 172/172/172
f 172/172/172 174/174/174 171/171/171
f 175/175/175 177/177/177 176/176/176
f 176/176/176 178/178/178 175/175/175
f 179/179/179 181/181/181 180/180/180
f 180/180/180 182/182/182 179/179/179
f 182/182/182 180/180/180 183/183/183
f 184/184/184 186/186/186 185/185/185
f 185/185/185 187/187/187 184/184/184
f 188/188/188 190/190/190 189/189/189
f 189/189/189 191/191/191 188/188/188
f 192/192/192 194/194/194 193/193/193
f 193/193/193 195/195/195 192/192/192
f 196/196/196 198/198/198 197/197/197
f 197/197/197 199/199/199 196/196/196
f 200/200/200 202/202/202 201/201/201
f 201/201/201 203/203/203 200/200/200
f 204/204/204 206/206/206 205/205/205
f 205/205/205 207/207/207 204/204/204
f 208/208/208 210/210/210 209/209/209
f 209/209/209 211/211/211 208/208/208
f 212/212/212 214/214/214 213/213/213
f 213/213/213 215/215/215 212/212/212
f 216/216/216 218/218/218 217/217/217
f 217/217/217 219/219/219 216/216/216
f 220/220/220 222/222/222 221/221/221
f 221/221/221 223/223/223 220/220/220
f 224/224/224 226/226/226 225/225/225
f 225/225/225 227/227/227 224/224/224
f 228/228/228 230/230/230 229/229/229
f 229/229/229 231/231/231 228/228/228
f 232/232/232 234/234/234 233/233/233
f 233/233/233 235/235/235 232/232/232
f 235/235/235 233/233/233 236/236/236
f 236/236/236 237/237/237 235/235/235
f 238/238/238 240/240/240 239/239/239
f 239/239/239 241/241/241 238/238/238
f 242/242/242 244/244/244 243/243/243
f 243/243/243 245/245/245 242/242/242
f 246/246/246 248/248/248 247/247/247
f 247/247/247 249/249/249 246/246/246
f 250/250/250 252/252/252 251/251/251
f 251/251/251 253/253/253 250/250/250
f 254/254/254 256/256/256 255/255/255
f 255/255/255 257/257/257 254/254/254
f 258/258/258 260/260/260 259/259/259
f 259/259/259 261/261/261 258/258/258
f 262/262/262 264/264/264 263/263/263
f 263/263/263 265/265/265 262/262/262
f 266/266/266 268/268/268 267/267/267
f 267/267/267 269/269/269 266/266/266
f 270/270/270 272/272/272 271/271/271
f 271/271/271 273/273/273 270/270/270
f 274/274/274 276/276/276 275/275/275
f 275/275/275 277/277/277 274/274/274
f 278/278/278 280/280/280 279/279/279
f 279/279/279 281/281/281 278/278/278
f 282/282/282 284/284/284 283/283/283
f 283/283/283 285/285/285 282/282/282
f 286/286/286 288/288/288 287/287/287
f 287/287/287 289/289/289 286/286/286
f 289/289/289 287/287/287 290/290/290
f 290/290/290 291/291/291 289/289/289
f 292/292/292 294/294/294 293/293/293
f 293/293/293 295/295/295 292/292/292
f 296/296/296 298/298/298 297/297/297
f 297/297/297 299/299/299 296/296/296
f 300/300/300 302/302/302 301/301/301
f 301/301/301 303/303/303 300/300/300
f 304/304/304 306/306/306 305/305/305
f 305/305/305 307/307/307 304/304/304
f 308/308/308 310/310/310 309/309/309
f 309/309/309 311/311/311 308/308/308
f 312/312/312 314/314/314 313/313/313
f 313/313/313 315/315/315 312/312/312
f 316/316/316 318/318/318 317/317/317
f 317/317/317 319/319/319 316/316/316
f 320/320/320 322/322/322 321/321/321
f 321/321/321 323/323/323 320/320/320
f 324/324/324 326/326/326 325/325/325
f 325/325/325 327/327/327 324/324/324
f 328/328/328 330/330/330 329/329/329
f 329/329/329 331/331/331 328/328/328
f 332/332/332 334/334/334 333/333/333
f 333/333/333 335/335/335 332/332/332
f 336/336/336 338/338/338 337/337/337
f 337/337/337 339/339/339 336/336/336
f 340/340/340 342/342/342 341/341/341
f 341/341/341 343/343/343 340/340/340
f 344/344/344 346/346/346 345/345/345
f 345/345/345 347/347/347 344/344/344
f 348/348/348 350/350/350 349/349/349
f 349/349/349 351/351/351 348/348/348
f 352/352/352 354/354/354 353/353/353
f 353/353/353 355/355/355 352/352/352
f 356/356/356 358/358/358 357/357/357
f 357/357/357 359/359/359 356/356/356
f 360/360/360 362/362/362 361/361/361
f 361/361/361 363/363/363 360/360/360
f 364/364/364 366/366/366 365/365/365
f 365/365/365 367/367/367 364/364/364
f 368/368/368 370/370/370 369/369/369
f 369/369/369 371/371/371 368/368/368
f 372/372/372 374/374/374 373/373/373
f 373/373/373 375/375/375 372/372/372
f 376/376/376 378/378/378 377/377/377
f 377/377/377 379/379/379 376/376/376
f 380/380/380 382/382/382 381/381/381
f 381/381/381 383/383/383 380/380/380
f 384/384/384 386/386/386 385/385/385
f 385/385/385 387/387/387 384/384/384
f 388/388/388 390/390/390 389/389/389
f 389/389/389 391/391/391 388/388/388
f 391/391/391 389/389/389 392/392/392
f 392/392/392 393/393/393 391/391/391
f 394/394/394 396/396/396 395/395/395
f 395/395/395 397/397/397 394/394/394
f 398/398/398 400/400/400 399/399/399
f 399/399/399 401/401/401 398/398/398
f 402/402/402 404/404/404 403/403/403
f 403/403/403 405/405/405 402/402/402
f 406/406/406 408/408/408 407/407/407
f 407/407/407 409/409/409 406/406/406
f 410/410/410 412/412/412 411/411/411
f 411/411/411 413/413/413 410/410/410
f 414/414/414 416/416/416 415/415/415
f 415/415/415 417/417/417 414/414/414
f 418/418/418 420/420/420 419/419/419
f 419/419/419 421/421/421 418/418/418
f 422/422/422 424/424/424 423/423/423
f 423/423/423 425/425/425 422/422/422
f 426/426/426 428/428/428 427/427/427
f 427/427/427 429/429/429 426/426/426
f 430/430/430 432/432/432 431/431/431
f 431/431/431 433/433/433 430/430/430
f 434/434/434 436/436/436 435/435/435
f 435/435/435 437/437/437 434/434/434
f 438/438/438 440/440/440 439/439/439
f 439/439/439 441/441/441 438/438/438
f 442/442/442 438/438/438 441/441/441
f 441/441/441 443/443/443 442/442/442
f 444/444/444 446/446/446 445/445/445
f 445/445/445 447/447/447 444/444/444
f 448/448/448 450/450/450 449/449/449
f 449/449/449 451/451/451 448/448/448
f 452/452/452 454/454/454 453/453/453
f 453/453/453 455/455/455 452/452/452
f 456/456/456 458/458/458 457/457/457
f 457/457/457 459/459/459 456/456/456
f 460/460/460 462/462/462 461/461/461
f 461/461/461 463/463/463 460/460/460
f 464/464/464 466/466/466 465/465/465
f 465/465/465 467/467/467 464/464/464
f 468/468/468 470/470/470 469/469/469
f 469/469/469 471/471/471 468/468/468
f 472/472/472 474/474/474 473/473/473
f 473/473/473 475/475/475 472/472/472
f 476/476/476 478/478/478 477/477/477
f 477/477/477 479/479/479 476/476/476
f 480/480/480 482/482/482 481/481/481
f 481/481/481 483/483/483 480/480/480
f 484/484/484 486/486/486 485/485/485
f 485/485/485 487/487/487 484/484/484
f 488/488/488 490/490/490 489/489/489
f 489/489/489 491/491/491 488/488/488
f 492/492/492 494/494/494 493/493/493
f 493/493/493 495/495/495 492/492/492
f 495/495/495 493/493/493 496/496/496
f 496/496/496 497/497/497 495/495/495
f 498/498/498 500/500/500 499/499/499
f 499/499/499 501/501/501 498/498/498
f 502/502/502 504/504/504 503/503/503
f 503/503/503 505/505/505 502/502/502
f 506/506/506 508/508/508 507/507/507
f 507/507/507 509/509/509 506/506/506
f 510/510/510 512/512/512 511/511/511
f 511/511/511 513/513/513 510/510/510
f 514/514/514 516/516/516 515/515/515
f 515/515/515 517/517/517 514/514/514
f 518/518/518 520/520/520 519/519/519
f 519/519/519 521/521/521 518/518/518
f 522/522/522 524/524/524 523/523/523
f 523/523/523 525/525/525 522/522/522
f 526/526/526 528/528/528 527/527/527
f 527/527/527 529/529/529 526/526/526
f 530/530/530 532/532/532 531/531/531
f 531/531/531 533/533/533 530/530/530
f 534/534/534 536/536/536 535/535/535
f 535/535/535 537/537/537 534/534/534
f 538/538/538 540/540/540 539/539/539
f 539/539/539 541/541/541 538/538/538
f 542/542/542 544/544/544 543/543/543
f 543/543/543 545/545/545 542/542/542
f 546/546/546 548/548/548 547/547/547
f 547/547/547 549/549/549 546/546/546
f 550/550/550 546/546/546 549/549/549
f 549/549/549 551/551/551 550/550/550
f 552/552/552 554/554/554 553/553/553
f 553/553/553 555/555/555 552/552/552
f 556/556/556 558/558/558 557/557/557
f 557/557/557 559/559/559 556/556/556
f 560/560/560 562/562/562 561/561/561
f 561/561/561 563/563/563 560/560/560
f 564/564/564 566/566/566 565/565/565
f 565/565/565 567/567/567 564/564/564
f 568/568/568 570/570/570 569/569/569
f 569/569/569 571/571/571 568/568/568
f 572/572/572 574/574/574 573/573/573
f 573/573/573 575/575/575 572/572/572
f 576/576/576 578/578/578 577/577/577
f 577/577/577 579/579/579 576/576/576
f 580/580/580 582/582/582 581/581/581
f 581/581/581 583/583/583 580/580/580
f 584/584/584 586/586/586 585/585/585
f 585/585/585 587/587/587 584/584/584
f 588/588/588 590/590/590 589/589/589
f 589/589/589 591/591/591 588/588/588
f 592/592/592 594/594/594 593/593/593
f 593/593/593 595/595/595 592/592/592
f 596/596/596 598/598/598 597/597/597
f 597/597/597 599/599/599 596/596/596
f 600/600/600 602/602/602 601/601/601
f 601/601/601 603/603/603 600/600/600
f 603/603/603 601/601/601 604/604/604
f 604/604/604 605/605/605 603/603/603
f 606/606/606 608/608/608 607/607/607
f 607/607/607 609/609/609 606/606/606
f 610/610/610 606/606/606 609/609/609
f 609/609/609 611/611/611 610/610/610
