#Tree_01_Green_(2)_333_88.obj

v 0.2940655 0.4911573 2.518307
v 0.5344636 0.07456643 2.524441
v 0.08547783 0.1088742 3.590388
v -0.1867308 0.4916246 2.532838
v 0.2940655 0.4911573 2.518307
v 0.08547783 0.1088742 3.590388
v -0.4271276 0.0755024 2.553504
v -0.1867308 0.4916246 2.532838
v 0.08547783 0.1088742 3.590388
v -0.1867308 -0.3410884 2.559639
v -0.4271276 0.0755024 2.553504
v 0.08547783 0.1088742 3.590388
v 0.2940655 -0.3415557 2.545108
v -0.1867308 -0.3410884 2.559639
v 0.08547783 0.1088742 3.590388
v 0.5344636 0.07456643 2.524441
v 0.2940655 -0.3415557 2.545108
v 0.08547783 0.1088742 3.590388
v 0.3009333 -1.894173E-32 1.031174E-16
v 0.1459735 0.2625929 1.151188
v 0.1504667 0.260616 -3.10678E-08
v 0.279917 0.03047807 1.154606
v 0.1504667 0.260616 -3.10678E-08
v -0.121915 0.2628531 1.159285
v -0.1504667 0.260616 -3.10678E-08
v 0.1459735 0.2625929 1.151188
v -0.1504667 0.260616 -3.10678E-08
v -0.2558599 0.03099987 1.170799
v -0.3009333 -5.950342E-31 3.239322E-15
v -0.121915 0.2628531 1.159285
v -0.3009333 -5.950342E-31 3.239322E-15
v -0.121915 -0.2011149 1.174217
v -0.1504667 -0.260616 3.10678E-08
v -0.2558599 0.03099987 1.170799
v -0.1504667 -0.260616 3.10678E-08
v 0.1459735 -0.2013751 1.166121
v 0.1504667 -0.260616 3.10678E-08
v -0.121915 -0.2011149 1.174217
v 0.1504667 -0.260616 3.10678E-08
v 0.279917 0.03047807 1.154606
v 0.3009333 -1.894173E-32 1.031174E-16
v 0.1459735 -0.2013751 1.166121
v 0.5565943 0.9781252 0.8795398
v 0.6715298 0.05087035 1.788212
v 0.3515339 0.6053966 1.780046
v 1.108292 0.02207892 0.8936189
v -0.5468014 0.9791988 0.9128885
v 0.3515339 0.6053966 1.780046
v -0.2884565 0.6060191 1.799389
v 0.5565943 0.9781252 0.8795398
v -1.098498 0.02422469 0.9603159
v -0.2884565 0.6060191 1.799389
v -0.6084524 0.05211558 1.826898
v -0.5468014 0.9791988 0.9128885
v -0.5468001 -0.9318216 0.9743949
v -0.6084524 0.05211558 1.826898
v -0.2884565 -0.5024093 1.835064
v -1.098498 0.02422469 0.9603159
v 0.5565943 -0.9328951 0.9410465
v -0.2884565 -0.5024093 1.835064
v 0.3515339 -0.5030318 1.815721
v -0.5468001 -0.9318216 0.9743949
v 1.108292 0.02207892 0.8936189
v 0.3515339 -0.5030318 1.815721
v 0.6715298 0.05087035 1.788212
v 0.5565943 -0.9328951 0.9410465
v -0.5468001 -0.9318216 0.9743949
v -0.5468014 0.9791988 0.9128885
v -1.098498 0.02422469 0.9603159
v 0.5565943 -0.9328951 0.9410465
v 0.5565943 0.9781252 0.8795398
v 1.108292 0.02207892 0.8936189
v 0.2373028 0.3926482 2.535802
v 0.7712855 0.05089896 1.789092
v 0.4205581 0.07508278 2.540479
v 0.401471 0.6917572 1.779655
v -0.1292065 0.3930051 2.546879
v 0.401471 0.6917572 1.779655
v 0.2373028 0.3926482 2.535802
v -0.3381579 0.6924766 1.802009
v -0.3124619 0.07579531 2.562633
v -0.3381579 0.6924766 1.802009
v -0.1292065 0.3930051 2.546879
v -0.707971 0.05233765 1.833801
v -0.1292065 -0.2417701 2.56731
v -0.707971 0.05233765 1.833801
v -0.3124619 0.07579531 2.562633
v -0.3381579 -0.5885192 1.843238
v 0.2373028 -0.242127 2.556232
v -0.3381579 -0.5885192 1.843238
v -0.1292065 -0.2417701 2.56731
v 0.401471 -0.5892386 1.820884
v 0.4205581 0.07508278 2.540479
v 0.401471 -0.5892386 1.820884
v 0.2373028 -0.242127 2.556232
v 0.7712855 0.05089896 1.789092
v 0.401471 0.6917572 1.779655
v 0.6715298 0.05087035 1.788212
v 0.7712855 0.05089896 1.789092
v 0.3515339 0.6053966 1.780046
v -0.3381579 0.6924766 1.802009
v -0.2884565 0.6060191 1.799389
v -0.707971 0.05233765 1.833801
v -0.6084524 0.05211558 1.826898
v -0.3381579 -0.5885192 1.843238
v -0.6084524 0.05211558 1.826898
v -0.707971 0.05233765 1.833801
v -0.2884565 -0.5024093 1.835064
v 0.401471 -0.5892386 1.820884
v 0.3515339 -0.5030318 1.815721
v 0.7712855 0.05089896 1.789092
v 0.6715298 0.05087035 1.788212
v 0.2940655 0.4911573 2.518307
v 0.4205581 0.07508278 2.540479
v 0.5344636 0.07456643 2.524441
v 0.2373028 0.3926482 2.535802
v -0.1867308 0.4916246 2.532838
v 0.2373028 0.3926482 2.535802
v 0.2940655 0.4911573 2.518307
v -0.1292065 0.3930051 2.546879
v -0.4271276 0.0755024 2.553504
v -0.1292065 0.3930051 2.546879
v -0.1867308 0.4916246 2.532838
v -0.3124619 0.07579531 2.562633
v -0.1867308 -0.3410884 2.559639
v -0.3124619 0.07579531 2.562633
v -0.4271276 0.0755024 2.553504
v -0.1292065 -0.2417701 2.56731
v 0.2940655 -0.3415557 2.545108
v -0.1292065 -0.2417701 2.56731
v -0.1867308 -0.3410884 2.559639
v 0.2373028 -0.242127 2.556232
v 0.5344636 0.07456643 2.524441
v 0.2373028 -0.242127 2.556232
v 0.2940655 -0.3415557 2.545108
v 0.4205581 0.07508278 2.540479

vn 0.8159971 0.3283938 -0.4757167
vn 0.8159971 0.3283938 -0.4757167
vn 0.8159971 0.3283938 -0.4757167
vn 0.01112361 0.3377645 -0.941165
vn 0.01112361 0.3377645 -0.941165
vn 0.0111236 0.3377644 -0.941165
vn -0.7937493 0.377046 -0.4772825
vn -0.7937493 0.377046 -0.4772825
vn -0.7937493 0.377046 -0.4772825
vn -0.7937495 0.4069568 0.4520486
vn -0.7937496 0.4069568 0.4520487
vn -0.7937495 0.4069568 0.4520487
vn 0.01112388 0.3975862 0.9174975
vn 0.01112388 0.3975863 0.9174975
vn 0.01112388 0.3975862 0.9174975
vn 0.8159973 0.3583046 0.4536148
vn 0.8159973 0.3583046 0.4536148
vn 0.8159973 0.3583046 0.4536148
vn 0.8660226 0.002521552 -0.4999986
vn 0.8660226 0.002521553 -0.4999986
vn 0.8660226 0.002521553 -0.4999986
vn 0.8661146 0.002570355 -0.4998389
vn 0 -0.001930179 -0.9999983
vn 0 -0.001930179 -0.9999983
vn 0 -0.001930179 -0.9999983
vn 0.0009208589 -0.001713816 -0.9999982
vn -0.8658506 0.02009772 -0.499899
vn -0.8658506 0.02009772 -0.499899
vn -0.8658506 0.02009772 -0.4998989
vn -0.8652734 0.02034349 -0.5008873
vn -0.8650949 0.04634406 0.499463
vn -0.8650949 0.04634406 0.499463
vn -0.8650948 0.04634406 0.499463
vn -0.8654922 0.04652549 0.4987573
vn 0 0.0507356 0.9987122
vn 0 0.0507356 0.9987122
vn 0 0.05073561 0.9987122
vn 0.0005577099 0.05059417 0.9987192
vn 0.8656623 0.02894944 0.4997907
vn 0.8656623 0.02894944 0.4997908
vn 0.8656624 0.02894944 0.4997907
vn 0.8661506 0.02868509 0.4989593
vn 0.8002842 0.3756773 -0.4673456
vn 0.8002842 0.3756773 -0.4673456
vn 0.8002842 0.3756773 -0.4673455
vn 0.8002844 0.375677 -0.4673454
vn 0.01252906 0.384849 -0.9228947
vn 0.01252906 0.384849 -0.9228947
vn 0.01252906 0.384849 -0.9228947
vn 0.01252919 0.3848488 -0.9228947
vn -0.7752259 0.4232945 -0.4688781
vn -0.7752258 0.4232945 -0.4688781
vn -0.7752259 0.4232945 -0.4688781
vn -0.7752259 0.4232948 -0.4688779
vn -0.7752258 0.4525692 0.4406883
vn -0.7752258 0.4525692 0.4406883
vn -0.7752258 0.4525692 0.4406883
vn -0.7752259 0.4525691 0.4406883
vn 0.01252901 0.4433974 0.8962377
vn 0.01252901 0.4433975 0.8962376
vn 0.01252901 0.4433974 0.8962376
vn 0.01252936 0.4433977 0.8962376
vn 0.8002844 0.4049517 0.4422207
vn 0.8002844 0.4049516 0.4422207
vn 0.8002844 0.4049517 0.4422207
vn 0.8002843 0.4049516 0.4422209
vn -0.03022533 -0.9990259 0.03215381
vn -0.03022539 -0.9990259 0.03215384
vn -0.03022532 -0.9990259 0.03215381
vn -0.03022537 -0.9990259 0.03215384
vn -0.03022543 -0.9990259 0.03215388
vn -0.03022534 -0.9990259 0.03215387
vn 0.80547 0.3608404 -0.4701197
vn 0.8054699 0.3608404 -0.4701196
vn 0.80547 0.3608404 -0.4701197
vn 0.80547 0.3608404 -0.4701196
vn 0.01208835 0.3700773 -0.9289225
vn 0.01208835 0.3700773 -0.9289225
vn 0.01208835 0.3700773 -0.9289225
vn 0.01208866 0.3700774 -0.9289224
vn -0.7812924 0.4087983 -0.4716634
vn -0.7812924 0.4087983 -0.4716634
vn -0.7812924 0.4087982 -0.4716633
vn -0.7812929 0.4087979 -0.4716629
vn -0.7812927 0.4382816 0.4443998
vn -0.7812927 0.4382816 0.4443998
vn -0.7812927 0.4382816 0.4443999
vn -0.7812927 0.4382816 0.4443996
vn 0.01208929 0.4290446 0.9032026
vn 0.01208929 0.4290446 0.9032026
vn 0.01208929 0.4290446 0.9032026
vn 0.01208865 0.429045 0.9032024
vn 0.8054696 0.3903246 0.4459435
vn 0.8054695 0.3903245 0.4459436
vn 0.8054695 0.3903245 0.4459436
vn 0.8054701 0.3903241 0.445943
vn 0.008829449 -0.9999148 0.009630186
vn 0.00882945 -0.9999148 0.009630186
vn 0.00882945 -0.9999148 0.009630186
vn 0.008825884 -0.9999148 0.009631687
vn -0.03019498 -0.9994605 -0.01293364
vn -0.03019444 -0.9994604 -0.012938
vn -0.06921926 -0.9975559 0.009553649
vn -0.06921732 -0.997556 0.009555116
vn -0.06921731 -0.9961057 0.05461187
vn -0.06921731 -0.9961057 0.05461187
vn -0.06921731 -0.9961057 0.05461187
vn -0.06922094 -0.9961055 0.0546134
vn -0.03019478 -0.9965598 0.07718168
vn -0.0301942 -0.9965602 0.07717699
vn 0.008827267 -0.9984646 0.05468725
vn 0.00882945 -0.9984646 0.0546889
vn -0.1392112 -0.98571 0.09484934
vn -0.1392112 -0.98571 0.09484934
vn -0.1392112 -0.98571 0.09484934
vn -0.1392099 -0.9857101 0.09484896
vn -0.02998322 -0.9869818 0.1580135
vn -0.02998322 -0.9869818 0.1580135
vn -0.02998322 -0.9869818 0.1580135
vn -0.02998346 -0.9869816 0.1580145
vn 0.07924389 -0.9923124 0.09506208
vn 0.0792439 -0.9923124 0.09506208
vn 0.07924389 -0.9923124 0.09506206
vn 0.07924631 -0.9923119 0.09506434
vn 0.07924636 -0.9963713 -0.03105637
vn 0.07924636 -0.9963713 -0.03105637
vn 0.07924635 -0.9963713 -0.03105637
vn 0.07924329 -0.9963716 -0.03105545
vn -0.02998357 -0.9951 -0.09421994
vn -0.02998357 -0.9951 -0.09421992
vn -0.02998357 -0.9951 -0.09421993
vn -0.02998519 -0.9951006 -0.0942132
vn -0.1392061 -0.9897699 -0.03126461
vn -0.1392061 -0.9897699 -0.03126461
vn -0.1392061 -0.9897699 -0.03126461
vn -0.1392112 -0.989769 -0.03126946

vt 0.7879072 0.8242779
vt 0.8001339 0.8242779
vt 0.7756804 0.8798555
vt 0.7634536 0.8242779
vt 0.7879072 0.8242779
vt 0.7756804 0.8798555
vt 0.7512268 0.8242779
vt 0.7634536 0.8242779
vt 0.7756804 0.8798555
vt 0.7634536 0.8242779
vt 0.7512268 0.8242779
vt 0.7756804 0.8798555
vt 0.7879071 0.8242779
vt 0.7634536 0.8242779
vt 0.7756804 0.8798555
vt 0.8001339 0.8242779
vt 0.7879071 0.8242779
vt 0.7756804 0.8798555
vt 0.2209835 0.388818
vt 0.2013809 0.6456031
vt 0.2047579 0.388818
vt 0.2142294 0.6456031
vt 0.2047579 0.388818
vt 0.1756839 0.6456031
vt 0.1723069 0.388818
vt 0.2013809 0.6456031
vt 0.1723069 0.388818
vt 0.1628353 0.6456031
vt 0.1560813 0.388818
vt 0.1756839 0.6456031
vt 0.1560813 0.388818
vt 0.1756839 0.6456031
vt 0.1723069 0.388818
vt 0.1628353 0.6456031
vt 0.1723069 0.388818
vt 0.2013809 0.6456031
vt 0.2047579 0.388818
vt 0.1756839 0.6456031
vt 0.2047579 0.388818
vt 0.2142294 0.6456031
vt 0.2209835 0.388818
vt 0.2013809 0.6456031
vt 0.8142501 0.06201676
vt 0.8231531 0.09522417
vt 0.8087789 0.09522417
vt 0.8340955 0.06201676
vt 0.7745592 0.06201676
vt 0.8087789 0.09522417
vt 0.7800304 0.09522417
vt 0.8142501 0.06201676
vt 0.7547137 0.06201676
vt 0.7800304 0.09522417
vt 0.7656561 0.09522417
vt 0.7745592 0.06201676
vt 0.7745592 0.06201676
vt 0.7656561 0.09522417
vt 0.7800303 0.09522417
vt 0.7547137 0.06201676
vt 0.8142501 0.06201676
vt 0.7800303 0.09522417
vt 0.8087789 0.09522417
vt 0.7745592 0.06201676
vt 0.8340955 0.06201676
vt 0.8087789 0.09522417
vt 0.8231531 0.09522417
vt 0.8142501 0.06201676
vt 0.7745592 0.06201676
vt 0.7745592 0.06201676
vt 0.7547137 0.06201676
vt 0.8142501 0.06201676
vt 0.8142501 0.06201676
vt 0.8340955 0.06201676
vt 0.7983752 0.5092804
vt 0.8222791 0.4698847
vt 0.8076957 0.5092804
vt 0.805667 0.4698847
vt 0.7797344 0.5092804
vt 0.805667 0.4698847
vt 0.7983752 0.5092804
vt 0.7724427 0.4698847
vt 0.7704139 0.5092804
vt 0.7724427 0.4698847
vt 0.7797344 0.5092804
vt 0.7558305 0.4698847
vt 0.7797344 0.5092804
vt 0.7558305 0.4698847
vt 0.7704139 0.5092804
vt 0.7724427 0.4698847
vt 0.7983752 0.5092804
vt 0.7724427 0.4698847
vt 0.7797344 0.5092804
vt 0.8056669 0.4698847
vt 0.8076957 0.5092804
vt 0.8056669 0.4698847
vt 0.7983752 0.5092804
vt 0.8222791 0.4698847
vt 0.805667 0.4698847
vt 0.8178033 0.4697098
vt 0.8222791 0.4698847
vt 0.8034291 0.4697098
vt 0.7724427 0.4698847
vt 0.7746806 0.4697098
vt 0.7558305 0.4698847
vt 0.7603062 0.4697098
vt 0.7724427 0.4698847
vt 0.7603062 0.4697098
vt 0.7558305 0.4698847
vt 0.7746805 0.4697098
vt 0.8056669 0.4698847
vt 0.8034291 0.4697098
vt 0.8222791 0.4698847
vt 0.8178033 0.4697098
vt 0.7879072 0.8242779
vt 0.7943213 0.8249183
vt 0.8001339 0.8242779
vt 0.7850008 0.8249183
vt 0.7634536 0.8242779
vt 0.7850008 0.8249183
vt 0.7879072 0.8242779
vt 0.7663599 0.8249183
vt 0.7512268 0.8242779
vt 0.7663599 0.8249183
vt 0.7634536 0.8242779
vt 0.7570394 0.8249183
vt 0.7634536 0.8242779
vt 0.7570394 0.8249183
vt 0.7512268 0.8242779
vt 0.7663599 0.8249183
vt 0.7879071 0.8242779
vt 0.7663599 0.8249183
vt 0.7634536 0.8242779
vt 0.7850008 0.8249183
vt 0.8001339 0.8242779
vt 0.7850008 0.8249183
vt 0.7879071 0.8242779
vt 0.7943213 0.8249183

g Tree_01_Green_(2)_333_88
usemtl Tree_01_Green_(2)_333_88
usemap Tree_01_Green_(2)_333_88
f 1/1/1 3/3/3 2/2/2
f 4/4/4 6/6/6 5/5/5
f 7/7/7 9/9/9 8/8/8
f 10/10/10 12/12/12 11/11/11
f 13/13/13 15/15/15 14/14/14
f 16/16/16 18/18/18 17/17/17
f 19/19/19 21/21/21 20/20/20
f 20/20/20 22/22/22 19/19/19
f 23/23/23 25/25/25 24/24/24
f 24/24/24 26/26/26 23/23/23
f 27/27/27 29/29/29 28/28/28
f 28/28/28 30/30/30 27/27/27
f 31/31/31 33/33/33 32/32/32
f 32/32/32 34/34/34 31/31/31
f 35/35/35 37/37/37 36/36/36
f 36/36/36 38/38/38 35/35/35
f 39/39/39 41/41/41 40/40/40
f 40/40/40 42/42/42 39/39/39
f 43/43/43 45/45/45 44/44/44
f 44/44/44 46/46/46 43/43/43
f 47/47/47 49/49/49 48/48/48
f 48/48/48 50/50/50 47/47/47
f 51/51/51 53/53/53 52/52/52
f 52/52/52 54/54/54 51/51/51
f 55/55/55 57/57/57 56/56/56
f 56/56/56 58/58/58 55/55/55
f 59/59/59 61/61/61 60/60/60
f 60/60/60 62/62/62 59/59/59
f 63/63/63 65/65/65 64/64/64
f 64/64/64 66/66/66 63/63/63
f 67/67/67 69/69/69 68/68/68
f 68/68/68 70/70/70 67/67/67
f 70/70/70 68/68/68 71/71/71
f 71/71/71 72/72/72 70/70/70
f 73/73/73 75/75/75 74/74/74
f 74/74/74 76/76/76 73/73/73
f 77/77/77 79/79/79 78/78/78
f 78/78/78 80/80/80 77/77/77
f 81/81/81 83/83/83 82/82/82
f 82/82/82 84/84/84 81/81/81
f 85/85/85 87/87/87 86/86/86
f 86/86/86 88/88/88 85/85/85
f 89/89/89 91/91/91 90/90/90
f 90/90/90 92/92/92 89/89/89
f 93/93/93 95/95/95 94/94/94
f 94/94/94 96/96/96 93/93/93
f 97/97/97 99/99/99 98/98/98
f 98/98/98 100/100/100 97/97/97
f 101/101/101 97/97/97 100/100/100
f 100/100/100 102/102/102 101/101/101
f 103/103/103 101/101/101 102/102/102
f 102/102/102 104/104/104 103/103/103
f 105/105/105 107/107/107 106/106/106
f 106/106/106 108/108/108 105/105/105
f 109/109/109 105/105/105 108/108/108
f 108/108/108 110/110/110 109/109/109
f 111/111/111 109/109/109 110/110/110
f 110/110/110 112/112/112 111/111/111
f 113/113/113 115/115/115 114/114/114
f 114/114/114 116/116/116 113/113/113
f 117/117/117 119/119/119 118/118/118
f 118/118/118 120/120/120 117/117/117
f 121/121/121 123/123/123 122/122/122
f 122/122/122 124/124/124 121/121/121
f 125/125/125 127/127/127 126/126/126
f 126/126/126 128/128/128 125/125/125
f 129/129/129 131/131/131 130/130/130
f 130/130/130 132/132/132 129/129/129
f 133/133/133 135/135/135 134/134/134
f 134/134/134 136/136/136 133/133/133
