#Tree_06_(9)_472_50.obj

v 0.2514996 -0.6991794 1.816888
v 0.6453677 -1.000072 2.053999
v 0.6422306 -0.9614297 2.080755
v 0.6453677 -1.000072 2.053999
v 0.2514996 -0.6991794 1.816888
v 0.2381242 -0.7664137 1.7669
v 0.2265302 -0.6511601 1.766318
v 0.6422306 -0.9614297 2.080755
v 0.6118631 -0.9601012 2.116739
v 0.6422306 -0.9614297 2.080755
v 0.2265302 -0.6511601 1.766318
v 0.2514996 -0.6991794 1.816888
v 0.5846335 -0.9974163 2.125969
v 0.2265302 -0.6511601 1.766318
v 0.6118631 -0.9601012 2.116739
v 0.2265302 -0.6511601 1.766318
v 0.5846335 -0.9974163 2.125969
v 0.1881884 -0.7205511 1.796528
v 0.587774 -1.036058 2.099213
v 0.1881884 -0.7205511 1.796528
v 0.5846335 -0.9974163 2.125969
v 0.1881884 -0.7205511 1.796528
v 0.587774 -1.036058 2.099213
v 0.1748133 -0.7877858 1.746542
v 0.618141 -1.037386 2.06323
v 0.1748133 -0.7877858 1.746542
v 0.587774 -1.036058 2.099213
v 0.1748133 -0.7877858 1.746542
v 0.618141 -1.037386 2.06323
v 0.1997793 -0.8358062 1.797112
v 0.2381242 -0.7664137 1.7669
v 0.618141 -1.037386 2.06323
v 0.6453677 -1.000072 2.053999
v 0.618141 -1.037386 2.06323
v 0.2381242 -0.7664137 1.7669
v 0.1997793 -0.8358062 1.797112
v -0.9728594 0.5023972 2.540282
v -0.8487307 0.1826444 2.407863
v -0.8604268 0.2368046 2.305744
v -0.8487307 0.1826444 2.407863
v -0.9728594 0.5023972 2.540282
v -0.8922043 0.4537728 2.572353
v -0.7888252 0.4021412 2.517352
v -0.776739 0.2848833 2.268867
v -0.7923601 0.1916923 2.397731
v -0.776739 0.2848833 2.268867
v -0.7888252 0.4021412 2.517352
v -0.8265761 0.4024135 2.363517
v -0.7381142 0.0739342 3.112648
v -0.6390095 -0.008743305 2.916964
v -0.7158935 0.005310262 3.077405
v -0.6304311 0.03759374 2.922344
v -0.6942419 0.07659814 2.86637
v -0.6390095 -0.008743305 2.916964
v -0.6942419 0.07659814 2.86637
v -0.6304311 0.03759374 2.922344
v -0.7214543 0.1364332 2.856302
v 0.3682898 -0.8928913 2.016426
v 0.41208 -0.9477974 2.013025
v 0.3393273 -0.9230677 2.00292
v 0.4017306 -0.7853166 1.923197
v 0.2747681 -0.747112 1.962428
v 0.2969932 -0.7200509 1.813807
v 0.2747681 -0.747112 1.962428
v 0.4017306 -0.7853166 1.923197
v 0.3124005 -0.8021566 1.972101
v 0.472616 -0.8983771 2.007884
v 0.2320323 -0.86457 1.83398
v 0.41208 -0.9477974 2.013025
v 0.2320323 -0.86457 1.83398
v 0.4017306 -0.7853166 1.923197
v 0.2969932 -0.7200509 1.813807
v 0.472616 -0.8983771 2.007884
v 0.4017306 -0.7853166 1.923197
v 0.2320323 -0.86457 1.83398
v 0.3682898 -0.8928913 2.016426
v 0.2747681 -0.747112 1.962428
v 0.3124005 -0.8021566 1.972101
v -0.09396516 -0.2286734 1.383583
v 0.05985394 -0.5657341 1.76775
v 0.07010447 -0.642952 1.64099
v 0.05985394 -0.5657341 1.76775
v -0.09396516 -0.2286734 1.383583
v 0.02193796 -0.2633509 1.543051
v 0.8127314 0.7007555 1.843931
v 0.8436885 0.6774163 1.757191
v 0.8235281 0.6272916 1.843931
v 0.8436885 0.6774163 1.757191
v 0.8127314 0.7007555 1.843931
v 0.8781241 0.7779863 1.783051
v 0.1048203 -0.03511037 1.566176
v -0.5006646 0.06507847 2.195878
v -0.5726611 0.09480895 2.186091
v -0.5006646 0.06507847 2.195878
v 0.1048203 -0.03511037 1.566176
v -0.006831225 -0.07823953 1.740156
v -0.5449784 0.005498105 2.195878
v -0.5726611 0.09480895 2.186091
v -0.5006646 0.06507847 2.195878
v -0.5726611 0.09480895 2.186091
v -0.5449784 0.005498105 2.195878
v -0.6458276 -0.00287154 2.134998
v 0.4978464 0.5551331 1.594591
v 0.5728505 0.5230876 1.636423
v 0.3849622 0.4444482 1.593928
v 0.3117475 -2.819003E-07 -5.178256E-23
v 0.1428769 0.1926843 0.6786004
v 0.1558734 0.2699814 4.959315E-17
v 0.2734311 -0.02979244 0.7166381
v 0.05243898 0.1153853 1.411715
v 0.1576733 -0.05958644 1.48779
v -0.4076181 0.04344482 2.046885
v -0.4653517 0.1932994 1.96963
v -0.6104055 0.1464761 2.368714
v -0.6824256 0.2712122 2.368714
v -0.4460323 0.1084071 3.166455
v -0.4100285 0.03228048 3.141246
v 0.1558734 0.2699814 4.959315E-17
v -0.1182319 0.1853857 0.6513638
v -0.155874 0.2699816 4.95932E-17
v 0.1428769 0.1926843 0.6786004
v -0.1580281 0.1007894 1.357242
v 0.05243898 0.1153853 1.411715
v -0.4653517 0.1932994 1.96963
v -0.6052373 0.1860013 1.857417
v -0.6824256 0.2712122 2.368714
v -0.8264576 0.2712136 2.368714
v -0.518037 0.1084081 3.216874
v -0.4460323 0.1084071 3.166455
v -0.1182319 0.1853857 0.6513638
v -0.3117475 2.703173E-07 4.965486E-23
v -0.155874 0.2699816 4.95932E-17
v -0.2487864 -0.04438968 0.6621652
v -0.1580281 0.1007894 1.357242
v -0.2632609 -0.08877822 1.378844
v -0.6052373 0.1860013 1.857417
v -0.6873894 0.02884895 1.822459
v -0.8264576 0.2712136 2.368714
v -0.8984756 0.1464756 2.368714
v -0.5540407 0.03228092 3.242085
v -0.518037 0.1084081 3.216874
v -0.2487864 -0.04438968 0.6621652
v -0.1558734 -0.2699814 -4.959315E-17
v -0.3117475 2.703173E-07 4.965486E-23
v -0.1182323 -0.2668663 0.7002029
v -0.2632609 -0.08877822 1.378844
v -0.1580266 -0.2637499 1.45492
v -0.6296558 -0.1210057 1.899713
v -0.6873894 0.02884895 1.822459
v -0.8264586 0.0217379 2.368714
v -0.8984756 0.1464756 2.368714
v -0.5180399 -0.04384717 3.216874
v -0.5540407 0.03228092 3.242085
v -0.1182323 -0.2668663 0.7002029
v 0.155874 -0.2699816 -4.95932E-17
v -0.1558734 -0.2699814 -4.959315E-17
v 0.1428765 -0.2595677 0.7274393
v -0.1580266 -0.2637499 1.45492
v 0.05244047 -0.249154 1.509393
v -0.4897702 -0.1137076 2.011926
v -0.6296558 -0.1210057 1.899713
v -0.6824235 0.02173821 2.368714
v -0.8264586 0.0217379 2.368714
v -0.4460323 -0.04384655 3.166455
v -0.5180399 -0.04384717 3.216874
v 0.155874 -0.2699816 -4.95932E-17
v 0.2734311 -0.02979244 0.7166381
v 0.3117475 -2.819003E-07 -5.178256E-23
v 0.1428765 -0.2595677 0.7274393
v 0.1576733 -0.05958644 1.48779
v 0.05244047 -0.249154 1.509393
v -0.4076181 0.04344482 2.046885
v -0.4897702 -0.1137076 2.011926
v -0.6104055 0.1464761 2.368714
v -0.6824235 0.02173821 2.368714
v -0.4100285 0.03228048 3.141246
v -0.4460323 -0.04384655 3.166455
v -0.518037 0.1084081 3.216874
v -0.5180399 -0.04384717 3.216874
v -0.5540407 0.03228092 3.242085
v -0.4460323 0.1084071 3.166455
v -0.4460323 -0.04384655 3.166455
v -0.4100285 0.03228048 3.141246
v -0.577363 0.08254413 2.82145
v -0.930378 0.06062409 3.143831
v -0.5949986 0.1543694 2.772995
v -0.904598 0.01679066 3.161881
v -0.5949986 0.1543694 2.772995
v -0.9819309 0.06062528 3.107731
v -0.6302705 0.1543691 2.676088
v -0.930378 0.06062409 3.143831
v -0.6302705 0.1543691 2.676088
v -1.00771 0.01679016 3.089682
v -0.6479068 0.08254366 2.627634
v -0.9819309 0.06062528 3.107731
v -0.6479068 0.08254366 2.627634
v -0.981933 -0.02704508 3.107731
v -0.6302711 0.01071847 2.676088
v -1.00771 0.01679016 3.089682
v -0.6302711 0.01071847 2.676088
v -0.9303771 -0.02704464 3.143831
v -0.5949993 0.01071874 2.772995
v -0.981933 -0.02704508 3.107731
v -0.5949993 0.01071874 2.772995
v -0.904598 0.01679066 3.161881
v -0.577363 0.08254413 2.82145
v -0.9303771 -0.02704464 3.143831
v -0.9819309 0.06062528 3.107731
v -0.981933 -0.02704508 3.107731
v -1.00771 0.01679016 3.089682
v -0.930378 0.06062409 3.143831
v -0.9303771 -0.02704464 3.143831
v -0.904598 0.01679066 3.161881
v -0.6602615 0.1540793 2.008635
v -0.9596105 0.4482017 2.336961
v -0.7300019 0.07173423 2.039906
v -0.9071581 0.4987164 2.307436
v -1.003028 0.6595638 2.693948
v -0.979826 0.6918148 2.6817
v -0.7300019 0.07173423 2.039906
v -0.9394942 0.400965 2.396447
v -0.7119928 0.01631411 2.135962
v -0.9596105 0.4482017 2.336961
v -0.9855085 0.6279951 2.714561
v -1.003028 0.6595638 2.693948
v -0.7119928 0.01631411 2.135962
v -0.8669288 0.4042418 2.42641
v -0.6242437 0.04323971 2.200749
v -0.9394942 0.400965 2.396447
v -0.9447903 0.6286761 2.722925
v -0.9855085 0.6279951 2.714561
v -0.6242437 0.04323971 2.200749
v -0.8144765 0.4547567 2.396889
v -0.5545004 0.1255867 2.169479
v -0.8669288 0.4042418 2.42641
v -0.9215915 0.6609256 2.710677
v -0.9447903 0.6286761 2.722925
v -0.5545004 0.1255867 2.169479
v -0.8345898 0.5019949 2.337402
v -0.5725094 0.1810067 2.073422
v -0.8144765 0.4547567 2.396889
v -0.9391079 0.6924958 2.690065
v -0.9215915 0.6609256 2.710677
v -0.5725094 0.1810067 2.073422
v -0.9071581 0.4987164 2.307436
v -0.6602615 0.1540793 2.008635
v -0.8345898 0.5019949 2.337402
v -0.979826 0.6918148 2.6817
v -0.9391079 0.6924958 2.690065
v -0.9855085 0.6279951 2.714561
v -0.9215915 0.6609256 2.710677
v -0.9447903 0.6286761 2.722925
v -1.003028 0.6595638 2.693948
v -0.9391079 0.6924958 2.690065
v -0.979826 0.6918148 2.6817
v -0.003042534 -0.2429982 1.140666
v 0.2924206 -0.6375107 1.518534
v 0.1501988 -0.1642172 1.205792
v 0.1939342 -0.6804749 1.461254
v 0.1818016 -0.9901138 2.060861
v 0.2755361 -0.9319316 2.096819
v -0.004424026 -0.9903092 2.552495
v 0.04687401 -0.9583401 2.574782
v 0.1501988 -0.1642172 1.205792
v 0.2837298 -0.5381448 1.588375
v 0.138847 -0.03446131 1.336043
v 0.2924206 -0.6375107 1.518534
v 0.2755361 -0.9319316 2.096819
v 0.2667017 -0.8203886 2.122978
v 0.138847 -0.03446131 1.336043
v 0.1765466 -0.4817462 1.600938
v -0.02574617 0.0165134 1.401169
v 0.2837298 -0.5381448 1.588375
v 0.2667017 -0.8203886 2.122978
v 0.1641321 -0.7670268 2.113184
v -0.01527222 -0.866328 2.585843
v 0.04145 -0.8963497 2.591453
v -0.02574617 0.0165134 1.401169
v 0.07805695 -0.5247114 1.543661
v -0.1789903 -0.06226958 1.336043
v 0.1765466 -0.4817462 1.600938
v 0.07039968 -0.8252057 2.077229
v 0.1641321 -0.7670268 2.113184
v -0.06657066 -0.8982964 2.563558
v -0.01527222 -0.866328 2.585843
v -0.1789903 -0.06226958 1.336043
v 0.08675077 -0.6240757 1.473819
v -0.1676356 -0.1920236 1.205791
v 0.07805695 -0.5247114 1.543661
v 0.07923431 -0.9367491 2.051068
v 0.07039968 -0.8252057 2.077229
v -0.06114969 -0.9602883 2.546884
v -0.06657066 -0.8982964 2.563558
v -0.1676356 -0.1920236 1.205791
v 0.1939342 -0.6804749 1.461254
v -0.003042534 -0.2429982 1.140666
v 0.08675077 -0.6240757 1.473819
v 0.07923431 -0.9367491 2.051068
v 0.1818016 -0.9901138 2.060861
v -0.06114969 -0.9602883 2.546884
v -0.004424026 -0.9903092 2.552495
v 0.04145 -0.8963497 2.591453
v -0.06657066 -0.8982964 2.563558
v -0.01527222 -0.866328 2.585843
v 0.04687401 -0.9583401 2.574782
v -0.06114969 -0.9602883 2.546884
v -0.004424026 -0.9903092 2.552495
v 0.2667017 -0.8203886 2.122978
v 0.04687401 -0.9583401 2.574782
v 0.04145 -0.8963497 2.591453
v 0.2755361 -0.9319316 2.096819
v 0.6118631 -0.9601012 2.116739
v 0.587774 -1.036058 2.099213
v 0.5846335 -0.9974163 2.125969
v 0.6422306 -0.9614297 2.080755
v 0.618141 -1.037386 2.06323
v 0.6453677 -1.000072 2.053999
v 0.1316139 -0.03875392 1.008595
v 0.5408857 0.5793726 1.315461
v 0.03238064 0.09817584 1.01851
v 0.6446316 0.5116754 1.313367
v 1.076967 0.8698113 1.809313
v 1.000192 0.9594676 1.811852
v 0.03238064 0.09817584 1.01851
v 0.4670305 0.5764884 1.414893
v -0.094652 0.1027892 1.130477
v 0.5408857 0.5793726 1.315461
v 1.000192 0.9594676 1.811852
v 0.8875408 0.9385817 1.835169
v 0.9945337 0.9418281 2.46778
v 0.9318041 0.9303814 2.482963
v -0.094652 0.1027892 1.130477
v 0.496917 0.5059076 1.512232
v -0.1224516 -0.02952689 1.232531
v 0.4670305 0.5764884 1.414893
v 0.8875408 0.9385817 1.835169
v 0.8516645 0.8280408 1.855954
v 0.9114716 0.869096 2.494249
v 0.9318041 0.9303814 2.482963
v -0.1224516 -0.02952689 1.232531
v 0.600659 0.4382105 1.51014
v -0.02321829 -0.1664568 1.222616
v 0.496917 0.5059076 1.512232
v 0.9284363 0.7383838 1.853417
v 0.8516645 0.8280408 1.855954
v -0.02321829 -0.1664568 1.222616
v 0.6745178 0.4410952 1.410708
v 0.1038145 -0.1710705 1.110647
v 0.600659 0.4382105 1.51014
v 1.041088 0.7592694 1.830097
v 0.9284363 0.7383838 1.853417
v 1.016599 0.8307029 2.475162
v 0.9538691 0.8192567 2.490346
v 0.1038145 -0.1710705 1.110647
v 0.6446316 0.5116754 1.313367
v 0.1316139 -0.03875392 1.008595
v 0.6745178 0.4410952 1.410708
v 1.041088 0.7592694 1.830097
v 1.076967 0.8698113 1.809313
v 1.016599 0.8307029 2.475162
v 1.036932 0.891988 2.463876
v 0.9318041 0.9303814 2.482963
v 0.9538691 0.8192567 2.490346
v 0.9114716 0.869096 2.494249
v 0.9945337 0.9418281 2.46778
v 1.016599 0.8307029 2.475162
v 1.036932 0.891988 2.463876
v 1.000192 0.9594676 1.811852
v 1.036932 0.891988 2.463876
v 0.9945337 0.9418281 2.46778
v 1.076967 0.8698113 1.809313
v 0.9538691 0.8192567 2.490346
v 0.8516645 0.8280408 1.855954
v 0.9114716 0.869096 2.494249
v 0.9284363 0.7383838 1.853417
v 0.7421167 0.1956517 2.013897
v 0.7461029 0.09001572 1.993628
v 0.7135929 0.1406422 2.009185
v 0.8031508 0.2000345 2.003055
v 0.8071333 0.09439801 1.982785
v 0.8356603 0.1494089 1.987497
v 0.7400471 0.2011627 1.592859
v 0.349661 0.337812 1.230649
v 0.3814211 0.2461301 1.174844
v 0.7016844 0.2962742 1.626723
v 0.8356603 0.1494089 1.987497
v 0.8031508 0.2000345 2.003055
v 0.7016844 0.2962742 1.626723
v 0.2643102 0.3323386 1.30116
v 0.349661 0.337812 1.230649
v 0.6207303 0.29037 1.667941
v 0.8031508 0.2000345 2.003055
v 0.7421167 0.1956517 2.013897
v 0.6207303 0.29037 1.667941
v 0.2107162 0.2351821 1.315871
v 0.2643102 0.3323386 1.30116
v 0.5781451 0.1893573 1.675302
v 0.7421167 0.1956517 2.013897
v 0.7135929 0.1406422 2.009185
v 0.2107162 0.2351821 1.315871
v 0.6165079 0.09424554 1.641442
v 0.2424732 0.1434988 1.260069
v 0.5781451 0.1893573 1.675302
v 0.7461029 0.09001572 1.993628
v 0.7135929 0.1406422 2.009185
v 0.2424732 0.1434988 1.260069
v 0.6974587 0.1001487 1.600221
v 0.3278271 0.1489737 1.189556
v 0.6165079 0.09424554 1.641442
v 0.8071333 0.09439801 1.982785
v 0.7461029 0.09001572 1.993628
v 0.3278271 0.1489737 1.189556
v 0.7400471 0.2011627 1.592859
v 0.3814211 0.2461301 1.174844
v 0.6974587 0.1001487 1.600221
v 0.8356603 0.1494089 1.987497
v 0.8071333 0.09439801 1.982785
v 0.08350205 0.1740082 1.434738
v 0.4306107 0.1514673 1.540931
v 0.1483437 0.03658018 1.434738
v 0.4198141 0.2249312 1.540931
v 0.1956384 0.2617081 1.504217
v 0.1448437 -0.08434813 1.27527
v 0.4306107 0.1514673 1.540931
v 0.5025433 0.1813557 1.414171
v 0.1483437 0.03658018 1.434738
v 0.4198141 0.2249312 1.540931
v 0.5025433 0.1813557 1.414171
v 0.4306107 0.1514673 1.540931
v 0.4852097 0.3021635 1.363077
v 0.200437 0.3181609 1.27527
v 0.08350205 0.1740082 1.434738
v 0.01609318 0.1574458 1.173083
v 0.1956384 0.2617081 1.504217
v 0.01609318 0.1574458 1.173083
v 0.1483437 0.03658018 1.434738
v 0.1448437 -0.08434813 1.27527
v 0.08350205 0.1740082 1.434738
v 0.1956384 0.2617081 1.504217
v 0.4852097 0.3021635 1.363077
v 0.4198141 0.2249312 1.540931
v 0.200437 0.3181609 1.27527
v -0.8160529 0.5149694 2.581771
v -0.8487307 0.1826444 2.407863
v -0.8922043 0.4537728 2.572353
v -0.7923601 0.1916923 2.397731
v -0.7888252 0.4021412 2.517352
v -0.7923601 0.1916923 2.397731
v -0.8604268 0.2368046 2.305744
v -0.8487307 0.1826444 2.407863
v -0.776739 0.2848833 2.268867
v -0.8265761 0.4024135 2.363517
v -0.8160529 0.5149694 2.581771
v -0.877436 0.5620592 2.526276
v -0.7888252 0.4021412 2.517352
v -0.877436 0.5620592 2.526276
v -0.8922043 0.4537728 2.572353
v -0.9728594 0.5023972 2.540282
v -0.8160529 0.5149694 2.581771
v -0.6390095 -0.008743305 2.916964
v -0.7381142 0.0739342 3.112648
v -0.6304311 0.03759374 2.922344
v -0.6889877 0.07861802 3.050777
v -0.8504573 -0.00372791 3.028817
v -0.6390095 -0.008743305 2.916964
v -0.6942419 0.07659814 2.86637
v -0.7158935 0.005310262 3.077405
v -0.7881905 0.08214865 2.959609
v -0.7381142 0.0739342 3.112648
v -0.8820926 0.06171828 3.03543
v -0.6889877 0.07861802 3.050777
v -0.8820926 0.06171828 3.03543
v -0.7158935 0.005310262 3.077405
v -0.8504573 -0.00372791 3.028817
v -0.7381142 0.0739342 3.112648
v -0.6889877 0.07861802 3.050777
v -0.7214543 0.1364332 2.856302
v -0.6304311 0.03759374 2.922344
v -0.7881905 0.08214865 2.959609
v 0.2747681 -0.747112 1.962428
v 0.3393273 -0.9230677 2.00292
v 0.2343287 -0.8252096 1.94357
v 0.3682898 -0.8928913 2.016426
v 0.2320323 -0.86457 1.83398
v 0.3393273 -0.9230677 2.00292
v 0.41208 -0.9477974 2.013025
v 0.2343287 -0.8252096 1.94357
v 0.41208 -0.9477974 2.013025
v 0.3682898 -0.8928913 2.016426
v 0.472616 -0.8983771 2.007884
v 0.3124005 -0.8021566 1.972101
v 0.4017306 -0.7853166 1.923197
v 0.2969932 -0.7200509 1.813807
v 0.2343287 -0.8252096 1.94357
v 0.2320323 -0.86457 1.83398
v 0.2747681 -0.747112 1.962428
v 0.171465 -0.2362879 1.543051
v 0.05985394 -0.5657341 1.76775
v 0.02193796 -0.2633509 1.543051
v 0.1336078 -0.574322 1.767751
v 0.2271517 -0.3673033 1.731037
v 0.1336078 -0.574322 1.767751
v 0.07010447 -0.642952 1.64099
v 0.05985394 -0.5657341 1.76775
v 0.1912831 -0.6574758 1.589897
v 0.2804407 -0.3865475 1.51793
v 0.171465 -0.2362879 1.543051
v 0.1729134 -0.1668913 1.417045
v 0.2271517 -0.3673033 1.731037
v 0.1729134 -0.1668913 1.417045
v 0.02193796 -0.2633509 1.543051
v -0.09396516 -0.2286734 1.383583
v 0.171465 -0.2362879 1.543051
v 0.2271517 -0.3673033 1.731037
v 0.1912831 -0.6574758 1.589897
v 0.1336078 -0.574322 1.767751
v 0.2804407 -0.3865475 1.51793
v 0.8436885 0.6774163 1.757191
v 0.6297547 0.4818024 1.605603
v 0.8235281 0.6272916 1.843931
v 0.6156098 0.4521433 1.506064
v 0.4359841 0.3363148 1.532287
v 0.387531 0.2268704 1.419949
v 0.4554364 0.56113 1.438508
v 0.3849622 0.4444482 1.593928
v 0.2953494 0.3999926 1.346784
v 0.4978464 0.5551331 1.594591
v 0.6155263 0.7222691 1.695243
v 0.6107277 0.6658164 1.760267
v 0.2953494 0.3999926 1.346784
v 0.4359841 0.3363148 1.532287
v 0.387531 0.2268704 1.419949
v 0.3849622 0.4444482 1.593928
v 0.6107277 0.6658164 1.760267
v 0.8781241 0.7779863 1.783051
v 0.8127314 0.7007555 1.843931
v 0.6155263 0.7222691 1.695243
v 0.6107277 0.6658164 1.760267
v 0.5728505 0.5230876 1.636423
v 0.4978464 0.5551331 1.594591
v 0.8127314 0.7007555 1.843931
v 0.8235281 0.6272916 1.843931
v 0.6297547 0.4818024 1.605603
v 0.3849622 0.4444482 1.593928
v 0.4359841 0.3363148 1.532287
v -0.04721666 -0.1907787 1.740156
v -0.5006646 0.06507847 2.195878
v -0.006831225 -0.07823953 1.740156
v -0.5449784 0.005498105 2.195878
v -0.3774335 -0.1126346 2.006941
v -0.4207443 -0.1491602 1.941918
v -0.04721666 -0.1907787 1.740156
v 0.04758571 -0.2227105 1.493012
v -0.3774335 -0.1126346 2.006941
v 0.04758571 -0.2227105 1.493012
v -0.006831225 -0.07823953 1.740156
v 0.1048203 -0.03511037 1.566176
v -0.04721666 -0.1907787 1.740156
v -0.3774335 -0.1126346 2.006941
v -0.6458276 -0.00287154 2.134998
v -0.5449784 0.005498105 2.195878
v -0.4207443 -0.1491602 1.941918

vn 0.8193359 -0.5698242 -0.06347656
vn 0.8193359 -0.5698242 -0.06347656
vn 0.8193359 -0.5698242 -0.06347656
vn 0.7548828 -0.6557617 0.009902954
vn 0.7548828 -0.6557617 0.009902954
vn 0.7548828 -0.6557617 0.009902954
vn 0.7700195 0.3110352 -0.5571289
vn 0.7700195 0.3110352 -0.5571289
vn 0.7700195 0.3110352 -0.5571289
vn -0.3820801 -0.6796875 0.6264648
vn -0.3820801 -0.6796875 0.6264648
vn -0.3820801 -0.6796875 0.6264648
vn -0.09381104 0.8081055 -0.581543
vn -0.09381104 0.8081055 -0.581543
vn -0.09381104 0.8081055 -0.581543
vn -0.01765442 0.800293 -0.5991211
vn -0.01765442 0.800293 -0.5991211
vn -0.01765442 0.800293 -0.5991211
vn -0.8491211 0.527832 0.01805115
vn -0.8491211 0.527832 0.01805115
vn -0.8491211 0.527832 0.01805115
vn -0.7827148 0.6186523 -0.06878662
vn -0.7827148 0.6186523 -0.06878662
vn -0.7827148 0.6186523 -0.06878662
vn -0.730957 -0.2485352 0.6352539
vn -0.730957 -0.2485352 0.6352539
vn -0.730957 -0.2485352 0.6352539
vn 0.2244873 0.7143555 -0.6625977
vn 0.2244873 0.7143555 -0.6625977
vn 0.2244873 0.7143555 -0.6625977
vn 0.07397461 -0.831543 0.550293
vn 0.07397461 -0.831543 0.550293
vn 0.07397461 -0.831543 0.550293
vn -0.003675461 -0.8164063 0.5771484
vn -0.003675461 -0.8164063 0.5771484
vn -0.003675461 -0.8164063 0.5771484
vn -0.8515625 0.5166016 0.08758545
vn -0.9921875 0.04174805 -0.1160889
vn -0.9848633 -0.07037354 -0.1588135
vn -0.9921875 0.04174805 -0.1160889
vn -0.8515625 0.5166016 0.08758545
vn -0.7294922 0.6645508 0.161499
vn 0.9584961 -0.05484009 0.2800293
vn 0.6743164 -0.2792969 0.6835938
vn 0.2504883 -0.3342285 0.9086914
vn 0.6743164 -0.2792969 0.6835938
vn 0.9584961 -0.05484009 0.2800293
vn 0.9775391 -0.2032471 -0.05151367
vn 0.6962891 0.4748535 0.5385742
vn 0.6689453 0.4990234 0.5507813
vn 0.8256836 0.4257813 0.3703613
vn 0.8803711 -0.4680176 0.07391357
vn 0.7060547 -0.6835938 0.185791
vn 0.5527344 -0.7607422 0.3400879
vn 0.7060547 -0.6835938 0.185791
vn 0.8803711 -0.4680176 0.07391357
vn 0.8349609 0.006896973 -0.5507813
vn 0.07568359 0.9853516 -0.1518555
vn -0.02783203 0.9980469 0.05383301
vn -0.291748 0.9516602 0.09692383
vn 0.7246094 0.4450684 -0.5263672
vn 0.7119141 0.5029297 -0.4899902
vn 0.7402344 0.2176514 -0.6357422
vn 0.7119141 0.5029297 -0.4899902
vn 0.7246094 0.4450684 -0.5263672
vn 0.5273438 0.8320313 -0.1724854
vn 0.08502197 -0.6938477 0.715332
vn 0.08502197 -0.6938477 0.715332
vn 0.08502197 -0.6938477 0.715332
vn 0.3188477 -0.7485352 0.581543
vn 0.3188477 -0.7485352 0.581543
vn 0.3188477 -0.7485352 0.581543
vn 0.3493652 -0.7998047 0.4882813
vn 0.3493652 -0.7998047 0.4882813
vn 0.3493652 -0.7998047 0.4882813
vn -0.3288574 0.9077148 -0.2612305
vn -0.2626953 0.9248047 -0.2749023
vn 0.9775391 0.1728516 -0.1201172
vn -0.6914063 0.4743652 -0.5449219
vn -0.9350586 0.2086182 -0.2868652
vn -0.9760742 0.1099854 -0.1875
vn -0.9350586 0.2086182 -0.2868652
vn -0.6914063 0.4743652 -0.5449219
vn -0.4577637 0.5991211 -0.6572266
vn 0.6738281 0.7197266 -0.166626
vn 0.7026367 0.3752441 0.6049805
vn 0.894043 0.2995605 0.3334961
vn 0.7026367 0.3752441 0.6049805
vn 0.6738281 0.7197266 -0.166626
vn 0.4602051 0.8608398 -0.2165527
vn 0.8339844 0.5068359 -0.2182617
vn 0.7602539 0.2120361 -0.6142578
vn 0.75 0.192749 -0.6328125
vn 0.7602539 0.2120361 -0.6142578
vn 0.8339844 0.5068359 -0.2182617
vn 0.8242188 0.5493164 -0.1356201
vn -0.5024414 0.8276367 0.2493896
vn -0.2937012 0.9423828 -0.1608887
vn -0.05340576 0.9916992 -0.1169434
vn -0.2937012 0.9423828 -0.1608887
vn -0.5024414 0.8276367 0.2493896
vn -0.6069336 0.6699219 0.4277344
vn -0.359375 0.8852539 -0.295166
vn -0.4873047 0.8208008 0.2983398
vn -0.2087402 0.9365234 0.2814941
vn 0.9970703 0.07189941 -0.02453613
vn 0.9931641 0.1079102 -0.04104614
vn 0.9970703 0.07336426 -0.02064514
vn 0.9921875 0.1153564 -0.04855347
vn 0.9326172 0.3283691 -0.1485596
vn 0.9243164 0.3447266 -0.1643066
vn 0.8891602 0.4458008 -0.1030884
vn 0.8886719 0.4484863 -0.09442139
vn 0.9926758 0.1185303 -0.0221405
vn 0.9956055 0.09320068 -0.02061462
vn 0.987793 -0.1569824 0.009620667
vn 0.9873047 -0.1574707 0.01322174
vn 0.4697266 0.1248169 -0.8740234
vn 0.4484863 0.1166992 -0.8862305
vn 0.4780273 0.1287842 -0.8686523
vn 0.439209 0.1123047 -0.8916016
vn 0.4394531 -0.03942871 -0.8974609
vn 0.4240723 -0.0165863 -0.9052734
vn 0.5239258 -0.1429443 -0.8398438
vn 0.5229492 -0.1392822 -0.8408203
vn 0.4899902 0.003135681 -0.871582
vn 0.4819336 0.01676941 -0.8759766
vn 0.5620117 0.168335 -0.8095703
vn 0.5737305 0.1655273 -0.8022461
vn -0.5200195 0.06762695 -0.8515625
vn -0.5146484 0.1144409 -0.8496094
vn -0.5146484 0.1142578 -0.8500977
vn -0.5214844 0.06039429 -0.8510742
vn -0.5327148 -0.2880859 -0.7958984
vn -0.5073242 -0.3959961 -0.7651367
vn -0.3850098 -0.5478516 -0.7426758
vn -0.3657227 -0.5595703 -0.7436523
vn -0.5131836 -0.02256775 -0.8579102
vn -0.5175781 -0.0249176 -0.8549805
vn -0.4499512 0.3791504 -0.8085938
vn -0.4460449 0.3793945 -0.8105469
vn -0.9995117 0.006595612 0.02682495
vn -0.9985352 0.04876709 0.02064514
vn -0.9985352 0.04876709 0.02067566
vn -0.9995117 -0.004058838 0.03030396
vn -0.9555664 -0.265625 0.126709
vn -0.9506836 -0.2766113 0.1397705
vn -0.9243164 -0.3754883 0.06622314
vn -0.9248047 -0.3759766 0.06054688
vn -1 0.009658813 0.01696777
vn -0.9995117 0.02958679 0.02072144
vn -0.9638672 0.2658691 0.02070618
vn -0.9638672 0.2658691 0.02078247
vn -0.4614258 0.009117126 0.887207
vn -0.4765625 0.006813049 0.8789063
vn -0.4819336 0.004447937 0.8759766
vn -0.4553223 0.01143646 0.8901367
vn -0.4604492 0.1459961 0.8754883
vn -0.4453125 0.121521 0.887207
vn -0.5771484 0.2398682 0.7807617
vn -0.5698242 0.2346191 0.7875977
vn -0.4926758 0.1136475 0.862793
vn -0.480957 0.1046753 0.8706055
vn -0.5151367 -0.06317139 0.8544922
vn -0.5185547 -0.0614624 0.8530273
vn 0.519043 0.02485657 0.8544922
vn 0.5239258 0.06378174 0.8491211
vn 0.5175781 0.0255127 0.8549805
vn 0.5258789 0.06835938 0.8476563
vn 0.5224609 0.3791504 0.7636719
vn 0.4958496 0.4726563 0.7285156
vn 0.3266602 0.6430664 0.6923828
vn 0.3173828 0.6464844 0.6938477
vn 0.5024414 0.1531982 0.8510742
vn 0.5107422 0.1633301 0.8442383
vn 0.4909668 -0.2849121 0.8232422
vn 0.4904785 -0.2849121 0.8237305
vn 0.5024414 0.8193359 0.2763672
vn 0.5024414 0.8193359 0.2763672
vn 0.5024414 0.8193359 0.2763672
vn 0.5024414 0.8193359 0.2763672
vn 0.5024414 0.8193359 0.2763672
vn 0.5024414 0.8193359 0.2763672
vn 0.7426758 0.6293945 -0.2288818
vn 0.7431641 0.6245117 -0.241333
vn 0.7426758 0.6298828 -0.2280273
vn 0.7431641 0.6235352 -0.2427979
vn 0.3186035 0.07092285 -0.9453125
vn 0.3730469 0.142334 -0.9169922
vn 0.3144531 0.0657959 -0.9467773
vn 0.3803711 0.1520996 -0.9121094
vn -0.3808594 -0.482666 -0.7885742
vn -0.328125 -0.4389648 -0.8364258
vn -0.3842773 -0.4853516 -0.7856445
vn -0.3215332 -0.4335938 -0.8417969
vn -0.8110352 -0.5605469 0.1676025
vn -0.8066406 -0.5512695 0.213623
vn -0.8110352 -0.5615234 0.1633301
vn -0.8056641 -0.550293 0.2185059
vn -0.4140625 -0.03201294 0.909668
vn -0.4433594 -0.05300903 0.8950195
vn -0.4101563 -0.02911377 0.9116211
vn -0.4467773 -0.05557251 0.8930664
vn 0.3234863 0.5336914 0.78125
vn 0.2783203 0.5141602 0.8110352
vn 0.3278809 0.5356445 0.7783203
vn 0.2727051 0.5117188 0.8144531
vn -0.5024414 0.8193359 -0.2763672
vn -0.5024414 0.8193359 -0.2763672
vn -0.5024414 0.8193359 -0.2763672
vn -0.5024414 0.8193359 -0.2763672
vn -0.5024414 0.8193359 -0.2763672
vn -0.5024414 0.8193359 -0.2763672
vn -0.4262695 -0.7587891 -0.4921875
vn -0.4306641 -0.5922852 -0.6806641
vn -0.4240723 -0.7592773 -0.4931641
vn -0.4389648 -0.6123047 -0.6577148
vn -0.4890137 -0.3867188 -0.7817383
vn -0.5004883 -0.3840332 -0.7758789
vn -0.9951172 -0.09588623 -0.02423096
vn -0.9946289 0.0005435944 -0.1031494
vn -0.9946289 -0.09777832 -0.02593994
vn -0.9960938 -0.003715515 -0.08917236
vn -0.987793 0.12854 -0.08624268
vn -0.9882813 0.1345215 -0.07312012
vn -0.5830078 0.6977539 0.416748
vn -0.5581055 0.644043 0.5234375
vn -0.5874023 0.6953125 0.4145508
vn -0.5527344 0.6445313 0.5283203
vn -0.4931641 0.5668945 0.659668
vn -0.4838867 0.5678711 0.6660156
vn 0.4091797 0.8261719 0.3869629
vn 0.4418945 0.7026367 0.5581055
vn 0.4050293 0.828125 0.3874512
vn 0.4467773 0.6850586 0.5756836
vn 0.494873 0.4975586 0.7124023
vn 0.5053711 0.4919434 0.7089844
vn 0.984375 0.1580811 -0.07836914
vn 0.9951172 0.09960938 -0.01521301
vn 0.984375 0.1585693 -0.07818604
vn 0.9956055 0.09320068 -0.01163483
vn 1 -0.008110046 0.01118469
vn 1 -0.01425934 0.00446701
vn 0.5668945 -0.6386719 -0.5205078
vn 0.5595703 -0.5454102 -0.6240234
vn 0.5678711 -0.6376953 -0.5205078
vn 0.5571289 -0.5512695 -0.6206055
vn 0.5029297 -0.453125 -0.7363281
vn 0.4963379 -0.4555664 -0.7387695
vn 0.06027222 0.8666992 -0.4951172
vn 0.06027222 0.8666992 -0.4951172
vn 0.06027222 0.8666992 -0.4951172
vn 0.06027222 0.8666992 -0.4951172
vn 0.06027222 0.8666992 -0.4951172
vn 0.06027222 0.8666992 -0.4951172
vn 0.2893066 -0.7763672 0.5600586
vn 0.227417 -0.5698242 0.7895508
vn 0.2783203 -0.777832 0.5629883
vn 0.269043 -0.6279297 0.7304688
vn 0.0803833 -0.09613037 0.9921875
vn 0.08398438 -0.09796143 0.9916992
vn -0.01017761 0.1749268 0.984375
vn -0.01082611 0.1745605 0.984375
vn 0.9506836 -0.1314697 0.2814941
vn 0.9301758 -0.05667114 0.3623047
vn 0.9516602 -0.1287842 0.2792969
vn 0.9248047 -0.03967285 0.3779297
vn 0.8544922 0.2548828 0.4523926
vn 0.8588867 0.2440186 0.4504395
vn 0.6176758 0.7568359 -0.2138672
vn 0.659668 0.6660156 -0.3481445
vn 0.625 0.7524414 -0.2078857
vn 0.7143555 0.5737305 -0.4003906
vn 0.7495117 0.394043 -0.5322266
vn 0.7436523 0.3991699 -0.5366211
vn 0.7705078 0.3359375 -0.5419922
vn 0.7705078 0.3364258 -0.5415039
vn -0.3356934 0.8759766 -0.3469238
vn -0.3076172 0.7080078 -0.6357422
vn -0.3234863 0.8813477 -0.3444824
vn -0.2797852 0.6391602 -0.7163086
vn -0.1099854 0.1888428 -0.9760742
vn -0.1139526 0.1917725 -0.9746094
vn -0.04711914 -0.01928711 -0.9985352
vn -0.04724121 -0.01934814 -0.9985352
vn -0.9501953 0.2868652 -0.1218262
vn -0.9428711 0.1306152 -0.3061523
vn -0.9536133 0.2756348 -0.1195679
vn -0.9438477 0.1832275 -0.2753906
vn -0.8818359 -0.1657715 -0.4414063
vn -0.8842773 -0.1577148 -0.4394531
vn -0.8481445 -0.2727051 -0.4541016
vn -0.8481445 -0.2727051 -0.4541016
vn -0.7001953 -0.6186523 0.3569336
vn -0.7460938 -0.5058594 0.4331055
vn -0.7036133 -0.6147461 0.355957
vn -0.71875 -0.565918 0.4040527
vn -0.7797852 -0.3068848 0.5458984
vn -0.7797852 -0.2995605 0.5498047
vn -0.8149414 -0.1695557 0.5541992
vn -0.8154297 -0.1699219 0.5532227
vn -0.3376465 0.9331055 0.1242065
vn -0.3376465 0.9331055 0.1242065
vn -0.3376465 0.9331055 0.1242065
vn -0.3376465 0.9331055 0.1242065
vn -0.3376465 0.9331055 0.1242676
vn -0.3376465 0.9331055 0.1242676
vn 0.8588867 0.2440186 0.4504395
vn 0.7739258 0.4284668 0.4660645
vn 0.7739258 0.4282227 0.4667969
vn 0.8544922 0.2548828 0.4523926
vn 0.4423828 0.6083984 0.6586914
vn 0.4423828 0.6083984 0.6586914
vn 0.4423828 0.6083984 0.6586914
vn 0.4423828 0.6083984 0.6586914
vn 0.4423828 0.6083984 0.6586914
vn 0.4423828 0.6083984 0.6586914
vn 0.3720703 -0.9213867 -0.1118164
vn 0.456543 -0.8564453 -0.2419434
vn 0.3771973 -0.9204102 -0.1015015
vn 0.4853516 -0.8300781 -0.2746582
vn 0.8823242 -0.4243164 -0.2037354
vn 0.8901367 -0.4121094 -0.1942139
vn 0.00957489 -0.4790039 -0.8779297
vn -0.00287056 -0.3398438 -0.9404297
vn 0.01873779 -0.4897461 -0.871582
vn -0.01454163 -0.3242188 -0.9458008
vn 0.2609863 -0.1811523 -0.9482422
vn 0.2521973 -0.2619629 -0.9316406
vn 0.3220215 0.0243988 -0.9462891
vn 0.3222656 0.02433777 -0.9462891
vn -0.3461914 0.5048828 -0.7905273
vn -0.458252 0.5214844 -0.7197266
vn -0.3442383 0.5009766 -0.7944336
vn -0.4384766 0.5322266 -0.7241211
vn -0.6303711 0.2481689 -0.7358398
vn -0.6064453 0.3183594 -0.7285156
vn -0.6699219 0.06848145 -0.7392578
vn -0.6694336 0.06854248 -0.7397461
vn -0.2995605 0.9487305 0.09991455
vn -0.4414063 0.862793 0.246582
vn -0.3000488 0.9492188 0.09356689
vn -0.4074707 0.8857422 0.2227783
vn -0.8310547 0.5205078 0.1971436
vn -0.8452148 0.5004883 0.1870117
vn 0.07159424 0.5336914 0.8422852
vn 0.03405762 0.3483887 0.9365234
vn 0.06616211 0.5498047 0.8325195
vn 0.03071594 0.3469238 0.9375
vn -0.2352295 0.265625 0.9350586
vn -0.2325439 0.328125 0.9155273
vn -0.2888184 0.1152344 0.9506836
vn -0.2885742 0.1152344 0.9506836
vn 0.4399414 -0.4331055 0.7866211
vn 0.4931641 -0.503418 0.7094727
vn 0.4396973 -0.4187012 0.7944336
vn 0.512207 -0.5039063 0.6958008
vn 0.6347656 -0.2370605 0.7353516
vn 0.6542969 -0.1610107 0.7387695
vn 0.6875 0.06848145 0.7231445
vn 0.6870117 0.06842041 0.7236328
vn 0.2404785 0.9707031 0.009849548
vn 0.2404785 0.9707031 0.009849548
vn 0.2404785 0.9707031 0.009849548
vn 0.2403564 0.9707031 0.009819031
vn 0.2404785 0.9707031 0.009857178
vn 0.2404785 0.9707031 0.009857178
vn 0.8901367 -0.4121094 -0.1942139
vn 0.9794922 0.02401733 -0.199585
vn 0.9794922 0.02397156 -0.1992188
vn 0.8823242 -0.4243164 -0.2037354
vn -0.972168 0.1122437 0.2058105
vn -0.8452148 0.5004883 0.1870117
vn -0.972168 0.1122437 0.2059326
vn -0.8310547 0.5205078 0.1971436
vn 0.07568359 0.9663086 0.2453613
vn 0.07568359 0.9663086 0.2453613
vn 0.07568359 0.9663086 0.2453613
vn 0.07562256 0.9663086 0.2453613
vn 0.07568359 0.9663086 0.2453613
vn 0.07568359 0.9663086 0.2453613
vn 0.9291992 -0.3686523 -0.01702881
vn 0.8427734 -0.5180664 -0.1466064
vn 0.8447266 -0.5126953 -0.1546631
vn 0.9287109 -0.3701172 -0.02026367
vn 0.9936523 -0.09442139 -0.06329346
vn 0.9926758 -0.08087158 -0.08850098
vn 0.4931641 0.1778564 -0.8515625
vn 0.4890137 0.09613037 -0.8671875
vn 0.4912109 0.09295654 -0.8662109
vn 0.4875488 0.1787109 -0.8544922
vn 0.4555664 0.265625 -0.8496094
vn 0.4455566 0.270752 -0.8535156
vn -0.479248 0.5541992 -0.6806641
vn -0.3413086 0.6586914 -0.6708984
vn -0.329834 0.6513672 -0.6835938
vn -0.482666 0.5610352 -0.6728516
vn -0.5380859 0.3947754 -0.7446289
vn -0.5356445 0.3942871 -0.746582
vn -0.8154297 0.5537109 0.1700439
vn -0.887207 0.4580078 0.05282593
vn -0.8178711 0.546875 0.1791992
vn -0.8867188 0.4589844 0.05462646
vn -0.9638672 0.2469482 0.1015015
vn -0.9638672 0.2340088 0.1262207
vn -0.4941406 -0.1040649 0.8632813
vn -0.4543457 -0.07861328 0.887207
vn -0.496582 -0.100769 0.8623047
vn -0.4538574 -0.08483887 0.887207
vn -0.4245605 -0.0352478 0.9047852
vn -0.423584 -0.03598022 0.9052734
vn 0.3649902 -0.6147461 0.6992188
vn 0.5175781 -0.4645996 0.7182617
vn 0.3537598 -0.6083984 0.7104492
vn 0.5170898 -0.479248 0.7089844
vn 0.559082 -0.2568359 0.7885742
vn 0.5537109 -0.255127 0.7929688
vn -0.3442383 0.9375 0.05093384
vn -0.2912598 0.953125 -0.08416748
vn -0.3288574 0.9443359 -0.02043152
vn -0.3024902 0.9521484 -0.03881836
vn -0.3916016 0.8798828 0.2685547
vn -0.1773682 0.4675293 0.8657227
vn 0.01412964 0.2327881 0.9726563
vn 0.09588623 0.1246338 0.987793
vn -0.2973633 0.6000977 0.7426758
vn 0.8012695 0.5371094 -0.2644043
vn 0.8696289 0.4611816 0.175293
vn 0.8051758 0.5117188 0.300293
vn 0.7241211 0.4299316 -0.5395508
vn -0.2543945 0.1452637 -0.9560547
vn -0.2502441 0.1499023 -0.956543
vn -0.2646484 0.1334229 -0.9550781
vn -0.2368164 0.1646729 -0.9575195
vn -0.9575195 0.2719727 -0.09436035
vn -0.9584961 0.2702637 -0.0914917
vn -0.9501953 0.2871094 -0.1200562
vn -0.9658203 0.251709 -0.05999756
vn 0.4743652 0.3110352 -0.8237305
vn 0.7241211 0.4299316 -0.5395508
vn 0.8012695 0.5371094 -0.2644043
vn 0.4511719 0.2390137 -0.8598633
vn -0.02307129 0.8496094 0.5263672
vn -0.02035522 0.8515625 0.5239258
vn 0.01255798 0.8417969 0.5400391
vn -0.03552246 0.8549805 0.5175781
vn -0.2307129 0.8691406 0.4372559
vn 0.2504883 -0.3342285 0.9086914
vn -0.2399902 -0.5371094 0.8085938
vn -0.3745117 -0.4729004 0.7973633
vn 0.6743164 -0.2792969 0.6835938
vn 0.9614258 -0.2744141 0.01192474
vn 0.9526367 -0.2998047 -0.05355835
vn 0.9311523 -0.3337402 -0.1470947
vn 0.965332 -0.2229004 0.1348877
vn -0.04751587 0.8696289 -0.4916992
vn -0.03109741 0.8754883 -0.482666
vn 0.090271 0.9077148 -0.409668
vn -0.1773682 0.8110352 -0.5576172
vn 0.6689453 0.4990234 0.5507813
vn 0.6962891 0.4748535 0.5385742
vn 0.6049805 0.512207 0.609375
vn 0.3083496 0.4846191 0.8183594
vn -0.5820313 -0.2025146 0.7875977
vn -0.640625 -0.4702148 0.6069336
vn -0.6333008 -0.6733398 0.3813477
vn -0.4528809 0.1015625 0.8857422
vn 0.388916 0.08636475 -0.9174805
vn 0.4172363 0.07653809 -0.9057617
vn 0.3562012 0.09741211 -0.9291992
vn 0.4638672 0.05999756 -0.8837891
vn -0.4619141 0.8759766 0.1385498
vn -0.5322266 0.8168945 0.2218018
vn -0.3937988 0.9169922 0.06280518
vn -0.5732422 0.7719727 0.2739258
vn 0.7080078 0.2259521 -0.6689453
vn 0.8349609 0.006896973 -0.5507813
vn 0.8803711 -0.4680176 0.07391357
vn 0.2156982 0.3144531 -0.9243164
vn -0.2626953 0.9248047 -0.2749023
vn -0.3847656 0.8876953 -0.2526855
vn -0.3972168 0.8818359 -0.253418
vn -0.3288574 0.9077148 -0.2612305
vn -0.9335938 0.171875 0.3146973
vn -0.7929688 -0.06072998 0.6064453
vn -0.7192383 -0.1348877 0.6811523
vn -0.9477539 0.2440186 0.2054443
vn -0.02783203 0.9980469 0.05383301
vn 0.07568359 0.9853516 -0.1518555
vn 0.3088379 0.9155273 -0.2573242
vn 0.4741211 0.7602539 -0.4443359
vn 0.5463867 0.6923828 -0.4714355
vn -0.5834961 -0.08959961 -0.8071289
vn -0.5800781 -0.08526611 -0.8100586
vn -0.609375 -0.1219482 -0.7832031
vn -0.5473633 -0.04669189 -0.8354492
vn 0.03115845 0.7729492 -0.6337891
vn 0.2927246 0.8300781 -0.4743652
vn 0.1889648 0.8046875 -0.5629883
vn 0.1419678 0.8164063 -0.5595703
vn -0.4440918 0.5170898 -0.7314453
vn 0.04815674 0.5371094 0.8422852
vn -0.3945313 0.4611816 0.7949219
vn -0.498291 0.5117188 0.699707
vn 0.3195801 0.4382324 0.840332
vn 0.9755859 0.1983643 -0.09509277
vn 0.965332 0.2457275 -0.08740234
vn 0.9511719 0.2993164 -0.07824707
vn 0.9829102 0.1520996 -0.102356
vn 0.2431641 0.4262695 -0.8710938
vn 0.2316895 0.4111328 -0.8818359
vn 0.2070313 0.3779297 -0.9023438
vn 0.2800293 0.4750977 -0.8339844
vn 0.6665039 0.3210449 0.6728516
vn 0.3195801 0.4382324 0.840332
vn 0.04815674 0.5371094 0.8422852
vn 0.7045898 0.2558594 0.6616211
vn 0.3161621 -0.166748 0.934082
vn 0.1550293 0.1226807 0.9804688
vn 0.3325195 -0.2028809 0.9208984
vn 0.1098633 0.2097168 0.9716797
vn 0.114502 0.4189453 0.9008789
vn 0.1186523 0.4658203 0.8769531
vn -0.3596191 0.1943359 -0.9125977
vn -0.3041992 0.1799316 -0.9355469
vn -0.3371582 0.1522217 -0.9291992
vn -0.4423828 0.2443848 -0.862793
vn -0.5439453 0.2902832 -0.7875977
vn -0.546875 0.302002 -0.7807617
vn -0.8730469 0.4824219 -0.07055664
vn -0.8925781 0.4506836 -0.008270264
vn -0.809082 0.546875 -0.2149658
vn -0.9194336 0.3696289 0.1337891
vn 0.03897095 0.5898438 -0.8066406
vn 0.4602051 0.8608398 -0.2165527
vn 0.6738281 0.7197266 -0.166626
vn 0.03762817 0.5986328 -0.800293
vn -0.5219727 0.7612305 0.3842773
vn -0.4873047 0.8208008 0.2983398
vn -0.359375 0.8852539 -0.295166
vn -0.5771484 0.815918 -0.03488159
vn -0.5952148 0.7924805 -0.1328125
vn -0.3920898 0.75 0.5327148
vn -0.2087402 0.9365234 0.2814941
vn -0.2049561 0.8745117 0.439209
vn 0.4118652 0.7495117 0.5180664
vn 0.2907715 0.7509766 0.5927734
vn 0.4394531 0.7475586 0.4978027
vn 0.2629395 0.7480469 0.609375
vn 0.1729736 0.7285156 0.6625977
vn -0.3552246 0.3769531 0.8554688
vn -0.5112305 0.1326904 0.8491211
vn -0.5239258 0.1082764 0.8447266
vn -0.3217773 0.420166 0.8486328
vn 0.5478516 0.4042969 0.7324219
vn 0.5732422 0.3935547 0.71875
vn 0.512207 0.4182129 0.75
vn 0.6137695 0.3752441 0.6948242
vn -0.5043945 0.5097656 0.6967773
vn -0.6069336 0.6699219 0.4277344
vn -0.5024414 0.8276367 0.2493896
vn -0.484375 0.5327148 0.6938477

vt 0.1572266 0.4711914
vt 0.182251 0.4863281
vt 0.1820068 0.4880371
vt 0.182251 0.4863281
vt 0.1572266 0.4711914
vt 0.1563721 0.4680176
vt 0.1556396 0.4680176
vt 0.1820068 0.4880371
vt 0.1800537 0.4902344
vt 0.1820068 0.4880371
vt 0.1556396 0.4680176
vt 0.1572266 0.4711914
vt 0.1783447 0.4909668
vt 0.1556396 0.4680176
vt 0.1800537 0.4902344
vt 0.1556396 0.4680176
vt 0.1783447 0.4909668
vt 0.1531982 0.4699707
vt 0.1785889 0.4892578
vt 0.1531982 0.4699707
vt 0.1783447 0.4909668
vt 0.1531982 0.4699707
vt 0.1785889 0.4892578
vt 0.1523438 0.4667969
vt 0.180542 0.4868164
vt 0.1523438 0.4667969
vt 0.1785889 0.4892578
vt 0.1523438 0.4667969
vt 0.180542 0.4868164
vt 0.1539307 0.4699707
vt 0.1563721 0.4680176
vt 0.180542 0.4868164
vt 0.182251 0.4863281
vt 0.180542 0.4868164
vt 0.1563721 0.4680176
vt 0.1539307 0.4699707
vt 0.8422852 0.597168
vt 0.8432617 0.5771484
vt 0.8349609 0.5693359
vt 0.8432617 0.5771484
vt 0.8422852 0.597168
vt 0.8515625 0.5942383
vt 0.8564453 0.5825195
vt 0.8398438 0.5605469
vt 0.8476563 0.5727539
vt 0.8398438 0.5605469
vt 0.8564453 0.5825195
vt 0.8422852 0.5722656
vt 0.902832 0.6289063
vt 0.8974609 0.6054688
vt 0.9023438 0.6245117
vt 0.8984375 0.6054688
vt 0.8891602 0.6049805
vt 0.8974609 0.6054688
vt 0.8891602 0.6049805
vt 0.8984375 0.6054688
vt 0.8862305 0.6064453
vt 0.918457 0.4580078
vt 0.921875 0.4545898
vt 0.9150391 0.4587402
vt 0.9150391 0.4477539
vt 0.9067383 0.4599609
vt 0.8979492 0.4458008
vt 0.9067383 0.4599609
vt 0.9150391 0.4477539
vt 0.9106445 0.458252
vt 0.9267578 0.449707
vt 0.894043 0.4521484
vt 0.921875 0.4545898
vt 0.894043 0.4521484
vt 0.9150391 0.4477539
vt 0.8979492 0.4458008
vt 0.9267578 0.449707
vt 0.9150391 0.4477539
vt 0.894043 0.4521484
vt 0.918457 0.4580078
vt 0.9067383 0.4599609
vt 0.9106445 0.458252
vt 0.8344727 0.4372559
vt 0.875 0.4587402
vt 0.8666992 0.4472656
vt 0.875 0.4587402
vt 0.8344727 0.4372559
vt 0.8554688 0.4423828
vt 0.9438477 0.4118652
vt 0.9404297 0.4023438
vt 0.9448242 0.4111328
vt 0.9404297 0.4023438
vt 0.9438477 0.4118652
vt 0.9453125 0.4020996
vt 0.8642578 0.4384766
vt 0.8579102 0.534668
vt 0.8510742 0.5390625
vt 0.8579102 0.534668
vt 0.8642578 0.4384766
vt 0.8671875 0.4611816
vt 0.8540039 0.5380859
vt 0.8510742 0.5390625
vt 0.8579102 0.534668
vt 0.8510742 0.5390625
vt 0.8540039 0.5380859
vt 0.8413086 0.5400391
vt 0.8994141 0.4130859
vt 0.9086914 0.411377
vt 0.8901367 0.4208984
vt 0.1610107 0.3557129
vt 0.1502686 0.3989258
vt 0.151123 0.3557129
vt 0.1585693 0.4013672
vt 0.1445313 0.4455566
vt 0.1512451 0.4504395
vt 0.1153564 0.4858398
vt 0.1116943 0.480957
vt 0.102478 0.5063477
vt 0.09790039 0.5063477
vt 0.112915 0.5571289
vt 0.1151733 0.5551758
vt 0.151123 0.3557129
vt 0.1337891 0.3972168
vt 0.1313477 0.3557129
vt 0.1502686 0.3989258
vt 0.1312256 0.4421387
vt 0.1445313 0.4455566
vt 0.1116943 0.480957
vt 0.1027832 0.473877
vt 0.09790039 0.5063477
vt 0.08874512 0.5063477
vt 0.1083374 0.5600586
vt 0.112915 0.5571289
vt 0.1337891 0.3972168
vt 0.12146 0.3557129
vt 0.1313477 0.3557129
vt 0.1254883 0.3979492
vt 0.1312256 0.4421387
vt 0.1245117 0.4433594
vt 0.1027832 0.473877
vt 0.09759521 0.4716797
vt 0.08874512 0.5063477
vt 0.08416748 0.5063477
vt 0.1060181 0.5620117
vt 0.1083374 0.5600586
vt 0.1254883 0.3979492
vt 0.1313477 0.3557129
vt 0.12146 0.3557129
vt 0.1337891 0.4003906
vt 0.1245117 0.4433594
vt 0.1312256 0.4482422
vt 0.1012573 0.4765625
vt 0.09759521 0.4716797
vt 0.08874512 0.5063477
vt 0.08416748 0.5063477
vt 0.1083374 0.5600586
vt 0.1060181 0.5620117
vt 0.1337891 0.4003906
vt 0.151123 0.3557129
vt 0.1313477 0.3557129
vt 0.1502686 0.4020996
vt 0.1312256 0.4482422
vt 0.1445313 0.4516602
vt 0.1101074 0.4836426
vt 0.1012573 0.4765625
vt 0.09790039 0.5063477
vt 0.08874512 0.5063477
vt 0.112915 0.5571289
vt 0.1083374 0.5600586
vt 0.151123 0.3557129
vt 0.1585693 0.4013672
vt 0.1610107 0.3557129
vt 0.1502686 0.4020996
vt 0.1512451 0.4504395
vt 0.1445313 0.4516602
vt 0.1153564 0.4858398
vt 0.1101074 0.4836426
vt 0.102478 0.5063477
vt 0.09790039 0.5063477
vt 0.1151733 0.5551758
vt 0.112915 0.5571289
vt 0.1083374 0.5600586
vt 0.1083374 0.5600586
vt 0.1060181 0.5620117
vt 0.112915 0.5571289
vt 0.112915 0.5571289
vt 0.1151733 0.5551758
vt 0.1045532 0.5351563
vt 0.08215332 0.5556641
vt 0.1034546 0.5317383
vt 0.08380127 0.5566406
vt 0.1034546 0.5317383
vt 0.07885742 0.5532227
vt 0.1011963 0.5258789
vt 0.08215332 0.5556641
vt 0.1011963 0.5258789
vt 0.07720947 0.5522461
vt 0.1000977 0.5229492
vt 0.07885742 0.5532227
vt 0.1000977 0.5229492
vt 0.07885742 0.5532227
vt 0.1011963 0.5258789
vt 0.07720947 0.5522461
vt 0.1011963 0.5258789
vt 0.08215332 0.5556641
vt 0.1034546 0.5317383
vt 0.07885742 0.5532227
vt 0.1034546 0.5317383
vt 0.08380127 0.5566406
vt 0.1045532 0.5351563
vt 0.08215332 0.5556641
vt 0.07885742 0.5532227
vt 0.07885742 0.5532227
vt 0.07720947 0.5522461
vt 0.08215332 0.5556641
vt 0.08215332 0.5556641
vt 0.08380127 0.5566406
vt 0.0993042 0.4833984
vt 0.08026123 0.5043945
vt 0.09484863 0.4853516
vt 0.08361816 0.5024414
vt 0.07751465 0.5268555
vt 0.07897949 0.5263672
vt 0.09484863 0.4853516
vt 0.08154297 0.5078125
vt 0.0960083 0.4914551
vt 0.08026123 0.5043945
vt 0.07861328 0.5283203
vt 0.07751465 0.5268555
vt 0.0960083 0.4914551
vt 0.08618164 0.5097656
vt 0.1015625 0.4956055
vt 0.08154297 0.5078125
vt 0.08123779 0.5288086
vt 0.07861328 0.5283203
vt 0.1015625 0.4956055
vt 0.08947754 0.5083008
vt 0.1060181 0.4936523
vt 0.08618164 0.5097656
vt 0.08270264 0.527832
vt 0.08123779 0.5288086
vt 0.1060181 0.4936523
vt 0.0881958 0.5043945
vt 0.1048584 0.4875488
vt 0.08947754 0.5083008
vt 0.081604 0.5268555
vt 0.08270264 0.527832
vt 0.1048584 0.4875488
vt 0.08361816 0.5024414
vt 0.0993042 0.4833984
vt 0.0881958 0.5043945
vt 0.07897949 0.5263672
vt 0.081604 0.5268555
vt 0.07861328 0.5283203
vt 0.08270264 0.527832
vt 0.08123779 0.5288086
vt 0.07751465 0.5268555
vt 0.081604 0.5268555
vt 0.07897949 0.5263672
vt 0.1409912 0.4282227
vt 0.15979 0.4523926
vt 0.1507568 0.432373
vt 0.1535645 0.4487305
vt 0.152832 0.4868164
vt 0.1586914 0.4890137
vt 0.1409912 0.5180664
vt 0.144165 0.5195313
vt 0.1507568 0.432373
vt 0.1593018 0.4567871
vt 0.1500244 0.4406738
vt 0.15979 0.4523926
vt 0.1586914 0.4890137
vt 0.1582031 0.4907227
vt 0.1500244 0.4406738
vt 0.1524658 0.4575195
vt 0.1396484 0.4448242
vt 0.1593018 0.4567871
vt 0.1582031 0.4907227
vt 0.1516113 0.4899902
vt 0.1402588 0.5200195
vt 0.1439209 0.5205078
vt 0.1396484 0.4448242
vt 0.1462402 0.4538574
vt 0.1298828 0.4406738
vt 0.1524658 0.4575195
vt 0.145752 0.487793
vt 0.1516113 0.4899902
vt 0.1369629 0.5185547
vt 0.1402588 0.5200195
vt 0.1298828 0.4406738
vt 0.1467285 0.4494629
vt 0.1306152 0.432373
vt 0.1462402 0.4538574
vt 0.1462402 0.486084
vt 0.145752 0.487793
vt 0.1373291 0.5175781
vt 0.1369629 0.5185547
vt 0.1306152 0.432373
vt 0.1535645 0.4487305
vt 0.1409912 0.4282227
vt 0.1467285 0.4494629
vt 0.1462402 0.486084
vt 0.152832 0.4868164
vt 0.1373291 0.5175781
vt 0.1409912 0.5180664
vt 0.1439209 0.5205078
vt 0.1369629 0.5185547
vt 0.1402588 0.5200195
vt 0.144165 0.5195313
vt 0.1373291 0.5175781
vt 0.1409912 0.5180664
vt 0.1582031 0.4907227
vt 0.144165 0.5195313
vt 0.1439209 0.5205078
vt 0.1586914 0.4890137
vt 0.1800537 0.4902344
vt 0.1785889 0.4892578
vt 0.1783447 0.4909668
vt 0.1820068 0.4880371
vt 0.180542 0.4868164
vt 0.182251 0.4863281
vt 0.1496582 0.4199219
vt 0.1756592 0.4394531
vt 0.1433105 0.4204102
vt 0.182251 0.439209
vt 0.2097168 0.4707031
vt 0.204834 0.4709473
vt 0.1433105 0.4204102
vt 0.1708984 0.4458008
vt 0.1352539 0.4277344
vt 0.1756592 0.4394531
vt 0.204834 0.4709473
vt 0.1976318 0.4724121
vt 0.2044678 0.5126953
vt 0.2004395 0.5136719
vt 0.1352539 0.4277344
vt 0.1728516 0.4519043
vt 0.1334229 0.434082
vt 0.1708984 0.4458008
vt 0.1976318 0.4724121
vt 0.1953125 0.4736328
vt 0.1990967 0.5141602
vt 0.2004395 0.5136719
vt 0.1334229 0.434082
vt 0.1794434 0.4516602
vt 0.1397705 0.4335938
vt 0.1728516 0.4519043
vt 0.2001953 0.4736328
vt 0.1953125 0.4736328
vt 0.1397705 0.4335938
vt 0.184082 0.4453125
vt 0.1478271 0.4262695
vt 0.1794434 0.4516602
vt 0.2073975 0.472168
vt 0.2001953 0.4736328
vt 0.2058105 0.5131836
vt 0.2017822 0.5141602
vt 0.1478271 0.4262695
vt 0.182251 0.439209
vt 0.1496582 0.4199219
vt 0.184082 0.4453125
vt 0.2073975 0.472168
vt 0.2097168 0.4707031
vt 0.2058105 0.5131836
vt 0.2071533 0.512207
vt 0.2004395 0.5136719
vt 0.2017822 0.5141602
vt 0.1990967 0.5141602
vt 0.2044678 0.5126953
vt 0.2058105 0.5131836
vt 0.2071533 0.512207
vt 0.204834 0.4709473
vt 0.2071533 0.512207
vt 0.2044678 0.5126953
vt 0.2097168 0.4707031
vt 0.2017822 0.5141602
vt 0.1953125 0.4736328
vt 0.1990967 0.5141602
vt 0.2001953 0.4736328
vt 0.1883545 0.4836426
vt 0.1885986 0.4824219
vt 0.1865234 0.4833984
vt 0.1922607 0.4831543
vt 0.1925049 0.4816895
vt 0.1943359 0.4821777
vt 0.1882324 0.4570313
vt 0.1634521 0.434082
vt 0.1655273 0.4304199
vt 0.185791 0.4592285
vt 0.1943359 0.4821777
vt 0.1922607 0.4831543
vt 0.185791 0.4592285
vt 0.1580811 0.4384766
vt 0.1634521 0.434082
vt 0.1806641 0.4616699
vt 0.1922607 0.4831543
vt 0.1883545 0.4836426
vt 0.1806641 0.4616699
vt 0.1546631 0.4394531
vt 0.1580811 0.4384766
vt 0.1779785 0.4621582
vt 0.1883545 0.4836426
vt 0.1865234 0.4833984
vt 0.1546631 0.4394531
vt 0.1804199 0.4602051
vt 0.1566162 0.435791
vt 0.1779785 0.4621582
vt 0.1885986 0.4824219
vt 0.1865234 0.4833984
vt 0.1566162 0.435791
vt 0.1855469 0.4575195
vt 0.1621094 0.4313965
vt 0.1804199 0.4602051
vt 0.1925049 0.4816895
vt 0.1885986 0.4824219
vt 0.1621094 0.4313965
vt 0.1882324 0.4570313
vt 0.1655273 0.4304199
vt 0.1855469 0.4575195
vt 0.1943359 0.4821777
vt 0.1925049 0.4816895
vt 0.8530273 0.4289551
vt 0.8901367 0.4133301
vt 0.8588867 0.4243164
vt 0.8891602 0.4140625
vt 0.8676758 0.4267578
vt 0.847168 0.4111328
vt 0.8901367 0.4133301
vt 0.887207 0.3974609
vt 0.8588867 0.4243164
vt 0.8891602 0.4140625
vt 0.887207 0.3974609
vt 0.8901367 0.4133301
vt 0.8823242 0.3942871
vt 0.8515625 0.4072266
vt 0.8530273 0.4289551
vt 0.8291016 0.4116211
vt 0.8676758 0.4267578
vt 0.8291016 0.4116211
vt 0.8588867 0.4243164
vt 0.847168 0.4111328
vt 0.8530273 0.4289551
vt 0.8676758 0.4267578
vt 0.8823242 0.3942871
vt 0.8891602 0.4140625
vt 0.8515625 0.4072266
vt 0.8583984 0.5898438
vt 0.8432617 0.5771484
vt 0.8515625 0.5942383
vt 0.8476563 0.5727539
vt 0.8564453 0.5825195
vt 0.8476563 0.5727539
vt 0.8349609 0.5693359
vt 0.8432617 0.5771484
vt 0.8398438 0.5605469
vt 0.8422852 0.5722656
vt 0.8583984 0.5898438
vt 0.8496094 0.5893555
vt 0.8564453 0.5825195
vt 0.8496094 0.5893555
vt 0.8515625 0.5942383
vt 0.8422852 0.597168
vt 0.8583984 0.5898438
vt 0.8974609 0.6054688
vt 0.902832 0.6289063
vt 0.8984375 0.6054688
vt 0.9023438 0.6206055
vt 0.887207 0.6298828
vt 0.8974609 0.6054688
vt 0.8891602 0.6049805
vt 0.9023438 0.6245117
vt 0.8876953 0.6196289
vt 0.902832 0.6289063
vt 0.8852539 0.6328125
vt 0.9023438 0.6206055
vt 0.8852539 0.6328125
vt 0.9023438 0.6245117
vt 0.887207 0.6298828
vt 0.902832 0.6289063
vt 0.9023438 0.6206055
vt 0.8862305 0.6064453
vt 0.8984375 0.6054688
vt 0.8876953 0.6196289
vt 0.9067383 0.4599609
vt 0.9150391 0.4587402
vt 0.9018555 0.4611816
vt 0.918457 0.4580078
vt 0.894043 0.4521484
vt 0.9150391 0.4587402
vt 0.921875 0.4545898
vt 0.9018555 0.4611816
vt 0.921875 0.4545898
vt 0.918457 0.4580078
vt 0.9267578 0.449707
vt 0.9106445 0.458252
vt 0.9150391 0.4477539
vt 0.8979492 0.4458008
vt 0.9018555 0.4611816
vt 0.894043 0.4521484
vt 0.9067383 0.4599609
vt 0.8681641 0.4318848
vt 0.875 0.4587402
vt 0.8554688 0.4423828
vt 0.8808594 0.4536133
vt 0.8862305 0.4438477
vt 0.8808594 0.4536133
vt 0.8666992 0.4472656
vt 0.875 0.4587402
vt 0.8735352 0.4343262
vt 0.8759766 0.421875
vt 0.8681641 0.4318848
vt 0.859375 0.4211426
vt 0.8862305 0.4438477
vt 0.859375 0.4211426
vt 0.8554688 0.4423828
vt 0.8344727 0.4372559
vt 0.8681641 0.4318848
vt 0.8862305 0.4438477
vt 0.8735352 0.4343262
vt 0.8808594 0.4536133
vt 0.8759766 0.421875
vt 0.9404297 0.4023438
vt 0.9116211 0.404541
vt 0.9448242 0.4111328
vt 0.9033203 0.3972168
vt 0.8901367 0.4121094
vt 0.8779297 0.4060059
vt 0.8847656 0.402832
vt 0.8901367 0.4208984
vt 0.8647461 0.4064941
vt 0.8994141 0.4130859
vt 0.9165039 0.4130859
vt 0.9208984 0.4189453
vt 0.8647461 0.4064941
vt 0.8901367 0.4121094
vt 0.8779297 0.4060059
vt 0.8901367 0.4208984
vt 0.9208984 0.4189453
vt 0.9453125 0.4020996
vt 0.9438477 0.4118652
vt 0.9165039 0.4130859
vt 0.9208984 0.4189453
vt 0.9086914 0.411377
vt 0.8994141 0.4130859
vt 0.9438477 0.4118652
vt 0.9448242 0.4111328
vt 0.9116211 0.404541
vt 0.8901367 0.4208984
vt 0.8901367 0.4121094
vt 0.8637695 0.4641113
vt 0.8579102 0.534668
vt 0.8671875 0.4611816
vt 0.8540039 0.5380859
vt 0.8549805 0.5102539
vt 0.8466797 0.5078125
vt 0.8637695 0.4641113
vt 0.8544922 0.4365234
vt 0.8549805 0.5102539
vt 0.8544922 0.4365234
vt 0.8671875 0.4611816
vt 0.8642578 0.4384766
vt 0.8637695 0.4641113
vt 0.8549805 0.5102539
vt 0.8413086 0.5400391
vt 0.8540039 0.5380859
vt 0.8466797 0.5078125

g Tree_06_(9)_472_50
usemtl Tree_06_(9)_472_50
usemap Tree_06_(9)_472_50
f 1/1/1 3/3/3 2/2/2
f 4/4/4 6/6/6 5/5/5
f 7/7/7 9/9/9 8/8/8
f 10/10/10 12/12/12 11/11/11
f 13/13/13 15/15/15 14/14/14
f 16/16/16 18/18/18 17/17/17
f 19/19/19 21/21/21 20/20/20
f 22/22/22 24/24/24 23/23/23
f 25/25/25 27/27/27 26/26/26
f 28/28/28 30/30/30 29/29/29
f 31/31/31 33/33/33 32/32/32
f 34/34/34 36/36/36 35/35/35
f 37/37/37 39/39/39 38/38/38
f 40/40/40 42/42/42 41/41/41
f 43/43/43 45/45/45 44/44/44
f 46/46/46 48/48/48 47/47/47
f 49/49/49 51/51/51 50/50/50
f 52/52/52 54/54/54 53/53/53
f 55/55/55 57/57/57 56/56/56
f 58/58/58 60/60/60 59/59/59
f 61/61/61 63/63/63 62/62/62
f 64/64/64 66/66/66 65/65/65
f 67/67/67 69/69/69 68/68/68
f 70/70/70 72/72/72 71/71/71
f 73/73/73 75/75/75 74/74/74
f 76/76/76 78/78/78 77/77/77
f 79/79/79 81/81/81 80/80/80
f 82/82/82 84/84/84 83/83/83
f 85/85/85 87/87/87 86/86/86
f 88/88/88 90/90/90 89/89/89
f 91/91/91 93/93/93 92/92/92
f 94/94/94 96/96/96 95/95/95
f 97/97/97 99/99/99 98/98/98
f 100/100/100 102/102/102 101/101/101
f 103/103/103 105/105/105 104/104/104
f 106/106/106 108/108/108 107/107/107
f 107/107/107 109/109/109 106/106/106
f 109/109/109 107/107/107 110/110/110
f 110/110/110 111/111/111 109/109/109
f 112/112/112 111/111/111 110/110/110
f 110/110/110 113/113/113 112/112/112
f 114/114/114 112/112/112 113/113/113
f 113/113/113 115/115/115 114/114/114
f 114/114/114 115/115/115 116/116/116
f 116/116/116 117/117/117 114/114/114
f 118/118/118 120/120/120 119/119/119
f 119/119/119 121/121/121 118/118/118
f 121/121/121 119/119/119 122/122/122
f 122/122/122 123/123/123 121/121/121
f 124/124/124 123/123/123 122/122/122
f 122/122/122 125/125/125 124/124/124
f 126/126/126 124/124/124 125/125/125
f 125/125/125 127/127/127 126/126/126
f 126/126/126 127/127/127 128/128/128
f 128/128/128 129/129/129 126/126/126
f 130/130/130 132/132/132 131/131/131
f 131/131/131 133/133/133 130/130/130
f 134/134/134 130/130/130 133/133/133
f 133/133/133 135/135/135 134/134/134
f 136/136/136 134/134/134 135/135/135
f 135/135/135 137/137/137 136/136/136
f 138/138/138 136/136/136 137/137/137
f 137/137/137 139/139/139 138/138/138
f 138/138/138 139/139/139 140/140/140
f 140/140/140 141/141/141 138/138/138
f 142/142/142 144/144/144 143/143/143
f 143/143/143 145/145/145 142/142/142
f 146/146/146 142/142/142 145/145/145
f 145/145/145 147/147/147 146/146/146
f 146/146/146 147/147/147 148/148/148
f 148/148/148 149/149/149 146/146/146
f 149/149/149 148/148/148 150/150/150
f 150/150/150 151/151/151 149/149/149
f 151/151/151 150/150/150 152/152/152
f 152/152/152 153/153/153 151/151/151
f 154/154/154 156/156/156 155/155/155
f 155/155/155 157/157/157 154/154/154
f 158/158/158 154/154/154 157/157/157
f 157/157/157 159/159/159 158/158/158
f 158/158/158 159/159/159 160/160/160
f 160/160/160 161/161/161 158/158/158
f 161/161/161 160/160/160 162/162/162
f 162/162/162 163/163/163 161/161/161
f 163/163/163 162/162/162 164/164/164
f 164/164/164 165/165/165 163/163/163
f 166/166/166 168/168/168 167/167/167
f 167/167/167 169/169/169 166/166/166
f 169/169/169 167/167/167 170/170/170
f 170/170/170 171/171/171 169/169/169
f 171/171/171 170/170/170 172/172/172
f 172/172/172 173/173/173 171/171/171
f 173/173/173 172/172/172 174/174/174
f 174/174/174 175/175/175 173/173/173
f 175/175/175 174/174/174 176/176/176
f 176/176/176 177/177/177 175/175/175
f 178/178/178 180/180/180 179/179/179
f 179/179/179 181/181/181 178/178/178
f 181/181/181 179/179/179 182/182/182
f 182/182/182 183/183/183 181/181/181
f 184/184/184 186/186/186 185/185/185
f 185/185/185 187/187/187 184/184/184
f 188/188/188 190/190/190 189/189/189
f 189/189/189 191/191/191 188/188/188
f 192/192/192 194/194/194 193/193/193
f 193/193/193 195/195/195 192/192/192
f 196/196/196 198/198/198 197/197/197
f 197/197/197 199/199/199 196/196/196
f 200/200/200 202/202/202 201/201/201
f 201/201/201 203/203/203 200/200/200
f 204/204/204 206/206/206 205/205/205
f 205/205/205 207/207/207 204/204/204
f 208/208/208 210/210/210 209/209/209
f 209/209/209 211/211/211 208/208/208
f 211/211/211 209/209/209 212/212/212
f 212/212/212 213/213/213 211/211/211
f 214/214/214 216/216/216 215/215/215
f 215/215/215 217/217/217 214/214/214
f 217/217/217 215/215/215 218/218/218
f 218/218/218 219/219/219 217/217/217
f 220/220/220 222/222/222 221/221/221
f 221/221/221 223/223/223 220/220/220
f 223/223/223 221/221/221 224/224/224
f 224/224/224 225/225/225 223/223/223
f 226/226/226 228/228/228 227/227/227
f 227/227/227 229/229/229 226/226/226
f 229/229/229 227/227/227 230/230/230
f 230/230/230 231/231/231 229/229/229
f 232/232/232 234/234/234 233/233/233
f 233/233/233 235/235/235 232/232/232
f 235/235/235 233/233/233 236/236/236
f 236/236/236 237/237/237 235/235/235
f 238/238/238 240/240/240 239/239/239
f 239/239/239 241/241/241 238/238/238
f 241/241/241 239/239/239 242/242/242
f 242/242/242 243/243/243 241/241/241
f 244/244/244 246/246/246 245/245/245
f 245/245/245 247/247/247 244/244/244
f 247/247/247 245/245/245 248/248/248
f 248/248/248 249/249/249 247/247/247
f 250/250/250 252/252/252 251/251/251
f 251/251/251 253/253/253 250/250/250
f 253/253/253 251/251/251 254/254/254
f 254/254/254 255/255/255 253/253/253
f 256/256/256 258/258/258 257/257/257
f 257/257/257 259/259/259 256/256/256
f 260/260/260 259/259/259 257/257/257
f 257/257/257 261/261/261 260/260/260
f 262/262/262 260/260/260 261/261/261
f 261/261/261 263/263/263 262/262/262
f 264/264/264 266/266/266 265/265/265
f 265/265/265 267/267/267 264/264/264
f 268/268/268 267/267/267 265/265/265
f 265/265/265 269/269/269 268/268/268
f 270/270/270 272/272/272 271/271/271
f 271/271/271 273/273/273 270/270/270
f 274/274/274 273/273/273 271/271/271
f 271/271/271 275/275/275 274/274/274
f 274/274/274 275/275/275 276/276/276
f 276/276/276 277/277/277 274/274/274
f 278/278/278 280/280/280 279/279/279
f 279/279/279 281/281/281 278/278/278
f 281/281/281 279/279/279 282/282/282
f 282/282/282 283/283/283 281/281/281
f 283/283/283 282/282/282 284/284/284
f 284/284/284 285/285/285 283/283/283
f 286/286/286 288/288/288 287/287/287
f 287/287/287 289/289/289 286/286/286
f 289/289/289 287/287/287 290/290/290
f 290/290/290 291/291/291 289/289/289
f 291/291/291 290/290/290 292/292/292
f 292/292/292 293/293/293 291/291/291
f 294/294/294 296/296/296 295/295/295
f 295/295/295 297/297/297 294/294/294
f 298/298/298 297/297/297 295/295/295
f 295/295/295 299/299/299 298/298/298
f 300/300/300 298/298/298 299/299/299
f 299/299/299 301/301/301 300/300/300
f 302/302/302 304/304/304 303/303/303
f 303/303/303 305/305/305 302/302/302
f 305/305/305 303/303/303 306/306/306
f 306/306/306 307/307/307 305/305/305
f 308/308/308 310/310/310 309/309/309
f 309/309/309 311/311/311 308/308/308
f 312/312/312 314/314/314 313/313/313
f 313/313/313 315/315/315 312/312/312
f 315/315/315 313/313/313 316/316/316
f 316/316/316 317/317/317 315/315/315
f 318/318/318 320/320/320 319/319/319
f 319/319/319 321/321/321 318/318/318
f 322/322/322 321/321/321 319/319/319
f 319/319/319 323/323/323 322/322/322
f 324/324/324 326/326/326 325/325/325
f 325/325/325 327/327/327 324/324/324
f 328/328/328 327/327/327 325/325/325
f 325/325/325 329/329/329 328/328/328
f 330/330/330 328/328/328 329/329/329
f 329/329/329 331/331/331 330/330/330
f 332/332/332 334/334/334 333/333/333
f 333/333/333 335/335/335 332/332/332
f 336/336/336 335/335/335 333/333/333
f 333/333/333 337/337/337 336/336/336
f 336/336/336 337/337/337 338/338/338
f 338/338/338 339/339/339 336/336/336
f 340/340/340 342/342/342 341/341/341
f 341/341/341 343/343/343 340/340/340
f 343/343/343 341/341/341 344/344/344
f 344/344/344 345/345/345 343/343/343
f 346/346/346 348/348/348 347/347/347
f 347/347/347 349/349/349 346/346/346
f 349/349/349 347/347/347 350/350/350
f 350/350/350 351/351/351 349/349/349
f 351/351/351 350/350/350 352/352/352
f 352/352/352 353/353/353 351/351/351
f 354/354/354 356/356/356 355/355/355
f 355/355/355 357/357/357 354/354/354
f 358/358/358 357/357/357 355/355/355
f 355/355/355 359/359/359 358/358/358
f 360/360/360 358/358/358 359/359/359
f 359/359/359 361/361/361 360/360/360
f 362/362/362 364/364/364 363/363/363
f 363/363/363 365/365/365 362/362/362
f 365/365/365 363/363/363 366/366/366
f 366/366/366 367/367/367 365/365/365
f 368/368/368 370/370/370 369/369/369
f 369/369/369 371/371/371 368/368/368
f 372/372/372 374/374/374 373/373/373
f 373/373/373 375/375/375 372/372/372
f 376/376/376 378/378/378 377/377/377
f 377/377/377 379/379/379 376/376/376
f 379/379/379 377/377/377 380/380/380
f 380/380/380 381/381/381 379/379/379
f 382/382/382 384/384/384 383/383/383
f 383/383/383 385/385/385 382/382/382
f 386/386/386 382/382/382 385/385/385
f 385/385/385 387/387/387 386/386/386
f 388/388/388 390/390/390 389/389/389
f 389/389/389 391/391/391 388/388/388
f 392/392/392 388/388/388 391/391/391
f 391/391/391 393/393/393 392/392/392
f 394/394/394 396/396/396 395/395/395
f 395/395/395 397/397/397 394/394/394
f 398/398/398 394/394/394 397/397/397
f 397/397/397 399/399/399 398/398/398
f 400/400/400 402/402/402 401/401/401
f 401/401/401 403/403/403 400/400/400
f 403/403/403 401/401/401 404/404/404
f 404/404/404 405/405/405 403/403/403
f 406/406/406 408/408/408 407/407/407
f 407/407/407 409/409/409 406/406/406
f 409/409/409 407/407/407 410/410/410
f 410/410/410 411/411/411 409/409/409
f 412/412/412 414/414/414 413/413/413
f 413/413/413 415/415/415 412/412/412
f 415/415/415 413/413/413 416/416/416
f 416/416/416 417/417/417 415/415/415
f 418/418/418 420/420/420 419/419/419
f 419/419/419 421/421/421 418/418/418
f 421/421/421 422/422/422 418/418/418
f 423/423/423 425/425/425 424/424/424
f 424/424/424 426/426/426 423/423/423
f 427/427/427 429/429/429 428/428/428
f 428/428/428 430/430/430 427/427/427
f 431/431/431 433/433/433 432/432/432
f 432/432/432 434/434/434 431/431/431
f 435/435/435 437/437/437 436/436/436
f 436/436/436 438/438/438 435/435/435
f 439/439/439 441/441/441 440/440/440
f 440/440/440 442/442/442 439/439/439
f 443/443/443 445/445/445 444/444/444
f 444/444/444 446/446/446 443/443/443
f 446/446/446 447/447/447 443/443/443
f 448/448/448 450/450/450 449/449/449
f 449/449/449 451/451/451 448/448/448
f 452/452/452 454/454/454 453/453/453
f 453/453/453 455/455/455 452/452/452
f 456/456/456 458/458/458 457/457/457
f 457/457/457 459/459/459 456/456/456
f 460/460/460 462/462/462 461/461/461
f 462/462/462 463/463/463 461/461/461
f 464/464/464 466/466/466 465/465/465
f 465/465/465 467/467/467 464/464/464
f 468/468/468 470/470/470 469/469/469
f 469/469/469 471/471/471 468/468/468
f 472/472/472 474/474/474 473/473/473
f 473/473/473 475/475/475 472/472/472
f 476/476/476 478/478/478 477/477/477
f 477/477/477 479/479/479 476/476/476
f 480/480/480 482/482/482 481/481/481
f 481/481/481 483/483/483 480/480/480
f 484/484/484 486/486/486 485/485/485
f 485/485/485 487/487/487 484/484/484
f 488/488/488 490/490/490 489/489/489
f 491/491/491 489/489/489 490/490/490
f 490/490/490 492/492/492 491/491/491
f 493/493/493 495/495/495 494/494/494
f 494/494/494 496/496/496 493/493/493
f 497/497/497 499/499/499 498/498/498
f 498/498/498 500/500/500 497/497/497
f 500/500/500 501/501/501 497/497/497
f 502/502/502 504/504/504 503/503/503
f 503/503/503 505/505/505 502/502/502
f 506/506/506 508/508/508 507/507/507
f 507/507/507 509/509/509 506/506/506
f 510/510/510 512/512/512 511/511/511
f 511/511/511 513/513/513 510/510/510
f 514/514/514 516/516/516 515/515/515
f 515/515/515 517/517/517 514/514/514
f 518/518/518 520/520/520 519/519/519
f 519/519/519 521/521/521 518/518/518
f 521/521/521 519/519/519 522/522/522
f 522/522/522 523/523/523 521/521/521
f 524/524/524 526/526/526 525/525/525
f 525/525/525 527/527/527 524/524/524
f 528/528/528 524/524/524 527/527/527
f 527/527/527 529/529/529 528/528/528
f 530/530/530 532/532/532 531/531/531
f 531/531/531 533/533/533 530/530/530
f 534/534/534 536/536/536 535/535/535
f 535/535/535 537/537/537 534/534/534
f 538/538/538 540/540/540 539/539/539
f 539/539/539 541/541/541 538/538/538
f 542/542/542 541/541/541 539/539/539
f 539/539/539 543/543/543 542/542/542
f 543/543/543 539/539/539 544/544/544
f 544/544/544 545/545/545 543/543/543
f 546/546/546 548/548/548 547/547/547
f 547/547/547 549/549/549 546/546/546
f 549/549/549 550/550/550 546/546/546
f 551/551/551 553/553/553 552/552/552
f 552/552/552 554/554/554 551/551/551
f 555/555/555 557/557/557 556/556/556
f 556/556/556 558/558/558 555/555/555
f 559/559/559 561/561/561 560/560/560
f 560/560/560 562/562/562 559/559/559
