#Tree_11_Green_(9)_389_79.obj

v 0.470526 -0.9927486 2.322839
v -0.4689717 -0.6828628 1.996823
v 0.3423168 -1.194255 2.308597
v -0.4689717 -0.6828628 1.996823
v 0.470526 -0.9927486 2.322839
v -0.3802462 -0.4090942 2.008124
v -0.5066003 -0.6773424 2.158553
v 0.3469495 -1.070827 2.51324
v 0.3026675 -1.179136 2.440279
v 0.3469495 -1.070827 2.51324
v -0.5066003 -0.6773424 2.158553
v -0.4810535 -0.5376989 2.245069
v 0.3423168 -1.194255 2.308597
v 1.016738 -1.427726 3.076958
v 0.470526 -0.9927486 2.322839
v 0.4308767 -0.9776298 2.45452
v 1.016738 -1.427726 3.076958
v 0.3469495 -1.070827 2.51324
v 0.3469495 -1.070827 2.51324
v 1.016738 -1.427726 3.076958
v 0.3026675 -1.179136 2.440279
v 0.3026675 -1.179136 2.440279
v 1.016738 -1.427726 3.076958
v 0.3423168 -1.194255 2.308597
v -2.003536 -1.153202 2.857601
v -0.5814032 -0.4835587 2.31834
v -0.5148403 -0.5837924 2.2573
v -2.032963 -1.055771 2.905256
v -0.6676147 -0.4071353 2.248128
v -0.5814032 -0.4835587 2.31834
v -2.030698 -1.174374 2.750734
v -0.6872642 -0.4309373 2.116874
v -2.116714 -1.000674 2.739176
v -0.6872642 -0.4309373 2.116874
v -2.030698 -1.174374 2.750734
v -0.5344865 -0.6075925 2.126046
v -2.030698 -1.174374 2.750734
v -2.709465 -1.308469 3.199426
v -2.003536 -1.153202 2.857601
v -2.089553 -0.9795018 2.846043
v -2.709465 -1.308469 3.199426
v -2.116714 -1.000674 2.739176
v -2.116714 -1.000674 2.739176
v -2.709465 -1.308469 3.199426
v -2.030698 -1.174374 2.750734
v -0.3056258 0.7596379 2.322839
v -0.3927371 -0.4057553 1.996823
v -0.0865368 0.6645434 2.308597
v -0.3927371 -0.4057553 1.996823
v -0.3056258 0.7596379 2.322839
v -0.6770184 -0.3609656 2.008124
v -0.0865368 0.6645434 2.308597
v 0.1460966 1.307534 3.142406
v -0.3056258 0.7596379 2.322839
v -0.3056258 0.7596379 2.322839
v 0.1460966 1.307534 3.142406
v -0.3143533 0.7181089 2.45452
v -0.3143533 0.7181089 2.45452
v 0.1460966 1.307534 3.142406
v -0.209173 0.6498014 2.51324
v -0.209173 0.6498014 2.51324
v 0.1460966 1.307534 3.142406
v -0.09526434 0.6230145 2.440279
v 0.2363496 -2.033754 3.316547
v 0.4636471 -1.123096 3.420955
v 0.5894342 -1.644957 3.480938
v 0.4636471 -1.123096 3.420955
v 0.2363496 -2.033754 3.316547
v 0.02513871 -1.123944 3.231408
v 0.3523217 -3.102662E-06 -5.69931E-22
v -0.3794113 -0.2444702 1.406414
v 0.1761603 0.3051196 5.604764E-17
v -0.2440787 -0.4699025 1.379011
v -0.1761574 0.3051162 5.604703E-17
v -0.3794113 -0.2444702 1.406414
v -0.6431542 -0.2497625 1.421011
v 0.1761603 0.3051196 5.604764E-17
v -0.3523217 3.102662E-06 5.021684E-22
v -0.6431542 -0.2497625 1.421011
v -0.7715572 -0.4804915 1.408205
v -0.1761574 0.3051162 5.604703E-17
v -0.1761603 -0.3051196 -5.604777E-17
v -0.7715572 -0.4804915 1.408205
v -0.6362205 -0.7059303 1.380802
v -0.3523217 3.102662E-06 5.021684E-22
v -0.1761603 -0.3051196 -5.604777E-17
v -0.3724849 -0.7006336 1.366205
v 0.1761574 -0.3051162 -5.604716E-17
v -0.6362205 -0.7059303 1.380802
v 0.1761574 -0.3051162 -5.604716E-17
v -0.2440787 -0.4699025 1.379011
v 0.3523217 -3.102662E-06 -5.69931E-22
v -0.3724849 -0.7006336 1.366205
v -0.4711719 -0.3458554 3.217021
v -0.2440787 -0.4699025 1.379011
v -0.3600452 -0.5347145 3.225297
v -0.3794113 -0.2444702 1.406414
v -0.6431542 -0.2497625 1.421011
v -0.4711719 -0.3458554 3.217021
v -0.6899596 -0.3465272 3.240082
v -0.3794113 -0.2444702 1.406414
v -0.6899596 -0.3465272 3.240082
v -0.7715572 -0.4804915 1.408205
v -0.6431542 -0.2497625 1.421011
v -0.7976215 -0.5360497 3.271419
v -0.2951447 0.2124308 5.118435
v -0.382061 0.05955737 5.133761
v -0.6362205 -0.7059303 1.380802
v -0.7976215 -0.5360497 3.271419
v -0.6864916 -0.7249067 3.279695
v -0.7715572 -0.4804915 1.408205
v -0.4677031 -0.7242434 3.256634
v -0.6362205 -0.7059303 1.380802
v -0.6864916 -0.7249067 3.279695
v -0.3724849 -0.7006336 1.366205
v -0.3724849 -0.7006336 1.366205
v -0.3600452 -0.5347145 3.225297
v -0.2440787 -0.4699025 1.379011
v -0.4677031 -0.7242434 3.256634
v -0.03439188 0.05955765 5.072457
v -0.1213091 -0.09330726 5.087783
v -0.1213117 0.2124299 5.087783
v -0.3600452 -0.5347145 3.225297
v -0.03439188 0.05955765 5.072457
v -0.4711719 -0.3458554 3.217021
v -0.6899596 -0.3465272 3.240082
v -0.1213117 0.2124299 5.087783
v -0.2951447 0.2124308 5.118435
v -0.4711719 -0.3458554 3.217021
v -0.2951452 -0.09330843 5.118435
v -0.7976215 -0.5360497 3.271419
v -0.382061 0.05955737 5.133761
v -0.6864916 -0.7249067 3.279695
v -0.1213091 -0.09330726 5.087783
v -0.6864916 -0.7249067 3.279695
v -0.2951452 -0.09330843 5.118435
v -0.4677031 -0.7242434 3.256634
v 0.470526 -0.9927486 2.322839
v -0.4178748 -0.4035738 2.169855
v -0.3802462 -0.4090942 2.008124
v 0.4308767 -0.9776298 2.45452
v 1.016738 -1.427726 3.076958
v -0.4810535 -0.5376989 2.245069
v 0.4308767 -0.9776298 2.45452
v 0.3469495 -1.070827 2.51324
v -0.4178748 -0.4035738 2.169855
v 0.3423168 -1.194255 2.308597
v -0.5066003 -0.6773424 2.158553
v 0.3026675 -1.179136 2.440279
v -0.4689717 -0.6828628 1.996823
v -0.5148403 -0.5837924 2.2573
v -2.030698 -1.174374 2.750734
v -2.003536 -1.153202 2.857601
v -0.5344865 -0.6075925 2.126046
v -0.5814032 -0.4835587 2.31834
v -2.003536 -1.153202 2.857601
v -2.032963 -1.055771 2.905256
v -2.709465 -1.308469 3.199426
v -0.6676147 -0.4071353 2.248128
v -2.032963 -1.055771 2.905256
v -2.089553 -0.9795018 2.846043
v -2.709465 -1.308469 3.199426
v -2.116714 -1.000674 2.739176
v -0.6676147 -0.4071353 2.248128
v -2.089553 -0.9795018 2.846043
v -0.6872642 -0.4309373 2.116874
v -0.6765823 -0.3989944 2.169855
v -0.3056258 0.7596379 2.322839
v -0.3143533 0.7181089 2.45452
v -0.6770184 -0.3609656 2.008124
v -0.5342183 -0.4404048 2.245069
v -0.3143533 0.7181089 2.45452
v -0.209173 0.6498014 2.51324
v -0.6765823 -0.3989944 2.169855
v -0.3922978 -0.443782 2.158553
v -0.209173 0.6498014 2.51324
v -0.09526434 0.6230145 2.440279
v -0.5342183 -0.4404048 2.245069
v -0.3922978 -0.443782 2.158553
v -0.0865368 0.6645434 2.308597
v -0.3927371 -0.4057553 1.996823
v -0.09526434 0.6230145 2.440279
v 0.1460966 1.307534 3.142406
v 0.7672677 -0.5090708 3.62391
v 0.4021724 0.9588262 3.901278
v 0.1087591 0.5293695 3.645487
v 1.334644 -0.5133002 3.934942
v 0.1087591 0.5293695 3.645487
v -1.46277 0.9630508 3.962402
v -1.20826 0.5293711 3.645487
v 0.4021724 0.9588262 3.901278
v -1.20826 0.5293711 3.645487
v -2.395242 -0.5048423 4.05719
v -1.866764 -0.5090719 3.62391
v -1.46277 0.9630508 3.962402
v -1.866764 -0.5090719 3.62391
v -1.462775 -1.976962 4.090854
v -1.208259 -1.547514 3.602334
v -2.395242 -0.5048423 4.05719
v -1.208259 -1.547514 3.602334
v 0.4021717 -1.981193 4.02973
v 0.1087567 -1.547509 3.602334
v -1.462775 -1.976962 4.090854
v 0.1087567 -1.547509 3.602334
v 1.334644 -0.5133002 3.934942
v 0.7672677 -0.5090708 3.62391
v 0.4021717 -1.981193 4.02973
v 1.334644 -0.5133002 3.934942
v -0.00509913 0.4386747 4.207654
v 0.4021724 0.9588262 3.901278
v 0.5579294 -0.4507442 4.239138
v 0.4021724 0.9588262 3.901278
v -1.131152 0.4440418 4.259823
v -1.46277 0.9630508 3.962402
v -0.00509913 0.4386747 4.207654
v -1.46277 0.9630508 3.962402
v -1.694176 -0.4400183 4.343475
v -2.395242 -0.5048423 4.05719
v -1.131152 0.4440418 4.259823
v -2.395242 -0.5048423 4.05719
v -1.131148 -1.329437 4.374958
v -1.462775 -1.976962 4.090854
v -1.694176 -0.4400183 4.343475
v -1.462775 -1.976962 4.090854
v -0.005098607 -1.334798 4.322789
v 0.4021717 -1.981193 4.02973
v -1.131148 -1.329437 4.374958
v 0.4021717 -1.981193 4.02973
v 0.5579294 -0.4507442 4.239138
v 1.334644 -0.5133002 3.934942
v -0.005098607 -1.334798 4.322789
v 0.1087567 -1.547509 3.602334
v -1.866764 -0.5090719 3.62391
v -1.208259 -1.547514 3.602334
v 0.7672677 -0.5090708 3.62391
v -1.20826 0.5293711 3.645487
v 0.1087591 0.5293695 3.645487
v 0.5579294 -0.4507442 4.239138
v 0.2171409 0.7188579 4.530314
v -0.00509913 0.4386747 4.207654
v 0.9452477 -0.4128694 4.608937
v -0.00509913 0.4386747 4.207654
v -1.239073 0.7306206 4.603034
v -1.131152 0.4440418 4.259823
v 0.2171409 0.7188579 4.530314
v -1.131152 0.4440418 4.259823
v -1.967179 -0.3893441 4.754375
v -1.694176 -0.4400183 4.343475
v -1.239073 0.7306206 4.603034
v -1.694176 -0.4400183 4.343475
v -1.239072 -1.521071 4.832996
v -1.131148 -1.329437 4.374958
v -1.967179 -0.3893441 4.754375
v -1.131148 -1.329437 4.374958
v 0.2171379 -1.532836 4.760278
v -0.005098607 -1.334798 4.322789
v -1.239072 -1.521071 4.832996
v -0.005098607 -1.334798 4.322789
v 0.9452477 -0.4128694 4.608937
v 0.5579294 -0.4507442 4.239138
v 0.2171379 -1.532836 4.760278
v 0.2171409 0.7188579 4.530314
v 0.4765622 -0.3678859 4.887011
v 0.06396759 0.2919428 4.860177
v 0.9452477 -0.4128694 4.608937
v -1.239073 0.7306206 4.603034
v 0.06396759 0.2919428 4.860177
v -0.7612288 0.3048515 4.939966
v 0.2171409 0.7188579 4.530314
v -1.967179 -0.3893441 4.754375
v -0.7612288 0.3048515 4.939966
v -1.173823 -0.342073 5.046588
v -1.239073 0.7306206 4.603034
v -1.967179 -0.3893441 4.754375
v -0.7612287 -1.001902 5.073423
v -1.239072 -1.521071 4.832996
v -1.173823 -0.342073 5.046588
v -1.239072 -1.521071 4.832996
v 0.06396444 -1.014812 4.993633
v 0.2171379 -1.532836 4.760278
v -0.7612287 -1.001902 5.073423
v 0.9452477 -0.4128694 4.608937
v 0.06396444 -1.014812 4.993633
v 0.4765622 -0.3678859 4.887011
v 0.2171379 -1.532836 4.760278
v -0.4083425 -0.5977194 5.434424
v 0.183089 -0.2978013 5.32025
v -0.01405714 -0.6065822 5.379634
v -0.6054817 -0.2800756 5.42983
v -0.01405344 0.01984045 5.315657
v -0.4083388 0.02870333 5.370447
v 0.2097314 0.4376422 5.05858
v 0.183089 -0.2978013 5.32025
v -0.01405344 0.01984045 5.315657
v 0.691161 -0.3373131 5.076013
v -0.7531272 0.4572818 5.179999
v -0.01405344 0.01984045 5.315657
v -0.4083388 0.02870333 5.370447
v 0.2097314 0.4376422 5.05858
v -1.23456 -0.2980274 5.318851
v -0.4083388 0.02870333 5.370447
v -0.6054817 -0.2800756 5.42983
v -0.7531272 0.4572818 5.179999
v -0.4083425 -0.5977194 5.434424
v -1.23456 -0.2980274 5.318851
v -0.6054817 -0.2800756 5.42983
v -0.7531306 -1.072983 5.336284
v -0.01405714 -0.6065822 5.379634
v -0.7531306 -1.072983 5.336284
v -0.4083425 -0.5977194 5.434424
v 0.2097321 -1.092629 5.214864
v 0.183089 -0.2978013 5.32025
v 0.2097321 -1.092629 5.214864
v -0.01405714 -0.6065822 5.379634
v 0.691161 -0.3373131 5.076013
v 0.06396759 0.2919428 4.860177
v 0.691161 -0.3373131 5.076013
v 0.2097314 0.4376422 5.05858
v 0.4765622 -0.3678859 4.887011
v -0.7612288 0.3048515 4.939966
v 0.2097314 0.4376422 5.05858
v -0.7531272 0.4572818 5.179999
v 0.06396759 0.2919428 4.860177
v -1.173823 -0.342073 5.046588
v -0.7531272 0.4572818 5.179999
v -1.23456 -0.2980274 5.318851
v -0.7612288 0.3048515 4.939966
v -0.7531306 -1.072983 5.336284
v -1.173823 -0.342073 5.046588
v -1.23456 -0.2980274 5.318851
v -0.7612287 -1.001902 5.073423
v 0.2097321 -1.092629 5.214864
v -0.7612287 -1.001902 5.073423
v -0.7531306 -1.072983 5.336284
v 0.06396444 -1.014812 4.993633
v 0.691161 -0.3373131 5.076013
v 0.06396444 -1.014812 4.993633
v 0.2097321 -1.092629 5.214864
v 0.4765622 -0.3678859 4.887011
v 1.593858 -0.8389006 2.680583
v 0.690752 -0.2526549 2.836622
v 0.7649875 -0.6080555 2.692721
v 1.865285 -0.5803834 2.85556
v 0.7649875 -0.6080555 2.692721
v -0.1966006 -1.107339 2.871008
v 0.1398288 -1.213165 2.692721
v 0.690752 -0.2526549 2.836622
v 0.1398288 -1.213165 2.692721
v 0.09057687 -2.289753 2.924333
v 0.3435363 -2.049113 2.680583
v -0.1966006 -1.107339 2.871008
v 0.3435363 -2.049113 2.680583
v 1.265111 -2.61749 2.943271
v 1.172407 -2.279958 2.668445
v 0.09057687 -2.289753 2.924333
v 1.172407 -2.279958 2.668445
v 2.152467 -1.762804 2.908885
v 1.797569 -1.674855 2.668445
v 1.265111 -2.61749 2.943271
v 1.797569 -1.674855 2.668445
v 1.865285 -0.5803834 2.85556
v 1.593858 -0.8389006 2.680583
v 2.152467 -1.762804 2.908885
v 1.865285 -0.5803834 2.85556
v 0.7560375 -0.7069535 3.008979
v 0.690752 -0.2526549 2.836622
v 1.465492 -0.9051198 3.026691
v 0.690752 -0.2526549 2.836622
v 0.2188555 -1.221565 3.038328
v -0.1966006 -1.107339 2.871008
v 0.7560375 -0.7069535 3.008979
v -0.1966006 -1.107339 2.871008
v 0.3911317 -1.934349 3.085388
v 0.09057687 -2.289753 2.924333
v 0.2188555 -1.221565 3.038328
v 0.09057687 -2.289753 2.924333
v 1.100586 -2.132516 3.1031
v 1.265111 -2.61749 2.943271
v 0.3911317 -1.934349 3.085388
v 1.265111 -2.61749 2.943271
v 1.637768 -1.617904 3.073751
v 2.152467 -1.762804 2.908885
v 1.100586 -2.132516 3.1031
v 2.152467 -1.762804 2.908885
v 1.465492 -0.9051198 3.026691
v 1.865285 -0.5803834 2.85556
v 1.637768 -1.617904 3.073751
v 1.797569 -1.674855 2.668445
v 0.3435363 -2.049113 2.680583
v 1.172407 -2.279958 2.668445
v 1.593858 -0.8389006 2.680583
v 0.1398288 -1.213165 2.692721
v 0.7649875 -0.6080555 2.692721
v 1.465492 -0.9051198 3.026691
v 0.7222248 -0.4609243 3.190499
v 0.7560375 -0.7069535 3.008979
v 1.630515 -0.7077091 3.234729
v 0.7560375 -0.7069535 3.008979
v 0.02513871 -1.123944 3.231408
v 0.2188555 -1.221565 3.038328
v 0.7222248 -0.4609243 3.190499
v 0.2188555 -1.221565 3.038328
v 0.2363496 -2.033754 3.316547
v 0.3911317 -1.934349 3.085388
v 0.02513871 -1.123944 3.231408
v 0.3911317 -1.934349 3.085388
v 1.144639 -2.280539 3.360778
v 1.100586 -2.132516 3.1031
v 0.2363496 -2.033754 3.316547
v 1.100586 -2.132516 3.1031
v 1.841718 -1.617514 3.319869
v 1.637768 -1.617904 3.073751
v 1.144639 -2.280539 3.360778
v 1.637768 -1.617904 3.073751
v 1.630515 -0.7077091 3.234729
v 1.465492 -0.9051198 3.026691
v 1.841718 -1.617514 3.319869
v 0.7222248 -0.4609243 3.190499
v 1.38567 -0.8999415 3.391165
v 0.8617687 -0.75059 3.376069
v 1.630515 -0.7077091 3.234729
v 0.02513871 -1.123944 3.231408
v 0.8617687 -0.75059 3.376069
v 0.4636471 -1.123096 3.420955
v 0.7222248 -0.4609243 3.190499
v 0.2363496 -2.033754 3.316547
v 1.11334 -1.794315 3.496034
v 1.144639 -2.280539 3.360778
v 0.5894342 -1.644957 3.480938
v 1.144639 -2.280539 3.360778
v 1.511461 -1.421809 3.451147
v 1.841718 -1.617514 3.319869
v 1.11334 -1.794315 3.496034
v 1.630515 -0.7077091 3.234729
v 1.511461 -1.421809 3.451147
v 1.38567 -0.8999415 3.391165
v 1.841718 -1.617514 3.319869
v 1.38567 -0.8999415 3.391165
v 0.4636471 -1.123096 3.420955
v 0.8617687 -0.75059 3.376069
v 0.5894342 -1.644957 3.480938
v 1.511461 -1.421809 3.451147
v 1.11334 -1.794315 3.496034
v -1.851505 -1.80924 2.975711
v -1.422366 -0.8414595 3.086738
v -1.755926 -0.9686577 2.984348
v -1.558411 -2.032685 3.100213
v -1.755926 -0.9686577 2.984348
v -2.389833 -0.1124536 3.111205
v -2.440404 -0.4555179 2.984348
v -1.422366 -0.8414595 3.086738
v -2.440404 -0.4555179 2.984348
v -3.493342 -0.5746713 3.149147
v -3.220469 -0.7829564 2.975711
v -2.389833 -0.1124536 3.111205
v -3.220469 -0.7829564 2.975711
v -3.629387 -1.765897 3.162622
v -3.316049 -1.623539 2.967074
v -3.493342 -0.5746713 3.149147
v -3.316049 -1.623539 2.967074
v -2.66192 -2.494903 3.138155
v -2.631571 -2.136679 2.967074
v -3.629387 -1.765897 3.162622
v -2.631571 -2.136679 2.967074
v -1.558411 -2.032685 3.100213
v -1.851505 -1.80924 2.975711
v -2.66192 -2.494903 3.138155
v -1.558411 -2.032685 3.100213
v -1.853335 -0.9753046 3.209376
v -1.422366 -0.8414595 3.086738
v -1.935714 -1.694877 3.221978
v -1.422366 -0.8414595 3.086738
v -2.436308 -0.5335495 3.230258
v -2.389833 -0.1124536 3.111205
v -1.853335 -0.9753046 3.209376
v -2.389833 -0.1124536 3.111205
v -3.101653 -0.8113707 3.263743
v -3.493342 -0.5746713 3.149147
v -2.436308 -0.5335495 3.230258
v -3.493342 -0.5746713 3.149147
v -3.184029 -1.530941 3.276345
v -3.629387 -1.765897 3.162622
v -3.101653 -0.8113707 3.263743
v -3.629387 -1.765897 3.162622
v -2.60106 -1.972689 3.255463
v -2.66192 -2.494903 3.138155
v -3.184029 -1.530941 3.276345
v -2.66192 -2.494903 3.138155
v -1.935714 -1.694877 3.221978
v -1.558411 -2.032685 3.100213
v -2.60106 -1.972689 3.255463
v -2.631571 -2.136679 2.967074
v -3.220469 -0.7829564 2.975711
v -3.316049 -1.623539 2.967074
v -1.851505 -1.80924 2.975711
v -2.440404 -0.4555179 2.984348
v -1.755926 -0.9686577 2.984348
v -1.935714 -1.694877 3.221978
v -1.619703 -0.9043201 3.338532
v -1.853335 -0.9753046 3.209376
v -1.718446 -1.824481 3.370004
v -1.853335 -0.9753046 3.209376
v -2.371567 -0.3303261 3.36764
v -2.436308 -0.5335495 3.230258
v -1.619703 -0.9043201 3.338532
v -2.436308 -0.5335495 3.230258
v -3.222175 -0.6765011 3.42822
v -3.101653 -0.8113707 3.263743
v -2.371567 -0.3303261 3.36764
v -3.101653 -0.8113707 3.263743
v -3.320915 -1.596668 3.459691
v -3.184029 -1.530941 3.276345
v -3.222175 -0.6765011 3.42822
v -3.184029 -1.530941 3.276345
v -2.569054 -2.170656 3.430583
v -2.60106 -1.972689 3.255463
v -3.320915 -1.596668 3.459691
v -2.60106 -1.972689 3.255463
v -1.718446 -1.824481 3.370004
v -1.935714 -1.694877 3.221978
v -2.569054 -2.170656 3.430583
v -1.619703 -0.9043201 3.338532
v -1.943066 -1.616576 3.481313
v -1.879306 -1.084735 3.470572
v -1.718446 -1.824481 3.370004
v -2.371567 -0.3303261 3.36764
v -1.879306 -1.084735 3.470572
v -2.302735 -0.7559608 3.50251
v -1.619703 -0.9043201 3.338532
v -3.222175 -0.6765011 3.42822
v -2.302735 -0.7559608 3.50251
v -2.789922 -0.9590262 3.545189
v -2.371567 -0.3303261 3.36764
v -3.222175 -0.6765011 3.42822
v -2.853682 -1.490868 3.555931
v -3.320915 -1.596668 3.459691
v -2.789922 -0.9590262 3.545189
v -3.320915 -1.596668 3.459691
v -2.430252 -1.819642 3.523992
v -2.569054 -2.170656 3.430583
v -2.853682 -1.490868 3.555931
v -1.718446 -1.824481 3.370004
v -2.430252 -1.819642 3.523992
v -1.943066 -1.616576 3.481313
v -2.569054 -2.170656 3.430583
v -1.943066 -1.616576 3.481313
v -2.302735 -0.7559608 3.50251
v -1.879306 -1.084735 3.470572
v -2.789922 -0.9590262 3.545189
v -2.430252 -1.819642 3.523992
v -2.853682 -1.490868 3.555931
v 0.6152704 0.8528357 2.936418
v 0.9478758 1.602907 3.071658
v 0.6893549 1.504321 2.946939
v 0.8424348 0.6796522 3.088072
v 0.6893549 1.504321 2.946939
v 0.1980472 2.167916 3.101461
v 0.1588493 1.902031 2.946939
v 0.9478758 1.602907 3.071658
v 0.1588493 1.902031 2.946939
v -0.6572233 1.809679 3.147678
v -0.4457293 1.648245 2.936418
v 0.1980472 2.167916 3.101461
v -0.4457293 1.648245 2.936418
v -0.762661 0.8864264 3.164092
v -0.5198138 0.9967594 2.925898
v -0.6572233 1.809679 3.147678
v -0.5198138 0.9967594 2.925898
v -0.01283564 0.3214153 3.134289
v 0.01069175 0.5990495 2.925898
v -0.762661 0.8864264 3.164092
v 0.01069175 0.5990495 2.925898
v 0.8424348 0.6796522 3.088072
v 0.6152704 0.8528357 2.936418
v -0.01283564 0.3214153 3.134289
v 0.8424348 0.6796522 3.088072
v 0.6138535 1.499175 3.221041
v 0.9478758 1.602907 3.071658
v 0.5500091 0.9414687 3.236392
v 0.9478758 1.602907 3.071658
v 0.1620281 1.841546 3.246478
v 0.1980472 2.167916 3.101461
v 0.6138535 1.499175 3.221041
v 0.1980472 2.167916 3.101461
v -0.3536465 1.626226 3.287265
v -0.6572233 1.809679 3.147678
v 0.1620281 1.841546 3.246478
v -0.6572233 1.809679 3.147678
v -0.4174916 1.068529 3.302616
v -0.762661 0.8864264 3.164092
v -0.3536465 1.626226 3.287265
v -0.762661 0.8864264 3.164092
v 0.03433778 0.726151 3.277179
v -0.01283564 0.3214153 3.134289
v -0.4174916 1.068529 3.302616
v -0.01283564 0.3214153 3.134289
v 0.5500091 0.9414687 3.236392
v 0.8424348 0.6796522 3.088072
v 0.03433778 0.726151 3.277179
v 0.01069175 0.5990495 2.925898
v -0.4457293 1.648245 2.936418
v -0.5198138 0.9967594 2.925898
v 0.6152704 0.8528357 2.936418
v 0.1588493 1.902031 2.946939
v 0.6893549 1.504321 2.946939
v 0.03433778 0.726151 3.277179
v 0.6138535 1.499175 3.221041
v 0.5500091 0.9414687 3.236392
v 0.1620281 1.841546 3.246478
v -0.4174916 1.068529 3.302616
v -0.3536465 1.626226 3.287265

vn 0.1833496 -0.949707 0.2543945
vn 0.1833496 -0.949707 0.2543945
vn 0.1833496 -0.949707 0.2543945
vn 0.229248 -0.9492188 0.2163086
vn 0.229248 -0.9492188 0.2163086
vn 0.229248 -0.9492188 0.2163086
vn -0.5961914 0.8022461 0.02696228
vn -0.5961914 0.8022461 0.02696228
vn -0.5961914 0.8022461 0.02696228
vn -0.6303711 0.7739258 0.06201172
vn -0.6303711 0.7739258 0.06201172
vn -0.6303711 0.7739258 0.06201172
vn 0.3520508 -0.6748047 0.6489258
vn 0.3520508 -0.6748047 0.6489258
vn 0.3520508 -0.6748047 0.6489258
vn 0.1485596 0.7075195 -0.690918
vn 0.1485596 0.7075195 -0.690918
vn 0.1485596 0.7075195 -0.690918
vn -0.684082 0.6992188 -0.2067871
vn -0.684082 0.6992188 -0.2067871
vn -0.684082 0.6992188 -0.2067871
vn -0.7851563 0.007423401 0.6196289
vn -0.7851563 0.007423401 0.6196289
vn -0.7851563 0.007423401 0.6196289
vn 0.2467041 0.8666992 0.4335938
vn 0.2467041 0.8666992 0.4335938
vn 0.2467041 0.8666992 0.4335938
vn 0.3847656 0.7241211 -0.5722656
vn 0.3847656 0.7241211 -0.5722656
vn 0.3847656 0.7241211 -0.5722656
vn -0.3828125 -0.9238281 0.01634216
vn -0.3828125 -0.9238281 0.01634216
vn -0.3828125 -0.9238281 0.01634216
vn -0.3850098 -0.9179688 0.09527588
vn -0.3850098 -0.9179688 0.09527588
vn -0.3850098 -0.9179688 0.09527588
vn -0.28125 0.1210327 0.9521484
vn -0.28125 0.1210327 0.9521484
vn -0.28125 0.1210327 0.9521484
vn 0.0491333 -0.0480957 -0.9975586
vn 0.0491333 -0.0480957 -0.9975586
vn 0.0491333 -0.0480957 -0.9975586
vn -0.5683594 -0.8227539 -0.008590698
vn -0.5683594 -0.8227539 -0.008590698
vn -0.5683594 -0.8227539 -0.008590698
vn 0.185791 -0.9628906 -0.1966553
vn 0.185791 -0.9628906 -0.1966553
vn 0.185791 -0.9628906 -0.1966553
vn 0.1467285 -0.9628906 -0.2255859
vn 0.1467285 -0.9628906 -0.2255859
vn 0.1467285 -0.9628906 -0.2255859
vn 0.6162109 -0.6342773 -0.4672852
vn 0.6162109 -0.6342773 -0.4672852
vn 0.6162109 -0.6342773 -0.4672852
vn -0.4313965 0.1107788 -0.8955078
vn -0.4313965 0.1107788 -0.8955078
vn -0.4313965 0.1107788 -0.8955078
vn -0.7055664 0.7075195 -0.03845215
vn -0.7055664 0.7075195 -0.03845215
vn -0.7055664 0.7075195 -0.03845215
vn -0.192749 0.6362305 0.7470703
vn -0.192749 0.6362305 0.7470703
vn -0.192749 0.6362305 0.7470703
vn -0.3486328 0.9121094 -0.2166748
vn -0.3444824 0.9145508 -0.2121582
vn -0.357666 0.9057617 -0.2272949
vn -0.3444824 0.9145508 -0.2121582
vn -0.3486328 0.9121094 -0.2166748
vn -0.3391113 0.9179688 -0.2059326
vn 0.8803711 0.4733887 0.03323364
vn 0.8803711 0.4733887 0.03323364
vn 0.8803711 0.4733887 0.03323364
vn 0.8769531 0.4760742 0.06774902
vn 0.4970703 0.3642578 -0.7875977
vn 0.4970703 0.3642578 -0.7875977
vn 0.4970703 0.3642578 -0.7875977
vn 0.4958496 0.3640137 -0.7885742
vn -0.4748535 -0.09185791 -0.875
vn -0.4748535 -0.09185791 -0.875
vn -0.4748535 -0.09185791 -0.875
vn -0.4650879 -0.08898926 -0.8808594
vn -0.9165039 -0.3959961 -0.0602417
vn -0.9165039 -0.3959961 -0.0602417
vn -0.9165039 -0.3959961 -0.0602417
vn -0.918457 -0.3937988 -0.03469849
vn -0.5112305 -0.2780762 0.8129883
vn -0.5112305 -0.2780762 0.8129883
vn -0.5112305 -0.2780762 0.8129883
vn -0.5083008 -0.2775879 0.8154297
vn 0.4575195 0.2000732 0.8662109
vn 0.4575195 0.2000732 0.8662109
vn 0.4575195 0.2000732 0.8662109
vn 0.4624023 0.201416 0.8632813
vn 0.9970703 0.07171631 0.02670288
vn 0.9970703 0.07171631 0.02670288
vn 0.9970703 0.07171631 0.02670288
vn 0.9970703 0.07189941 0.02812195
vn 0.5336914 0.05319214 -0.84375
vn 0.5336914 0.05319214 -0.84375
vn 0.5336914 0.05319214 -0.84375
vn 0.5170898 0.05505371 -0.8540039
vn -0.4729004 0.002576828 -0.8813477
vn -0.4729004 0.002576828 -0.8813477
vn -0.480957 0.003372192 -0.8769531
vn -0.4729004 0.002576828 -0.8813477
vn -0.4697266 0.03469849 -0.8818359
vn -0.4697266 0.03469849 -0.8818359
vn -0.9990234 -0.02787781 -0.02842712
vn -0.9990234 -0.02787781 -0.02842712
vn -0.9990234 -0.02787781 -0.02842712
vn -0.9995117 -0.02728271 -0.02352905
vn -0.5307617 -0.009941101 0.8476563
vn -0.5307617 -0.009941101 0.8476563
vn -0.5307617 -0.009941101 0.8476563
vn -0.515625 -0.01150513 0.8564453
vn 0.4775391 0.03781128 0.8779297
vn 0.4775391 0.03781128 0.8779297
vn 0.4790039 0.03768921 0.8769531
vn 0.4775391 0.03781128 0.8779297
vn 0.4731445 0.005664825 0.8808594
vn 0.4731445 0.005664825 0.8808594
vn 0.953125 -0.3024902 0.01589966
vn 0.953125 -0.3024902 0.01589966
vn 0.953125 -0.3024902 0.01589966
vn 0.9541016 -0.2966309 0.03936768
vn 0.4824219 -0.2800293 -0.8300781
vn 0.4709473 -0.2758789 -0.8378906
vn 0.4699707 -0.2753906 -0.8383789
vn 0.4831543 -0.2802734 -0.8295898
vn -0.9418945 0.3361816 -0.01245117
vn -0.9418945 0.3361816 -0.01245117
vn -0.9418945 0.3361816 -0.01245117
vn -0.9414063 0.3347168 -0.04040527
vn -0.4587402 0.314209 0.8310547
vn -0.472168 0.3190918 0.8217773
vn -0.4577637 0.3137207 0.8320313
vn -0.4731445 0.3193359 0.8212891
vn 0.9052734 0.06750488 -0.4191895
vn 0.9052734 0.06750488 -0.4191895
vn 0.9013672 0.09674072 -0.421875
vn 0.9052734 0.06750488 -0.4191895
vn 0.9121094 0.07299805 -0.4030762
vn 0.3059082 0.862793 -0.4023438
vn 0.3059082 0.862793 -0.4023438
vn 0.3059082 0.862793 -0.4023438
vn 0.2792969 0.8774414 -0.3894043
vn -0.8896484 -0.05575562 0.453125
vn -0.8896484 -0.05575562 0.453125
vn -0.8896484 -0.05575562 0.453125
vn -0.8852539 -0.08862305 0.4562988
vn -0.1629639 0.08410645 0.9829102
vn -0.1629639 0.08410645 0.9829102
vn -0.1629639 0.08410645 0.9829102
vn -0.1555176 0.1072388 0.9819336
vn 0.2348633 0.8476563 0.4760742
vn 0.2348633 0.8476563 0.4760742
vn 0.2348633 0.8476563 0.4760742
vn 0.2514648 0.8417969 0.4777832
vn 0.3950195 0.7646484 -0.5087891
vn 0.3950195 0.7646484 -0.5087891
vn 0.3950195 0.7646484 -0.5087891
vn 0.418457 0.7553711 -0.5043945
vn 0.1467285 -0.07904053 -0.9858398
vn 0.1467285 -0.07904053 -0.9858398
vn 0.1467285 -0.07904053 -0.9858398
vn 0.1386719 -0.1036987 -0.9848633
vn -0.6464844 0.03173828 -0.762207
vn -0.6464844 0.03173828 -0.762207
vn -0.6464844 0.03173828 -0.762207
vn -0.6489258 0.07208252 -0.7573242
vn -0.4660645 0.8554688 -0.225708
vn -0.4660645 0.8554688 -0.225708
vn -0.4660645 0.8554688 -0.225708
vn -0.4428711 0.8740234 -0.199707
vn 0.1968994 0.8256836 0.5288086
vn 0.1968994 0.8256836 0.5288086
vn 0.1968994 0.8256836 0.5288086
vn 0.2268066 0.8056641 0.546875
vn 0.6762695 -0.01916504 0.7363281
vn 0.6762695 -0.01916504 0.7363281
vn 0.6791992 -0.06317139 0.7314453
vn 0.6762695 -0.01916504 0.7363281
vn 0.6450195 -0.03231812 0.7631836
vn 0.5263672 -0.8500977 0.008964539
vn 0.489502 -0.8720703 -0.007450104
vn 0.4665527 -0.8842773 -0.01728821
vn 0.5385742 -0.8422852 0.01450348
vn 0.2658691 -0.8442383 -0.4650879
vn 0.2983398 -0.8198242 -0.4882813
vn 0.3139648 -0.8076172 -0.4995117
vn 0.2568359 -0.8505859 -0.4584961
vn -0.293457 -0.7880859 -0.5410156
vn -0.2912598 -0.7451172 -0.6000977
vn -0.2890625 -0.715332 -0.6362305
vn -0.2937012 -0.8046875 -0.5161133
vn -0.7114258 -0.7026367 0.01072693
vn -0.7294922 -0.684082 -0.0007410049
vn -0.7421875 -0.6704102 -0.00894928
vn -0.7026367 -0.7114258 0.01605225
vn -0.4086914 -0.6757813 0.6137695
vn -0.3881836 -0.6972656 0.6025391
vn -0.3735352 -0.7124023 0.5942383
vn -0.4162598 -0.6669922 0.6176758
vn 0.2440186 -0.7734375 0.5849609
vn 0.2443848 -0.8149414 0.5258789
vn 0.2437744 -0.8442383 0.4775391
vn 0.2435303 -0.7553711 0.6083984
vn 0.4467773 0.8945313 -0.02400208
vn 0.4406738 0.8974609 -0.02090454
vn 0.4365234 0.8994141 -0.01881409
vn 0.454834 0.8901367 -0.02798462
vn 0.2944336 0.8691406 -0.3974609
vn 0.2961426 0.8618164 -0.411377
vn 0.296875 0.8588867 -0.4169922
vn 0.2927246 0.875 -0.3852539
vn -0.1407471 0.8862305 -0.4418945
vn -0.1571045 0.8774414 -0.4533691
vn -0.1652832 0.8730469 -0.4589844
vn -0.1251221 0.8935547 -0.4306641
vn -0.4111328 0.9111328 -0.02201843
vn -0.4174805 0.9086914 -0.01838684
vn -0.4213867 0.9067383 -0.01612854
vn -0.4035645 0.9145508 -0.02613831
vn -0.1881104 0.9111328 0.3664551
vn -0.1873779 0.9150391 0.3571777
vn -0.1868896 0.9169922 0.3520508
vn -0.1889648 0.9072266 0.3757324
vn 0.2293701 0.9130859 0.3366699
vn 0.2177734 0.9189453 0.3286133
vn 0.2089844 0.9233398 0.3225098
vn 0.2443848 0.9052734 0.347168
vn 0.01105499 -1 -0.01757813
vn 0.01105499 -1 -0.01757813
vn 0.01105499 -1 -0.01757813
vn 0.01105499 -1 -0.01757813
vn 0.01105499 -1 -0.01757813
vn 0.01105499 -1 -0.01757813
vn 0.7148438 -0.6982422 0.03033447
vn 0.7021484 -0.7114258 0.02349854
vn 0.6948242 -0.7192383 0.01942444
vn 0.7202148 -0.6933594 0.03305054
vn 0.3840332 -0.6455078 -0.6601563
vn 0.3840332 -0.6455078 -0.6601563
vn 0.3840332 -0.6455078 -0.6601563
vn 0.3845215 -0.6450195 -0.6601563
vn -0.4030762 -0.5556641 -0.7270508
vn -0.4006348 -0.5444336 -0.7368164
vn -0.3991699 -0.5380859 -0.7421875
vn -0.4040527 -0.5600586 -0.7231445
vn -0.9052734 -0.423584 0.03041077
vn -0.9150391 -0.4033203 0.02023315
vn -0.9199219 -0.3916016 0.01448059
vn -0.9013672 -0.4318848 0.0345459
vn -0.5112305 -0.3933105 0.7641602
vn -0.5083008 -0.3991699 0.7631836
vn -0.5068359 -0.4025879 0.762207
vn -0.5126953 -0.3911133 0.7641602
vn 0.2893066 -0.5737305 0.7661133
vn 0.2905273 -0.5996094 0.7456055
vn 0.2912598 -0.6181641 0.7304688
vn 0.2883301 -0.5615234 0.7753906
vn 0.6499023 0.7592773 -0.03543091
vn 0.6318359 0.7734375 -0.04644775
vn 0.668457 0.7436523 -0.02394104
vn 0.6225586 0.7807617 -0.05206299
vn 0.3967285 0.7641602 -0.5083008
vn 0.373291 0.7851563 -0.4943848
vn 0.4274902 0.7348633 -0.5263672
vn 0.357666 0.7983398 -0.4846191
vn -0.09863281 0.8764648 -0.4709473
vn -0.09924316 0.8793945 -0.4655762
vn -0.09686279 0.8681641 -0.4870605
vn -0.1002808 0.8842773 -0.4558105
vn -0.357666 0.9331055 -0.04232788
vn -0.3532715 0.9345703 -0.04544067
vn -0.3449707 0.9370117 -0.0512085
vn -0.3710938 0.9282227 -0.03292847
vn -0.1833496 0.8950195 0.4069824
vn -0.1796875 0.9072266 0.3808594
vn -0.1768799 0.9155273 0.361084
vn -0.1883545 0.8754883 0.4445801
vn 0.3208008 0.8442383 0.4289551
vn 0.3181152 0.8344727 0.4499512
vn 0.3234863 0.8544922 0.4067383
vn 0.3166504 0.8291016 0.4609375
vn 0.1713867 0.9853516 -0.01109314
vn 0.1713867 0.9853516 -0.01109314
vn 0.1713867 0.9853516 -0.01109314
vn 0.1713867 0.9853516 -0.01109314
vn 0.1713867 0.9853516 -0.01109314
vn 0.1713867 0.9853516 -0.01109314
vn 0.5224609 0.8525391 -0.01102448
vn 0.5219727 0.8530273 -0.01155853
vn 0.5263672 0.8500977 -0.007343292
vn 0.5200195 0.8540039 -0.01348114
vn 0.3603516 0.8686523 -0.3395996
vn 0.3581543 0.8701172 -0.3388672
vn 0.3708496 0.862793 -0.3439941
vn 0.3530273 0.8730469 -0.3366699
vn 0.0066185 0.9428711 -0.3334961
vn 0.006587982 0.9428711 -0.333252
vn 0.007987976 0.9404297 -0.3400879
vn 0.005859375 0.9438477 -0.329834
vn -0.1877441 0.9819336 -0.01750183
vn -0.1878662 0.9819336 -0.01742554
vn -0.1931152 0.980957 -0.01319122
vn -0.1849365 0.9824219 -0.01979065
vn -0.04684448 0.9541016 0.2963867
vn -0.04681396 0.953125 0.2983398
vn -0.04660034 0.949707 0.3098145
vn -0.04693604 0.9555664 0.2907715
vn 0.3056641 0.8979492 0.315918
vn 0.3061523 0.8979492 0.3161621
vn 0.3110352 0.8955078 0.3186035
vn 0.3032227 0.8994141 0.3146973
vn 0.7006836 -0.7128906 0.01907349
vn 0.6894531 -0.7241211 0.02449036
vn 0.7045898 -0.7094727 0.01741028
vn 0.684082 -0.7290039 0.02687073
vn 0.4057617 -0.5400391 -0.7373047
vn 0.4020996 -0.5615234 -0.7231445
vn 0.4067383 -0.5341797 -0.7412109
vn 0.4006348 -0.5708008 -0.7167969
vn -0.4484863 -0.2668457 -0.8530273
vn -0.4462891 -0.2751465 -0.8515625
vn -0.4492188 -0.2644043 -0.8535156
vn -0.4453125 -0.2788086 -0.8510742
vn -0.9936523 -0.1140137 0.0003428459
vn -0.9946289 -0.1054688 -0.002626419
vn -0.9946289 -0.1030884 -0.003463745
vn -0.9931641 -0.1174316 0.001537323
vn -0.5473633 -0.2939453 0.7836914
vn -0.5556641 -0.2663574 0.7875977
vn -0.5576172 -0.2592773 0.7885742
vn -0.5439453 -0.3054199 0.7817383
vn 0.2578125 -0.6103516 0.7490234
vn 0.2592773 -0.5957031 0.7602539
vn 0.2597656 -0.5913086 0.7631836
vn 0.2570801 -0.6166992 0.7441406
vn 0.3469238 -0.8876953 -0.3024902
vn 0.3098145 -0.90625 -0.2880859
vn 0.2888184 -0.9155273 -0.2800293
vn 0.3579102 -0.8818359 -0.3066406
vn -0.1119385 -0.8945313 -0.4328613
vn -0.105957 -0.8764648 -0.4694824
vn -0.1028442 -0.8666992 -0.487793
vn -0.1135864 -0.8994141 -0.4223633
vn -0.5249023 -0.8383789 -0.1452637
vn -0.5712891 -0.7993164 -0.1876221
vn -0.5947266 -0.7758789 -0.2102051
vn -0.5092773 -0.8505859 -0.1312256
vn -0.4709473 -0.765625 0.4384766
vn -0.4946289 -0.746582 0.4448242
vn -0.5087891 -0.734375 0.4487305
vn -0.4621582 -0.7724609 0.435791
vn 0.116272 -0.7583008 0.6416016
vn 0.1224365 -0.777832 0.6166992
vn 0.1264648 -0.7900391 0.5996094
vn 0.1140137 -0.7509766 0.6503906
vn 0.5268555 -0.8251953 0.2050781
vn 0.4799805 -0.8618164 0.1638184
vn 0.4482422 -0.8833008 0.1365967
vn 0.5419922 -0.8115234 0.2189941
vn 0.2712402 0.9233398 -0.2719727
vn 0.2687988 0.9257813 -0.265625
vn 0.267334 0.9272461 -0.262207
vn 0.2741699 0.9204102 -0.2788086
vn -0.05123901 0.9125977 -0.4057617
vn -0.0585022 0.9077148 -0.4157715
vn -0.06167603 0.9052734 -0.420166
vn -0.04455566 0.9169922 -0.3967285
vn -0.355957 0.9179688 -0.1741943
vn -0.3752441 0.9111328 -0.1715088
vn -0.3835449 0.9077148 -0.1704102
vn -0.3388672 0.9243164 -0.1763916
vn -0.2741699 0.9355469 0.2226563
vn -0.2766113 0.9331055 0.229248
vn -0.277832 0.9321289 0.2327881
vn -0.2717285 0.9379883 0.2161865
vn 0.09954834 0.9423828 0.3200684
vn 0.09466553 0.9448242 0.314209
vn 0.09161377 0.9462891 0.3105469
vn 0.1049194 0.9394531 0.326416
vn 0.3464355 0.9360352 0.06137085
vn 0.3327637 0.940918 0.06341553
vn 0.3237305 0.9438477 0.0647583
vn 0.3625488 0.9301758 0.05886841
vn -0.003372192 -1 -0.01599121
vn -0.003372192 -1 -0.01599121
vn -0.003372192 -1 -0.01599121
vn -0.003372192 -1 -0.01599121
vn -0.003372192 -1 -0.01599121
vn -0.003372192 -1 -0.01599121
vn 0.5009766 -0.7587891 -0.4160156
vn 0.4855957 -0.7714844 -0.4108887
vn 0.4775391 -0.777832 -0.4082031
vn 0.5058594 -0.7543945 -0.4177246
vn -0.1651611 -0.7314453 -0.6616211
vn -0.1652832 -0.7319336 -0.6611328
vn -0.1652832 -0.7319336 -0.6611328
vn -0.1651611 -0.7314453 -0.6616211
vn -0.7539063 -0.625 -0.2023926
vn -0.7617188 -0.6123047 -0.2120361
vn -0.7646484 -0.6069336 -0.2159424
vn -0.7519531 -0.628418 -0.199707
vn -0.6264648 -0.4916992 0.6044922
vn -0.6445313 -0.4663086 0.605957
vn -0.6518555 -0.4550781 0.6064453
vn -0.621582 -0.4990234 0.6040039
vn 0.154541 -0.4772949 0.8647461
vn 0.1560059 -0.484375 0.8608398
vn 0.1567383 -0.487793 0.8588867
vn 0.1540527 -0.4753418 0.8662109
vn 0.7036133 -0.644043 0.3005371
vn 0.6845703 -0.671875 0.2832031
vn 0.6728516 -0.6879883 0.2727051
vn 0.7099609 -0.6337891 0.3068848
vn 0.4101563 0.8139648 -0.4108887
vn 0.3881836 0.8276367 -0.4047852
vn 0.4306641 0.8007813 -0.4165039
vn 0.3789063 0.8334961 -0.4020996
vn -0.05435181 0.8330078 -0.5507813
vn -0.06069946 0.8491211 -0.5244141
vn -0.04544067 0.809082 -0.5864258
vn -0.06488037 0.8598633 -0.5068359
vn -0.2509766 0.9511719 0.1801758
vn -0.2496338 0.9526367 0.1748047
vn -0.2476807 0.9541016 0.1671143
vn -0.2541504 0.9477539 0.1929932
vn 0.1275635 0.9306641 0.3425293
vn 0.1144409 0.9389648 0.324707
vn 0.1035156 0.9448242 0.3100586
vn 0.1484375 0.9169922 0.3701172
vn 0.4667969 0.8823242 0.06201172
vn 0.4804688 0.8735352 0.07751465
vn 0.4545898 0.8896484 0.04818726
vn 0.4863281 0.8696289 0.08447266
vn 0.06488037 0.9931641 -0.09527588
vn 0.06488037 0.9931641 -0.09527588
vn 0.06488037 0.9931641 -0.09527588
vn 0.06488037 0.9931641 -0.09527588
vn 0.06488037 0.9931641 -0.09527588
vn 0.06488037 0.9931641 -0.09527588
vn 0.2700195 -0.9360352 0.2255859
vn 0.2519531 -0.9477539 0.1966553
vn 0.2425537 -0.953125 0.1815186
vn 0.2749023 -0.9326172 0.2335205
vn 0.3112793 -0.9404297 -0.1359863
vn 0.3435059 -0.9291992 -0.137085
vn 0.3586426 -0.9233398 -0.1375732
vn 0.3029785 -0.9433594 -0.1357422
vn 0.04666138 -0.9057617 -0.4216309
vn 0.07659912 -0.8774414 -0.4736328
vn 0.09143066 -0.8618164 -0.4990234
vn 0.03823853 -0.9125977 -0.4067383
vn -0.4091797 -0.8549805 -0.3188477
vn -0.421875 -0.8398438 -0.3415527
vn -0.4287109 -0.831543 -0.3537598
vn -0.4052734 -0.859375 -0.3120117
vn -0.4995117 -0.8486328 0.1750488
vn -0.4726563 -0.8637695 0.1751709
vn -0.4570313 -0.8720703 0.1751709
vn -0.5073242 -0.84375 0.1749268
vn -0.0947876 -0.8950195 0.4355469
vn -0.06591797 -0.9204102 0.3850098
vn -0.04907227 -0.9335938 0.3549805
vn -0.1033936 -0.8867188 0.4504395
vn 0.2337646 0.9575195 0.1689453
vn 0.2283936 0.9589844 0.1674805
vn 0.2255859 0.9599609 0.166748
vn 0.2393799 0.9560547 0.1704102
vn 0.2961426 0.9511719 -0.08636475
vn 0.3037109 0.9482422 -0.09344482
vn 0.3066406 0.9467773 -0.09625244
vn 0.2895508 0.9536133 -0.0802002
vn 0.08728027 0.9545898 -0.284668
vn 0.08312988 0.9501953 -0.3005371
vn 0.08148193 0.9482422 -0.3066406
vn 0.09057617 0.9580078 -0.2719727
vn -0.1962891 0.9648438 -0.1757813
vn -0.2017822 0.9633789 -0.177002
vn -0.2045898 0.9624023 -0.1776123
vn -0.1911621 0.9658203 -0.1745605
vn -0.2233887 0.9682617 0.1107178
vn -0.2192383 0.9697266 0.1062012
vn -0.2169189 0.9707031 0.1035156
vn -0.2277832 0.9667969 0.1154785
vn -0.00440979 0.9648438 0.2624512
vn -0.007583618 0.9677734 0.2519531
vn -0.009590149 0.9692383 0.2452393
vn -0.0007033348 0.9614258 0.2746582
vn 0.01104736 -1 -0.004234314
vn 0.01104736 -1 -0.004234314
vn 0.01104736 -1 -0.004234314
vn 0.01104736 -1 -0.004234314
vn 0.01104736 -1 -0.004238129
vn 0.01104736 -1 -0.004238129
vn 0.3972168 -0.8491211 0.3481445
vn 0.3881836 -0.8588867 0.3334961
vn 0.3842773 -0.8632813 0.3269043
vn 0.3996582 -0.8461914 0.3520508
vn 0.5141602 -0.8291016 -0.2193604
vn 0.5141602 -0.8291016 -0.2193604
vn 0.5136719 -0.8291016 -0.2193604
vn 0.5141602 -0.8291016 -0.2193604
vn 0.06915283 -0.7421875 -0.6665039
vn 0.07745361 -0.7299805 -0.6791992
vn 0.08013916 -0.7260742 -0.6831055
vn 0.06738281 -0.7446289 -0.6640625
vn -0.6293945 -0.6166992 -0.4726563
vn -0.6401367 -0.5869141 -0.4953613
vn -0.6435547 -0.5771484 -0.5029297
vn -0.6269531 -0.6225586 -0.4680176
vn -0.7553711 -0.6000977 0.2631836
vn -0.7490234 -0.6079102 0.2631836
vn -0.746582 -0.6113281 0.2631836
vn -0.7568359 -0.5981445 0.2629395
vn -0.1591797 -0.7568359 0.6337891
vn -0.1439209 -0.7827148 0.6054688
vn -0.1363525 -0.7949219 0.5913086
vn -0.1635742 -0.7495117 0.6416016
vn 0.3720703 0.8881836 0.2695313
vn 0.3615723 0.8979492 0.2502441
vn 0.3808594 0.8793945 0.2856445
vn 0.357666 0.9013672 0.2432861
vn 0.4199219 0.9008789 -0.1099854
vn 0.3937988 0.9125977 -0.1109009
vn 0.4526367 0.8847656 -0.1087646
vn 0.3789063 0.918457 -0.1113281
vn 0.1200562 0.9506836 -0.2856445
vn 0.1167603 0.9526367 -0.2814941
vn 0.1270752 0.9472656 -0.2944336
vn 0.112793 0.9545898 -0.2763672
vn -0.1612549 0.9736328 -0.1624756
vn -0.1567383 0.9741211 -0.1619873
vn -0.1508789 0.9750977 -0.161377
vn -0.1710205 0.9716797 -0.1635742
vn -0.2380371 0.9619141 0.1347656
vn -0.2252197 0.9667969 0.1221313
vn -0.215332 0.9702148 0.1123047
vn -0.2575684 0.9541016 0.1542969
vn 0.009780884 0.9331055 0.3598633
vn -0.0008473396 0.9272461 0.3742676
vn 0.01838684 0.9375 0.3481445
vn -0.005157471 0.9248047 0.3798828
vn 0.07574463 0.996582 0.03561401
vn 0.07574463 0.996582 0.03561401
vn 0.07574463 0.996582 0.03561401
vn 0.07574463 0.996582 0.03561401
vn 0.07574463 0.996582 0.03561401
vn 0.07574463 0.996582 0.03561401
vn 0.3898926 -0.8618164 0.3251953
vn 0.369873 -0.8828125 0.2890625
vn 0.357666 -0.8945313 0.2678223
vn 0.3959961 -0.8544922 0.3361816
vn 0.4533691 -0.8691406 -0.1976318
vn 0.4914551 -0.8486328 -0.1966553
vn 0.5112305 -0.8369141 -0.1959229
vn 0.4416504 -0.875 -0.197876
vn 0.06671143 -0.8037109 -0.5913086
vn 0.1022339 -0.7607422 -0.6411133
vn 0.1224365 -0.7338867 -0.6679688
vn 0.05386353 -0.8178711 -0.5727539
vn -0.5449219 -0.722168 -0.4257813
vn -0.5532227 -0.7026367 -0.4470215
vn -0.5585938 -0.6894531 -0.4609375
vn -0.5415039 -0.7304688 -0.416748
vn -0.6591797 -0.715332 0.2316895
vn -0.6352539 -0.7358398 0.2347412
vn -0.6176758 -0.75 0.2368164
vn -0.668457 -0.7070313 0.2304688
vn -0.1292725 -0.7895508 0.5996094
vn -0.0947876 -0.8305664 0.5488281
vn -0.07073975 -0.855957 0.5117188
vn -0.1417236 -0.7734375 0.6176758
vn 0.3466797 0.9038086 0.2504883
vn 0.3395996 0.9067383 0.2490234
vn 0.3356934 0.9086914 0.2480469
vn 0.3544922 0.9003906 0.2524414
vn 0.4360352 0.890625 -0.1273193
vn 0.4450684 0.8852539 -0.1367188
vn 0.4489746 0.8823242 -0.1409912
vn 0.4277344 0.8959961 -0.1184692
vn 0.1287842 0.8974609 -0.4216309
vn 0.1224365 0.8891602 -0.4411621
vn 0.1195068 0.8852539 -0.4499512
vn 0.1345215 0.9047852 -0.4035645
vn -0.2939453 0.9189453 -0.2631836
vn -0.3012695 0.9160156 -0.2644043
vn -0.3054199 0.9145508 -0.2651367
vn -0.2866211 0.9213867 -0.2617188
vn -0.3359375 0.9272461 0.1663818
vn -0.3305664 0.9301758 0.1601563
vn -0.3271484 0.9321289 0.15625
vn -0.342041 0.9233398 0.1733398
vn -0.006710052 0.9194336 0.3928223
vn -0.01126099 0.925293 0.3791504
vn -0.01444244 0.9291992 0.3693848
vn -0.001048088 0.9121094 0.409668
vn 0.0173645 -1 -0.006656647
vn 0.0173645 -1 -0.006656647
vn 0.0173645 -1 -0.006656647
vn 0.0173645 -1 -0.006656647
vn 0.0173645 -1 -0.006656647
vn 0.0173645 -1 -0.006656647
vn 0.07025146 0.9970703 0.02131653
vn 0.07025146 0.9970703 0.02131653
vn 0.07025146 0.9970703 0.02131653
vn 0.07025146 0.9970703 0.02131653
vn 0.07025146 0.9970703 0.02131653
vn 0.07025146 0.9970703 0.02131653

vt 0.8266602 0.4970703
vt 0.7890625 0.4775391
vt 0.8217773 0.4960938
vt 0.7890625 0.4775391
vt 0.8266602 0.4970703
vt 0.7924805 0.4780273
vt 0.7875977 0.4870605
vt 0.8217773 0.5083008
vt 0.8198242 0.5039063
vt 0.8217773 0.5083008
vt 0.7875977 0.4870605
vt 0.7885742 0.4924316
vt 0.8217773 0.4960938
vt 0.8486328 0.5424805
vt 0.8266602 0.4970703
vt 0.8251953 0.5048828
vt 0.8486328 0.5424805
vt 0.8217773 0.5083008
vt 0.8217773 0.5083008
vt 0.8486328 0.5424805
vt 0.8198242 0.5039063
vt 0.8198242 0.5039063
vt 0.8486328 0.5424805
vt 0.8217773 0.4960938
vt 0.7275391 0.5292969
vt 0.784668 0.4968262
vt 0.7871094 0.4931641
vt 0.7265625 0.5317383
vt 0.78125 0.4924316
vt 0.784668 0.4968262
vt 0.7265625 0.5224609
vt 0.7802734 0.4846191
vt 0.7231445 0.5219727
vt 0.7802734 0.4846191
vt 0.7265625 0.5224609
vt 0.7866211 0.4851074
vt 0.7265625 0.5224609
vt 0.699707 0.5498047
vt 0.7275391 0.5292969
vt 0.7241211 0.5283203
vt 0.699707 0.5498047
vt 0.7231445 0.5219727
vt 0.7231445 0.5219727
vt 0.699707 0.5498047
vt 0.7265625 0.5224609
vt 0.7954102 0.4970703
vt 0.7919922 0.4775391
vt 0.8041992 0.4960938
vt 0.7919922 0.4775391
vt 0.7954102 0.4970703
vt 0.7807617 0.4780273
vt 0.8041992 0.4960938
vt 0.8134766 0.5463867
vt 0.7954102 0.4970703
vt 0.7954102 0.4970703
vt 0.8134766 0.5463867
vt 0.7954102 0.5048828
vt 0.7954102 0.5048828
vt 0.8134766 0.5463867
vt 0.7993164 0.5083008
vt 0.7993164 0.5083008
vt 0.8134766 0.5463867
vt 0.8041992 0.5039063
vt 0.1964111 0.5068359
vt 0.2272949 0.5209961
vt 0.2443848 0.5292969
vt 0.2272949 0.5209961
vt 0.1964111 0.5068359
vt 0.1676025 0.4951172
vt 0.8217773 0.357666
vt 0.7924805 0.4421387
vt 0.8149414 0.357666
vt 0.7978516 0.4404297
vt 0.8007813 0.357666
vt 0.7924805 0.4421387
vt 0.7822266 0.4428711
vt 0.8149414 0.357666
vt 0.7939453 0.357666
vt 0.7822266 0.4428711
vt 0.7768555 0.4421387
vt 0.8007813 0.357666
vt 0.8007813 0.357666
vt 0.7768555 0.4421387
vt 0.7822266 0.4404297
vt 0.7939453 0.357666
vt 0.8007813 0.357666
vt 0.7929688 0.4396973
vt 0.8149414 0.357666
vt 0.7822266 0.4404297
vt 0.8149414 0.357666
vt 0.7978516 0.4404297
vt 0.8217773 0.357666
vt 0.7929688 0.4396973
vt 0.7890625 0.5507813
vt 0.7978516 0.4404297
vt 0.793457 0.5512695
vt 0.7924805 0.4421387
vt 0.7822266 0.4428711
vt 0.7890625 0.5507813
vt 0.7802734 0.5522461
vt 0.7924805 0.4421387
vt 0.7802734 0.5522461
vt 0.7768555 0.4421387
vt 0.7822266 0.4428711
vt 0.7758789 0.5537109
vt 0.7958984 0.6645508
vt 0.7924805 0.6655273
vt 0.7822266 0.4404297
vt 0.7758789 0.5537109
vt 0.7802734 0.5541992
vt 0.7768555 0.4421387
vt 0.7890625 0.5532227
vt 0.7822266 0.4404297
vt 0.7802734 0.5541992
vt 0.7929688 0.4396973
vt 0.7929688 0.4396973
vt 0.793457 0.5512695
vt 0.7978516 0.4404297
vt 0.7890625 0.5532227
vt 0.8066406 0.6621094
vt 0.8032227 0.6630859
vt 0.8032227 0.6630859
vt 0.793457 0.5512695
vt 0.8066406 0.6621094
vt 0.7890625 0.5507813
vt 0.7802734 0.5522461
vt 0.8032227 0.6630859
vt 0.7958984 0.6645508
vt 0.7890625 0.5507813
vt 0.7958984 0.6645508
vt 0.7758789 0.5537109
vt 0.7924805 0.6655273
vt 0.7802734 0.5541992
vt 0.8032227 0.6630859
vt 0.7802734 0.5541992
vt 0.7958984 0.6645508
vt 0.7890625 0.5532227
vt 0.8266602 0.4970703
vt 0.7910156 0.487793
vt 0.7924805 0.4780273
vt 0.8251953 0.5048828
vt 0.8486328 0.5424805
vt 0.7885742 0.4924316
vt 0.8251953 0.5048828
vt 0.8217773 0.5083008
vt 0.7910156 0.487793
vt 0.8217773 0.4960938
vt 0.7875977 0.4870605
vt 0.8198242 0.5039063
vt 0.7890625 0.4775391
vt 0.7871094 0.4931641
vt 0.7265625 0.5224609
vt 0.7275391 0.5292969
vt 0.7866211 0.4851074
vt 0.784668 0.4968262
vt 0.7275391 0.5292969
vt 0.7265625 0.5317383
vt 0.699707 0.5498047
vt 0.78125 0.4924316
vt 0.7265625 0.5317383
vt 0.7241211 0.5283203
vt 0.699707 0.5498047
vt 0.7231445 0.5219727
vt 0.78125 0.4924316
vt 0.7241211 0.5283203
vt 0.7802734 0.4846191
vt 0.7807617 0.487793
vt 0.7954102 0.4970703
vt 0.7954102 0.5048828
vt 0.7807617 0.4780273
vt 0.7866211 0.4924316
vt 0.7954102 0.5048828
vt 0.7993164 0.5083008
vt 0.7807617 0.487793
vt 0.7919922 0.4870605
vt 0.7993164 0.5083008
vt 0.8041992 0.5039063
vt 0.7866211 0.4924316
vt 0.7919922 0.4870605
vt 0.8041992 0.4960938
vt 0.7919922 0.4775391
vt 0.8041992 0.5039063
vt 0.8134766 0.5463867
vt 0.4284668 0.1466064
vt 0.3933105 0.1734619
vt 0.3649902 0.1486816
vt 0.4833984 0.1766357
vt 0.3649902 0.1486816
vt 0.2131348 0.1793213
vt 0.2376709 0.1486816
vt 0.3933105 0.1734619
vt 0.2376709 0.1486816
vt 0.1229858 0.1884766
vt 0.1740723 0.1466064
vt 0.2131348 0.1793213
vt 0.1740723 0.1466064
vt 0.2131348 0.1917725
vt 0.2376709 0.1445313
vt 0.1229858 0.1884766
vt 0.2376709 0.1445313
vt 0.3933105 0.185791
vt 0.3649902 0.1445313
vt 0.2131348 0.1917725
vt 0.3649902 0.1445313
vt 0.4833984 0.1766357
vt 0.4284668 0.1466064
vt 0.3933105 0.185791
vt 0.4833984 0.1766357
vt 0.3540039 0.2030029
vt 0.3933105 0.1734619
vt 0.4084473 0.2060547
vt 0.3933105 0.1734619
vt 0.2451172 0.2080078
vt 0.2131348 0.1793213
vt 0.3540039 0.2030029
vt 0.2131348 0.1793213
vt 0.1906738 0.2161865
vt 0.1229858 0.1884766
vt 0.2451172 0.2080078
vt 0.1229858 0.1884766
vt 0.2451172 0.2192383
vt 0.2131348 0.1917725
vt 0.1906738 0.2161865
vt 0.2131348 0.1917725
vt 0.3540039 0.2141113
vt 0.3933105 0.185791
vt 0.2451172 0.2192383
vt 0.3933105 0.185791
vt 0.4084473 0.2060547
vt 0.4833984 0.1766357
vt 0.3540039 0.2141113
vt 0.3649902 0.1445313
vt 0.1740723 0.1466064
vt 0.2376709 0.1445313
vt 0.4284668 0.1466064
vt 0.2376709 0.1486816
vt 0.3649902 0.1486816
vt 0.4020996 0.4448242
vt 0.3557129 0.484375
vt 0.3254395 0.4406738
vt 0.4545898 0.4951172
vt 0.3254395 0.4406738
vt 0.1575928 0.4943848
vt 0.1722412 0.4477539
vt 0.3557129 0.484375
vt 0.1722412 0.4477539
vt 0.05856323 0.5151367
vt 0.09570313 0.4589844
vt 0.1575928 0.4943848
vt 0.09570313 0.4589844
vt 0.1575928 0.5258789
vt 0.1722412 0.4633789
vt 0.05856323 0.5151367
vt 0.1722412 0.4633789
vt 0.3557129 0.515625
vt 0.3254395 0.4562988
vt 0.1575928 0.5258789
vt 0.3254395 0.4562988
vt 0.4545898 0.4951172
vt 0.4020996 0.4448242
vt 0.3557129 0.515625
vt 0.3557129 0.484375
vt 0.3908691 0.5332031
vt 0.3347168 0.5292969
vt 0.4545898 0.4951172
vt 0.1575928 0.4943848
vt 0.3347168 0.5292969
vt 0.2225342 0.5400391
vt 0.3557129 0.484375
vt 0.05856323 0.5151367
vt 0.2225342 0.5400391
vt 0.1665039 0.5546875
vt 0.1575928 0.4943848
vt 0.05856323 0.5151367
vt 0.2225342 0.5585938
vt 0.1575928 0.5258789
vt 0.1665039 0.5546875
vt 0.1575928 0.5258789
vt 0.3347168 0.5473633
vt 0.3557129 0.515625
vt 0.2225342 0.5585938
vt 0.4545898 0.4951172
vt 0.3347168 0.5473633
vt 0.3908691 0.5332031
vt 0.3557129 0.515625
vt 0.2423096 0.8666992
vt 0.3605957 0.8442383
vt 0.3212891 0.855957
vt 0.2028809 0.8662109
vt 0.3212891 0.8432617
vt 0.2423096 0.8540039
vt 0.3659668 0.7915039
vt 0.3605957 0.8442383
vt 0.3212891 0.8432617
vt 0.4621582 0.7954102
vt 0.1734619 0.815918
vt 0.3212891 0.8432617
vt 0.2423096 0.8540039
vt 0.3659668 0.7915039
vt 0.07714844 0.84375
vt 0.2423096 0.8540039
vt 0.2028809 0.8662109
vt 0.1734619 0.815918
vt 0.2423096 0.8666992
vt 0.07714844 0.84375
vt 0.2028809 0.8662109
vt 0.1734619 0.847168
vt 0.3212891 0.855957
vt 0.1734619 0.847168
vt 0.2423096 0.8666992
vt 0.3659668 0.8227539
vt 0.3605957 0.8442383
vt 0.3659668 0.8227539
vt 0.3212891 0.855957
vt 0.4621582 0.7954102
vt 0.3369141 0.7519531
vt 0.4621582 0.7954102
vt 0.3659668 0.7915039
vt 0.4194336 0.7573242
vt 0.1717529 0.7680664
vt 0.3659668 0.7915039
vt 0.1734619 0.815918
vt 0.3369141 0.7519531
vt 0.08929443 0.7895508
vt 0.1734619 0.815918
vt 0.07714844 0.84375
vt 0.1717529 0.7680664
vt 0.1734619 0.847168
vt 0.08929443 0.7895508
vt 0.07714844 0.84375
vt 0.1717529 0.7949219
vt 0.3659668 0.8227539
vt 0.1717529 0.7949219
vt 0.1734619 0.847168
vt 0.3369141 0.7788086
vt 0.4621582 0.7954102
vt 0.3369141 0.7788086
vt 0.3659668 0.8227539
vt 0.4194336 0.7573242
vt 0.3896484 0.1519775
vt 0.253418 0.1755371
vt 0.2644043 0.1538086
vt 0.4306641 0.1783447
vt 0.2644043 0.1538086
vt 0.1193237 0.1806641
vt 0.170166 0.1538086
vt 0.253418 0.1755371
vt 0.170166 0.1538086
vt 0.1627197 0.1887207
vt 0.2009277 0.1519775
vt 0.1193237 0.1806641
vt 0.2009277 0.1519775
vt 0.3400879 0.1916504
vt 0.3259277 0.1501465
vt 0.1627197 0.1887207
vt 0.3259277 0.1501465
vt 0.4741211 0.1864014
vt 0.4204102 0.1501465
vt 0.3400879 0.1916504
vt 0.4204102 0.1501465
vt 0.4306641 0.1783447
vt 0.3896484 0.1519775
vt 0.4741211 0.1864014
vt 0.4306641 0.1783447
vt 0.2631836 0.2015381
vt 0.253418 0.1755371
vt 0.3703613 0.2042236
vt 0.253418 0.1755371
vt 0.1820068 0.2059326
vt 0.1193237 0.1806641
vt 0.2631836 0.2015381
vt 0.1193237 0.1806641
vt 0.2080078 0.2131348
vt 0.1627197 0.1887207
vt 0.1820068 0.2059326
vt 0.1627197 0.1887207
vt 0.3151855 0.2158203
vt 0.3400879 0.1916504
vt 0.2080078 0.2131348
vt 0.3400879 0.1916504
vt 0.3962402 0.2113037
vt 0.4741211 0.1864014
vt 0.3151855 0.2158203
vt 0.4741211 0.1864014
vt 0.3703613 0.2042236
vt 0.4306641 0.1783447
vt 0.3962402 0.2113037
vt 0.4204102 0.1501465
vt 0.2009277 0.1519775
vt 0.3259277 0.1501465
vt 0.3896484 0.1519775
vt 0.170166 0.1538086
vt 0.2644043 0.1538086
vt 0.3635254 0.4672852
vt 0.2624512 0.4897461
vt 0.2670898 0.4648438
vt 0.3859863 0.4956055
vt 0.2670898 0.4648438
vt 0.1676025 0.4951172
vt 0.1939697 0.4689941
vt 0.2624512 0.4897461
vt 0.1939697 0.4689941
vt 0.1964111 0.5068359
vt 0.2174072 0.4753418
vt 0.1676025 0.4951172
vt 0.2174072 0.4753418
vt 0.3198242 0.5126953
vt 0.3139648 0.4777832
vt 0.1964111 0.5068359
vt 0.3139648 0.4777832
vt 0.4147949 0.5073242
vt 0.3869629 0.4736328
vt 0.3198242 0.5126953
vt 0.3869629 0.4736328
vt 0.3859863 0.4956055
vt 0.3635254 0.4672852
vt 0.4147949 0.5073242
vt 0.2624512 0.4897461
vt 0.3527832 0.5170898
vt 0.2814941 0.5146484
vt 0.3859863 0.4956055
vt 0.1676025 0.4951172
vt 0.2814941 0.5146484
vt 0.2272949 0.5209961
vt 0.2624512 0.4897461
vt 0.1964111 0.5068359
vt 0.3156738 0.53125
vt 0.3198242 0.5126953
vt 0.2443848 0.5292969
vt 0.3198242 0.5126953
vt 0.369873 0.5249023
vt 0.4147949 0.5073242
vt 0.3156738 0.53125
vt 0.3859863 0.4956055
vt 0.369873 0.5249023
vt 0.3527832 0.5170898
vt 0.4147949 0.5073242
vt 0.3527832 0.5170898
vt 0.2272949 0.5209961
vt 0.2814941 0.5146484
vt 0.2443848 0.5292969
vt 0.369873 0.5249023
vt 0.3156738 0.53125
vt 0.3562012 0.1541748
vt 0.4208984 0.1708984
vt 0.3706055 0.1553955
vt 0.4003906 0.1729736
vt 0.3706055 0.1553955
vt 0.2749023 0.1745605
vt 0.2670898 0.1553955
vt 0.4208984 0.1708984
vt 0.2670898 0.1553955
vt 0.1082153 0.1802979
vt 0.1494141 0.1541748
vt 0.2749023 0.1745605
vt 0.1494141 0.1541748
vt 0.08764648 0.182373
vt 0.1350098 0.152832
vt 0.1082153 0.1802979
vt 0.1350098 0.152832
vt 0.2337646 0.1785889
vt 0.2382813 0.152832
vt 0.08764648 0.182373
vt 0.2382813 0.152832
vt 0.4003906 0.1729736
vt 0.3562012 0.1541748
vt 0.2337646 0.1785889
vt 0.4003906 0.1729736
vt 0.355957 0.1894531
vt 0.4208984 0.1708984
vt 0.3435059 0.1912842
vt 0.4208984 0.1708984
vt 0.2678223 0.1925049
vt 0.2749023 0.1745605
vt 0.355957 0.1894531
vt 0.2749023 0.1745605
vt 0.1673584 0.1976318
vt 0.1082153 0.1802979
vt 0.2678223 0.1925049
vt 0.1082153 0.1802979
vt 0.1549072 0.1994629
vt 0.08764648 0.182373
vt 0.1673584 0.1976318
vt 0.08764648 0.182373
vt 0.2429199 0.1964111
vt 0.2337646 0.1785889
vt 0.1549072 0.1994629
vt 0.2337646 0.1785889
vt 0.3435059 0.1912842
vt 0.4003906 0.1729736
vt 0.2429199 0.1964111
vt 0.2382813 0.152832
vt 0.1494141 0.1541748
vt 0.1350098 0.152832
vt 0.3562012 0.1541748
vt 0.2670898 0.1553955
vt 0.3706055 0.1553955
vt 0.2666016 0.4758301
vt 0.3095703 0.4914551
vt 0.277832 0.4741211
vt 0.2961426 0.4958496
vt 0.277832 0.4741211
vt 0.2072754 0.4956055
vt 0.1984863 0.4768066
vt 0.3095703 0.4914551
vt 0.1984863 0.4768066
vt 0.09161377 0.5039063
vt 0.1079712 0.4814453
vt 0.2072754 0.4956055
vt 0.1079712 0.4814453
vt 0.07818604 0.5078125
vt 0.09680176 0.4831543
vt 0.09161377 0.5039063
vt 0.09680176 0.4831543
vt 0.1804199 0.5039063
vt 0.1760254 0.4802246
vt 0.07818604 0.5078125
vt 0.1760254 0.4802246
vt 0.2961426 0.4958496
vt 0.2666016 0.4758301
vt 0.1804199 0.5039063
vt 0.3095703 0.4914551
vt 0.265625 0.5107422
vt 0.2741699 0.5097656
vt 0.2961426 0.4958496
vt 0.2072754 0.4956055
vt 0.2741699 0.5097656
vt 0.2166748 0.5136719
vt 0.3095703 0.4914551
vt 0.09161377 0.5039063
vt 0.2166748 0.5136719
vt 0.1503906 0.5195313
vt 0.2072754 0.4956055
vt 0.09161377 0.5039063
vt 0.1417236 0.5209961
vt 0.07818604 0.5078125
vt 0.1503906 0.5195313
vt 0.07818604 0.5078125
vt 0.1993408 0.5166016
vt 0.1804199 0.5039063
vt 0.1417236 0.5209961
vt 0.2961426 0.4958496
vt 0.1993408 0.5166016
vt 0.265625 0.5107422
vt 0.1804199 0.5039063
vt 0.265625 0.5107422
vt 0.2166748 0.5136719
vt 0.2741699 0.5097656
vt 0.1503906 0.5195313
vt 0.1993408 0.5166016
vt 0.1417236 0.5209961
vt 0.3833008 0.1602783
vt 0.4335938 0.1806641
vt 0.3945313 0.1618652
vt 0.4174805 0.1832275
vt 0.3945313 0.1618652
vt 0.3203125 0.1851807
vt 0.3144531 0.1618652
vt 0.4335938 0.1806641
vt 0.3144531 0.1618652
vt 0.1911621 0.1922607
vt 0.2230225 0.1602783
vt 0.3203125 0.1851807
vt 0.2230225 0.1602783
vt 0.1751709 0.1947021
vt 0.2119141 0.1586914
vt 0.1911621 0.1922607
vt 0.2119141 0.1586914
vt 0.2883301 0.1901855
vt 0.2919922 0.1586914
vt 0.1751709 0.1947021
vt 0.2919922 0.1586914
vt 0.4174805 0.1832275
vt 0.3833008 0.1602783
vt 0.2883301 0.1901855
vt 0.4174805 0.1832275
vt 0.3830566 0.2032471
vt 0.4335938 0.1806641
vt 0.3735352 0.2055664
vt 0.4335938 0.1806641
vt 0.3149414 0.2071533
vt 0.3203125 0.1851807
vt 0.3830566 0.2032471
vt 0.3203125 0.1851807
vt 0.2369385 0.2132568
vt 0.1911621 0.1922607
vt 0.3149414 0.2071533
vt 0.1911621 0.1922607
vt 0.2272949 0.2155762
vt 0.1751709 0.1947021
vt 0.2369385 0.2132568
vt 0.1751709 0.1947021
vt 0.2956543 0.211792
vt 0.2883301 0.1901855
vt 0.2272949 0.2155762
vt 0.2883301 0.1901855
vt 0.3735352 0.2055664
vt 0.4174805 0.1832275
vt 0.2956543 0.211792
vt 0.2919922 0.1586914
vt 0.2230225 0.1602783
vt 0.2119141 0.1586914
vt 0.3833008 0.1602783
vt 0.3144531 0.1618652
vt 0.3945313 0.1618652
vt 0.2956543 0.211792
vt 0.3830566 0.2032471
vt 0.3735352 0.2055664
vt 0.3149414 0.2071533
vt 0.2272949 0.2155762
vt 0.2369385 0.2132568

g Tree_11_Green_(9)_389_79
usemtl Tree_11_Green_(9)_389_79
usemap Tree_11_Green_(9)_389_79
f 1/1/1 3/3/3 2/2/2
f 4/4/4 6/6/6 5/5/5
f 7/7/7 9/9/9 8/8/8
f 10/10/10 12/12/12 11/11/11
f 13/13/13 15/15/15 14/14/14
f 16/16/16 18/18/18 17/17/17
f 19/19/19 21/21/21 20/20/20
f 22/22/22 24/24/24 23/23/23
f 25/25/25 27/27/27 26/26/26
f 28/28/28 30/30/30 29/29/29
f 31/31/31 33/33/33 32/32/32
f 34/34/34 36/36/36 35/35/35
f 37/37/37 39/39/39 38/38/38
f 40/40/40 42/42/42 41/41/41
f 43/43/43 45/45/45 44/44/44
f 46/46/46 48/48/48 47/47/47
f 49/49/49 51/51/51 50/50/50
f 52/52/52 54/54/54 53/53/53
f 55/55/55 57/57/57 56/56/56
f 58/58/58 60/60/60 59/59/59
f 61/61/61 63/63/63 62/62/62
f 64/64/64 66/66/66 65/65/65
f 67/67/67 69/69/69 68/68/68
f 70/70/70 72/72/72 71/71/71
f 71/71/71 73/73/73 70/70/70
f 74/74/74 76/76/76 75/75/75
f 75/75/75 77/77/77 74/74/74
f 78/78/78 80/80/80 79/79/79
f 79/79/79 81/81/81 78/78/78
f 82/82/82 84/84/84 83/83/83
f 83/83/83 85/85/85 82/82/82
f 86/86/86 88/88/88 87/87/87
f 87/87/87 89/89/89 86/86/86
f 90/90/90 92/92/92 91/91/91
f 91/91/91 93/93/93 90/90/90
f 94/94/94 96/96/96 95/95/95
f 95/95/95 97/97/97 94/94/94
f 98/98/98 100/100/100 99/99/99
f 99/99/99 101/101/101 98/98/98
f 102/102/102 104/104/104 103/103/103
f 103/103/103 105/105/105 102/102/102
f 106/106/106 102/102/102 105/105/105
f 105/105/105 107/107/107 106/106/106
f 108/108/108 110/110/110 109/109/109
f 109/109/109 111/111/111 108/108/108
f 112/112/112 114/114/114 113/113/113
f 113/113/113 115/115/115 112/112/112
f 116/116/116 118/118/118 117/117/117
f 117/117/117 119/119/119 116/116/116
f 119/119/119 117/117/117 120/120/120
f 120/120/120 121/121/121 119/119/119
f 122/122/122 124/124/124 123/123/123
f 123/123/123 125/125/125 122/122/122
f 126/126/126 128/128/128 127/127/127
f 127/127/127 129/129/129 126/126/126
f 130/130/130 132/132/132 131/131/131
f 131/131/131 133/133/133 130/130/130
f 134/134/134 136/136/136 135/135/135
f 135/135/135 137/137/137 134/134/134
f 138/138/138 140/140/140 139/139/139
f 139/139/139 141/141/141 138/138/138
f 138/138/138 141/141/141 142/142/142
f 143/143/143 145/145/145 144/144/144
f 144/144/144 146/146/146 143/143/143
f 147/147/147 149/149/149 148/148/148
f 148/148/148 150/150/150 147/147/147
f 151/151/151 153/153/153 152/152/152
f 152/152/152 154/154/154 151/151/151
f 155/155/155 157/157/157 156/156/156
f 156/156/156 157/157/157 158/158/158
f 159/159/159 161/161/161 160/160/160
f 160/160/160 161/161/161 162/162/162
f 163/163/163 165/165/165 164/164/164
f 164/164/164 166/166/166 163/163/163
f 167/167/167 169/169/169 168/168/168
f 168/168/168 170/170/170 167/167/167
f 171/171/171 173/173/173 172/172/172
f 172/172/172 174/174/174 171/171/171
f 175/175/175 177/177/177 176/176/176
f 176/176/176 178/178/178 175/175/175
f 179/179/179 181/181/181 180/180/180
f 180/180/180 182/182/182 179/179/179
f 182/182/182 180/180/180 183/183/183
f 184/184/184 186/186/186 185/185/185
f 185/185/185 187/187/187 184/184/184
f 188/188/188 190/190/190 189/189/189
f 189/189/189 191/191/191 188/188/188
f 192/192/192 194/194/194 193/193/193
f 193/193/193 195/195/195 192/192/192
f 196/196/196 198/198/198 197/197/197
f 197/197/197 199/199/199 196/196/196
f 200/200/200 202/202/202 201/201/201
f 201/201/201 203/203/203 200/200/200
f 204/204/204 206/206/206 205/205/205
f 205/205/205 207/207/207 204/204/204
f 208/208/208 210/210/210 209/209/209
f 209/209/209 211/211/211 208/208/208
f 212/212/212 214/214/214 213/213/213
f 213/213/213 215/215/215 212/212/212
f 216/216/216 218/218/218 217/217/217
f 217/217/217 219/219/219 216/216/216
f 220/220/220 222/222/222 221/221/221
f 221/221/221 223/223/223 220/220/220
f 224/224/224 226/226/226 225/225/225
f 225/225/225 227/227/227 224/224/224
f 228/228/228 230/230/230 229/229/229
f 229/229/229 231/231/231 228/228/228
f 232/232/232 234/234/234 233/233/233
f 233/233/233 235/235/235 232/232/232
f 235/235/235 233/233/233 236/236/236
f 236/236/236 237/237/237 235/235/235
f 238/238/238 240/240/240 239/239/239
f 239/239/239 241/241/241 238/238/238
f 242/242/242 244/244/244 243/243/243
f 243/243/243 245/245/245 242/242/242
f 246/246/246 248/248/248 247/247/247
f 247/247/247 249/249/249 246/246/246
f 250/250/250 252/252/252 251/251/251
f 251/251/251 253/253/253 250/250/250
f 254/254/254 256/256/256 255/255/255
f 255/255/255 257/257/257 254/254/254
f 258/258/258 260/260/260 259/259/259
f 259/259/259 261/261/261 258/258/258
f 262/262/262 264/264/264 263/263/263
f 263/263/263 265/265/265 262/262/262
f 266/266/266 268/268/268 267/267/267
f 267/267/267 269/269/269 266/266/266
f 270/270/270 272/272/272 271/271/271
f 271/271/271 273/273/273 270/270/270
f 274/274/274 276/276/276 275/275/275
f 275/275/275 277/277/277 274/274/274
f 278/278/278 280/280/280 279/279/279
f 279/279/279 281/281/281 278/278/278
f 282/282/282 284/284/284 283/283/283
f 283/283/283 285/285/285 282/282/282
f 286/286/286 288/288/288 287/287/287
f 287/287/287 289/289/289 286/286/286
f 289/289/289 287/287/287 290/290/290
f 290/290/290 291/291/291 289/289/289
f 292/292/292 294/294/294 293/293/293
f 293/293/293 295/295/295 292/292/292
f 296/296/296 298/298/298 297/297/297
f 297/297/297 299/299/299 296/296/296
f 300/300/300 302/302/302 301/301/301
f 301/301/301 303/303/303 300/300/300
f 304/304/304 306/306/306 305/305/305
f 305/305/305 307/307/307 304/304/304
f 308/308/308 310/310/310 309/309/309
f 309/309/309 311/311/311 308/308/308
f 312/312/312 314/314/314 313/313/313
f 313/313/313 315/315/315 312/312/312
f 316/316/316 318/318/318 317/317/317
f 317/317/317 319/319/319 316/316/316
f 320/320/320 322/322/322 321/321/321
f 321/321/321 323/323/323 320/320/320
f 324/324/324 326/326/326 325/325/325
f 325/325/325 327/327/327 324/324/324
f 328/328/328 330/330/330 329/329/329
f 329/329/329 331/331/331 328/328/328
f 332/332/332 334/334/334 333/333/333
f 333/333/333 335/335/335 332/332/332
f 336/336/336 338/338/338 337/337/337
f 337/337/337 339/339/339 336/336/336
f 340/340/340 342/342/342 341/341/341
f 341/341/341 343/343/343 340/340/340
f 344/344/344 346/346/346 345/345/345
f 345/345/345 347/347/347 344/344/344
f 348/348/348 350/350/350 349/349/349
f 349/349/349 351/351/351 348/348/348
f 352/352/352 354/354/354 353/353/353
f 353/353/353 355/355/355 352/352/352
f 356/356/356 358/358/358 357/357/357
f 357/357/357 359/359/359 356/356/356
f 360/360/360 362/362/362 361/361/361
f 361/361/361 363/363/363 360/360/360
f 364/364/364 366/366/366 365/365/365
f 365/365/365 367/367/367 364/364/364
f 368/368/368 370/370/370 369/369/369
f 369/369/369 371/371/371 368/368/368
f 372/372/372 374/374/374 373/373/373
f 373/373/373 375/375/375 372/372/372
f 376/376/376 378/378/378 377/377/377
f 377/377/377 379/379/379 376/376/376
f 380/380/380 382/382/382 381/381/381
f 381/381/381 383/383/383 380/380/380
f 384/384/384 386/386/386 385/385/385
f 385/385/385 387/387/387 384/384/384
f 388/388/388 390/390/390 389/389/389
f 389/389/389 391/391/391 388/388/388
f 391/391/391 389/389/389 392/392/392
f 392/392/392 393/393/393 391/391/391
f 394/394/394 396/396/396 395/395/395
f 395/395/395 397/397/397 394/394/394
f 398/398/398 400/400/400 399/399/399
f 399/399/399 401/401/401 398/398/398
f 402/402/402 404/404/404 403/403/403
f 403/403/403 405/405/405 402/402/402
f 406/406/406 408/408/408 407/407/407
f 407/407/407 409/409/409 406/406/406
f 410/410/410 412/412/412 411/411/411
f 411/411/411 413/413/413 410/410/410
f 414/414/414 416/416/416 415/415/415
f 415/415/415 417/417/417 414/414/414
f 418/418/418 420/420/420 419/419/419
f 419/419/419 421/421/421 418/418/418
f 422/422/422 424/424/424 423/423/423
f 423/423/423 425/425/425 422/422/422
f 426/426/426 428/428/428 427/427/427
f 427/427/427 429/429/429 426/426/426
f 430/430/430 432/432/432 431/431/431
f 431/431/431 433/433/433 430/430/430
f 434/434/434 436/436/436 435/435/435
f 435/435/435 437/437/437 434/434/434
f 438/438/438 440/440/440 439/439/439
f 439/439/439 441/441/441 438/438/438
f 442/442/442 438/438/438 441/441/441
f 441/441/441 443/443/443 442/442/442
f 444/444/444 446/446/446 445/445/445
f 445/445/445 447/447/447 444/444/444
f 448/448/448 450/450/450 449/449/449
f 449/449/449 451/451/451 448/448/448
f 452/452/452 454/454/454 453/453/453
f 453/453/453 455/455/455 452/452/452
f 456/456/456 458/458/458 457/457/457
f 457/457/457 459/459/459 456/456/456
f 460/460/460 462/462/462 461/461/461
f 461/461/461 463/463/463 460/460/460
f 464/464/464 466/466/466 465/465/465
f 465/465/465 467/467/467 464/464/464
f 468/468/468 470/470/470 469/469/469
f 469/469/469 471/471/471 468/468/468
f 472/472/472 474/474/474 473/473/473
f 473/473/473 475/475/475 472/472/472
f 476/476/476 478/478/478 477/477/477
f 477/477/477 479/479/479 476/476/476
f 480/480/480 482/482/482 481/481/481
f 481/481/481 483/483/483 480/480/480
f 484/484/484 486/486/486 485/485/485
f 485/485/485 487/487/487 484/484/484
f 488/488/488 490/490/490 489/489/489
f 489/489/489 491/491/491 488/488/488
f 492/492/492 494/494/494 493/493/493
f 493/493/493 495/495/495 492/492/492
f 495/495/495 493/493/493 496/496/496
f 496/496/496 497/497/497 495/495/495
f 498/498/498 500/500/500 499/499/499
f 499/499/499 501/501/501 498/498/498
f 502/502/502 504/504/504 503/503/503
f 503/503/503 505/505/505 502/502/502
f 506/506/506 508/508/508 507/507/507
f 507/507/507 509/509/509 506/506/506
f 510/510/510 512/512/512 511/511/511
f 511/511/511 513/513/513 510/510/510
f 514/514/514 516/516/516 515/515/515
f 515/515/515 517/517/517 514/514/514
f 518/518/518 520/520/520 519/519/519
f 519/519/519 521/521/521 518/518/518
f 522/522/522 524/524/524 523/523/523
f 523/523/523 525/525/525 522/522/522
f 526/526/526 528/528/528 527/527/527
f 527/527/527 529/529/529 526/526/526
f 530/530/530 532/532/532 531/531/531
f 531/531/531 533/533/533 530/530/530
f 534/534/534 536/536/536 535/535/535
f 535/535/535 537/537/537 534/534/534
f 538/538/538 540/540/540 539/539/539
f 539/539/539 541/541/541 538/538/538
f 542/542/542 544/544/544 543/543/543
f 543/543/543 545/545/545 542/542/542
f 546/546/546 548/548/548 547/547/547
f 547/547/547 549/549/549 546/546/546
f 550/550/550 546/546/546 549/549/549
f 549/549/549 551/551/551 550/550/550
f 552/552/552 554/554/554 553/553/553
f 553/553/553 555/555/555 552/552/552
f 556/556/556 558/558/558 557/557/557
f 557/557/557 559/559/559 556/556/556
f 560/560/560 562/562/562 561/561/561
f 561/561/561 563/563/563 560/560/560
f 564/564/564 566/566/566 565/565/565
f 565/565/565 567/567/567 564/564/564
f 568/568/568 570/570/570 569/569/569
f 569/569/569 571/571/571 568/568/568
f 572/572/572 574/574/574 573/573/573
f 573/573/573 575/575/575 572/572/572
f 576/576/576 578/578/578 577/577/577
f 577/577/577 579/579/579 576/576/576
f 580/580/580 582/582/582 581/581/581
f 581/581/581 583/583/583 580/580/580
f 584/584/584 586/586/586 585/585/585
f 585/585/585 587/587/587 584/584/584
f 588/588/588 590/590/590 589/589/589
f 589/589/589 591/591/591 588/588/588
f 592/592/592 594/594/594 593/593/593
f 593/593/593 595/595/595 592/592/592
f 596/596/596 598/598/598 597/597/597
f 597/597/597 599/599/599 596/596/596
f 600/600/600 602/602/602 601/601/601
f 601/601/601 603/603/603 600/600/600
f 603/603/603 601/601/601 604/604/604
f 604/604/604 605/605/605 603/603/603
f 606/606/606 608/608/608 607/607/607
f 607/607/607 609/609/609 606/606/606
f 610/610/610 606/606/606 609/609/609
f 609/609/609 611/611/611 610/610/610
