#Tree_06_(1)_466_42.obj

v 0.2514994 -0.6991804 1.816889
v 0.6453697 -1.000069 2.053999
v 0.6422297 -0.9614308 2.080755
v 0.6453697 -1.000069 2.053999
v 0.2514994 -0.6991804 1.816889
v 0.2381241 -0.7664133 1.766901
v 0.2265317 -0.6511582 1.766318
v 0.6422297 -0.9614308 2.080755
v 0.6118623 -0.9601005 2.116739
v 0.6422297 -0.9614308 2.080755
v 0.2265317 -0.6511582 1.766318
v 0.2514994 -0.6991804 1.816889
v 0.5846334 -0.9974168 2.125969
v 0.2265317 -0.6511582 1.766318
v 0.6118623 -0.9601005 2.116739
v 0.2265317 -0.6511582 1.766318
v 0.5846334 -0.9974168 2.125969
v 0.1881886 -0.7205505 1.796528
v 0.587775 -1.036057 2.099214
v 0.1881886 -0.7205505 1.796528
v 0.5846334 -0.9974168 2.125969
v 0.1881886 -0.7205505 1.796528
v 0.587775 -1.036057 2.099214
v 0.174812 -0.787787 1.746543
v 0.6181408 -1.037386 2.06323
v 0.174812 -0.787787 1.746543
v 0.587775 -1.036057 2.099214
v 0.174812 -0.787787 1.746543
v 0.6181408 -1.037386 2.06323
v 0.1997801 -0.835805 1.797112
v 0.2381241 -0.7664133 1.766901
v 0.6181408 -1.037386 2.06323
v 0.6453697 -1.000069 2.053999
v 0.6181408 -1.037386 2.06323
v 0.2381241 -0.7664133 1.766901
v 0.1997801 -0.835805 1.797112
v -0.9728602 0.5023963 2.540282
v -0.8487322 0.1826429 2.407863
v -0.8604276 0.236804 2.305744
v -0.8487322 0.1826429 2.407863
v -0.9728602 0.5023963 2.540282
v -0.8922035 0.4537735 2.572353
v -0.7888234 0.4021431 2.517353
v -0.7767393 0.2848833 2.268867
v -0.7923604 0.191691 2.397731
v -0.7767393 0.2848833 2.268867
v -0.7888234 0.4021431 2.517353
v -0.8265746 0.4024148 2.363517
v -0.7381161 0.07393344 3.112648
v -0.6390108 -0.008744773 2.916964
v -0.7158942 0.005310186 3.077405
v -0.6304316 0.03759373 2.922344
v -0.6942445 0.07659622 2.86637
v -0.6390108 -0.008744773 2.916964
v -0.6942445 0.07659622 2.86637
v -0.6304316 0.03759373 2.922344
v -0.7214559 0.1364312 2.856302
v 0.368291 -0.8928906 2.016426
v 0.4120799 -0.9477978 2.013025
v 0.3393284 -0.9230667 2.002921
v 0.4017296 -0.7853179 1.923198
v 0.274768 -0.7471113 1.962428
v 0.2969917 -0.7200515 1.813808
v 0.274768 -0.7471113 1.962428
v 0.4017296 -0.7853179 1.923198
v 0.3123998 -0.8021579 1.972101
v 0.4726145 -0.898378 2.007884
v 0.2320343 -0.8645682 1.83398
v 0.4120799 -0.9477978 2.013025
v 0.2320343 -0.8645682 1.83398
v 0.4017296 -0.7853179 1.923198
v 0.2969917 -0.7200515 1.813808
v 0.4726145 -0.898378 2.007884
v 0.4017296 -0.7853179 1.923198
v 0.2320343 -0.8645682 1.83398
v 0.368291 -0.8928906 2.016426
v 0.274768 -0.7471113 1.962428
v 0.3123998 -0.8021579 1.972101
v -0.09396493 -0.2286736 1.383583
v 0.05985197 -0.5657356 1.767751
v 0.07010509 -0.6429516 1.64099
v 0.05985197 -0.5657356 1.767751
v -0.09396493 -0.2286736 1.383583
v 0.02193759 -0.2633503 1.543051
v 0.8127318 0.7007554 1.843931
v 0.8436876 0.6774166 1.757191
v 0.8235266 0.6272908 1.843931
v 0.8436876 0.6774166 1.757191
v 0.8127318 0.7007554 1.843931
v 0.8781259 0.7779874 1.783051
v 0.1048191 -0.03511025 1.566177
v -0.5006639 0.06507891 2.195878
v -0.5726625 0.09480821 2.186091
v -0.5006639 0.06507891 2.195878
v 0.1048191 -0.03511025 1.566177
v -0.006829531 -0.07823776 1.740156
v -0.5449783 0.00549827 2.195878
v -0.5726625 0.09480821 2.186091
v -0.5006639 0.06507891 2.195878
v -0.5726625 0.09480821 2.186091
v -0.5449783 0.00549827 2.195878
v -0.6458296 -0.002873683 2.134998
v 0.4978464 0.5551345 1.594591
v 0.5728521 0.5230894 1.636424
v 0.3849632 0.4444485 1.593928
v 0.3117471 -1.431147E-06 -2.628887E-22
v 0.1428764 0.1926851 0.6786004
v 0.1558726 0.2699804 -3.218432E-08
v 0.2734304 -0.02979216 0.7166381
v 0.05243909 0.1153845 1.411715
v 0.1576745 -0.05958489 1.48779
v -0.4076191 0.0434439 2.046885
v -0.465351 0.1933006 1.96963
v -0.6104061 0.1464759 2.368715
v -0.6824238 0.2712134 2.368715
v -0.4460307 0.1084082 3.166456
v -0.4100273 0.03228182 3.141247
v 0.1558726 0.2699804 -3.218432E-08
v -0.1182325 0.1853843 0.6513638
v -0.1558737 0.2699813 -3.218431E-08
v 0.1428764 0.1926851 0.6786004
v -0.1580278 0.1007881 1.357242
v 0.05243909 0.1153845 1.411715
v -0.465351 0.1933006 1.96963
v -0.6052366 0.1860031 1.857417
v -0.6824238 0.2712134 2.368715
v -0.8264591 0.2712131 2.368715
v -0.518039 0.1084069 3.216875
v -0.4460307 0.1084082 3.166456
v -0.1182325 0.1853843 0.6513638
v -0.3117471 1.431147E-06 3.248914E-15
v -0.1558737 0.2699813 -3.218431E-08
v -0.2487855 -0.04439034 0.6621653
v -0.1580278 0.1007881 1.357242
v -0.2632601 -0.08877709 1.378844
v -0.6052366 0.1860031 1.857417
v -0.6873901 0.02884898 1.822459
v -0.8264591 0.2712131 2.368715
v -0.8984759 0.1464749 2.368715
v -0.5540404 0.03228141 3.242085
v -0.518039 0.1084069 3.216875
v -0.2487855 -0.04439034 0.6621653
v -0.1558726 -0.2699804 3.218432E-08
v -0.3117471 1.431147E-06 3.248914E-15
v -0.1182324 -0.266867 0.7002031
v -0.2632601 -0.08877709 1.378844
v -0.1580267 -0.2637497 1.45492
v -0.6296562 -0.1210045 1.899713
v -0.6873901 0.02884898 1.822459
v -0.8264591 0.02173794 2.368715
v -0.8984759 0.1464749 2.368715
v -0.5180378 -0.04384452 3.216875
v -0.5540404 0.03228141 3.242085
v -0.1182324 -0.266867 0.7002031
v 0.1558737 -0.2699813 3.218432E-08
v -0.1558726 -0.2699804 3.218432E-08
v 0.1428766 -0.2595663 0.7274395
v -0.1580267 -0.2637497 1.45492
v 0.05244017 -0.2491534 1.509393
v -0.4897707 -0.113707 2.011926
v -0.6296562 -0.1210045 1.899713
v -0.6824238 0.02173822 2.368715
v -0.8264591 0.02173794 2.368715
v -0.4460314 -0.04384644 3.166456
v -0.5180378 -0.04384452 3.216875
v 0.1558737 -0.2699813 3.218432E-08
v 0.2734304 -0.02979216 0.7166381
v 0.3117471 -1.431147E-06 -2.628887E-22
v 0.1428766 -0.2595663 0.7274395
v 0.1576745 -0.05958489 1.48779
v 0.05244017 -0.2491534 1.509393
v -0.4076191 0.0434439 2.046885
v -0.4897707 -0.113707 2.011926
v -0.6104061 0.1464759 2.368715
v -0.6824238 0.02173822 2.368715
v -0.4100273 0.03228182 3.141247
v -0.4460314 -0.04384644 3.166456
v -0.518039 0.1084069 3.216875
v -0.5180378 -0.04384452 3.216875
v -0.5540404 0.03228141 3.242085
v -0.4460307 0.1084082 3.166456
v -0.4460314 -0.04384644 3.166456
v -0.4100273 0.03228182 3.141247
v -0.5773627 0.08254439 2.82145
v -0.9303765 0.06062629 3.143831
v -0.5949981 0.1543698 2.772995
v -0.904599 0.01679079 3.161881
v -0.5949981 0.1543698 2.772995
v -0.9819326 0.06062398 3.107732
v -0.6302691 0.1543697 2.676088
v -0.9303765 0.06062629 3.143831
v -0.6302691 0.1543697 2.676088
v -1.00771 0.01678994 3.089682
v -0.6479056 0.08254464 2.627635
v -0.9819326 0.06062398 3.107732
v -0.6479056 0.08254464 2.627635
v -0.9819325 -0.02704556 3.107731
v -0.6302694 0.01071873 2.676088
v -1.00771 0.01678994 3.089682
v -0.6302694 0.01071873 2.676088
v -0.9303764 -0.02704326 3.143831
v -0.5949984 0.01071885 2.772995
v -0.9819325 -0.02704556 3.107731
v -0.5949984 0.01071885 2.772995
v -0.904599 0.01679079 3.161881
v -0.5773627 0.08254439 2.82145
v -0.9303764 -0.02704326 3.143831
v -0.9819326 0.06062398 3.107732
v -0.9819325 -0.02704556 3.107731
v -1.00771 0.01678994 3.089682
v -0.9303765 0.06062629 3.143831
v -0.9303764 -0.02704326 3.143831
v -0.904599 0.01679079 3.161881
v -0.6602618 0.154079 2.008636
v -0.9596107 0.4482007 2.336961
v -0.7300021 0.07173503 2.039906
v -0.9071565 0.498718 2.307436
v -1.003027 0.6595656 2.693948
v -0.9798264 0.6918133 2.6817
v -0.7300021 0.07173503 2.039906
v -0.939495 0.4009643 2.396447
v -0.7119927 0.01631406 2.135962
v -0.9596107 0.4482007 2.336961
v -0.9855085 0.627996 2.714562
v -1.003027 0.6595656 2.693948
v -0.7119927 0.01631406 2.135962
v -0.8669279 0.4042424 2.42641
v -0.6242426 0.04324134 2.20075
v -0.939495 0.4009643 2.396447
v -0.9447913 0.6286751 2.722926
v -0.9855085 0.627996 2.714562
v -0.6242426 0.04324134 2.20075
v -0.8144757 0.4547564 2.396889
v -0.5545014 0.1255848 2.169479
v -0.8669279 0.4042424 2.42641
v -0.9215906 0.6609271 2.710678
v -0.9447913 0.6286751 2.722926
v -0.5545014 0.1255848 2.169479
v -0.8345894 0.5019961 2.337402
v -0.5725108 0.1810058 2.073422
v -0.8144757 0.4547564 2.396889
v -0.9391081 0.6924962 2.690065
v -0.9215906 0.6609271 2.710678
v -0.5725108 0.1810058 2.073422
v -0.9071565 0.498718 2.307436
v -0.6602618 0.154079 2.008636
v -0.8345894 0.5019961 2.337402
v -0.9798264 0.6918133 2.6817
v -0.9391081 0.6924962 2.690065
v -0.9855085 0.627996 2.714562
v -0.9215906 0.6609271 2.710678
v -0.9447913 0.6286751 2.722926
v -1.003027 0.6595656 2.693948
v -0.9391081 0.6924962 2.690065
v -0.9798264 0.6918133 2.6817
v -0.003042744 -0.2429987 1.140666
v 0.2924224 -0.6375101 1.518534
v 0.1501978 -0.1642188 1.205792
v 0.1939333 -0.6804757 1.461255
v 0.1818014 -0.990113 2.060862
v 0.2755355 -0.9319319 2.096819
v -0.00442604 -0.9903104 2.552495
v 0.04687455 -0.9583399 2.574782
v 0.1501978 -0.1642188 1.205792
v 0.2837288 -0.5381455 1.588375
v 0.1388464 -0.03446081 1.336043
v 0.2924224 -0.6375101 1.518534
v 0.2755355 -0.9319319 2.096819
v 0.2667 -0.8203897 2.122978
v 0.1388464 -0.03446081 1.336043
v 0.1765463 -0.4817465 1.600938
v -0.0257466 0.01651348 1.401169
v 0.2837288 -0.5381455 1.588375
v 0.2667 -0.8203897 2.122978
v 0.1641331 -0.7670259 2.113184
v -0.01527261 -0.8663291 2.585843
v 0.04145086 -0.896349 2.591453
v -0.0257466 0.01651348 1.401169
v 0.07805733 -0.524712 1.543661
v -0.1789899 -0.0622692 1.336043
v 0.1765463 -0.4817465 1.600938
v 0.07039905 -0.825207 2.077229
v 0.1641331 -0.7670259 2.113184
v -0.06657122 -0.8982964 2.563558
v -0.01527261 -0.8663291 2.585843
v -0.1789899 -0.0622692 1.336043
v 0.08675084 -0.6240767 1.473819
v -0.1676366 -0.1920239 1.205791
v 0.07805733 -0.524712 1.543661
v 0.07923377 -0.9367487 2.051068
v 0.07039905 -0.825207 2.077229
v -0.06114834 -0.9602867 2.546885
v -0.06657122 -0.8982964 2.563558
v -0.1676366 -0.1920239 1.205791
v 0.1939333 -0.6804757 1.461255
v -0.003042744 -0.2429987 1.140666
v 0.08675084 -0.6240767 1.473819
v 0.07923377 -0.9367487 2.051068
v 0.1818014 -0.990113 2.060862
v -0.06114834 -0.9602867 2.546885
v -0.00442604 -0.9903104 2.552495
v 0.04145086 -0.896349 2.591453
v -0.06657122 -0.8982964 2.563558
v -0.01527261 -0.8663291 2.585843
v 0.04687455 -0.9583399 2.574782
v -0.06114834 -0.9602867 2.546885
v -0.00442604 -0.9903104 2.552495
v 0.2667 -0.8203897 2.122978
v 0.04687455 -0.9583399 2.574782
v 0.04145086 -0.896349 2.591453
v 0.2755355 -0.9319319 2.096819
v 0.6118623 -0.9601005 2.116739
v 0.587775 -1.036057 2.099214
v 0.5846334 -0.9974168 2.125969
v 0.6422297 -0.9614308 2.080755
v 0.6181408 -1.037386 2.06323
v 0.6453697 -1.000069 2.053999
v 0.1316127 -0.03875406 1.008596
v 0.5408865 0.5793732 1.315461
v 0.03238034 0.09817475 1.01851
v 0.6446308 0.5116751 1.313367
v 1.076968 0.8698127 1.809313
v 1.000193 0.959469 1.811852
v 0.03238034 0.09817475 1.01851
v 0.4670287 0.5764873 1.414893
v -0.09465148 0.1027895 1.130478
v 0.5408865 0.5793732 1.315461
v 1.000193 0.959469 1.811852
v 0.8875427 0.9385837 1.835169
v 0.9945341 0.9418278 2.46778
v 0.9318049 0.9303823 2.482963
v -0.09465148 0.1027895 1.130478
v 0.4969164 0.5059069 1.512232
v -0.1224521 -0.02952829 1.232531
v 0.4670287 0.5764873 1.414893
v 0.8875427 0.9385837 1.835169
v 0.8516628 0.8280399 1.855954
v 0.9114715 0.8690963 2.494249
v 0.9318049 0.9303823 2.482963
v -0.1224521 -0.02952829 1.232531
v 0.6006612 0.4382131 1.510141
v -0.02321902 -0.1664576 1.222616
v 0.4969164 0.5059069 1.512232
v 0.9284364 0.7383841 1.853417
v 0.8516628 0.8280399 1.855954
v -0.02321902 -0.1664576 1.222616
v 0.6745178 0.4410952 1.410708
v 0.1038128 -0.1710723 1.110648
v 0.6006612 0.4382131 1.510141
v 1.041087 0.7592694 1.830098
v 0.9284364 0.7383841 1.853417
v 1.016599 0.8307041 2.475163
v 0.9538681 0.8192554 2.490347
v 0.1038128 -0.1710723 1.110648
v 0.6446308 0.5116751 1.313367
v 0.1316127 -0.03875406 1.008596
v 0.6745178 0.4410952 1.410708
v 1.041087 0.7592694 1.830098
v 1.076968 0.8698127 1.809313
v 1.016599 0.8307041 2.475163
v 1.036934 0.8919896 2.463876
v 0.9318049 0.9303823 2.482963
v 0.9538681 0.8192554 2.490347
v 0.9114715 0.8690963 2.494249
v 0.9945341 0.9418278 2.46778
v 1.016599 0.8307041 2.475163
v 1.036934 0.8919896 2.463876
v 1.000193 0.959469 1.811852
v 1.036934 0.8919896 2.463876
v 0.9945341 0.9418278 2.46778
v 1.076968 0.8698127 1.809313
v 0.9538681 0.8192554 2.490347
v 0.8516628 0.8280399 1.855954
v 0.9114715 0.8690963 2.494249
v 0.9284364 0.7383841 1.853417
v 0.7421163 0.1956521 2.013898
v 0.746102 0.0900158 1.993628
v 0.7135924 0.140643 2.009185
v 0.8031498 0.2000341 2.003055
v 0.8071347 0.0943982 1.982786
v 0.8356586 0.1494073 1.987497
v 0.7400461 0.201162 1.592859
v 0.3496619 0.3378123 1.23065
v 0.3814211 0.2461309 1.174844
v 0.7016842 0.2962748 1.626723
v 0.8356586 0.1494073 1.987497
v 0.8031498 0.2000341 2.003055
v 0.7016842 0.2962748 1.626723
v 0.2643117 0.3323395 1.30116
v 0.3496619 0.3378123 1.23065
v 0.6207328 0.2903721 1.667941
v 0.8031498 0.2000341 2.003055
v 0.7421163 0.1956521 2.013898
v 0.6207328 0.2903721 1.667941
v 0.210717 0.2351829 1.315871
v 0.2643117 0.3323395 1.30116
v 0.5781434 0.1893567 1.675302
v 0.7421163 0.1956521 2.013898
v 0.7135924 0.140643 2.009185
v 0.210717 0.2351829 1.315871
v 0.6165081 0.09424666 1.641442
v 0.2424742 0.1434982 1.260069
v 0.5781434 0.1893567 1.675302
v 0.746102 0.0900158 1.993628
v 0.7135924 0.140643 2.009185
v 0.2424742 0.1434982 1.260069
v 0.6974587 0.1001498 1.600221
v 0.3278264 0.1489743 1.189556
v 0.6165081 0.09424666 1.641442
v 0.8071347 0.0943982 1.982786
v 0.746102 0.0900158 1.993628
v 0.3278264 0.1489743 1.189556
v 0.7400461 0.201162 1.592859
v 0.3814211 0.2461309 1.174844
v 0.6974587 0.1001498 1.600221
v 0.8356586 0.1494073 1.987497
v 0.8071347 0.0943982 1.982786
v 0.08350121 0.1740067 1.434738
v 0.4306091 0.1514653 1.540931
v 0.148344 0.03658181 1.434738
v 0.4198155 0.2249336 1.540931
v 0.1956396 0.2617092 1.504217
v 0.1448444 -0.08434824 1.27527
v 0.4306091 0.1514653 1.540931
v 0.5025429 0.1813558 1.414171
v 0.148344 0.03658181 1.434738
v 0.4198155 0.2249336 1.540931
v 0.5025429 0.1813558 1.414171
v 0.4306091 0.1514653 1.540931
v 0.4852076 0.3021623 1.363077
v 0.2004372 0.3181615 1.27527
v 0.08350121 0.1740067 1.434738
v 0.01609424 0.1574456 1.173083
v 0.1956396 0.2617092 1.504217
v 0.01609424 0.1574456 1.173083
v 0.148344 0.03658181 1.434738
v 0.1448444 -0.08434824 1.27527
v 0.08350121 0.1740067 1.434738
v 0.1956396 0.2617092 1.504217
v 0.4852076 0.3021623 1.363077
v 0.4198155 0.2249336 1.540931
v 0.2004372 0.3181615 1.27527
v -0.8160523 0.5149699 2.581772
v -0.8487322 0.1826429 2.407863
v -0.8922035 0.4537735 2.572353
v -0.7923604 0.191691 2.397731
v -0.7888234 0.4021431 2.517353
v -0.7923604 0.191691 2.397731
v -0.8604276 0.236804 2.305744
v -0.8487322 0.1826429 2.407863
v -0.7767393 0.2848833 2.268867
v -0.8265746 0.4024148 2.363517
v -0.8160523 0.5149699 2.581772
v -0.8774367 0.5620592 2.526276
v -0.7888234 0.4021431 2.517353
v -0.8774367 0.5620592 2.526276
v -0.8922035 0.4537735 2.572353
v -0.9728602 0.5023963 2.540282
v -0.8160523 0.5149699 2.581772
v -0.6390108 -0.008744773 2.916964
v -0.7381161 0.07393344 3.112648
v -0.6304316 0.03759373 2.922344
v -0.6889881 0.07861851 3.050777
v -0.8504583 -0.003728325 3.028818
v -0.6390108 -0.008744773 2.916964
v -0.6942445 0.07659622 2.86637
v -0.7158942 0.005310186 3.077405
v -0.7881886 0.08215071 2.959609
v -0.7381161 0.07393344 3.112648
v -0.8820938 0.06171774 3.03543
v -0.6889881 0.07861851 3.050777
v -0.8820938 0.06171774 3.03543
v -0.7158942 0.005310186 3.077405
v -0.8504583 -0.003728325 3.028818
v -0.7381161 0.07393344 3.112648
v -0.6889881 0.07861851 3.050777
v -0.7214559 0.1364312 2.856302
v -0.6304316 0.03759373 2.922344
v -0.7881886 0.08215071 2.959609
v 0.274768 -0.7471113 1.962428
v 0.3393284 -0.9230667 2.002921
v 0.2343274 -0.8252113 1.943571
v 0.368291 -0.8928906 2.016426
v 0.2320343 -0.8645682 1.83398
v 0.3393284 -0.9230667 2.002921
v 0.4120799 -0.9477978 2.013025
v 0.2343274 -0.8252113 1.943571
v 0.4120799 -0.9477978 2.013025
v 0.368291 -0.8928906 2.016426
v 0.4726145 -0.898378 2.007884
v 0.3123998 -0.8021579 1.972101
v 0.4017296 -0.7853179 1.923198
v 0.2969917 -0.7200515 1.813808
v 0.2343274 -0.8252113 1.943571
v 0.2320343 -0.8645682 1.83398
v 0.274768 -0.7471113 1.962428
v 0.1714642 -0.2362883 1.543051
v 0.05985197 -0.5657356 1.767751
v 0.02193759 -0.2633503 1.543051
v 0.1336083 -0.5743209 1.767751
v 0.2271536 -0.3673016 1.731037
v 0.1336083 -0.5743209 1.767751
v 0.07010509 -0.6429516 1.64099
v 0.05985197 -0.5657356 1.767751
v 0.1912823 -0.657476 1.589897
v 0.2804405 -0.3865469 1.51793
v 0.1714642 -0.2362883 1.543051
v 0.172913 -0.1668911 1.417045
v 0.2271536 -0.3673016 1.731037
v 0.172913 -0.1668911 1.417045
v 0.02193759 -0.2633503 1.543051
v -0.09396493 -0.2286736 1.383583
v 0.1714642 -0.2362883 1.543051
v 0.2271536 -0.3673016 1.731037
v 0.1912823 -0.657476 1.589897
v 0.1336083 -0.5743209 1.767751
v 0.2804405 -0.3865469 1.51793
v 0.8436876 0.6774166 1.757191
v 0.6297547 0.4818026 1.605603
v 0.8235266 0.6272908 1.843931
v 0.615609 0.4521422 1.506064
v 0.4359835 0.3363139 1.532288
v 0.3875324 0.226871 1.419949
v 0.4554364 0.5611288 1.438508
v 0.3849632 0.4444485 1.593928
v 0.2953488 0.3999917 1.346785
v 0.4978464 0.5551345 1.594591
v 0.615526 0.7222691 1.695244
v 0.6107275 0.6658173 1.760267
v 0.2953488 0.3999917 1.346785
v 0.4359835 0.3363139 1.532288
v 0.3875324 0.226871 1.419949
v 0.3849632 0.4444485 1.593928
v 0.6107275 0.6658173 1.760267
v 0.8781259 0.7779874 1.783051
v 0.8127318 0.7007554 1.843931
v 0.615526 0.7222691 1.695244
v 0.6107275 0.6658173 1.760267
v 0.5728521 0.5230894 1.636424
v 0.4978464 0.5551345 1.594591
v 0.8127318 0.7007554 1.843931
v 0.8235266 0.6272908 1.843931
v 0.6297547 0.4818026 1.605603
v 0.3849632 0.4444485 1.593928
v 0.4359835 0.3363139 1.532288
v -0.04721559 -0.190778 1.740156
v -0.5006639 0.06507891 2.195878
v -0.006829531 -0.07823776 1.740156
v -0.5449783 0.00549827 2.195878
v -0.3774329 -0.1126344 2.006941
v -0.4207441 -0.149161 1.941918
v -0.04721559 -0.190778 1.740156
v 0.04758672 -0.222711 1.493012
v -0.3774329 -0.1126344 2.006941
v 0.04758672 -0.222711 1.493012
v -0.006829531 -0.07823776 1.740156
v 0.1048191 -0.03511025 1.566177
v -0.04721559 -0.190778 1.740156
v -0.3774329 -0.1126344 2.006941
v -0.6458296 -0.002873683 2.134998
v -0.5449783 0.00549827 2.195878
v -0.4207441 -0.149161 1.941918

vn 0.3530273 -0.5698242 -0.7421875
vn 0.3530273 -0.5698242 -0.7421875
vn 0.3530273 -0.5698242 -0.7421875
vn 0.3845215 -0.6557617 -0.6494141
vn 0.3845215 -0.6557617 -0.6494141
vn 0.3845215 -0.6557617 -0.6494141
vn -0.09960938 0.3110352 -0.9453125
vn -0.09960938 0.3110352 -0.9453125
vn -0.09960938 0.3110352 -0.9453125
vn 0.3527832 -0.6796875 0.6430664
vn 0.3527832 -0.6796875 0.6430664
vn 0.3527832 -0.6796875 0.6430664
vn -0.5512695 0.8081055 -0.208374
vn -0.5512695 0.8081055 -0.208374
vn -0.5512695 0.8081055 -0.208374
vn -0.5283203 0.800293 -0.2832031
vn -0.5283203 0.800293 -0.2832031
vn -0.5283203 0.800293 -0.2832031
vn -0.4074707 0.527832 0.7456055
vn -0.4074707 0.527832 0.7456055
vn -0.4074707 0.527832 0.7456055
vn -0.4494629 0.6186523 0.6445313
vn -0.4494629 0.6186523 0.6445313
vn -0.4494629 0.6186523 0.6445313
vn 0.1868896 -0.2485352 0.9501953
vn 0.1868896 -0.2485352 0.9501953
vn 0.1868896 -0.2485352 0.9501953
vn -0.4626465 0.7143555 -0.5249023
vn -0.4626465 0.7143555 -0.5249023
vn -0.4626465 0.7143555 -0.5249023
vn 0.5141602 -0.831543 0.2099609
vn 0.5141602 -0.831543 0.2099609
vn 0.5141602 -0.831543 0.2099609
vn 0.4985352 -0.8164063 0.2907715
vn 0.4985352 -0.8164063 0.2907715
vn 0.4985352 -0.8164063 0.2907715
vn -0.3483887 0.5166016 0.7822266
vn -0.5952148 0.04174805 0.8027344
vn -0.628418 -0.07037354 0.7749023
vn -0.5952148 0.04174805 0.8027344
vn -0.3483887 0.5166016 0.7822266
vn -0.2233887 0.6645508 0.7128906
vn 0.7202148 -0.05484009 -0.6914063
vn 0.9287109 -0.2792969 -0.2445068
vn 0.9125977 -0.3342285 0.2352295
vn 0.9287109 -0.2792969 -0.2445068
vn 0.7202148 -0.05484009 -0.6914063
vn 0.4423828 -0.2032471 -0.8735352
vn 0.8134766 0.4748535 -0.3354492
vn 0.8110352 0.4990234 -0.3059082
vn 0.7324219 0.4257813 -0.53125
vn 0.5029297 -0.4680176 -0.7265625
vn 0.5126953 -0.6835938 -0.5195313
vn 0.5703125 -0.7607422 -0.3098145
vn 0.5126953 -0.6835938 -0.5195313
vn 0.5029297 -0.4680176 -0.7265625
vn -0.06158447 0.006896973 -0.9980469
vn -0.09393311 0.9853516 -0.1412354
vn 0.0328064 0.9980469 0.05096436
vn -0.06121826 0.9516602 0.3012695
vn -0.09527588 0.4450684 -0.890625
vn -0.07006836 0.5029297 -0.8613281
vn -0.1826172 0.2176514 -0.9589844
vn -0.07006836 0.5029297 -0.8613281
vn -0.09527588 0.4450684 -0.890625
vn 0.1131592 0.8320313 -0.543457
vn 0.6625977 -0.6938477 0.2824707
vn 0.6625977 -0.6938477 0.2824707
vn 0.6625977 -0.6938477 0.2824707
vn 0.6630859 -0.7485352 0.01332092
vn 0.6630859 -0.7485352 0.01332092
vn 0.6630859 -0.7485352 0.01332092
vn 0.5976563 -0.7998047 -0.05978394
vn 0.5976563 -0.7998047 -0.05978394
vn 0.5976563 -0.7998047 -0.05978394
vn -0.3903809 0.9077148 0.1549072
vn -0.3693848 0.9248047 0.09088135
vn 0.3828125 0.1728516 -0.9077148
vn -0.8168945 0.4743652 0.3278809
vn -0.7143555 0.2086182 0.6679688
vn -0.6489258 0.1099854 0.7529297
vn -0.7143555 0.2086182 0.6679688
vn -0.8168945 0.4743652 0.3278809
vn -0.7978516 0.5991211 0.06970215
vn 0.1911621 0.7197266 -0.6674805
vn 0.8745117 0.3752441 -0.3078613
vn 0.734375 0.2995605 -0.6088867
vn 0.8745117 0.3752441 -0.3078613
vn 0.1911621 0.7197266 -0.6674805
vn 0.04147339 0.8608398 -0.5068359
vn 0.2260742 0.5068359 -0.831543
vn -0.1538086 0.2120361 -0.965332
vn -0.175293 0.192749 -0.965332
vn -0.1538086 0.2120361 -0.965332
vn 0.2260742 0.5068359 -0.831543
vn 0.2929688 0.5493164 -0.7822266
vn -0.0340271 0.8276367 0.5600586
vn -0.2858887 0.9423828 0.1744385
vn -0.1279297 0.9916992 -0.01194
vn -0.2858887 0.9423828 0.1744385
vn -0.0340271 0.8276367 0.5600586
vn 0.06854248 0.6699219 0.7392578
vn -0.4350586 0.8852539 0.1645508
vn 0.01594543 0.8208008 0.5712891
vn 0.1402588 0.9365234 0.3212891
vn 0.4753418 0.07189941 -0.8769531
vn 0.4592285 0.1079102 -0.8818359
vn 0.4787598 0.07336426 -0.875
vn 0.4521484 0.1153564 -0.8842773
vn 0.3359375 0.3283691 -0.8828125
vn 0.3178711 0.3447266 -0.8833008
vn 0.3535156 0.4458008 -0.8222656
vn 0.3608398 0.4484863 -0.8178711
vn 0.4753418 0.1185303 -0.871582
vn 0.4780273 0.09320068 -0.8735352
vn 0.5004883 -0.1569824 -0.8515625
vn 0.503418 -0.1574707 -0.8496094
vn -0.5239258 0.1248169 -0.8427734
vn -0.5449219 0.1166992 -0.8300781
vn -0.5151367 0.1287842 -0.847168
vn -0.5541992 0.1123047 -0.824707
vn -0.559082 -0.03942871 -0.828125
vn -0.5737305 -0.0165863 -0.8188477
vn -0.467041 -0.1429443 -0.8725586
vn -0.46875 -0.1392822 -0.8720703
vn -0.5117188 0.003135681 -0.8588867
vn -0.5195313 0.01676941 -0.8540039
vn -0.4221191 0.168335 -0.890625
vn -0.4099121 0.1655273 -0.8969727
vn -0.9975586 0.06762695 0.02661133
vn -0.9931641 0.1144409 0.02323914
vn -0.9931641 0.1142578 0.02272034
vn -0.9975586 0.06039429 0.02813721
vn -0.9555664 -0.2880859 0.06549072
vn -0.9165039 -0.3959961 0.05871582
vn -0.8359375 -0.5478516 -0.03616333
vn -0.8271484 -0.5595703 -0.0534668
vn -0.9995117 -0.02256775 0.01737976
vn -0.9995117 -0.0249176 0.02285767
vn -0.925293 0.3791504 -0.01263428
vn -0.925293 0.3793945 -0.01693726
vn -0.4746094 0.006595612 0.8803711
vn -0.4794922 0.04876709 0.8759766
vn -0.4794922 0.04876709 0.8759766
vn -0.4716797 -0.004058838 0.8818359
vn -0.3662109 -0.265625 0.8916016
vn -0.3522949 -0.2766113 0.894043
vn -0.4030762 -0.3754883 0.8344727
vn -0.4082031 -0.3759766 0.8320313
vn -0.4833984 0.009658813 0.8754883
vn -0.4797363 0.02958679 0.8769531
vn -0.4621582 0.2658691 0.8461914
vn -0.4621582 0.2658691 0.8461914
vn 0.5395508 0.009117126 0.8417969
vn 0.5249023 0.006813049 0.8510742
vn 0.5195313 0.004447937 0.8544922
vn 0.5454102 0.01143646 0.8383789
vn 0.5297852 0.1459961 0.8354492
vn 0.5473633 0.121521 0.828125
vn 0.3894043 0.2398682 0.8891602
vn 0.3994141 0.2346191 0.8862305
vn 0.5024414 0.1136475 0.8569336
vn 0.5151367 0.1046753 0.8505859
vn 0.4846191 -0.06317139 0.8725586
vn 0.4814453 -0.0614624 0.8745117
vn 0.9995117 0.02485657 -0.02462769
vn 0.9975586 0.06378174 -0.03125
vn 0.9995117 0.0255127 -0.02285767
vn 0.9970703 0.06835938 -0.03390503
vn 0.9223633 0.3791504 -0.07250977
vn 0.8789063 0.4726563 -0.06707764
vn 0.7631836 0.6430664 0.06173706
vn 0.7597656 0.6464844 0.07019043
vn 0.9882813 0.1531982 -0.01159668
vn 0.9863281 0.1633301 -0.02230835
vn 0.9584961 -0.2849121 -0.01564026
vn 0.9584961 -0.2849121 -0.01498413
vn 0.4899902 0.8193359 -0.2980957
vn 0.4899902 0.8193359 -0.2980957
vn 0.4899902 0.8193359 -0.2980957
vn 0.4899902 0.8193359 -0.2980957
vn 0.4899902 0.8193359 -0.2980957
vn 0.4899902 0.8193359 -0.2980957
vn 0.1713867 0.6293945 -0.7578125
vn 0.1608887 0.6240234 -0.7646484
vn 0.1721191 0.6298828 -0.7573242
vn 0.159668 0.6235352 -0.7651367
vn -0.6611328 0.07092285 -0.7470703
vn -0.609375 0.142334 -0.7802734
vn -0.6645508 0.0657959 -0.7446289
vn -0.6015625 0.1520996 -0.7841797
vn -0.8735352 -0.482666 -0.0625
vn -0.8886719 -0.4389648 -0.1322021
vn -0.8725586 -0.4853516 -0.05810547
vn -0.8901367 -0.4335938 -0.140625
vn -0.2585449 -0.5605469 0.7866211
vn -0.2164307 -0.5512695 0.8056641
vn -0.2624512 -0.5615234 0.784668
vn -0.2119141 -0.550293 0.8076172
vn 0.5825195 -0.03201294 0.8120117
vn 0.5551758 -0.05300903 0.8300781
vn 0.5859375 -0.02911377 0.8095703
vn 0.5517578 -0.05557251 0.8320313
vn 0.8388672 0.5336914 0.1086426
vn 0.8417969 0.5141602 0.1627197
vn 0.8383789 0.5356445 0.1033936
vn 0.8422852 0.5117188 0.1691895
vn -0.4899902 0.8193359 0.2980957
vn -0.4899902 0.8193359 0.2980957
vn -0.4899902 0.8193359 0.2980957
vn -0.4899902 0.8193359 0.2980957
vn -0.4899902 0.8193359 0.2980957
vn -0.4899902 0.8193359 0.2980957
vn -0.6391602 -0.7587891 0.1244507
vn -0.8046875 -0.5922852 0.03433228
vn -0.6386719 -0.7592773 0.1221313
vn -0.7885742 -0.6123047 0.05307007
vn -0.9213867 -0.3867188 0.03445435
vn -0.921875 -0.3840332 0.04745483
vn -0.5166016 -0.09588623 0.8505859
vn -0.5849609 0.0005435944 0.8110352
vn -0.5180664 -0.09777832 0.8496094
vn -0.5732422 -0.003715515 0.8193359
vn -0.5668945 0.12854 0.8134766
vn -0.5556641 0.1345215 0.8203125
vn 0.07092285 0.6977539 0.7128906
vn 0.1757813 0.644043 0.7446289
vn 0.06677246 0.6953125 0.7158203
vn 0.1829834 0.6445313 0.7426758
vn 0.3261719 0.5668945 0.7563477
vn 0.3364258 0.5678711 0.7509766
vn 0.5395508 0.8261719 -0.1621094
vn 0.7041016 0.7026367 -0.1053467
vn 0.5375977 0.828125 -0.1582031
vn 0.7216797 0.6850586 -0.100647
vn 0.8642578 0.4975586 -0.07421875
vn 0.8666992 0.4919434 -0.08508301
vn 0.4223633 0.1580811 -0.8925781
vn 0.4824219 0.09960938 -0.8701172
vn 0.4223633 0.1585693 -0.8925781
vn 0.4858398 0.09320068 -0.8691406
vn 0.5078125 -0.008110046 -0.8613281
vn 0.5019531 -0.01425934 -0.8647461
vn -0.1689453 -0.6386719 -0.7509766
vn -0.262207 -0.5454102 -0.7958984
vn -0.168335 -0.6376953 -0.7519531
vn -0.2607422 -0.5512695 -0.7924805
vn -0.3879395 -0.453125 -0.8027344
vn -0.3935547 -0.4555664 -0.7983398
vn -0.3991699 0.8666992 -0.2988281
vn -0.3991699 0.8666992 -0.2988281
vn -0.3991699 0.8666992 -0.2988281
vn -0.3991699 0.8666992 -0.2988281
vn -0.3991699 0.8666992 -0.2988281
vn -0.3991699 0.8666992 -0.2988281
vn 0.6298828 -0.7763672 0.02822876
vn 0.7978516 -0.5698242 0.196167
vn 0.6269531 -0.777832 0.03912354
vn 0.7670898 -0.6279297 0.1304932
vn 0.9003906 -0.09613037 0.4245605
vn 0.9018555 -0.09796143 0.4211426
vn 0.8486328 0.1749268 0.4992676
vn 0.8481445 0.1745605 0.4997559
vn 0.7177734 -0.1314697 -0.684082
vn 0.777832 -0.05667114 -0.6259766
vn 0.7163086 -0.1287842 -0.6860352
vn 0.7885742 -0.03967285 -0.6137695
vn 0.8178711 0.2548828 -0.515625
vn 0.8183594 0.2440186 -0.5205078
vn 0.1223145 0.7568359 -0.6420898
vn 0.02668762 0.6660156 -0.7456055
vn 0.1311035 0.7524414 -0.6455078
vn 0.008750916 0.5737305 -0.8188477
vn -0.08807373 0.394043 -0.9150391
vn -0.09484863 0.3991699 -0.9121094
vn -0.08630371 0.3359375 -0.9379883
vn -0.08551025 0.3364258 -0.9379883
vn -0.4680176 0.8759766 0.1183472
vn -0.7045898 0.7080078 -0.04998779
vn -0.4597168 0.8813477 0.1090088
vn -0.7602539 0.6391602 -0.1140747
vn -0.9008789 0.1888428 -0.390625
vn -0.9018555 0.1917725 -0.3867188
vn -0.8896484 -0.01928711 -0.456543
vn -0.8896484 -0.01934814 -0.456543
vn -0.5791016 0.2868652 0.7631836
vn -0.7353516 0.1306152 0.6650391
vn -0.5786133 0.2756348 0.7675781
vn -0.7089844 0.1832275 0.6811523
vn -0.8217773 -0.1657715 0.5449219
vn -0.8217773 -0.1577148 0.5478516
vn -0.8164063 -0.2727051 0.5092773
vn -0.8164063 -0.2727051 0.5092773
vn -0.03915405 -0.6186523 0.784668
vn 0.003898621 -0.5058594 0.8623047
vn -0.0418396 -0.6147461 0.7875977
vn -0.007553101 -0.565918 0.824707
vn 0.0848999 -0.3068848 0.9477539
vn 0.08862305 -0.2995605 0.949707
vn 0.07452393 -0.1695557 0.9829102
vn 0.0736084 -0.1699219 0.9829102
vn -0.06051636 0.9331055 0.3547363
vn -0.06051636 0.9331055 0.3547363
vn -0.06051636 0.9331055 0.3547363
vn -0.06054688 0.9331055 0.3547363
vn -0.06051636 0.9331055 0.3547363
vn -0.06051636 0.9331055 0.3547363
vn 0.8183594 0.2440186 -0.5205078
vn 0.7895508 0.4284668 -0.4389648
vn 0.7900391 0.4282227 -0.4382324
vn 0.8178711 0.2548828 -0.515625
vn 0.7915039 0.6083984 -0.05545044
vn 0.7915039 0.6083984 -0.05545044
vn 0.7915039 0.6083984 -0.05545044
vn 0.7915039 0.6083984 -0.05545044
vn 0.7915039 0.6083984 -0.05545044
vn 0.7915039 0.6083984 -0.05545044
vn 0.08831787 -0.9213867 -0.378418
vn 0.01760864 -0.8564453 -0.5161133
vn 0.09985352 -0.9204102 -0.3774414
vn 0.003644943 -0.8300781 -0.5576172
vn 0.2626953 -0.4243164 -0.8666992
vn 0.2749023 -0.4121094 -0.8686523
vn -0.7563477 -0.4790039 -0.4455566
vn -0.8168945 -0.3398438 -0.4660645
vn -0.746582 -0.4897461 -0.4504395
vn -0.8276367 -0.3242188 -0.4584961
vn -0.6923828 -0.1811523 -0.6987305
vn -0.6821289 -0.2619629 -0.6826172
vn -0.6601563 0.0243988 -0.7504883
vn -0.6601563 0.02433777 -0.7509766
vn -0.8579102 0.5048828 -0.09368896
vn -0.8525391 0.5214844 0.03884888
vn -0.8598633 0.5009766 -0.09716797
vn -0.8466797 0.5322266 0.01942444
vn -0.9516602 0.2481689 0.1799316
vn -0.934082 0.3183594 0.1627197
vn -0.9746094 0.06848145 0.2127686
vn -0.9750977 0.06854248 0.2120361
vn -0.06256104 0.9487305 0.3095703
vn -0.005958557 0.862793 0.5053711
vn -0.06835938 0.9492188 0.3068848
vn -0.009849548 0.8857422 0.4643555
vn -0.243042 0.5205078 0.8188477
vn -0.2590332 0.5004883 0.8261719
vn 0.7661133 0.5336914 0.357666
vn 0.8291016 0.3483887 0.4370117
vn 0.7548828 0.5498047 0.3574219
vn 0.828125 0.3469238 0.4404297
vn 0.6933594 0.265625 0.6699219
vn 0.6782227 0.328125 0.6577148
vn 0.6801758 0.1152344 0.7236328
vn 0.6801758 0.1152344 0.7236328
vn 0.9013672 -0.4331055 0.01024628
vn 0.8608398 -0.503418 -0.07403564
vn 0.9082031 -0.4187012 0.01448822
vn 0.8583984 -0.5039063 -0.09741211
vn 0.9536133 -0.2370605 -0.1843262
vn 0.9667969 -0.1610107 -0.1990967
vn 0.9692383 0.06848145 -0.236084
vn 0.9697266 0.06842041 -0.2353516
vn 0.1282959 0.9707031 -0.2036133
vn 0.1282959 0.9707031 -0.2036133
vn 0.1282959 0.9707031 -0.2036133
vn 0.1282959 0.9707031 -0.2034912
vn 0.1282959 0.9707031 -0.2036133
vn 0.1282959 0.9707031 -0.2036133
vn 0.2749023 -0.4121094 -0.8686523
vn 0.3149414 0.02401733 -0.9487305
vn 0.3151855 0.02397156 -0.9487305
vn 0.2626953 -0.4243164 -0.8666992
vn -0.3059082 0.1122437 0.9453125
vn -0.2590332 0.5004883 0.8261719
vn -0.3056641 0.1122437 0.9453125
vn -0.243042 0.5205078 0.8188477
vn 0.2504883 0.9663086 0.05661011
vn 0.2504883 0.9663086 0.05661011
vn 0.2504883 0.9663086 0.05661011
vn 0.2504883 0.9663086 0.05661011
vn 0.2504883 0.9663086 0.05657959
vn 0.2504883 0.9663086 0.05657959
vn 0.4482422 -0.3686523 -0.8144531
vn 0.2927246 -0.5180664 -0.8037109
vn 0.2866211 -0.5126953 -0.8095703
vn 0.4450684 -0.3701172 -0.8154297
vn 0.4399414 -0.09442139 -0.8930664
vn 0.4177246 -0.08087158 -0.9047852
vn -0.4926758 0.1778564 -0.8520508
vn -0.5083008 0.09613037 -0.855957
vn -0.5063477 0.09295654 -0.8574219
vn -0.4980469 0.1787109 -0.8486328
vn -0.5097656 0.265625 -0.8183594
vn -0.5180664 0.270752 -0.8115234
vn -0.8291016 0.5541992 0.07653809
vn -0.7514648 0.6586914 -0.03805542
vn -0.7568359 0.6513672 -0.05432129
vn -0.8237305 0.5610352 0.08343506
vn -0.9135742 0.3947754 0.09539795
vn -0.9145508 0.3942871 0.09240723
vn -0.2585449 0.5537109 0.7915039
vn -0.3962402 0.4580078 0.7958984
vn -0.2519531 0.546875 0.7983398
vn -0.3942871 0.4589844 0.7958984
vn -0.3920898 0.2469482 0.8862305
vn -0.3706055 0.2340088 0.8989258
vn 0.5024414 -0.1040649 0.8583984
vn 0.5429688 -0.07861328 0.8359375
vn 0.5004883 -0.100769 0.8598633
vn 0.5429688 -0.08483887 0.8354492
vn 0.5727539 -0.0352478 0.8188477
vn 0.5737305 -0.03598022 0.8178711
vn 0.7880859 -0.6147461 0.03189087
vn 0.8808594 -0.4645996 -0.09094238
vn 0.7924805 -0.6083984 0.04711914
vn 0.8725586 -0.479248 -0.09515381
vn 0.9619141 -0.2568359 -0.09210205
vn 0.9633789 -0.255127 -0.08514404
vn -0.1273193 0.9375 0.3239746
vn -0.2181396 0.953125 0.2106934
vn -0.1815186 0.9443359 0.2749023
vn -0.1843262 0.9521484 0.243042
vn 0.03778076 0.8798828 0.4733887
vn 0.6625977 0.4675293 0.5849609
vn 0.8500977 0.2327881 0.472168
vn 0.9042969 0.1246338 0.4086914
vn 0.4958496 0.6000977 0.6279297
vn 0.1696777 0.5371094 -0.8261719
vn 0.5854492 0.4611816 -0.6669922
vn 0.6611328 0.5117188 -0.5483398
vn -0.1071777 0.4299316 -0.8964844
vn -0.9555664 0.1452637 -0.2558594
vn -0.9541016 0.1499023 -0.2595215
vn -0.9599609 0.1334229 -0.2460938
vn -0.9482422 0.1646729 -0.2717285
vn -0.5585938 0.2719727 0.7832031
vn -0.5566406 0.2702637 0.7856445
vn -0.5776367 0.2871094 0.7641602
vn -0.5332031 0.251709 0.8076172
vn -0.4777832 0.3110352 -0.8217773
vn -0.1071777 0.4299316 -0.8964844
vn 0.1696777 0.5371094 -0.8261719
vn -0.5209961 0.2390137 -0.8193359
vn 0.4450684 0.8496094 0.2822266
vn 0.4440918 0.8515625 0.2785645
vn 0.4743652 0.8417969 0.2580566
vn 0.4311523 0.8549805 0.2885742
vn 0.2641602 0.8691406 0.4177246
vn 0.9125977 -0.3342285 0.2352295
vn 0.581543 -0.5371094 0.6108398
vn 0.5048828 -0.4729004 0.722168
vn 0.9287109 -0.2792969 -0.2445068
vn 0.4892578 -0.2744141 -0.8276367
vn 0.4279785 -0.2998047 -0.8525391
vn 0.3361816 -0.3337402 -0.8808594
vn 0.5976563 -0.2229004 -0.7700195
vn -0.4499512 0.8696289 -0.2037354
vn -0.434082 0.8754883 -0.2133789
vn -0.3103027 0.9077148 -0.2822266
vn -0.5717773 0.8110352 -0.1238403
vn 0.8110352 0.4990234 -0.3059082
vn 0.8134766 0.4748535 -0.3354492
vn 0.8295898 0.512207 -0.2211914
vn 0.8632813 0.4846191 0.1405029
vn 0.3930664 -0.2025146 0.8969727
vn 0.2073975 -0.4702148 0.8579102
vn 0.01507568 -0.6733398 0.7392578
vn 0.5424805 0.1015625 0.8339844
vn -0.6015625 0.08636475 -0.7939453
vn -0.5771484 0.07653809 -0.8129883
vn -0.628418 0.09741211 -0.7714844
vn -0.5351563 0.05999756 -0.8422852
vn -0.1099854 0.8759766 0.4694824
vn -0.07275391 0.8168945 0.5717773
vn -0.1416016 0.9169922 0.3725586
vn -0.04797363 0.7719727 0.6337891
vn -0.227417 0.2259521 -0.9472656
vn -0.06158447 0.006896973 -0.9980469
vn 0.5029297 -0.4680176 -0.7265625
vn -0.6943359 0.3144531 -0.6474609
vn -0.3693848 0.9248047 0.09088135
vn -0.4108887 0.8876953 0.2078857
vn -0.4174805 0.8818359 0.2182617
vn -0.3903809 0.9077148 0.1549072
vn -0.1921387 0.171875 0.9663086
vn 0.1308594 -0.06072998 0.9897461
vn 0.2322998 -0.1348877 0.9633789
vn -0.2939453 0.2440186 0.9243164
vn 0.0328064 0.9980469 0.05096436
vn -0.09393311 0.9853516 -0.1412354
vn -0.06939697 0.9155273 -0.3959961
vn -0.1490479 0.7602539 -0.6323242
vn -0.1365967 0.6923828 -0.7084961
vn -0.9907227 -0.08959961 0.1039429
vn -0.9912109 -0.08526611 0.09936523
vn -0.9829102 -0.1219482 0.1381836
vn -0.9970703 -0.04669189 0.05856323
vn -0.5341797 0.7729492 -0.3427734
vn -0.265625 0.8300781 -0.4902344
vn -0.394043 0.8046875 -0.4443359
vn -0.4147949 0.8164063 -0.4020996
vn -0.8554688 0.5170898 0.02073669
vn 0.7543945 0.5371094 0.3776855
vn 0.4926758 0.4611816 0.737793
vn 0.3586426 0.5117188 0.7807617
vn 0.8876953 0.4382324 0.1413574
vn 0.4035645 0.1983643 -0.8930664
vn 0.4050293 0.2457275 -0.8808594
vn 0.4057617 0.2993164 -0.8637695
vn 0.4008789 0.1520996 -0.9033203
vn -0.6342773 0.4262695 -0.6450195
vn -0.6489258 0.4111328 -0.6401367
vn -0.6791992 0.3779297 -0.6289063
vn -0.5839844 0.4750977 -0.6582031
vn 0.9155273 0.3210449 -0.2425537
vn 0.8876953 0.4382324 0.1413574
vn 0.7543945 0.5371094 0.3776855
vn 0.9248047 0.2558594 -0.2814941
vn 0.9672852 -0.166748 0.1911621
vn 0.9272461 0.1226807 0.3537598
vn 0.9643555 -0.2028809 0.1705322
vn 0.8969727 0.2097168 0.3886719
vn 0.8383789 0.4189453 0.3493652
vn 0.8193359 0.4658203 0.3339844
vn -0.9707031 0.1943359 -0.1428223
vn -0.9628906 0.1799316 -0.2021484
vn -0.9736328 0.1522217 -0.1705322
vn -0.96875 0.2443848 -0.04629517
vn -0.9536133 0.2902832 0.07922363
vn -0.949707 0.302002 0.08532715
vn -0.4960938 0.4824219 0.7216797
vn -0.4519043 0.4506836 0.7700195
vn -0.5893555 0.546875 0.5947266
vn -0.342041 0.3696289 0.8637695
vn -0.6801758 0.5898438 -0.4355469
vn 0.04147339 0.8608398 -0.5068359
vn 0.1911621 0.7197266 -0.6674805
vn -0.675293 0.5986328 -0.4311523
vn 0.07324219 0.7612305 0.644043
vn 0.01594543 0.8208008 0.5712891
vn -0.4350586 0.8852539 0.1645508
vn -0.317627 0.815918 0.4829102
vn -0.4116211 0.7924805 0.449707
vn 0.2666016 0.75 0.6054688
vn 0.1402588 0.9365234 0.3212891
vn 0.2785645 0.8745117 0.3964844
vn 0.6542969 0.7495117 -0.09918213
vn 0.6591797 0.7509766 0.04318237
vn 0.6503906 0.7475586 -0.1331787
vn 0.659668 0.7480469 0.07543945
vn 0.6606445 0.7285156 0.1801758
vn 0.5649414 0.3769531 0.7338867
vn 0.4816895 0.1326904 0.8662109
vn 0.4714355 0.1082764 0.8754883
vn 0.5751953 0.420166 0.7016602
vn 0.9082031 0.4042969 -0.1102905
vn 0.9086914 0.3935547 -0.138916
vn 0.9057617 0.4182129 -0.07049561
vn 0.9082031 0.3752441 -0.1859131
vn 0.3532715 0.5097656 0.784668
vn 0.06854248 0.6699219 0.7392578
vn -0.0340271 0.8276367 0.5600586
vn 0.3603516 0.5327148 0.765625

vt 0.1572266 0.4711914
vt 0.182251 0.4863281
vt 0.1820068 0.4880371
vt 0.182251 0.4863281
vt 0.1572266 0.4711914
vt 0.1563721 0.4680176
vt 0.1556396 0.4680176
vt 0.1820068 0.4880371
vt 0.1800537 0.4902344
vt 0.1820068 0.4880371
vt 0.1556396 0.4680176
vt 0.1572266 0.4711914
vt 0.1783447 0.4909668
vt 0.1556396 0.4680176
vt 0.1800537 0.4902344
vt 0.1556396 0.4680176
vt 0.1783447 0.4909668
vt 0.1531982 0.4699707
vt 0.1785889 0.4892578
vt 0.1531982 0.4699707
vt 0.1783447 0.4909668
vt 0.1531982 0.4699707
vt 0.1785889 0.4892578
vt 0.1523438 0.4667969
vt 0.180542 0.4868164
vt 0.1523438 0.4667969
vt 0.1785889 0.4892578
vt 0.1523438 0.4667969
vt 0.180542 0.4868164
vt 0.1539307 0.4699707
vt 0.1563721 0.4680176
vt 0.180542 0.4868164
vt 0.182251 0.4863281
vt 0.180542 0.4868164
vt 0.1563721 0.4680176
vt 0.1539307 0.4699707
vt 0.8422852 0.597168
vt 0.8432617 0.5771484
vt 0.8349609 0.5693359
vt 0.8432617 0.5771484
vt 0.8422852 0.597168
vt 0.8515625 0.5942383
vt 0.8564453 0.5825195
vt 0.8398438 0.5605469
vt 0.8476563 0.5727539
vt 0.8398438 0.5605469
vt 0.8564453 0.5825195
vt 0.8422852 0.5722656
vt 0.902832 0.6289063
vt 0.8974609 0.6054688
vt 0.9023438 0.6245117
vt 0.8984375 0.6054688
vt 0.8891602 0.6049805
vt 0.8974609 0.6054688
vt 0.8891602 0.6049805
vt 0.8984375 0.6054688
vt 0.8862305 0.6064453
vt 0.918457 0.4580078
vt 0.921875 0.4545898
vt 0.9150391 0.4587402
vt 0.9150391 0.4477539
vt 0.9067383 0.4599609
vt 0.8979492 0.4458008
vt 0.9067383 0.4599609
vt 0.9150391 0.4477539
vt 0.9106445 0.458252
vt 0.9267578 0.449707
vt 0.894043 0.4521484
vt 0.921875 0.4545898
vt 0.894043 0.4521484
vt 0.9150391 0.4477539
vt 0.8979492 0.4458008
vt 0.9267578 0.449707
vt 0.9150391 0.4477539
vt 0.894043 0.4521484
vt 0.918457 0.4580078
vt 0.9067383 0.4599609
vt 0.9106445 0.458252
vt 0.8344727 0.4372559
vt 0.875 0.4587402
vt 0.8666992 0.4472656
vt 0.875 0.4587402
vt 0.8344727 0.4372559
vt 0.8554688 0.4423828
vt 0.9438477 0.4118652
vt 0.9404297 0.4023438
vt 0.9448242 0.4111328
vt 0.9404297 0.4023438
vt 0.9438477 0.4118652
vt 0.9453125 0.4020996
vt 0.8642578 0.4384766
vt 0.8579102 0.534668
vt 0.8510742 0.5390625
vt 0.8579102 0.534668
vt 0.8642578 0.4384766
vt 0.8671875 0.4611816
vt 0.8540039 0.5380859
vt 0.8510742 0.5390625
vt 0.8579102 0.534668
vt 0.8510742 0.5390625
vt 0.8540039 0.5380859
vt 0.8413086 0.5400391
vt 0.8994141 0.4130859
vt 0.9086914 0.411377
vt 0.8901367 0.4208984
vt 0.1610107 0.3557129
vt 0.1502686 0.3989258
vt 0.151123 0.3557129
vt 0.1585693 0.4013672
vt 0.1445313 0.4455566
vt 0.1512451 0.4504395
vt 0.1153564 0.4858398
vt 0.1116943 0.480957
vt 0.102478 0.5063477
vt 0.09790039 0.5063477
vt 0.112915 0.5571289
vt 0.1151733 0.5551758
vt 0.151123 0.3557129
vt 0.1337891 0.3972168
vt 0.1313477 0.3557129
vt 0.1502686 0.3989258
vt 0.1312256 0.4421387
vt 0.1445313 0.4455566
vt 0.1116943 0.480957
vt 0.1027832 0.473877
vt 0.09790039 0.5063477
vt 0.08874512 0.5063477
vt 0.1083374 0.5600586
vt 0.112915 0.5571289
vt 0.1337891 0.3972168
vt 0.12146 0.3557129
vt 0.1313477 0.3557129
vt 0.1254883 0.3979492
vt 0.1312256 0.4421387
vt 0.1245117 0.4433594
vt 0.1027832 0.473877
vt 0.09759521 0.4716797
vt 0.08874512 0.5063477
vt 0.08416748 0.5063477
vt 0.1060181 0.5620117
vt 0.1083374 0.5600586
vt 0.1254883 0.3979492
vt 0.1313477 0.3557129
vt 0.12146 0.3557129
vt 0.1337891 0.4003906
vt 0.1245117 0.4433594
vt 0.1312256 0.4482422
vt 0.1012573 0.4765625
vt 0.09759521 0.4716797
vt 0.08874512 0.5063477
vt 0.08416748 0.5063477
vt 0.1083374 0.5600586
vt 0.1060181 0.5620117
vt 0.1337891 0.4003906
vt 0.151123 0.3557129
vt 0.1313477 0.3557129
vt 0.1502686 0.4020996
vt 0.1312256 0.4482422
vt 0.1445313 0.4516602
vt 0.1101074 0.4836426
vt 0.1012573 0.4765625
vt 0.09790039 0.5063477
vt 0.08874512 0.5063477
vt 0.112915 0.5571289
vt 0.1083374 0.5600586
vt 0.151123 0.3557129
vt 0.1585693 0.4013672
vt 0.1610107 0.3557129
vt 0.1502686 0.4020996
vt 0.1512451 0.4504395
vt 0.1445313 0.4516602
vt 0.1153564 0.4858398
vt 0.1101074 0.4836426
vt 0.102478 0.5063477
vt 0.09790039 0.5063477
vt 0.1151733 0.5551758
vt 0.112915 0.5571289
vt 0.1083374 0.5600586
vt 0.1083374 0.5600586
vt 0.1060181 0.5620117
vt 0.112915 0.5571289
vt 0.112915 0.5571289
vt 0.1151733 0.5551758
vt 0.1045532 0.5351563
vt 0.08215332 0.5556641
vt 0.1034546 0.5317383
vt 0.08380127 0.5566406
vt 0.1034546 0.5317383
vt 0.07885742 0.5532227
vt 0.1011963 0.5258789
vt 0.08215332 0.5556641
vt 0.1011963 0.5258789
vt 0.07720947 0.5522461
vt 0.1000977 0.5229492
vt 0.07885742 0.5532227
vt 0.1000977 0.5229492
vt 0.07885742 0.5532227
vt 0.1011963 0.5258789
vt 0.07720947 0.5522461
vt 0.1011963 0.5258789
vt 0.08215332 0.5556641
vt 0.1034546 0.5317383
vt 0.07885742 0.5532227
vt 0.1034546 0.5317383
vt 0.08380127 0.5566406
vt 0.1045532 0.5351563
vt 0.08215332 0.5556641
vt 0.07885742 0.5532227
vt 0.07885742 0.5532227
vt 0.07720947 0.5522461
vt 0.08215332 0.5556641
vt 0.08215332 0.5556641
vt 0.08380127 0.5566406
vt 0.0993042 0.4833984
vt 0.08026123 0.5043945
vt 0.09484863 0.4853516
vt 0.08361816 0.5024414
vt 0.07751465 0.5268555
vt 0.07897949 0.5263672
vt 0.09484863 0.4853516
vt 0.08154297 0.5078125
vt 0.0960083 0.4914551
vt 0.08026123 0.5043945
vt 0.07861328 0.5283203
vt 0.07751465 0.5268555
vt 0.0960083 0.4914551
vt 0.08618164 0.5097656
vt 0.1015625 0.4956055
vt 0.08154297 0.5078125
vt 0.08123779 0.5288086
vt 0.07861328 0.5283203
vt 0.1015625 0.4956055
vt 0.08947754 0.5083008
vt 0.1060181 0.4936523
vt 0.08618164 0.5097656
vt 0.08270264 0.527832
vt 0.08123779 0.5288086
vt 0.1060181 0.4936523
vt 0.0881958 0.5043945
vt 0.1048584 0.4875488
vt 0.08947754 0.5083008
vt 0.081604 0.5268555
vt 0.08270264 0.527832
vt 0.1048584 0.4875488
vt 0.08361816 0.5024414
vt 0.0993042 0.4833984
vt 0.0881958 0.5043945
vt 0.07897949 0.5263672
vt 0.081604 0.5268555
vt 0.07861328 0.5283203
vt 0.08270264 0.527832
vt 0.08123779 0.5288086
vt 0.07751465 0.5268555
vt 0.081604 0.5268555
vt 0.07897949 0.5263672
vt 0.1409912 0.4282227
vt 0.15979 0.4523926
vt 0.1507568 0.432373
vt 0.1535645 0.4487305
vt 0.152832 0.4868164
vt 0.1586914 0.4890137
vt 0.1409912 0.5180664
vt 0.144165 0.5195313
vt 0.1507568 0.432373
vt 0.1593018 0.4567871
vt 0.1500244 0.4406738
vt 0.15979 0.4523926
vt 0.1586914 0.4890137
vt 0.1582031 0.4907227
vt 0.1500244 0.4406738
vt 0.1524658 0.4575195
vt 0.1396484 0.4448242
vt 0.1593018 0.4567871
vt 0.1582031 0.4907227
vt 0.1516113 0.4899902
vt 0.1402588 0.5200195
vt 0.1439209 0.5205078
vt 0.1396484 0.4448242
vt 0.1462402 0.4538574
vt 0.1298828 0.4406738
vt 0.1524658 0.4575195
vt 0.145752 0.487793
vt 0.1516113 0.4899902
vt 0.1369629 0.5185547
vt 0.1402588 0.5200195
vt 0.1298828 0.4406738
vt 0.1467285 0.4494629
vt 0.1306152 0.432373
vt 0.1462402 0.4538574
vt 0.1462402 0.486084
vt 0.145752 0.487793
vt 0.1373291 0.5175781
vt 0.1369629 0.5185547
vt 0.1306152 0.432373
vt 0.1535645 0.4487305
vt 0.1409912 0.4282227
vt 0.1467285 0.4494629
vt 0.1462402 0.486084
vt 0.152832 0.4868164
vt 0.1373291 0.5175781
vt 0.1409912 0.5180664
vt 0.1439209 0.5205078
vt 0.1369629 0.5185547
vt 0.1402588 0.5200195
vt 0.144165 0.5195313
vt 0.1373291 0.5175781
vt 0.1409912 0.5180664
vt 0.1582031 0.4907227
vt 0.144165 0.5195313
vt 0.1439209 0.5205078
vt 0.1586914 0.4890137
vt 0.1800537 0.4902344
vt 0.1785889 0.4892578
vt 0.1783447 0.4909668
vt 0.1820068 0.4880371
vt 0.180542 0.4868164
vt 0.182251 0.4863281
vt 0.1496582 0.4199219
vt 0.1756592 0.4394531
vt 0.1433105 0.4204102
vt 0.182251 0.439209
vt 0.2097168 0.4707031
vt 0.204834 0.4709473
vt 0.1433105 0.4204102
vt 0.1708984 0.4458008
vt 0.1352539 0.4277344
vt 0.1756592 0.4394531
vt 0.204834 0.4709473
vt 0.1976318 0.4724121
vt 0.2044678 0.5126953
vt 0.2004395 0.5136719
vt 0.1352539 0.4277344
vt 0.1728516 0.4519043
vt 0.1334229 0.434082
vt 0.1708984 0.4458008
vt 0.1976318 0.4724121
vt 0.1953125 0.4736328
vt 0.1990967 0.5141602
vt 0.2004395 0.5136719
vt 0.1334229 0.434082
vt 0.1794434 0.4516602
vt 0.1397705 0.4335938
vt 0.1728516 0.4519043
vt 0.2001953 0.4736328
vt 0.1953125 0.4736328
vt 0.1397705 0.4335938
vt 0.184082 0.4453125
vt 0.1478271 0.4262695
vt 0.1794434 0.4516602
vt 0.2073975 0.472168
vt 0.2001953 0.4736328
vt 0.2058105 0.5131836
vt 0.2017822 0.5141602
vt 0.1478271 0.4262695
vt 0.182251 0.439209
vt 0.1496582 0.4199219
vt 0.184082 0.4453125
vt 0.2073975 0.472168
vt 0.2097168 0.4707031
vt 0.2058105 0.5131836
vt 0.2071533 0.512207
vt 0.2004395 0.5136719
vt 0.2017822 0.5141602
vt 0.1990967 0.5141602
vt 0.2044678 0.5126953
vt 0.2058105 0.5131836
vt 0.2071533 0.512207
vt 0.204834 0.4709473
vt 0.2071533 0.512207
vt 0.2044678 0.5126953
vt 0.2097168 0.4707031
vt 0.2017822 0.5141602
vt 0.1953125 0.4736328
vt 0.1990967 0.5141602
vt 0.2001953 0.4736328
vt 0.1883545 0.4836426
vt 0.1885986 0.4824219
vt 0.1865234 0.4833984
vt 0.1922607 0.4831543
vt 0.1925049 0.4816895
vt 0.1943359 0.4821777
vt 0.1882324 0.4570313
vt 0.1634521 0.434082
vt 0.1655273 0.4304199
vt 0.185791 0.4592285
vt 0.1943359 0.4821777
vt 0.1922607 0.4831543
vt 0.185791 0.4592285
vt 0.1580811 0.4384766
vt 0.1634521 0.434082
vt 0.1806641 0.4616699
vt 0.1922607 0.4831543
vt 0.1883545 0.4836426
vt 0.1806641 0.4616699
vt 0.1546631 0.4394531
vt 0.1580811 0.4384766
vt 0.1779785 0.4621582
vt 0.1883545 0.4836426
vt 0.1865234 0.4833984
vt 0.1546631 0.4394531
vt 0.1804199 0.4602051
vt 0.1566162 0.435791
vt 0.1779785 0.4621582
vt 0.1885986 0.4824219
vt 0.1865234 0.4833984
vt 0.1566162 0.435791
vt 0.1855469 0.4575195
vt 0.1621094 0.4313965
vt 0.1804199 0.4602051
vt 0.1925049 0.4816895
vt 0.1885986 0.4824219
vt 0.1621094 0.4313965
vt 0.1882324 0.4570313
vt 0.1655273 0.4304199
vt 0.1855469 0.4575195
vt 0.1943359 0.4821777
vt 0.1925049 0.4816895
vt 0.8530273 0.4289551
vt 0.8901367 0.4133301
vt 0.8588867 0.4243164
vt 0.8891602 0.4140625
vt 0.8676758 0.4267578
vt 0.847168 0.4111328
vt 0.8901367 0.4133301
vt 0.887207 0.3974609
vt 0.8588867 0.4243164
vt 0.8891602 0.4140625
vt 0.887207 0.3974609
vt 0.8901367 0.4133301
vt 0.8823242 0.3942871
vt 0.8515625 0.4072266
vt 0.8530273 0.4289551
vt 0.8291016 0.4116211
vt 0.8676758 0.4267578
vt 0.8291016 0.4116211
vt 0.8588867 0.4243164
vt 0.847168 0.4111328
vt 0.8530273 0.4289551
vt 0.8676758 0.4267578
vt 0.8823242 0.3942871
vt 0.8891602 0.4140625
vt 0.8515625 0.4072266
vt 0.8583984 0.5898438
vt 0.8432617 0.5771484
vt 0.8515625 0.5942383
vt 0.8476563 0.5727539
vt 0.8564453 0.5825195
vt 0.8476563 0.5727539
vt 0.8349609 0.5693359
vt 0.8432617 0.5771484
vt 0.8398438 0.5605469
vt 0.8422852 0.5722656
vt 0.8583984 0.5898438
vt 0.8496094 0.5893555
vt 0.8564453 0.5825195
vt 0.8496094 0.5893555
vt 0.8515625 0.5942383
vt 0.8422852 0.597168
vt 0.8583984 0.5898438
vt 0.8974609 0.6054688
vt 0.902832 0.6289063
vt 0.8984375 0.6054688
vt 0.9023438 0.6206055
vt 0.887207 0.6298828
vt 0.8974609 0.6054688
vt 0.8891602 0.6049805
vt 0.9023438 0.6245117
vt 0.8876953 0.6196289
vt 0.902832 0.6289063
vt 0.8852539 0.6328125
vt 0.9023438 0.6206055
vt 0.8852539 0.6328125
vt 0.9023438 0.6245117
vt 0.887207 0.6298828
vt 0.902832 0.6289063
vt 0.9023438 0.6206055
vt 0.8862305 0.6064453
vt 0.8984375 0.6054688
vt 0.8876953 0.6196289
vt 0.9067383 0.4599609
vt 0.9150391 0.4587402
vt 0.9018555 0.4611816
vt 0.918457 0.4580078
vt 0.894043 0.4521484
vt 0.9150391 0.4587402
vt 0.921875 0.4545898
vt 0.9018555 0.4611816
vt 0.921875 0.4545898
vt 0.918457 0.4580078
vt 0.9267578 0.449707
vt 0.9106445 0.458252
vt 0.9150391 0.4477539
vt 0.8979492 0.4458008
vt 0.9018555 0.4611816
vt 0.894043 0.4521484
vt 0.9067383 0.4599609
vt 0.8681641 0.4318848
vt 0.875 0.4587402
vt 0.8554688 0.4423828
vt 0.8808594 0.4536133
vt 0.8862305 0.4438477
vt 0.8808594 0.4536133
vt 0.8666992 0.4472656
vt 0.875 0.4587402
vt 0.8735352 0.4343262
vt 0.8759766 0.421875
vt 0.8681641 0.4318848
vt 0.859375 0.4211426
vt 0.8862305 0.4438477
vt 0.859375 0.4211426
vt 0.8554688 0.4423828
vt 0.8344727 0.4372559
vt 0.8681641 0.4318848
vt 0.8862305 0.4438477
vt 0.8735352 0.4343262
vt 0.8808594 0.4536133
vt 0.8759766 0.421875
vt 0.9404297 0.4023438
vt 0.9116211 0.404541
vt 0.9448242 0.4111328
vt 0.9033203 0.3972168
vt 0.8901367 0.4121094
vt 0.8779297 0.4060059
vt 0.8847656 0.402832
vt 0.8901367 0.4208984
vt 0.8647461 0.4064941
vt 0.8994141 0.4130859
vt 0.9165039 0.4130859
vt 0.9208984 0.4189453
vt 0.8647461 0.4064941
vt 0.8901367 0.4121094
vt 0.8779297 0.4060059
vt 0.8901367 0.4208984
vt 0.9208984 0.4189453
vt 0.9453125 0.4020996
vt 0.9438477 0.4118652
vt 0.9165039 0.4130859
vt 0.9208984 0.4189453
vt 0.9086914 0.411377
vt 0.8994141 0.4130859
vt 0.9438477 0.4118652
vt 0.9448242 0.4111328
vt 0.9116211 0.404541
vt 0.8901367 0.4208984
vt 0.8901367 0.4121094
vt 0.8637695 0.4641113
vt 0.8579102 0.534668
vt 0.8671875 0.4611816
vt 0.8540039 0.5380859
vt 0.8549805 0.5102539
vt 0.8466797 0.5078125
vt 0.8637695 0.4641113
vt 0.8544922 0.4365234
vt 0.8549805 0.5102539
vt 0.8544922 0.4365234
vt 0.8671875 0.4611816
vt 0.8642578 0.4384766
vt 0.8637695 0.4641113
vt 0.8549805 0.5102539
vt 0.8413086 0.5400391
vt 0.8540039 0.5380859
vt 0.8466797 0.5078125

g Tree_06_(1)_466_42
usemtl Tree_06_(1)_466_42
usemap Tree_06_(1)_466_42
f 1/1/1 3/3/3 2/2/2
f 4/4/4 6/6/6 5/5/5
f 7/7/7 9/9/9 8/8/8
f 10/10/10 12/12/12 11/11/11
f 13/13/13 15/15/15 14/14/14
f 16/16/16 18/18/18 17/17/17
f 19/19/19 21/21/21 20/20/20
f 22/22/22 24/24/24 23/23/23
f 25/25/25 27/27/27 26/26/26
f 28/28/28 30/30/30 29/29/29
f 31/31/31 33/33/33 32/32/32
f 34/34/34 36/36/36 35/35/35
f 37/37/37 39/39/39 38/38/38
f 40/40/40 42/42/42 41/41/41
f 43/43/43 45/45/45 44/44/44
f 46/46/46 48/48/48 47/47/47
f 49/49/49 51/51/51 50/50/50
f 52/52/52 54/54/54 53/53/53
f 55/55/55 57/57/57 56/56/56
f 58/58/58 60/60/60 59/59/59
f 61/61/61 63/63/63 62/62/62
f 64/64/64 66/66/66 65/65/65
f 67/67/67 69/69/69 68/68/68
f 70/70/70 72/72/72 71/71/71
f 73/73/73 75/75/75 74/74/74
f 76/76/76 78/78/78 77/77/77
f 79/79/79 81/81/81 80/80/80
f 82/82/82 84/84/84 83/83/83
f 85/85/85 87/87/87 86/86/86
f 88/88/88 90/90/90 89/89/89
f 91/91/91 93/93/93 92/92/92
f 94/94/94 96/96/96 95/95/95
f 97/97/97 99/99/99 98/98/98
f 100/100/100 102/102/102 101/101/101
f 103/103/103 105/105/105 104/104/104
f 106/106/106 108/108/108 107/107/107
f 107/107/107 109/109/109 106/106/106
f 109/109/109 107/107/107 110/110/110
f 110/110/110 111/111/111 109/109/109
f 112/112/112 111/111/111 110/110/110
f 110/110/110 113/113/113 112/112/112
f 114/114/114 112/112/112 113/113/113
f 113/113/113 115/115/115 114/114/114
f 114/114/114 115/115/115 116/116/116
f 116/116/116 117/117/117 114/114/114
f 118/118/118 120/120/120 119/119/119
f 119/119/119 121/121/121 118/118/118
f 121/121/121 119/119/119 122/122/122
f 122/122/122 123/123/123 121/121/121
f 124/124/124 123/123/123 122/122/122
f 122/122/122 125/125/125 124/124/124
f 126/126/126 124/124/124 125/125/125
f 125/125/125 127/127/127 126/126/126
f 126/126/126 127/127/127 128/128/128
f 128/128/128 129/129/129 126/126/126
f 130/130/130 132/132/132 131/131/131
f 131/131/131 133/133/133 130/130/130
f 134/134/134 130/130/130 133/133/133
f 133/133/133 135/135/135 134/134/134
f 136/136/136 134/134/134 135/135/135
f 135/135/135 137/137/137 136/136/136
f 138/138/138 136/136/136 137/137/137
f 137/137/137 139/139/139 138/138/138
f 138/138/138 139/139/139 140/140/140
f 140/140/140 141/141/141 138/138/138
f 142/142/142 144/144/144 143/143/143
f 143/143/143 145/145/145 142/142/142
f 146/146/146 142/142/142 145/145/145
f 145/145/145 147/147/147 146/146/146
f 146/146/146 147/147/147 148/148/148
f 148/148/148 149/149/149 146/146/146
f 149/149/149 148/148/148 150/150/150
f 150/150/150 151/151/151 149/149/149
f 151/151/151 150/150/150 152/152/152
f 152/152/152 153/153/153 151/151/151
f 154/154/154 156/156/156 155/155/155
f 155/155/155 157/157/157 154/154/154
f 158/158/158 154/154/154 157/157/157
f 157/157/157 159/159/159 158/158/158
f 158/158/158 159/159/159 160/160/160
f 160/160/160 161/161/161 158/158/158
f 161/161/161 160/160/160 162/162/162
f 162/162/162 163/163/163 161/161/161
f 163/163/163 162/162/162 164/164/164
f 164/164/164 165/165/165 163/163/163
f 166/166/166 168/168/168 167/167/167
f 167/167/167 169/169/169 166/166/166
f 169/169/169 167/167/167 170/170/170
f 170/170/170 171/171/171 169/169/169
f 171/171/171 170/170/170 172/172/172
f 172/172/172 173/173/173 171/171/171
f 173/173/173 172/172/172 174/174/174
f 174/174/174 175/175/175 173/173/173
f 175/175/175 174/174/174 176/176/176
f 176/176/176 177/177/177 175/175/175
f 178/178/178 180/180/180 179/179/179
f 179/179/179 181/181/181 178/178/178
f 181/181/181 179/179/179 182/182/182
f 182/182/182 183/183/183 181/181/181
f 184/184/184 186/186/186 185/185/185
f 185/185/185 187/187/187 184/184/184
f 188/188/188 190/190/190 189/189/189
f 189/189/189 191/191/191 188/188/188
f 192/192/192 194/194/194 193/193/193
f 193/193/193 195/195/195 192/192/192
f 196/196/196 198/198/198 197/197/197
f 197/197/197 199/199/199 196/196/196
f 200/200/200 202/202/202 201/201/201
f 201/201/201 203/203/203 200/200/200
f 204/204/204 206/206/206 205/205/205
f 205/205/205 207/207/207 204/204/204
f 208/208/208 210/210/210 209/209/209
f 209/209/209 211/211/211 208/208/208
f 211/211/211 209/209/209 212/212/212
f 212/212/212 213/213/213 211/211/211
f 214/214/214 216/216/216 215/215/215
f 215/215/215 217/217/217 214/214/214
f 217/217/217 215/215/215 218/218/218
f 218/218/218 219/219/219 217/217/217
f 220/220/220 222/222/222 221/221/221
f 221/221/221 223/223/223 220/220/220
f 223/223/223 221/221/221 224/224/224
f 224/224/224 225/225/225 223/223/223
f 226/226/226 228/228/228 227/227/227
f 227/227/227 229/229/229 226/226/226
f 229/229/229 227/227/227 230/230/230
f 230/230/230 231/231/231 229/229/229
f 232/232/232 234/234/234 233/233/233
f 233/233/233 235/235/235 232/232/232
f 235/235/235 233/233/233 236/236/236
f 236/236/236 237/237/237 235/235/235
f 238/238/238 240/240/240 239/239/239
f 239/239/239 241/241/241 238/238/238
f 241/241/241 239/239/239 242/242/242
f 242/242/242 243/243/243 241/241/241
f 244/244/244 246/246/246 245/245/245
f 245/245/245 247/247/247 244/244/244
f 247/247/247 245/245/245 248/248/248
f 248/248/248 249/249/249 247/247/247
f 250/250/250 252/252/252 251/251/251
f 251/251/251 253/253/253 250/250/250
f 253/253/253 251/251/251 254/254/254
f 254/254/254 255/255/255 253/253/253
f 256/256/256 258/258/258 257/257/257
f 257/257/257 259/259/259 256/256/256
f 260/260/260 259/259/259 257/257/257
f 257/257/257 261/261/261 260/260/260
f 262/262/262 260/260/260 261/261/261
f 261/261/261 263/263/263 262/262/262
f 264/264/264 266/266/266 265/265/265
f 265/265/265 267/267/267 264/264/264
f 268/268/268 267/267/267 265/265/265
f 265/265/265 269/269/269 268/268/268
f 270/270/270 272/272/272 271/271/271
f 271/271/271 273/273/273 270/270/270
f 274/274/274 273/273/273 271/271/271
f 271/271/271 275/275/275 274/274/274
f 274/274/274 275/275/275 276/276/276
f 276/276/276 277/277/277 274/274/274
f 278/278/278 280/280/280 279/279/279
f 279/279/279 281/281/281 278/278/278
f 281/281/281 279/279/279 282/282/282
f 282/282/282 283/283/283 281/281/281
f 283/283/283 282/282/282 284/284/284
f 284/284/284 285/285/285 283/283/283
f 286/286/286 288/288/288 287/287/287
f 287/287/287 289/289/289 286/286/286
f 289/289/289 287/287/287 290/290/290
f 290/290/290 291/291/291 289/289/289
f 291/291/291 290/290/290 292/292/292
f 292/292/292 293/293/293 291/291/291
f 294/294/294 296/296/296 295/295/295
f 295/295/295 297/297/297 294/294/294
f 298/298/298 297/297/297 295/295/295
f 295/295/295 299/299/299 298/298/298
f 300/300/300 298/298/298 299/299/299
f 299/299/299 301/301/301 300/300/300
f 302/302/302 304/304/304 303/303/303
f 303/303/303 305/305/305 302/302/302
f 305/305/305 303/303/303 306/306/306
f 306/306/306 307/307/307 305/305/305
f 308/308/308 310/310/310 309/309/309
f 309/309/309 311/311/311 308/308/308
f 312/312/312 314/314/314 313/313/313
f 313/313/313 315/315/315 312/312/312
f 315/315/315 313/313/313 316/316/316
f 316/316/316 317/317/317 315/315/315
f 318/318/318 320/320/320 319/319/319
f 319/319/319 321/321/321 318/318/318
f 322/322/322 321/321/321 319/319/319
f 319/319/319 323/323/323 322/322/322
f 324/324/324 326/326/326 325/325/325
f 325/325/325 327/327/327 324/324/324
f 328/328/328 327/327/327 325/325/325
f 325/325/325 329/329/329 328/328/328
f 330/330/330 328/328/328 329/329/329
f 329/329/329 331/331/331 330/330/330
f 332/332/332 334/334/334 333/333/333
f 333/333/333 335/335/335 332/332/332
f 336/336/336 335/335/335 333/333/333
f 333/333/333 337/337/337 336/336/336
f 336/336/336 337/337/337 338/338/338
f 338/338/338 339/339/339 336/336/336
f 340/340/340 342/342/342 341/341/341
f 341/341/341 343/343/343 340/340/340
f 343/343/343 341/341/341 344/344/344
f 344/344/344 345/345/345 343/343/343
f 346/346/346 348/348/348 347/347/347
f 347/347/347 349/349/349 346/346/346
f 349/349/349 347/347/347 350/350/350
f 350/350/350 351/351/351 349/349/349
f 351/351/351 350/350/350 352/352/352
f 352/352/352 353/353/353 351/351/351
f 354/354/354 356/356/356 355/355/355
f 355/355/355 357/357/357 354/354/354
f 358/358/358 357/357/357 355/355/355
f 355/355/355 359/359/359 358/358/358
f 360/360/360 358/358/358 359/359/359
f 359/359/359 361/361/361 360/360/360
f 362/362/362 364/364/364 363/363/363
f 363/363/363 365/365/365 362/362/362
f 365/365/365 363/363/363 366/366/366
f 366/366/366 367/367/367 365/365/365
f 368/368/368 370/370/370 369/369/369
f 369/369/369 371/371/371 368/368/368
f 372/372/372 374/374/374 373/373/373
f 373/373/373 375/375/375 372/372/372
f 376/376/376 378/378/378 377/377/377
f 377/377/377 379/379/379 376/376/376
f 379/379/379 377/377/377 380/380/380
f 380/380/380 381/381/381 379/379/379
f 382/382/382 384/384/384 383/383/383
f 383/383/383 385/385/385 382/382/382
f 386/386/386 382/382/382 385/385/385
f 385/385/385 387/387/387 386/386/386
f 388/388/388 390/390/390 389/389/389
f 389/389/389 391/391/391 388/388/388
f 392/392/392 388/388/388 391/391/391
f 391/391/391 393/393/393 392/392/392
f 394/394/394 396/396/396 395/395/395
f 395/395/395 397/397/397 394/394/394
f 398/398/398 394/394/394 397/397/397
f 397/397/397 399/399/399 398/398/398
f 400/400/400 402/402/402 401/401/401
f 401/401/401 403/403/403 400/400/400
f 403/403/403 401/401/401 404/404/404
f 404/404/404 405/405/405 403/403/403
f 406/406/406 408/408/408 407/407/407
f 407/407/407 409/409/409 406/406/406
f 409/409/409 407/407/407 410/410/410
f 410/410/410 411/411/411 409/409/409
f 412/412/412 414/414/414 413/413/413
f 413/413/413 415/415/415 412/412/412
f 415/415/415 413/413/413 416/416/416
f 416/416/416 417/417/417 415/415/415
f 418/418/418 420/420/420 419/419/419
f 419/419/419 421/421/421 418/418/418
f 421/421/421 422/422/422 418/418/418
f 423/423/423 425/425/425 424/424/424
f 424/424/424 426/426/426 423/423/423
f 427/427/427 429/429/429 428/428/428
f 428/428/428 430/430/430 427/427/427
f 431/431/431 433/433/433 432/432/432
f 432/432/432 434/434/434 431/431/431
f 435/435/435 437/437/437 436/436/436
f 436/436/436 438/438/438 435/435/435
f 439/439/439 441/441/441 440/440/440
f 440/440/440 442/442/442 439/439/439
f 443/443/443 445/445/445 444/444/444
f 444/444/444 446/446/446 443/443/443
f 446/446/446 447/447/447 443/443/443
f 448/448/448 450/450/450 449/449/449
f 449/449/449 451/451/451 448/448/448
f 452/452/452 454/454/454 453/453/453
f 453/453/453 455/455/455 452/452/452
f 456/456/456 458/458/458 457/457/457
f 457/457/457 459/459/459 456/456/456
f 460/460/460 462/462/462 461/461/461
f 462/462/462 463/463/463 461/461/461
f 464/464/464 466/466/466 465/465/465
f 465/465/465 467/467/467 464/464/464
f 468/468/468 470/470/470 469/469/469
f 469/469/469 471/471/471 468/468/468
f 472/472/472 474/474/474 473/473/473
f 473/473/473 475/475/475 472/472/472
f 476/476/476 478/478/478 477/477/477
f 477/477/477 479/479/479 476/476/476
f 480/480/480 482/482/482 481/481/481
f 481/481/481 483/483/483 480/480/480
f 484/484/484 486/486/486 485/485/485
f 485/485/485 487/487/487 484/484/484
f 488/488/488 490/490/490 489/489/489
f 491/491/491 489/489/489 490/490/490
f 490/490/490 492/492/492 491/491/491
f 493/493/493 495/495/495 494/494/494
f 494/494/494 496/496/496 493/493/493
f 497/497/497 499/499/499 498/498/498
f 498/498/498 500/500/500 497/497/497
f 500/500/500 501/501/501 497/497/497
f 502/502/502 504/504/504 503/503/503
f 503/503/503 505/505/505 502/502/502
f 506/506/506 508/508/508 507/507/507
f 507/507/507 509/509/509 506/506/506
f 510/510/510 512/512/512 511/511/511
f 511/511/511 513/513/513 510/510/510
f 514/514/514 516/516/516 515/515/515
f 515/515/515 517/517/517 514/514/514
f 518/518/518 520/520/520 519/519/519
f 519/519/519 521/521/521 518/518/518
f 521/521/521 519/519/519 522/522/522
f 522/522/522 523/523/523 521/521/521
f 524/524/524 526/526/526 525/525/525
f 525/525/525 527/527/527 524/524/524
f 528/528/528 524/524/524 527/527/527
f 527/527/527 529/529/529 528/528/528
f 530/530/530 532/532/532 531/531/531
f 531/531/531 533/533/533 530/530/530
f 534/534/534 536/536/536 535/535/535
f 535/535/535 537/537/537 534/534/534
f 538/538/538 540/540/540 539/539/539
f 539/539/539 541/541/541 538/538/538
f 542/542/542 541/541/541 539/539/539
f 539/539/539 543/543/543 542/542/542
f 543/543/543 539/539/539 544/544/544
f 544/544/544 545/545/545 543/543/543
f 546/546/546 548/548/548 547/547/547
f 547/547/547 549/549/549 546/546/546
f 549/549/549 550/550/550 546/546/546
f 551/551/551 553/553/553 552/552/552
f 552/552/552 554/554/554 551/551/551
f 555/555/555 557/557/557 556/556/556
f 556/556/556 558/558/558 555/555/555
f 559/559/559 561/561/561 560/560/560
f 560/560/560 562/562/562 559/559/559
