#Tree_06_(6)_465_52.obj

v 0.2514994 -0.6991794 1.816888
v 0.6453692 -1.000071 2.053999
v 0.64223 -0.9614295 2.080755
v 0.6453692 -1.000071 2.053999
v 0.2514994 -0.6991794 1.816888
v 0.2381233 -0.7664142 1.7669
v 0.2265311 -0.6511595 1.766318
v 0.64223 -0.9614295 2.080755
v 0.6118617 -0.9601019 2.116739
v 0.64223 -0.9614295 2.080755
v 0.2265311 -0.6511595 1.766318
v 0.2514994 -0.6991794 1.816888
v 0.5846341 -0.9974155 2.125969
v 0.2265311 -0.6511595 1.766318
v 0.6118617 -0.9601019 2.116739
v 0.2265311 -0.6511595 1.766318
v 0.5846341 -0.9974155 2.125969
v 0.1881883 -0.7205507 1.796528
v 0.5877743 -1.036057 2.099213
v 0.1881883 -0.7205507 1.796528
v 0.5846341 -0.9974155 2.125969
v 0.1881883 -0.7205507 1.796528
v 0.5877743 -1.036057 2.099213
v 0.1748122 -0.7877865 1.746542
v 0.6181421 -1.037385 2.06323
v 0.1748122 -0.7877865 1.746542
v 0.5877743 -1.036057 2.099213
v 0.1748122 -0.7877865 1.746542
v 0.6181421 -1.037385 2.06323
v 0.19978 -0.8358059 1.797112
v 0.2381233 -0.7664142 1.7669
v 0.6181421 -1.037385 2.06323
v 0.6453692 -1.000071 2.053999
v 0.6181421 -1.037385 2.06323
v 0.2381233 -0.7664142 1.7669
v 0.19978 -0.8358059 1.797112
v -0.9728602 0.5023969 2.540282
v -0.8487309 0.1826444 2.407863
v -0.8604273 0.2368041 2.305744
v -0.8487309 0.1826444 2.407863
v -0.9728602 0.5023969 2.540282
v -0.8922037 0.4537728 2.572353
v -0.788825 0.4021412 2.517352
v -0.7767397 0.2848826 2.268867
v -0.7923598 0.1916921 2.397731
v -0.7767397 0.2848826 2.268867
v -0.788825 0.4021412 2.517352
v -0.826575 0.4024136 2.363517
v -0.7381157 0.07393371 3.112648
v -0.6390103 -0.008744194 2.916964
v -0.7158936 0.005309802 3.077405
v -0.6304327 0.03759303 2.922344
v -0.6942433 0.07659768 2.86637
v -0.6390103 -0.008744194 2.916964
v -0.6942433 0.07659768 2.86637
v -0.6304327 0.03759303 2.922344
v -0.721456 0.1364324 2.856302
v 0.3682898 -0.8928911 2.016426
v 0.4120795 -0.9477978 2.013025
v 0.3393283 -0.9230673 2.00292
v 0.4017305 -0.7853166 1.923197
v 0.2747674 -0.747112 1.962428
v 0.2969921 -0.7200515 1.813807
v 0.2747674 -0.747112 1.962428
v 0.4017305 -0.7853166 1.923197
v 0.3124009 -0.8021564 1.972101
v 0.4726152 -0.8983774 2.007884
v 0.2320332 -0.8645696 1.83398
v 0.4120795 -0.9477978 2.013025
v 0.2320332 -0.8645696 1.83398
v 0.4017305 -0.7853166 1.923197
v 0.2969921 -0.7200515 1.813807
v 0.4726152 -0.8983774 2.007884
v 0.4017305 -0.7853166 1.923197
v 0.2320332 -0.8645696 1.83398
v 0.3682898 -0.8928911 2.016426
v 0.2747674 -0.747112 1.962428
v 0.3124009 -0.8021564 1.972101
v -0.09396514 -0.228673 1.383583
v 0.05985279 -0.5657346 1.767751
v 0.07010504 -0.6429517 1.64099
v 0.05985279 -0.5657346 1.767751
v -0.09396514 -0.228673 1.383583
v 0.02193667 -0.2633519 1.543051
v 0.8127316 0.700756 1.843931
v 0.8436878 0.6774163 1.757191
v 0.8235262 0.6272908 1.843931
v 0.8436878 0.6774163 1.757191
v 0.8127316 0.700756 1.843931
v 0.8781253 0.7779867 1.783051
v 0.1048189 -0.03511086 1.566176
v -0.5006638 0.06507872 2.195878
v -0.5726618 0.09480827 2.186091
v -0.5006638 0.06507872 2.195878
v 0.1048189 -0.03511086 1.566176
v -0.006829845 -0.07823843 1.740156
v -0.5449777 0.005498254 2.195878
v -0.5726618 0.09480827 2.186091
v -0.5006638 0.06507872 2.195878
v -0.5726618 0.09480827 2.186091
v -0.5449777 0.005498254 2.195878
v -0.6458292 -0.002872122 2.134998
v 0.4978456 0.5551322 1.594591
v 0.5728514 0.5230885 1.636423
v 0.384963 0.444449 1.593928
v 0.3117478 -1.680974E-07 -3.087797E-23
v 0.142876 0.1926836 0.6786004
v 0.1558738 0.2699817 4.959319E-17
v 0.27343 -0.02979276 0.7166381
v 0.05244027 0.115386 1.411715
v 0.1576737 -0.05958642 1.48779
v -0.4076183 0.04344478 2.046885
v -0.4653521 0.1932991 1.96963
v -0.6104068 0.1464749 2.368714
v -0.6824242 0.2712125 2.368714
v -0.4460315 0.1084074 3.166455
v -0.4100287 0.03228046 3.141246
v 0.1558738 0.2699817 4.959319E-17
v -0.1182317 0.1853861 0.6513638
v -0.155874 0.2699818 4.959322E-17
v 0.142876 0.1926836 0.6786004
v -0.1580274 0.1007898 1.357242
v 0.05244027 0.115386 1.411715
v -0.4653521 0.1932991 1.96963
v -0.6052371 0.1860013 1.857417
v -0.6824242 0.2712125 2.368714
v -0.8264586 0.271213 2.368714
v -0.5180384 0.1084075 3.216874
v -0.4460315 0.1084074 3.166455
v -0.1182317 0.1853861 0.6513638
v -0.3117478 1.680974E-07 3.087797E-23
v -0.155874 0.2699818 4.959322E-17
v -0.2487855 -0.0443888 0.6621652
v -0.1580274 0.1007898 1.357242
v -0.2632611 -0.08877833 1.378844
v -0.6052371 0.1860013 1.857417
v -0.6873899 0.02884869 1.822459
v -0.8264586 0.271213 2.368714
v -0.8984762 0.1464753 2.368714
v -0.5540414 0.03228066 3.242084
v -0.5180384 0.1084075 3.216874
v -0.2487855 -0.0443888 0.6621652
v -0.1558738 -0.2699817 -4.959319E-17
v -0.3117478 1.680974E-07 3.087797E-23
v -0.1182315 -0.2668662 0.7002029
v -0.2632611 -0.08877833 1.378844
v -0.1580272 -0.2637502 1.45492
v -0.6296567 -0.1210062 1.899713
v -0.6873899 0.02884869 1.822459
v -0.8264588 0.02173763 2.368714
v -0.8984762 0.1464753 2.368714
v -0.5180386 -0.04384631 3.216874
v -0.5540414 0.03228066 3.242084
v -0.1182315 -0.2668662 0.7002029
v 0.155874 -0.2699818 -4.959322E-17
v -0.1558738 -0.2699817 -4.959319E-17
v 0.1428762 -0.2595676 0.7274393
v -0.1580272 -0.2637502 1.45492
v 0.05244 -0.2491545 1.509393
v -0.4897717 -0.1137084 2.011926
v -0.6296567 -0.1210062 1.899713
v -0.6824248 0.02173772 2.368714
v -0.8264588 0.02173763 2.368714
v -0.4460317 -0.04384642 3.166455
v -0.5180386 -0.04384631 3.216874
v 0.155874 -0.2699818 -4.959322E-17
v 0.27343 -0.02979276 0.7166381
v 0.3117478 -1.680974E-07 -3.087797E-23
v 0.1428762 -0.2595676 0.7274393
v 0.1576737 -0.05958642 1.48779
v 0.05244 -0.2491545 1.509393
v -0.4076183 0.04344478 2.046885
v -0.4897717 -0.1137084 2.011926
v -0.6104068 0.1464749 2.368714
v -0.6824248 0.02173772 2.368714
v -0.4100287 0.03228046 3.141246
v -0.4460317 -0.04384642 3.166455
v -0.5180384 0.1084075 3.216874
v -0.5180386 -0.04384631 3.216874
v -0.5540414 0.03228066 3.242084
v -0.4460315 0.1084074 3.166455
v -0.4460317 -0.04384642 3.166455
v -0.4100287 0.03228046 3.141246
v -0.5773627 0.08254448 2.82145
v -0.9303769 0.06062455 3.14383
v -0.5949981 0.1543694 2.772995
v -0.9045997 0.01678977 3.161881
v -0.5949981 0.1543694 2.772995
v -0.981932 0.06062428 3.107731
v -0.6302698 0.1543694 2.676088
v -0.9303769 0.06062455 3.14383
v -0.6302698 0.1543694 2.676088
v -1.00771 0.01678976 3.089682
v -0.6479055 0.08254395 2.627634
v -0.981932 0.06062428 3.107731
v -0.6479055 0.08254395 2.627634
v -0.9819327 -0.02704452 3.107731
v -0.6302695 0.01071949 2.676088
v -1.00771 0.01678976 3.089682
v -0.6302695 0.01071949 2.676088
v -0.9303771 -0.02704479 3.14383
v -0.5949984 0.01071897 2.772995
v -0.9819327 -0.02704452 3.107731
v -0.5949984 0.01071897 2.772995
v -0.9045997 0.01678977 3.161881
v -0.5773627 0.08254448 2.82145
v -0.9303771 -0.02704479 3.14383
v -0.981932 0.06062428 3.107731
v -0.9819327 -0.02704452 3.107731
v -1.00771 0.01678976 3.089682
v -0.9303769 0.06062455 3.14383
v -0.9303771 -0.02704479 3.14383
v -0.9045997 0.01678977 3.161881
v -0.6602614 0.1540792 2.008635
v -0.9596108 0.4482015 2.336961
v -0.7300032 0.0717333 2.039906
v -0.9071572 0.4987167 2.307436
v -1.003027 0.6595646 2.693948
v -0.979826 0.6918144 2.6817
v -0.7300032 0.0717333 2.039906
v -0.9394952 0.4009644 2.396447
v -0.7119935 0.01631398 2.135962
v -0.9596108 0.4482015 2.336961
v -0.9855099 0.6279941 2.714561
v -1.003027 0.6595646 2.693948
v -0.7119935 0.01631398 2.135962
v -0.8669281 0.4042426 2.42641
v -0.6242425 0.04324006 2.200749
v -0.9394952 0.4009644 2.396447
v -0.9447916 0.6286757 2.722925
v -0.9855099 0.6279941 2.714561
v -0.6242425 0.04324006 2.200749
v -0.814475 0.4547572 2.396889
v -0.5545012 0.1255865 2.169479
v -0.8669281 0.4042426 2.42641
v -0.9215905 0.6609256 2.710677
v -0.9447916 0.6286757 2.722925
v -0.5545012 0.1255865 2.169479
v -0.8345901 0.5019948 2.337402
v -0.5725104 0.1810063 2.073422
v -0.814475 0.4547572 2.396889
v -0.9391083 0.6924955 2.690065
v -0.9215905 0.6609256 2.710677
v -0.5725104 0.1810063 2.073422
v -0.9071572 0.4987167 2.307436
v -0.6602614 0.1540792 2.008635
v -0.8345901 0.5019948 2.337402
v -0.979826 0.6918144 2.6817
v -0.9391083 0.6924955 2.690065
v -0.9855099 0.6279941 2.714561
v -0.9215905 0.6609256 2.710677
v -0.9447916 0.6286757 2.722925
v -1.003027 0.6595646 2.693948
v -0.9391083 0.6924955 2.690065
v -0.979826 0.6918144 2.6817
v -0.003043005 -0.2429984 1.140666
v 0.2924225 -0.6375099 1.518534
v 0.1501983 -0.1642172 1.205792
v 0.1939337 -0.6804755 1.461254
v 0.181801 -0.9901145 2.060861
v 0.2755347 -0.9319321 2.096819
v -0.004424881 -0.9903099 2.552495
v 0.04687462 -0.95834 2.574782
v 0.1501983 -0.1642172 1.205792
v 0.2837287 -0.5381454 1.588375
v 0.138846 -0.03446167 1.336043
v 0.2924225 -0.6375099 1.518534
v 0.2755347 -0.9319321 2.096819
v 0.2667012 -0.820389 2.122978
v 0.138846 -0.03446167 1.336043
v 0.1765467 -0.481746 1.600938
v -0.02574751 0.01651268 1.401169
v 0.2837287 -0.5381454 1.588375
v 0.2667012 -0.820389 2.122978
v 0.1641331 -0.7670261 2.113184
v -0.01527236 -0.8663282 2.585843
v 0.04145088 -0.8963493 2.591453
v -0.02574751 0.01651268 1.401169
v 0.078058 -0.5247107 1.543661
v -0.1789894 -0.06226902 1.336043
v 0.1765467 -0.481746 1.600938
v 0.07039902 -0.8252059 2.077229
v 0.1641331 -0.7670261 2.113184
v -0.06657182 -0.898297 2.563558
v -0.01527236 -0.8663282 2.585843
v -0.1789894 -0.06226902 1.336043
v 0.08675121 -0.6240757 1.473819
v -0.1676371 -0.1920246 1.205791
v 0.078058 -0.5247107 1.543661
v 0.07923301 -0.9367495 2.051068
v 0.07039902 -0.8252059 2.077229
v -0.0611486 -0.9602873 2.546884
v -0.06657182 -0.898297 2.563558
v -0.1676371 -0.1920246 1.205791
v 0.1939337 -0.6804755 1.461254
v -0.003043005 -0.2429984 1.140666
v 0.08675121 -0.6240757 1.473819
v 0.07923301 -0.9367495 2.051068
v 0.181801 -0.9901145 2.060861
v -0.0611486 -0.9602873 2.546884
v -0.004424881 -0.9903099 2.552495
v 0.04145088 -0.8963493 2.591453
v -0.06657182 -0.898297 2.563558
v -0.01527236 -0.8663282 2.585843
v 0.04687462 -0.95834 2.574782
v -0.0611486 -0.9602873 2.546884
v -0.004424881 -0.9903099 2.552495
v 0.2667012 -0.820389 2.122978
v 0.04687462 -0.95834 2.574782
v 0.04145088 -0.8963493 2.591453
v 0.2755347 -0.9319321 2.096819
v 0.6118617 -0.9601019 2.116739
v 0.5877743 -1.036057 2.099213
v 0.5846341 -0.9974155 2.125969
v 0.64223 -0.9614295 2.080755
v 0.6181421 -1.037385 2.06323
v 0.6453692 -1.000071 2.053999
v 0.1316131 -0.03875406 1.008595
v 0.5408864 0.5793728 1.315461
v 0.03238042 0.09817544 1.01851
v 0.6446307 0.5116746 1.313367
v 1.076967 0.8698112 1.809313
v 1.000193 0.9594684 1.811852
v 0.03238042 0.09817544 1.01851
v 0.4670295 0.5764877 1.414893
v -0.09465158 0.1027893 1.130477
v 0.5408864 0.5793728 1.315461
v 1.000193 0.9594684 1.811852
v 0.8875412 0.9385823 1.835169
v 0.9945346 0.9418285 2.46778
v 0.9318043 0.9303817 2.482963
v -0.09465158 0.1027893 1.130477
v 0.496917 0.5059077 1.512232
v -0.1224514 -0.0295268 1.232531
v 0.4670295 0.5764877 1.414893
v 0.8875412 0.9385823 1.835169
v 0.8516637 0.8280405 1.855954
v 0.9114721 0.8690961 2.494249
v 0.9318043 0.9303817 2.482963
v -0.1224514 -0.0295268 1.232531
v 0.6006603 0.4382116 1.51014
v -0.02321875 -0.1664574 1.222616
v 0.496917 0.5059077 1.512232
v 0.9284359 0.7383833 1.853417
v 0.8516637 0.8280405 1.855954
v -0.02321875 -0.1664574 1.222616
v 0.6745171 0.4410945 1.410708
v 0.1038132 -0.1710712 1.110647
v 0.6006603 0.4382116 1.51014
v 1.041087 0.7592689 1.830097
v 0.9284359 0.7383833 1.853417
v 1.016599 0.830703 2.475162
v 0.9538686 0.8192568 2.490346
v 0.1038132 -0.1710712 1.110647
v 0.6446307 0.5116746 1.313367
v 0.1316131 -0.03875406 1.008595
v 0.6745171 0.4410945 1.410708
v 1.041087 0.7592689 1.830097
v 1.076967 0.8698112 1.809313
v 1.016599 0.830703 2.475162
v 1.036933 0.8919886 2.463876
v 0.9318043 0.9303817 2.482963
v 0.9538686 0.8192568 2.490346
v 0.9114721 0.8690961 2.494249
v 0.9945346 0.9418285 2.46778
v 1.016599 0.830703 2.475162
v 1.036933 0.8919886 2.463876
v 1.000193 0.9594684 1.811852
v 1.036933 0.8919886 2.463876
v 0.9945346 0.9418285 2.46778
v 1.076967 0.8698112 1.809313
v 0.9538686 0.8192568 2.490346
v 0.8516637 0.8280405 1.855954
v 0.9114721 0.8690961 2.494249
v 0.9284359 0.7383833 1.853417
v 0.7421158 0.1956515 2.013897
v 0.7461017 0.09001552 1.993628
v 0.713592 0.140642 2.009185
v 0.8031504 0.2000344 2.003055
v 0.8071342 0.09439856 1.982785
v 0.835659 0.149408 1.987497
v 0.7400471 0.2011624 1.592859
v 0.3496621 0.3378128 1.230649
v 0.3814215 0.2461302 1.174844
v 0.7016835 0.296274 1.626723
v 0.835659 0.149408 1.987497
v 0.8031504 0.2000344 2.003055
v 0.7016835 0.296274 1.626723
v 0.2643109 0.3323385 1.30116
v 0.3496621 0.3378128 1.230649
v 0.6207311 0.2903707 1.667941
v 0.8031504 0.2000344 2.003055
v 0.7421158 0.1956515 2.013897
v 0.6207311 0.2903707 1.667941
v 0.210717 0.2351829 1.315871
v 0.2643109 0.3323385 1.30116
v 0.5781435 0.1893568 1.675302
v 0.7421158 0.1956515 2.013897
v 0.713592 0.140642 2.009185
v 0.210717 0.2351829 1.315871
v 0.6165071 0.09424514 1.641442
v 0.2424748 0.1434997 1.260069
v 0.5781435 0.1893568 1.675302
v 0.7461017 0.09001552 1.993628
v 0.713592 0.140642 2.009185
v 0.2424748 0.1434997 1.260069
v 0.6974578 0.1001479 1.600221
v 0.3278265 0.1489734 1.189556
v 0.6165071 0.09424514 1.641442
v 0.8071342 0.09439856 1.982785
v 0.7461017 0.09001552 1.993628
v 0.3278265 0.1489734 1.189556
v 0.7400471 0.2011624 1.592859
v 0.3814215 0.2461302 1.174844
v 0.6974578 0.1001479 1.600221
v 0.835659 0.149408 1.987497
v 0.8071342 0.09439856 1.982785
v 0.08350175 0.1740082 1.434738
v 0.4306093 0.1514667 1.540931
v 0.1483431 0.03658003 1.434738
v 0.4198146 0.2249318 1.540931
v 0.1956387 0.2617084 1.504217
v 0.1448444 -0.08434758 1.27527
v 0.4306093 0.1514667 1.540931
v 0.5025417 0.1813549 1.414171
v 0.1483431 0.03658003 1.434738
v 0.4198146 0.2249318 1.540931
v 0.5025417 0.1813549 1.414171
v 0.4306093 0.1514667 1.540931
v 0.4852083 0.3021626 1.363077
v 0.2004363 0.3181603 1.27527
v 0.08350175 0.1740082 1.434738
v 0.01609458 0.1574465 1.173083
v 0.1956387 0.2617084 1.504217
v 0.01609458 0.1574465 1.173083
v 0.1483431 0.03658003 1.434738
v 0.1448444 -0.08434758 1.27527
v 0.08350175 0.1740082 1.434738
v 0.1956387 0.2617084 1.504217
v 0.4852083 0.3021626 1.363077
v 0.4198146 0.2249318 1.540931
v 0.2004363 0.3181603 1.27527
v -0.8160533 0.5149692 2.581771
v -0.8487309 0.1826444 2.407863
v -0.8922037 0.4537728 2.572353
v -0.7923598 0.1916921 2.397731
v -0.788825 0.4021412 2.517352
v -0.7923598 0.1916921 2.397731
v -0.8604273 0.2368041 2.305744
v -0.8487309 0.1826444 2.407863
v -0.7767397 0.2848826 2.268867
v -0.826575 0.4024136 2.363517
v -0.8160533 0.5149692 2.581771
v -0.8774374 0.562058 2.526276
v -0.788825 0.4021412 2.517352
v -0.8774374 0.562058 2.526276
v -0.8922037 0.4537728 2.572353
v -0.9728602 0.5023969 2.540282
v -0.8160533 0.5149692 2.581771
v -0.6390103 -0.008744194 2.916964
v -0.7381157 0.07393371 3.112648
v -0.6304327 0.03759303 2.922344
v -0.6889881 0.07861785 3.050777
v -0.850459 -0.003728559 3.028817
v -0.6390103 -0.008744194 2.916964
v -0.6942433 0.07659768 2.86637
v -0.7158936 0.005309802 3.077405
v -0.788189 0.08214946 2.959609
v -0.7381157 0.07393371 3.112648
v -0.882093 0.06171776 3.03543
v -0.6889881 0.07861785 3.050777
v -0.882093 0.06171776 3.03543
v -0.7158936 0.005309802 3.077405
v -0.850459 -0.003728559 3.028817
v -0.7381157 0.07393371 3.112648
v -0.6889881 0.07861785 3.050777
v -0.721456 0.1364324 2.856302
v -0.6304327 0.03759303 2.922344
v -0.788189 0.08214946 2.959609
v 0.2747674 -0.747112 1.962428
v 0.3393283 -0.9230673 2.00292
v 0.2343278 -0.8252103 1.94357
v 0.3682898 -0.8928911 2.016426
v 0.2320332 -0.8645696 1.83398
v 0.3393283 -0.9230673 2.00292
v 0.4120795 -0.9477978 2.013025
v 0.2343278 -0.8252103 1.94357
v 0.4120795 -0.9477978 2.013025
v 0.3682898 -0.8928911 2.016426
v 0.4726152 -0.8983774 2.007884
v 0.3124009 -0.8021564 1.972101
v 0.4017305 -0.7853166 1.923197
v 0.2969921 -0.7200515 1.813807
v 0.2343278 -0.8252103 1.94357
v 0.2320332 -0.8645696 1.83398
v 0.2747674 -0.747112 1.962428
v 0.1714638 -0.2362885 1.543051
v 0.05985279 -0.5657346 1.767751
v 0.02193667 -0.2633519 1.543051
v 0.1336083 -0.574322 1.767751
v 0.2271524 -0.3673027 1.731037
v 0.1336083 -0.574322 1.767751
v 0.07010504 -0.6429517 1.64099
v 0.05985279 -0.5657346 1.767751
v 0.1912827 -0.6574764 1.589896
v 0.2804399 -0.386548 1.51793
v 0.1714638 -0.2362885 1.543051
v 0.1729135 -0.1668914 1.417045
v 0.2271524 -0.3673027 1.731037
v 0.1729135 -0.1668914 1.417045
v 0.02193667 -0.2633519 1.543051
v -0.09396514 -0.228673 1.383583
v 0.1714638 -0.2362885 1.543051
v 0.2271524 -0.3673027 1.731037
v 0.1912827 -0.6574764 1.589896
v 0.1336083 -0.574322 1.767751
v 0.2804399 -0.386548 1.51793
v 0.8436878 0.6774163 1.757191
v 0.629755 0.4818028 1.605603
v 0.8235262 0.6272908 1.843931
v 0.6156098 0.4521436 1.506064
v 0.4359836 0.3363146 1.532287
v 0.3875318 0.2268709 1.419949
v 0.4554372 0.5611304 1.438508
v 0.384963 0.444449 1.593928
v 0.2953486 0.3999924 1.346784
v 0.4978456 0.5551322 1.594591
v 0.6155247 0.7222685 1.695243
v 0.6107276 0.665816 1.760267
v 0.2953486 0.3999924 1.346784
v 0.4359836 0.3363146 1.532287
v 0.3875318 0.2268709 1.419949
v 0.384963 0.444449 1.593928
v 0.6107276 0.665816 1.760267
v 0.8781253 0.7779867 1.783051
v 0.8127316 0.700756 1.843931
v 0.6155247 0.7222685 1.695243
v 0.6107276 0.665816 1.760267
v 0.5728514 0.5230885 1.636423
v 0.4978456 0.5551322 1.594591
v 0.8127316 0.700756 1.843931
v 0.8235262 0.6272908 1.843931
v 0.629755 0.4818028 1.605603
v 0.384963 0.444449 1.593928
v 0.4359836 0.3363146 1.532287
v -0.04721551 -0.1907782 1.740156
v -0.5006638 0.06507872 2.195878
v -0.006829845 -0.07823843 1.740156
v -0.5449777 0.005498254 2.195878
v -0.3774332 -0.1126342 2.006941
v -0.4207438 -0.1491599 1.941918
v -0.04721551 -0.1907782 1.740156
v 0.04758697 -0.22271 1.493012
v -0.3774332 -0.1126342 2.006941
v 0.04758697 -0.22271 1.493012
v -0.006829845 -0.07823843 1.740156
v 0.1048189 -0.03511086 1.566176
v -0.04721551 -0.1907782 1.740156
v -0.3774332 -0.1126342 2.006941
v -0.6458292 -0.002872122 2.134998
v -0.5449777 0.005498254 2.195878
v -0.4207438 -0.1491599 1.941918

vn 0.1381836 -0.5698242 -0.8100586
vn 0.1381836 -0.5698242 -0.8100586
vn 0.1381836 -0.5698242 -0.8100586
vn 0.1936035 -0.6557617 -0.7294922
vn 0.1936035 -0.6557617 -0.7294922
vn 0.1936035 -0.6557617 -0.7294922
vn -0.3527832 0.3110352 -0.8823242
vn -0.3527832 0.3110352 -0.8823242
vn -0.3527832 0.3110352 -0.8823242
vn 0.5141602 -0.6796875 0.5229492
vn 0.5141602 -0.6796875 0.5229492
vn 0.5141602 -0.6796875 0.5229492
vn -0.5869141 0.8081055 -0.05078125
vn -0.5869141 0.8081055 -0.05078125
vn -0.5869141 0.8081055 -0.05078125
vn -0.5854492 0.800293 -0.1289063
vn -0.5854492 0.800293 -0.1289063
vn -0.5854492 0.800293 -0.1289063
vn -0.1894531 0.527832 0.828125
vn -0.1894531 0.527832 0.828125
vn -0.1894531 0.527832 0.828125
vn -0.2575684 0.6186523 0.7421875
vn -0.2575684 0.6186523 0.7421875
vn -0.2575684 0.6186523 0.7421875
vn 0.4379883 -0.2485352 0.8637695
vn 0.4379883 -0.2485352 0.8637695
vn 0.4379883 -0.2485352 0.8637695
vn -0.5878906 0.7143555 -0.3791504
vn -0.5878906 0.7143555 -0.3791504
vn -0.5878906 0.7143555 -0.3791504
vn 0.5517578 -0.831543 0.06240845
vn 0.5517578 -0.831543 0.06240845
vn 0.5517578 -0.831543 0.06240845
vn 0.559082 -0.8164063 0.1442871
vn 0.559082 -0.8164063 0.1442871
vn 0.559082 -0.8164063 0.1442871
vn -0.1226807 0.5166016 0.847168
vn -0.3544922 0.04174805 0.934082
vn -0.394043 -0.07037354 0.9165039
vn -0.3544922 0.04174805 0.934082
vn -0.1226807 0.5166016 0.847168
vn -0.02125549 0.6645508 0.7470703
vn 0.5048828 -0.05484009 -0.8613281
vn 0.8271484 -0.2792969 -0.4875488
vn 0.9423828 -0.3342285 -0.02157593
vn 0.8271484 -0.2792969 -0.4875488
vn 0.5048828 -0.05484009 -0.8613281
vn 0.1883545 -0.2032471 -0.9609375
vn 0.6918945 0.4748535 -0.5439453
vn 0.6972656 0.4990234 -0.5146484
vn 0.5605469 0.4257813 -0.7104492
vn 0.286377 -0.4680176 -0.8359375
vn 0.3522949 -0.6835938 -0.6391602
vn 0.4645996 -0.7607422 -0.453125
vn 0.3522949 -0.6835938 -0.6391602
vn 0.286377 -0.4680176 -0.8359375
vn -0.3305664 0.006896973 -0.9438477
vn -0.1287842 0.9853516 -0.1104126
vn 0.04541016 0.9980469 0.04013062
vn 0.0229187 0.9516602 0.3063965
vn -0.3337402 0.4450684 -0.8310547
vn -0.3015137 0.5029297 -0.8100586
vn -0.4362793 0.2176514 -0.8730469
vn -0.3015137 0.5029297 -0.8100586
vn -0.3337402 0.4450684 -0.8310547
vn -0.03869629 0.8320313 -0.5537109
vn 0.7143555 -0.6938477 0.09185791
vn 0.7143555 -0.6938477 0.09185791
vn 0.7143555 -0.6938477 0.09185791
vn 0.6420898 -0.7485352 -0.1673584
vn 0.6420898 -0.7485352 -0.1673584
vn 0.6420898 -0.7485352 -0.1673584
vn 0.5585938 -0.7998047 -0.2199707
vn 0.5585938 -0.7998047 -0.2199707
vn 0.5585938 -0.7998047 -0.2199707
vn -0.3334961 0.9077148 0.255127
vn -0.3308105 0.9248047 0.1878662
vn 0.1217651 0.1728516 -0.9775391
vn -0.6972656 0.4743652 0.5375977
vn -0.5063477 0.2086182 0.8369141
vn -0.4196777 0.1099854 0.9008789
vn -0.5063477 0.2086182 0.8369141
vn -0.6972656 0.4743652 0.5375977
vn -0.7490234 0.5991211 0.2839355
vn 0.002664566 0.7197266 -0.6943359
vn 0.7578125 0.3752441 -0.5336914
vn 0.5410156 0.2995605 -0.7856445
vn 0.7578125 0.3752441 -0.5336914
vn 0.002664566 0.7197266 -0.6943359
vn -0.09790039 0.8608398 -0.4992676
vn -0.00844574 0.5068359 -0.8618164
vn -0.4101563 0.2120361 -0.887207
vn -0.4309082 0.192749 -0.8813477
vn -0.4101563 0.2120361 -0.887207
vn -0.00844574 0.5068359 -0.8618164
vn 0.06933594 0.5493164 -0.8325195
vn 0.1193848 0.8276367 0.5478516
vn -0.2276611 0.9423828 0.2456055
vn -0.1263428 0.9916992 0.02328491
vn -0.2276611 0.9423828 0.2456055
vn 0.1193848 0.8276367 0.5478516
vn 0.2668457 0.6699219 0.6928711
vn -0.3740234 0.8852539 0.2766113
vn 0.1705322 0.8208008 0.5454102
vn 0.222168 0.9365234 0.2709961
vn 0.2192383 0.07189941 -0.9731445
vn 0.2022705 0.1079102 -0.9731445
vn 0.2230225 0.07336426 -0.972168
vn 0.1947021 0.1153564 -0.9741211
vn 0.08331299 0.3283691 -0.940918
vn 0.065979 0.3447266 -0.9365234
vn 0.1167603 0.4458008 -0.8876953
vn 0.125 0.4484863 -0.8852539
vn 0.220459 0.1185303 -0.9682617
vn 0.2226563 0.09320068 -0.9702148
vn 0.25 -0.1569824 -0.9555664
vn 0.253418 -0.1574707 -0.9545898
vn -0.7329102 0.1248169 -0.668457
vn -0.75 0.1166992 -0.6508789
vn -0.7260742 0.1287842 -0.675293
vn -0.7573242 0.1123047 -0.6430664
vn -0.7631836 -0.03942871 -0.6450195
vn -0.7749023 -0.0165863 -0.6318359
vn -0.6865234 -0.1429443 -0.7128906
vn -0.6879883 -0.1392822 -0.7119141
vn -0.7260742 0.003135681 -0.6875
vn -0.7324219 0.01676941 -0.6806641
vn -0.6484375 0.168335 -0.7426758
vn -0.6381836 0.1655273 -0.7519531
vn -0.9526367 0.06762695 0.2966309
vn -0.949707 0.1144409 0.2922363
vn -0.949707 0.1142578 0.291748
vn -0.9526367 0.06039429 0.2980957
vn -0.9018555 -0.2880859 0.3225098
vn -0.8657227 -0.3959961 0.3054199
vn -0.8139648 -0.5478516 0.1922607
vn -0.8105469 -0.5595703 0.1733398
vn -0.9570313 -0.02256775 0.2883301
vn -0.9555664 -0.0249176 0.2937012
vn -0.894043 0.3791504 0.2392578
vn -0.8950195 0.3793945 0.2351074
vn -0.2176514 0.006595612 0.9760742
vn -0.2233887 0.04876709 0.9736328
vn -0.2233887 0.04876709 0.9736328
vn -0.2142334 -0.004058838 0.9765625
vn -0.1100464 -0.265625 0.9580078
vn -0.09613037 -0.2766113 0.9560547
vn -0.1611328 -0.3754883 0.9125977
vn -0.166626 -0.3759766 0.9116211
vn -0.2272949 0.009658813 0.9736328
vn -0.2235107 0.02958679 0.9741211
vn -0.2148438 0.2658691 0.9399414
vn -0.2147217 0.2658691 0.9399414
vn 0.7480469 0.009117126 0.6635742
vn 0.7363281 0.006813049 0.6767578
vn 0.7324219 0.004447937 0.6811523
vn 0.7524414 0.01143646 0.6586914
vn 0.7368164 0.1459961 0.6601563
vn 0.7519531 0.121521 0.6479492
vn 0.6166992 0.2398682 0.75
vn 0.625 0.2346191 0.7446289
vn 0.7167969 0.1136475 0.6879883
vn 0.7270508 0.1046753 0.6787109
vn 0.7036133 -0.06317139 0.7080078
vn 0.7006836 -0.0614624 0.7104492
vn 0.9550781 0.02485657 -0.295166
vn 0.9516602 0.06378174 -0.3010254
vn 0.9555664 0.0255127 -0.2937012
vn 0.9501953 0.06835938 -0.3034668
vn 0.8681641 0.3791504 -0.3205566
vn 0.8276367 0.4726563 -0.3032227
vn 0.7514648 0.6430664 -0.1480713
vn 0.75 0.6464844 -0.1387939
vn 0.9477539 0.1531982 -0.2797852
vn 0.9433594 0.1633301 -0.2895508
vn 0.9179688 -0.2849121 -0.2753906
vn 0.918457 -0.2849121 -0.2749023
vn 0.390625 0.8193359 -0.4199219
vn 0.390625 0.8193359 -0.4199219
vn 0.390625 0.8193359 -0.4199219
vn 0.390625 0.8193359 -0.4199219
vn 0.390625 0.8193359 -0.4199219
vn 0.390625 0.8193359 -0.4199219
vn -0.04104614 0.6293945 -0.7758789
vn -0.05291748 0.6245117 -0.7792969
vn -0.04022217 0.6298828 -0.7758789
vn -0.05435181 0.6235352 -0.7797852
vn -0.8393555 0.07092285 -0.5390625
vn -0.7983398 0.142334 -0.5854492
vn -0.8417969 0.0657959 -0.5356445
vn -0.7919922 0.1520996 -0.5913086
vn -0.8579102 -0.482666 0.1772461
vn -0.8911133 -0.4389648 0.1143188
vn -0.8554688 -0.4853516 0.1811523
vn -0.8950195 -0.4335938 0.1065674
vn -0.03503418 -0.5605469 0.8271484
vn 0.01063538 -0.5512695 0.8339844
vn -0.03930664 -0.5615234 0.8266602
vn 0.01554108 -0.550293 0.8349609
vn 0.78125 -0.03201294 0.6235352
vn 0.7597656 -0.05300903 0.6479492
vn 0.7841797 -0.02911377 0.6201172
vn 0.7573242 -0.05557251 0.6508789
vn 0.8364258 0.5336914 -0.1233521
vn 0.8544922 0.5141602 -0.07226563
vn 0.8349609 0.5356445 -0.1282959
vn 0.8564453 0.5117188 -0.06604004
vn -0.390625 0.8193359 0.4199219
vn -0.390625 0.8193359 0.4199219
vn -0.390625 0.8193359 0.4199219
vn -0.390625 0.8193359 0.4199219
vn -0.390625 0.8193359 0.4199219
vn -0.390625 0.8193359 0.4199219
vn -0.5810547 -0.7587891 0.293457
vn -0.7651367 -0.5922852 0.251709
vn -0.581543 -0.7592773 0.2912598
vn -0.7446289 -0.6123047 0.2653809
vn -0.8774414 -0.3867188 0.2836914
vn -0.8745117 -0.3840332 0.2961426
vn -0.2661133 -0.09588623 0.9589844
vn -0.3425293 0.0005435944 0.9394531
vn -0.2675781 -0.09777832 0.9584961
vn -0.3293457 -0.003715515 0.9443359
vn -0.3244629 0.12854 0.9370117
vn -0.3117676 0.1345215 0.9404297
vn 0.2619629 0.6977539 0.6669922
vn 0.371582 0.644043 0.6689453
vn 0.2587891 0.6953125 0.6708984
vn 0.3779297 0.6445313 0.6645508
vn 0.5195313 0.5668945 0.6391602
vn 0.527832 0.5678711 0.6313477
vn 0.4750977 0.8261719 -0.3027344
vn 0.6489258 0.7026367 -0.2927246
vn 0.4746094 0.828125 -0.2983398
vn 0.6669922 0.6850586 -0.2929688
vn 0.8115234 0.4975586 -0.3061523
vn 0.8105469 0.4919434 -0.3173828
vn 0.1639404 0.1580811 -0.9736328
vn 0.2277832 0.09960938 -0.96875
vn 0.1640625 0.1585693 -0.9736328
vn 0.2313232 0.09320068 -0.9682617
vn 0.2546387 -0.008110046 -0.9667969
vn 0.2480469 -0.01425934 -0.96875
vn -0.3666992 -0.6386719 -0.6767578
vn -0.46875 -0.5454102 -0.6948242
vn -0.3662109 -0.6376953 -0.6777344
vn -0.4663086 -0.5512695 -0.6918945
vn -0.5913086 -0.453125 -0.6669922
vn -0.5957031 -0.4555664 -0.6616211
vn -0.465332 0.8666992 -0.1790771
vn -0.465332 0.8666992 -0.1790771
vn -0.465332 0.8666992 -0.1790771
vn -0.4655762 0.8666992 -0.1791992
vn -0.4655762 0.8666992 -0.1790771
vn -0.4655762 0.8666992 -0.1790771
vn 0.6137695 -0.7763672 -0.144043
vn 0.8212891 -0.5698242 -0.02812195
vn 0.6142578 -0.777832 -0.1326904
vn 0.7739258 -0.6279297 -0.08294678
vn 0.9819336 -0.09613037 0.1638184
vn 0.9824219 -0.09796143 0.1602783
vn 0.9521484 0.1749268 0.2498779
vn 0.9521484 0.1745605 0.2504883
vn 0.5048828 -0.1314697 -0.8530273
vn 0.578125 -0.05667114 -0.8139648
vn 0.5029297 -0.1287842 -0.8549805
vn 0.5917969 -0.03967285 -0.8051758
vn 0.6469727 0.2548828 -0.71875
vn 0.6459961 0.2440186 -0.7231445
vn -0.05682373 0.7568359 -0.6513672
vn -0.1768799 0.6660156 -0.7246094
vn -0.04925537 0.7524414 -0.6567383
vn -0.2141113 0.5737305 -0.7905273
vn -0.3334961 0.394043 -0.8564453
vn -0.3391113 0.3991699 -0.8520508
vn -0.3378906 0.3359375 -0.8793945
vn -0.3371582 0.3364258 -0.8793945
vn -0.4182129 0.8759766 0.2410889
vn -0.6918945 0.7080078 0.1433105
vn -0.4128418 0.8813477 0.2298584
vn -0.7626953 0.6391602 0.09686279
vn -0.9731445 0.1888428 -0.1312256
vn -0.9731445 0.1917725 -0.1270752
vn -0.9799805 -0.01928711 -0.1977539
vn -0.9799805 -0.01934814 -0.1976318
vn -0.3498535 0.2868652 0.8916016
vn -0.5268555 0.1306152 0.8398438
vn -0.3483887 0.2756348 0.8959961
vn -0.4970703 0.1832275 0.8481445
vn -0.6430664 -0.1657715 0.7475586
vn -0.6416016 -0.1577148 0.7504883
vn -0.6469727 -0.2727051 0.7119141
vn -0.6469727 -0.2727051 0.7119141
vn 0.1755371 -0.6186523 0.7661133
vn 0.2381592 -0.5058594 0.8291016
vn 0.1737061 -0.6147461 0.769043
vn 0.2167969 -0.565918 0.7954102
vn 0.3393555 -0.3068848 0.8891602
vn 0.3435059 -0.2995605 0.8901367
vn 0.3388672 -0.1695557 0.925293
vn 0.3378906 -0.1699219 0.9257813
vn 0.03817749 0.9331055 0.3579102
vn 0.03817749 0.9331055 0.3579102
vn 0.03817749 0.9331055 0.3579102
vn 0.03811646 0.9331055 0.3579102
vn 0.03817749 0.9331055 0.3579102
vn 0.03817749 0.9331055 0.3579102
vn 0.6459961 0.2440186 -0.7231445
vn 0.640625 0.4284668 -0.637207
vn 0.6416016 0.4282227 -0.6367188
vn 0.6469727 0.2548828 -0.71875
vn 0.746582 0.6083984 -0.2685547
vn 0.746582 0.6083984 -0.2685547
vn 0.746582 0.6083984 -0.2685547
vn 0.746582 0.6083984 -0.2685547
vn 0.746582 0.6083984 -0.2685547
vn 0.746582 0.6083984 -0.2685547
vn -0.01779175 -0.9213867 -0.3881836
vn -0.1233521 -0.8564453 -0.5014648
vn -0.006504059 -0.9204102 -0.3903809
vn -0.1480713 -0.8300781 -0.5375977
vn 0.0174408 -0.4243164 -0.9052734
vn 0.02861023 -0.4121094 -0.9106445
vn -0.8491211 -0.4790039 -0.2232666
vn -0.9125977 -0.3398438 -0.2264404
vn -0.8408203 -0.4897461 -0.2305908
vn -0.9208984 -0.3242188 -0.2164307
vn -0.855957 -0.1811523 -0.4841309
vn -0.8417969 -0.2619629 -0.4716797
vn -0.8393555 0.0243988 -0.5429688
vn -0.8393555 0.02433777 -0.5429688
vn -0.8510742 0.5048828 0.1429443
vn -0.8100586 0.5214844 0.269043
vn -0.8540039 0.5009766 0.1401367
vn -0.8095703 0.5322266 0.2487793
vn -0.8671875 0.2481689 0.4318848
vn -0.8544922 0.3183594 0.4104004
vn -0.8803711 0.06848145 0.4694824
vn -0.8803711 0.06854248 0.4689941
vn 0.02391052 0.9487305 0.3149414
vn 0.1315918 0.862793 0.4880371
vn 0.01759338 0.9492188 0.3139648
vn 0.1166992 0.8857422 0.4494629
vn -0.0113678 0.5205078 0.8540039
vn -0.02468872 0.5004883 0.8652344
vn 0.8344727 0.5336914 0.1358643
vn 0.9169922 0.3483887 0.1953125
vn 0.8237305 0.5498047 0.1387939
vn 0.9165039 0.3469238 0.1987305
vn 0.8496094 0.265625 0.4560547
vn 0.8310547 0.328125 0.4487305
vn 0.8515625 0.1152344 0.5117188
vn 0.8515625 0.1152344 0.5117188
vn 0.8701172 -0.4331055 -0.2351074
vn 0.8085938 -0.503418 -0.3051758
vn 0.8779297 -0.4187012 -0.2327881
vn 0.7993164 -0.5039063 -0.3269043
vn 0.8676758 -0.2370605 -0.4365234
vn 0.8759766 -0.1610107 -0.4543457
vn 0.8686523 0.06848145 -0.4907227
vn 0.8691406 0.06842041 -0.4899902
vn 0.06817627 0.9707031 -0.230835
vn 0.06817627 0.9707031 -0.230835
vn 0.06817627 0.9707031 -0.230835
vn 0.06811523 0.9707031 -0.2307129
vn 0.06817627 0.9707031 -0.230835
vn 0.06817627 0.9707031 -0.230835
vn 0.02861023 -0.4121094 -0.9106445
vn 0.04519653 0.02401733 -0.9985352
vn 0.04562378 0.02397156 -0.9985352
vn 0.0174408 -0.4243164 -0.9052734
vn -0.03735352 0.1122437 0.9931641
vn -0.02468872 0.5004883 0.8652344
vn -0.03726196 0.1122437 0.9931641
vn -0.0113678 0.5205078 0.8540039
vn 0.2563477 0.9663086 -0.01358032
vn 0.2563477 0.9663086 -0.01358032
vn 0.2563477 0.9663086 -0.01358032
vn 0.2563477 0.9663086 -0.01356506
vn 0.2563477 0.9663086 -0.01361084
vn 0.2563477 0.9663086 -0.01361084
vn 0.210083 -0.3686523 -0.9057617
vn 0.06317139 -0.5180664 -0.8530273
vn 0.0559082 -0.5126953 -0.8569336
vn 0.2067871 -0.3701172 -0.9057617
vn 0.1807861 -0.09442139 -0.9790039
vn 0.1561279 -0.08087158 -0.984375
vn -0.7055664 0.1778564 -0.6860352
vn -0.7216797 0.09613037 -0.6855469
vn -0.7202148 0.09295654 -0.6875
vn -0.7099609 0.1787109 -0.6811523
vn -0.7128906 0.265625 -0.6489258
vn -0.7192383 0.270752 -0.6401367
vn -0.7768555 0.5541992 0.2988281
vn -0.7338867 0.6586914 0.1676025
vn -0.7431641 0.6513672 0.1534424
vn -0.7700195 0.5610352 0.3041992
vn -0.8535156 0.3947754 0.3400879
vn -0.8549805 0.3942871 0.3374023
vn -0.03375244 0.5537109 0.8320313
vn -0.1650391 0.4580078 0.8735352
vn -0.02555847 0.546875 0.8369141
vn -0.1630859 0.4589844 0.8730469
vn -0.1364746 0.2469482 0.9594727
vn -0.1125488 0.2340088 0.9658203
vn 0.7167969 -0.1040649 0.6894531
vn 0.75 -0.07861328 0.6567383
vn 0.715332 -0.100769 0.6914063
vn 0.7495117 -0.08483887 0.65625
vn 0.7739258 -0.0352478 0.6323242
vn 0.7749023 -0.03598022 0.6313477
vn 0.7670898 -0.6147461 -0.1834717
vn 0.8227539 -0.4645996 -0.3269043
vn 0.7753906 -0.6083984 -0.1699219
vn 0.8139648 -0.479248 -0.3286133
vn 0.9008789 -0.2568359 -0.3500977
vn 0.9038086 -0.255127 -0.34375
vn -0.03451538 0.9375 0.3461914
vn -0.15271 0.953125 0.2619629
vn -0.09997559 0.9443359 0.3139648
vn -0.1113892 0.9521484 0.2839355
vn 0.164917 0.8798828 0.4453125
vn 0.7963867 0.4675293 0.3830566
vn 0.9467773 0.2327881 0.2232666
vn 0.980957 0.1246338 0.1477051
vn 0.6479492 0.6000977 0.4694824
vn -0.0612793 0.5371094 -0.8413086
vn 0.3820801 0.4611816 -0.8007813
vn 0.4873047 0.5117188 -0.7075195
vn -0.3466797 0.4299316 -0.8334961
vn -0.9892578 0.1452637 0.01358032
vn -0.9887695 0.1499023 0.009460449
vn -0.9907227 0.1334229 0.02398682
vn -0.9863281 0.1646729 -0.003757477
vn -0.3249512 0.2719727 0.9057617
vn -0.3222656 0.2702637 0.9072266
vn -0.3481445 0.2871094 0.8925781
vn -0.2937012 0.251709 0.9223633
vn -0.6831055 0.3110352 -0.6606445
vn -0.3466797 0.4299316 -0.8334961
vn -0.0612793 0.5371094 -0.8413086
vn -0.7241211 0.2390137 -0.6469727
vn 0.5048828 0.8496094 0.1507568
vn 0.5029297 0.8515625 0.1474609
vn 0.5268555 0.8417969 0.1194458
vn 0.4934082 0.8549805 0.1606445
vn 0.3676758 0.8691406 0.3303223
vn 0.9423828 -0.3342285 -0.02157593
vn 0.7255859 -0.5371094 0.4299316
vn 0.6821289 -0.4729004 0.5576172
vn 0.8271484 -0.2792969 -0.4875488
vn 0.2459717 -0.2744141 -0.9296875
vn 0.1801758 -0.2998047 -0.9370117
vn 0.08428955 -0.3337402 -0.9389648
vn 0.3662109 -0.2229004 -0.9033203
vn -0.4885254 0.8696289 -0.0737915
vn -0.4755859 0.8754883 -0.08746338
vn -0.3752441 0.9077148 -0.1873779
vn -0.5839844 0.8110352 0.03619385
vn 0.6972656 0.4990234 -0.5146484
vn 0.6918945 0.4748535 -0.5439453
vn 0.7382813 0.512207 -0.4384766
vn 0.8691406 0.4846191 -0.09942627
vn 0.6220703 -0.2025146 0.7563477
vn 0.4326172 -0.4702148 0.769043
vn 0.2154541 -0.6733398 0.7075195
vn 0.7485352 0.1015625 0.6552734
vn -0.7949219 0.08636475 -0.6005859
vn -0.7763672 0.07653809 -0.6254883
vn -0.8144531 0.09741211 -0.5717773
vn -0.7441406 0.05999756 -0.6650391
vn 0.02172852 0.8759766 0.4816895
vn 0.08544922 0.8168945 0.5703125
vn -0.0350647 0.9169922 0.3972168
vn 0.1259766 0.7719727 0.6230469
vn -0.4763184 0.2259521 -0.8496094
vn -0.3305664 0.006896973 -0.9438477
vn 0.286377 -0.4680176 -0.8359375
vn -0.84375 0.3144531 -0.4345703
vn -0.3308105 0.9248047 0.1878662
vn -0.3388672 0.8876953 0.3117676
vn -0.3425293 0.8818359 0.3234863
vn -0.3334961 0.9077148 0.255127
vn 0.07769775 0.171875 0.9819336
vn 0.3947754 -0.06072998 0.9165039
vn 0.4853516 -0.1348877 0.8637695
vn -0.0317688 0.2440186 0.9692383
vn 0.04541016 0.9980469 0.04013062
vn -0.1287842 0.9853516 -0.1104126
vn -0.1744385 0.9155273 -0.3623047
vn -0.3154297 0.7602539 -0.5683594
vn -0.3239746 0.6923828 -0.6445313
vn -0.9248047 -0.08959961 0.3691406
vn -0.9272461 -0.08526611 0.3649902
vn -0.9082031 -0.1219482 0.4001465
vn -0.9438477 -0.04669189 0.3273926
vn -0.6069336 0.7729492 -0.1846924
vn -0.3886719 0.8300781 -0.3996582
vn -0.5 0.8046875 -0.3205566
vn -0.5083008 0.8164063 -0.2741699
vn -0.8178711 0.5170898 0.2524414
vn 0.8286133 0.5371094 0.1585693
vn 0.6748047 0.4611816 0.5761719
vn 0.5571289 0.5117188 0.6538086
vn 0.8925781 0.4382324 -0.1052246
vn 0.1455078 0.1983643 -0.9692383
vn 0.1505127 0.2457275 -0.9575195
vn 0.1558838 0.2993164 -0.9414063
vn 0.1403809 0.1520996 -0.9785156
vn -0.7856445 0.4262695 -0.4482422
vn -0.7988281 0.4111328 -0.4396973
vn -0.824707 0.3779297 -0.4206543
vn -0.7407227 0.4750977 -0.4748535
vn 0.8149414 0.3210449 -0.4821777
vn 0.8925781 0.4382324 -0.1052246
vn 0.8286133 0.5371094 0.1585693
vn 0.8134766 0.2558594 -0.5219727
vn 0.9829102 -0.166748 -0.07891846
vn 0.9882813 0.1226807 0.08862305
vn 0.9741211 -0.2028809 -0.09790039
vn 0.9692383 0.2097168 0.130249
vn 0.9013672 0.4189453 0.1085205
vn 0.8793945 0.4658203 0.09869385
vn -0.9726563 0.1943359 0.1262207
vn -0.9814453 0.1799316 0.0670166
vn -0.9833984 0.1522217 0.1004028
vn -0.9448242 0.2443848 0.2186279
vn -0.8964844 0.2902832 0.3354492
vn -0.890625 0.302002 0.3400879
vn -0.28125 0.4824219 0.8295898
vn -0.2255859 0.4506836 0.8637695
vn -0.4057617 0.546875 0.7324219
vn -0.09442139 0.3696289 0.9243164
vn -0.7729492 0.5898438 -0.234375
vn -0.09790039 0.8608398 -0.4992676
vn 0.002664566 0.7197266 -0.6943359
vn -0.7670898 0.5986328 -0.2315674
vn 0.2454834 0.7612305 0.6000977
vn 0.1705322 0.8208008 0.5454102
vn -0.3740234 0.8852539 0.2766113
vn -0.1744385 0.815918 0.5512695
vn -0.2739258 0.7924805 0.5449219
vn 0.4211426 0.75 0.5102539
vn 0.222168 0.9365234 0.2709961
vn 0.3759766 0.8745117 0.3059082
vn 0.6030273 0.7495117 -0.2731934
vn 0.6459961 0.7509766 -0.1375732
vn 0.5898438 0.7475586 -0.3049316
vn 0.6552734 0.7480469 -0.1065674
vn 0.6850586 0.7285156 -0.006164551
vn 0.7431641 0.3769531 0.5527344
vn 0.6987305 0.1326904 0.7026367
vn 0.6914063 0.1082764 0.7143555
vn 0.7441406 0.420166 0.519043
vn 0.84375 0.4042969 -0.3527832
vn 0.8369141 0.3935547 -0.3806152
vn 0.8525391 0.4182129 -0.3139648
vn 0.8232422 0.3752441 -0.4257813
vn 0.5532227 0.5097656 0.6591797
vn 0.2668457 0.6699219 0.6928711
vn 0.1193848 0.8276367 0.5478516
vn 0.5551758 0.5327148 0.6391602

vt 0.1572266 0.4711914
vt 0.182251 0.4863281
vt 0.1820068 0.4880371
vt 0.182251 0.4863281
vt 0.1572266 0.4711914
vt 0.1563721 0.4680176
vt 0.1556396 0.4680176
vt 0.1820068 0.4880371
vt 0.1800537 0.4902344
vt 0.1820068 0.4880371
vt 0.1556396 0.4680176
vt 0.1572266 0.4711914
vt 0.1783447 0.4909668
vt 0.1556396 0.4680176
vt 0.1800537 0.4902344
vt 0.1556396 0.4680176
vt 0.1783447 0.4909668
vt 0.1531982 0.4699707
vt 0.1785889 0.4892578
vt 0.1531982 0.4699707
vt 0.1783447 0.4909668
vt 0.1531982 0.4699707
vt 0.1785889 0.4892578
vt 0.1523438 0.4667969
vt 0.180542 0.4868164
vt 0.1523438 0.4667969
vt 0.1785889 0.4892578
vt 0.1523438 0.4667969
vt 0.180542 0.4868164
vt 0.1539307 0.4699707
vt 0.1563721 0.4680176
vt 0.180542 0.4868164
vt 0.182251 0.4863281
vt 0.180542 0.4868164
vt 0.1563721 0.4680176
vt 0.1539307 0.4699707
vt 0.8422852 0.597168
vt 0.8432617 0.5771484
vt 0.8349609 0.5693359
vt 0.8432617 0.5771484
vt 0.8422852 0.597168
vt 0.8515625 0.5942383
vt 0.8564453 0.5825195
vt 0.8398438 0.5605469
vt 0.8476563 0.5727539
vt 0.8398438 0.5605469
vt 0.8564453 0.5825195
vt 0.8422852 0.5722656
vt 0.902832 0.6289063
vt 0.8974609 0.6054688
vt 0.9023438 0.6245117
vt 0.8984375 0.6054688
vt 0.8891602 0.6049805
vt 0.8974609 0.6054688
vt 0.8891602 0.6049805
vt 0.8984375 0.6054688
vt 0.8862305 0.6064453
vt 0.918457 0.4580078
vt 0.921875 0.4545898
vt 0.9150391 0.4587402
vt 0.9150391 0.4477539
vt 0.9067383 0.4599609
vt 0.8979492 0.4458008
vt 0.9067383 0.4599609
vt 0.9150391 0.4477539
vt 0.9106445 0.458252
vt 0.9267578 0.449707
vt 0.894043 0.4521484
vt 0.921875 0.4545898
vt 0.894043 0.4521484
vt 0.9150391 0.4477539
vt 0.8979492 0.4458008
vt 0.9267578 0.449707
vt 0.9150391 0.4477539
vt 0.894043 0.4521484
vt 0.918457 0.4580078
vt 0.9067383 0.4599609
vt 0.9106445 0.458252
vt 0.8344727 0.4372559
vt 0.875 0.4587402
vt 0.8666992 0.4472656
vt 0.875 0.4587402
vt 0.8344727 0.4372559
vt 0.8554688 0.4423828
vt 0.9438477 0.4118652
vt 0.9404297 0.4023438
vt 0.9448242 0.4111328
vt 0.9404297 0.4023438
vt 0.9438477 0.4118652
vt 0.9453125 0.4020996
vt 0.8642578 0.4384766
vt 0.8579102 0.534668
vt 0.8510742 0.5390625
vt 0.8579102 0.534668
vt 0.8642578 0.4384766
vt 0.8671875 0.4611816
vt 0.8540039 0.5380859
vt 0.8510742 0.5390625
vt 0.8579102 0.534668
vt 0.8510742 0.5390625
vt 0.8540039 0.5380859
vt 0.8413086 0.5400391
vt 0.8994141 0.4130859
vt 0.9086914 0.411377
vt 0.8901367 0.4208984
vt 0.1610107 0.3557129
vt 0.1502686 0.3989258
vt 0.151123 0.3557129
vt 0.1585693 0.4013672
vt 0.1445313 0.4455566
vt 0.1512451 0.4504395
vt 0.1153564 0.4858398
vt 0.1116943 0.480957
vt 0.102478 0.5063477
vt 0.09790039 0.5063477
vt 0.112915 0.5571289
vt 0.1151733 0.5551758
vt 0.151123 0.3557129
vt 0.1337891 0.3972168
vt 0.1313477 0.3557129
vt 0.1502686 0.3989258
vt 0.1312256 0.4421387
vt 0.1445313 0.4455566
vt 0.1116943 0.480957
vt 0.1027832 0.473877
vt 0.09790039 0.5063477
vt 0.08874512 0.5063477
vt 0.1083374 0.5600586
vt 0.112915 0.5571289
vt 0.1337891 0.3972168
vt 0.12146 0.3557129
vt 0.1313477 0.3557129
vt 0.1254883 0.3979492
vt 0.1312256 0.4421387
vt 0.1245117 0.4433594
vt 0.1027832 0.473877
vt 0.09759521 0.4716797
vt 0.08874512 0.5063477
vt 0.08416748 0.5063477
vt 0.1060181 0.5620117
vt 0.1083374 0.5600586
vt 0.1254883 0.3979492
vt 0.1313477 0.3557129
vt 0.12146 0.3557129
vt 0.1337891 0.4003906
vt 0.1245117 0.4433594
vt 0.1312256 0.4482422
vt 0.1012573 0.4765625
vt 0.09759521 0.4716797
vt 0.08874512 0.5063477
vt 0.08416748 0.5063477
vt 0.1083374 0.5600586
vt 0.1060181 0.5620117
vt 0.1337891 0.4003906
vt 0.151123 0.3557129
vt 0.1313477 0.3557129
vt 0.1502686 0.4020996
vt 0.1312256 0.4482422
vt 0.1445313 0.4516602
vt 0.1101074 0.4836426
vt 0.1012573 0.4765625
vt 0.09790039 0.5063477
vt 0.08874512 0.5063477
vt 0.112915 0.5571289
vt 0.1083374 0.5600586
vt 0.151123 0.3557129
vt 0.1585693 0.4013672
vt 0.1610107 0.3557129
vt 0.1502686 0.4020996
vt 0.1512451 0.4504395
vt 0.1445313 0.4516602
vt 0.1153564 0.4858398
vt 0.1101074 0.4836426
vt 0.102478 0.5063477
vt 0.09790039 0.5063477
vt 0.1151733 0.5551758
vt 0.112915 0.5571289
vt 0.1083374 0.5600586
vt 0.1083374 0.5600586
vt 0.1060181 0.5620117
vt 0.112915 0.5571289
vt 0.112915 0.5571289
vt 0.1151733 0.5551758
vt 0.1045532 0.5351563
vt 0.08215332 0.5556641
vt 0.1034546 0.5317383
vt 0.08380127 0.5566406
vt 0.1034546 0.5317383
vt 0.07885742 0.5532227
vt 0.1011963 0.5258789
vt 0.08215332 0.5556641
vt 0.1011963 0.5258789
vt 0.07720947 0.5522461
vt 0.1000977 0.5229492
vt 0.07885742 0.5532227
vt 0.1000977 0.5229492
vt 0.07885742 0.5532227
vt 0.1011963 0.5258789
vt 0.07720947 0.5522461
vt 0.1011963 0.5258789
vt 0.08215332 0.5556641
vt 0.1034546 0.5317383
vt 0.07885742 0.5532227
vt 0.1034546 0.5317383
vt 0.08380127 0.5566406
vt 0.1045532 0.5351563
vt 0.08215332 0.5556641
vt 0.07885742 0.5532227
vt 0.07885742 0.5532227
vt 0.07720947 0.5522461
vt 0.08215332 0.5556641
vt 0.08215332 0.5556641
vt 0.08380127 0.5566406
vt 0.0993042 0.4833984
vt 0.08026123 0.5043945
vt 0.09484863 0.4853516
vt 0.08361816 0.5024414
vt 0.07751465 0.5268555
vt 0.07897949 0.5263672
vt 0.09484863 0.4853516
vt 0.08154297 0.5078125
vt 0.0960083 0.4914551
vt 0.08026123 0.5043945
vt 0.07861328 0.5283203
vt 0.07751465 0.5268555
vt 0.0960083 0.4914551
vt 0.08618164 0.5097656
vt 0.1015625 0.4956055
vt 0.08154297 0.5078125
vt 0.08123779 0.5288086
vt 0.07861328 0.5283203
vt 0.1015625 0.4956055
vt 0.08947754 0.5083008
vt 0.1060181 0.4936523
vt 0.08618164 0.5097656
vt 0.08270264 0.527832
vt 0.08123779 0.5288086
vt 0.1060181 0.4936523
vt 0.0881958 0.5043945
vt 0.1048584 0.4875488
vt 0.08947754 0.5083008
vt 0.081604 0.5268555
vt 0.08270264 0.527832
vt 0.1048584 0.4875488
vt 0.08361816 0.5024414
vt 0.0993042 0.4833984
vt 0.0881958 0.5043945
vt 0.07897949 0.5263672
vt 0.081604 0.5268555
vt 0.07861328 0.5283203
vt 0.08270264 0.527832
vt 0.08123779 0.5288086
vt 0.07751465 0.5268555
vt 0.081604 0.5268555
vt 0.07897949 0.5263672
vt 0.1409912 0.4282227
vt 0.15979 0.4523926
vt 0.1507568 0.432373
vt 0.1535645 0.4487305
vt 0.152832 0.4868164
vt 0.1586914 0.4890137
vt 0.1409912 0.5180664
vt 0.144165 0.5195313
vt 0.1507568 0.432373
vt 0.1593018 0.4567871
vt 0.1500244 0.4406738
vt 0.15979 0.4523926
vt 0.1586914 0.4890137
vt 0.1582031 0.4907227
vt 0.1500244 0.4406738
vt 0.1524658 0.4575195
vt 0.1396484 0.4448242
vt 0.1593018 0.4567871
vt 0.1582031 0.4907227
vt 0.1516113 0.4899902
vt 0.1402588 0.5200195
vt 0.1439209 0.5205078
vt 0.1396484 0.4448242
vt 0.1462402 0.4538574
vt 0.1298828 0.4406738
vt 0.1524658 0.4575195
vt 0.145752 0.487793
vt 0.1516113 0.4899902
vt 0.1369629 0.5185547
vt 0.1402588 0.5200195
vt 0.1298828 0.4406738
vt 0.1467285 0.4494629
vt 0.1306152 0.432373
vt 0.1462402 0.4538574
vt 0.1462402 0.486084
vt 0.145752 0.487793
vt 0.1373291 0.5175781
vt 0.1369629 0.5185547
vt 0.1306152 0.432373
vt 0.1535645 0.4487305
vt 0.1409912 0.4282227
vt 0.1467285 0.4494629
vt 0.1462402 0.486084
vt 0.152832 0.4868164
vt 0.1373291 0.5175781
vt 0.1409912 0.5180664
vt 0.1439209 0.5205078
vt 0.1369629 0.5185547
vt 0.1402588 0.5200195
vt 0.144165 0.5195313
vt 0.1373291 0.5175781
vt 0.1409912 0.5180664
vt 0.1582031 0.4907227
vt 0.144165 0.5195313
vt 0.1439209 0.5205078
vt 0.1586914 0.4890137
vt 0.1800537 0.4902344
vt 0.1785889 0.4892578
vt 0.1783447 0.4909668
vt 0.1820068 0.4880371
vt 0.180542 0.4868164
vt 0.182251 0.4863281
vt 0.1496582 0.4199219
vt 0.1756592 0.4394531
vt 0.1433105 0.4204102
vt 0.182251 0.439209
vt 0.2097168 0.4707031
vt 0.204834 0.4709473
vt 0.1433105 0.4204102
vt 0.1708984 0.4458008
vt 0.1352539 0.4277344
vt 0.1756592 0.4394531
vt 0.204834 0.4709473
vt 0.1976318 0.4724121
vt 0.2044678 0.5126953
vt 0.2004395 0.5136719
vt 0.1352539 0.4277344
vt 0.1728516 0.4519043
vt 0.1334229 0.434082
vt 0.1708984 0.4458008
vt 0.1976318 0.4724121
vt 0.1953125 0.4736328
vt 0.1990967 0.5141602
vt 0.2004395 0.5136719
vt 0.1334229 0.434082
vt 0.1794434 0.4516602
vt 0.1397705 0.4335938
vt 0.1728516 0.4519043
vt 0.2001953 0.4736328
vt 0.1953125 0.4736328
vt 0.1397705 0.4335938
vt 0.184082 0.4453125
vt 0.1478271 0.4262695
vt 0.1794434 0.4516602
vt 0.2073975 0.472168
vt 0.2001953 0.4736328
vt 0.2058105 0.5131836
vt 0.2017822 0.5141602
vt 0.1478271 0.4262695
vt 0.182251 0.439209
vt 0.1496582 0.4199219
vt 0.184082 0.4453125
vt 0.2073975 0.472168
vt 0.2097168 0.4707031
vt 0.2058105 0.5131836
vt 0.2071533 0.512207
vt 0.2004395 0.5136719
vt 0.2017822 0.5141602
vt 0.1990967 0.5141602
vt 0.2044678 0.5126953
vt 0.2058105 0.5131836
vt 0.2071533 0.512207
vt 0.204834 0.4709473
vt 0.2071533 0.512207
vt 0.2044678 0.5126953
vt 0.2097168 0.4707031
vt 0.2017822 0.5141602
vt 0.1953125 0.4736328
vt 0.1990967 0.5141602
vt 0.2001953 0.4736328
vt 0.1883545 0.4836426
vt 0.1885986 0.4824219
vt 0.1865234 0.4833984
vt 0.1922607 0.4831543
vt 0.1925049 0.4816895
vt 0.1943359 0.4821777
vt 0.1882324 0.4570313
vt 0.1634521 0.434082
vt 0.1655273 0.4304199
vt 0.185791 0.4592285
vt 0.1943359 0.4821777
vt 0.1922607 0.4831543
vt 0.185791 0.4592285
vt 0.1580811 0.4384766
vt 0.1634521 0.434082
vt 0.1806641 0.4616699
vt 0.1922607 0.4831543
vt 0.1883545 0.4836426
vt 0.1806641 0.4616699
vt 0.1546631 0.4394531
vt 0.1580811 0.4384766
vt 0.1779785 0.4621582
vt 0.1883545 0.4836426
vt 0.1865234 0.4833984
vt 0.1546631 0.4394531
vt 0.1804199 0.4602051
vt 0.1566162 0.435791
vt 0.1779785 0.4621582
vt 0.1885986 0.4824219
vt 0.1865234 0.4833984
vt 0.1566162 0.435791
vt 0.1855469 0.4575195
vt 0.1621094 0.4313965
vt 0.1804199 0.4602051
vt 0.1925049 0.4816895
vt 0.1885986 0.4824219
vt 0.1621094 0.4313965
vt 0.1882324 0.4570313
vt 0.1655273 0.4304199
vt 0.1855469 0.4575195
vt 0.1943359 0.4821777
vt 0.1925049 0.4816895
vt 0.8530273 0.4289551
vt 0.8901367 0.4133301
vt 0.8588867 0.4243164
vt 0.8891602 0.4140625
vt 0.8676758 0.4267578
vt 0.847168 0.4111328
vt 0.8901367 0.4133301
vt 0.887207 0.3974609
vt 0.8588867 0.4243164
vt 0.8891602 0.4140625
vt 0.887207 0.3974609
vt 0.8901367 0.4133301
vt 0.8823242 0.3942871
vt 0.8515625 0.4072266
vt 0.8530273 0.4289551
vt 0.8291016 0.4116211
vt 0.8676758 0.4267578
vt 0.8291016 0.4116211
vt 0.8588867 0.4243164
vt 0.847168 0.4111328
vt 0.8530273 0.4289551
vt 0.8676758 0.4267578
vt 0.8823242 0.3942871
vt 0.8891602 0.4140625
vt 0.8515625 0.4072266
vt 0.8583984 0.5898438
vt 0.8432617 0.5771484
vt 0.8515625 0.5942383
vt 0.8476563 0.5727539
vt 0.8564453 0.5825195
vt 0.8476563 0.5727539
vt 0.8349609 0.5693359
vt 0.8432617 0.5771484
vt 0.8398438 0.5605469
vt 0.8422852 0.5722656
vt 0.8583984 0.5898438
vt 0.8496094 0.5893555
vt 0.8564453 0.5825195
vt 0.8496094 0.5893555
vt 0.8515625 0.5942383
vt 0.8422852 0.597168
vt 0.8583984 0.5898438
vt 0.8974609 0.6054688
vt 0.902832 0.6289063
vt 0.8984375 0.6054688
vt 0.9023438 0.6206055
vt 0.887207 0.6298828
vt 0.8974609 0.6054688
vt 0.8891602 0.6049805
vt 0.9023438 0.6245117
vt 0.8876953 0.6196289
vt 0.902832 0.6289063
vt 0.8852539 0.6328125
vt 0.9023438 0.6206055
vt 0.8852539 0.6328125
vt 0.9023438 0.6245117
vt 0.887207 0.6298828
vt 0.902832 0.6289063
vt 0.9023438 0.6206055
vt 0.8862305 0.6064453
vt 0.8984375 0.6054688
vt 0.8876953 0.6196289
vt 0.9067383 0.4599609
vt 0.9150391 0.4587402
vt 0.9018555 0.4611816
vt 0.918457 0.4580078
vt 0.894043 0.4521484
vt 0.9150391 0.4587402
vt 0.921875 0.4545898
vt 0.9018555 0.4611816
vt 0.921875 0.4545898
vt 0.918457 0.4580078
vt 0.9267578 0.449707
vt 0.9106445 0.458252
vt 0.9150391 0.4477539
vt 0.8979492 0.4458008
vt 0.9018555 0.4611816
vt 0.894043 0.4521484
vt 0.9067383 0.4599609
vt 0.8681641 0.4318848
vt 0.875 0.4587402
vt 0.8554688 0.4423828
vt 0.8808594 0.4536133
vt 0.8862305 0.4438477
vt 0.8808594 0.4536133
vt 0.8666992 0.4472656
vt 0.875 0.4587402
vt 0.8735352 0.4343262
vt 0.8759766 0.421875
vt 0.8681641 0.4318848
vt 0.859375 0.4211426
vt 0.8862305 0.4438477
vt 0.859375 0.4211426
vt 0.8554688 0.4423828
vt 0.8344727 0.4372559
vt 0.8681641 0.4318848
vt 0.8862305 0.4438477
vt 0.8735352 0.4343262
vt 0.8808594 0.4536133
vt 0.8759766 0.421875
vt 0.9404297 0.4023438
vt 0.9116211 0.404541
vt 0.9448242 0.4111328
vt 0.9033203 0.3972168
vt 0.8901367 0.4121094
vt 0.8779297 0.4060059
vt 0.8847656 0.402832
vt 0.8901367 0.4208984
vt 0.8647461 0.4064941
vt 0.8994141 0.4130859
vt 0.9165039 0.4130859
vt 0.9208984 0.4189453
vt 0.8647461 0.4064941
vt 0.8901367 0.4121094
vt 0.8779297 0.4060059
vt 0.8901367 0.4208984
vt 0.9208984 0.4189453
vt 0.9453125 0.4020996
vt 0.9438477 0.4118652
vt 0.9165039 0.4130859
vt 0.9208984 0.4189453
vt 0.9086914 0.411377
vt 0.8994141 0.4130859
vt 0.9438477 0.4118652
vt 0.9448242 0.4111328
vt 0.9116211 0.404541
vt 0.8901367 0.4208984
vt 0.8901367 0.4121094
vt 0.8637695 0.4641113
vt 0.8579102 0.534668
vt 0.8671875 0.4611816
vt 0.8540039 0.5380859
vt 0.8549805 0.5102539
vt 0.8466797 0.5078125
vt 0.8637695 0.4641113
vt 0.8544922 0.4365234
vt 0.8549805 0.5102539
vt 0.8544922 0.4365234
vt 0.8671875 0.4611816
vt 0.8642578 0.4384766
vt 0.8637695 0.4641113
vt 0.8549805 0.5102539
vt 0.8413086 0.5400391
vt 0.8540039 0.5380859
vt 0.8466797 0.5078125

g Tree_06_(6)_465_52
usemtl Tree_06_(6)_465_52
usemap Tree_06_(6)_465_52
f 1/1/1 3/3/3 2/2/2
f 4/4/4 6/6/6 5/5/5
f 7/7/7 9/9/9 8/8/8
f 10/10/10 12/12/12 11/11/11
f 13/13/13 15/15/15 14/14/14
f 16/16/16 18/18/18 17/17/17
f 19/19/19 21/21/21 20/20/20
f 22/22/22 24/24/24 23/23/23
f 25/25/25 27/27/27 26/26/26
f 28/28/28 30/30/30 29/29/29
f 31/31/31 33/33/33 32/32/32
f 34/34/34 36/36/36 35/35/35
f 37/37/37 39/39/39 38/38/38
f 40/40/40 42/42/42 41/41/41
f 43/43/43 45/45/45 44/44/44
f 46/46/46 48/48/48 47/47/47
f 49/49/49 51/51/51 50/50/50
f 52/52/52 54/54/54 53/53/53
f 55/55/55 57/57/57 56/56/56
f 58/58/58 60/60/60 59/59/59
f 61/61/61 63/63/63 62/62/62
f 64/64/64 66/66/66 65/65/65
f 67/67/67 69/69/69 68/68/68
f 70/70/70 72/72/72 71/71/71
f 73/73/73 75/75/75 74/74/74
f 76/76/76 78/78/78 77/77/77
f 79/79/79 81/81/81 80/80/80
f 82/82/82 84/84/84 83/83/83
f 85/85/85 87/87/87 86/86/86
f 88/88/88 90/90/90 89/89/89
f 91/91/91 93/93/93 92/92/92
f 94/94/94 96/96/96 95/95/95
f 97/97/97 99/99/99 98/98/98
f 100/100/100 102/102/102 101/101/101
f 103/103/103 105/105/105 104/104/104
f 106/106/106 108/108/108 107/107/107
f 107/107/107 109/109/109 106/106/106
f 109/109/109 107/107/107 110/110/110
f 110/110/110 111/111/111 109/109/109
f 112/112/112 111/111/111 110/110/110
f 110/110/110 113/113/113 112/112/112
f 114/114/114 112/112/112 113/113/113
f 113/113/113 115/115/115 114/114/114
f 114/114/114 115/115/115 116/116/116
f 116/116/116 117/117/117 114/114/114
f 118/118/118 120/120/120 119/119/119
f 119/119/119 121/121/121 118/118/118
f 121/121/121 119/119/119 122/122/122
f 122/122/122 123/123/123 121/121/121
f 124/124/124 123/123/123 122/122/122
f 122/122/122 125/125/125 124/124/124
f 126/126/126 124/124/124 125/125/125
f 125/125/125 127/127/127 126/126/126
f 126/126/126 127/127/127 128/128/128
f 128/128/128 129/129/129 126/126/126
f 130/130/130 132/132/132 131/131/131
f 131/131/131 133/133/133 130/130/130
f 134/134/134 130/130/130 133/133/133
f 133/133/133 135/135/135 134/134/134
f 136/136/136 134/134/134 135/135/135
f 135/135/135 137/137/137 136/136/136
f 138/138/138 136/136/136 137/137/137
f 137/137/137 139/139/139 138/138/138
f 138/138/138 139/139/139 140/140/140
f 140/140/140 141/141/141 138/138/138
f 142/142/142 144/144/144 143/143/143
f 143/143/143 145/145/145 142/142/142
f 146/146/146 142/142/142 145/145/145
f 145/145/145 147/147/147 146/146/146
f 146/146/146 147/147/147 148/148/148
f 148/148/148 149/149/149 146/146/146
f 149/149/149 148/148/148 150/150/150
f 150/150/150 151/151/151 149/149/149
f 151/151/151 150/150/150 152/152/152
f 152/152/152 153/153/153 151/151/151
f 154/154/154 156/156/156 155/155/155
f 155/155/155 157/157/157 154/154/154
f 158/158/158 154/154/154 157/157/157
f 157/157/157 159/159/159 158/158/158
f 158/158/158 159/159/159 160/160/160
f 160/160/160 161/161/161 158/158/158
f 161/161/161 160/160/160 162/162/162
f 162/162/162 163/163/163 161/161/161
f 163/163/163 162/162/162 164/164/164
f 164/164/164 165/165/165 163/163/163
f 166/166/166 168/168/168 167/167/167
f 167/167/167 169/169/169 166/166/166
f 169/169/169 167/167/167 170/170/170
f 170/170/170 171/171/171 169/169/169
f 171/171/171 170/170/170 172/172/172
f 172/172/172 173/173/173 171/171/171
f 173/173/173 172/172/172 174/174/174
f 174/174/174 175/175/175 173/173/173
f 175/175/175 174/174/174 176/176/176
f 176/176/176 177/177/177 175/175/175
f 178/178/178 180/180/180 179/179/179
f 179/179/179 181/181/181 178/178/178
f 181/181/181 179/179/179 182/182/182
f 182/182/182 183/183/183 181/181/181
f 184/184/184 186/186/186 185/185/185
f 185/185/185 187/187/187 184/184/184
f 188/188/188 190/190/190 189/189/189
f 189/189/189 191/191/191 188/188/188
f 192/192/192 194/194/194 193/193/193
f 193/193/193 195/195/195 192/192/192
f 196/196/196 198/198/198 197/197/197
f 197/197/197 199/199/199 196/196/196
f 200/200/200 202/202/202 201/201/201
f 201/201/201 203/203/203 200/200/200
f 204/204/204 206/206/206 205/205/205
f 205/205/205 207/207/207 204/204/204
f 208/208/208 210/210/210 209/209/209
f 209/209/209 211/211/211 208/208/208
f 211/211/211 209/209/209 212/212/212
f 212/212/212 213/213/213 211/211/211
f 214/214/214 216/216/216 215/215/215
f 215/215/215 217/217/217 214/214/214
f 217/217/217 215/215/215 218/218/218
f 218/218/218 219/219/219 217/217/217
f 220/220/220 222/222/222 221/221/221
f 221/221/221 223/223/223 220/220/220
f 223/223/223 221/221/221 224/224/224
f 224/224/224 225/225/225 223/223/223
f 226/226/226 228/228/228 227/227/227
f 227/227/227 229/229/229 226/226/226
f 229/229/229 227/227/227 230/230/230
f 230/230/230 231/231/231 229/229/229
f 232/232/232 234/234/234 233/233/233
f 233/233/233 235/235/235 232/232/232
f 235/235/235 233/233/233 236/236/236
f 236/236/236 237/237/237 235/235/235
f 238/238/238 240/240/240 239/239/239
f 239/239/239 241/241/241 238/238/238
f 241/241/241 239/239/239 242/242/242
f 242/242/242 243/243/243 241/241/241
f 244/244/244 246/246/246 245/245/245
f 245/245/245 247/247/247 244/244/244
f 247/247/247 245/245/245 248/248/248
f 248/248/248 249/249/249 247/247/247
f 250/250/250 252/252/252 251/251/251
f 251/251/251 253/253/253 250/250/250
f 253/253/253 251/251/251 254/254/254
f 254/254/254 255/255/255 253/253/253
f 256/256/256 258/258/258 257/257/257
f 257/257/257 259/259/259 256/256/256
f 260/260/260 259/259/259 257/257/257
f 257/257/257 261/261/261 260/260/260
f 262/262/262 260/260/260 261/261/261
f 261/261/261 263/263/263 262/262/262
f 264/264/264 266/266/266 265/265/265
f 265/265/265 267/267/267 264/264/264
f 268/268/268 267/267/267 265/265/265
f 265/265/265 269/269/269 268/268/268
f 270/270/270 272/272/272 271/271/271
f 271/271/271 273/273/273 270/270/270
f 274/274/274 273/273/273 271/271/271
f 271/271/271 275/275/275 274/274/274
f 274/274/274 275/275/275 276/276/276
f 276/276/276 277/277/277 274/274/274
f 278/278/278 280/280/280 279/279/279
f 279/279/279 281/281/281 278/278/278
f 281/281/281 279/279/279 282/282/282
f 282/282/282 283/283/283 281/281/281
f 283/283/283 282/282/282 284/284/284
f 284/284/284 285/285/285 283/283/283
f 286/286/286 288/288/288 287/287/287
f 287/287/287 289/289/289 286/286/286
f 289/289/289 287/287/287 290/290/290
f 290/290/290 291/291/291 289/289/289
f 291/291/291 290/290/290 292/292/292
f 292/292/292 293/293/293 291/291/291
f 294/294/294 296/296/296 295/295/295
f 295/295/295 297/297/297 294/294/294
f 298/298/298 297/297/297 295/295/295
f 295/295/295 299/299/299 298/298/298
f 300/300/300 298/298/298 299/299/299
f 299/299/299 301/301/301 300/300/300
f 302/302/302 304/304/304 303/303/303
f 303/303/303 305/305/305 302/302/302
f 305/305/305 303/303/303 306/306/306
f 306/306/306 307/307/307 305/305/305
f 308/308/308 310/310/310 309/309/309
f 309/309/309 311/311/311 308/308/308
f 312/312/312 314/314/314 313/313/313
f 313/313/313 315/315/315 312/312/312
f 315/315/315 313/313/313 316/316/316
f 316/316/316 317/317/317 315/315/315
f 318/318/318 320/320/320 319/319/319
f 319/319/319 321/321/321 318/318/318
f 322/322/322 321/321/321 319/319/319
f 319/319/319 323/323/323 322/322/322
f 324/324/324 326/326/326 325/325/325
f 325/325/325 327/327/327 324/324/324
f 328/328/328 327/327/327 325/325/325
f 325/325/325 329/329/329 328/328/328
f 330/330/330 328/328/328 329/329/329
f 329/329/329 331/331/331 330/330/330
f 332/332/332 334/334/334 333/333/333
f 333/333/333 335/335/335 332/332/332
f 336/336/336 335/335/335 333/333/333
f 333/333/333 337/337/337 336/336/336
f 336/336/336 337/337/337 338/338/338
f 338/338/338 339/339/339 336/336/336
f 340/340/340 342/342/342 341/341/341
f 341/341/341 343/343/343 340/340/340
f 343/343/343 341/341/341 344/344/344
f 344/344/344 345/345/345 343/343/343
f 346/346/346 348/348/348 347/347/347
f 347/347/347 349/349/349 346/346/346
f 349/349/349 347/347/347 350/350/350
f 350/350/350 351/351/351 349/349/349
f 351/351/351 350/350/350 352/352/352
f 352/352/352 353/353/353 351/351/351
f 354/354/354 356/356/356 355/355/355
f 355/355/355 357/357/357 354/354/354
f 358/358/358 357/357/357 355/355/355
f 355/355/355 359/359/359 358/358/358
f 360/360/360 358/358/358 359/359/359
f 359/359/359 361/361/361 360/360/360
f 362/362/362 364/364/364 363/363/363
f 363/363/363 365/365/365 362/362/362
f 365/365/365 363/363/363 366/366/366
f 366/366/366 367/367/367 365/365/365
f 368/368/368 370/370/370 369/369/369
f 369/369/369 371/371/371 368/368/368
f 372/372/372 374/374/374 373/373/373
f 373/373/373 375/375/375 372/372/372
f 376/376/376 378/378/378 377/377/377
f 377/377/377 379/379/379 376/376/376
f 379/379/379 377/377/377 380/380/380
f 380/380/380 381/381/381 379/379/379
f 382/382/382 384/384/384 383/383/383
f 383/383/383 385/385/385 382/382/382
f 386/386/386 382/382/382 385/385/385
f 385/385/385 387/387/387 386/386/386
f 388/388/388 390/390/390 389/389/389
f 389/389/389 391/391/391 388/388/388
f 392/392/392 388/388/388 391/391/391
f 391/391/391 393/393/393 392/392/392
f 394/394/394 396/396/396 395/395/395
f 395/395/395 397/397/397 394/394/394
f 398/398/398 394/394/394 397/397/397
f 397/397/397 399/399/399 398/398/398
f 400/400/400 402/402/402 401/401/401
f 401/401/401 403/403/403 400/400/400
f 403/403/403 401/401/401 404/404/404
f 404/404/404 405/405/405 403/403/403
f 406/406/406 408/408/408 407/407/407
f 407/407/407 409/409/409 406/406/406
f 409/409/409 407/407/407 410/410/410
f 410/410/410 411/411/411 409/409/409
f 412/412/412 414/414/414 413/413/413
f 413/413/413 415/415/415 412/412/412
f 415/415/415 413/413/413 416/416/416
f 416/416/416 417/417/417 415/415/415
f 418/418/418 420/420/420 419/419/419
f 419/419/419 421/421/421 418/418/418
f 421/421/421 422/422/422 418/418/418
f 423/423/423 425/425/425 424/424/424
f 424/424/424 426/426/426 423/423/423
f 427/427/427 429/429/429 428/428/428
f 428/428/428 430/430/430 427/427/427
f 431/431/431 433/433/433 432/432/432
f 432/432/432 434/434/434 431/431/431
f 435/435/435 437/437/437 436/436/436
f 436/436/436 438/438/438 435/435/435
f 439/439/439 441/441/441 440/440/440
f 440/440/440 442/442/442 439/439/439
f 443/443/443 445/445/445 444/444/444
f 444/444/444 446/446/446 443/443/443
f 446/446/446 447/447/447 443/443/443
f 448/448/448 450/450/450 449/449/449
f 449/449/449 451/451/451 448/448/448
f 452/452/452 454/454/454 453/453/453
f 453/453/453 455/455/455 452/452/452
f 456/456/456 458/458/458 457/457/457
f 457/457/457 459/459/459 456/456/456
f 460/460/460 462/462/462 461/461/461
f 462/462/462 463/463/463 461/461/461
f 464/464/464 466/466/466 465/465/465
f 465/465/465 467/467/467 464/464/464
f 468/468/468 470/470/470 469/469/469
f 469/469/469 471/471/471 468/468/468
f 472/472/472 474/474/474 473/473/473
f 473/473/473 475/475/475 472/472/472
f 476/476/476 478/478/478 477/477/477
f 477/477/477 479/479/479 476/476/476
f 480/480/480 482/482/482 481/481/481
f 481/481/481 483/483/483 480/480/480
f 484/484/484 486/486/486 485/485/485
f 485/485/485 487/487/487 484/484/484
f 488/488/488 490/490/490 489/489/489
f 491/491/491 489/489/489 490/490/490
f 490/490/490 492/492/492 491/491/491
f 493/493/493 495/495/495 494/494/494
f 494/494/494 496/496/496 493/493/493
f 497/497/497 499/499/499 498/498/498
f 498/498/498 500/500/500 497/497/497
f 500/500/500 501/501/501 497/497/497
f 502/502/502 504/504/504 503/503/503
f 503/503/503 505/505/505 502/502/502
f 506/506/506 508/508/508 507/507/507
f 507/507/507 509/509/509 506/506/506
f 510/510/510 512/512/512 511/511/511
f 511/511/511 513/513/513 510/510/510
f 514/514/514 516/516/516 515/515/515
f 515/515/515 517/517/517 514/514/514
f 518/518/518 520/520/520 519/519/519
f 519/519/519 521/521/521 518/518/518
f 521/521/521 519/519/519 522/522/522
f 522/522/522 523/523/523 521/521/521
f 524/524/524 526/526/526 525/525/525
f 525/525/525 527/527/527 524/524/524
f 528/528/528 524/524/524 527/527/527
f 527/527/527 529/529/529 528/528/528
f 530/530/530 532/532/532 531/531/531
f 531/531/531 533/533/533 530/530/530
f 534/534/534 536/536/536 535/535/535
f 535/535/535 537/537/537 534/534/534
f 538/538/538 540/540/540 539/539/539
f 539/539/539 541/541/541 538/538/538
f 542/542/542 541/541/541 539/539/539
f 539/539/539 543/543/543 542/542/542
f 543/543/543 539/539/539 544/544/544
f 544/544/544 545/545/545 543/543/543
f 546/546/546 548/548/548 547/547/547
f 547/547/547 549/549/549 546/546/546
f 549/549/549 550/550/550 546/546/546
f 551/551/551 553/553/553 552/552/552
f 552/552/552 554/554/554 551/551/551
f 555/555/555 557/557/557 556/556/556
f 556/556/556 558/558/558 555/555/555
f 559/559/559 561/561/561 560/560/560
f 560/560/560 562/562/562 559/559/559
