#Tree_02_Green_(15)_378_77.obj

v 0.1795687 0.4147586 3.468922
v 0.4297883 -0.01926592 3.465438
v -0.108302 -0.04652177 4.237236
v -0.3208705 0.4155941 3.445264
v 0.1795687 0.4147586 3.468922
v -0.108302 -0.04652177 4.237236
v -0.5710902 -0.01759512 3.418123
v -0.3208705 0.4155941 3.445264
v -0.108302 -0.04652177 4.237236
v -0.3208705 -0.45162 3.414639
v -0.5710902 -0.01759512 3.418123
v -0.108302 -0.04652177 4.237236
v 0.1795687 -0.4524555 3.438296
v -0.3208705 -0.45162 3.414639
v -0.108302 -0.04652177 4.237236
v 0.4297883 -0.01926592 3.465438
v 0.1795687 -0.4524555 3.438296
v -0.108302 -0.04652177 4.237236
v 0.230544 -6.219166E-32 3.385668E-16
v 0.06788526 0.1757082 2.471641
v 0.115272 0.1996567 -2.380093E-08
v 0.160032 0.01587493 2.470358
v 0.115272 0.1996567 -2.380093E-08
v -0.1164055 0.1760157 2.462929
v -0.115272 0.1996567 -2.380093E-08
v 0.06788526 0.1757082 2.471641
v -0.115272 0.1996567 -2.380093E-08
v -0.2085495 0.01649022 2.452934
v -0.230544 -5.035341E-31 2.741203E-15
v -0.1164055 0.1760157 2.462929
v -0.230544 -5.035341E-31 2.741203E-15
v -0.1164055 -0.143343 2.451651
v -0.115272 -0.1996567 2.380093E-08
v -0.2085495 0.01649022 2.452934
v -0.115272 -0.1996567 2.380093E-08
v 0.06788526 -0.1436506 2.460363
v 0.115272 -0.1996567 2.380093E-08
v -0.1164055 -0.143343 2.451651
v 0.115272 -0.1996567 2.380093E-08
v 0.160032 0.01587493 2.470358
v 0.230544 -6.219166E-32 3.385668E-16
v 0.06788526 -0.1436506 2.460363
v 0.5613109 1.018779 2.284493
v 0.6216785 -8.514949E-07 2.919911
v 0.2886091 0.5777321 2.924548
v 1.135548 0.02272095 2.276499
v -0.5871637 1.020696 2.230201
v 0.2886091 0.5777321 2.924548
v -0.3775297 0.5788442 2.893057
v 0.5613109 1.018779 2.284493
v -1.161401 0.02655557 2.167913
v -0.3775297 0.5788442 2.893057
v -0.7105964 0.002223253 2.85693
v -0.5871637 1.020696 2.230201
v -0.5871637 -0.9695027 2.159918
v -0.7105964 0.002223253 2.85693
v -0.377527 -0.5755099 2.852292
v -1.161401 0.02655557 2.167913
v 0.5613109 -0.9714202 2.214211
v -0.377527 -0.5755099 2.852292
v 0.2886091 -0.5766221 2.883783
v -0.5871637 -0.9695027 2.159918
v 1.135548 0.02272095 2.276499
v 0.2886091 -0.5766221 2.883783
v 0.6216785 -8.514949E-07 2.919911
v 0.5613109 -0.9714202 2.214211
v -0.5871637 -0.9695027 2.159918
v -0.5871637 1.020696 2.230201
v -1.161401 0.02655557 2.167913
v 0.5613109 -0.9714202 2.214211
v 0.5613109 1.018779 2.284493
v 1.135548 0.02272095 2.276499
v 0.1196398 0.3114527 3.47199
v 0.7252475 -0.000277928 2.927758
v 0.3103801 -0.01940353 3.469334
v 0.3403228 0.6674002 2.933118
v -0.2618436 0.3120896 3.453955
v 0.3403228 0.6674002 2.933118
v 0.1196398 0.3114527 3.47199
v -0.4295213 0.6686853 2.896724
v -0.4525866 -0.01812986 3.433266
v -0.4295213 0.6686853 2.896724
v -0.2618436 0.3120896 3.453955
v -0.8144433 0.002292395 2.854972
v -0.2618436 -0.3489862 3.43061
v -0.8144433 0.002292395 2.854972
v -0.4525866 -0.01812986 3.433266
v -0.4295213 -0.6653854 2.849612
v 0.1196398 -0.349623 3.448644
v -0.4295213 -0.6653854 2.849612
v -0.2618436 -0.3489862 3.43061
v 0.3403228 -0.6666706 2.886005
v 0.3103801 -0.01940353 3.469334
v 0.3403228 -0.6666706 2.886005
v 0.1196398 -0.349623 3.448644
v 0.7252475 -0.000277928 2.927758
v 0.3403228 0.6674002 2.933118
v 0.6216785 -8.514949E-07 2.919911
v 0.7252475 -0.000277928 2.927758
v 0.2886091 0.5777321 2.924548
v -0.4295213 0.6686853 2.896724
v -0.3775297 0.5788442 2.893057
v -0.8144433 0.002292395 2.854972
v -0.7105964 0.002223253 2.85693
v -0.4295213 -0.6653854 2.849612
v -0.7105964 0.002223253 2.85693
v -0.8144433 0.002292395 2.854972
v -0.377527 -0.5755099 2.852292
v 0.3403228 -0.6666706 2.886005
v 0.2886091 -0.5766221 2.883783
v 0.7252475 -0.000277928 2.927758
v 0.6216785 -8.514949E-07 2.919911
v 0.1795687 0.4147586 3.468922
v 0.3103801 -0.01940353 3.469334
v 0.4297883 -0.01926592 3.465438
v 0.1196398 0.3114527 3.47199
v -0.3208705 0.4155941 3.445264
v 0.1196398 0.3114527 3.47199
v 0.1795687 0.4147586 3.468922
v -0.2618436 0.3120896 3.453955
v -0.5710902 -0.01759512 3.418123
v -0.2618436 0.3120896 3.453955
v -0.3208705 0.4155941 3.445264
v -0.4525866 -0.01812986 3.433266
v -0.3208705 -0.45162 3.414639
v -0.4525866 -0.01812986 3.433266
v -0.5710902 -0.01759512 3.418123
v -0.2618436 -0.3489862 3.43061
v 0.1795687 -0.4524555 3.438296
v -0.2618436 -0.3489862 3.43061
v -0.3208705 -0.45162 3.414639
v 0.1196398 -0.349623 3.448644
v 0.4297883 -0.01926592 3.465438
v 0.1196398 -0.349623 3.448644
v 0.1795687 -0.4524555 3.438296
v 0.3103801 -0.01940353 3.469334

vn 0.7371412 0.5287852 -0.4207245
vn 0.7371413 0.5287852 -0.4207245
vn 0.7371412 0.5287852 -0.4207245
vn -0.02259562 0.5083673 -0.8608439
vn -0.02259562 0.5083673 -0.8608439
vn -0.02259562 0.5083673 -0.8608439
vn -0.7823316 0.456954 -0.4232616
vn -0.7823316 0.456954 -0.4232616
vn -0.7823316 0.456954 -0.4232616
vn -0.7823317 0.4259583 0.454441
vn -0.7823317 0.4259583 0.454441
vn -0.7823317 0.4259583 0.454441
vn -0.0225955 0.4463763 0.8945602
vn -0.0225955 0.4463763 0.8945602
vn -0.0225955 0.4463763 0.8945602
vn 0.7371413 0.4977896 0.4569773
vn 0.7371413 0.4977896 0.4569773
vn 0.7371413 0.4977897 0.4569773
vn 0.8658262 0.02144299 -0.4998852
vn 0.8658262 0.02144299 -0.4998852
vn 0.8658262 0.02144298 -0.4998852
vn 0.8662148 0.02151666 -0.4992084
vn 0 0.009598282 -0.9999541
vn 0 0.009598282 -0.9999541
vn 0 0.009598282 -0.9999541
vn 0.001209988 0.00971208 -0.9999522
vn -0.866017 0.004403666 -0.4999952
vn -0.866017 0.004403666 -0.4999952
vn -0.866017 0.004403666 -0.4999952
vn -0.8660347 0.004400705 -0.4999646
vn -0.865972 0.01108403 0.4999696
vn -0.865972 0.01108403 0.4999696
vn -0.865972 0.01108403 0.4999697
vn -0.8662483 0.01112494 0.49949
vn 0 0.02275743 0.9997411
vn 0 0.02275743 0.9997411
vn 0 0.02275743 0.9997411
vn -0.002754502 0.02296229 0.9997327
vn 0.8656878 0.02792145 0.4998052
vn 0.8656878 0.02792144 0.4998052
vn 0.8656878 0.02792144 0.4998052
vn 0.86482 0.02806732 0.5012969
vn 0.7079483 0.579662 -0.4034863
vn 0.7079483 0.579662 -0.4034863
vn 0.7079483 0.579662 -0.4034863
vn 0.7079483 0.579662 -0.4034864
vn -0.02508896 0.5599617 -0.8281387
vn -0.02508896 0.5599617 -0.8281387
vn -0.02508896 0.5599617 -0.8281387
vn -0.02508896 0.5599617 -0.8281386
vn -0.7581263 0.510355 -0.405934
vn -0.7581263 0.510355 -0.405934
vn -0.7581263 0.510355 -0.405934
vn -0.7581263 0.5103552 -0.4059339
vn -0.7581263 0.4804487 0.4409237
vn -0.7581263 0.4804487 0.4409236
vn -0.7581263 0.4804486 0.4409236
vn -0.7581263 0.4804487 0.4409237
vn -0.025089 0.5001489 0.8655761
vn -0.025089 0.5001489 0.8655761
vn -0.025089 0.5001489 0.8655761
vn -0.02508894 0.5001489 0.865576
vn 0.7079484 0.5497558 0.4433709
vn 0.7079484 0.5497558 0.4433709
vn 0.7079484 0.5497558 0.4433709
vn 0.7079484 0.5497555 0.4433713
vn 0.04725033 -0.9982609 -0.03525313
vn 0.04725032 -0.9982609 -0.03525312
vn 0.04725032 -0.9982609 -0.03525313
vn 0.04725039 -0.9982609 -0.03525313
vn 0.04725038 -0.9982609 -0.03525312
vn 0.04725056 -0.9982609 -0.03525313
vn 0.7173684 0.5639738 -0.409043
vn 0.7173684 0.5639738 -0.4090431
vn 0.7173684 0.5639738 -0.4090431
vn 0.7173684 0.5639738 -0.4090431
vn -0.02431903 0.544041 -0.8387063
vn -0.02431903 0.544041 -0.8387063
vn -0.02431903 0.544041 -0.8387063
vn -0.02431858 0.5440413 -0.8387061
vn -0.7660052 0.4938497 -0.4115199
vn -0.7660052 0.4938497 -0.4115199
vn -0.7660052 0.4938497 -0.4115199
vn -0.7660061 0.4938489 -0.4115193
vn -0.7660056 0.4635894 0.4453318
vn -0.7660056 0.4635894 0.4453318
vn -0.7660056 0.4635894 0.4453318
vn -0.7660057 0.4635898 0.4453311
vn -0.02431893 0.4835224 0.8749943
vn -0.02431893 0.4835224 0.8749943
vn -0.02431893 0.4835224 0.8749943
vn -0.02431858 0.4835222 0.8749943
vn 0.7173686 0.5337144 0.4478073
vn 0.7173686 0.5337144 0.4478073
vn 0.7173686 0.5337142 0.4478073
vn 0.7173683 0.5337145 0.4478076
vn 0.07559191 -0.9958044 -0.05157227
vn 0.07559191 -0.9958044 -0.05157227
vn 0.07559191 -0.9958044 -0.05157227
vn 0.07558938 -0.9958046 -0.05157122
vn 0.0472245 -0.9965669 -0.06800311
vn 0.04722492 -0.9965667 -0.06800651
vn 0.01885693 -0.9984864 -0.05166756
vn 0.01885758 -0.9984864 -0.05166706
vn 0.01885759 -0.9996437 -0.01889613
vn 0.01885759 -0.9996437 -0.01889613
vn 0.01885759 -0.9996437 -0.01889613
vn 0.01886114 -0.9996437 -0.01889763
vn 0.04722492 -0.9988814 -0.002466339
vn 0.04722496 -0.9988814 -0.002466556
vn 0.07558851 -0.9969619 -0.0188031
vn 0.07559188 -0.9969617 -0.01880053
vn -0.03260059 -0.9994105 0.01077178
vn -0.03260059 -0.9994105 0.01077178
vn -0.03260059 -0.9994105 0.01077178
vn -0.03259675 -0.9994106 0.01077062
vn 0.04705013 -0.99727 0.05691061
vn 0.04705013 -0.99727 0.05691062
vn 0.04705013 -0.99727 0.05691061
vn 0.04705022 -0.9972702 0.05691021
vn 0.1266965 -0.9918802 0.01103665
vn 0.1266965 -0.9918802 0.01103665
vn 0.1266965 -0.9918802 0.01103665
vn 0.1267003 -0.9918798 0.01104022
vn 0.1267003 -0.9886301 -0.08098014
vn 0.1267003 -0.9886301 -0.08098015
vn 0.1267003 -0.9886301 -0.08098014
vn 0.1266972 -0.9886305 -0.08097924
vn 0.04705011 -0.9907709 -0.1271191
vn 0.04705011 -0.9907709 -0.1271191
vn 0.04705011 -0.9907709 -0.1271191
vn 0.04705022 -0.9907709 -0.1271196
vn -0.03259924 -0.9961611 -0.08124419
vn -0.03259924 -0.9961611 -0.0812442
vn -0.03259924 -0.9961611 -0.08124419
vn -0.03260059 -0.9961609 -0.08124544

vt 0.7879072 0.8242779
vt 0.8001339 0.8242779
vt 0.7756804 0.8798555
vt 0.7634536 0.8242779
vt 0.7879072 0.8242779
vt 0.7756804 0.8798555
vt 0.7512268 0.8242779
vt 0.7634536 0.8242779
vt 0.7756804 0.8798555
vt 0.7634536 0.8242779
vt 0.7512268 0.8242779
vt 0.7756804 0.8798555
vt 0.7879071 0.8242779
vt 0.7634536 0.8242779
vt 0.7756804 0.8798555
vt 0.8001339 0.8242779
vt 0.7879071 0.8242779
vt 0.7756804 0.8798555
vt 0.2209835 0.388818
vt 0.2013809 0.6456031
vt 0.2047579 0.388818
vt 0.2142294 0.6456031
vt 0.2047579 0.388818
vt 0.1756839 0.6456031
vt 0.1723069 0.388818
vt 0.2013809 0.6456031
vt 0.1723069 0.388818
vt 0.1628353 0.6456031
vt 0.1560813 0.388818
vt 0.1756839 0.6456031
vt 0.1560813 0.388818
vt 0.1756839 0.6456031
vt 0.1723069 0.388818
vt 0.1628353 0.6456031
vt 0.1723069 0.388818
vt 0.2013809 0.6456031
vt 0.2047579 0.388818
vt 0.1756839 0.6456031
vt 0.2047579 0.388818
vt 0.2142294 0.6456031
vt 0.2209835 0.388818
vt 0.2013809 0.6456031
vt 0.8142501 0.06201676
vt 0.8231531 0.09522417
vt 0.8087789 0.09522417
vt 0.8340955 0.06201676
vt 0.7745592 0.06201676
vt 0.8087789 0.09522417
vt 0.7800304 0.09522417
vt 0.8142501 0.06201676
vt 0.7547137 0.06201676
vt 0.7800304 0.09522417
vt 0.7656561 0.09522417
vt 0.7745592 0.06201676
vt 0.7745592 0.06201676
vt 0.7656561 0.09522417
vt 0.7800303 0.09522417
vt 0.7547137 0.06201676
vt 0.8142501 0.06201676
vt 0.7800303 0.09522417
vt 0.8087789 0.09522417
vt 0.7745592 0.06201676
vt 0.8340955 0.06201676
vt 0.8087789 0.09522417
vt 0.8231531 0.09522417
vt 0.8142501 0.06201676
vt 0.7745592 0.06201676
vt 0.7745592 0.06201676
vt 0.7547137 0.06201676
vt 0.8142501 0.06201676
vt 0.8142501 0.06201676
vt 0.8340955 0.06201676
vt 0.7983752 0.5092804
vt 0.8222791 0.4698847
vt 0.8076957 0.5092804
vt 0.805667 0.4698847
vt 0.7797344 0.5092804
vt 0.805667 0.4698847
vt 0.7983752 0.5092804
vt 0.7724427 0.4698847
vt 0.7704139 0.5092804
vt 0.7724427 0.4698847
vt 0.7797344 0.5092804
vt 0.7558305 0.4698847
vt 0.7797344 0.5092804
vt 0.7558305 0.4698847
vt 0.7704139 0.5092804
vt 0.7724427 0.4698847
vt 0.7983752 0.5092804
vt 0.7724427 0.4698847
vt 0.7797344 0.5092804
vt 0.8056669 0.4698847
vt 0.8076957 0.5092804
vt 0.8056669 0.4698847
vt 0.7983752 0.5092804
vt 0.8222791 0.4698847
vt 0.805667 0.4698847
vt 0.8178033 0.4697098
vt 0.8222791 0.4698847
vt 0.8034291 0.4697098
vt 0.7724427 0.4698847
vt 0.7746806 0.4697098
vt 0.7558305 0.4698847
vt 0.7603062 0.4697098
vt 0.7724427 0.4698847
vt 0.7603062 0.4697098
vt 0.7558305 0.4698847
vt 0.7746805 0.4697098
vt 0.8056669 0.4698847
vt 0.8034291 0.4697098
vt 0.8222791 0.4698847
vt 0.8178033 0.4697098
vt 0.7879072 0.8242779
vt 0.7943213 0.8249183
vt 0.8001339 0.8242779
vt 0.7850008 0.8249183
vt 0.7634536 0.8242779
vt 0.7850008 0.8249183
vt 0.7879072 0.8242779
vt 0.7663599 0.8249183
vt 0.7512268 0.8242779
vt 0.7663599 0.8249183
vt 0.7634536 0.8242779
vt 0.7570394 0.8249183
vt 0.7634536 0.8242779
vt 0.7570394 0.8249183
vt 0.7512268 0.8242779
vt 0.7663599 0.8249183
vt 0.7879071 0.8242779
vt 0.7663599 0.8249183
vt 0.7634536 0.8242779
vt 0.7850008 0.8249183
vt 0.8001339 0.8242779
vt 0.7850008 0.8249183
vt 0.7879071 0.8242779
vt 0.7943213 0.8249183

g Tree_02_Green_(15)_378_77
usemtl Tree_02_Green_(15)_378_77
usemap Tree_02_Green_(15)_378_77
f 1/1/1 3/3/3 2/2/2
f 4/4/4 6/6/6 5/5/5
f 7/7/7 9/9/9 8/8/8
f 10/10/10 12/12/12 11/11/11
f 13/13/13 15/15/15 14/14/14
f 16/16/16 18/18/18 17/17/17
f 19/19/19 21/21/21 20/20/20
f 20/20/20 22/22/22 19/19/19
f 23/23/23 25/25/25 24/24/24
f 24/24/24 26/26/26 23/23/23
f 27/27/27 29/29/29 28/28/28
f 28/28/28 30/30/30 27/27/27
f 31/31/31 33/33/33 32/32/32
f 32/32/32 34/34/34 31/31/31
f 35/35/35 37/37/37 36/36/36
f 36/36/36 38/38/38 35/35/35
f 39/39/39 41/41/41 40/40/40
f 40/40/40 42/42/42 39/39/39
f 43/43/43 45/45/45 44/44/44
f 44/44/44 46/46/46 43/43/43
f 47/47/47 49/49/49 48/48/48
f 48/48/48 50/50/50 47/47/47
f 51/51/51 53/53/53 52/52/52
f 52/52/52 54/54/54 51/51/51
f 55/55/55 57/57/57 56/56/56
f 56/56/56 58/58/58 55/55/55
f 59/59/59 61/61/61 60/60/60
f 60/60/60 62/62/62 59/59/59
f 63/63/63 65/65/65 64/64/64
f 64/64/64 66/66/66 63/63/63
f 67/67/67 69/69/69 68/68/68
f 68/68/68 70/70/70 67/67/67
f 70/70/70 68/68/68 71/71/71
f 71/71/71 72/72/72 70/70/70
f 73/73/73 75/75/75 74/74/74
f 74/74/74 76/76/76 73/73/73
f 77/77/77 79/79/79 78/78/78
f 78/78/78 80/80/80 77/77/77
f 81/81/81 83/83/83 82/82/82
f 82/82/82 84/84/84 81/81/81
f 85/85/85 87/87/87 86/86/86
f 86/86/86 88/88/88 85/85/85
f 89/89/89 91/91/91 90/90/90
f 90/90/90 92/92/92 89/89/89
f 93/93/93 95/95/95 94/94/94
f 94/94/94 96/96/96 93/93/93
f 97/97/97 99/99/99 98/98/98
f 98/98/98 100/100/100 97/97/97
f 101/101/101 97/97/97 100/100/100
f 100/100/100 102/102/102 101/101/101
f 103/103/103 101/101/101 102/102/102
f 102/102/102 104/104/104 103/103/103
f 105/105/105 107/107/107 106/106/106
f 106/106/106 108/108/108 105/105/105
f 109/109/109 105/105/105 108/108/108
f 108/108/108 110/110/110 109/109/109
f 111/111/111 109/109/109 110/110/110
f 110/110/110 112/112/112 111/111/111
f 113/113/113 115/115/115 114/114/114
f 114/114/114 116/116/116 113/113/113
f 117/117/117 119/119/119 118/118/118
f 118/118/118 120/120/120 117/117/117
f 121/121/121 123/123/123 122/122/122
f 122/122/122 124/124/124 121/121/121
f 125/125/125 127/127/127 126/126/126
f 126/126/126 128/128/128 125/125/125
f 129/129/129 131/131/131 130/130/130
f 130/130/130 132/132/132 129/129/129
f 133/133/133 135/135/135 134/134/134
f 134/134/134 136/136/136 133/133/133
