#Tree_11_Green_(7)_393_72.obj

v 0.4705253 -0.9927484 2.322839
v -0.4689699 -0.6828653 1.996823
v 0.3423203 -1.194257 2.308597
v -0.4689699 -0.6828653 1.996823
v 0.4705253 -0.9927484 2.322839
v -0.3802477 -0.409091 2.008125
v -0.5066002 -0.677345 2.158553
v 0.3469493 -1.070826 2.51324
v 0.3026699 -1.179137 2.440279
v 0.3469493 -1.070826 2.51324
v -0.5066002 -0.677345 2.158553
v -0.4810531 -0.5377012 2.245069
v 0.3423203 -1.194257 2.308597
v 1.016736 -1.427725 3.076958
v 0.4705253 -0.9927484 2.322839
v 0.4308766 -0.9776276 2.45452
v 1.016736 -1.427725 3.076958
v 0.3469493 -1.070826 2.51324
v 0.3469493 -1.070826 2.51324
v 1.016736 -1.427725 3.076958
v 0.3026699 -1.179137 2.440279
v 0.3026699 -1.179137 2.440279
v 1.016736 -1.427725 3.076958
v 0.3423203 -1.194257 2.308597
v -2.003537 -1.153204 2.857601
v -0.5814047 -0.4835572 2.318341
v -0.5148402 -0.5837923 2.2573
v -2.032962 -1.05577 2.905256
v -0.6676161 -0.4071327 2.248128
v -0.5814047 -0.4835572 2.318341
v -2.030696 -1.174378 2.750734
v -0.6872635 -0.4309356 2.116874
v -2.11671 -1.000677 2.739176
v -0.6872635 -0.4309356 2.116874
v -2.030696 -1.174378 2.750734
v -0.5344859 -0.6075945 2.126046
v -2.030696 -1.174378 2.750734
v -2.709466 -1.308467 3.199426
v -2.003537 -1.153204 2.857601
v -2.089551 -0.9795029 2.846043
v -2.709466 -1.308467 3.199426
v -2.11671 -1.000677 2.739176
v -2.11671 -1.000677 2.739176
v -2.709466 -1.308467 3.199426
v -2.030696 -1.174378 2.750734
v -0.305626 0.759636 2.322839
v -0.3927367 -0.405753 1.996823
v -0.08653532 0.6645439 2.308597
v -0.3927367 -0.405753 1.996823
v -0.305626 0.759636 2.322839
v -0.6770175 -0.3609662 2.008125
v -0.08653532 0.6645439 2.308597
v 0.1460941 1.307534 3.142406
v -0.305626 0.759636 2.322839
v -0.305626 0.759636 2.322839
v 0.1460941 1.307534 3.142406
v -0.3143535 0.7181115 2.45452
v -0.3143535 0.7181115 2.45452
v 0.1460941 1.307534 3.142406
v -0.2091725 0.6497989 2.51324
v -0.2091725 0.6497989 2.51324
v 0.1460941 1.307534 3.142406
v -0.09526466 0.6230187 2.440279
v 0.2363484 -2.033755 3.316548
v 0.4636507 -1.1231 3.420955
v 0.5894354 -1.644958 3.480938
v 0.4636507 -1.1231 3.420955
v 0.2363484 -2.033755 3.316548
v 0.02514194 -1.123944 3.231408
v 0.3523194 3.286254E-06 6.036552E-22
v -0.3794137 -0.2444713 1.406414
v 0.1761592 0.3051214 5.604803E-17
v -0.2440795 -0.4699034 1.379011
v -0.1761602 0.3051181 5.604743E-17
v -0.3794137 -0.2444713 1.406414
v -0.643151 -0.249765 1.421011
v 0.1761592 0.3051214 5.604803E-17
v -0.3523194 -3.286254E-06 -6.036552E-22
v -0.643151 -0.249765 1.421011
v -0.7715558 -0.4804914 1.408205
v -0.1761602 0.3051181 5.604743E-17
v -0.1761592 -0.3051214 -5.604803E-17
v -0.7715558 -0.4804914 1.408205
v -0.6362191 -0.7059307 1.380802
v -0.3523194 -3.286254E-06 -6.036552E-22
v -0.1761592 -0.3051214 -5.604803E-17
v -0.3724818 -0.700637 1.366205
v 0.1761602 -0.3051181 -5.604743E-17
v -0.6362191 -0.7059307 1.380802
v 0.1761602 -0.3051181 -5.604743E-17
v -0.2440795 -0.4699034 1.379011
v 0.3523194 3.286254E-06 6.036552E-22
v -0.3724818 -0.700637 1.366205
v -0.4711716 -0.3458561 3.217021
v -0.2440795 -0.4699034 1.379011
v -0.3600464 -0.5347149 3.225297
v -0.3794137 -0.2444713 1.406414
v -0.643151 -0.249765 1.421011
v -0.4711716 -0.3458561 3.217021
v -0.6899568 -0.3465285 3.240082
v -0.3794137 -0.2444713 1.406414
v -0.6899568 -0.3465285 3.240082
v -0.7715558 -0.4804914 1.408205
v -0.643151 -0.249765 1.421011
v -0.7976192 -0.5360526 3.271419
v -0.2951452 0.2124273 5.118435
v -0.3820647 0.0595636 5.13376
v -0.6362191 -0.7059307 1.380802
v -0.7976192 -0.5360526 3.271419
v -0.6864923 -0.7249108 3.279695
v -0.7715558 -0.4804914 1.408205
v -0.4677071 -0.7242384 3.256634
v -0.6362191 -0.7059307 1.380802
v -0.6864923 -0.7249108 3.279695
v -0.3724818 -0.700637 1.366205
v -0.3724818 -0.700637 1.366205
v -0.3600464 -0.5347149 3.225297
v -0.2440795 -0.4699034 1.379011
v -0.4677071 -0.7242384 3.256634
v -0.03439151 0.05955868 5.072457
v -0.121311 -0.09330501 5.087783
v -0.1213102 0.2124324 5.087783
v -0.3600464 -0.5347149 3.225297
v -0.03439151 0.05955868 5.072457
v -0.4711716 -0.3458561 3.217021
v -0.6899568 -0.3465285 3.240082
v -0.1213102 0.2124324 5.087783
v -0.2951452 0.2124273 5.118435
v -0.4711716 -0.3458561 3.217021
v -0.2951442 -0.09330946 5.118435
v -0.7976192 -0.5360526 3.271419
v -0.3820647 0.0595636 5.13376
v -0.6864923 -0.7249108 3.279695
v -0.121311 -0.09330501 5.087783
v -0.6864923 -0.7249108 3.279695
v -0.2951442 -0.09330946 5.118435
v -0.4677071 -0.7242384 3.256634
v 0.4705253 -0.9927484 2.322839
v -0.417878 -0.4035706 2.169854
v -0.3802477 -0.409091 2.008125
v 0.4308766 -0.9776276 2.45452
v 1.016736 -1.427725 3.076958
v -0.4810531 -0.5377012 2.245069
v 0.4308766 -0.9776276 2.45452
v 0.3469493 -1.070826 2.51324
v -0.417878 -0.4035706 2.169854
v 0.3423203 -1.194257 2.308597
v -0.5066002 -0.677345 2.158553
v 0.3026699 -1.179137 2.440279
v -0.4689699 -0.6828653 1.996823
v -0.5148402 -0.5837923 2.2573
v -2.030696 -1.174378 2.750734
v -2.003537 -1.153204 2.857601
v -0.5344859 -0.6075945 2.126046
v -0.5814047 -0.4835572 2.318341
v -2.003537 -1.153204 2.857601
v -2.032962 -1.05577 2.905256
v -2.709466 -1.308467 3.199426
v -0.6676161 -0.4071327 2.248128
v -2.032962 -1.05577 2.905256
v -2.089551 -0.9795029 2.846043
v -2.709466 -1.308467 3.199426
v -2.11671 -1.000677 2.739176
v -0.6676161 -0.4071327 2.248128
v -2.089551 -0.9795029 2.846043
v -0.6872635 -0.4309356 2.116874
v -0.6765807 -0.3989928 2.169854
v -0.305626 0.759636 2.322839
v -0.3143535 0.7181115 2.45452
v -0.6770175 -0.3609662 2.008125
v -0.5342215 -0.4404034 2.245069
v -0.3143535 0.7181115 2.45452
v -0.2091725 0.6497989 2.51324
v -0.6765807 -0.3989928 2.169854
v -0.3922998 -0.4437796 2.158553
v -0.2091725 0.6497989 2.51324
v -0.09526466 0.6230187 2.440279
v -0.5342215 -0.4404034 2.245069
v -0.3922998 -0.4437796 2.158553
v -0.08653532 0.6645439 2.308597
v -0.3927367 -0.405753 1.996823
v -0.09526466 0.6230187 2.440279
v 0.1460941 1.307534 3.142406
v 0.7672649 -0.5090708 3.62391
v 0.402172 0.9588254 3.901278
v 0.1087575 0.5293691 3.645487
v 1.334646 -0.5132979 3.934942
v 0.1087575 0.5293691 3.645487
v -1.462773 0.963056 3.962403
v -1.20826 0.529372 3.645487
v 0.402172 0.9588254 3.901278
v -1.20826 0.529372 3.645487
v -2.395242 -0.5048438 4.05719
v -1.866766 -0.5090715 3.62391
v -1.462773 0.963056 3.962403
v -1.866766 -0.5090715 3.62391
v -1.462771 -1.976968 4.090854
v -1.208259 -1.547511 3.602333
v -2.395242 -0.5048438 4.05719
v -1.208259 -1.547511 3.602333
v 0.4021723 -1.981191 4.02973
v 0.1087587 -1.547514 3.602333
v -1.462771 -1.976968 4.090854
v 0.1087587 -1.547514 3.602333
v 1.334646 -0.5132979 3.934942
v 0.7672649 -0.5090708 3.62391
v 0.4021723 -1.981191 4.02973
v 1.334646 -0.5132979 3.934942
v -0.005099237 0.4386756 4.207654
v 0.402172 0.9588254 3.901278
v 0.557928 -0.4507461 4.239138
v 0.402172 0.9588254 3.901278
v -1.131153 0.4440409 4.259823
v -1.462773 0.963056 3.962403
v -0.005099237 0.4386756 4.207654
v -1.462773 0.963056 3.962403
v -1.694177 -0.4400149 4.343474
v -2.395242 -0.5048438 4.05719
v -1.131153 0.4440409 4.259823
v -2.395242 -0.5048438 4.05719
v -1.13115 -1.329437 4.374958
v -1.462771 -1.976968 4.090854
v -1.694177 -0.4400149 4.343474
v -1.462771 -1.976968 4.090854
v -0.005098093 -1.334802 4.322789
v 0.4021723 -1.981191 4.02973
v -1.13115 -1.329437 4.374958
v 0.4021723 -1.981191 4.02973
v 0.557928 -0.4507461 4.239138
v 1.334646 -0.5132979 3.934942
v -0.005098093 -1.334802 4.322789
v 0.1087587 -1.547514 3.602333
v -1.866766 -0.5090715 3.62391
v -1.208259 -1.547511 3.602333
v 0.7672649 -0.5090708 3.62391
v -1.20826 0.529372 3.645487
v 0.1087575 0.5293691 3.645487
v 0.557928 -0.4507461 4.239138
v 0.2171399 0.7188584 4.530314
v -0.005099237 0.4386756 4.207654
v 0.945246 -0.4128678 4.608936
v -0.005099237 0.4386756 4.207654
v -1.239073 0.7306215 4.603033
v -1.131153 0.4440409 4.259823
v 0.2171399 0.7188584 4.530314
v -1.131153 0.4440409 4.259823
v -1.96718 -0.3893414 4.754375
v -1.694177 -0.4400149 4.343474
v -1.239073 0.7306215 4.603033
v -1.694177 -0.4400149 4.343474
v -1.239071 -1.521075 4.832996
v -1.13115 -1.329437 4.374958
v -1.96718 -0.3893414 4.754375
v -1.13115 -1.329437 4.374958
v 0.2171397 -1.532839 4.760278
v -0.005098093 -1.334802 4.322789
v -1.239071 -1.521075 4.832996
v -0.005098093 -1.334802 4.322789
v 0.945246 -0.4128678 4.608936
v 0.557928 -0.4507461 4.239138
v 0.2171397 -1.532839 4.760278
v 0.2171399 0.7188584 4.530314
v 0.4765618 -0.3678876 4.887011
v 0.0639658 0.2919423 4.860177
v 0.945246 -0.4128678 4.608936
v -1.239073 0.7306215 4.603033
v 0.0639658 0.2919423 4.860177
v -0.7612281 0.304853 4.939965
v 0.2171399 0.7188584 4.530314
v -1.96718 -0.3893414 4.754375
v -0.7612281 0.304853 4.939965
v -1.173824 -0.3420734 5.046588
v -1.239073 0.7306215 4.603033
v -1.96718 -0.3893414 4.754375
v -0.7612277 -1.001903 5.073422
v -1.239071 -1.521075 4.832996
v -1.173824 -0.3420734 5.046588
v -1.239071 -1.521075 4.832996
v 0.06396379 -1.014807 4.993633
v 0.2171397 -1.532839 4.760278
v -0.7612277 -1.001903 5.073422
v 0.945246 -0.4128678 4.608936
v 0.06396379 -1.014807 4.993633
v 0.4765618 -0.3678876 4.887011
v 0.2171397 -1.532839 4.760278
v -0.4083412 -0.5977185 5.434423
v 0.183087 -0.2977989 5.32025
v -0.01405497 -0.6065851 5.379634
v -0.6054848 -0.2800734 5.42983
v -0.01405418 0.01983893 5.315657
v -0.4083404 0.02870559 5.370447
v 0.2097325 0.4376417 5.05858
v 0.183087 -0.2977989 5.32025
v -0.01405418 0.01983893 5.315657
v 0.6911601 -0.3373114 5.076013
v -0.7531286 0.4572874 5.179999
v -0.01405418 0.01983893 5.315657
v -0.4083404 0.02870559 5.370447
v 0.2097325 0.4376417 5.05858
v -1.234558 -0.2980266 5.318851
v -0.4083404 0.02870559 5.370447
v -0.6054848 -0.2800734 5.42983
v -0.7531286 0.4572874 5.179999
v -0.4083412 -0.5977185 5.434423
v -1.234558 -0.2980266 5.318851
v -0.6054848 -0.2800734 5.42983
v -0.7531276 -1.072987 5.336284
v -0.01405497 -0.6065851 5.379634
v -0.7531276 -1.072987 5.336284
v -0.4083412 -0.5977185 5.434423
v 0.2097309 -1.092625 5.214864
v 0.183087 -0.2977989 5.32025
v 0.2097309 -1.092625 5.214864
v -0.01405497 -0.6065851 5.379634
v 0.6911601 -0.3373114 5.076013
v 0.0639658 0.2919423 4.860177
v 0.6911601 -0.3373114 5.076013
v 0.2097325 0.4376417 5.05858
v 0.4765618 -0.3678876 4.887011
v -0.7612281 0.304853 4.939965
v 0.2097325 0.4376417 5.05858
v -0.7531286 0.4572874 5.179999
v 0.0639658 0.2919423 4.860177
v -1.173824 -0.3420734 5.046588
v -0.7531286 0.4572874 5.179999
v -1.234558 -0.2980266 5.318851
v -0.7612281 0.304853 4.939965
v -0.7531276 -1.072987 5.336284
v -1.173824 -0.3420734 5.046588
v -1.234558 -0.2980266 5.318851
v -0.7612277 -1.001903 5.073422
v 0.2097309 -1.092625 5.214864
v -0.7612277 -1.001903 5.073422
v -0.7531276 -1.072987 5.336284
v 0.06396379 -1.014807 4.993633
v 0.6911601 -0.3373114 5.076013
v 0.06396379 -1.014807 4.993633
v 0.2097309 -1.092625 5.214864
v 0.4765618 -0.3678876 4.887011
v 1.593858 -0.8388953 2.680583
v 0.6907517 -0.2526513 2.836622
v 0.7649883 -0.6080548 2.692721
v 1.865287 -0.5803875 2.855561
v 0.7649883 -0.6080548 2.692721
v -0.1966019 -1.107336 2.871008
v 0.1398277 -1.21316 2.692721
v 0.6907517 -0.2526513 2.836622
v 0.1398277 -1.21316 2.692721
v 0.09057723 -2.28975 2.924333
v 0.3435377 -2.049113 2.680583
v -0.1966019 -1.107336 2.871008
v 0.3435377 -2.049113 2.680583
v 1.265111 -2.617487 2.943271
v 1.172408 -2.279962 2.668445
v 0.09057723 -2.28975 2.924333
v 1.172408 -2.279962 2.668445
v 2.152464 -1.762802 2.908885
v 1.797568 -1.674849 2.668445
v 1.265111 -2.617487 2.943271
v 1.797568 -1.674849 2.668445
v 1.865287 -0.5803875 2.855561
v 1.593858 -0.8388953 2.680583
v 2.152464 -1.762802 2.908885
v 1.865287 -0.5803875 2.855561
v 0.7560368 -0.7069538 3.008979
v 0.6907517 -0.2526513 2.836622
v 1.465494 -0.9051217 3.026691
v 0.6907517 -0.2526513 2.836622
v 0.218854 -1.221566 3.038328
v -0.1966019 -1.107336 2.871008
v 0.7560368 -0.7069538 3.008979
v -0.1966019 -1.107336 2.871008
v 0.3911299 -1.934346 3.085388
v 0.09057723 -2.28975 2.924333
v 0.218854 -1.221566 3.038328
v 0.09057723 -2.28975 2.924333
v 1.100587 -2.132514 3.1031
v 1.265111 -2.617487 2.943271
v 0.3911299 -1.934346 3.085388
v 1.265111 -2.617487 2.943271
v 1.637768 -1.617902 3.073751
v 2.152464 -1.762802 2.908885
v 1.100587 -2.132514 3.1031
v 2.152464 -1.762802 2.908885
v 1.465494 -0.9051217 3.026691
v 1.865287 -0.5803875 2.855561
v 1.637768 -1.617902 3.073751
v 1.797568 -1.674849 2.668445
v 0.3435377 -2.049113 2.680583
v 1.172408 -2.279962 2.668445
v 1.593858 -0.8388953 2.680583
v 0.1398277 -1.21316 2.692721
v 0.7649883 -0.6080548 2.692721
v 1.465494 -0.9051217 3.026691
v 0.7222256 -0.4609264 3.190499
v 0.7560368 -0.7069538 3.008979
v 1.630513 -0.7077115 3.234729
v 0.7560368 -0.7069538 3.008979
v 0.02514194 -1.123944 3.231408
v 0.218854 -1.221566 3.038328
v 0.7222256 -0.4609264 3.190499
v 0.218854 -1.221566 3.038328
v 0.2363484 -2.033755 3.316548
v 0.3911299 -1.934346 3.085388
v 0.02514194 -1.123944 3.231408
v 0.3911299 -1.934346 3.085388
v 1.144638 -2.280539 3.360778
v 1.100587 -2.132514 3.1031
v 0.2363484 -2.033755 3.316548
v 1.100587 -2.132514 3.1031
v 1.841719 -1.617514 3.319869
v 1.637768 -1.617902 3.073751
v 1.144638 -2.280539 3.360778
v 1.637768 -1.617902 3.073751
v 1.630513 -0.7077115 3.234729
v 1.465494 -0.9051217 3.026691
v 1.841719 -1.617514 3.319869
v 0.7222256 -0.4609264 3.190499
v 1.385673 -0.8999412 3.391165
v 0.8617693 -0.750591 3.376069
v 1.630513 -0.7077115 3.234729
v 0.02514194 -1.123944 3.231408
v 0.8617693 -0.750591 3.376069
v 0.4636507 -1.1231 3.420955
v 0.7222256 -0.4609264 3.190499
v 0.2363484 -2.033755 3.316548
v 1.113339 -1.794317 3.496034
v 1.144638 -2.280539 3.360778
v 0.5894354 -1.644958 3.480938
v 1.144638 -2.280539 3.360778
v 1.51146 -1.421807 3.451147
v 1.841719 -1.617514 3.319869
v 1.113339 -1.794317 3.496034
v 1.630513 -0.7077115 3.234729
v 1.51146 -1.421807 3.451147
v 1.385673 -0.8999412 3.391165
v 1.841719 -1.617514 3.319869
v 1.385673 -0.8999412 3.391165
v 0.4636507 -1.1231 3.420955
v 0.8617693 -0.750591 3.376069
v 0.5894354 -1.644958 3.480938
v 1.51146 -1.421807 3.451147
v 1.113339 -1.794317 3.496034
v -1.851505 -1.809241 2.975711
v -1.422367 -0.8414585 3.086738
v -1.755924 -0.9686616 2.984348
v -1.55841 -2.032684 3.100212
v -1.755924 -0.9686616 2.984348
v -2.389834 -0.1124547 3.111205
v -2.440406 -0.455516 2.984348
v -1.422367 -0.8414585 3.086738
v -2.440406 -0.455516 2.984348
v -3.493343 -0.5746757 3.149147
v -3.220468 -0.7829574 2.975711
v -2.389834 -0.1124547 3.111205
v -3.220468 -0.7829574 2.975711
v -3.629388 -1.765894 3.162622
v -3.316047 -1.623544 2.967074
v -3.493343 -0.5746757 3.149147
v -3.316047 -1.623544 2.967074
v -2.66192 -2.494906 3.138155
v -2.631569 -2.136683 2.967074
v -3.629388 -1.765894 3.162622
v -2.631569 -2.136683 2.967074
v -1.55841 -2.032684 3.100212
v -1.851505 -1.809241 2.975711
v -2.66192 -2.494906 3.138155
v -1.55841 -2.032684 3.100212
v -1.853337 -0.9753064 3.209376
v -1.422367 -0.8414585 3.086738
v -1.935711 -1.694878 3.221978
v -1.422367 -0.8414585 3.086738
v -2.436308 -0.5335504 3.230258
v -2.389834 -0.1124547 3.111205
v -1.853337 -0.9753064 3.209376
v -2.389834 -0.1124547 3.111205
v -3.101654 -0.8113663 3.263743
v -3.493343 -0.5746757 3.149147
v -2.436308 -0.5335504 3.230258
v -3.493343 -0.5746757 3.149147
v -3.18403 -1.530939 3.276345
v -3.629388 -1.765894 3.162622
v -3.101654 -0.8113663 3.263743
v -3.629388 -1.765894 3.162622
v -2.601058 -1.972695 3.255463
v -2.66192 -2.494906 3.138155
v -3.18403 -1.530939 3.276345
v -2.66192 -2.494906 3.138155
v -1.935711 -1.694878 3.221978
v -1.55841 -2.032684 3.100212
v -2.601058 -1.972695 3.255463
v -2.631569 -2.136683 2.967074
v -3.220468 -0.7829574 2.975711
v -3.316047 -1.623544 2.967074
v -1.851505 -1.809241 2.975711
v -2.440406 -0.455516 2.984348
v -1.755924 -0.9686616 2.984348
v -1.935711 -1.694878 3.221978
v -1.619705 -0.9043173 3.338532
v -1.853337 -0.9753064 3.209376
v -1.718447 -1.824483 3.370004
v -1.853337 -0.9753064 3.209376
v -2.371568 -0.3303297 3.367641
v -2.436308 -0.5335504 3.230258
v -1.619705 -0.9043173 3.338532
v -2.436308 -0.5335504 3.230258
v -3.222175 -0.6765007 3.42822
v -3.101654 -0.8113663 3.263743
v -2.371568 -0.3303297 3.367641
v -3.101654 -0.8113663 3.263743
v -3.320916 -1.596667 3.459691
v -3.18403 -1.530939 3.276345
v -3.222175 -0.6765007 3.42822
v -3.18403 -1.530939 3.276345
v -2.569053 -2.170654 3.430583
v -2.601058 -1.972695 3.255463
v -3.320916 -1.596667 3.459691
v -2.601058 -1.972695 3.255463
v -1.718447 -1.824483 3.370004
v -1.935711 -1.694878 3.221978
v -2.569053 -2.170654 3.430583
v -1.619705 -0.9043173 3.338532
v -1.943066 -1.616576 3.481313
v -1.879305 -1.084736 3.470572
v -1.718447 -1.824483 3.370004
v -2.371568 -0.3303297 3.367641
v -1.879305 -1.084736 3.470572
v -2.302734 -0.7559572 3.502509
v -1.619705 -0.9043173 3.338532
v -3.222175 -0.6765007 3.42822
v -2.302734 -0.7559572 3.502509
v -2.789922 -0.9590261 3.545189
v -2.371568 -0.3303297 3.367641
v -3.222175 -0.6765007 3.42822
v -2.853681 -1.490866 3.55593
v -3.320916 -1.596667 3.459691
v -2.789922 -0.9590261 3.545189
v -3.320916 -1.596667 3.459691
v -2.430252 -1.819644 3.523992
v -2.569053 -2.170654 3.430583
v -2.853681 -1.490866 3.55593
v -1.718447 -1.824483 3.370004
v -2.430252 -1.819644 3.523992
v -1.943066 -1.616576 3.481313
v -2.569053 -2.170654 3.430583
v -1.943066 -1.616576 3.481313
v -2.302734 -0.7559572 3.502509
v -1.879305 -1.084736 3.470572
v -2.789922 -0.9590261 3.545189
v -2.430252 -1.819644 3.523992
v -2.853681 -1.490866 3.55593
v 0.6152732 0.8528316 2.936418
v 0.9478753 1.602903 3.071658
v 0.6893517 1.504323 2.946939
v 0.8424358 0.6796514 3.088072
v 0.6893517 1.504323 2.946939
v 0.1980453 2.167916 3.101461
v 0.1588497 1.90203 2.946939
v 0.9478753 1.602903 3.071658
v 0.1588497 1.90203 2.946939
v -0.6572223 1.809679 3.147678
v -0.4457308 1.648246 2.936418
v 0.1980453 2.167916 3.101461
v -0.4457308 1.648246 2.936418
v -0.7626636 0.8864265 3.164092
v -0.5198118 0.9967619 2.925898
v -0.6572223 1.809679 3.147678
v -0.5198118 0.9967619 2.925898
v -0.01283363 0.3214132 3.134289
v 0.01069022 0.5990546 2.925898
v -0.7626636 0.8864265 3.164092
v 0.01069022 0.5990546 2.925898
v 0.8424358 0.6796514 3.088072
v 0.6152732 0.8528316 2.936418
v -0.01283363 0.3214132 3.134289
v 0.8424358 0.6796514 3.088072
v 0.613854 1.499171 3.221041
v 0.9478753 1.602903 3.071658
v 0.55001 0.9414689 3.236392
v 0.9478753 1.602903 3.071658
v 0.1620274 1.84155 3.246478
v 0.1980453 2.167916 3.101461
v 0.613854 1.499171 3.221041
v 0.1980453 2.167916 3.101461
v -0.3536451 1.626226 3.287265
v -0.6572223 1.809679 3.147678
v 0.1620274 1.84155 3.246478
v -0.6572223 1.809679 3.147678
v -0.4174917 1.068531 3.302615
v -0.7626636 0.8864265 3.164092
v -0.3536451 1.626226 3.287265
v -0.7626636 0.8864265 3.164092
v 0.03433677 0.7261529 3.277179
v -0.01283363 0.3214132 3.134289
v -0.4174917 1.068531 3.302615
v -0.01283363 0.3214132 3.134289
v 0.55001 0.9414689 3.236392
v 0.8424358 0.6796514 3.088072
v 0.03433677 0.7261529 3.277179
v 0.01069022 0.5990546 2.925898
v -0.4457308 1.648246 2.936418
v -0.5198118 0.9967619 2.925898
v 0.6152732 0.8528316 2.936418
v 0.1588497 1.90203 2.946939
v 0.6893517 1.504323 2.946939
v 0.03433677 0.7261529 3.277179
v 0.613854 1.499171 3.221041
v 0.55001 0.9414689 3.236392
v 0.1620274 1.84155 3.246478
v -0.4174917 1.068531 3.302615
v -0.3536451 1.626226 3.287265

vn 0.2059326 -0.949707 -0.2365723
vn 0.2059326 -0.949707 -0.2365723
vn 0.2059326 -0.949707 -0.2365723
vn 0.1582031 -0.9492188 -0.2724609
vn 0.1582031 -0.9492188 -0.2724609
vn 0.1582031 -0.9492188 -0.2724609
vn 0.1622314 0.8022461 0.5742188
vn 0.1622314 0.8022461 0.5742188
vn 0.1622314 0.8022461 0.5742188
vn 0.2041016 0.7739258 0.5996094
vn 0.2041016 0.7739258 0.5996094
vn 0.2041016 0.7739258 0.5996094
vn 0.5512695 -0.6748047 -0.4909668
vn 0.5512695 -0.6748047 -0.4909668
vn 0.5512695 -0.6748047 -0.4909668
vn -0.706543 0.7075195 0.01294708
vn -0.706543 0.7075195 0.01294708
vn -0.706543 0.7075195 0.01294708
vn -0.04519653 0.6992188 0.7133789
vn -0.04519653 0.6992188 0.7133789
vn -0.04519653 0.6992188 0.7133789
vn 0.7822266 0.007423401 0.6230469
vn 0.7822266 0.007423401 0.6230469
vn 0.7822266 0.007423401 0.6230469
vn 0.3659668 0.8666992 -0.3391113
vn 0.3659668 0.8666992 -0.3391113
vn 0.3659668 0.8666992 -0.3391113
vn -0.6450195 0.7241211 -0.2441406
vn -0.6450195 0.7241211 -0.2441406
vn -0.6450195 0.7241211 -0.2441406
vn 0.1032715 -0.9238281 0.3688965
vn 0.1032715 -0.9238281 0.3688965
vn 0.1032715 -0.9238281 0.3688965
vn 0.1806641 -0.9179688 0.3530273
vn 0.1806641 -0.9179688 0.3530273
vn 0.1806641 -0.9179688 0.3530273
vn 0.9912109 0.1210327 0.05654907
vn 0.9912109 0.1210327 0.05654907
vn 0.9912109 0.1210327 0.05654907
vn -0.9824219 -0.0480957 0.1798096
vn -0.9824219 -0.0480957 0.1798096
vn -0.9824219 -0.0480957 0.1798096
vn 0.1212769 -0.8227539 0.5551758
vn 0.1212769 -0.8227539 0.5551758
vn 0.1212769 -0.8227539 0.5551758
vn -0.2338867 -0.9628906 -0.1359863
vn -0.2338867 -0.9628906 -0.1359863
vn -0.2338867 -0.9628906 -0.1359863
vn -0.2531738 -0.9628906 -0.09136963
vn -0.2531738 -0.9628906 -0.09136963
vn -0.2531738 -0.9628906 -0.09136963
vn -0.5957031 -0.6342773 -0.4931641
vn -0.5957031 -0.6342773 -0.4931641
vn -0.5957031 -0.6342773 -0.4931641
vn -0.7734375 0.1107788 0.6245117
vn -0.7734375 0.1107788 0.6245117
vn -0.7734375 0.1107788 0.6245117
vn 0.1235352 0.7075195 0.6958008
vn 0.1235352 0.7075195 0.6958008
vn 0.1235352 0.7075195 0.6958008
vn 0.7714844 0.6362305 0.01721191
vn 0.7714844 0.6362305 0.01721191
vn 0.7714844 0.6362305 0.01721191
vn -0.1314697 0.9121094 0.388916
vn -0.1279297 0.9145508 0.3837891
vn -0.1396484 0.9057617 0.4001465
vn -0.1279297 0.9145508 0.3837891
vn -0.1314697 0.9121094 0.388916
vn -0.1231079 0.9179688 0.3771973
vn -0.168457 0.4733887 -0.8647461
vn -0.168457 0.4733887 -0.8647461
vn -0.168457 0.4733887 -0.8647461
vn -0.1340332 0.4760742 -0.8691406
vn -0.8803711 0.3642578 -0.3041992
vn -0.8803711 0.3642578 -0.3041992
vn -0.8803711 0.3642578 -0.3041992
vn -0.8808594 0.3640137 -0.3027344
vn -0.7436523 -0.09185791 0.6621094
vn -0.7436523 -0.09185791 0.6621094
vn -0.7436523 -0.09185791 0.6621094
vn -0.7514648 -0.08898926 0.6538086
vn 0.1503906 -0.3959961 0.9057617
vn 0.1503906 -0.3959961 0.9057617
vn 0.1503906 -0.3959961 0.9057617
vn 0.1757813 -0.3937988 0.9023438
vn 0.9082031 -0.2780762 0.3122559
vn 0.9082031 -0.2780762 0.3122559
vn 0.9082031 -0.2780762 0.3122559
vn 0.909668 -0.2775879 0.3085938
vn 0.7392578 0.2000732 -0.6430664
vn 0.7392578 0.2000732 -0.6430664
vn 0.7392578 0.2000732 -0.6430664
vn 0.7353516 0.201416 -0.6469727
vn -0.2015381 0.07171631 -0.9770508
vn -0.201416 0.07171631 -0.9770508
vn -0.201416 0.07171631 -0.9770508
vn -0.2000732 0.07189941 -0.9770508
vn -0.9433594 0.05319214 -0.3271484
vn -0.9433594 0.05319214 -0.3271484
vn -0.9433594 0.05319214 -0.3271484
vn -0.949707 0.05505371 -0.3085938
vn -0.75 0.002576828 0.6611328
vn -0.75 0.002576828 0.6611328
vn -0.7436523 0.003372192 0.668457
vn -0.75 0.002576828 0.6611328
vn -0.7514648 0.03469849 0.6586914
vn -0.7514648 0.03469849 0.6586914
vn 0.2003174 -0.02787781 0.9794922
vn 0.2003174 -0.02787781 0.9794922
vn 0.2003174 -0.02787781 0.9794922
vn 0.2050781 -0.02728271 0.9785156
vn 0.9462891 -0.009941101 0.3232422
vn 0.9462891 -0.009941101 0.3232422
vn 0.9462891 -0.009941101 0.3232422
vn 0.9516602 -0.01150513 0.3066406
vn 0.7456055 0.03781128 -0.6650391
vn 0.7456055 0.03781128 -0.6650391
vn 0.7446289 0.03768921 -0.6665039
vn 0.7456055 0.03781128 -0.6650391
vn 0.7495117 0.005664825 -0.6616211
vn 0.7495117 0.005664825 -0.6616211
vn -0.2019043 -0.3024902 -0.9316406
vn -0.2019043 -0.3024902 -0.9316406
vn -0.2019043 -0.3024902 -0.9316406
vn -0.1793213 -0.2966309 -0.9379883
vn -0.9179688 -0.2800293 -0.2802734
vn -0.9233398 -0.2758789 -0.267334
vn -0.9238281 -0.2753906 -0.2663574
vn -0.9179688 -0.2802734 -0.28125
vn 0.2027588 0.3361816 0.9199219
vn 0.2027588 0.3361816 0.9199219
vn 0.2027588 0.3361816 0.9199219
vn 0.175415 0.3347168 0.9257813
vn 0.9140625 0.314209 0.2570801
vn 0.9077148 0.3190918 0.2722168
vn 0.9145508 0.3137207 0.2558594
vn 0.9072266 0.3193359 0.2734375
vn -0.6147461 0.06750488 -0.7861328
vn -0.6147461 0.06750488 -0.7861328
vn -0.6166992 0.09674072 -0.78125
vn -0.6147461 0.06750488 -0.7861328
vn -0.6005859 0.07299805 -0.7963867
vn -0.4616699 0.862793 -0.2059326
vn -0.4616699 0.862793 -0.2059326
vn -0.4616699 0.862793 -0.2059326
vn -0.4428711 0.8774414 -0.1832275
vn 0.644043 -0.05575562 0.7626953
vn 0.644043 -0.05575562 0.7626953
vn 0.644043 -0.05575562 0.7626953
vn 0.6464844 -0.08862305 0.7578125
vn 0.9941406 0.08410645 -0.06567383
vn 0.9941406 0.08410645 -0.06567383
vn 0.9941406 0.08410645 -0.06567383
vn 0.9916992 0.1072388 -0.0725708
vn 0.4099121 0.8476563 -0.3374023
vn 0.4099121 0.8476563 -0.3374023
vn 0.4099121 0.8476563 -0.3374023
vn 0.4077148 0.8417969 -0.3537598
vn -0.5854492 0.7646484 -0.2685547
vn -0.5854492 0.7646484 -0.2685547
vn -0.5854492 0.7646484 -0.2685547
vn -0.5869141 0.7553711 -0.2922363
vn -0.9936523 -0.07904053 0.08209229
vn -0.9936523 -0.07904053 0.08209229
vn -0.9936523 -0.07904053 0.08209229
vn -0.9907227 -0.1036987 0.08966064
vn -0.5947266 0.03173828 0.8032227
vn -0.5947266 0.03173828 0.8032227
vn -0.5947266 0.03173828 0.8032227
vn -0.5893555 0.07208252 0.8046875
vn -0.1134033 0.8554688 0.5053711
vn -0.1134033 0.8554688 0.5053711
vn -0.1134033 0.8554688 0.5053711
vn -0.09338379 0.8740234 0.4768066
vn 0.4699707 0.8256836 -0.3122559
vn 0.4699707 0.8256836 -0.3122559
vn 0.4699707 0.8256836 -0.3122559
vn 0.4807129 0.8056641 -0.345459
vn 0.5629883 -0.01916504 -0.8261719
vn 0.5629883 -0.01916504 -0.8261719
vn 0.5571289 -0.06317139 -0.828125
vn 0.5629883 -0.01916504 -0.8261719
vn 0.5961914 -0.03231812 -0.8022461
vn -0.1113892 -0.8500977 -0.5146484
vn -0.1188965 -0.8720703 -0.4748535
vn -0.123291 -0.8842773 -0.4504395
vn -0.1088257 -0.8422852 -0.527832
vn -0.5136719 -0.8442383 -0.152832
vn -0.543457 -0.8198242 -0.1790771
vn -0.5581055 -0.8076172 -0.1918945
vn -0.5048828 -0.8505859 -0.1453857
vn -0.4599609 -0.7880859 0.4091797
vn -0.5180664 -0.7451172 0.4204102
vn -0.5537109 -0.715332 0.4265137
vn -0.4355469 -0.8046875 0.4038086
vn 0.1727295 -0.7026367 0.6899414
vn 0.1656494 -0.684082 0.7104492
vn 0.1605225 -0.6704102 0.7246094
vn 0.1759033 -0.7114258 0.6806641
vn 0.690918 -0.6757813 0.2578125
vn 0.675293 -0.6972656 0.2404785
vn 0.6635742 -0.7124023 0.2282715
vn 0.6967773 -0.6669922 0.2644043
vn 0.5136719 -0.7734375 -0.3710938
vn 0.4560547 -0.8149414 -0.3579102
vn 0.4094238 -0.8442383 -0.3464355
vn 0.5371094 -0.7553711 -0.3759766
vn -0.1253662 0.8945313 -0.4296875
vn -0.1209106 0.8974609 -0.4243164
vn -0.1179199 0.8994141 -0.4206543
vn -0.1309814 0.8901367 -0.4362793
vn -0.4543457 0.8691406 -0.1959229
vn -0.4680176 0.8618164 -0.194458
vn -0.4736328 0.8588867 -0.1938477
vn -0.4418945 0.875 -0.1972656
vn -0.3979492 0.8862305 0.237793
vn -0.4055176 0.8774414 0.2563477
vn -0.4091797 0.8730469 0.265625
vn -0.3908691 0.8935547 0.2200928
vn 0.07232666 0.9111328 0.4052734
vn 0.07733154 0.9086914 0.4106445
vn 0.08044434 0.9067383 0.4140625
vn 0.06665039 0.9145508 0.3989258
vn 0.3996582 0.9111328 0.09960938
vn 0.3903809 0.9150391 0.1008911
vn 0.3852539 0.9169922 0.1016846
vn 0.4089355 0.9072266 0.0982666
vn 0.2756348 0.9130859 -0.300293
vn 0.2702637 0.9189453 -0.2871094
vn 0.2663574 0.9233398 -0.2770996
vn 0.2822266 0.9052734 -0.3171387
vn -0.01963806 -1 -0.006755829
vn -0.01963806 -1 -0.006755829
vn -0.01963806 -1 -0.006755829
vn -0.01963806 -1 -0.006755829
vn -0.01963806 -1 -0.006755829
vn -0.01963806 -1 -0.006755829
vn -0.1335449 -0.6982422 -0.703125
vn -0.1373291 -0.7114258 -0.6894531
vn -0.1395264 -0.7192383 -0.6806641
vn -0.1320801 -0.6933594 -0.7084961
vn -0.7304688 -0.6455078 -0.2232666
vn -0.7304688 -0.6455078 -0.2232666
vn -0.7304688 -0.6455078 -0.2232666
vn -0.7304688 -0.6450195 -0.2236328
vn -0.6157227 -0.5556641 0.5585938
vn -0.6259766 -0.5444336 0.5581055
vn -0.6318359 -0.5380859 0.5581055
vn -0.6118164 -0.5600586 0.5585938
vn 0.2362061 -0.423584 0.8745117
vn 0.2283936 -0.4033203 0.8862305
vn 0.223999 -0.3916016 0.8925781
vn 0.2392578 -0.4318848 0.8696289
vn 0.8603516 -0.3933105 0.3234863
vn 0.8588867 -0.3991699 0.3208008
vn 0.8579102 -0.4025879 0.3193359
vn 0.8613281 -0.3911133 0.324707
vn 0.6801758 -0.5737305 -0.4562988
vn 0.659668 -0.5996094 -0.4528809
vn 0.6445313 -0.6181641 -0.4501953
vn 0.6894531 -0.5615234 -0.4577637
vn -0.1827393 0.7592773 -0.625
vn -0.1894531 0.7734375 -0.6044922
vn -0.1757813 0.7436523 -0.6450195
vn -0.192749 0.7807617 -0.5942383
vn -0.5854492 0.7641602 -0.2702637
vn -0.5664063 0.7851563 -0.2507324
vn -0.6098633 0.7348633 -0.2961426
vn -0.5537109 0.7983398 -0.2375488
vn -0.4360352 0.8764648 0.2034912
vn -0.4306641 0.8793945 0.2027588
vn -0.4521484 0.8681641 0.2054443
vn -0.4208984 0.8842773 0.2015381
vn 0.04037476 0.9331055 0.3579102
vn 0.03631592 0.9345703 0.354248
vn 0.02883911 0.9370117 0.3474121
vn 0.0526123 0.9282227 0.3688965
vn 0.4379883 0.8950195 0.08563232
vn 0.4118652 0.9072266 0.08807373
vn 0.3918457 0.9155273 0.08984375
vn 0.4758301 0.8754883 0.08197021
vn 0.3444824 0.8442383 -0.4101563
vn 0.3654785 0.8344727 -0.4123535
vn 0.3220215 0.8544922 -0.407959
vn 0.3764648 0.8291016 -0.4133301
vn -0.04989624 0.9853516 -0.1643066
vn -0.04989624 0.9853516 -0.1643066
vn -0.04989624 0.9853516 -0.1643066
vn -0.04989624 0.9853516 -0.1643066
vn -0.04989624 0.9853516 -0.1643066
vn -0.04989624 0.9853516 -0.1643066
vn -0.1300049 0.8525391 -0.5063477
vn -0.1303711 0.8530273 -0.5053711
vn -0.1273193 0.8500977 -0.5107422
vn -0.1317139 0.8540039 -0.5029297
vn -0.4128418 0.8686523 -0.2731934
vn -0.4116211 0.8701172 -0.2714844
vn -0.4194336 0.862793 -0.2827148
vn -0.4084473 0.8730469 -0.2670898
vn -0.3261719 0.9428711 0.06964111
vn -0.3259277 0.9428711 0.06964111
vn -0.3327637 0.9404297 0.06976318
vn -0.3225098 0.9438477 0.06951904
vn 0.02578735 0.9819336 0.1867676
vn 0.02587891 0.9819336 0.1868896
vn 0.03120422 0.980957 0.19104
vn 0.0229187 0.9824219 0.1845703
vn 0.2993164 0.9541016 -0.02201843
vn 0.3010254 0.953125 -0.02246094
vn 0.3122559 0.949707 -0.02531433
vn 0.2937012 0.9555664 -0.02061462
vn 0.237915 0.8979492 -0.3696289
vn 0.2380371 0.8979492 -0.3703613
vn 0.2392578 0.8955078 -0.3754883
vn 0.2373047 0.8994141 -0.3669434
vn -0.1413574 -0.7128906 -0.6870117
vn -0.1334229 -0.7241211 -0.6767578
vn -0.1437988 -0.7094727 -0.6899414
vn -0.1298828 -0.7290039 -0.6723633
vn -0.8105469 -0.5400391 -0.2269287
vn -0.7954102 -0.5615234 -0.2266846
vn -0.8144531 -0.5341797 -0.2269287
vn -0.7890625 -0.5708008 -0.2265625
vn -0.7280273 -0.2668457 0.6313477
vn -0.7270508 -0.2751465 0.6289063
vn -0.7285156 -0.2644043 0.6318359
vn -0.7270508 -0.2788086 0.6274414
vn 0.2270508 -0.1140137 0.9672852
vn 0.2243652 -0.1054688 0.96875
vn 0.2235107 -0.1030884 0.9692383
vn 0.2280273 -0.1174316 0.9663086
vn 0.8876953 -0.2939453 0.354248
vn 0.8935547 -0.2663574 0.3613281
vn 0.8950195 -0.2592773 0.3630371
vn 0.8852539 -0.3054199 0.3513184
vn 0.6704102 -0.6103516 -0.421875
vn 0.6806641 -0.5957031 -0.4257813
vn 0.684082 -0.5913086 -0.4272461
vn 0.6655273 -0.6166992 -0.4199219
vn -0.3735352 -0.8876953 -0.2687988
vn -0.3513184 -0.90625 -0.2358398
vn -0.3383789 -0.9155273 -0.2171631
vn -0.380127 -0.8818359 -0.2785645
vn -0.3959961 -0.8945313 0.2077637
vn -0.4328613 -0.8764648 0.2102051
vn -0.451416 -0.8666992 0.2114258
vn -0.3852539 -0.8994141 0.2069092
vn -0.02166748 -0.8383789 0.5444336
vn -0.05233765 -0.7993164 0.5991211
vn -0.06896973 -0.7758789 0.6274414
vn -0.01156616 -0.8505859 0.5258789
vn 0.5341797 -0.765625 0.3586426
vn 0.5458984 -0.746582 0.380127
vn 0.5532227 -0.734375 0.3933105
vn 0.5297852 -0.7724609 0.3505859
vn 0.5981445 -0.7583008 -0.2595215
vn 0.5722656 -0.777832 -0.2597656
vn 0.5551758 -0.7900391 -0.2597656
vn 0.6074219 -0.7509766 -0.2592773
vn 0.07952881 -0.8251953 -0.5595703
vn 0.04998779 -0.8618164 -0.5048828
vn 0.03070068 -0.8833008 -0.4677734
vn 0.08953857 -0.8115234 -0.5776367
vn -0.3266602 0.9233398 -0.2021484
vn -0.3200684 0.9257813 -0.2010498
vn -0.3161621 0.9272461 -0.2004395
vn -0.3339844 0.9204102 -0.2033691
vn -0.3835449 0.9125977 0.1424561
vn -0.3916016 0.9077148 0.1518555
vn -0.3950195 0.9052734 0.1558838
vn -0.3759766 0.9169922 0.1339111
vn -0.08837891 0.9179688 0.3862305
vn -0.0814209 0.9111328 0.404541
vn -0.07836914 0.9077148 0.4123535
vn -0.09448242 0.9243164 0.3701172
vn 0.2792969 0.9355469 0.2160645
vn 0.286377 0.9331055 0.2169189
vn 0.2900391 0.9321289 0.2174072
vn 0.2724609 0.9379883 0.215332
vn 0.2888184 0.9423828 -0.1699219
vn 0.2841797 0.9448242 -0.1638184
vn 0.28125 0.9462891 -0.1600342
vn 0.2939453 0.9394531 -0.1766357
vn -0.01925659 0.9360352 -0.3510742
vn -0.01420593 0.940918 -0.338623
vn -0.01079559 0.9438477 -0.3300781
vn -0.02540588 0.9301758 -0.3664551
vn -0.01480865 -1 0.006931305
vn -0.01480865 -1 0.006931305
vn -0.01480865 -1 0.006931305
vn -0.01480865 -1 0.006931305
vn -0.01480865 -1 0.006931305
vn -0.01480865 -1 0.006931305
vn -0.5195313 -0.7587891 -0.3928223
vn -0.5107422 -0.7714844 -0.3791504
vn -0.5063477 -0.777832 -0.3718262
vn -0.5219727 -0.7543945 -0.3974609
vn -0.6064453 -0.7314453 0.3117676
vn -0.605957 -0.7319336 0.3117676
vn -0.605957 -0.7319336 0.3117676
vn -0.6064453 -0.7314453 0.3117676
vn -0.02500916 -0.625 0.7802734
vn -0.03262329 -0.6123047 0.7900391
vn -0.03573608 -0.6069336 0.7939453
vn -0.02285767 -0.628418 0.777832
vn 0.7314453 -0.4916992 0.472168
vn 0.7373047 -0.4663086 0.4890137
vn 0.7392578 -0.4550781 0.4963379
vn 0.7299805 -0.4990234 0.4672852
vn 0.8071289 -0.4772949 -0.3479004
vn 0.8027344 -0.484375 -0.3483887
vn 0.800293 -0.487793 -0.3486328
vn 0.8081055 -0.4753418 -0.3476563
vn 0.1322021 -0.644043 -0.753418
vn 0.1195068 -0.671875 -0.730957
vn 0.1119995 -0.6879883 -0.7172852
vn 0.1368408 -0.6337891 -0.7612305
vn -0.4936523 0.8139648 -0.3056641
vn -0.482666 0.8276367 -0.2856445
vn -0.5039063 0.8007813 -0.3242188
vn -0.4780273 0.8334961 -0.2773438
vn -0.5239258 0.8330078 0.1785889
vn -0.4968262 0.8491211 0.1787109
vn -0.5605469 0.809082 0.1779785
vn -0.4785156 0.8598633 0.1787109
vn 0.232666 0.9511719 0.2032471
vn 0.2271729 0.9526367 0.203125
vn 0.2191162 0.9541016 0.2030029
vn 0.2458496 0.9477539 0.2033691
vn 0.3041992 0.9306641 -0.2023926
vn 0.2900391 0.9389648 -0.1855469
vn 0.2783203 0.9448242 -0.1715088
vn 0.326416 0.9169922 -0.2288818
vn -0.04611206 0.8823242 -0.4685059
vn -0.03414917 0.8735352 -0.4853516
vn -0.05679321 0.8896484 -0.4533691
vn -0.02871704 0.8696289 -0.4929199
vn -0.1075439 0.9931641 -0.04144287
vn -0.1075439 0.9931641 -0.04144287
vn -0.1075439 0.9931641 -0.04144287
vn -0.1075439 0.9931641 -0.04144287
vn -0.1075439 0.9931641 -0.04144287
vn -0.1075439 0.9931641 -0.04144287
vn 0.1580811 -0.9360352 -0.3144531
vn 0.1340332 -0.9477539 -0.2902832
vn 0.1213379 -0.953125 -0.2775879
vn 0.1646729 -0.9326172 -0.3210449
vn -0.2034912 -0.9404297 -0.2719727
vn -0.211792 -0.9291992 -0.3032227
vn -0.2158203 -0.9233398 -0.3178711
vn -0.2012939 -0.9433594 -0.263916
vn -0.4211426 -0.9057617 0.05075073
vn -0.4787598 -0.8774414 0.03347778
vn -0.5068359 -0.8618164 0.02479553
vn -0.4047852 -0.9125977 0.05554199
vn -0.2171631 -0.8549805 0.4711914
vn -0.2363281 -0.8398438 0.4887695
vn -0.246582 -0.831543 0.4980469
vn -0.2114258 -0.859375 0.4658203
vn 0.2844238 -0.8486328 0.4462891
vn 0.2783203 -0.8637695 0.420166
vn 0.2749023 -0.8720703 0.4050293
vn 0.2861328 -0.84375 0.4541016
vn 0.4458008 -0.8950195 -0.007118225
vn 0.3901367 -0.9204102 -0.02366638
vn 0.3569336 -0.9335938 -0.03323364
vn 0.4621582 -0.8867188 -0.002128601
vn 0.111145 0.9575195 -0.2661133
vn 0.1109619 0.9589844 -0.260498
vn 0.1109009 0.9599609 -0.2575684
vn 0.1113281 0.9560547 -0.2719727
vn -0.1516113 0.9511719 -0.2685547
vn -0.1602783 0.9482422 -0.2744141
vn -0.1636963 0.9467773 -0.2766113
vn -0.144165 0.9536133 -0.2636719
vn -0.2971191 0.9545898 -0.01998901
vn -0.3115234 0.9501953 -0.01239014
vn -0.3171387 0.9482422 -0.009338379
vn -0.2854004 0.9580078 -0.02618408
vn -0.1263428 0.9648438 0.2312012
vn -0.1262207 0.9633789 0.2368164
vn -0.1262207 0.9624023 0.239624
vn -0.1264648 0.9658203 0.2259521
vn 0.1588135 0.9682617 0.1922607
vn 0.1534424 0.9697266 0.1893311
vn 0.1502686 0.9707031 0.1875
vn 0.1644287 0.9667969 0.1954346
vn 0.2565918 0.9648438 -0.05560303
vn 0.2469482 0.9677734 -0.05007935
vn 0.2409668 0.9692383 -0.04660034
vn 0.2675781 0.9614258 -0.06201172
vn -0.006645203 -1 -0.009788513
vn -0.006645203 -1 -0.009788513
vn -0.006645203 -1 -0.009788513
vn -0.006645203 -1 -0.009788513
vn -0.006645203 -1 -0.009788513
vn -0.006645203 -1 -0.009788513
vn 0.2484131 -0.8491211 -0.4660645
vn 0.2362061 -0.8588867 -0.4541016
vn 0.2307129 -0.8632813 -0.4487305
vn 0.251709 -0.8461914 -0.4694824
vn -0.3308105 -0.8291016 -0.4506836
vn -0.3308105 -0.8291016 -0.4504395
vn -0.3308105 -0.8291016 -0.4504395
vn -0.3308105 -0.8291016 -0.4506836
vn -0.6645508 -0.7421875 0.08477783
vn -0.6787109 -0.7299805 0.07952881
vn -0.6835938 -0.7260742 0.07781982
vn -0.6616211 -0.7446289 0.08587646
vn -0.3166504 -0.6166992 0.7207031
vn -0.3361816 -0.5869141 0.7363281
vn -0.3425293 -0.5771484 0.7412109
vn -0.3125 -0.6225586 0.7172852
vn 0.4284668 -0.6000977 0.6757813
vn 0.427002 -0.6079102 0.6694336
vn 0.4265137 -0.6113281 0.6665039
vn 0.4287109 -0.5981445 0.6767578
vn 0.6533203 -0.7568359 0.01043701
vn 0.6225586 -0.7827148 0.001976013
vn 0.6069336 -0.7949219 -0.002145767
vn 0.6621094 -0.7495117 0.01285553
vn 0.1774902 0.8881836 -0.4238281
vn 0.1611328 0.8979492 -0.4089355
vn 0.1912842 0.8793945 -0.4360352
vn 0.1552734 0.9013672 -0.4038086
vn -0.2028809 0.9008789 -0.3835449
vn -0.197876 0.9125977 -0.3581543
vn -0.2091064 0.8847656 -0.4160156
vn -0.1948242 0.918457 -0.3435059
vn -0.3054199 0.9506836 -0.05172729
vn -0.3007813 0.9526367 -0.04946899
vn -0.3156738 0.9472656 -0.05657959
vn -0.2949219 0.9545898 -0.04672241
vn -0.12146 0.9736328 0.1939697
vn -0.1220093 0.9741211 0.1895752
vn -0.1226807 0.9750977 0.1837158
vn -0.1202393 0.9716797 0.2038574
vn 0.1855469 0.9619141 0.2009277
vn 0.1702881 0.9667969 0.1914063
vn 0.1584473 0.9702148 0.184082
vn 0.2089844 0.9541016 0.2155762
vn 0.3481445 0.9331055 -0.09161377
vn 0.364502 0.9272461 -0.08453369
vn 0.3347168 0.9375 -0.09729004
vn 0.3710938 0.9248047 -0.08166504
vn 0.01739502 0.996582 -0.08184814
vn 0.01739502 0.996582 -0.08184814
vn 0.01739502 0.996582 -0.08184814
vn 0.01739502 0.996582 -0.08184814
vn 0.01739502 0.996582 -0.08184814
vn 0.01739502 0.996582 -0.08184814
vn 0.2275391 -0.8618164 -0.4536133
vn 0.1970215 -0.8828125 -0.4260254
vn 0.1790771 -0.8945313 -0.4094238
vn 0.2370605 -0.8544922 -0.4621582
vn -0.2958984 -0.8691406 -0.3962402
vn -0.3034668 -0.8486328 -0.4335938
vn -0.307373 -0.8369141 -0.4528809
vn -0.293457 -0.875 -0.3850098
vn -0.5908203 -0.8037109 0.06994629
vn -0.6474609 -0.7607422 0.04669189
vn -0.6782227 -0.7338867 0.03320313
vn -0.5698242 -0.8178711 0.07824707
vn -0.2902832 -0.722168 0.6279297
vn -0.3088379 -0.7026367 0.640625
vn -0.3212891 -0.6894531 0.6489258
vn -0.2822266 -0.7304688 0.6220703
vn 0.3759766 -0.715332 0.5888672
vn 0.3735352 -0.7358398 0.5649414
vn 0.371582 -0.75 0.5473633
vn 0.3769531 -0.7070313 0.5981445
vn 0.6132813 -0.7895508 -0.01095581
vn 0.5561523 -0.8305664 -0.03289795
vn 0.5146484 -0.855957 -0.0479126
vn 0.6337891 -0.7734375 -0.002918243
vn 0.164917 0.9038086 -0.3945313
vn 0.164917 0.9067383 -0.3874512
vn 0.1650391 0.9086914 -0.3833008
vn 0.1647949 0.9003906 -0.4025879
vn -0.2235107 0.890625 -0.3955078
vn -0.2346191 0.8852539 -0.4020996
vn -0.2397461 0.8823242 -0.4050293
vn -0.2128906 0.8959961 -0.3894043
vn -0.4396973 0.8974609 -0.02920532
vn -0.4572754 0.8891602 -0.01856995
vn -0.465332 0.8852539 -0.01369476
vn -0.423584 0.9047852 -0.03887939
vn -0.1890869 0.9189453 0.3461914
vn -0.1887207 0.9160156 0.3537598
vn -0.1884766 0.9145508 0.3579102
vn -0.1895752 0.9213867 0.3388672
vn 0.2386475 0.9272461 0.2890625
vn 0.2314453 0.9301758 0.2854004
vn 0.2266846 0.9321289 0.282959
vn 0.2468262 0.9233398 0.293457
vn 0.3840332 0.9194336 -0.08306885
vn 0.371582 0.925293 -0.07550049
vn 0.3630371 0.9291992 -0.07019043
vn 0.3991699 0.9121094 -0.09246826
vn -0.01044464 -1 -0.01538086
vn -0.01044464 -1 -0.01538086
vn -0.01044464 -1 -0.01538086
vn -0.01044464 -1 -0.01538086
vn -0.01044464 -1 -0.01538849
vn -0.01044464 -1 -0.01538849
vn 0.004730225 0.9970703 -0.07324219
vn 0.004730225 0.9970703 -0.07324219
vn 0.004730225 0.9970703 -0.07324219
vn 0.004730225 0.9970703 -0.07324219
vn 0.004730225 0.9970703 -0.07324219
vn 0.004730225 0.9970703 -0.07324219

vt 0.8266602 0.4970703
vt 0.7890625 0.4775391
vt 0.8217773 0.4960938
vt 0.7890625 0.4775391
vt 0.8266602 0.4970703
vt 0.7924805 0.4780273
vt 0.7875977 0.4870605
vt 0.8217773 0.5083008
vt 0.8198242 0.5039063
vt 0.8217773 0.5083008
vt 0.7875977 0.4870605
vt 0.7885742 0.4924316
vt 0.8217773 0.4960938
vt 0.8486328 0.5424805
vt 0.8266602 0.4970703
vt 0.8251953 0.5048828
vt 0.8486328 0.5424805
vt 0.8217773 0.5083008
vt 0.8217773 0.5083008
vt 0.8486328 0.5424805
vt 0.8198242 0.5039063
vt 0.8198242 0.5039063
vt 0.8486328 0.5424805
vt 0.8217773 0.4960938
vt 0.7275391 0.5292969
vt 0.784668 0.4968262
vt 0.7871094 0.4931641
vt 0.7265625 0.5317383
vt 0.78125 0.4924316
vt 0.784668 0.4968262
vt 0.7265625 0.5224609
vt 0.7802734 0.4846191
vt 0.7231445 0.5219727
vt 0.7802734 0.4846191
vt 0.7265625 0.5224609
vt 0.7866211 0.4851074
vt 0.7265625 0.5224609
vt 0.699707 0.5498047
vt 0.7275391 0.5292969
vt 0.7241211 0.5283203
vt 0.699707 0.5498047
vt 0.7231445 0.5219727
vt 0.7231445 0.5219727
vt 0.699707 0.5498047
vt 0.7265625 0.5224609
vt 0.7954102 0.4970703
vt 0.7919922 0.4775391
vt 0.8041992 0.4960938
vt 0.7919922 0.4775391
vt 0.7954102 0.4970703
vt 0.7807617 0.4780273
vt 0.8041992 0.4960938
vt 0.8134766 0.5463867
vt 0.7954102 0.4970703
vt 0.7954102 0.4970703
vt 0.8134766 0.5463867
vt 0.7954102 0.5048828
vt 0.7954102 0.5048828
vt 0.8134766 0.5463867
vt 0.7993164 0.5083008
vt 0.7993164 0.5083008
vt 0.8134766 0.5463867
vt 0.8041992 0.5039063
vt 0.1964111 0.5068359
vt 0.2272949 0.5209961
vt 0.2443848 0.5292969
vt 0.2272949 0.5209961
vt 0.1964111 0.5068359
vt 0.1676025 0.4951172
vt 0.8217773 0.357666
vt 0.7924805 0.4421387
vt 0.8149414 0.357666
vt 0.7978516 0.4404297
vt 0.8007813 0.357666
vt 0.7924805 0.4421387
vt 0.7822266 0.4428711
vt 0.8149414 0.357666
vt 0.7939453 0.357666
vt 0.7822266 0.4428711
vt 0.7768555 0.4421387
vt 0.8007813 0.357666
vt 0.8007813 0.357666
vt 0.7768555 0.4421387
vt 0.7822266 0.4404297
vt 0.7939453 0.357666
vt 0.8007813 0.357666
vt 0.7929688 0.4396973
vt 0.8149414 0.357666
vt 0.7822266 0.4404297
vt 0.8149414 0.357666
vt 0.7978516 0.4404297
vt 0.8217773 0.357666
vt 0.7929688 0.4396973
vt 0.7890625 0.5507813
vt 0.7978516 0.4404297
vt 0.793457 0.5512695
vt 0.7924805 0.4421387
vt 0.7822266 0.4428711
vt 0.7890625 0.5507813
vt 0.7802734 0.5522461
vt 0.7924805 0.4421387
vt 0.7802734 0.5522461
vt 0.7768555 0.4421387
vt 0.7822266 0.4428711
vt 0.7758789 0.5537109
vt 0.7958984 0.6645508
vt 0.7924805 0.6655273
vt 0.7822266 0.4404297
vt 0.7758789 0.5537109
vt 0.7802734 0.5541992
vt 0.7768555 0.4421387
vt 0.7890625 0.5532227
vt 0.7822266 0.4404297
vt 0.7802734 0.5541992
vt 0.7929688 0.4396973
vt 0.7929688 0.4396973
vt 0.793457 0.5512695
vt 0.7978516 0.4404297
vt 0.7890625 0.5532227
vt 0.8066406 0.6621094
vt 0.8032227 0.6630859
vt 0.8032227 0.6630859
vt 0.793457 0.5512695
vt 0.8066406 0.6621094
vt 0.7890625 0.5507813
vt 0.7802734 0.5522461
vt 0.8032227 0.6630859
vt 0.7958984 0.6645508
vt 0.7890625 0.5507813
vt 0.7958984 0.6645508
vt 0.7758789 0.5537109
vt 0.7924805 0.6655273
vt 0.7802734 0.5541992
vt 0.8032227 0.6630859
vt 0.7802734 0.5541992
vt 0.7958984 0.6645508
vt 0.7890625 0.5532227
vt 0.8266602 0.4970703
vt 0.7910156 0.487793
vt 0.7924805 0.4780273
vt 0.8251953 0.5048828
vt 0.8486328 0.5424805
vt 0.7885742 0.4924316
vt 0.8251953 0.5048828
vt 0.8217773 0.5083008
vt 0.7910156 0.487793
vt 0.8217773 0.4960938
vt 0.7875977 0.4870605
vt 0.8198242 0.5039063
vt 0.7890625 0.4775391
vt 0.7871094 0.4931641
vt 0.7265625 0.5224609
vt 0.7275391 0.5292969
vt 0.7866211 0.4851074
vt 0.784668 0.4968262
vt 0.7275391 0.5292969
vt 0.7265625 0.5317383
vt 0.699707 0.5498047
vt 0.78125 0.4924316
vt 0.7265625 0.5317383
vt 0.7241211 0.5283203
vt 0.699707 0.5498047
vt 0.7231445 0.5219727
vt 0.78125 0.4924316
vt 0.7241211 0.5283203
vt 0.7802734 0.4846191
vt 0.7807617 0.487793
vt 0.7954102 0.4970703
vt 0.7954102 0.5048828
vt 0.7807617 0.4780273
vt 0.7866211 0.4924316
vt 0.7954102 0.5048828
vt 0.7993164 0.5083008
vt 0.7807617 0.487793
vt 0.7919922 0.4870605
vt 0.7993164 0.5083008
vt 0.8041992 0.5039063
vt 0.7866211 0.4924316
vt 0.7919922 0.4870605
vt 0.8041992 0.4960938
vt 0.7919922 0.4775391
vt 0.8041992 0.5039063
vt 0.8134766 0.5463867
vt 0.4284668 0.1466064
vt 0.3933105 0.1734619
vt 0.3649902 0.1486816
vt 0.4833984 0.1766357
vt 0.3649902 0.1486816
vt 0.2131348 0.1793213
vt 0.2376709 0.1486816
vt 0.3933105 0.1734619
vt 0.2376709 0.1486816
vt 0.1229858 0.1884766
vt 0.1740723 0.1466064
vt 0.2131348 0.1793213
vt 0.1740723 0.1466064
vt 0.2131348 0.1917725
vt 0.2376709 0.1445313
vt 0.1229858 0.1884766
vt 0.2376709 0.1445313
vt 0.3933105 0.185791
vt 0.3649902 0.1445313
vt 0.2131348 0.1917725
vt 0.3649902 0.1445313
vt 0.4833984 0.1766357
vt 0.4284668 0.1466064
vt 0.3933105 0.185791
vt 0.4833984 0.1766357
vt 0.3540039 0.2030029
vt 0.3933105 0.1734619
vt 0.4084473 0.2060547
vt 0.3933105 0.1734619
vt 0.2451172 0.2080078
vt 0.2131348 0.1793213
vt 0.3540039 0.2030029
vt 0.2131348 0.1793213
vt 0.1906738 0.2161865
vt 0.1229858 0.1884766
vt 0.2451172 0.2080078
vt 0.1229858 0.1884766
vt 0.2451172 0.2192383
vt 0.2131348 0.1917725
vt 0.1906738 0.2161865
vt 0.2131348 0.1917725
vt 0.3540039 0.2141113
vt 0.3933105 0.185791
vt 0.2451172 0.2192383
vt 0.3933105 0.185791
vt 0.4084473 0.2060547
vt 0.4833984 0.1766357
vt 0.3540039 0.2141113
vt 0.3649902 0.1445313
vt 0.1740723 0.1466064
vt 0.2376709 0.1445313
vt 0.4284668 0.1466064
vt 0.2376709 0.1486816
vt 0.3649902 0.1486816
vt 0.4020996 0.4448242
vt 0.3557129 0.484375
vt 0.3254395 0.4406738
vt 0.4545898 0.4951172
vt 0.3254395 0.4406738
vt 0.1575928 0.4943848
vt 0.1722412 0.4477539
vt 0.3557129 0.484375
vt 0.1722412 0.4477539
vt 0.05856323 0.5151367
vt 0.09570313 0.4589844
vt 0.1575928 0.4943848
vt 0.09570313 0.4589844
vt 0.1575928 0.5258789
vt 0.1722412 0.4633789
vt 0.05856323 0.5151367
vt 0.1722412 0.4633789
vt 0.3557129 0.515625
vt 0.3254395 0.4562988
vt 0.1575928 0.5258789
vt 0.3254395 0.4562988
vt 0.4545898 0.4951172
vt 0.4020996 0.4448242
vt 0.3557129 0.515625
vt 0.3557129 0.484375
vt 0.3908691 0.5332031
vt 0.3347168 0.5292969
vt 0.4545898 0.4951172
vt 0.1575928 0.4943848
vt 0.3347168 0.5292969
vt 0.2225342 0.5400391
vt 0.3557129 0.484375
vt 0.05856323 0.5151367
vt 0.2225342 0.5400391
vt 0.1665039 0.5546875
vt 0.1575928 0.4943848
vt 0.05856323 0.5151367
vt 0.2225342 0.5585938
vt 0.1575928 0.5258789
vt 0.1665039 0.5546875
vt 0.1575928 0.5258789
vt 0.3347168 0.5473633
vt 0.3557129 0.515625
vt 0.2225342 0.5585938
vt 0.4545898 0.4951172
vt 0.3347168 0.5473633
vt 0.3908691 0.5332031
vt 0.3557129 0.515625
vt 0.2423096 0.8666992
vt 0.3605957 0.8442383
vt 0.3212891 0.855957
vt 0.2028809 0.8662109
vt 0.3212891 0.8432617
vt 0.2423096 0.8540039
vt 0.3659668 0.7915039
vt 0.3605957 0.8442383
vt 0.3212891 0.8432617
vt 0.4621582 0.7954102
vt 0.1734619 0.815918
vt 0.3212891 0.8432617
vt 0.2423096 0.8540039
vt 0.3659668 0.7915039
vt 0.07714844 0.84375
vt 0.2423096 0.8540039
vt 0.2028809 0.8662109
vt 0.1734619 0.815918
vt 0.2423096 0.8666992
vt 0.07714844 0.84375
vt 0.2028809 0.8662109
vt 0.1734619 0.847168
vt 0.3212891 0.855957
vt 0.1734619 0.847168
vt 0.2423096 0.8666992
vt 0.3659668 0.8227539
vt 0.3605957 0.8442383
vt 0.3659668 0.8227539
vt 0.3212891 0.855957
vt 0.4621582 0.7954102
vt 0.3369141 0.7519531
vt 0.4621582 0.7954102
vt 0.3659668 0.7915039
vt 0.4194336 0.7573242
vt 0.1717529 0.7680664
vt 0.3659668 0.7915039
vt 0.1734619 0.815918
vt 0.3369141 0.7519531
vt 0.08929443 0.7895508
vt 0.1734619 0.815918
vt 0.07714844 0.84375
vt 0.1717529 0.7680664
vt 0.1734619 0.847168
vt 0.08929443 0.7895508
vt 0.07714844 0.84375
vt 0.1717529 0.7949219
vt 0.3659668 0.8227539
vt 0.1717529 0.7949219
vt 0.1734619 0.847168
vt 0.3369141 0.7788086
vt 0.4621582 0.7954102
vt 0.3369141 0.7788086
vt 0.3659668 0.8227539
vt 0.4194336 0.7573242
vt 0.3896484 0.1519775
vt 0.253418 0.1755371
vt 0.2644043 0.1538086
vt 0.4306641 0.1783447
vt 0.2644043 0.1538086
vt 0.1193237 0.1806641
vt 0.170166 0.1538086
vt 0.253418 0.1755371
vt 0.170166 0.1538086
vt 0.1627197 0.1887207
vt 0.2009277 0.1519775
vt 0.1193237 0.1806641
vt 0.2009277 0.1519775
vt 0.3400879 0.1916504
vt 0.3259277 0.1501465
vt 0.1627197 0.1887207
vt 0.3259277 0.1501465
vt 0.4741211 0.1864014
vt 0.4204102 0.1501465
vt 0.3400879 0.1916504
vt 0.4204102 0.1501465
vt 0.4306641 0.1783447
vt 0.3896484 0.1519775
vt 0.4741211 0.1864014
vt 0.4306641 0.1783447
vt 0.2631836 0.2015381
vt 0.253418 0.1755371
vt 0.3703613 0.2042236
vt 0.253418 0.1755371
vt 0.1820068 0.2059326
vt 0.1193237 0.1806641
vt 0.2631836 0.2015381
vt 0.1193237 0.1806641
vt 0.2080078 0.2131348
vt 0.1627197 0.1887207
vt 0.1820068 0.2059326
vt 0.1627197 0.1887207
vt 0.3151855 0.2158203
vt 0.3400879 0.1916504
vt 0.2080078 0.2131348
vt 0.3400879 0.1916504
vt 0.3962402 0.2113037
vt 0.4741211 0.1864014
vt 0.3151855 0.2158203
vt 0.4741211 0.1864014
vt 0.3703613 0.2042236
vt 0.4306641 0.1783447
vt 0.3962402 0.2113037
vt 0.4204102 0.1501465
vt 0.2009277 0.1519775
vt 0.3259277 0.1501465
vt 0.3896484 0.1519775
vt 0.170166 0.1538086
vt 0.2644043 0.1538086
vt 0.3635254 0.4672852
vt 0.2624512 0.4897461
vt 0.2670898 0.4648438
vt 0.3859863 0.4956055
vt 0.2670898 0.4648438
vt 0.1676025 0.4951172
vt 0.1939697 0.4689941
vt 0.2624512 0.4897461
vt 0.1939697 0.4689941
vt 0.1964111 0.5068359
vt 0.2174072 0.4753418
vt 0.1676025 0.4951172
vt 0.2174072 0.4753418
vt 0.3198242 0.5126953
vt 0.3139648 0.4777832
vt 0.1964111 0.5068359
vt 0.3139648 0.4777832
vt 0.4147949 0.5073242
vt 0.3869629 0.4736328
vt 0.3198242 0.5126953
vt 0.3869629 0.4736328
vt 0.3859863 0.4956055
vt 0.3635254 0.4672852
vt 0.4147949 0.5073242
vt 0.2624512 0.4897461
vt 0.3527832 0.5170898
vt 0.2814941 0.5146484
vt 0.3859863 0.4956055
vt 0.1676025 0.4951172
vt 0.2814941 0.5146484
vt 0.2272949 0.5209961
vt 0.2624512 0.4897461
vt 0.1964111 0.5068359
vt 0.3156738 0.53125
vt 0.3198242 0.5126953
vt 0.2443848 0.5292969
vt 0.3198242 0.5126953
vt 0.369873 0.5249023
vt 0.4147949 0.5073242
vt 0.3156738 0.53125
vt 0.3859863 0.4956055
vt 0.369873 0.5249023
vt 0.3527832 0.5170898
vt 0.4147949 0.5073242
vt 0.3527832 0.5170898
vt 0.2272949 0.5209961
vt 0.2814941 0.5146484
vt 0.2443848 0.5292969
vt 0.369873 0.5249023
vt 0.3156738 0.53125
vt 0.3562012 0.1541748
vt 0.4208984 0.1708984
vt 0.3706055 0.1553955
vt 0.4003906 0.1729736
vt 0.3706055 0.1553955
vt 0.2749023 0.1745605
vt 0.2670898 0.1553955
vt 0.4208984 0.1708984
vt 0.2670898 0.1553955
vt 0.1082153 0.1802979
vt 0.1494141 0.1541748
vt 0.2749023 0.1745605
vt 0.1494141 0.1541748
vt 0.08764648 0.182373
vt 0.1350098 0.152832
vt 0.1082153 0.1802979
vt 0.1350098 0.152832
vt 0.2337646 0.1785889
vt 0.2382813 0.152832
vt 0.08764648 0.182373
vt 0.2382813 0.152832
vt 0.4003906 0.1729736
vt 0.3562012 0.1541748
vt 0.2337646 0.1785889
vt 0.4003906 0.1729736
vt 0.355957 0.1894531
vt 0.4208984 0.1708984
vt 0.3435059 0.1912842
vt 0.4208984 0.1708984
vt 0.2678223 0.1925049
vt 0.2749023 0.1745605
vt 0.355957 0.1894531
vt 0.2749023 0.1745605
vt 0.1673584 0.1976318
vt 0.1082153 0.1802979
vt 0.2678223 0.1925049
vt 0.1082153 0.1802979
vt 0.1549072 0.1994629
vt 0.08764648 0.182373
vt 0.1673584 0.1976318
vt 0.08764648 0.182373
vt 0.2429199 0.1964111
vt 0.2337646 0.1785889
vt 0.1549072 0.1994629
vt 0.2337646 0.1785889
vt 0.3435059 0.1912842
vt 0.4003906 0.1729736
vt 0.2429199 0.1964111
vt 0.2382813 0.152832
vt 0.1494141 0.1541748
vt 0.1350098 0.152832
vt 0.3562012 0.1541748
vt 0.2670898 0.1553955
vt 0.3706055 0.1553955
vt 0.2666016 0.4758301
vt 0.3095703 0.4914551
vt 0.277832 0.4741211
vt 0.2961426 0.4958496
vt 0.277832 0.4741211
vt 0.2072754 0.4956055
vt 0.1984863 0.4768066
vt 0.3095703 0.4914551
vt 0.1984863 0.4768066
vt 0.09161377 0.5039063
vt 0.1079712 0.4814453
vt 0.2072754 0.4956055
vt 0.1079712 0.4814453
vt 0.07818604 0.5078125
vt 0.09680176 0.4831543
vt 0.09161377 0.5039063
vt 0.09680176 0.4831543
vt 0.1804199 0.5039063
vt 0.1760254 0.4802246
vt 0.07818604 0.5078125
vt 0.1760254 0.4802246
vt 0.2961426 0.4958496
vt 0.2666016 0.4758301
vt 0.1804199 0.5039063
vt 0.3095703 0.4914551
vt 0.265625 0.5107422
vt 0.2741699 0.5097656
vt 0.2961426 0.4958496
vt 0.2072754 0.4956055
vt 0.2741699 0.5097656
vt 0.2166748 0.5136719
vt 0.3095703 0.4914551
vt 0.09161377 0.5039063
vt 0.2166748 0.5136719
vt 0.1503906 0.5195313
vt 0.2072754 0.4956055
vt 0.09161377 0.5039063
vt 0.1417236 0.5209961
vt 0.07818604 0.5078125
vt 0.1503906 0.5195313
vt 0.07818604 0.5078125
vt 0.1993408 0.5166016
vt 0.1804199 0.5039063
vt 0.1417236 0.5209961
vt 0.2961426 0.4958496
vt 0.1993408 0.5166016
vt 0.265625 0.5107422
vt 0.1804199 0.5039063
vt 0.265625 0.5107422
vt 0.2166748 0.5136719
vt 0.2741699 0.5097656
vt 0.1503906 0.5195313
vt 0.1993408 0.5166016
vt 0.1417236 0.5209961
vt 0.3833008 0.1602783
vt 0.4335938 0.1806641
vt 0.3945313 0.1618652
vt 0.4174805 0.1832275
vt 0.3945313 0.1618652
vt 0.3203125 0.1851807
vt 0.3144531 0.1618652
vt 0.4335938 0.1806641
vt 0.3144531 0.1618652
vt 0.1911621 0.1922607
vt 0.2230225 0.1602783
vt 0.3203125 0.1851807
vt 0.2230225 0.1602783
vt 0.1751709 0.1947021
vt 0.2119141 0.1586914
vt 0.1911621 0.1922607
vt 0.2119141 0.1586914
vt 0.2883301 0.1901855
vt 0.2919922 0.1586914
vt 0.1751709 0.1947021
vt 0.2919922 0.1586914
vt 0.4174805 0.1832275
vt 0.3833008 0.1602783
vt 0.2883301 0.1901855
vt 0.4174805 0.1832275
vt 0.3830566 0.2032471
vt 0.4335938 0.1806641
vt 0.3735352 0.2055664
vt 0.4335938 0.1806641
vt 0.3149414 0.2071533
vt 0.3203125 0.1851807
vt 0.3830566 0.2032471
vt 0.3203125 0.1851807
vt 0.2369385 0.2132568
vt 0.1911621 0.1922607
vt 0.3149414 0.2071533
vt 0.1911621 0.1922607
vt 0.2272949 0.2155762
vt 0.1751709 0.1947021
vt 0.2369385 0.2132568
vt 0.1751709 0.1947021
vt 0.2956543 0.211792
vt 0.2883301 0.1901855
vt 0.2272949 0.2155762
vt 0.2883301 0.1901855
vt 0.3735352 0.2055664
vt 0.4174805 0.1832275
vt 0.2956543 0.211792
vt 0.2919922 0.1586914
vt 0.2230225 0.1602783
vt 0.2119141 0.1586914
vt 0.3833008 0.1602783
vt 0.3144531 0.1618652
vt 0.3945313 0.1618652
vt 0.2956543 0.211792
vt 0.3830566 0.2032471
vt 0.3735352 0.2055664
vt 0.3149414 0.2071533
vt 0.2272949 0.2155762
vt 0.2369385 0.2132568

g Tree_11_Green_(7)_393_72
usemtl Tree_11_Green_(7)_393_72
usemap Tree_11_Green_(7)_393_72
f 1/1/1 3/3/3 2/2/2
f 4/4/4 6/6/6 5/5/5
f 7/7/7 9/9/9 8/8/8
f 10/10/10 12/12/12 11/11/11
f 13/13/13 15/15/15 14/14/14
f 16/16/16 18/18/18 17/17/17
f 19/19/19 21/21/21 20/20/20
f 22/22/22 24/24/24 23/23/23
f 25/25/25 27/27/27 26/26/26
f 28/28/28 30/30/30 29/29/29
f 31/31/31 33/33/33 32/32/32
f 34/34/34 36/36/36 35/35/35
f 37/37/37 39/39/39 38/38/38
f 40/40/40 42/42/42 41/41/41
f 43/43/43 45/45/45 44/44/44
f 46/46/46 48/48/48 47/47/47
f 49/49/49 51/51/51 50/50/50
f 52/52/52 54/54/54 53/53/53
f 55/55/55 57/57/57 56/56/56
f 58/58/58 60/60/60 59/59/59
f 61/61/61 63/63/63 62/62/62
f 64/64/64 66/66/66 65/65/65
f 67/67/67 69/69/69 68/68/68
f 70/70/70 72/72/72 71/71/71
f 71/71/71 73/73/73 70/70/70
f 74/74/74 76/76/76 75/75/75
f 75/75/75 77/77/77 74/74/74
f 78/78/78 80/80/80 79/79/79
f 79/79/79 81/81/81 78/78/78
f 82/82/82 84/84/84 83/83/83
f 83/83/83 85/85/85 82/82/82
f 86/86/86 88/88/88 87/87/87
f 87/87/87 89/89/89 86/86/86
f 90/90/90 92/92/92 91/91/91
f 91/91/91 93/93/93 90/90/90
f 94/94/94 96/96/96 95/95/95
f 95/95/95 97/97/97 94/94/94
f 98/98/98 100/100/100 99/99/99
f 99/99/99 101/101/101 98/98/98
f 102/102/102 104/104/104 103/103/103
f 103/103/103 105/105/105 102/102/102
f 106/106/106 102/102/102 105/105/105
f 105/105/105 107/107/107 106/106/106
f 108/108/108 110/110/110 109/109/109
f 109/109/109 111/111/111 108/108/108
f 112/112/112 114/114/114 113/113/113
f 113/113/113 115/115/115 112/112/112
f 116/116/116 118/118/118 117/117/117
f 117/117/117 119/119/119 116/116/116
f 119/119/119 117/117/117 120/120/120
f 120/120/120 121/121/121 119/119/119
f 122/122/122 124/124/124 123/123/123
f 123/123/123 125/125/125 122/122/122
f 126/126/126 128/128/128 127/127/127
f 127/127/127 129/129/129 126/126/126
f 130/130/130 132/132/132 131/131/131
f 131/131/131 133/133/133 130/130/130
f 134/134/134 136/136/136 135/135/135
f 135/135/135 137/137/137 134/134/134
f 138/138/138 140/140/140 139/139/139
f 139/139/139 141/141/141 138/138/138
f 138/138/138 141/141/141 142/142/142
f 143/143/143 145/145/145 144/144/144
f 144/144/144 146/146/146 143/143/143
f 147/147/147 149/149/149 148/148/148
f 148/148/148 150/150/150 147/147/147
f 151/151/151 153/153/153 152/152/152
f 152/152/152 154/154/154 151/151/151
f 155/155/155 157/157/157 156/156/156
f 156/156/156 157/157/157 158/158/158
f 159/159/159 161/161/161 160/160/160
f 160/160/160 161/161/161 162/162/162
f 163/163/163 165/165/165 164/164/164
f 164/164/164 166/166/166 163/163/163
f 167/167/167 169/169/169 168/168/168
f 168/168/168 170/170/170 167/167/167
f 171/171/171 173/173/173 172/172/172
f 172/172/172 174/174/174 171/171/171
f 175/175/175 177/177/177 176/176/176
f 176/176/176 178/178/178 175/175/175
f 179/179/179 181/181/181 180/180/180
f 180/180/180 182/182/182 179/179/179
f 182/182/182 180/180/180 183/183/183
f 184/184/184 186/186/186 185/185/185
f 185/185/185 187/187/187 184/184/184
f 188/188/188 190/190/190 189/189/189
f 189/189/189 191/191/191 188/188/188
f 192/192/192 194/194/194 193/193/193
f 193/193/193 195/195/195 192/192/192
f 196/196/196 198/198/198 197/197/197
f 197/197/197 199/199/199 196/196/196
f 200/200/200 202/202/202 201/201/201
f 201/201/201 203/203/203 200/200/200
f 204/204/204 206/206/206 205/205/205
f 205/205/205 207/207/207 204/204/204
f 208/208/208 210/210/210 209/209/209
f 209/209/209 211/211/211 208/208/208
f 212/212/212 214/214/214 213/213/213
f 213/213/213 215/215/215 212/212/212
f 216/216/216 218/218/218 217/217/217
f 217/217/217 219/219/219 216/216/216
f 220/220/220 222/222/222 221/221/221
f 221/221/221 223/223/223 220/220/220
f 224/224/224 226/226/226 225/225/225
f 225/225/225 227/227/227 224/224/224
f 228/228/228 230/230/230 229/229/229
f 229/229/229 231/231/231 228/228/228
f 232/232/232 234/234/234 233/233/233
f 233/233/233 235/235/235 232/232/232
f 235/235/235 233/233/233 236/236/236
f 236/236/236 237/237/237 235/235/235
f 238/238/238 240/240/240 239/239/239
f 239/239/239 241/241/241 238/238/238
f 242/242/242 244/244/244 243/243/243
f 243/243/243 245/245/245 242/242/242
f 246/246/246 248/248/248 247/247/247
f 247/247/247 249/249/249 246/246/246
f 250/250/250 252/252/252 251/251/251
f 251/251/251 253/253/253 250/250/250
f 254/254/254 256/256/256 255/255/255
f 255/255/255 257/257/257 254/254/254
f 258/258/258 260/260/260 259/259/259
f 259/259/259 261/261/261 258/258/258
f 262/262/262 264/264/264 263/263/263
f 263/263/263 265/265/265 262/262/262
f 266/266/266 268/268/268 267/267/267
f 267/267/267 269/269/269 266/266/266
f 270/270/270 272/272/272 271/271/271
f 271/271/271 273/273/273 270/270/270
f 274/274/274 276/276/276 275/275/275
f 275/275/275 277/277/277 274/274/274
f 278/278/278 280/280/280 279/279/279
f 279/279/279 281/281/281 278/278/278
f 282/282/282 284/284/284 283/283/283
f 283/283/283 285/285/285 282/282/282
f 286/286/286 288/288/288 287/287/287
f 287/287/287 289/289/289 286/286/286
f 289/289/289 287/287/287 290/290/290
f 290/290/290 291/291/291 289/289/289
f 292/292/292 294/294/294 293/293/293
f 293/293/293 295/295/295 292/292/292
f 296/296/296 298/298/298 297/297/297
f 297/297/297 299/299/299 296/296/296
f 300/300/300 302/302/302 301/301/301
f 301/301/301 303/303/303 300/300/300
f 304/304/304 306/306/306 305/305/305
f 305/305/305 307/307/307 304/304/304
f 308/308/308 310/310/310 309/309/309
f 309/309/309 311/311/311 308/308/308
f 312/312/312 314/314/314 313/313/313
f 313/313/313 315/315/315 312/312/312
f 316/316/316 318/318/318 317/317/317
f 317/317/317 319/319/319 316/316/316
f 320/320/320 322/322/322 321/321/321
f 321/321/321 323/323/323 320/320/320
f 324/324/324 326/326/326 325/325/325
f 325/325/325 327/327/327 324/324/324
f 328/328/328 330/330/330 329/329/329
f 329/329/329 331/331/331 328/328/328
f 332/332/332 334/334/334 333/333/333
f 333/333/333 335/335/335 332/332/332
f 336/336/336 338/338/338 337/337/337
f 337/337/337 339/339/339 336/336/336
f 340/340/340 342/342/342 341/341/341
f 341/341/341 343/343/343 340/340/340
f 344/344/344 346/346/346 345/345/345
f 345/345/345 347/347/347 344/344/344
f 348/348/348 350/350/350 349/349/349
f 349/349/349 351/351/351 348/348/348
f 352/352/352 354/354/354 353/353/353
f 353/353/353 355/355/355 352/352/352
f 356/356/356 358/358/358 357/357/357
f 357/357/357 359/359/359 356/356/356
f 360/360/360 362/362/362 361/361/361
f 361/361/361 363/363/363 360/360/360
f 364/364/364 366/366/366 365/365/365
f 365/365/365 367/367/367 364/364/364
f 368/368/368 370/370/370 369/369/369
f 369/369/369 371/371/371 368/368/368
f 372/372/372 374/374/374 373/373/373
f 373/373/373 375/375/375 372/372/372
f 376/376/376 378/378/378 377/377/377
f 377/377/377 379/379/379 376/376/376
f 380/380/380 382/382/382 381/381/381
f 381/381/381 383/383/383 380/380/380
f 384/384/384 386/386/386 385/385/385
f 385/385/385 387/387/387 384/384/384
f 388/388/388 390/390/390 389/389/389
f 389/389/389 391/391/391 388/388/388
f 391/391/391 389/389/389 392/392/392
f 392/392/392 393/393/393 391/391/391
f 394/394/394 396/396/396 395/395/395
f 395/395/395 397/397/397 394/394/394
f 398/398/398 400/400/400 399/399/399
f 399/399/399 401/401/401 398/398/398
f 402/402/402 404/404/404 403/403/403
f 403/403/403 405/405/405 402/402/402
f 406/406/406 408/408/408 407/407/407
f 407/407/407 409/409/409 406/406/406
f 410/410/410 412/412/412 411/411/411
f 411/411/411 413/413/413 410/410/410
f 414/414/414 416/416/416 415/415/415
f 415/415/415 417/417/417 414/414/414
f 418/418/418 420/420/420 419/419/419
f 419/419/419 421/421/421 418/418/418
f 422/422/422 424/424/424 423/423/423
f 423/423/423 425/425/425 422/422/422
f 426/426/426 428/428/428 427/427/427
f 427/427/427 429/429/429 426/426/426
f 430/430/430 432/432/432 431/431/431
f 431/431/431 433/433/433 430/430/430
f 434/434/434 436/436/436 435/435/435
f 435/435/435 437/437/437 434/434/434
f 438/438/438 440/440/440 439/439/439
f 439/439/439 441/441/441 438/438/438
f 442/442/442 438/438/438 441/441/441
f 441/441/441 443/443/443 442/442/442
f 444/444/444 446/446/446 445/445/445
f 445/445/445 447/447/447 444/444/444
f 448/448/448 450/450/450 449/449/449
f 449/449/449 451/451/451 448/448/448
f 452/452/452 454/454/454 453/453/453
f 453/453/453 455/455/455 452/452/452
f 456/456/456 458/458/458 457/457/457
f 457/457/457 459/459/459 456/456/456
f 460/460/460 462/462/462 461/461/461
f 461/461/461 463/463/463 460/460/460
f 464/464/464 466/466/466 465/465/465
f 465/465/465 467/467/467 464/464/464
f 468/468/468 470/470/470 469/469/469
f 469/469/469 471/471/471 468/468/468
f 472/472/472 474/474/474 473/473/473
f 473/473/473 475/475/475 472/472/472
f 476/476/476 478/478/478 477/477/477
f 477/477/477 479/479/479 476/476/476
f 480/480/480 482/482/482 481/481/481
f 481/481/481 483/483/483 480/480/480
f 484/484/484 486/486/486 485/485/485
f 485/485/485 487/487/487 484/484/484
f 488/488/488 490/490/490 489/489/489
f 489/489/489 491/491/491 488/488/488
f 492/492/492 494/494/494 493/493/493
f 493/493/493 495/495/495 492/492/492
f 495/495/495 493/493/493 496/496/496
f 496/496/496 497/497/497 495/495/495
f 498/498/498 500/500/500 499/499/499
f 499/499/499 501/501/501 498/498/498
f 502/502/502 504/504/504 503/503/503
f 503/503/503 505/505/505 502/502/502
f 506/506/506 508/508/508 507/507/507
f 507/507/507 509/509/509 506/506/506
f 510/510/510 512/512/512 511/511/511
f 511/511/511 513/513/513 510/510/510
f 514/514/514 516/516/516 515/515/515
f 515/515/515 517/517/517 514/514/514
f 518/518/518 520/520/520 519/519/519
f 519/519/519 521/521/521 518/518/518
f 522/522/522 524/524/524 523/523/523
f 523/523/523 525/525/525 522/522/522
f 526/526/526 528/528/528 527/527/527
f 527/527/527 529/529/529 526/526/526
f 530/530/530 532/532/532 531/531/531
f 531/531/531 533/533/533 530/530/530
f 534/534/534 536/536/536 535/535/535
f 535/535/535 537/537/537 534/534/534
f 538/538/538 540/540/540 539/539/539
f 539/539/539 541/541/541 538/538/538
f 542/542/542 544/544/544 543/543/543
f 543/543/543 545/545/545 542/542/542
f 546/546/546 548/548/548 547/547/547
f 547/547/547 549/549/549 546/546/546
f 550/550/550 546/546/546 549/549/549
f 549/549/549 551/551/551 550/550/550
f 552/552/552 554/554/554 553/553/553
f 553/553/553 555/555/555 552/552/552
f 556/556/556 558/558/558 557/557/557
f 557/557/557 559/559/559 556/556/556
f 560/560/560 562/562/562 561/561/561
f 561/561/561 563/563/563 560/560/560
f 564/564/564 566/566/566 565/565/565
f 565/565/565 567/567/567 564/564/564
f 568/568/568 570/570/570 569/569/569
f 569/569/569 571/571/571 568/568/568
f 572/572/572 574/574/574 573/573/573
f 573/573/573 575/575/575 572/572/572
f 576/576/576 578/578/578 577/577/577
f 577/577/577 579/579/579 576/576/576
f 580/580/580 582/582/582 581/581/581
f 581/581/581 583/583/583 580/580/580
f 584/584/584 586/586/586 585/585/585
f 585/585/585 587/587/587 584/584/584
f 588/588/588 590/590/590 589/589/589
f 589/589/589 591/591/591 588/588/588
f 592/592/592 594/594/594 593/593/593
f 593/593/593 595/595/595 592/592/592
f 596/596/596 598/598/598 597/597/597
f 597/597/597 599/599/599 596/596/596
f 600/600/600 602/602/602 601/601/601
f 601/601/601 603/603/603 600/600/600
f 603/603/603 601/601/601 604/604/604
f 604/604/604 605/605/605 603/603/603
f 606/606/606 608/608/608 607/607/607
f 607/607/607 609/609/609 606/606/606
f 610/610/610 606/606/606 609/609/609
f 609/609/609 611/611/611 610/610/610
