#Tree_02_Green_(13)_325_69.obj

v 0.1795679 0.4147583 3.468922
v 0.4297873 -0.01926645 3.465437
v -0.1083026 -0.04652133 4.237236
v -0.320871 0.4155931 3.445264
v 0.1795679 0.4147583 3.468922
v -0.1083026 -0.04652133 4.237236
v -0.5710905 -0.01759472 3.418123
v -0.320871 0.4155931 3.445264
v -0.1083026 -0.04652133 4.237236
v -0.320871 -0.4516195 3.414639
v -0.5710905 -0.01759472 3.418123
v -0.1083026 -0.04652133 4.237236
v 0.1795679 -0.4524565 3.438296
v -0.320871 -0.4516195 3.414639
v -0.1083026 -0.04652133 4.237236
v 0.4297873 -0.01926645 3.465437
v 0.1795679 -0.4524565 3.438296
v -0.1083026 -0.04652133 4.237236
v 0.2305435 -6.219165E-32 3.385667E-16
v 0.06788591 0.1757071 2.471641
v 0.1152717 0.1996567 -2.380093E-08
v 0.1600316 0.01587586 2.470358
v 0.1152717 0.1996567 -2.380093E-08
v -0.1164049 0.1760168 2.462929
v -0.1152717 0.1996567 -2.380093E-08
v 0.06788591 0.1757071 2.471641
v -0.1152717 0.1996567 -2.380093E-08
v -0.2085501 0.0164907 2.452934
v -0.230544 -5.035341E-31 2.741203E-15
v -0.1164049 0.1760168 2.462929
v -0.230544 -5.035341E-31 2.741203E-15
v -0.1164044 -0.1433428 2.451651
v -0.1152717 -0.1996567 2.380093E-08
v -0.2085501 0.0164907 2.452934
v -0.1152717 -0.1996567 2.380093E-08
v 0.06788591 -0.1436502 2.460363
v 0.1152717 -0.1996567 2.380093E-08
v -0.1164044 -0.1433428 2.451651
v 0.1152717 -0.1996567 2.380093E-08
v 0.1600316 0.01587586 2.470358
v 0.2305435 -6.219165E-32 3.385667E-16
v 0.06788591 -0.1436502 2.460363
v 0.5613114 1.018779 2.284494
v 0.6216778 -5.363612E-16 2.919911
v 0.2886088 0.5777311 2.924548
v 1.135548 0.02271987 2.276499
v -0.5871632 1.020696 2.230201
v 0.2886088 0.5777311 2.924548
v -0.3775283 0.5788441 2.893057
v 0.5613114 1.018779 2.284494
v -1.1614 0.02655477 2.167913
v -0.3775283 0.5788441 2.893057
v -0.7105967 0.002223743 2.85693
v -0.5871632 1.020696 2.230201
v -0.5871627 -0.9695025 2.159918
v -0.7105967 0.002223743 2.85693
v -0.3775283 -0.5755095 2.852292
v -1.1614 0.02655477 2.167913
v 0.5613108 -0.9714211 2.214211
v -0.3775283 -0.5755095 2.852292
v 0.2886088 -0.5766225 2.883783
v -0.5871627 -0.9695025 2.159918
v 1.135548 0.02271987 2.276499
v 0.2886088 -0.5766225 2.883783
v 0.6216778 -5.363612E-16 2.919911
v 0.5613108 -0.9714211 2.214211
v -0.5871627 -0.9695025 2.159918
v -0.5871632 1.020696 2.230201
v -1.1614 0.02655477 2.167913
v 0.5613108 -0.9714211 2.214211
v 0.5613114 1.018779 2.284494
v 1.135548 0.02271987 2.276499
v 0.1196396 0.3114519 3.47199
v 0.7252463 -0.0002782483 2.927758
v 0.3103811 -0.01940333 3.469334
v 0.3403237 0.6674011 2.933118
v -0.2618442 0.3120892 3.453955
v 0.3403237 0.6674011 2.933118
v 0.1196396 0.3114519 3.47199
v -0.429522 0.6686846 2.896724
v -0.4525858 -0.01812878 3.433266
v -0.429522 0.6686846 2.896724
v -0.2618442 0.3120892 3.453955
v -0.814444 0.002293305 2.854972
v -0.2618436 -0.3489862 3.43061
v -0.814444 0.002293305 2.854972
v -0.4525858 -0.01812878 3.433266
v -0.4295214 -0.665386 2.849612
v 0.1196396 -0.3496235 3.448644
v -0.4295214 -0.665386 2.849612
v -0.2618436 -0.3489862 3.43061
v 0.3403237 -0.6666695 2.886006
v 0.3103811 -0.01940333 3.469334
v 0.3403237 -0.6666695 2.886006
v 0.1196396 -0.3496235 3.448644
v 0.7252463 -0.0002782483 2.927758
v 0.3403237 0.6674011 2.933118
v 0.6216778 -5.363612E-16 2.919911
v 0.7252463 -0.0002782483 2.927758
v 0.2886088 0.5777311 2.924548
v -0.429522 0.6686846 2.896724
v -0.3775283 0.5788441 2.893057
v -0.814444 0.002293305 2.854972
v -0.7105967 0.002223743 2.85693
v -0.4295214 -0.665386 2.849612
v -0.7105967 0.002223743 2.85693
v -0.814444 0.002293305 2.854972
v -0.3775283 -0.5755095 2.852292
v 0.3403237 -0.6666695 2.886006
v 0.2886088 -0.5766225 2.883783
v 0.7252463 -0.0002782483 2.927758
v 0.6216778 -5.363612E-16 2.919911
v 0.1795679 0.4147583 3.468922
v 0.3103811 -0.01940333 3.469334
v 0.4297873 -0.01926645 3.465437
v 0.1196396 0.3114519 3.47199
v -0.320871 0.4155931 3.445264
v 0.1196396 0.3114519 3.47199
v 0.1795679 0.4147583 3.468922
v -0.2618442 0.3120892 3.453955
v -0.5710905 -0.01759472 3.418123
v -0.2618442 0.3120892 3.453955
v -0.320871 0.4155931 3.445264
v -0.4525858 -0.01812878 3.433266
v -0.320871 -0.4516195 3.414639
v -0.4525858 -0.01812878 3.433266
v -0.5710905 -0.01759472 3.418123
v -0.2618436 -0.3489862 3.43061
v 0.1795679 -0.4524565 3.438296
v -0.2618436 -0.3489862 3.43061
v -0.320871 -0.4516195 3.414639
v 0.1196396 -0.3496235 3.448644
v 0.4297873 -0.01926645 3.465437
v 0.1196396 -0.3496235 3.448644
v 0.1795679 -0.4524565 3.438296
v 0.3103811 -0.01940333 3.469334

vn 0.7371411 0.5287855 -0.4207247
vn 0.7371412 0.5287855 -0.4207247
vn 0.7371411 0.5287855 -0.4207247
vn -0.02259562 0.5083676 -0.8608444
vn -0.02259562 0.5083676 -0.8608444
vn -0.02259562 0.5083676 -0.8608444
vn -0.7823316 0.4569543 -0.4232618
vn -0.7823316 0.4569543 -0.4232618
vn -0.7823316 0.4569543 -0.4232618
vn -0.7823316 0.4259586 0.4544413
vn -0.7823316 0.4259585 0.4544413
vn -0.7823316 0.4259586 0.4544413
vn -0.0225955 0.4463766 0.8945608
vn -0.0225955 0.4463766 0.8945608
vn -0.0225955 0.4463766 0.8945608
vn 0.7371413 0.4977899 0.4569776
vn 0.7371413 0.4977899 0.4569776
vn 0.7371413 0.49779 0.4569776
vn 0.8658262 0.021443 -0.4998855
vn 0.8658262 0.021443 -0.4998855
vn 0.8658262 0.02144299 -0.4998855
vn 0.8662148 0.02151668 -0.4992087
vn 0 0.009598288 -0.9999547
vn 0 0.009598288 -0.9999547
vn 0 0.009598288 -0.9999547
vn 0.001209988 0.009712085 -0.9999528
vn -0.866017 0.004403669 -0.4999955
vn -0.866017 0.004403669 -0.4999955
vn -0.866017 0.004403668 -0.4999955
vn -0.8660347 0.004400708 -0.4999649
vn -0.865972 0.01108404 0.4999699
vn -0.865972 0.01108404 0.4999699
vn -0.865972 0.01108404 0.49997
vn -0.8662482 0.01112495 0.4994903
vn 0 0.02275745 0.9997417
vn 0 0.02275744 0.9997417
vn 0 0.02275745 0.9997417
vn -0.002754502 0.02296231 0.9997333
vn 0.8656877 0.02792146 0.4998055
vn 0.8656877 0.02792146 0.4998055
vn 0.8656877 0.02792146 0.4998055
vn 0.8648199 0.02806734 0.5012972
vn 0.7079483 0.5796624 -0.4034866
vn 0.7079483 0.5796624 -0.4034866
vn 0.7079483 0.5796624 -0.4034866
vn 0.7079482 0.5796623 -0.4034866
vn -0.02508896 0.559962 -0.8281392
vn -0.02508896 0.559962 -0.8281392
vn -0.02508896 0.559962 -0.8281392
vn -0.02508896 0.559962 -0.8281391
vn -0.7581262 0.5103553 -0.4059342
vn -0.7581262 0.5103553 -0.4059342
vn -0.7581262 0.5103553 -0.4059342
vn -0.7581262 0.5103555 -0.4059341
vn -0.7581263 0.480449 0.4409239
vn -0.7581262 0.480449 0.4409239
vn -0.7581263 0.4804489 0.4409238
vn -0.7581263 0.480449 0.4409239
vn -0.025089 0.5001492 0.8655766
vn -0.025089 0.5001492 0.8655766
vn -0.025089 0.5001492 0.8655766
vn -0.02508893 0.5001492 0.8655764
vn 0.7079484 0.5497561 0.4433712
vn 0.7079484 0.5497561 0.4433711
vn 0.7079483 0.5497561 0.4433712
vn 0.7079484 0.5497559 0.4433715
vn 0.04725032 -0.9982615 -0.03525315
vn 0.04725032 -0.9982615 -0.03525314
vn 0.04725032 -0.9982615 -0.03525315
vn 0.04725039 -0.9982615 -0.03525315
vn 0.04725038 -0.9982615 -0.03525314
vn 0.04725056 -0.9982615 -0.03525315
vn 0.7173683 0.5639742 -0.4090433
vn 0.7173683 0.5639742 -0.4090433
vn 0.7173683 0.5639742 -0.4090433
vn 0.7173683 0.5639741 -0.4090433
vn -0.02431902 0.5440413 -0.8387068
vn -0.02431903 0.5440413 -0.8387068
vn -0.02431903 0.5440413 -0.8387068
vn -0.02431858 0.5440417 -0.8387066
vn -0.7660052 0.49385 -0.4115201
vn -0.7660052 0.49385 -0.4115201
vn -0.7660052 0.49385 -0.4115201
vn -0.766006 0.4938492 -0.4115196
vn -0.7660056 0.4635897 0.4453321
vn -0.7660056 0.4635897 0.4453321
vn -0.7660056 0.4635896 0.4453321
vn -0.7660056 0.4635901 0.4453314
vn -0.02431893 0.4835227 0.8749948
vn -0.02431893 0.4835227 0.8749948
vn -0.02431893 0.4835227 0.8749948
vn -0.02431858 0.4835225 0.8749948
vn 0.7173685 0.5337147 0.4478076
vn 0.7173685 0.5337147 0.4478076
vn 0.7173685 0.5337145 0.4478076
vn 0.7173682 0.5337148 0.4478078
vn 0.0755919 -0.995805 -0.0515723
vn 0.0755919 -0.995805 -0.0515723
vn 0.0755919 -0.995805 -0.0515723
vn 0.07558937 -0.9958052 -0.05157125
vn 0.0472245 -0.9965675 -0.06800316
vn 0.04722492 -0.9965672 -0.06800655
vn 0.01885693 -0.998487 -0.05166759
vn 0.01885758 -0.998487 -0.05166709
vn 0.01885759 -0.9996443 -0.01889614
vn 0.01885759 -0.9996443 -0.01889614
vn 0.01885759 -0.9996443 -0.01889614
vn 0.01886114 -0.9996443 -0.01889764
vn 0.04722492 -0.998882 -0.002466341
vn 0.04722495 -0.998882 -0.002466558
vn 0.0755885 -0.9969625 -0.01880311
vn 0.07559187 -0.9969622 -0.01880054
vn -0.03260059 -0.9994111 0.01077178
vn -0.03260059 -0.9994111 0.01077178
vn -0.03260058 -0.9994111 0.01077178
vn -0.03259674 -0.9994112 0.01077063
vn 0.04705012 -0.9972706 0.05691065
vn 0.04705012 -0.9972706 0.05691065
vn 0.04705012 -0.9972706 0.05691065
vn 0.04705022 -0.9972708 0.05691024
vn 0.1266965 -0.9918808 0.01103665
vn 0.1266965 -0.9918808 0.01103665
vn 0.1266965 -0.9918808 0.01103665
vn 0.1267003 -0.9918804 0.01104022
vn 0.1267002 -0.9886307 -0.0809802
vn 0.1267003 -0.9886307 -0.0809802
vn 0.1267003 -0.9886307 -0.0809802
vn 0.1266972 -0.9886311 -0.0809793
vn 0.0470501 -0.9907715 -0.1271192
vn 0.04705011 -0.9907715 -0.1271192
vn 0.04705011 -0.9907715 -0.1271192
vn 0.04705022 -0.9907715 -0.1271196
vn -0.03259924 -0.9961617 -0.08124425
vn -0.03259924 -0.9961617 -0.08124425
vn -0.03259924 -0.9961617 -0.08124425
vn -0.03260058 -0.9961615 -0.0812455

vt 0.7879072 0.8242779
vt 0.8001339 0.8242779
vt 0.7756804 0.8798555
vt 0.7634536 0.8242779
vt 0.7879072 0.8242779
vt 0.7756804 0.8798555
vt 0.7512268 0.8242779
vt 0.7634536 0.8242779
vt 0.7756804 0.8798555
vt 0.7634536 0.8242779
vt 0.7512268 0.8242779
vt 0.7756804 0.8798555
vt 0.7879071 0.8242779
vt 0.7634536 0.8242779
vt 0.7756804 0.8798555
vt 0.8001339 0.8242779
vt 0.7879071 0.8242779
vt 0.7756804 0.8798555
vt 0.2209835 0.388818
vt 0.2013809 0.6456031
vt 0.2047579 0.388818
vt 0.2142294 0.6456031
vt 0.2047579 0.388818
vt 0.1756839 0.6456031
vt 0.1723069 0.388818
vt 0.2013809 0.6456031
vt 0.1723069 0.388818
vt 0.1628353 0.6456031
vt 0.1560813 0.388818
vt 0.1756839 0.6456031
vt 0.1560813 0.388818
vt 0.1756839 0.6456031
vt 0.1723069 0.388818
vt 0.1628353 0.6456031
vt 0.1723069 0.388818
vt 0.2013809 0.6456031
vt 0.2047579 0.388818
vt 0.1756839 0.6456031
vt 0.2047579 0.388818
vt 0.2142294 0.6456031
vt 0.2209835 0.388818
vt 0.2013809 0.6456031
vt 0.8142501 0.06201676
vt 0.8231531 0.09522417
vt 0.8087789 0.09522417
vt 0.8340955 0.06201676
vt 0.7745592 0.06201676
vt 0.8087789 0.09522417
vt 0.7800304 0.09522417
vt 0.8142501 0.06201676
vt 0.7547137 0.06201676
vt 0.7800304 0.09522417
vt 0.7656561 0.09522417
vt 0.7745592 0.06201676
vt 0.7745592 0.06201676
vt 0.7656561 0.09522417
vt 0.7800303 0.09522417
vt 0.7547137 0.06201676
vt 0.8142501 0.06201676
vt 0.7800303 0.09522417
vt 0.8087789 0.09522417
vt 0.7745592 0.06201676
vt 0.8340955 0.06201676
vt 0.8087789 0.09522417
vt 0.8231531 0.09522417
vt 0.8142501 0.06201676
vt 0.7745592 0.06201676
vt 0.7745592 0.06201676
vt 0.7547137 0.06201676
vt 0.8142501 0.06201676
vt 0.8142501 0.06201676
vt 0.8340955 0.06201676
vt 0.7983752 0.5092804
vt 0.8222791 0.4698847
vt 0.8076957 0.5092804
vt 0.805667 0.4698847
vt 0.7797344 0.5092804
vt 0.805667 0.4698847
vt 0.7983752 0.5092804
vt 0.7724427 0.4698847
vt 0.7704139 0.5092804
vt 0.7724427 0.4698847
vt 0.7797344 0.5092804
vt 0.7558305 0.4698847
vt 0.7797344 0.5092804
vt 0.7558305 0.4698847
vt 0.7704139 0.5092804
vt 0.7724427 0.4698847
vt 0.7983752 0.5092804
vt 0.7724427 0.4698847
vt 0.7797344 0.5092804
vt 0.8056669 0.4698847
vt 0.8076957 0.5092804
vt 0.8056669 0.4698847
vt 0.7983752 0.5092804
vt 0.8222791 0.4698847
vt 0.805667 0.4698847
vt 0.8178033 0.4697098
vt 0.8222791 0.4698847
vt 0.8034291 0.4697098
vt 0.7724427 0.4698847
vt 0.7746806 0.4697098
vt 0.7558305 0.4698847
vt 0.7603062 0.4697098
vt 0.7724427 0.4698847
vt 0.7603062 0.4697098
vt 0.7558305 0.4698847
vt 0.7746805 0.4697098
vt 0.8056669 0.4698847
vt 0.8034291 0.4697098
vt 0.8222791 0.4698847
vt 0.8178033 0.4697098
vt 0.7879072 0.8242779
vt 0.7943213 0.8249183
vt 0.8001339 0.8242779
vt 0.7850008 0.8249183
vt 0.7634536 0.8242779
vt 0.7850008 0.8249183
vt 0.7879072 0.8242779
vt 0.7663599 0.8249183
vt 0.7512268 0.8242779
vt 0.7663599 0.8249183
vt 0.7634536 0.8242779
vt 0.7570394 0.8249183
vt 0.7634536 0.8242779
vt 0.7570394 0.8249183
vt 0.7512268 0.8242779
vt 0.7663599 0.8249183
vt 0.7879071 0.8242779
vt 0.7663599 0.8249183
vt 0.7634536 0.8242779
vt 0.7850008 0.8249183
vt 0.8001339 0.8242779
vt 0.7850008 0.8249183
vt 0.7879071 0.8242779
vt 0.7943213 0.8249183

g Tree_02_Green_(13)_325_69
usemtl Tree_02_Green_(13)_325_69
usemap Tree_02_Green_(13)_325_69
f 1/1/1 3/3/3 2/2/2
f 4/4/4 6/6/6 5/5/5
f 7/7/7 9/9/9 8/8/8
f 10/10/10 12/12/12 11/11/11
f 13/13/13 15/15/15 14/14/14
f 16/16/16 18/18/18 17/17/17
f 19/19/19 21/21/21 20/20/20
f 20/20/20 22/22/22 19/19/19
f 23/23/23 25/25/25 24/24/24
f 24/24/24 26/26/26 23/23/23
f 27/27/27 29/29/29 28/28/28
f 28/28/28 30/30/30 27/27/27
f 31/31/31 33/33/33 32/32/32
f 32/32/32 34/34/34 31/31/31
f 35/35/35 37/37/37 36/36/36
f 36/36/36 38/38/38 35/35/35
f 39/39/39 41/41/41 40/40/40
f 40/40/40 42/42/42 39/39/39
f 43/43/43 45/45/45 44/44/44
f 44/44/44 46/46/46 43/43/43
f 47/47/47 49/49/49 48/48/48
f 48/48/48 50/50/50 47/47/47
f 51/51/51 53/53/53 52/52/52
f 52/52/52 54/54/54 51/51/51
f 55/55/55 57/57/57 56/56/56
f 56/56/56 58/58/58 55/55/55
f 59/59/59 61/61/61 60/60/60
f 60/60/60 62/62/62 59/59/59
f 63/63/63 65/65/65 64/64/64
f 64/64/64 66/66/66 63/63/63
f 67/67/67 69/69/69 68/68/68
f 68/68/68 70/70/70 67/67/67
f 70/70/70 68/68/68 71/71/71
f 71/71/71 72/72/72 70/70/70
f 73/73/73 75/75/75 74/74/74
f 74/74/74 76/76/76 73/73/73
f 77/77/77 79/79/79 78/78/78
f 78/78/78 80/80/80 77/77/77
f 81/81/81 83/83/83 82/82/82
f 82/82/82 84/84/84 81/81/81
f 85/85/85 87/87/87 86/86/86
f 86/86/86 88/88/88 85/85/85
f 89/89/89 91/91/91 90/90/90
f 90/90/90 92/92/92 89/89/89
f 93/93/93 95/95/95 94/94/94
f 94/94/94 96/96/96 93/93/93
f 97/97/97 99/99/99 98/98/98
f 98/98/98 100/100/100 97/97/97
f 101/101/101 97/97/97 100/100/100
f 100/100/100 102/102/102 101/101/101
f 103/103/103 101/101/101 102/102/102
f 102/102/102 104/104/104 103/103/103
f 105/105/105 107/107/107 106/106/106
f 106/106/106 108/108/108 105/105/105
f 109/109/109 105/105/105 108/108/108
f 108/108/108 110/110/110 109/109/109
f 111/111/111 109/109/109 110/110/110
f 110/110/110 112/112/112 111/111/111
f 113/113/113 115/115/115 114/114/114
f 114/114/114 116/116/116 113/113/113
f 117/117/117 119/119/119 118/118/118
f 118/118/118 120/120/120 117/117/117
f 121/121/121 123/123/123 122/122/122
f 122/122/122 124/124/124 121/121/121
f 125/125/125 127/127/127 126/126/126
f 126/126/126 128/128/128 125/125/125
f 129/129/129 131/131/131 130/130/130
f 130/130/130 132/132/132 129/129/129
f 133/133/133 135/135/135 134/134/134
f 134/134/134 136/136/136 133/133/133
