#Tree_11_Green_(4)_391_74.obj

v 0.4705226 -0.9927482 2.322839
v -0.4689697 -0.6828641 1.996823
v 0.3423173 -1.194256 2.308598
v -0.4689697 -0.6828641 1.996823
v 0.4705226 -0.9927482 2.322839
v -0.3802485 -0.4090899 2.008125
v -0.5065973 -0.6773435 2.158554
v 0.3469513 -1.070825 2.513241
v 0.3026687 -1.179138 2.440279
v 0.3469513 -1.070825 2.513241
v -0.5065973 -0.6773435 2.158554
v -0.4810519 -0.5376996 2.24507
v 0.3423173 -1.194256 2.308598
v 1.016741 -1.427729 3.076959
v 0.4705226 -0.9927482 2.322839
v 0.4308755 -0.9776264 2.45452
v 1.016741 -1.427729 3.076959
v 0.3469513 -1.070825 2.513241
v 0.3469513 -1.070825 2.513241
v 1.016741 -1.427729 3.076959
v 0.3026687 -1.179138 2.440279
v 0.3026687 -1.179138 2.440279
v 1.016741 -1.427729 3.076959
v 0.3423173 -1.194256 2.308598
v -2.003537 -1.153202 2.857601
v -0.5814033 -0.4835608 2.318341
v -0.5148386 -0.5837925 2.2573
v -2.032964 -1.055767 2.905256
v -0.6676177 -0.4071322 2.248128
v -0.5814033 -0.4835608 2.318341
v -2.0307 -1.174373 2.750734
v -0.6872603 -0.4309382 2.116875
v -2.116708 -1.000675 2.739177
v -0.6872603 -0.4309382 2.116875
v -2.0307 -1.174373 2.750734
v -0.5344882 -0.6075956 2.126046
v -2.0307 -1.174373 2.750734
v -2.709467 -1.308465 3.199426
v -2.003537 -1.153202 2.857601
v -2.089553 -0.9795015 2.846043
v -2.709467 -1.308465 3.199426
v -2.116708 -1.000675 2.739177
v -2.116708 -1.000675 2.739177
v -2.709467 -1.308465 3.199426
v -2.0307 -1.174373 2.750734
v -0.3056208 0.7596376 2.322839
v -0.3927352 -0.405755 1.996823
v -0.08653656 0.6645452 2.308598
v -0.3927352 -0.405755 1.996823
v -0.3056208 0.7596376 2.322839
v -0.6770187 -0.3609633 2.008125
v -0.08653656 0.6645452 2.308598
v 0.1460925 1.307536 3.142406
v -0.3056208 0.7596376 2.322839
v -0.3056208 0.7596376 2.322839
v 0.1460925 1.307536 3.142406
v -0.314356 0.7181095 2.45452
v -0.314356 0.7181095 2.45452
v 0.1460925 1.307536 3.142406
v -0.2091694 0.6497985 2.513241
v -0.2091694 0.6497985 2.513241
v 0.1460925 1.307536 3.142406
v -0.09526468 0.6230142 2.440279
v 0.2363455 -2.033749 3.316548
v 0.46365 -1.123096 3.420956
v 0.5894336 -1.644961 3.480939
v 0.46365 -1.123096 3.420956
v 0.2363455 -2.033749 3.316548
v 0.0251402 -1.123945 3.231409
v 0.3523165 -1.626228E-06 1.089716E-15
v -0.3794155 -0.24447 1.406414
v 0.1761566 0.3051184 -3.637292E-08
v -0.2440795 -0.4699028 1.379011
v -0.1761599 0.3051201 -3.637292E-08
v -0.3794155 -0.24447 1.406414
v -0.6431541 -0.2497605 1.421011
v 0.1761566 0.3051184 -3.637292E-08
v -0.3523179 -1.902408E-06 4.761458E-15
v -0.6431541 -0.2497605 1.421011
v -0.7715525 -0.4804939 1.408205
v -0.1761599 0.3051201 -3.637292E-08
v -0.1761566 -0.3051184 3.637292E-08
v -0.7715525 -0.4804939 1.408205
v -0.636218 -0.7059303 1.380802
v -0.3523179 -1.902408E-06 4.761458E-15
v -0.1761566 -0.3051184 3.637292E-08
v -0.372485 -0.7006333 1.366205
v 0.1761599 -0.3051201 3.637292E-08
v -0.636218 -0.7059303 1.380802
v 0.1761599 -0.3051201 3.637292E-08
v -0.2440795 -0.4699028 1.379011
v 0.3523165 -1.626228E-06 1.089716E-15
v -0.372485 -0.7006333 1.366205
v -0.4711736 -0.3458571 3.217022
v -0.2440795 -0.4699028 1.379011
v -0.3600421 -0.5347158 3.225298
v -0.3794155 -0.24447 1.406414
v -0.6431541 -0.2497605 1.421011
v -0.4711736 -0.3458571 3.217022
v -0.6899598 -0.3465256 3.240083
v -0.3794155 -0.24447 1.406414
v -0.6899598 -0.3465256 3.240083
v -0.7715525 -0.4804939 1.408205
v -0.6431541 -0.2497605 1.421011
v -0.7976214 -0.53605 3.27142
v -0.2951438 0.2124289 5.118436
v -0.3820653 0.05956363 5.133761
v -0.636218 -0.7059303 1.380802
v -0.7976214 -0.53605 3.27142
v -0.6864898 -0.7249086 3.279696
v -0.7715525 -0.4804939 1.408205
v -0.4677037 -0.7242401 3.256635
v -0.636218 -0.7059303 1.380802
v -0.6864898 -0.7249086 3.279696
v -0.372485 -0.7006333 1.366205
v -0.372485 -0.7006333 1.366205
v -0.3600421 -0.5347158 3.225298
v -0.2440795 -0.4699028 1.379011
v -0.4677037 -0.7242401 3.256635
v -0.03439314 0.05956022 5.072458
v -0.1213075 -0.09330796 5.087783
v -0.121312 0.2124269 5.087783
v -0.3600421 -0.5347158 3.225298
v -0.03439314 0.05956022 5.072458
v -0.4711736 -0.3458571 3.217022
v -0.6899598 -0.3465256 3.240083
v -0.121312 0.2124269 5.087783
v -0.2951438 0.2124289 5.118436
v -0.4711736 -0.3458571 3.217022
v -0.2951479 -0.09330657 5.118436
v -0.7976214 -0.53605 3.27142
v -0.3820653 0.05956363 5.133761
v -0.6864898 -0.7249086 3.279696
v -0.1213075 -0.09330796 5.087783
v -0.6864898 -0.7249086 3.279696
v -0.2951479 -0.09330657 5.118436
v -0.4677037 -0.7242401 3.256635
v 0.4705226 -0.9927482 2.322839
v -0.4178775 -0.4035728 2.169855
v -0.3802485 -0.4090899 2.008125
v 0.4308755 -0.9776264 2.45452
v 1.016741 -1.427729 3.076959
v -0.4810519 -0.5376996 2.24507
v 0.4308755 -0.9776264 2.45452
v 0.3469513 -1.070825 2.513241
v -0.4178775 -0.4035728 2.169855
v 0.3423173 -1.194256 2.308598
v -0.5065973 -0.6773435 2.158554
v 0.3026687 -1.179138 2.440279
v -0.4689697 -0.6828641 1.996823
v -0.5148386 -0.5837925 2.2573
v -2.0307 -1.174373 2.750734
v -2.003537 -1.153202 2.857601
v -0.5344882 -0.6075956 2.126046
v -0.5814033 -0.4835608 2.318341
v -2.003537 -1.153202 2.857601
v -2.032964 -1.055767 2.905256
v -2.709467 -1.308465 3.199426
v -0.6676177 -0.4071322 2.248128
v -2.032964 -1.055767 2.905256
v -2.089553 -0.9795015 2.846043
v -2.709467 -1.308465 3.199426
v -2.116708 -1.000675 2.739177
v -0.6676177 -0.4071322 2.248128
v -2.089553 -0.9795015 2.846043
v -0.6872603 -0.4309382 2.116875
v -0.6765804 -0.3989929 2.169855
v -0.3056208 0.7596376 2.322839
v -0.314356 0.7181095 2.45452
v -0.6770187 -0.3609633 2.008125
v -0.5342237 -0.4404039 2.24507
v -0.314356 0.7181095 2.45452
v -0.2091694 0.6497985 2.513241
v -0.6765804 -0.3989929 2.169855
v -0.3922969 -0.4437846 2.158554
v -0.2091694 0.6497985 2.513241
v -0.09526468 0.6230142 2.440279
v -0.5342237 -0.4404039 2.24507
v -0.3922969 -0.4437846 2.158554
v -0.08653656 0.6645452 2.308598
v -0.3927352 -0.405755 1.996823
v -0.09526468 0.6230142 2.440279
v 0.1460925 1.307536 3.142406
v 0.7672643 -0.5090718 3.623911
v 0.4021759 0.9588247 3.901278
v 0.108761 0.5293727 3.645487
v 1.334648 -0.5133024 3.934943
v 0.108761 0.5293727 3.645487
v -1.462776 0.9630536 3.962403
v -1.208255 0.5293711 3.645487
v 0.4021759 0.9588247 3.901278
v -1.208255 0.5293711 3.645487
v -2.395245 -0.5048404 4.057191
v -1.866767 -0.5090714 3.623911
v -1.462776 0.9630536 3.962403
v -1.866767 -0.5090714 3.623911
v -1.462772 -1.976964 4.090855
v -1.208261 -1.547509 3.602334
v -2.395245 -0.5048404 4.057191
v -1.208261 -1.547509 3.602334
v 0.4021713 -1.981194 4.029731
v 0.1087541 -1.547511 3.602334
v -1.462772 -1.976964 4.090855
v 0.1087541 -1.547511 3.602334
v 1.334648 -0.5133024 3.934943
v 0.7672643 -0.5090718 3.623911
v 0.4021713 -1.981194 4.029731
v 1.334648 -0.5133024 3.934943
v -0.005099835 0.4386723 4.207655
v 0.4021759 0.9588247 3.901278
v 0.5579299 -0.4507447 4.239138
v 0.4021759 0.9588247 3.901278
v -1.13115 0.4440398 4.259824
v -1.462776 0.9630536 3.962403
v -0.005099835 0.4386723 4.207655
v -1.462776 0.9630536 3.962403
v -1.69418 -0.440014 4.343475
v -2.395245 -0.5048404 4.057191
v -1.13115 0.4440398 4.259824
v -2.395245 -0.5048404 4.057191
v -1.131151 -1.329435 4.374959
v -1.462772 -1.976964 4.090855
v -1.69418 -0.440014 4.343475
v -1.462772 -1.976964 4.090855
v -0.00510005 -1.334798 4.32279
v 0.4021713 -1.981194 4.029731
v -1.131151 -1.329435 4.374959
v 0.4021713 -1.981194 4.029731
v 0.5579299 -0.4507447 4.239138
v 1.334648 -0.5133024 3.934943
v -0.00510005 -1.334798 4.32279
v 0.1087541 -1.547511 3.602334
v -1.866767 -0.5090714 3.623911
v -1.208261 -1.547509 3.602334
v 0.7672643 -0.5090718 3.623911
v -1.208255 0.5293711 3.645487
v 0.108761 0.5293727 3.645487
v 0.5579299 -0.4507447 4.239138
v 0.2171406 0.7188578 4.530315
v -0.005099835 0.4386723 4.207655
v 0.9452452 -0.4128672 4.608937
v -0.005099835 0.4386723 4.207655
v -1.239074 0.7306262 4.603034
v -1.13115 0.4440398 4.259824
v 0.2171406 0.7188578 4.530315
v -1.13115 0.4440398 4.259824
v -1.967181 -0.3893403 4.754375
v -1.69418 -0.440014 4.343475
v -1.239074 0.7306262 4.603034
v -1.69418 -0.440014 4.343475
v -1.23907 -1.521072 4.832997
v -1.131151 -1.329435 4.374959
v -1.967181 -0.3893403 4.754375
v -1.131151 -1.329435 4.374959
v 0.217139 -1.532834 4.760278
v -0.00510005 -1.334798 4.32279
v -1.23907 -1.521072 4.832997
v -0.00510005 -1.334798 4.32279
v 0.9452452 -0.4128672 4.608937
v 0.5579299 -0.4507447 4.239138
v 0.217139 -1.532834 4.760278
v 0.2171406 0.7188578 4.530315
v 0.4765595 -0.3678845 4.887011
v 0.06396872 0.2919457 4.860178
v 0.9452452 -0.4128672 4.608937
v -1.239074 0.7306262 4.603034
v 0.06396872 0.2919457 4.860178
v -0.761227 0.3048526 4.939966
v 0.2171406 0.7188578 4.530315
v -1.967181 -0.3893403 4.754375
v -0.761227 0.3048526 4.939966
v -1.173824 -0.3420702 5.046589
v -1.239074 0.7306262 4.603034
v -1.967181 -0.3893403 4.754375
v -0.7612258 -1.001903 5.073423
v -1.23907 -1.521072 4.832997
v -1.173824 -0.3420702 5.046589
v -1.23907 -1.521072 4.832997
v 0.06396296 -1.014807 4.993634
v 0.217139 -1.532834 4.760278
v -0.7612258 -1.001903 5.073423
v 0.9452452 -0.4128672 4.608937
v 0.06396296 -1.014807 4.993634
v 0.4765595 -0.3678845 4.887011
v 0.217139 -1.532834 4.760278
v -0.4083385 -0.5977203 5.434424
v 0.1830918 -0.2978017 5.320251
v -0.01405164 -0.6065852 5.379634
v -0.6054833 -0.2800756 5.429831
v -0.01405297 0.01984305 5.315658
v -0.4083398 0.02870791 5.370448
v 0.2097319 0.4376453 5.058581
v 0.1830918 -0.2978017 5.320251
v -0.01405297 0.01984305 5.315658
v 0.6911585 -0.3373091 5.076013
v -0.7531278 0.4572833 5.18
v -0.01405297 0.01984305 5.315658
v -0.4083398 0.02870791 5.370448
v 0.2097319 0.4376453 5.058581
v -1.234558 -0.2980261 5.318851
v -0.4083398 0.02870791 5.370448
v -0.6054833 -0.2800756 5.429831
v -0.7531278 0.4572833 5.18
v -0.4083385 -0.5977203 5.434424
v -1.234558 -0.2980261 5.318851
v -0.6054833 -0.2800756 5.429831
v -0.7531257 -1.072987 5.336284
v -0.01405164 -0.6065852 5.379634
v -0.7531257 -1.072987 5.336284
v -0.4083385 -0.5977203 5.434424
v 0.2097325 -1.092628 5.214865
v 0.1830918 -0.2978017 5.320251
v 0.2097325 -1.092628 5.214865
v -0.01405164 -0.6065852 5.379634
v 0.6911585 -0.3373091 5.076013
v 0.06396872 0.2919457 4.860178
v 0.6911585 -0.3373091 5.076013
v 0.2097319 0.4376453 5.058581
v 0.4765595 -0.3678845 4.887011
v -0.761227 0.3048526 4.939966
v 0.2097319 0.4376453 5.058581
v -0.7531278 0.4572833 5.18
v 0.06396872 0.2919457 4.860178
v -1.173824 -0.3420702 5.046589
v -0.7531278 0.4572833 5.18
v -1.234558 -0.2980261 5.318851
v -0.761227 0.3048526 4.939966
v -0.7531257 -1.072987 5.336284
v -1.173824 -0.3420702 5.046589
v -1.234558 -0.2980261 5.318851
v -0.7612258 -1.001903 5.073423
v 0.2097325 -1.092628 5.214865
v -0.7612258 -1.001903 5.073423
v -0.7531257 -1.072987 5.336284
v 0.06396296 -1.014807 4.993634
v 0.6911585 -0.3373091 5.076013
v 0.06396296 -1.014807 4.993634
v 0.2097325 -1.092628 5.214865
v 0.4765595 -0.3678845 4.887011
v 1.593859 -0.8388972 2.680583
v 0.6907537 -0.2526513 2.836622
v 0.7649868 -0.6080513 2.692721
v 1.865288 -0.5803836 2.855561
v 0.7649868 -0.6080513 2.692721
v -0.1966035 -1.107336 2.871009
v 0.1398277 -1.213161 2.692722
v 0.6907537 -0.2526513 2.836622
v 0.1398277 -1.213161 2.692722
v 0.09058049 -2.289755 2.924334
v 0.3435407 -2.049117 2.680583
v -0.1966035 -1.107336 2.871009
v 0.3435407 -2.049117 2.680583
v 1.265115 -2.617487 2.943272
v 1.172406 -2.27996 2.668445
v 0.09058049 -2.289755 2.924334
v 1.172406 -2.27996 2.668445
v 2.152463 -1.762804 2.908885
v 1.797572 -1.674853 2.668445
v 1.265115 -2.617487 2.943272
v 1.797572 -1.674853 2.668445
v 1.865288 -0.5803836 2.855561
v 1.593859 -0.8388972 2.680583
v 2.152463 -1.762804 2.908885
v 1.865288 -0.5803836 2.855561
v 0.7560369 -0.7069501 3.00898
v 0.6907537 -0.2526513 2.836622
v 1.465491 -0.905118 3.026691
v 0.6907537 -0.2526513 2.836622
v 0.2188545 -1.221566 3.038329
v -0.1966035 -1.107336 2.871009
v 0.7560369 -0.7069501 3.00898
v -0.1966035 -1.107336 2.871009
v 0.3911274 -1.934346 3.085389
v 0.09058049 -2.289755 2.924334
v 0.2188545 -1.221566 3.038329
v 0.09058049 -2.289755 2.924334
v 1.100588 -2.132516 3.1031
v 1.265115 -2.617487 2.943272
v 0.3911274 -1.934346 3.085389
v 1.265115 -2.617487 2.943272
v 1.637769 -1.617904 3.073752
v 2.152463 -1.762804 2.908885
v 1.100588 -2.132516 3.1031
v 2.152463 -1.762804 2.908885
v 1.465491 -0.905118 3.026691
v 1.865288 -0.5803836 2.855561
v 1.637769 -1.617904 3.073752
v 1.797572 -1.674853 2.668445
v 0.3435407 -2.049117 2.680583
v 1.172406 -2.27996 2.668445
v 1.593859 -0.8388972 2.680583
v 0.1398277 -1.213161 2.692722
v 0.7649868 -0.6080513 2.692721
v 1.465491 -0.905118 3.026691
v 0.7222207 -0.4609234 3.190499
v 0.7560369 -0.7069501 3.00898
v 1.630513 -0.7077092 3.234729
v 0.7560369 -0.7069501 3.00898
v 0.0251402 -1.123945 3.231409
v 0.2188545 -1.221566 3.038329
v 0.7222207 -0.4609234 3.190499
v 0.2188545 -1.221566 3.038329
v 0.2363455 -2.033749 3.316548
v 0.3911274 -1.934346 3.085389
v 0.0251402 -1.123945 3.231409
v 0.3911274 -1.934346 3.085389
v 1.144637 -2.280538 3.360779
v 1.100588 -2.132516 3.1031
v 0.2363455 -2.033749 3.316548
v 1.100588 -2.132516 3.1031
v 1.841717 -1.617517 3.31987
v 1.637769 -1.617904 3.073752
v 1.144637 -2.280538 3.360779
v 1.637769 -1.617904 3.073752
v 1.630513 -0.7077092 3.234729
v 1.465491 -0.905118 3.026691
v 1.841717 -1.617517 3.31987
v 0.7222207 -0.4609234 3.190499
v 1.385673 -0.8999435 3.391165
v 0.8617656 -0.7505876 3.37607
v 1.630513 -0.7077092 3.234729
v 0.0251402 -1.123945 3.231409
v 0.8617656 -0.7505876 3.37607
v 0.46365 -1.123096 3.420956
v 0.7222207 -0.4609234 3.190499
v 0.2363455 -2.033749 3.316548
v 1.113341 -1.794316 3.496035
v 1.144637 -2.280538 3.360779
v 0.5894336 -1.644961 3.480939
v 1.144637 -2.280538 3.360779
v 1.511458 -1.421805 3.451148
v 1.841717 -1.617517 3.31987
v 1.113341 -1.794316 3.496035
v 1.630513 -0.7077092 3.234729
v 1.511458 -1.421805 3.451148
v 1.385673 -0.8999435 3.391165
v 1.841717 -1.617517 3.31987
v 1.385673 -0.8999435 3.391165
v 0.46365 -1.123096 3.420956
v 0.8617656 -0.7505876 3.37607
v 0.5894336 -1.644961 3.480939
v 1.511458 -1.421805 3.451148
v 1.113341 -1.794316 3.496035
v -1.851507 -1.80924 2.975711
v -1.422367 -0.8414566 3.086738
v -1.755924 -0.9686558 2.984348
v -1.558413 -2.032684 3.100213
v -1.755924 -0.9686558 2.984348
v -2.389836 -0.11245 3.111205
v -2.440408 -0.4555171 2.984348
v -1.422367 -0.8414566 3.086738
v -2.440408 -0.4555171 2.984348
v -3.493342 -0.5746734 3.149148
v -3.220465 -0.7829589 2.975711
v -2.389836 -0.11245 3.111205
v -3.220465 -0.7829589 2.975711
v -3.629386 -1.765897 3.162623
v -3.316046 -1.62354 2.967075
v -3.493342 -0.5746734 3.149148
v -3.316046 -1.62354 2.967075
v -2.661918 -2.494904 3.138156
v -2.631571 -2.136679 2.967075
v -3.629386 -1.765897 3.162623
v -2.631571 -2.136679 2.967075
v -1.558413 -2.032684 3.100213
v -1.851507 -1.80924 2.975711
v -2.661918 -2.494904 3.138156
v -1.558413 -2.032684 3.100213
v -1.85334 -0.9753016 3.209376
v -1.422367 -0.8414566 3.086738
v -1.935715 -1.694875 3.221979
v -1.422367 -0.8414566 3.086738
v -2.436308 -0.5335479 3.230258
v -2.389836 -0.11245 3.111205
v -1.85334 -0.9753016 3.209376
v -2.389836 -0.11245 3.111205
v -3.101652 -0.8113675 3.263743
v -3.493342 -0.5746734 3.149148
v -2.436308 -0.5335479 3.230258
v -3.493342 -0.5746734 3.149148
v -3.184027 -1.530941 3.276346
v -3.629386 -1.765897 3.162623
v -3.101652 -0.8113675 3.263743
v -3.629386 -1.765897 3.162623
v -2.601059 -1.972694 3.255463
v -2.661918 -2.494904 3.138156
v -3.184027 -1.530941 3.276346
v -2.661918 -2.494904 3.138156
v -1.935715 -1.694875 3.221979
v -1.558413 -2.032684 3.100213
v -2.601059 -1.972694 3.255463
v -2.631571 -2.136679 2.967075
v -3.220465 -0.7829589 2.975711
v -3.316046 -1.62354 2.967075
v -1.851507 -1.80924 2.975711
v -2.440408 -0.4555171 2.984348
v -1.755924 -0.9686558 2.984348
v -1.935715 -1.694875 3.221979
v -1.619702 -0.9043167 3.338532
v -1.85334 -0.9753016 3.209376
v -1.718444 -1.824482 3.370004
v -1.85334 -0.9753016 3.209376
v -2.371568 -0.3303281 3.367641
v -2.436308 -0.5335479 3.230258
v -1.619702 -0.9043167 3.338532
v -2.436308 -0.5335479 3.230258
v -3.222176 -0.6765015 3.428221
v -3.101652 -0.8113675 3.263743
v -2.371568 -0.3303281 3.367641
v -3.101652 -0.8113675 3.263743
v -3.320917 -1.596664 3.459692
v -3.184027 -1.530941 3.276346
v -3.222176 -0.6765015 3.428221
v -3.184027 -1.530941 3.276346
v -2.569052 -2.170656 3.430584
v -2.601059 -1.972694 3.255463
v -3.320917 -1.596664 3.459692
v -2.601059 -1.972694 3.255463
v -1.718444 -1.824482 3.370004
v -1.935715 -1.694875 3.221979
v -2.569052 -2.170656 3.430584
v -1.619702 -0.9043167 3.338532
v -1.943069 -1.616572 3.481313
v -1.879309 -1.084732 3.470572
v -1.718444 -1.824482 3.370004
v -2.371568 -0.3303281 3.367641
v -1.879309 -1.084732 3.470572
v -2.302734 -0.7559602 3.50251
v -1.619702 -0.9043167 3.338532
v -3.222176 -0.6765015 3.428221
v -2.302734 -0.7559602 3.50251
v -2.789918 -0.9590272 3.54519
v -2.371568 -0.3303281 3.367641
v -3.222176 -0.6765015 3.428221
v -2.853678 -1.49087 3.555931
v -3.320917 -1.596664 3.459692
v -2.789918 -0.9590272 3.54519
v -3.320917 -1.596664 3.459692
v -2.430254 -1.819642 3.523993
v -2.569052 -2.170656 3.430584
v -2.853678 -1.49087 3.555931
v -1.718444 -1.824482 3.370004
v -2.430254 -1.819642 3.523993
v -1.943069 -1.616572 3.481313
v -2.569052 -2.170656 3.430584
v -1.943069 -1.616572 3.481313
v -2.302734 -0.7559602 3.50251
v -1.879309 -1.084732 3.470572
v -2.789918 -0.9590272 3.54519
v -2.430254 -1.819642 3.523993
v -2.853678 -1.49087 3.555931
v 0.6152728 0.85283 2.936418
v 0.9478733 1.602907 3.071658
v 0.6893549 1.504321 2.946939
v 0.8424349 0.6796525 3.088072
v 0.6893549 1.504321 2.946939
v 0.1980416 2.167915 3.101461
v 0.1588467 1.902027 2.946939
v 0.9478733 1.602907 3.071658
v 0.1588467 1.902027 2.946939
v -0.6572254 1.809675 3.147678
v -0.4457338 1.648246 2.936418
v 0.1980416 2.167915 3.101461
v -0.4457338 1.648246 2.936418
v -0.7626609 0.8864275 3.164092
v -0.5198131 0.9967619 2.925898
v -0.6572254 1.809675 3.147678
v -0.5198131 0.9967619 2.925898
v -0.01283211 0.3214125 3.134289
v 0.01069229 0.599049 2.925898
v -0.7626609 0.8864275 3.164092
v 0.01069229 0.599049 2.925898
v 0.8424349 0.6796525 3.088072
v 0.6152728 0.85283 2.936418
v -0.01283211 0.3214125 3.134289
v 0.8424349 0.6796525 3.088072
v 0.6138584 1.499172 3.221041
v 0.9478733 1.602907 3.071658
v 0.5500094 0.9414708 3.236392
v 0.9478733 1.602907 3.071658
v 0.1620249 1.841551 3.246478
v 0.1980416 2.167915 3.101461
v 0.6138584 1.499172 3.221041
v 0.1980416 2.167915 3.101461
v -0.3536406 1.626231 3.287265
v -0.6572254 1.809675 3.147678
v 0.1620249 1.841551 3.246478
v -0.6572254 1.809675 3.147678
v -0.4174896 1.06853 3.302616
v -0.7626609 0.8864275 3.164092
v -0.3536406 1.626231 3.287265
v -0.7626609 0.8864275 3.164092
v 0.03433684 0.7261534 3.27718
v -0.01283211 0.3214125 3.134289
v -0.4174896 1.06853 3.302616
v -0.01283211 0.3214125 3.134289
v 0.5500094 0.9414708 3.236392
v 0.8424349 0.6796525 3.088072
v 0.03433684 0.7261534 3.27718
v 0.01069229 0.599049 2.925898
v -0.4457338 1.648246 2.936418
v -0.5198131 0.9967619 2.925898
v 0.6152728 0.85283 2.936418
v 0.1588467 1.902027 2.946939
v 0.6893549 1.504321 2.946939
v 0.03433684 0.7261534 3.27718
v 0.6138584 1.499172 3.221041
v 0.5500094 0.9414708 3.236392
v 0.1620249 1.841551 3.246478
v -0.4174896 1.06853 3.302616
v -0.3536406 1.626231 3.287265

vn 0.3137207 -0.949707 -0.001451492
vn 0.3137207 -0.949707 -0.001451492
vn 0.3137207 -0.949707 -0.001451492
vn 0.309082 -0.9492188 -0.06103516
vn 0.309082 -0.9492188 -0.06103516
vn 0.309082 -0.9492188 -0.06103516
vn -0.3242188 0.8022461 0.5009766
vn -0.3242188 0.8022461 0.5009766
vn -0.3242188 0.8022461 0.5009766
vn -0.3154297 0.7739258 0.5488281
vn -0.3154297 0.7739258 0.5488281
vn -0.3154297 0.7739258 0.5488281
vn 0.7324219 -0.6748047 0.09008789
vn 0.7324219 -0.6748047 0.09008789
vn 0.7324219 -0.6748047 0.09008789
vn -0.4760742 0.7075195 -0.5219727
vn -0.4760742 0.7075195 -0.5219727
vn -0.4760742 0.7075195 -0.5219727
vn -0.565918 0.6992188 0.4370117
vn -0.565918 0.6992188 0.4370117
vn -0.565918 0.6992188 0.4370117
vn 0.04846191 0.007423401 0.9990234
vn 0.04846191 0.007423401 0.9990234
vn 0.04846191 0.007423401 0.9990234
vn 0.4963379 0.8666992 0.05108643
vn 0.4963379 0.8666992 0.05108643
vn 0.4963379 0.8666992 0.05108643
vn -0.2423096 0.7241211 -0.6455078
vn -0.2423096 0.7241211 -0.6455078
vn -0.2423096 0.7241211 -0.6455078
vn -0.2089844 -0.9238281 0.3210449
vn -0.2089844 -0.9238281 0.3210449
vn -0.2089844 -0.9238281 0.3210449
vn -0.1459961 -0.9179688 0.3686523
vn -0.1459961 -0.9179688 0.3686523
vn -0.1459961 -0.9179688 0.3686523
vn 0.6118164 0.1210327 0.7817383
vn 0.6118164 0.1210327 0.7817383
vn 0.6118164 0.1210327 0.7817383
vn -0.7836914 -0.0480957 -0.6196289
vn -0.7836914 -0.0480957 -0.6196289
vn -0.7836914 -0.0480957 -0.6196289
vn -0.3369141 -0.8227539 0.4575195
vn -0.3369141 -0.8227539 0.4575195
vn -0.3369141 -0.8227539 0.4575195
vn -0.05215454 -0.9628906 -0.2653809
vn -0.05215454 -0.9628906 -0.2653809
vn -0.05215454 -0.9628906 -0.2653809
vn -0.09844971 -0.9628906 -0.2504883
vn -0.09844971 -0.9628906 -0.2504883
vn -0.09844971 -0.9628906 -0.2504883
vn -0.02253723 -0.6342773 -0.7729492
vn -0.02253723 -0.6342773 -0.7729492
vn -0.02253723 -0.6342773 -0.7729492
vn -0.9794922 0.1107788 -0.1688232
vn -0.9794922 0.1107788 -0.1688232
vn -0.9794922 0.1107788 -0.1688232
vn -0.4411621 0.7075195 0.5522461
vn -0.4411621 0.7075195 0.5522461
vn -0.4411621 0.7075195 0.5522461
vn 0.4963379 0.6362305 0.5908203
vn 0.4963379 0.6362305 0.5908203
vn 0.4963379 0.6362305 0.5908203
vn -0.3789063 0.9121094 0.1578369
vn -0.3728027 0.9145508 0.1573486
vn -0.3928223 0.9057617 0.1591797
vn -0.3728027 0.9145508 0.1573486
vn -0.3789063 0.9121094 0.1578369
vn -0.3647461 0.9179688 0.1564941
vn 0.5380859 0.4733887 -0.6972656
vn 0.5380859 0.4733887 -0.6972656
vn 0.5380859 0.4733887 -0.6972656
vn 0.5644531 0.4760742 -0.6743164
vn -0.3525391 0.3642578 -0.8618164
vn -0.3525391 0.3642578 -0.8618164
vn -0.3525391 0.3642578 -0.8618164
vn -0.3537598 0.3640137 -0.8613281
vn -0.9882813 -0.09185791 -0.1217651
vn -0.9882813 -0.09185791 -0.1217651
vn -0.9882813 -0.09185791 -0.1217651
vn -0.9873047 -0.08898926 -0.1329346
vn -0.5810547 -0.3959961 0.7109375
vn -0.5810547 -0.3959961 0.7109375
vn -0.5810547 -0.3959961 0.7109375
vn -0.5615234 -0.3937988 0.7275391
vn 0.3649902 -0.2780762 0.8886719
vn 0.3649902 -0.2780762 0.8886719
vn 0.3649902 -0.2780762 0.8886719
vn 0.3686523 -0.2775879 0.887207
vn 0.9711914 0.2000732 0.1307373
vn 0.9711914 0.2000732 0.1307373
vn 0.9711914 0.2000732 0.1307373
vn 0.9716797 0.201416 0.1251221
vn 0.6010742 0.07171631 -0.7963867
vn 0.6010742 0.07171631 -0.7963867
vn 0.6010742 0.07171631 -0.7963867
vn 0.6020508 0.07189941 -0.7954102
vn -0.3769531 0.05319214 -0.9248047
vn -0.3769531 0.05319214 -0.9248047
vn -0.3769531 0.05319214 -0.9248047
vn -0.3950195 0.05505371 -0.9169922
vn -0.9916992 0.002576828 -0.1269531
vn -0.9916992 0.002576828 -0.1269531
vn -0.9931641 0.003372192 -0.1176758
vn -0.9916992 0.002576828 -0.1269531
vn -0.9907227 0.03469849 -0.1298828
vn -0.9907227 0.03469849 -0.1298828
vn -0.6035156 -0.02787781 0.796875
vn -0.6035156 -0.02787781 0.796875
vn -0.6035156 -0.02787781 0.796875
vn -0.5996094 -0.02728271 0.7998047
vn 0.3818359 -0.009941101 0.9243164
vn 0.3818359 -0.009941101 0.9243164
vn 0.3818359 -0.009941101 0.9243164
vn 0.3977051 -0.01150513 0.9174805
vn 0.9916992 0.03781128 0.1210327
vn 0.9916992 0.03781128 0.1210327
vn 0.9921875 0.03768921 0.1195679
vn 0.9916992 0.03781128 0.1210327
vn 0.9921875 0.005664825 0.1264648
vn 0.9921875 0.005664825 0.1264648
vn 0.5664063 -0.3024902 -0.7666016
vn 0.5664063 -0.3024902 -0.7666016
vn 0.5664063 -0.3024902 -0.7666016
vn 0.5864258 -0.2966309 -0.7539063
vn -0.3955078 -0.2800293 -0.875
vn -0.4086914 -0.2758789 -0.8701172
vn -0.409668 -0.2753906 -0.8696289
vn -0.3945313 -0.2802734 -0.875
vn -0.5571289 0.3361816 0.7592773
vn -0.5571289 0.3361816 0.7592773
vn -0.5571289 0.3361816 0.7592773
vn -0.5795898 0.3347168 0.7431641
vn 0.4101563 0.314209 0.8564453
vn 0.3947754 0.3190918 0.8618164
vn 0.411377 0.3137207 0.855957
vn 0.3935547 0.3193359 0.8618164
vn 0.1846924 0.06750488 -0.9804688
vn 0.1846924 0.06750488 -0.9804688
vn 0.1800537 0.09674072 -0.9790039
vn 0.1846924 0.06750488 -0.9804688
vn 0.2016602 0.07299805 -0.9765625
vn -0.1499023 0.862793 -0.482666
vn -0.1499023 0.862793 -0.482666
vn -0.1499023 0.862793 -0.482666
vn -0.1547852 0.8774414 -0.4536133
vn -0.1479492 -0.05575562 0.9873047
vn -0.1479492 -0.05575562 0.9873047
vn -0.1479492 -0.05575562 0.9873047
vn -0.1427002 -0.08862305 0.9858398
vn 0.7055664 0.08410645 0.7036133
vn 0.7055664 0.08410645 0.7036133
vn 0.7055664 0.08410645 0.7036133
vn 0.7089844 0.1072388 0.6967773
vn 0.5239258 0.8476563 0.08526611
vn 0.5239258 0.8476563 0.08526611
vn 0.5239258 0.8476563 0.08526611
vn 0.534668 0.8417969 0.07287598
vn -0.1846924 0.7646484 -0.6171875
vn -0.1846924 0.7646484 -0.6171875
vn -0.1846924 0.7646484 -0.6171875
vn -0.1677246 0.7553711 -0.6337891
vn -0.7172852 -0.07904053 -0.6918945
vn -0.7172852 -0.07904053 -0.6918945
vn -0.7172852 -0.07904053 -0.6918945
vn -0.7211914 -0.1036987 -0.6850586
vn -0.9960938 0.03173828 0.08374023
vn -0.9960938 0.03173828 0.08374023
vn -0.9960938 0.03173828 0.08374023
vn -0.9936523 0.07208252 0.08862305
vn -0.4543457 0.8554688 0.248291
vn -0.4543457 0.8554688 0.248291
vn -0.4543457 0.8554688 0.248291
vn -0.4196777 0.8740234 0.2445068
vn 0.5449219 0.8256836 0.1468506
vn 0.5449219 0.8256836 0.1468506
vn 0.5449219 0.8256836 0.1468506
vn 0.5771484 0.8056641 0.1330566
vn 0.9921875 -0.01916504 -0.1227417
vn 0.9921875 -0.01916504 -0.1227417
vn 0.9897461 -0.06317139 -0.1281738
vn 0.9921875 -0.01916504 -0.1227417
vn 0.9960938 -0.03231812 -0.08190918
vn 0.3129883 -0.8500977 -0.4233398
vn 0.2780762 -0.8720703 -0.402832
vn 0.2570801 -0.8842773 -0.3898926
vn 0.324707 -0.8422852 -0.4301758
vn -0.2242432 -0.8442383 -0.4865723
vn -0.2243652 -0.8198242 -0.5263672
vn -0.2241211 -0.8076172 -0.5458984
vn -0.2241211 -0.8505859 -0.4753418
vn -0.6108398 -0.7880859 -0.07550049
vn -0.6577148 -0.7451172 -0.1115723
vn -0.6860352 -0.715332 -0.1342773
vn -0.5908203 -0.8046875 -0.06066895
vn -0.4042969 -0.7026367 0.5854492
vn -0.4243164 -0.684082 0.5932617
vn -0.4382324 -0.6704102 0.5986328
vn -0.3950195 -0.7114258 0.581543
vn 0.262207 -0.6757813 0.6889648
vn 0.2648926 -0.6972656 0.6660156
vn 0.2666016 -0.7124023 0.6494141
vn 0.2612305 -0.6669922 0.6977539
vn 0.6176758 -0.7734375 0.1409912
vn 0.5698242 -0.8149414 0.1063232
vn 0.5302734 -0.8442383 0.07897949
vn 0.6367188 -0.7553711 0.1551514
vn 0.2399902 0.8945313 -0.3776855
vn 0.2388916 0.8974609 -0.3708496
vn 0.2382813 0.8994141 -0.3662109
vn 0.241333 0.8901367 -0.3864746
vn -0.1525879 0.8691406 -0.470459
vn -0.1628418 0.8618164 -0.4799805
vn -0.1669922 0.8588867 -0.4838867
vn -0.1434326 0.875 -0.4621582
vn -0.4414063 0.8862305 -0.1420898
vn -0.4602051 0.8774414 -0.135376
vn -0.4697266 0.8730469 -0.131958
vn -0.4233398 0.8935547 -0.1483154
vn -0.2565918 0.9111328 0.3217773
vn -0.2573242 0.9086914 0.3291016
vn -0.2578125 0.9067383 0.3337402
vn -0.2556152 0.9145508 0.3134766
vn 0.1889648 0.9111328 0.3659668
vn 0.1818848 0.9150391 0.3598633
vn 0.1779785 0.9169922 0.3564453
vn 0.1960449 0.9072266 0.3720703
vn 0.4074707 0.9130859 0.008842468
vn 0.394043 0.9189453 0.01360321
vn 0.3837891 0.9233398 0.01724243
vn 0.4245605 0.9052734 0.002668381
vn -0.007896423 -1 -0.01921082
vn -0.007896423 -1 -0.01921082
vn -0.007896423 -1 -0.01921082
vn -0.007896423 -1 -0.01921082
vn -0.007896423 -1 -0.01921082
vn -0.007896423 -1 -0.01921082
vn 0.4399414 -0.6982422 -0.5644531
vn 0.427002 -0.7114258 -0.5581055
vn 0.4191895 -0.7192383 -0.5541992
vn 0.4450684 -0.6933594 -0.5668945
vn -0.314209 -0.6455078 -0.6958008
vn -0.314209 -0.6455078 -0.6958008
vn -0.314209 -0.6455078 -0.6958008
vn -0.314209 -0.6450195 -0.6962891
vn -0.8261719 -0.5556641 -0.09399414
vn -0.8325195 -0.5444336 -0.1019897
vn -0.8359375 -0.5380859 -0.1062012
vn -0.8232422 -0.5600586 -0.09100342
vn -0.5009766 -0.423584 0.7543945
vn -0.5146484 -0.4033203 0.7563477
vn -0.5224609 -0.3916016 0.7573242
vn -0.4953613 -0.4318848 0.7539063
vn 0.3249512 -0.3933105 0.8598633
vn 0.3259277 -0.3991699 0.8569336
vn 0.326416 -0.4025879 0.8554688
vn 0.3244629 -0.3911133 0.8613281
vn 0.7915039 -0.5737305 0.2095947
vn 0.7758789 -0.5996094 0.1966553
vn 0.7636719 -0.6181641 0.1870117
vn 0.7988281 -0.5615234 0.2156982
vn 0.3486328 0.7592773 -0.5498047
vn 0.3291016 0.7734375 -0.5415039
vn 0.3686523 0.7436523 -0.5581055
vn 0.3190918 0.7807617 -0.5371094
vn -0.1834717 0.7641602 -0.6181641
vn -0.1855469 0.7851563 -0.5908203
vn -0.1802979 0.7348633 -0.6538086
vn -0.1868896 0.7983398 -0.5727539
vn -0.4406738 0.8764648 -0.1932373
vn -0.4365234 0.8793945 -0.1895752
vn -0.4526367 0.8681641 -0.2039795
vn -0.4291992 0.8842773 -0.1831055
vn -0.2421875 0.9331055 0.2666016
vn -0.2421875 0.9345703 0.2612305
vn -0.2419434 0.9370117 0.2509766
vn -0.2423096 0.9282227 0.282959
vn 0.2248535 0.8950195 0.3857422
vn 0.2056885 0.9072266 0.3674316
vn 0.1912842 0.9155273 0.3537598
vn 0.2524414 0.8754883 0.4116211
vn 0.5356445 0.8442383 -0.0120697
vn 0.5507813 0.8344727 0.002328873
vn 0.519043 0.8544922 -0.02726746
vn 0.559082 0.8291016 0.01003265
vn 0.09051514 0.9853516 -0.1459961
vn 0.09051514 0.9853516 -0.1459961
vn 0.09051514 0.9853516 -0.1459961
vn 0.09051514 0.9853516 -0.1459961
vn 0.09051514 0.9853516 -0.1459961
vn 0.09051514 0.9853516 -0.1459961
vn 0.2944336 0.8525391 -0.4318848
vn 0.2937012 0.8530273 -0.4316406
vn 0.2998047 0.8500977 -0.4328613
vn 0.2910156 0.8540039 -0.4311523
vn -0.06719971 0.8686523 -0.4904785
vn -0.06768799 0.8701172 -0.4882813
vn -0.0645752 0.862793 -0.5014648
vn -0.06896973 0.8730469 -0.4829102
vn -0.2675781 0.9428711 -0.1990967
vn -0.2675781 0.9428711 -0.1989746
vn -0.2722168 0.9404297 -0.2039795
vn -0.2651367 0.9438477 -0.1962891
vn -0.123291 0.9819336 0.1427002
vn -0.123291 0.9819336 0.1428223
vn -0.1228638 0.980957 0.1495361
vn -0.1235352 0.9824219 0.1390381
vn 0.2141113 0.9541016 0.2103271
vn 0.2155762 0.953125 0.2113037
vn 0.2252197 0.949707 0.2178955
vn 0.2093506 0.9555664 0.2070313
vn 0.4348145 0.8979492 -0.06530762
vn 0.4353027 0.8979492 -0.06561279
vn 0.4399414 0.8955078 -0.06811523
vn 0.432373 0.8994141 -0.06402588
vn 0.4226074 -0.7128906 -0.5595703
vn 0.420166 -0.7241211 -0.546875
vn 0.4233398 -0.7094727 -0.5634766
vn 0.4191895 -0.7290039 -0.5410156
vn -0.364502 -0.5400391 -0.7583008
vn -0.3549805 -0.5615234 -0.7470703
vn -0.3669434 -0.5341797 -0.7617188
vn -0.3508301 -0.5708008 -0.7421875
vn -0.9550781 -0.2668457 -0.1303711
vn -0.9521484 -0.2751465 -0.1313477
vn -0.9555664 -0.2644043 -0.1300049
vn -0.9511719 -0.2788086 -0.1317139
vn -0.5766602 -0.1140137 0.809082
vn -0.5795898 -0.1054688 0.8081055
vn -0.5805664 -0.1030884 0.8076172
vn -0.5756836 -0.1174316 0.809082
vn 0.3198242 -0.2939453 0.9008789
vn 0.3183594 -0.2663574 0.909668
vn 0.3178711 -0.2592773 0.9121094
vn 0.3203125 -0.3054199 0.8969727
vn 0.7592773 -0.6103516 0.2252197
vn 0.7695313 -0.5957031 0.2303467
vn 0.7724609 -0.5913086 0.2318115
vn 0.7548828 -0.6166992 0.2229004
vn -0.04467773 -0.8876953 -0.458252
vn -0.05465698 -0.90625 -0.4194336
vn -0.06018066 -0.9155273 -0.3977051
vn -0.04168701 -0.8818359 -0.4694824
vn -0.4174805 -0.8945313 -0.1602783
vn -0.4436035 -0.8764648 -0.1864014
vn -0.4567871 -0.8666992 -0.199585
vn -0.409668 -0.8994141 -0.152832
vn -0.4233398 -0.8383789 0.3430176
vn -0.484375 -0.7993164 0.355957
vn -0.5166016 -0.7758789 0.3623047
vn -0.4025879 -0.8505859 0.3383789
vn 0.08331299 -0.765625 0.6381836
vn 0.07489014 -0.746582 0.6611328
vn 0.06964111 -0.734375 0.6748047
vn 0.08642578 -0.7724609 0.6293945
vn 0.5898438 -0.7583008 0.277832
vn 0.5732422 -0.777832 0.2585449
vn 0.5615234 -0.7900391 0.2453613
vn 0.5957031 -0.7509766 0.2849121
vn 0.4729004 -0.8251953 -0.3095703
vn 0.4121094 -0.8618164 -0.2956543
vn 0.371582 -0.8833008 -0.2856445
vn 0.4929199 -0.8115234 -0.3139648
vn -0.06378174 0.9233398 -0.3789063
vn -0.06021118 0.9257813 -0.3730469
vn -0.05819702 0.9272461 -0.369873
vn -0.06768799 0.9204102 -0.3850098
vn -0.3601074 0.9125977 -0.1939697
vn -0.3725586 0.9077148 -0.1938477
vn -0.3779297 0.9052734 -0.1938477
vn -0.348877 0.9169922 -0.1940918
vn -0.3483887 0.9179688 0.1884766
vn -0.357666 0.9111328 0.2058105
vn -0.3615723 0.9077148 0.2133789
vn -0.340332 0.9243164 0.1733398
vn 0.02206421 0.9355469 0.3525391
vn 0.02601624 0.9331055 0.3581543
vn 0.02812195 0.9321289 0.3613281
vn 0.01818848 0.9379883 0.3469238
vn 0.3183594 0.9423828 0.1048584
vn 0.310791 0.9448242 0.1054077
vn 0.3059082 0.9462891 0.1057129
vn 0.3266602 0.9394531 0.104187
vn 0.2509766 0.9360352 -0.2462158
vn 0.2449951 0.940918 -0.2341309
vn 0.2408447 0.9438477 -0.2259521
vn 0.2585449 0.9301758 -0.2609863
vn -0.01498413 -1 -0.006546021
vn -0.01498413 -1 -0.006546021
vn -0.01498413 -1 -0.006546021
vn -0.01498413 -1 -0.006546021
vn -0.01498413 -1 -0.006546021
vn -0.01498413 -1 -0.006546021
vn -0.04769897 -0.7587891 -0.6494141
vn -0.05249023 -0.7714844 -0.6337891
vn -0.05493164 -0.777832 -0.6259766
vn -0.04614258 -0.7543945 -0.6547852
vn -0.6342773 -0.7314453 -0.2497559
vn -0.6342773 -0.7319336 -0.2495117
vn -0.6342773 -0.7319336 -0.2493896
vn -0.6342773 -0.7314453 -0.2497559
vn -0.6025391 -0.625 0.4963379
vn -0.6152344 -0.6123047 0.4970703
vn -0.6201172 -0.6069336 0.4970703
vn -0.5991211 -0.628418 0.4960938
vn 0.1281738 -0.4916992 0.8613281
vn 0.1191406 -0.4663086 0.8764648
vn 0.1151123 -0.4550781 0.8828125
vn 0.1307373 -0.4990234 0.8564453
vn 0.7939453 -0.4772949 0.3764648
vn 0.7915039 -0.484375 0.3730469
vn 0.7900391 -0.487793 0.3710938
vn 0.7944336 -0.4753418 0.3776855
vn 0.6533203 -0.644043 -0.3979492
vn 0.6279297 -0.671875 -0.3925781
vn 0.612793 -0.6879883 -0.3894043
vn 0.6621094 -0.6337891 -0.3996582
vn -0.09631348 0.8139648 -0.5727539
vn -0.1040649 0.8276367 -0.5512695
vn -0.08898926 0.8007813 -0.5922852
vn -0.1072998 0.8334961 -0.5419922
vn -0.4799805 0.8330078 -0.2756348
vn -0.4621582 0.8491211 -0.255127
vn -0.503418 0.809082 -0.3034668
vn -0.4501953 0.8598633 -0.2414551
vn 0.0008926392 0.9511719 0.3088379
vn -0.002677917 0.9526367 0.3046875
vn -0.007843018 0.9541016 0.298584
vn 0.00945282 0.9477539 0.3188477
vn 0.3527832 0.9306641 0.09503174
vn 0.3308105 0.9389648 0.09545898
vn 0.3125 0.9448242 0.0958252
vn 0.3874512 0.9169922 0.09417725
vn 0.3215332 0.8823242 -0.3439941
vn 0.342041 0.8735352 -0.3459473
vn 0.3032227 0.8896484 -0.342041
vn 0.3513184 0.8696289 -0.3469238
vn -0.03985596 0.9931641 -0.1081543
vn -0.03985596 0.9931641 -0.1081543
vn -0.03985596 0.9931641 -0.1081543
vn -0.03985596 0.9931641 -0.1081543
vn -0.03985596 0.9931641 -0.1081543
vn -0.03985596 0.9931641 -0.1081543
vn 0.3405762 -0.9360352 -0.08880615
vn 0.3063965 -0.9477539 -0.09094238
vn 0.2885742 -0.953125 -0.09197998
vn 0.3498535 -0.9326172 -0.0881958
vn 0.07006836 -0.9404297 -0.3325195
vn 0.08789063 -0.9291992 -0.3591309
vn 0.09637451 -0.9233398 -0.3718262
vn 0.06549072 -0.9433594 -0.3254395
vn -0.3161621 -0.9057617 -0.282959
vn -0.3410645 -0.8774414 -0.3374023
vn -0.3530273 -0.8618164 -0.3642578
vn -0.3088379 -0.9125977 -0.267334
vn -0.4973145 -0.8549805 0.1478271
vn -0.5229492 -0.8398438 0.1451416
vn -0.5371094 -0.831543 0.1435547
vn -0.489502 -0.859375 0.1486816
vn -0.147583 -0.8486328 0.5083008
vn -0.1318359 -0.8637695 0.4865723
vn -0.1228027 -0.8720703 0.473877
vn -0.1523438 -0.84375 0.5146484
vn 0.2995605 -0.8950195 0.3300781
vn 0.2751465 -0.9204102 0.2773438
vn 0.260498 -0.9335938 0.2462158
vn 0.3066406 -0.8867188 0.3457031
vn 0.2731934 0.9575195 -0.09216309
vn 0.269043 0.9589844 -0.08862305
vn 0.2668457 0.9599609 -0.08679199
vn 0.277832 0.9560547 -0.09588623
vn 0.1016846 0.9511719 -0.2912598
vn 0.1002808 0.9482422 -0.3015137
vn 0.09973145 0.9467773 -0.3054199
vn 0.1029053 0.9536133 -0.2822266
vn -0.1811523 0.9545898 -0.2364502
vn -0.1962891 0.9501953 -0.2421875
vn -0.2023926 0.9482422 -0.2445068
vn -0.1687012 0.9580078 -0.2316895
vn -0.2570801 0.9648438 0.05767822
vn -0.2612305 0.9633789 0.0614624
vn -0.2634277 0.9624023 0.06335449
vn -0.2531738 0.9658203 0.0541687
vn -0.03964233 0.9682617 0.2462158
vn -0.04092407 0.9697266 0.2402344
vn -0.04168701 0.9707031 0.2366943
vn -0.03826904 0.9667969 0.2524414
vn 0.2110596 0.9648438 0.1560059
vn 0.2006836 0.9677734 0.1524658
vn 0.1940918 0.9692383 0.1502686
vn 0.2232666 0.9614258 0.1601563
vn 0.002967834 -1 -0.01145172
vn 0.002967834 -1 -0.01145172
vn 0.002967834 -1 -0.01145172
vn 0.002967834 -1 -0.01145172
vn 0.002967834 -1 -0.01145172
vn 0.002967834 -1 -0.01145172
vn 0.5141602 -0.8491211 -0.1210938
vn 0.4970703 -0.8588867 -0.1223145
vn 0.4892578 -0.8632813 -0.1228638
vn 0.5185547 -0.8461914 -0.1207886
vn 0.1201782 -0.8291016 -0.5458984
vn 0.1199951 -0.8291016 -0.5458984
vn 0.1199341 -0.8291016 -0.5458984
vn 0.1202393 -0.8291016 -0.5458984
vn -0.5024414 -0.7421875 -0.4433594
vn -0.5078125 -0.7299805 -0.4575195
vn -0.5097656 -0.7260742 -0.4619141
vn -0.5014648 -0.7446289 -0.4404297
vn -0.7504883 -0.6166992 0.237793
vn -0.7753906 -0.5869141 0.2335205
vn -0.7832031 -0.5771484 0.2320557
vn -0.7451172 -0.6225586 0.2386475
vn -0.2247314 -0.6000977 0.7680664
vn -0.2208252 -0.6079102 0.7626953
vn -0.2193604 -0.6113281 0.7607422
vn -0.2255859 -0.5981445 0.769043
vn 0.4233398 -0.7568359 0.4975586
vn 0.4094238 -0.7827148 0.4689941
vn 0.4023438 -0.7949219 0.4545898
vn 0.4272461 -0.7495117 0.5058594
vn 0.4355469 0.8881836 -0.1463623
vn 0.4135742 0.8979492 -0.1489258
vn 0.4538574 0.8793945 -0.144043
vn 0.4057617 0.9013672 -0.1499023
vn 0.1542969 0.9008789 -0.4055176
vn 0.1385498 0.9125977 -0.3850098
vn 0.1744385 0.8847656 -0.4316406
vn 0.1295166 0.918457 -0.373291
vn -0.1627197 0.9506836 -0.2636719
vn -0.161377 0.9526367 -0.2585449
vn -0.1658936 0.9472656 -0.2744141
vn -0.1595459 0.9545898 -0.2524414
vn -0.2259521 0.9736328 0.03683472
vn -0.2230225 0.9741211 0.03353882
vn -0.2189941 0.9750977 0.02909851
vn -0.2325439 0.9716797 0.04425049
vn -0.02850342 0.9619141 0.2719727
vn -0.03143311 0.9667969 0.2543945
vn -0.03366089 0.9702148 0.2404785
vn -0.02398682 0.9541016 0.2993164
vn 0.298584 0.9331055 0.2010498
vn 0.3041992 0.9272461 0.2180176
vn 0.2939453 0.9375 0.1871338
vn 0.3063965 0.9248047 0.2248535
vn 0.07293701 0.996582 -0.04095459
vn 0.07293701 0.996582 -0.04095459
vn 0.07293701 0.996582 -0.04095459
vn 0.07293701 0.996582 -0.04095459
vn 0.07293701 0.996582 -0.04095459
vn 0.07293701 0.996582 -0.04095459
vn 0.4909668 -0.8618164 -0.12854
vn 0.4499512 -0.8828125 -0.1331787
vn 0.4257813 -0.8945313 -0.1357422
vn 0.503418 -0.8544922 -0.1269531
vn 0.102417 -0.8691406 -0.4838867
vn 0.1253662 -0.8486328 -0.5141602
vn 0.1373291 -0.8369141 -0.5297852
vn 0.09552002 -0.875 -0.4746094
vn -0.442627 -0.8037109 -0.3977051
vn -0.4624023 -0.7607422 -0.4555664
vn -0.4726563 -0.7338867 -0.4875488
vn -0.4350586 -0.8178711 -0.3764648
vn -0.6630859 -0.722168 0.1962891
vn -0.6850586 -0.7026367 0.1907959
vn -0.699707 -0.6894531 0.1871338
vn -0.6538086 -0.7304688 0.1986084
vn -0.1940918 -0.715332 0.6708984
vn -0.1778564 -0.7358398 0.6533203
vn -0.1658936 -0.75 0.6401367
vn -0.2006836 -0.7070313 0.6782227
vn 0.4130859 -0.7895508 0.4536133
vn 0.3916016 -0.8305664 0.3959961
vn 0.3754883 -0.855957 0.3547363
vn 0.4204102 -0.7734375 0.4741211
vn 0.4052734 0.9038086 -0.1365967
vn 0.3999023 0.9067383 -0.1318359
vn 0.3969727 0.9086914 -0.1291504
vn 0.411377 0.9003906 -0.1419678
vn 0.1496582 0.890625 -0.4289551
vn 0.1472168 0.8852539 -0.4416504
vn 0.1461182 0.8823242 -0.4475098
vn 0.1519775 0.8959961 -0.4169922
vn -0.2683105 0.8974609 -0.3496094
vn -0.2878418 0.8891602 -0.3557129
vn -0.296875 0.8852539 -0.3586426
vn -0.2504883 0.9047852 -0.3439941
vn -0.3850098 0.9189453 0.08648682
vn -0.3903809 0.9160156 0.09173584
vn -0.3933105 0.9145508 0.09460449
vn -0.3796387 0.9213867 0.08123779
vn -0.05969238 0.9272461 0.3701172
vn -0.06164551 0.9301758 0.3623047
vn -0.06286621 0.9321289 0.3571777
vn -0.0574646 0.9233398 0.3791504
vn 0.315918 0.9194336 0.2335205
vn 0.302002 0.925293 0.2293701
vn 0.2922363 0.9291992 0.2263184
vn 0.3330078 0.9121094 0.2387695
vn 0.004665375 -1 -0.01800537
vn 0.004665375 -1 -0.01800537
vn 0.004665375 -1 -0.01800537
vn 0.004665375 -1 -0.01800537
vn 0.004665375 -1 -0.01800537
vn 0.004665375 -1 -0.01800537
vn 0.05813599 0.9970703 -0.0447998
vn 0.05813599 0.9970703 -0.0447998
vn 0.05813599 0.9970703 -0.0447998
vn 0.05813599 0.9970703 -0.0447998
vn 0.05813599 0.9970703 -0.0447998
vn 0.05813599 0.9970703 -0.0447998

vt 0.8266602 0.4970703
vt 0.7890625 0.4775391
vt 0.8217773 0.4960938
vt 0.7890625 0.4775391
vt 0.8266602 0.4970703
vt 0.7924805 0.4780273
vt 0.7875977 0.4870605
vt 0.8217773 0.5083008
vt 0.8198242 0.5039063
vt 0.8217773 0.5083008
vt 0.7875977 0.4870605
vt 0.7885742 0.4924316
vt 0.8217773 0.4960938
vt 0.8486328 0.5424805
vt 0.8266602 0.4970703
vt 0.8251953 0.5048828
vt 0.8486328 0.5424805
vt 0.8217773 0.5083008
vt 0.8217773 0.5083008
vt 0.8486328 0.5424805
vt 0.8198242 0.5039063
vt 0.8198242 0.5039063
vt 0.8486328 0.5424805
vt 0.8217773 0.4960938
vt 0.7275391 0.5292969
vt 0.784668 0.4968262
vt 0.7871094 0.4931641
vt 0.7265625 0.5317383
vt 0.78125 0.4924316
vt 0.784668 0.4968262
vt 0.7265625 0.5224609
vt 0.7802734 0.4846191
vt 0.7231445 0.5219727
vt 0.7802734 0.4846191
vt 0.7265625 0.5224609
vt 0.7866211 0.4851074
vt 0.7265625 0.5224609
vt 0.699707 0.5498047
vt 0.7275391 0.5292969
vt 0.7241211 0.5283203
vt 0.699707 0.5498047
vt 0.7231445 0.5219727
vt 0.7231445 0.5219727
vt 0.699707 0.5498047
vt 0.7265625 0.5224609
vt 0.7954102 0.4970703
vt 0.7919922 0.4775391
vt 0.8041992 0.4960938
vt 0.7919922 0.4775391
vt 0.7954102 0.4970703
vt 0.7807617 0.4780273
vt 0.8041992 0.4960938
vt 0.8134766 0.5463867
vt 0.7954102 0.4970703
vt 0.7954102 0.4970703
vt 0.8134766 0.5463867
vt 0.7954102 0.5048828
vt 0.7954102 0.5048828
vt 0.8134766 0.5463867
vt 0.7993164 0.5083008
vt 0.7993164 0.5083008
vt 0.8134766 0.5463867
vt 0.8041992 0.5039063
vt 0.1964111 0.5068359
vt 0.2272949 0.5209961
vt 0.2443848 0.5292969
vt 0.2272949 0.5209961
vt 0.1964111 0.5068359
vt 0.1676025 0.4951172
vt 0.8217773 0.357666
vt 0.7924805 0.4421387
vt 0.8149414 0.357666
vt 0.7978516 0.4404297
vt 0.8007813 0.357666
vt 0.7924805 0.4421387
vt 0.7822266 0.4428711
vt 0.8149414 0.357666
vt 0.7939453 0.357666
vt 0.7822266 0.4428711
vt 0.7768555 0.4421387
vt 0.8007813 0.357666
vt 0.8007813 0.357666
vt 0.7768555 0.4421387
vt 0.7822266 0.4404297
vt 0.7939453 0.357666
vt 0.8007813 0.357666
vt 0.7929688 0.4396973
vt 0.8149414 0.357666
vt 0.7822266 0.4404297
vt 0.8149414 0.357666
vt 0.7978516 0.4404297
vt 0.8217773 0.357666
vt 0.7929688 0.4396973
vt 0.7890625 0.5507813
vt 0.7978516 0.4404297
vt 0.793457 0.5512695
vt 0.7924805 0.4421387
vt 0.7822266 0.4428711
vt 0.7890625 0.5507813
vt 0.7802734 0.5522461
vt 0.7924805 0.4421387
vt 0.7802734 0.5522461
vt 0.7768555 0.4421387
vt 0.7822266 0.4428711
vt 0.7758789 0.5537109
vt 0.7958984 0.6645508
vt 0.7924805 0.6655273
vt 0.7822266 0.4404297
vt 0.7758789 0.5537109
vt 0.7802734 0.5541992
vt 0.7768555 0.4421387
vt 0.7890625 0.5532227
vt 0.7822266 0.4404297
vt 0.7802734 0.5541992
vt 0.7929688 0.4396973
vt 0.7929688 0.4396973
vt 0.793457 0.5512695
vt 0.7978516 0.4404297
vt 0.7890625 0.5532227
vt 0.8066406 0.6621094
vt 0.8032227 0.6630859
vt 0.8032227 0.6630859
vt 0.793457 0.5512695
vt 0.8066406 0.6621094
vt 0.7890625 0.5507813
vt 0.7802734 0.5522461
vt 0.8032227 0.6630859
vt 0.7958984 0.6645508
vt 0.7890625 0.5507813
vt 0.7958984 0.6645508
vt 0.7758789 0.5537109
vt 0.7924805 0.6655273
vt 0.7802734 0.5541992
vt 0.8032227 0.6630859
vt 0.7802734 0.5541992
vt 0.7958984 0.6645508
vt 0.7890625 0.5532227
vt 0.8266602 0.4970703
vt 0.7910156 0.487793
vt 0.7924805 0.4780273
vt 0.8251953 0.5048828
vt 0.8486328 0.5424805
vt 0.7885742 0.4924316
vt 0.8251953 0.5048828
vt 0.8217773 0.5083008
vt 0.7910156 0.487793
vt 0.8217773 0.4960938
vt 0.7875977 0.4870605
vt 0.8198242 0.5039063
vt 0.7890625 0.4775391
vt 0.7871094 0.4931641
vt 0.7265625 0.5224609
vt 0.7275391 0.5292969
vt 0.7866211 0.4851074
vt 0.784668 0.4968262
vt 0.7275391 0.5292969
vt 0.7265625 0.5317383
vt 0.699707 0.5498047
vt 0.78125 0.4924316
vt 0.7265625 0.5317383
vt 0.7241211 0.5283203
vt 0.699707 0.5498047
vt 0.7231445 0.5219727
vt 0.78125 0.4924316
vt 0.7241211 0.5283203
vt 0.7802734 0.4846191
vt 0.7807617 0.487793
vt 0.7954102 0.4970703
vt 0.7954102 0.5048828
vt 0.7807617 0.4780273
vt 0.7866211 0.4924316
vt 0.7954102 0.5048828
vt 0.7993164 0.5083008
vt 0.7807617 0.487793
vt 0.7919922 0.4870605
vt 0.7993164 0.5083008
vt 0.8041992 0.5039063
vt 0.7866211 0.4924316
vt 0.7919922 0.4870605
vt 0.8041992 0.4960938
vt 0.7919922 0.4775391
vt 0.8041992 0.5039063
vt 0.8134766 0.5463867
vt 0.4284668 0.1466064
vt 0.3933105 0.1734619
vt 0.3649902 0.1486816
vt 0.4833984 0.1766357
vt 0.3649902 0.1486816
vt 0.2131348 0.1793213
vt 0.2376709 0.1486816
vt 0.3933105 0.1734619
vt 0.2376709 0.1486816
vt 0.1229858 0.1884766
vt 0.1740723 0.1466064
vt 0.2131348 0.1793213
vt 0.1740723 0.1466064
vt 0.2131348 0.1917725
vt 0.2376709 0.1445313
vt 0.1229858 0.1884766
vt 0.2376709 0.1445313
vt 0.3933105 0.185791
vt 0.3649902 0.1445313
vt 0.2131348 0.1917725
vt 0.3649902 0.1445313
vt 0.4833984 0.1766357
vt 0.4284668 0.1466064
vt 0.3933105 0.185791
vt 0.4833984 0.1766357
vt 0.3540039 0.2030029
vt 0.3933105 0.1734619
vt 0.4084473 0.2060547
vt 0.3933105 0.1734619
vt 0.2451172 0.2080078
vt 0.2131348 0.1793213
vt 0.3540039 0.2030029
vt 0.2131348 0.1793213
vt 0.1906738 0.2161865
vt 0.1229858 0.1884766
vt 0.2451172 0.2080078
vt 0.1229858 0.1884766
vt 0.2451172 0.2192383
vt 0.2131348 0.1917725
vt 0.1906738 0.2161865
vt 0.2131348 0.1917725
vt 0.3540039 0.2141113
vt 0.3933105 0.185791
vt 0.2451172 0.2192383
vt 0.3933105 0.185791
vt 0.4084473 0.2060547
vt 0.4833984 0.1766357
vt 0.3540039 0.2141113
vt 0.3649902 0.1445313
vt 0.1740723 0.1466064
vt 0.2376709 0.1445313
vt 0.4284668 0.1466064
vt 0.2376709 0.1486816
vt 0.3649902 0.1486816
vt 0.4020996 0.4448242
vt 0.3557129 0.484375
vt 0.3254395 0.4406738
vt 0.4545898 0.4951172
vt 0.3254395 0.4406738
vt 0.1575928 0.4943848
vt 0.1722412 0.4477539
vt 0.3557129 0.484375
vt 0.1722412 0.4477539
vt 0.05856323 0.5151367
vt 0.09570313 0.4589844
vt 0.1575928 0.4943848
vt 0.09570313 0.4589844
vt 0.1575928 0.5258789
vt 0.1722412 0.4633789
vt 0.05856323 0.5151367
vt 0.1722412 0.4633789
vt 0.3557129 0.515625
vt 0.3254395 0.4562988
vt 0.1575928 0.5258789
vt 0.3254395 0.4562988
vt 0.4545898 0.4951172
vt 0.4020996 0.4448242
vt 0.3557129 0.515625
vt 0.3557129 0.484375
vt 0.3908691 0.5332031
vt 0.3347168 0.5292969
vt 0.4545898 0.4951172
vt 0.1575928 0.4943848
vt 0.3347168 0.5292969
vt 0.2225342 0.5400391
vt 0.3557129 0.484375
vt 0.05856323 0.5151367
vt 0.2225342 0.5400391
vt 0.1665039 0.5546875
vt 0.1575928 0.4943848
vt 0.05856323 0.5151367
vt 0.2225342 0.5585938
vt 0.1575928 0.5258789
vt 0.1665039 0.5546875
vt 0.1575928 0.5258789
vt 0.3347168 0.5473633
vt 0.3557129 0.515625
vt 0.2225342 0.5585938
vt 0.4545898 0.4951172
vt 0.3347168 0.5473633
vt 0.3908691 0.5332031
vt 0.3557129 0.515625
vt 0.2423096 0.8666992
vt 0.3605957 0.8442383
vt 0.3212891 0.855957
vt 0.2028809 0.8662109
vt 0.3212891 0.8432617
vt 0.2423096 0.8540039
vt 0.3659668 0.7915039
vt 0.3605957 0.8442383
vt 0.3212891 0.8432617
vt 0.4621582 0.7954102
vt 0.1734619 0.815918
vt 0.3212891 0.8432617
vt 0.2423096 0.8540039
vt 0.3659668 0.7915039
vt 0.07714844 0.84375
vt 0.2423096 0.8540039
vt 0.2028809 0.8662109
vt 0.1734619 0.815918
vt 0.2423096 0.8666992
vt 0.07714844 0.84375
vt 0.2028809 0.8662109
vt 0.1734619 0.847168
vt 0.3212891 0.855957
vt 0.1734619 0.847168
vt 0.2423096 0.8666992
vt 0.3659668 0.8227539
vt 0.3605957 0.8442383
vt 0.3659668 0.8227539
vt 0.3212891 0.855957
vt 0.4621582 0.7954102
vt 0.3369141 0.7519531
vt 0.4621582 0.7954102
vt 0.3659668 0.7915039
vt 0.4194336 0.7573242
vt 0.1717529 0.7680664
vt 0.3659668 0.7915039
vt 0.1734619 0.815918
vt 0.3369141 0.7519531
vt 0.08929443 0.7895508
vt 0.1734619 0.815918
vt 0.07714844 0.84375
vt 0.1717529 0.7680664
vt 0.1734619 0.847168
vt 0.08929443 0.7895508
vt 0.07714844 0.84375
vt 0.1717529 0.7949219
vt 0.3659668 0.8227539
vt 0.1717529 0.7949219
vt 0.1734619 0.847168
vt 0.3369141 0.7788086
vt 0.4621582 0.7954102
vt 0.3369141 0.7788086
vt 0.3659668 0.8227539
vt 0.4194336 0.7573242
vt 0.3896484 0.1519775
vt 0.253418 0.1755371
vt 0.2644043 0.1538086
vt 0.4306641 0.1783447
vt 0.2644043 0.1538086
vt 0.1193237 0.1806641
vt 0.170166 0.1538086
vt 0.253418 0.1755371
vt 0.170166 0.1538086
vt 0.1627197 0.1887207
vt 0.2009277 0.1519775
vt 0.1193237 0.1806641
vt 0.2009277 0.1519775
vt 0.3400879 0.1916504
vt 0.3259277 0.1501465
vt 0.1627197 0.1887207
vt 0.3259277 0.1501465
vt 0.4741211 0.1864014
vt 0.4204102 0.1501465
vt 0.3400879 0.1916504
vt 0.4204102 0.1501465
vt 0.4306641 0.1783447
vt 0.3896484 0.1519775
vt 0.4741211 0.1864014
vt 0.4306641 0.1783447
vt 0.2631836 0.2015381
vt 0.253418 0.1755371
vt 0.3703613 0.2042236
vt 0.253418 0.1755371
vt 0.1820068 0.2059326
vt 0.1193237 0.1806641
vt 0.2631836 0.2015381
vt 0.1193237 0.1806641
vt 0.2080078 0.2131348
vt 0.1627197 0.1887207
vt 0.1820068 0.2059326
vt 0.1627197 0.1887207
vt 0.3151855 0.2158203
vt 0.3400879 0.1916504
vt 0.2080078 0.2131348
vt 0.3400879 0.1916504
vt 0.3962402 0.2113037
vt 0.4741211 0.1864014
vt 0.3151855 0.2158203
vt 0.4741211 0.1864014
vt 0.3703613 0.2042236
vt 0.4306641 0.1783447
vt 0.3962402 0.2113037
vt 0.4204102 0.1501465
vt 0.2009277 0.1519775
vt 0.3259277 0.1501465
vt 0.3896484 0.1519775
vt 0.170166 0.1538086
vt 0.2644043 0.1538086
vt 0.3635254 0.4672852
vt 0.2624512 0.4897461
vt 0.2670898 0.4648438
vt 0.3859863 0.4956055
vt 0.2670898 0.4648438
vt 0.1676025 0.4951172
vt 0.1939697 0.4689941
vt 0.2624512 0.4897461
vt 0.1939697 0.4689941
vt 0.1964111 0.5068359
vt 0.2174072 0.4753418
vt 0.1676025 0.4951172
vt 0.2174072 0.4753418
vt 0.3198242 0.5126953
vt 0.3139648 0.4777832
vt 0.1964111 0.5068359
vt 0.3139648 0.4777832
vt 0.4147949 0.5073242
vt 0.3869629 0.4736328
vt 0.3198242 0.5126953
vt 0.3869629 0.4736328
vt 0.3859863 0.4956055
vt 0.3635254 0.4672852
vt 0.4147949 0.5073242
vt 0.2624512 0.4897461
vt 0.3527832 0.5170898
vt 0.2814941 0.5146484
vt 0.3859863 0.4956055
vt 0.1676025 0.4951172
vt 0.2814941 0.5146484
vt 0.2272949 0.5209961
vt 0.2624512 0.4897461
vt 0.1964111 0.5068359
vt 0.3156738 0.53125
vt 0.3198242 0.5126953
vt 0.2443848 0.5292969
vt 0.3198242 0.5126953
vt 0.369873 0.5249023
vt 0.4147949 0.5073242
vt 0.3156738 0.53125
vt 0.3859863 0.4956055
vt 0.369873 0.5249023
vt 0.3527832 0.5170898
vt 0.4147949 0.5073242
vt 0.3527832 0.5170898
vt 0.2272949 0.5209961
vt 0.2814941 0.5146484
vt 0.2443848 0.5292969
vt 0.369873 0.5249023
vt 0.3156738 0.53125
vt 0.3562012 0.1541748
vt 0.4208984 0.1708984
vt 0.3706055 0.1553955
vt 0.4003906 0.1729736
vt 0.3706055 0.1553955
vt 0.2749023 0.1745605
vt 0.2670898 0.1553955
vt 0.4208984 0.1708984
vt 0.2670898 0.1553955
vt 0.1082153 0.1802979
vt 0.1494141 0.1541748
vt 0.2749023 0.1745605
vt 0.1494141 0.1541748
vt 0.08764648 0.182373
vt 0.1350098 0.152832
vt 0.1082153 0.1802979
vt 0.1350098 0.152832
vt 0.2337646 0.1785889
vt 0.2382813 0.152832
vt 0.08764648 0.182373
vt 0.2382813 0.152832
vt 0.4003906 0.1729736
vt 0.3562012 0.1541748
vt 0.2337646 0.1785889
vt 0.4003906 0.1729736
vt 0.355957 0.1894531
vt 0.4208984 0.1708984
vt 0.3435059 0.1912842
vt 0.4208984 0.1708984
vt 0.2678223 0.1925049
vt 0.2749023 0.1745605
vt 0.355957 0.1894531
vt 0.2749023 0.1745605
vt 0.1673584 0.1976318
vt 0.1082153 0.1802979
vt 0.2678223 0.1925049
vt 0.1082153 0.1802979
vt 0.1549072 0.1994629
vt 0.08764648 0.182373
vt 0.1673584 0.1976318
vt 0.08764648 0.182373
vt 0.2429199 0.1964111
vt 0.2337646 0.1785889
vt 0.1549072 0.1994629
vt 0.2337646 0.1785889
vt 0.3435059 0.1912842
vt 0.4003906 0.1729736
vt 0.2429199 0.1964111
vt 0.2382813 0.152832
vt 0.1494141 0.1541748
vt 0.1350098 0.152832
vt 0.3562012 0.1541748
vt 0.2670898 0.1553955
vt 0.3706055 0.1553955
vt 0.2666016 0.4758301
vt 0.3095703 0.4914551
vt 0.277832 0.4741211
vt 0.2961426 0.4958496
vt 0.277832 0.4741211
vt 0.2072754 0.4956055
vt 0.1984863 0.4768066
vt 0.3095703 0.4914551
vt 0.1984863 0.4768066
vt 0.09161377 0.5039063
vt 0.1079712 0.4814453
vt 0.2072754 0.4956055
vt 0.1079712 0.4814453
vt 0.07818604 0.5078125
vt 0.09680176 0.4831543
vt 0.09161377 0.5039063
vt 0.09680176 0.4831543
vt 0.1804199 0.5039063
vt 0.1760254 0.4802246
vt 0.07818604 0.5078125
vt 0.1760254 0.4802246
vt 0.2961426 0.4958496
vt 0.2666016 0.4758301
vt 0.1804199 0.5039063
vt 0.3095703 0.4914551
vt 0.265625 0.5107422
vt 0.2741699 0.5097656
vt 0.2961426 0.4958496
vt 0.2072754 0.4956055
vt 0.2741699 0.5097656
vt 0.2166748 0.5136719
vt 0.3095703 0.4914551
vt 0.09161377 0.5039063
vt 0.2166748 0.5136719
vt 0.1503906 0.5195313
vt 0.2072754 0.4956055
vt 0.09161377 0.5039063
vt 0.1417236 0.5209961
vt 0.07818604 0.5078125
vt 0.1503906 0.5195313
vt 0.07818604 0.5078125
vt 0.1993408 0.5166016
vt 0.1804199 0.5039063
vt 0.1417236 0.5209961
vt 0.2961426 0.4958496
vt 0.1993408 0.5166016
vt 0.265625 0.5107422
vt 0.1804199 0.5039063
vt 0.265625 0.5107422
vt 0.2166748 0.5136719
vt 0.2741699 0.5097656
vt 0.1503906 0.5195313
vt 0.1993408 0.5166016
vt 0.1417236 0.5209961
vt 0.3833008 0.1602783
vt 0.4335938 0.1806641
vt 0.3945313 0.1618652
vt 0.4174805 0.1832275
vt 0.3945313 0.1618652
vt 0.3203125 0.1851807
vt 0.3144531 0.1618652
vt 0.4335938 0.1806641
vt 0.3144531 0.1618652
vt 0.1911621 0.1922607
vt 0.2230225 0.1602783
vt 0.3203125 0.1851807
vt 0.2230225 0.1602783
vt 0.1751709 0.1947021
vt 0.2119141 0.1586914
vt 0.1911621 0.1922607
vt 0.2119141 0.1586914
vt 0.2883301 0.1901855
vt 0.2919922 0.1586914
vt 0.1751709 0.1947021
vt 0.2919922 0.1586914
vt 0.4174805 0.1832275
vt 0.3833008 0.1602783
vt 0.2883301 0.1901855
vt 0.4174805 0.1832275
vt 0.3830566 0.2032471
vt 0.4335938 0.1806641
vt 0.3735352 0.2055664
vt 0.4335938 0.1806641
vt 0.3149414 0.2071533
vt 0.3203125 0.1851807
vt 0.3830566 0.2032471
vt 0.3203125 0.1851807
vt 0.2369385 0.2132568
vt 0.1911621 0.1922607
vt 0.3149414 0.2071533
vt 0.1911621 0.1922607
vt 0.2272949 0.2155762
vt 0.1751709 0.1947021
vt 0.2369385 0.2132568
vt 0.1751709 0.1947021
vt 0.2956543 0.211792
vt 0.2883301 0.1901855
vt 0.2272949 0.2155762
vt 0.2883301 0.1901855
vt 0.3735352 0.2055664
vt 0.4174805 0.1832275
vt 0.2956543 0.211792
vt 0.2919922 0.1586914
vt 0.2230225 0.1602783
vt 0.2119141 0.1586914
vt 0.3833008 0.1602783
vt 0.3144531 0.1618652
vt 0.3945313 0.1618652
vt 0.2956543 0.211792
vt 0.3830566 0.2032471
vt 0.3735352 0.2055664
vt 0.3149414 0.2071533
vt 0.2272949 0.2155762
vt 0.2369385 0.2132568

g Tree_11_Green_(4)_391_74
usemtl Tree_11_Green_(4)_391_74
usemap Tree_11_Green_(4)_391_74
f 1/1/1 3/3/3 2/2/2
f 4/4/4 6/6/6 5/5/5
f 7/7/7 9/9/9 8/8/8
f 10/10/10 12/12/12 11/11/11
f 13/13/13 15/15/15 14/14/14
f 16/16/16 18/18/18 17/17/17
f 19/19/19 21/21/21 20/20/20
f 22/22/22 24/24/24 23/23/23
f 25/25/25 27/27/27 26/26/26
f 28/28/28 30/30/30 29/29/29
f 31/31/31 33/33/33 32/32/32
f 34/34/34 36/36/36 35/35/35
f 37/37/37 39/39/39 38/38/38
f 40/40/40 42/42/42 41/41/41
f 43/43/43 45/45/45 44/44/44
f 46/46/46 48/48/48 47/47/47
f 49/49/49 51/51/51 50/50/50
f 52/52/52 54/54/54 53/53/53
f 55/55/55 57/57/57 56/56/56
f 58/58/58 60/60/60 59/59/59
f 61/61/61 63/63/63 62/62/62
f 64/64/64 66/66/66 65/65/65
f 67/67/67 69/69/69 68/68/68
f 70/70/70 72/72/72 71/71/71
f 71/71/71 73/73/73 70/70/70
f 74/74/74 76/76/76 75/75/75
f 75/75/75 77/77/77 74/74/74
f 78/78/78 80/80/80 79/79/79
f 79/79/79 81/81/81 78/78/78
f 82/82/82 84/84/84 83/83/83
f 83/83/83 85/85/85 82/82/82
f 86/86/86 88/88/88 87/87/87
f 87/87/87 89/89/89 86/86/86
f 90/90/90 92/92/92 91/91/91
f 91/91/91 93/93/93 90/90/90
f 94/94/94 96/96/96 95/95/95
f 95/95/95 97/97/97 94/94/94
f 98/98/98 100/100/100 99/99/99
f 99/99/99 101/101/101 98/98/98
f 102/102/102 104/104/104 103/103/103
f 103/103/103 105/105/105 102/102/102
f 106/106/106 102/102/102 105/105/105
f 105/105/105 107/107/107 106/106/106
f 108/108/108 110/110/110 109/109/109
f 109/109/109 111/111/111 108/108/108
f 112/112/112 114/114/114 113/113/113
f 113/113/113 115/115/115 112/112/112
f 116/116/116 118/118/118 117/117/117
f 117/117/117 119/119/119 116/116/116
f 119/119/119 117/117/117 120/120/120
f 120/120/120 121/121/121 119/119/119
f 122/122/122 124/124/124 123/123/123
f 123/123/123 125/125/125 122/122/122
f 126/126/126 128/128/128 127/127/127
f 127/127/127 129/129/129 126/126/126
f 130/130/130 132/132/132 131/131/131
f 131/131/131 133/133/133 130/130/130
f 134/134/134 136/136/136 135/135/135
f 135/135/135 137/137/137 134/134/134
f 138/138/138 140/140/140 139/139/139
f 139/139/139 141/141/141 138/138/138
f 138/138/138 141/141/141 142/142/142
f 143/143/143 145/145/145 144/144/144
f 144/144/144 146/146/146 143/143/143
f 147/147/147 149/149/149 148/148/148
f 148/148/148 150/150/150 147/147/147
f 151/151/151 153/153/153 152/152/152
f 152/152/152 154/154/154 151/151/151
f 155/155/155 157/157/157 156/156/156
f 156/156/156 157/157/157 158/158/158
f 159/159/159 161/161/161 160/160/160
f 160/160/160 161/161/161 162/162/162
f 163/163/163 165/165/165 164/164/164
f 164/164/164 166/166/166 163/163/163
f 167/167/167 169/169/169 168/168/168
f 168/168/168 170/170/170 167/167/167
f 171/171/171 173/173/173 172/172/172
f 172/172/172 174/174/174 171/171/171
f 175/175/175 177/177/177 176/176/176
f 176/176/176 178/178/178 175/175/175
f 179/179/179 181/181/181 180/180/180
f 180/180/180 182/182/182 179/179/179
f 182/182/182 180/180/180 183/183/183
f 184/184/184 186/186/186 185/185/185
f 185/185/185 187/187/187 184/184/184
f 188/188/188 190/190/190 189/189/189
f 189/189/189 191/191/191 188/188/188
f 192/192/192 194/194/194 193/193/193
f 193/193/193 195/195/195 192/192/192
f 196/196/196 198/198/198 197/197/197
f 197/197/197 199/199/199 196/196/196
f 200/200/200 202/202/202 201/201/201
f 201/201/201 203/203/203 200/200/200
f 204/204/204 206/206/206 205/205/205
f 205/205/205 207/207/207 204/204/204
f 208/208/208 210/210/210 209/209/209
f 209/209/209 211/211/211 208/208/208
f 212/212/212 214/214/214 213/213/213
f 213/213/213 215/215/215 212/212/212
f 216/216/216 218/218/218 217/217/217
f 217/217/217 219/219/219 216/216/216
f 220/220/220 222/222/222 221/221/221
f 221/221/221 223/223/223 220/220/220
f 224/224/224 226/226/226 225/225/225
f 225/225/225 227/227/227 224/224/224
f 228/228/228 230/230/230 229/229/229
f 229/229/229 231/231/231 228/228/228
f 232/232/232 234/234/234 233/233/233
f 233/233/233 235/235/235 232/232/232
f 235/235/235 233/233/233 236/236/236
f 236/236/236 237/237/237 235/235/235
f 238/238/238 240/240/240 239/239/239
f 239/239/239 241/241/241 238/238/238
f 242/242/242 244/244/244 243/243/243
f 243/243/243 245/245/245 242/242/242
f 246/246/246 248/248/248 247/247/247
f 247/247/247 249/249/249 246/246/246
f 250/250/250 252/252/252 251/251/251
f 251/251/251 253/253/253 250/250/250
f 254/254/254 256/256/256 255/255/255
f 255/255/255 257/257/257 254/254/254
f 258/258/258 260/260/260 259/259/259
f 259/259/259 261/261/261 258/258/258
f 262/262/262 264/264/264 263/263/263
f 263/263/263 265/265/265 262/262/262
f 266/266/266 268/268/268 267/267/267
f 267/267/267 269/269/269 266/266/266
f 270/270/270 272/272/272 271/271/271
f 271/271/271 273/273/273 270/270/270
f 274/274/274 276/276/276 275/275/275
f 275/275/275 277/277/277 274/274/274
f 278/278/278 280/280/280 279/279/279
f 279/279/279 281/281/281 278/278/278
f 282/282/282 284/284/284 283/283/283
f 283/283/283 285/285/285 282/282/282
f 286/286/286 288/288/288 287/287/287
f 287/287/287 289/289/289 286/286/286
f 289/289/289 287/287/287 290/290/290
f 290/290/290 291/291/291 289/289/289
f 292/292/292 294/294/294 293/293/293
f 293/293/293 295/295/295 292/292/292
f 296/296/296 298/298/298 297/297/297
f 297/297/297 299/299/299 296/296/296
f 300/300/300 302/302/302 301/301/301
f 301/301/301 303/303/303 300/300/300
f 304/304/304 306/306/306 305/305/305
f 305/305/305 307/307/307 304/304/304
f 308/308/308 310/310/310 309/309/309
f 309/309/309 311/311/311 308/308/308
f 312/312/312 314/314/314 313/313/313
f 313/313/313 315/315/315 312/312/312
f 316/316/316 318/318/318 317/317/317
f 317/317/317 319/319/319 316/316/316
f 320/320/320 322/322/322 321/321/321
f 321/321/321 323/323/323 320/320/320
f 324/324/324 326/326/326 325/325/325
f 325/325/325 327/327/327 324/324/324
f 328/328/328 330/330/330 329/329/329
f 329/329/329 331/331/331 328/328/328
f 332/332/332 334/334/334 333/333/333
f 333/333/333 335/335/335 332/332/332
f 336/336/336 338/338/338 337/337/337
f 337/337/337 339/339/339 336/336/336
f 340/340/340 342/342/342 341/341/341
f 341/341/341 343/343/343 340/340/340
f 344/344/344 346/346/346 345/345/345
f 345/345/345 347/347/347 344/344/344
f 348/348/348 350/350/350 349/349/349
f 349/349/349 351/351/351 348/348/348
f 352/352/352 354/354/354 353/353/353
f 353/353/353 355/355/355 352/352/352
f 356/356/356 358/358/358 357/357/357
f 357/357/357 359/359/359 356/356/356
f 360/360/360 362/362/362 361/361/361
f 361/361/361 363/363/363 360/360/360
f 364/364/364 366/366/366 365/365/365
f 365/365/365 367/367/367 364/364/364
f 368/368/368 370/370/370 369/369/369
f 369/369/369 371/371/371 368/368/368
f 372/372/372 374/374/374 373/373/373
f 373/373/373 375/375/375 372/372/372
f 376/376/376 378/378/378 377/377/377
f 377/377/377 379/379/379 376/376/376
f 380/380/380 382/382/382 381/381/381
f 381/381/381 383/383/383 380/380/380
f 384/384/384 386/386/386 385/385/385
f 385/385/385 387/387/387 384/384/384
f 388/388/388 390/390/390 389/389/389
f 389/389/389 391/391/391 388/388/388
f 391/391/391 389/389/389 392/392/392
f 392/392/392 393/393/393 391/391/391
f 394/394/394 396/396/396 395/395/395
f 395/395/395 397/397/397 394/394/394
f 398/398/398 400/400/400 399/399/399
f 399/399/399 401/401/401 398/398/398
f 402/402/402 404/404/404 403/403/403
f 403/403/403 405/405/405 402/402/402
f 406/406/406 408/408/408 407/407/407
f 407/407/407 409/409/409 406/406/406
f 410/410/410 412/412/412 411/411/411
f 411/411/411 413/413/413 410/410/410
f 414/414/414 416/416/416 415/415/415
f 415/415/415 417/417/417 414/414/414
f 418/418/418 420/420/420 419/419/419
f 419/419/419 421/421/421 418/418/418
f 422/422/422 424/424/424 423/423/423
f 423/423/423 425/425/425 422/422/422
f 426/426/426 428/428/428 427/427/427
f 427/427/427 429/429/429 426/426/426
f 430/430/430 432/432/432 431/431/431
f 431/431/431 433/433/433 430/430/430
f 434/434/434 436/436/436 435/435/435
f 435/435/435 437/437/437 434/434/434
f 438/438/438 440/440/440 439/439/439
f 439/439/439 441/441/441 438/438/438
f 442/442/442 438/438/438 441/441/441
f 441/441/441 443/443/443 442/442/442
f 444/444/444 446/446/446 445/445/445
f 445/445/445 447/447/447 444/444/444
f 448/448/448 450/450/450 449/449/449
f 449/449/449 451/451/451 448/448/448
f 452/452/452 454/454/454 453/453/453
f 453/453/453 455/455/455 452/452/452
f 456/456/456 458/458/458 457/457/457
f 457/457/457 459/459/459 456/456/456
f 460/460/460 462/462/462 461/461/461
f 461/461/461 463/463/463 460/460/460
f 464/464/464 466/466/466 465/465/465
f 465/465/465 467/467/467 464/464/464
f 468/468/468 470/470/470 469/469/469
f 469/469/469 471/471/471 468/468/468
f 472/472/472 474/474/474 473/473/473
f 473/473/473 475/475/475 472/472/472
f 476/476/476 478/478/478 477/477/477
f 477/477/477 479/479/479 476/476/476
f 480/480/480 482/482/482 481/481/481
f 481/481/481 483/483/483 480/480/480
f 484/484/484 486/486/486 485/485/485
f 485/485/485 487/487/487 484/484/484
f 488/488/488 490/490/490 489/489/489
f 489/489/489 491/491/491 488/488/488
f 492/492/492 494/494/494 493/493/493
f 493/493/493 495/495/495 492/492/492
f 495/495/495 493/493/493 496/496/496
f 496/496/496 497/497/497 495/495/495
f 498/498/498 500/500/500 499/499/499
f 499/499/499 501/501/501 498/498/498
f 502/502/502 504/504/504 503/503/503
f 503/503/503 505/505/505 502/502/502
f 506/506/506 508/508/508 507/507/507
f 507/507/507 509/509/509 506/506/506
f 510/510/510 512/512/512 511/511/511
f 511/511/511 513/513/513 510/510/510
f 514/514/514 516/516/516 515/515/515
f 515/515/515 517/517/517 514/514/514
f 518/518/518 520/520/520 519/519/519
f 519/519/519 521/521/521 518/518/518
f 522/522/522 524/524/524 523/523/523
f 523/523/523 525/525/525 522/522/522
f 526/526/526 528/528/528 527/527/527
f 527/527/527 529/529/529 526/526/526
f 530/530/530 532/532/532 531/531/531
f 531/531/531 533/533/533 530/530/530
f 534/534/534 536/536/536 535/535/535
f 535/535/535 537/537/537 534/534/534
f 538/538/538 540/540/540 539/539/539
f 539/539/539 541/541/541 538/538/538
f 542/542/542 544/544/544 543/543/543
f 543/543/543 545/545/545 542/542/542
f 546/546/546 548/548/548 547/547/547
f 547/547/547 549/549/549 546/546/546
f 550/550/550 546/546/546 549/549/549
f 549/549/549 551/551/551 550/550/550
f 552/552/552 554/554/554 553/553/553
f 553/553/553 555/555/555 552/552/552
f 556/556/556 558/558/558 557/557/557
f 557/557/557 559/559/559 556/556/556
f 560/560/560 562/562/562 561/561/561
f 561/561/561 563/563/563 560/560/560
f 564/564/564 566/566/566 565/565/565
f 565/565/565 567/567/567 564/564/564
f 568/568/568 570/570/570 569/569/569
f 569/569/569 571/571/571 568/568/568
f 572/572/572 574/574/574 573/573/573
f 573/573/573 575/575/575 572/572/572
f 576/576/576 578/578/578 577/577/577
f 577/577/577 579/579/579 576/576/576
f 580/580/580 582/582/582 581/581/581
f 581/581/581 583/583/583 580/580/580
f 584/584/584 586/586/586 585/585/585
f 585/585/585 587/587/587 584/584/584
f 588/588/588 590/590/590 589/589/589
f 589/589/589 591/591/591 588/588/588
f 592/592/592 594/594/594 593/593/593
f 593/593/593 595/595/595 592/592/592
f 596/596/596 598/598/598 597/597/597
f 597/597/597 599/599/599 596/596/596
f 600/600/600 602/602/602 601/601/601
f 601/601/601 603/603/603 600/600/600
f 603/603/603 601/601/601 604/604/604
f 604/604/604 605/605/605 603/603/603
f 606/606/606 608/608/608 607/607/607
f 607/607/607 609/609/609 606/606/606
f 610/610/610 606/606/606 609/609/609
f 609/609/609 611/611/611 610/610/610
