#Tree_05_Snow_(6)_490_13.obj

v 0.1163945 0.2441139 1.991904
v 0.2509178 0.001149146 -1.369443E-10
v 0.2272217 0.02934918 2.006984
v 0.2509178 0.001149146 -1.369443E-10
v 0.1163945 0.2441139 1.991904
v 0.1256631 0.2422845 -2.88826E-08
v -0.1063405 0.244355 1.976622
v 0.1256631 0.2422845 -2.88826E-08
v 0.1163945 0.2441139 1.991904
v 0.1256631 0.2422845 -2.88826E-08
v -0.1063405 0.244355 1.976622
v -0.12484 0.2422845 -2.88826E-08
v -0.1074276 -0.184934 1.991498
v -0.2500947 0.001148361 -1.369415E-10
v -0.2182547 0.02983146 1.976419
v -0.2500947 0.001148361 -1.369415E-10
v -0.1074276 -0.184934 1.991498
v -0.12484 -0.239987 2.860871E-08
v 0.1153075 -0.1851752 2.006781
v -0.12484 -0.239987 2.860871E-08
v -0.1074276 -0.184934 1.991498
v -0.12484 -0.239987 2.860871E-08
v 0.1153075 -0.1851752 2.006781
v 0.1256631 -0.239987 2.860871E-08
v 0.1763293 0.5030983 3.703263
v 0.3931073 0.09925074 3.809926
v -0.1296345 0.1250857 4.66319
v -0.3324625 0.503583 3.744579
v 0.1763293 0.5030983 3.703263
v -0.1296345 0.1250857 4.66319
v -0.568381 0.1002208 3.732934
v -0.3324625 0.503583 3.744579
v -0.1296345 0.1250857 4.66319
v -0.3134101 -0.3168314 3.760822
v -0.568381 0.1002208 3.732934
v -0.1296345 0.1250857 4.66319
v 0.168594 -0.3323162 3.738746
v -0.3134101 -0.3168314 3.760822
v -0.1296345 0.1250857 4.66319
v 0.3931073 0.09925074 3.809926
v 0.168594 -0.3323162 3.738746
v -0.1296345 0.1250857 4.66319
v -0.2182547 0.02983146 1.976419
v -0.12484 0.2422845 -2.88826E-08
v -0.1063405 0.244355 1.976622
v -0.2500947 0.001148361 -1.369415E-10
v 0.2272217 0.02934918 2.006984
v 0.1256631 -0.239987 2.860871E-08
v 0.1153075 -0.1851752 2.006781
v 0.2509178 0.001149146 -1.369443E-10
v 0.5064731 0.869588 2.058247
v 1.069582 0.02212755 1.816283
v 1.022108 0.02934918 1.934492
v 0.5465134 0.9340604 1.757039
v -0.4874332 0.870529 1.8787
v 0.5465134 0.9340604 1.757039
v 0.5064731 0.869588 2.058247
v -0.5047325 0.9350846 1.696998
v -0.9396898 0.03123039 1.888362
v -0.5047325 0.9350846 1.696998
v -0.4874332 0.870529 1.8787
v -1.032916 0.02417527 1.6962
v -0.4872259 -0.8065432 1.876352
v -1.032916 0.02417527 1.6962
v -0.9396898 0.03123039 1.888362
v -0.5098475 -0.8877568 1.755444
v 0.5414047 -0.8887802 1.815485
v -0.4872259 -0.8065432 1.876352
v 0.5433966 -0.8074834 1.845948
v -0.5098475 -0.8877568 1.755444
v 1.022108 0.02934918 1.934492
v 0.5414047 -0.8887802 1.815485
v 0.5433966 -0.8074834 1.845948
v 1.069582 0.02212755 1.816283
v -0.5098475 -0.8877568 1.755444
v -0.5047325 0.9350846 1.696998
v -1.032916 0.02417527 1.6962
v 0.5414047 -0.8887802 1.815485
v 0.5465134 0.9340604 1.757039
v 1.069582 0.02212755 1.816283
v 0.4105448 0.09077863 3.640432
v 0.1378348 0.4430835 3.65656
v 0.1715976 0.5073689 3.613368
v 0.320693 0.09837258 3.759382
v -0.3086344 0.5078363 3.585939
v 0.1378348 0.4430835 3.65656
v -0.3027842 0.4435021 3.70177
v 0.1715976 0.5073689 3.613368
v -0.5499192 0.09171335 3.585575
v -0.3027842 0.4435021 3.70177
v -0.504456 0.09920989 3.690178
v -0.3086344 0.5078363 3.585939
v -0.3109719 -0.3248769 3.612639
v -0.504456 0.09920989 3.690178
v -0.2833987 -0.2587056 3.714223
v -0.5499192 0.09171335 3.585575
v 0.16926 -0.3253443 3.640067
v -0.2833987 -0.2587056 3.714223
v 0.1304325 -0.2741244 3.688255
v -0.3109719 -0.3248769 3.612639
v 0.16926 -0.3253443 3.640067
v 0.320693 0.09837258 3.759382
v 0.4105448 0.09077863 3.640432
v 0.1304325 -0.2741244 3.688255
v 0.1120713 0.4088604 3.691657
v 0.7458853 0.08300795 3.011615
v 0.2942194 0.09129468 3.712287
v 0.3857176 0.7188527 2.918578
v 0.1120713 0.4088604 3.691657
v -0.4109721 0.7220708 2.9101
v 0.3857176 0.7188527 2.918578
v -0.2540095 0.4092171 3.670748
v -0.2540095 0.4092171 3.670748
v -0.8453953 0.08446421 2.806598
v -0.4109721 0.7220708 2.9101
v -0.4379421 0.09200711 3.67047
v -0.4379421 0.09200711 3.67047
v -0.4298297 -0.5643333 2.906268
v -0.8453953 0.08446421 2.806598
v -0.2557878 -0.2255587 3.691101
v -0.2557878 -0.2255587 3.691101
v 0.3673312 -0.5650619 2.973642
v -0.4298297 -0.5643333 2.906268
v 0.110293 -0.2259153 3.712009
v 0.2942194 0.09129468 3.712287
v 0.3673312 -0.5650619 2.973642
v 0.110293 -0.2259153 3.712009
v 0.7458853 0.08300795 3.011615
v 0.7105579 0.06711077 2.802415
v 0.3327956 0.6427616 2.866311
v 0.342969 0.7079684 2.760782
v 0.6481724 0.0791882 2.954274
v 0.342969 0.7079684 2.760782
v -0.3738664 0.6458988 2.862976
v -0.3957905 0.7086879 2.718589
v 0.3327956 0.6427616 2.866311
v -0.3957905 0.7086879 2.718589
v -0.7630526 0.08048265 2.759542
v -0.7669674 0.06854976 2.718028
v -0.3738664 0.6458988 2.862976
v -0.7669674 0.06854976 2.718028
v -0.3922842 -0.4960432 2.854138
v -0.3993848 -0.5723078 2.759661
v -0.7630526 0.08048265 2.759542
v -0.3993848 -0.5723078 2.759661
v 0.3148428 -0.4966904 2.91637
v 0.3393809 -0.5730274 2.801854
v -0.3922842 -0.4960432 2.854138
v 0.3393809 -0.5730274 2.801854
v 0.6481724 0.0791882 2.954274
v 0.7105579 0.06711077 2.802415
v 0.3148428 -0.4966904 2.91637
v 0.6481724 0.0791882 2.954274
v 0.3857176 0.7188527 2.918578
v 0.3327956 0.6427616 2.866311
v 0.7458853 0.08300795 3.011615
v 0.3327956 0.6427616 2.866311
v -0.4109721 0.7220708 2.9101
v -0.3738664 0.6458988 2.862976
v 0.3857176 0.7188527 2.918578
v -0.4109721 0.7220708 2.9101
v -0.7630526 0.08048265 2.759542
v -0.3738664 0.6458988 2.862976
v -0.8453953 0.08446421 2.806598
v -0.8453953 0.08446421 2.806598
v -0.3922842 -0.4960432 2.854138
v -0.7630526 0.08048265 2.759542
v -0.4298297 -0.5643333 2.906268
v -0.3922842 -0.4960432 2.854138
v 0.3673312 -0.5650619 2.973642
v 0.3148428 -0.4966904 2.91637
v -0.4298297 -0.5643333 2.906268
v 0.3148428 -0.4966904 2.91637
v 0.7458853 0.08300795 3.011615
v 0.6481724 0.0791882 2.954274
v 0.3673312 -0.5650619 2.973642
v 0.1378348 0.4430835 3.65656
v 0.3931073 0.09925074 3.809926
v 0.1763293 0.5030983 3.703263
v 0.320693 0.09837258 3.759382
v -0.3027842 0.4435021 3.70177
v 0.1763293 0.5030983 3.703263
v -0.3324625 0.503583 3.744579
v 0.1378348 0.4430835 3.65656
v -0.504456 0.09920989 3.690178
v -0.3324625 0.503583 3.744579
v -0.568381 0.1002208 3.732934
v -0.3027842 0.4435021 3.70177
v -0.2833987 -0.2587056 3.714223
v -0.568381 0.1002208 3.732934
v -0.3134101 -0.3168314 3.760822
v -0.504456 0.09920989 3.690178
v 0.1304325 -0.2741244 3.688255
v -0.3134101 -0.3168314 3.760822
v 0.168594 -0.3323162 3.738746
v -0.2833987 -0.2587056 3.714223
v 0.1304325 -0.2741244 3.688255
v 0.3931073 0.09925074 3.809926
v 0.320693 0.09837258 3.759382
v 0.168594 -0.3323162 3.738746
v 0.3034126 0.6216088 2.831227
v 1.117521 0.03620636 2.006296
v 0.6214789 0.06708249 2.867251
v 0.5592066 0.9479805 2.125217
v -0.3358306 0.6222309 2.794716
v 0.5592066 0.9479805 2.125217
v 0.3034126 0.6216088 2.831227
v -0.5204734 0.9490008 1.940771
v -0.6570075 0.06832747 2.794231
v -0.5204734 0.9490008 1.940771
v -0.3358306 0.6222309 2.794716
v -1.01583 0.0382478 1.950368
v -0.520687 -0.8710607 1.943192
v -0.6570075 0.06832747 2.794231
v -0.3389411 -0.4861985 2.830255
v -1.01583 0.0382478 1.950368
v 0.5957154 -0.8720815 1.917687
v -0.3389411 -0.4861985 2.830255
v 0.3003021 -0.4868209 2.866766
v -0.520687 -0.8710607 1.943192
v 0.6214789 0.06708249 2.867251
v 0.5957154 -0.8720815 1.917687
v 0.3003021 -0.4868209 2.866766
v 1.117521 0.03620636 2.006296
v 0.5592066 0.9479805 2.125217
v 1.022108 0.02934918 1.934492
v 1.117521 0.03620636 2.006296
v 0.5064731 0.869588 2.058247
v -0.5204734 0.9490008 1.940771
v 0.5064731 0.869588 2.058247
v 0.5592066 0.9479805 2.125217
v -0.4874332 0.870529 1.8787
v -1.01583 0.0382478 1.950368
v -0.4874332 0.870529 1.8787
v -0.5204734 0.9490008 1.940771
v -0.9396898 0.03123039 1.888362
v -0.520687 -0.8710607 1.943192
v -0.9396898 0.03123039 1.888362
v -1.01583 0.0382478 1.950368
v -0.4872259 -0.8065432 1.876352
v 0.5433966 -0.8074834 1.845948
v -0.520687 -0.8710607 1.943192
v 0.5957154 -0.8720815 1.917687
v -0.4872259 -0.8065432 1.876352
v 1.117521 0.03620636 2.006296
v 0.5433966 -0.8074834 1.845948
v 0.5957154 -0.8720815 1.917687
v 1.022108 0.02934918 1.934492

vn 0.8886719 0.004043579 -0.4587402
vn 0.8886719 0.004043579 -0.4587402
vn 0.8886719 0.004043579 -0.4587402
vn 0.887207 0.003705978 -0.4609375
vn 0.887207 0.003705978 -0.4609375
vn 0.887207 0.003705978 -0.4609375
vn 0.001144409 -0.0009131432 -1
vn 0.001144409 -0.0009131432 -1
vn 0.001144409 -0.0009131432 -1
vn 0 -0.001047134 -1
vn 0 -0.001047134 -1
vn 0 -0.001047134 -1
vn -0.8891602 0.02096558 0.4572754
vn -0.8891602 0.02096558 0.4572754
vn -0.8891602 0.02096558 0.4572754
vn -0.887207 0.02049255 0.4609375
vn -0.887207 0.02049255 0.4609375
vn -0.887207 0.02049255 0.4609375
vn -0.002979279 0.02766418 0.9995117
vn -0.002979279 0.02766418 0.9995117
vn -0.002979279 0.02766418 0.9995117
vn 0 0.02729797 0.9995117
vn 0 0.02729797 0.9995117
vn 0 0.02729797 0.9995117
vn 0.7392578 0.4372559 -0.512207
vn 0.7392578 0.4372559 -0.512207
vn -0.07458496 0.9960938 -0.05102539
vn 0.03131104 0.3747559 -0.9267578
vn 0.03131104 0.3747559 -0.9267578
vn -0.02558899 0.9995117 -0.0173645
vn -0.8071289 0.3684082 -0.4614258
vn -0.8071289 0.3684082 -0.4614258
vn -0.07458496 0.9960938 -0.05102539
vn -0.7973633 0.3884277 0.4616699
vn -0.7973633 0.3884277 0.4616699
vn -0.02558899 0.9995117 -0.0173645
vn -0.008621216 0.4411621 0.8974609
vn -0.008621216 0.4411621 0.8974609
vn -0.07458496 0.9960938 -0.05102539
vn 0.7475586 0.472168 0.4667969
vn 0.7475586 0.472168 0.4667969
vn -0.02558899 0.9995117 -0.0173645
vn -0.8867188 0.0078125 -0.4624023
vn -0.8867188 0.0078125 -0.4624023
vn -0.8867188 0.0078125 -0.4624023
vn -0.887207 0.007606506 -0.4609375
vn 0.8862305 0.01721191 0.4624023
vn 0.8862305 0.01721191 0.4624023
vn 0.8862305 0.01721191 0.4624023
vn 0.887207 0.01695251 0.4609375
vn 0.8398438 0.2243652 -0.4941406
vn 0.8334961 0.2868652 -0.4719238
vn 0.8310547 0.3054199 -0.4650879
vn 0.840332 0.2178955 -0.4960938
vn -0.02124023 0.3149414 -0.9487305
vn -0.03387451 0.2210693 -0.9746094
vn -0.03604126 0.2045898 -0.9780273
vn -0.01829529 0.3361816 -0.9414063
vn -0.8085938 0.3598633 -0.465332
vn -0.8457031 0.2651367 -0.4631348
vn -0.8520508 0.2453613 -0.4621582
vn -0.8032227 0.3725586 -0.465332
vn -0.7939453 0.4318848 0.4279785
vn -0.8012695 0.4082031 0.4377441
vn -0.8017578 0.4052734 0.4389648
vn -0.7929688 0.4348145 0.4265137
vn 0.02246094 0.9169922 0.3977051
vn -0.03018188 0.5849609 0.8105469
vn 0.02728271 0.9360352 0.3513184
vn -0.03286743 0.5615234 0.8266602
vn 0.8027344 0.3688965 0.4682617
vn 0.5092773 0.7783203 0.3674316
vn 0.4165039 0.8481445 0.3278809
vn 0.809082 0.3535156 0.4694824
vn 0.0569458 -0.9980469 0.03216553
vn 0.0569458 -0.9980469 0.03216553
vn 0.0569458 -0.9980469 0.03216553
vn 0.0569458 -0.9980469 0.03216553
vn 0.0569458 -0.9980469 0.03216553
vn 0.0569458 -0.9980469 0.03216553
vn 0.675293 0.5444336 -0.4978027
vn 0.5014648 0.7905273 -0.3520508
vn 0.4584961 0.8300781 -0.3168945
vn 0.6982422 0.4943848 -0.5180664
vn 0.03964233 0.5273438 -0.8486328
vn -0.03283691 0.7802734 -0.6245117
vn 0.05038452 0.4829102 -0.8740234
vn -0.04614258 0.8178711 -0.5737305
vn -0.8217773 0.3198242 -0.4716797
vn -0.8232422 0.3088379 -0.4763184
vn -0.8212891 0.3232422 -0.4702148
vn -0.8237305 0.3066406 -0.4772949
vn -0.7680664 0.4692383 0.4360352
vn -0.8041992 0.3994141 0.4399414
vn -0.7568359 0.4885254 0.4345703
vn -0.8115234 0.3842773 0.4404297
vn 0.008491516 0.6967773 0.7172852
vn -0.02787781 0.5688477 0.8222656
vn 0.02098083 0.7358398 0.6767578
vn -0.03231812 0.5517578 0.8334961
vn 0.534668 0.7441406 0.4006348
vn 0.6938477 0.5893555 0.4138184
vn 0.7133789 0.5654297 0.4140625
vn 0.4682617 0.7924805 0.390625
vn 0.7460938 0.46875 -0.4729004
vn 0.7446289 0.463623 -0.4807129
vn 0.7485352 0.4770508 -0.4604492
vn 0.7426758 0.4584961 -0.487793
vn -0.01112366 0.378418 -0.9257813
vn -0.00579071 0.3752441 -0.9267578
vn -0.0002105236 0.3720703 -0.9282227
vn -0.02102661 0.3840332 -0.9228516
vn -0.7998047 0.3696289 -0.4731445
vn -0.7978516 0.3664551 -0.4785156
vn -0.7963867 0.3632813 -0.4836426
vn -0.8022461 0.3742676 -0.4648438
vn -0.8100586 0.3769531 0.4489746
vn -0.8066406 0.3803711 0.4526367
vn -0.8037109 0.3830566 0.4558105
vn -0.8154297 0.3723145 0.4433594
vn -0.02932739 0.4067383 0.9130859
vn -0.03204346 0.404541 0.9140625
vn -0.03485107 0.4025879 0.9145508
vn -0.02432251 0.4101563 0.9116211
vn 0.7543945 0.4763184 0.4519043
vn 0.7485352 0.4802246 0.4570313
vn 0.7636719 0.4694824 0.4431152
vn 0.7426758 0.484375 0.4621582
vn 0.8115234 0.3037109 -0.4990234
vn 0.7963867 0.3642578 -0.4824219
vn 0.7939453 0.3730469 -0.4797363
vn 0.8134766 0.2944336 -0.5014648
vn -0.001987457 0.5087891 -0.8608398
vn -0.01972961 0.4143066 -0.9101563
vn -0.02203369 0.4016113 -0.9155273
vn 0.00129509 0.5258789 -0.8505859
vn -0.809082 0.3193359 -0.4936523
vn -0.8637695 -0.01957703 -0.503418
vn -0.8632813 -0.0625 -0.5004883
vn -0.8032227 0.3356934 -0.4916992
vn -0.8344727 0.2403564 0.4958496
vn -0.8037109 0.404541 0.4360352
vn -0.8022461 0.4101563 0.4335938
vn -0.8359375 0.2229004 0.5009766
vn -0.05307007 0.6196289 0.7832031
vn -0.03457642 0.5576172 0.8291016
vn -0.03219604 0.5498047 0.8349609
vn -0.05612183 0.6298828 0.7749023
vn 0.7612305 0.4516602 0.4658203
vn 0.7993164 0.3786621 0.4667969
vn 0.8041992 0.3676758 0.4667969
vn 0.75 0.4707031 0.4650879
vn 0.4992676 -0.8520508 -0.1573486
vn 0.5424805 -0.8212891 -0.1767578
vn 0.5483398 -0.8168945 -0.1794434
vn 0.4953613 -0.8544922 -0.1555176
vn 0.01080322 -0.8291016 -0.559082
vn 0.006847382 -0.8466797 -0.5317383
vn 0.006351471 -0.8491211 -0.5283203
vn 0.01107788 -0.8276367 -0.5610352
vn -0.3342285 -0.8598633 -0.3852539
vn -0.4274902 -0.7993164 -0.4221191
vn -0.3215332 -0.8671875 -0.3798828
vn -0.4335938 -0.7949219 -0.4245605
vn -0.4599609 -0.7807617 0.4228516
vn -0.4216309 -0.815918 0.3959961
vn -0.4643555 -0.7763672 0.4260254
vn -0.4189453 -0.8178711 0.394043
vn 0.06518555 -0.7763672 0.6269531
vn 0.06854248 -0.7885742 0.6113281
vn 0.06896973 -0.7900391 0.6088867
vn 0.06500244 -0.7758789 0.6279297
vn 0.5307617 -0.8061523 0.2619629
vn 0.503418 -0.8305664 0.237793
vn 0.4987793 -0.8344727 0.2337646
vn 0.5332031 -0.8037109 0.2641602
vn 0.6474609 -0.7475586 -0.1470947
vn 0.5864258 -0.8066406 -0.07550049
vn 0.6542969 -0.7397461 -0.1558838
vn 0.5708008 -0.8188477 -0.05856323
vn -0.06762695 -0.8227539 -0.5639648
vn -0.07623291 -0.7709961 -0.6318359
vn -0.06671143 -0.8276367 -0.5571289
vn -0.07757568 -0.762207 -0.6425781
vn -0.5200195 -0.7885742 -0.3273926
vn -0.5063477 -0.7993164 -0.322998
vn -0.5214844 -0.7875977 -0.3278809
vn -0.5039063 -0.8012695 -0.3222656
vn -0.5097656 -0.7797852 0.3640137
vn -0.5185547 -0.7700195 0.3713379
vn -0.5087891 -0.7807617 0.3632813
vn -0.5200195 -0.7685547 0.3728027
vn -0.05679321 -0.7412109 0.6689453
vn -0.06994629 -0.7875977 0.6118164
vn -0.0553894 -0.7358398 0.6748047
vn -0.07232666 -0.7958984 0.6010742
vn 0.6381836 -0.7412109 0.2073975
vn 0.5810547 -0.800293 0.1480713
vn 0.5683594 -0.8115234 0.1352539
vn 0.6445313 -0.7338867 0.2142334
vn 0.7753906 0.4523926 -0.4406738
vn 0.7753906 0.4543457 -0.4384766
vn 0.7719727 0.4277344 -0.470459
vn 0.7773438 0.4731445 -0.4143066
vn -0.04598999 0.3867188 -0.9208984
vn -0.04644775 0.3862305 -0.9213867
vn -0.02268982 0.4125977 -0.9106445
vn -0.06204224 0.3684082 -0.9277344
vn -0.8183594 0.3439941 -0.4604492
vn -0.8193359 0.3427734 -0.4592285
vn -0.809082 0.354248 -0.46875
vn -0.8261719 0.3352051 -0.4528809
vn -0.8178711 0.3625488 0.4470215
vn -0.8178711 0.3623047 0.4470215
vn -0.8188477 0.3613281 0.4460449
vn -0.8168945 0.3632813 0.4477539
vn -0.003124237 0.3867188 0.9223633
vn -0.006286621 0.3840332 0.9233398
vn -0.02204895 0.3701172 0.9287109
vn 0.008224487 0.3964844 0.9179688
vn 0.7680664 0.4394531 0.4655762
vn 0.7646484 0.442627 0.4685059
vn 0.7817383 0.4274902 0.4536133
vn 0.7539063 0.451416 0.4772949
vn 0.451416 -0.8007813 -0.3937988
vn 0.5224609 -0.7436523 -0.4174805
vn 0.5263672 -0.7397461 -0.4189453
vn 0.4433594 -0.8066406 -0.3908691
vn 0.1358643 -0.7519531 -0.6450195
vn 0.1365967 -0.7944336 -0.5917969
vn 0.1367188 -0.796875 -0.5888672
vn 0.1358643 -0.7485352 -0.6494141
vn -0.5854492 -0.75 -0.3071289
vn -0.6040039 -0.7294922 -0.3208008
vn -0.6049805 -0.7285156 -0.3212891
vn -0.5839844 -0.7519531 -0.3061523
vn -0.6572266 -0.6699219 0.3457031
vn -0.6166992 -0.7148438 0.329834
vn -0.6142578 -0.7172852 0.3288574
vn -0.6606445 -0.6655273 0.347168
vn -0.01605225 -0.6640625 0.7475586
vn -0.02088928 -0.6972656 0.7167969
vn -0.01582336 -0.6625977 0.7485352
vn -0.02130127 -0.699707 0.7138672
vn 0.5961914 -0.7587891 0.2617188
vn 0.6269531 -0.7231445 0.2893066
vn 0.6289063 -0.7207031 0.2910156
vn 0.5927734 -0.7626953 0.2583008

vt 0.1713867 0.5908203
vt 0.1856689 0.4040527
vt 0.1806641 0.5908203
vt 0.1856689 0.4040527
vt 0.1713867 0.5908203
vt 0.1738281 0.4040527
vt 0.1525879 0.5908203
vt 0.1738281 0.4040527
vt 0.1713867 0.5908203
vt 0.1738281 0.4040527
vt 0.1525879 0.5908203
vt 0.1501465 0.4040527
vt 0.1525879 0.5908203
vt 0.1383057 0.4040527
vt 0.1433105 0.5908203
vt 0.1383057 0.4040527
vt 0.1525879 0.5908203
vt 0.1501465 0.4040527
vt 0.1713867 0.5908203
vt 0.1501465 0.4040527
vt 0.1525879 0.5908203
vt 0.1501465 0.4040527
vt 0.1713867 0.5908203
vt 0.1738281 0.4040527
vt 0.8349609 0.4621582
vt 0.8378906 0.4621582
vt 0.8320313 0.4758301
vt 0.8286133 0.4621582
vt 0.8349609 0.4621582
vt 0.8320313 0.4758301
vt 0.8256836 0.4621582
vt 0.8286133 0.4621582
vt 0.8320313 0.4758301
vt 0.8286133 0.4621582
vt 0.8256836 0.4621582
vt 0.8320313 0.4758301
vt 0.8349609 0.4621582
vt 0.8286133 0.4621582
vt 0.8320313 0.4758301
vt 0.8378906 0.4621582
vt 0.8349609 0.4621582
vt 0.8320313 0.4758301
vt 0.1433105 0.5908203
vt 0.1501465 0.4040527
vt 0.1525879 0.5908203
vt 0.1383057 0.4040527
vt 0.1806641 0.5908203
vt 0.1738281 0.4040527
vt 0.1713867 0.5908203
vt 0.1856689 0.4040527
vt 0.5214844 0.4714355
vt 0.5424805 0.4631348
vt 0.5400391 0.4714355
vt 0.5224609 0.4631348
vt 0.484375 0.4714355
vt 0.5224609 0.4631348
vt 0.5214844 0.4714355
vt 0.4829102 0.4631348
vt 0.4658203 0.4714355
vt 0.4829102 0.4631348
vt 0.484375 0.4714355
vt 0.4631348 0.4631348
vt 0.484375 0.4714355
vt 0.4631348 0.4631348
vt 0.4658203 0.4714355
vt 0.4829102 0.4631348
vt 0.5224609 0.4631348
vt 0.484375 0.4714355
vt 0.5214844 0.4714355
vt 0.4829102 0.4631348
vt 0.5400391 0.4714355
vt 0.5224609 0.4631348
vt 0.5214844 0.4714355
vt 0.5424805 0.4631348
vt 0.4829102 0.4631348
vt 0.4829102 0.4631348
vt 0.4631348 0.4631348
vt 0.5224609 0.4631348
vt 0.5224609 0.4631348
vt 0.5424805 0.4631348
vt 0.5405273 0.4631348
vt 0.5224609 0.4909668
vt 0.5283203 0.4631348
vt 0.5283203 0.4909668
vt 0.5039063 0.4631348
vt 0.5224609 0.4909668
vt 0.5102539 0.4909668
vt 0.5283203 0.4631348
vt 0.4916992 0.4631348
vt 0.5102539 0.4909668
vt 0.5039063 0.4909668
vt 0.5039063 0.4631348
vt 0.5039063 0.4631348
vt 0.5039063 0.4909668
vt 0.5102539 0.4909668
vt 0.4916992 0.4631348
vt 0.5283203 0.4631348
vt 0.5102539 0.4909668
vt 0.5224609 0.4909668
vt 0.5039063 0.4631348
vt 0.5283203 0.4631348
vt 0.5283203 0.4909668
vt 0.5405273 0.4631348
vt 0.5224609 0.4909668
vt 0.8330078 0.4719238
vt 0.8461914 0.4619141
vt 0.8422852 0.4719238
vt 0.8349609 0.4619141
vt 0.8330078 0.4719238
vt 0.8125 0.4619141
vt 0.8349609 0.4619141
vt 0.8144531 0.4719238
vt 0.8144531 0.4719238
vt 0.8017578 0.4619141
vt 0.8125 0.4619141
vt 0.8051758 0.4719238
vt 0.8051758 0.4719238
vt 0.8125 0.4619141
vt 0.8017578 0.4619141
vt 0.8144531 0.4719238
vt 0.8144531 0.4719238
vt 0.8349609 0.4619141
vt 0.8125 0.4619141
vt 0.8330078 0.4719238
vt 0.8422852 0.4719238
vt 0.8349609 0.4619141
vt 0.8330078 0.4719238
vt 0.8461914 0.4619141
vt 0.5361328 0.4619141
vt 0.515625 0.4814453
vt 0.5195313 0.4619141
vt 0.5288086 0.4814453
vt 0.5195313 0.4619141
vt 0.4899902 0.4814453
vt 0.4863281 0.4619141
vt 0.515625 0.4814453
vt 0.4863281 0.4619141
vt 0.4768066 0.4814453
vt 0.4697266 0.4619141
vt 0.4899902 0.4814453
vt 0.4697266 0.4619141
vt 0.4899902 0.4814453
vt 0.4863281 0.4619141
vt 0.4768066 0.4814453
vt 0.4863281 0.4619141
vt 0.515625 0.4814453
vt 0.5195313 0.4619141
vt 0.4899902 0.4814453
vt 0.5195313 0.4619141
vt 0.5288086 0.4814453
vt 0.5361328 0.4619141
vt 0.515625 0.4814453
vt 0.8496094 0.4521484
vt 0.8349609 0.4619141
vt 0.8369141 0.4521484
vt 0.8461914 0.4619141
vt 0.8369141 0.4521484
vt 0.8125 0.4619141
vt 0.8110352 0.4521484
vt 0.8349609 0.4619141
vt 0.8125 0.4619141
vt 0.7978516 0.4521484
vt 0.8110352 0.4521484
vt 0.8017578 0.4619141
vt 0.8017578 0.4619141
vt 0.8110352 0.4521484
vt 0.7978516 0.4521484
vt 0.8125 0.4619141
vt 0.8110352 0.4521484
vt 0.8349609 0.4619141
vt 0.8369141 0.4521484
vt 0.8125 0.4619141
vt 0.8369141 0.4521484
vt 0.8461914 0.4619141
vt 0.8496094 0.4521484
vt 0.8349609 0.4619141
vt 0.8378906 0.4482422
vt 0.8378906 0.4621582
vt 0.8349609 0.4621582
vt 0.8442383 0.4482422
vt 0.8256836 0.4482422
vt 0.8349609 0.4621582
vt 0.8286133 0.4621582
vt 0.8378906 0.4482422
vt 0.8198242 0.4482422
vt 0.8286133 0.4621582
vt 0.8256836 0.4621582
vt 0.8256836 0.4482422
vt 0.8256836 0.4482422
vt 0.8256836 0.4621582
vt 0.8286133 0.4621582
vt 0.8198242 0.4482422
vt 0.8378906 0.4482422
vt 0.8286133 0.4621582
vt 0.8349609 0.4621582
vt 0.8256836 0.4482422
vt 0.8378906 0.4482422
vt 0.8378906 0.4621582
vt 0.8442383 0.4482422
vt 0.8349609 0.4621582
vt 0.84375 0.4912109
vt 0.8632813 0.4746094
vt 0.8579102 0.4912109
vt 0.8461914 0.4746094
vt 0.8149414 0.4912109
vt 0.8461914 0.4746094
vt 0.84375 0.4912109
vt 0.8120117 0.4746094
vt 0.800293 0.4912109
vt 0.8120117 0.4746094
vt 0.8149414 0.4912109
vt 0.7949219 0.4746094
vt 0.8120117 0.4746094
vt 0.800293 0.4912109
vt 0.8149414 0.4912109
vt 0.7949219 0.4746094
vt 0.8461914 0.4746094
vt 0.8149414 0.4912109
vt 0.84375 0.4912109
vt 0.8120117 0.4746094
vt 0.8579102 0.4912109
vt 0.8461914 0.4746094
vt 0.84375 0.4912109
vt 0.8632813 0.4746094
vt 0.8461914 0.4746094
vt 0.8662109 0.4663086
vt 0.8632813 0.4746094
vt 0.8476563 0.4663086
vt 0.8120117 0.4746094
vt 0.8476563 0.4663086
vt 0.8461914 0.4746094
vt 0.8105469 0.4663086
vt 0.7949219 0.4746094
vt 0.8105469 0.4663086
vt 0.8120117 0.4746094
vt 0.7919922 0.4663086
vt 0.8120117 0.4746094
vt 0.7919922 0.4663086
vt 0.7949219 0.4746094
vt 0.8105469 0.4663086
vt 0.8476563 0.4663086
vt 0.8120117 0.4746094
vt 0.8461914 0.4746094
vt 0.8105469 0.4663086
vt 0.8632813 0.4746094
vt 0.8476563 0.4663086
vt 0.8461914 0.4746094
vt 0.8662109 0.4663086

g Tree_05_Snow_(6)_490_13
usemtl Tree_05_Snow_(6)_490_13
usemap Tree_05_Snow_(6)_490_13
f 1/1/1 3/3/3 2/2/2
f 4/4/4 6/6/6 5/5/5
f 7/7/7 9/9/9 8/8/8
f 10/10/10 12/12/12 11/11/11
f 13/13/13 15/15/15 14/14/14
f 16/16/16 18/18/18 17/17/17
f 19/19/19 21/21/21 20/20/20
f 22/22/22 24/24/24 23/23/23
f 25/25/25 27/27/27 26/26/26
f 28/28/28 30/30/30 29/29/29
f 31/31/31 33/33/33 32/32/32
f 34/34/34 36/36/36 35/35/35
f 37/37/37 39/39/39 38/38/38
f 40/40/40 42/42/42 41/41/41
f 43/43/43 45/45/45 44/44/44
f 44/44/44 46/46/46 43/43/43
f 47/47/47 49/49/49 48/48/48
f 48/48/48 50/50/50 47/47/47
f 51/51/51 53/53/53 52/52/52
f 52/52/52 54/54/54 51/51/51
f 55/55/55 57/57/57 56/56/56
f 56/56/56 58/58/58 55/55/55
f 59/59/59 61/61/61 60/60/60
f 60/60/60 62/62/62 59/59/59
f 63/63/63 65/65/65 64/64/64
f 64/64/64 66/66/66 63/63/63
f 67/67/67 69/69/69 68/68/68
f 68/68/68 70/70/70 67/67/67
f 71/71/71 73/73/73 72/72/72
f 72/72/72 74/74/74 71/71/71
f 75/75/75 77/77/77 76/76/76
f 76/76/76 78/78/78 75/75/75
f 78/78/78 76/76/76 79/79/79
f 79/79/79 80/80/80 78/78/78
f 81/81/81 83/83/83 82/82/82
f 82/82/82 84/84/84 81/81/81
f 85/85/85 87/87/87 86/86/86
f 86/86/86 88/88/88 85/85/85
f 89/89/89 91/91/91 90/90/90
f 90/90/90 92/92/92 89/89/89
f 93/93/93 95/95/95 94/94/94
f 94/94/94 96/96/96 93/93/93
f 97/97/97 99/99/99 98/98/98
f 98/98/98 100/100/100 97/97/97
f 101/101/101 103/103/103 102/102/102
f 102/102/102 104/104/104 101/101/101
f 105/105/105 107/107/107 106/106/106
f 106/106/106 108/108/108 105/105/105
f 109/109/109 111/111/111 110/110/110
f 110/110/110 112/112/112 109/109/109
f 113/113/113 115/115/115 114/114/114
f 114/114/114 116/116/116 113/113/113
f 117/117/117 119/119/119 118/118/118
f 118/118/118 120/120/120 117/117/117
f 121/121/121 123/123/123 122/122/122
f 122/122/122 124/124/124 121/121/121
f 125/125/125 127/127/127 126/126/126
f 126/126/126 128/128/128 125/125/125
f 129/129/129 131/131/131 130/130/130
f 130/130/130 132/132/132 129/129/129
f 133/133/133 135/135/135 134/134/134
f 134/134/134 136/136/136 133/133/133
f 137/137/137 139/139/139 138/138/138
f 138/138/138 140/140/140 137/137/137
f 141/141/141 143/143/143 142/142/142
f 142/142/142 144/144/144 141/141/141
f 145/145/145 147/147/147 146/146/146
f 146/146/146 148/148/148 145/145/145
f 149/149/149 151/151/151 150/150/150
f 150/150/150 152/152/152 149/149/149
f 153/153/153 155/155/155 154/154/154
f 154/154/154 156/156/156 153/153/153
f 157/157/157 159/159/159 158/158/158
f 158/158/158 160/160/160 157/157/157
f 161/161/161 163/163/163 162/162/162
f 162/162/162 164/164/164 161/161/161
f 165/165/165 167/167/167 166/166/166
f 166/166/166 168/168/168 165/165/165
f 169/169/169 171/171/171 170/170/170
f 170/170/170 172/172/172 169/169/169
f 173/173/173 175/175/175 174/174/174
f 174/174/174 176/176/176 173/173/173
f 177/177/177 179/179/179 178/178/178
f 178/178/178 180/180/180 177/177/177
f 181/181/181 183/183/183 182/182/182
f 182/182/182 184/184/184 181/181/181
f 185/185/185 187/187/187 186/186/186
f 186/186/186 188/188/188 185/185/185
f 189/189/189 191/191/191 190/190/190
f 190/190/190 192/192/192 189/189/189
f 193/193/193 195/195/195 194/194/194
f 194/194/194 196/196/196 193/193/193
f 197/197/197 199/199/199 198/198/198
f 198/198/198 200/200/200 197/197/197
f 201/201/201 203/203/203 202/202/202
f 202/202/202 204/204/204 201/201/201
f 205/205/205 207/207/207 206/206/206
f 206/206/206 208/208/208 205/205/205
f 209/209/209 211/211/211 210/210/210
f 210/210/210 212/212/212 209/209/209
f 213/213/213 215/215/215 214/214/214
f 214/214/214 216/216/216 213/213/213
f 217/217/217 219/219/219 218/218/218
f 218/218/218 220/220/220 217/217/217
f 221/221/221 223/223/223 222/222/222
f 222/222/222 224/224/224 221/221/221
f 225/225/225 227/227/227 226/226/226
f 226/226/226 228/228/228 225/225/225
f 229/229/229 231/231/231 230/230/230
f 230/230/230 232/232/232 229/229/229
f 233/233/233 235/235/235 234/234/234
f 234/234/234 236/236/236 233/233/233
f 237/237/237 239/239/239 238/238/238
f 238/238/238 240/240/240 237/237/237
f 241/241/241 243/243/243 242/242/242
f 242/242/242 244/244/244 241/241/241
f 245/245/245 247/247/247 246/246/246
f 246/246/246 248/248/248 245/245/245
