#Tree_11_Green_(6)_390_80.obj

v 0.4705245 -0.9927493 2.322839
v -0.4689705 -0.6828642 1.996823
v 0.3423221 -1.194254 2.308598
v -0.4689705 -0.6828642 1.996823
v 0.4705245 -0.9927493 2.322839
v -0.3802484 -0.4090938 2.008124
v -0.506601 -0.6773478 2.158554
v 0.3469507 -1.070821 2.513241
v 0.3026711 -1.179141 2.440279
v 0.3469507 -1.070821 2.513241
v -0.506601 -0.6773478 2.158554
v -0.4810525 -0.5376971 2.24507
v 0.3423221 -1.194254 2.308598
v 1.016736 -1.427727 3.076959
v 0.4705245 -0.9927493 2.322839
v 0.4308797 -0.9776304 2.45452
v 1.016736 -1.427727 3.076959
v 0.3469507 -1.070821 2.513241
v 0.3469507 -1.070821 2.513241
v 1.016736 -1.427727 3.076959
v 0.3026711 -1.179141 2.440279
v 0.3026711 -1.179141 2.440279
v 1.016736 -1.427727 3.076959
v 0.3423221 -1.194254 2.308598
v -2.003537 -1.153201 2.857601
v -0.5814055 -0.4835599 2.31834
v -0.5148394 -0.5837914 2.257299
v -2.032963 -1.05577 2.905256
v -0.6676158 -0.4071298 2.248128
v -0.5814055 -0.4835599 2.31834
v -2.030697 -1.174376 2.750734
v -0.6872626 -0.4309384 2.116875
v -2.116709 -1.000673 2.739177
v -0.6872626 -0.4309384 2.116875
v -2.030697 -1.174376 2.750734
v -0.5344837 -0.6075928 2.126046
v -2.030697 -1.174376 2.750734
v -2.709462 -1.308464 3.199427
v -2.003537 -1.153201 2.857601
v -2.089551 -0.9795051 2.846044
v -2.709462 -1.308464 3.199427
v -2.116709 -1.000673 2.739177
v -2.116709 -1.000673 2.739177
v -2.709462 -1.308464 3.199427
v -2.030697 -1.174376 2.750734
v -0.3056233 0.7596353 2.322839
v -0.3927374 -0.4057496 1.996823
v -0.08653367 0.6645446 2.308598
v -0.3927374 -0.4057496 1.996823
v -0.3056233 0.7596353 2.322839
v -0.6770205 -0.3609648 2.008124
v -0.08653367 0.6645446 2.308598
v 0.1460947 1.307534 3.142406
v -0.3056233 0.7596353 2.322839
v -0.3056233 0.7596353 2.322839
v 0.1460947 1.307534 3.142406
v -0.3143527 0.7181078 2.45452
v -0.3143527 0.7181078 2.45452
v 0.1460947 1.307534 3.142406
v -0.2091708 0.6497981 2.513241
v -0.2091708 0.6497981 2.513241
v 0.1460947 1.307534 3.142406
v -0.0952631 0.6230172 2.440279
v 0.2363493 -2.033751 3.316548
v 0.4636502 -1.123093 3.420956
v 0.5894349 -1.644964 3.480939
v 0.4636502 -1.123093 3.420956
v 0.2363493 -2.033751 3.316548
v 0.02514219 -1.123947 3.231409
v 0.3523206 -5.66807E-07 -1.041173E-22
v -0.3794144 -0.2444679 1.406414
v 0.1761608 0.3051201 5.60478E-17
v -0.2440773 -0.4699017 1.379011
v -0.1761598 0.3051206 5.604791E-17
v -0.3794144 -0.2444679 1.406414
v -0.643149 -0.2497609 1.421011
v 0.1761608 0.3051201 5.60478E-17
v -0.3523206 5.66807E-07 1.041173E-22
v -0.643149 -0.2497609 1.421011
v -0.7715562 -0.4804923 1.408205
v -0.1761598 0.3051206 5.604791E-17
v -0.1761608 -0.3051201 -5.60478E-17
v -0.7715562 -0.4804923 1.408205
v -0.636219 -0.7059261 1.380802
v -0.3523206 5.66807E-07 1.041173E-22
v -0.1761608 -0.3051201 -5.60478E-17
v -0.3724808 -0.7006344 1.366205
v 0.1761598 -0.3051206 -5.604791E-17
v -0.636219 -0.7059261 1.380802
v 0.1761598 -0.3051206 -5.604791E-17
v -0.2440773 -0.4699017 1.379011
v 0.3523206 -5.66807E-07 -1.041173E-22
v -0.3724808 -0.7006344 1.366205
v -0.4711719 -0.3458546 3.217022
v -0.2440773 -0.4699017 1.379011
v -0.3600461 -0.5347161 3.225298
v -0.3794144 -0.2444679 1.406414
v -0.643149 -0.2497609 1.421011
v -0.4711719 -0.3458546 3.217022
v -0.6899577 -0.3465235 3.240083
v -0.3794144 -0.2444679 1.406414
v -0.6899577 -0.3465235 3.240083
v -0.7715562 -0.4804923 1.408205
v -0.643149 -0.2497609 1.421011
v -0.7976213 -0.5360527 3.27142
v -0.295144 0.2124273 5.118436
v -0.3820628 0.05955714 5.133761
v -0.636219 -0.7059261 1.380802
v -0.7976213 -0.5360527 3.27142
v -0.686493 -0.724907 3.279696
v -0.7715562 -0.4804923 1.408205
v -0.4677036 -0.7242394 3.256635
v -0.636219 -0.7059261 1.380802
v -0.686493 -0.724907 3.279696
v -0.3724808 -0.7006344 1.366205
v -0.3724808 -0.7006344 1.366205
v -0.3600461 -0.5347161 3.225298
v -0.2440773 -0.4699017 1.379011
v -0.4677036 -0.7242394 3.256635
v -0.03439396 0.05955808 5.072458
v -0.1213102 -0.09330495 5.087784
v -0.1213082 0.2124314 5.087784
v -0.3600461 -0.5347161 3.225298
v -0.03439396 0.05955808 5.072458
v -0.4711719 -0.3458546 3.217022
v -0.6899577 -0.3465235 3.240083
v -0.1213082 0.2124314 5.087784
v -0.295144 0.2124273 5.118436
v -0.4711719 -0.3458546 3.217022
v -0.295146 -0.09330901 5.118436
v -0.7976213 -0.5360527 3.27142
v -0.3820628 0.05955714 5.133761
v -0.686493 -0.724907 3.279696
v -0.1213102 -0.09330495 5.087784
v -0.686493 -0.724907 3.279696
v -0.295146 -0.09330901 5.118436
v -0.4677036 -0.7242394 3.256635
v 0.4705245 -0.9927493 2.322839
v -0.4178762 -0.4035701 2.169855
v -0.3802484 -0.4090938 2.008124
v 0.4308797 -0.9776304 2.45452
v 1.016736 -1.427727 3.076959
v -0.4810525 -0.5376971 2.24507
v 0.4308797 -0.9776304 2.45452
v 0.3469507 -1.070821 2.513241
v -0.4178762 -0.4035701 2.169855
v 0.3423221 -1.194254 2.308598
v -0.506601 -0.6773478 2.158554
v 0.3026711 -1.179141 2.440279
v -0.4689705 -0.6828642 1.996823
v -0.5148394 -0.5837914 2.257299
v -2.030697 -1.174376 2.750734
v -2.003537 -1.153201 2.857601
v -0.5344837 -0.6075928 2.126046
v -0.5814055 -0.4835599 2.31834
v -2.003537 -1.153201 2.857601
v -2.032963 -1.05577 2.905256
v -2.709462 -1.308464 3.199427
v -0.6676158 -0.4071298 2.248128
v -2.032963 -1.05577 2.905256
v -2.089551 -0.9795051 2.846044
v -2.709462 -1.308464 3.199427
v -2.116709 -1.000673 2.739177
v -0.6676158 -0.4071298 2.248128
v -2.089551 -0.9795051 2.846044
v -0.6872626 -0.4309384 2.116875
v -0.6765798 -0.3989913 2.169855
v -0.3056233 0.7596353 2.322839
v -0.3143527 0.7181078 2.45452
v -0.6770205 -0.3609648 2.008124
v -0.5342191 -0.4404006 2.24507
v -0.3143527 0.7181078 2.45452
v -0.2091708 0.6497981 2.513241
v -0.6765798 -0.3989913 2.169855
v -0.3922992 -0.4437833 2.158554
v -0.2091708 0.6497981 2.513241
v -0.0952631 0.6230172 2.440279
v -0.5342191 -0.4404006 2.24507
v -0.3922992 -0.4437833 2.158554
v -0.08653367 0.6645446 2.308598
v -0.3927374 -0.4057496 1.996823
v -0.0952631 0.6230172 2.440279
v 0.1460947 1.307534 3.142406
v 0.7672665 -0.5090703 3.623911
v 0.4021713 0.9588233 3.901278
v 0.1087572 0.5293719 3.645487
v 1.334644 -0.513301 3.934942
v 0.1087572 0.5293719 3.645487
v -1.462775 0.9630508 3.962402
v -1.208259 0.5293705 3.645487
v 0.4021713 0.9588233 3.901278
v -1.208259 0.5293705 3.645487
v -2.395242 -0.5048398 4.057191
v -1.866767 -0.509073 3.623911
v -1.462775 0.9630508 3.962402
v -1.866767 -0.509073 3.623911
v -1.462773 -1.976963 4.090855
v -1.208258 -1.547515 3.602334
v -2.395242 -0.5048398 4.057191
v -1.208258 -1.547515 3.602334
v 0.4021705 -1.981197 4.029731
v 0.1087555 -1.547513 3.602334
v -1.462773 -1.976963 4.090855
v 0.1087555 -1.547513 3.602334
v 1.334644 -0.513301 3.934942
v 0.7672665 -0.5090703 3.623911
v 0.4021705 -1.981197 4.029731
v 1.334644 -0.513301 3.934942
v -0.005098211 0.4386707 4.207655
v 0.4021713 0.9588233 3.901278
v 0.5579273 -0.450746 4.239138
v 0.4021713 0.9588233 3.901278
v -1.131151 0.4440367 4.259824
v -1.462775 0.9630508 3.962402
v -0.005098211 0.4386707 4.207655
v -1.462775 0.9630508 3.962402
v -1.694176 -0.4400152 4.343475
v -2.395242 -0.5048398 4.057191
v -1.131151 0.4440367 4.259824
v -2.395242 -0.5048398 4.057191
v -1.13115 -1.329432 4.374958
v -1.462773 -1.976963 4.090855
v -1.694176 -0.4400152 4.343475
v -1.462773 -1.976963 4.090855
v -0.005096816 -1.334798 4.32279
v 0.4021705 -1.981197 4.029731
v -1.13115 -1.329432 4.374958
v 0.4021705 -1.981197 4.029731
v 0.5579273 -0.450746 4.239138
v 1.334644 -0.513301 3.934942
v -0.005096816 -1.334798 4.32279
v 0.1087555 -1.547513 3.602334
v -1.866767 -0.509073 3.623911
v -1.208258 -1.547515 3.602334
v 0.7672665 -0.5090703 3.623911
v -1.208259 0.5293705 3.645487
v 0.1087572 0.5293719 3.645487
v 0.5579273 -0.450746 4.239138
v 0.2171402 0.7188601 4.530315
v -0.005098211 0.4386707 4.207655
v 0.945244 -0.4128686 4.608937
v -0.005098211 0.4386707 4.207655
v -1.239071 0.7306264 4.603034
v -1.131151 0.4440367 4.259824
v 0.2171402 0.7188601 4.530315
v -1.131151 0.4440367 4.259824
v -1.967181 -0.3893434 4.754375
v -1.694176 -0.4400152 4.343475
v -1.239071 0.7306264 4.603034
v -1.694176 -0.4400152 4.343475
v -1.239074 -1.521073 4.832996
v -1.13115 -1.329432 4.374958
v -1.967181 -0.3893434 4.754375
v -1.13115 -1.329432 4.374958
v 0.2171399 -1.532833 4.760279
v -0.005096816 -1.334798 4.32279
v -1.239074 -1.521073 4.832996
v -0.005096816 -1.334798 4.32279
v 0.945244 -0.4128686 4.608937
v 0.5579273 -0.450746 4.239138
v 0.2171399 -1.532833 4.760279
v 0.2171402 0.7188601 4.530315
v 0.4765618 -0.3678893 4.887011
v 0.0639646 0.2919471 4.860178
v 0.945244 -0.4128686 4.608937
v -1.239071 0.7306264 4.603034
v 0.0639646 0.2919471 4.860178
v -0.7612298 0.3048492 4.939966
v 0.2171402 0.7188601 4.530315
v -1.967181 -0.3893434 4.754375
v -0.7612298 0.3048492 4.939966
v -1.173822 -0.3420708 5.046589
v -1.239071 0.7306264 4.603034
v -1.967181 -0.3893434 4.754375
v -0.7612281 -1.001906 5.073423
v -1.239074 -1.521073 4.832996
v -1.173822 -0.3420708 5.046589
v -1.239074 -1.521073 4.832996
v 0.06396629 -1.014808 4.993633
v 0.2171399 -1.532833 4.760279
v -0.7612281 -1.001906 5.073423
v 0.945244 -0.4128686 4.608937
v 0.06396629 -1.014808 4.993633
v 0.4765618 -0.3678893 4.887011
v 0.2171399 -1.532833 4.760279
v -0.4083397 -0.5977232 5.434424
v 0.183088 -0.2978001 5.320251
v -0.01405565 -0.6065823 5.379635
v -0.6054812 -0.2800733 5.429831
v -0.01405607 0.01984258 5.315658
v -0.4083412 0.02871018 5.370447
v 0.2097332 0.4376452 5.05858
v 0.183088 -0.2978001 5.320251
v -0.01405607 0.01984258 5.315658
v 0.6911578 -0.3373142 5.076014
v -0.753127 0.4572846 5.18
v -0.01405607 0.01984258 5.315658
v -0.4083412 0.02871018 5.370447
v 0.2097332 0.4376452 5.05858
v -1.234557 -0.2980295 5.318851
v -0.4083412 0.02871018 5.370447
v -0.6054812 -0.2800733 5.429831
v -0.753127 0.4572846 5.18
v -0.4083397 -0.5977232 5.434424
v -1.234557 -0.2980295 5.318851
v -0.6054812 -0.2800733 5.429831
v -0.7531259 -1.072983 5.336285
v -0.01405565 -0.6065823 5.379635
v -0.7531259 -1.072983 5.336285
v -0.4083397 -0.5977232 5.434424
v 0.2097318 -1.09263 5.214865
v 0.183088 -0.2978001 5.320251
v 0.2097318 -1.09263 5.214865
v -0.01405565 -0.6065823 5.379635
v 0.6911578 -0.3373142 5.076014
v 0.0639646 0.2919471 4.860178
v 0.6911578 -0.3373142 5.076014
v 0.2097332 0.4376452 5.05858
v 0.4765618 -0.3678893 4.887011
v -0.7612298 0.3048492 4.939966
v 0.2097332 0.4376452 5.05858
v -0.753127 0.4572846 5.18
v 0.0639646 0.2919471 4.860178
v -1.173822 -0.3420708 5.046589
v -0.753127 0.4572846 5.18
v -1.234557 -0.2980295 5.318851
v -0.7612298 0.3048492 4.939966
v -0.7531259 -1.072983 5.336285
v -1.173822 -0.3420708 5.046589
v -1.234557 -0.2980295 5.318851
v -0.7612281 -1.001906 5.073423
v 0.2097318 -1.09263 5.214865
v -0.7612281 -1.001906 5.073423
v -0.7531259 -1.072983 5.336285
v 0.06396629 -1.014808 4.993633
v 0.6911578 -0.3373142 5.076014
v 0.06396629 -1.014808 4.993633
v 0.2097318 -1.09263 5.214865
v 0.4765618 -0.3678893 4.887011
v 1.593859 -0.8388984 2.680583
v 0.6907494 -0.2526548 2.836622
v 0.7649908 -0.6080513 2.692721
v 1.865287 -0.5803831 2.85556
v 0.7649908 -0.6080513 2.692721
v -0.1966007 -1.107339 2.871009
v 0.1398261 -1.213163 2.692721
v 0.6907494 -0.2526548 2.836622
v 0.1398261 -1.213163 2.692721
v 0.09057677 -2.289757 2.924334
v 0.3435396 -2.049117 2.680583
v -0.1966007 -1.107339 2.871009
v 0.3435396 -2.049117 2.680583
v 1.265114 -2.617485 2.943272
v 1.172408 -2.279964 2.668446
v 0.09057677 -2.289757 2.924334
v 1.172408 -2.279964 2.668446
v 2.152464 -1.7628 2.908885
v 1.797569 -1.674851 2.668446
v 1.265114 -2.617485 2.943272
v 1.797569 -1.674851 2.668446
v 1.865287 -0.5803831 2.85556
v 1.593859 -0.8388984 2.680583
v 2.152464 -1.7628 2.908885
v 1.865287 -0.5803831 2.85556
v 0.7560344 -0.7069548 3.00898
v 0.6907494 -0.2526548 2.836622
v 1.465493 -0.9051228 3.026691
v 0.6907494 -0.2526548 2.836622
v 0.2188559 -1.221566 3.038329
v -0.1966007 -1.107339 2.871009
v 0.7560344 -0.7069548 3.00898
v -0.1966007 -1.107339 2.871009
v 0.3911321 -1.934345 3.085389
v 0.09057677 -2.289757 2.924334
v 0.2188559 -1.221566 3.038329
v 0.09057677 -2.289757 2.924334
v 1.100588 -2.13252 3.1031
v 1.265114 -2.617485 2.943272
v 0.3911321 -1.934345 3.085389
v 1.265114 -2.617485 2.943272
v 1.637769 -1.617901 3.073751
v 2.152464 -1.7628 2.908885
v 1.100588 -2.13252 3.1031
v 2.152464 -1.7628 2.908885
v 1.465493 -0.9051228 3.026691
v 1.865287 -0.5803831 2.85556
v 1.637769 -1.617901 3.073751
v 1.797569 -1.674851 2.668446
v 0.3435396 -2.049117 2.680583
v 1.172408 -2.279964 2.668446
v 1.593859 -0.8388984 2.680583
v 0.1398261 -1.213163 2.692721
v 0.7649908 -0.6080513 2.692721
v 1.465493 -0.9051228 3.026691
v 0.7222234 -0.4609235 3.190499
v 0.7560344 -0.7069548 3.00898
v 1.630513 -0.7077136 3.23473
v 0.7560344 -0.7069548 3.00898
v 0.02514219 -1.123947 3.231409
v 0.2188559 -1.221566 3.038329
v 0.7222234 -0.4609235 3.190499
v 0.2188559 -1.221566 3.038329
v 0.2363493 -2.033751 3.316548
v 0.3911321 -1.934345 3.085389
v 0.02514219 -1.123947 3.231409
v 0.3911321 -1.934345 3.085389
v 1.144635 -2.28054 3.360779
v 1.100588 -2.13252 3.1031
v 0.2363493 -2.033751 3.316548
v 1.100588 -2.13252 3.1031
v 1.84172 -1.617518 3.31987
v 1.637769 -1.617901 3.073751
v 1.144635 -2.28054 3.360779
v 1.637769 -1.617901 3.073751
v 1.630513 -0.7077136 3.23473
v 1.465493 -0.9051228 3.026691
v 1.84172 -1.617518 3.31987
v 0.7222234 -0.4609235 3.190499
v 1.385674 -0.8999468 3.391165
v 0.8617697 -0.7505847 3.37607
v 1.630513 -0.7077136 3.23473
v 0.02514219 -1.123947 3.231409
v 0.8617697 -0.7505847 3.37607
v 0.4636502 -1.123093 3.420956
v 0.7222234 -0.4609235 3.190499
v 0.2363493 -2.033751 3.316548
v 1.113338 -1.794317 3.496035
v 1.144635 -2.28054 3.360779
v 0.5894349 -1.644964 3.480939
v 1.144635 -2.28054 3.360779
v 1.511458 -1.421809 3.451148
v 1.84172 -1.617518 3.31987
v 1.113338 -1.794317 3.496035
v 1.630513 -0.7077136 3.23473
v 1.511458 -1.421809 3.451148
v 1.385674 -0.8999468 3.391165
v 1.84172 -1.617518 3.31987
v 1.385674 -0.8999468 3.391165
v 0.4636502 -1.123093 3.420956
v 0.8617697 -0.7505847 3.37607
v 0.5894349 -1.644964 3.480939
v 1.511458 -1.421809 3.451148
v 1.113338 -1.794317 3.496035
v -1.851506 -1.809238 2.975711
v -1.422367 -0.8414598 3.086739
v -1.755923 -0.9686554 2.984348
v -1.55841 -2.032688 3.100213
v -1.755923 -0.9686554 2.984348
v -2.389835 -0.1124557 3.111205
v -2.440403 -0.4555147 2.984348
v -1.422367 -0.8414598 3.086739
v -2.440403 -0.4555147 2.984348
v -3.493343 -0.5746726 3.149148
v -3.220466 -0.7829565 2.975711
v -2.389835 -0.1124557 3.111205
v -3.220466 -0.7829565 2.975711
v -3.629389 -1.765899 3.162622
v -3.316047 -1.62354 2.967074
v -3.493343 -0.5746726 3.149148
v -3.316047 -1.62354 2.967074
v -2.661922 -2.494904 3.138156
v -2.631567 -2.136681 2.967074
v -3.629389 -1.765899 3.162622
v -2.631567 -2.136681 2.967074
v -1.55841 -2.032688 3.100213
v -1.851506 -1.809238 2.975711
v -2.661922 -2.494904 3.138156
v -1.55841 -2.032688 3.100213
v -1.853337 -0.9753013 3.209376
v -1.422367 -0.8414598 3.086739
v -1.935714 -1.694877 3.221979
v -1.422367 -0.8414598 3.086739
v -2.436306 -0.5335486 3.230259
v -2.389835 -0.1124557 3.111205
v -1.853337 -0.9753013 3.209376
v -2.389835 -0.1124557 3.111205
v -3.101653 -0.8113719 3.263743
v -3.493343 -0.5746726 3.149148
v -2.436306 -0.5335486 3.230259
v -3.493343 -0.5746726 3.149148
v -3.184031 -1.530939 3.276346
v -3.629389 -1.765899 3.162622
v -3.101653 -0.8113719 3.263743
v -3.629389 -1.765899 3.162622
v -2.601058 -1.972693 3.255464
v -2.661922 -2.494904 3.138156
v -3.184031 -1.530939 3.276346
v -2.661922 -2.494904 3.138156
v -1.935714 -1.694877 3.221979
v -1.55841 -2.032688 3.100213
v -2.601058 -1.972693 3.255464
v -2.631567 -2.136681 2.967074
v -3.220466 -0.7829565 2.975711
v -3.316047 -1.62354 2.967074
v -1.851506 -1.809238 2.975711
v -2.440403 -0.4555147 2.984348
v -1.755923 -0.9686554 2.984348
v -1.935714 -1.694877 3.221979
v -1.619704 -0.9043187 3.338532
v -1.853337 -0.9753013 3.209376
v -1.718448 -1.824483 3.370005
v -1.853337 -0.9753013 3.209376
v -2.371569 -0.3303269 3.367641
v -2.436306 -0.5335486 3.230259
v -1.619704 -0.9043187 3.338532
v -2.436306 -0.5335486 3.230259
v -3.222174 -0.6765008 3.428221
v -3.101653 -0.8113719 3.263743
v -2.371569 -0.3303269 3.367641
v -3.101653 -0.8113719 3.263743
v -3.320914 -1.596666 3.459692
v -3.184031 -1.530939 3.276346
v -3.222174 -0.6765008 3.428221
v -3.184031 -1.530939 3.276346
v -2.569053 -2.170657 3.430584
v -2.601058 -1.972693 3.255464
v -3.320914 -1.596666 3.459692
v -2.601058 -1.972693 3.255464
v -1.718448 -1.824483 3.370005
v -1.935714 -1.694877 3.221979
v -2.569053 -2.170657 3.430584
v -1.619704 -0.9043187 3.338532
v -1.943067 -1.616575 3.481314
v -1.879308 -1.084736 3.470572
v -1.718448 -1.824483 3.370005
v -2.371569 -0.3303269 3.367641
v -1.879308 -1.084736 3.470572
v -2.302737 -0.7559589 3.50251
v -1.619704 -0.9043187 3.338532
v -3.222174 -0.6765008 3.428221
v -2.302737 -0.7559589 3.50251
v -2.78992 -0.9590233 3.54519
v -2.371569 -0.3303269 3.367641
v -3.222174 -0.6765008 3.428221
v -2.853681 -1.49087 3.555931
v -3.320914 -1.596666 3.459692
v -2.78992 -0.9590233 3.54519
v -3.320914 -1.596666 3.459692
v -2.430254 -1.819638 3.523993
v -2.569053 -2.170657 3.430584
v -2.853681 -1.49087 3.555931
v -1.718448 -1.824483 3.370005
v -2.430254 -1.819638 3.523993
v -1.943067 -1.616575 3.481314
v -2.569053 -2.170657 3.430584
v -1.943067 -1.616575 3.481314
v -2.302737 -0.7559589 3.50251
v -1.879308 -1.084736 3.470572
v -2.78992 -0.9590233 3.54519
v -2.430254 -1.819638 3.523993
v -2.853681 -1.49087 3.555931
v 0.6152751 0.8528348 2.936419
v 0.9478723 1.602907 3.071658
v 0.6893528 1.504323 2.946939
v 0.8424354 0.6796533 3.088072
v 0.6893528 1.504323 2.946939
v 0.1980478 2.16792 3.101461
v 0.1588494 1.902029 2.946939
v 0.9478723 1.602907 3.071658
v 0.1588494 1.902029 2.946939
v -0.6572233 1.809674 3.147678
v -0.4457316 1.648246 2.936418
v 0.1980478 2.16792 3.101461
v -0.4457316 1.648246 2.936418
v -0.7626612 0.8864282 3.164092
v -0.5198129 0.9967588 2.925898
v -0.6572233 1.809674 3.147678
v -0.5198129 0.9967588 2.925898
v -0.01283311 0.3214143 3.134289
v 0.01069047 0.5990533 2.925898
v -0.7626612 0.8864282 3.164092
v 0.01069047 0.5990533 2.925898
v 0.8424354 0.6796533 3.088072
v 0.6152751 0.8528348 2.936419
v -0.01283311 0.3214143 3.134289
v 0.8424354 0.6796533 3.088072
v 0.6138532 1.499169 3.221042
v 0.9478723 1.602907 3.071658
v 0.5500089 0.941475 3.236392
v 0.9478723 1.602907 3.071658
v 0.1620275 1.841548 3.246478
v 0.1980478 2.16792 3.101461
v 0.6138532 1.499169 3.221042
v 0.1980478 2.16792 3.101461
v -0.3536451 1.626226 3.287265
v -0.6572233 1.809674 3.147678
v 0.1620275 1.841548 3.246478
v -0.6572233 1.809674 3.147678
v -0.4174893 1.068531 3.302616
v -0.7626612 0.8864282 3.164092
v -0.3536451 1.626226 3.287265
v -0.7626612 0.8864282 3.164092
v 0.03433634 0.7261524 3.27718
v -0.01283311 0.3214143 3.134289
v -0.4174893 1.068531 3.302616
v -0.01283311 0.3214143 3.134289
v 0.5500089 0.941475 3.236392
v 0.8424354 0.6796533 3.088072
v 0.03433634 0.7261524 3.27718
v 0.01069047 0.5990533 2.925898
v -0.4457316 1.648246 2.936418
v -0.5198129 0.9967588 2.925898
v 0.6152751 0.8528348 2.936419
v 0.1588494 1.902029 2.946939
v 0.6893528 1.504323 2.946939
v 0.03433634 0.7261524 3.27718
v 0.6138532 1.499169 3.221042
v 0.5500089 0.941475 3.236392
v 0.1620275 1.841548 3.246478
v -0.4174893 1.068531 3.302616
v -0.3536451 1.626226 3.287265

vn 0.3134766 -0.949707 0.01203918
vn 0.3134766 -0.949707 0.01203918
vn 0.3134766 -0.949707 0.01203918
vn 0.3115234 -0.9492188 -0.04766846
vn 0.3115234 -0.9492188 -0.04766846
vn 0.3115234 -0.9492188 -0.04766846
vn -0.345459 0.8022461 0.4865723
vn -0.345459 0.8022461 0.4865723
vn -0.345459 0.8022461 0.4865723
vn -0.3388672 0.7739258 0.5351563
vn -0.3388672 0.7739258 0.5351563
vn -0.3388672 0.7739258 0.5351563
vn 0.7280273 -0.6748047 0.121521
vn 0.7280273 -0.6748047 0.121521
vn 0.7280273 -0.6748047 0.121521
vn -0.453125 0.7075195 -0.5419922
vn -0.453125 0.7075195 -0.5419922
vn -0.453125 0.7075195 -0.5419922
vn -0.5839844 0.6992188 0.4121094
vn -0.5839844 0.6992188 0.4121094
vn -0.5839844 0.6992188 0.4121094
vn 0.005451202 0.007423401 1
vn 0.005451202 0.007423401 1
vn 0.005451202 0.007423401 1
vn 0.4936523 0.8666992 0.0723877
vn 0.4936523 0.8666992 0.0723877
vn 0.4936523 0.8666992 0.0723877
vn -0.2143555 0.7241211 -0.6552734
vn -0.2143555 0.7241211 -0.6552734
vn -0.2143555 0.7241211 -0.6552734
vn -0.2226563 -0.9238281 0.3117676
vn -0.2226563 -0.9238281 0.3117676
vn -0.2226563 -0.9238281 0.3117676
vn -0.1617432 -0.9179688 0.3620605
vn -0.1617432 -0.9179688 0.3620605
vn -0.1617432 -0.9179688 0.3620605
vn 0.5776367 0.1210327 0.8076172
vn 0.5776367 0.1210327 0.8076172
vn 0.5776367 0.1210327 0.8076172
vn -0.7563477 -0.0480957 -0.6523438
vn -0.7563477 -0.0480957 -0.6523438
vn -0.7563477 -0.0480957 -0.6523438
vn -0.3564453 -0.8227539 0.442627
vn -0.3564453 -0.8227539 0.442627
vn -0.3564453 -0.8227539 0.442627
vn -0.04071045 -0.9628906 -0.2675781
vn -0.04071045 -0.9628906 -0.2675781
vn -0.04071045 -0.9628906 -0.2675781
vn -0.08758545 -0.9628906 -0.2543945
vn -0.08758545 -0.9628906 -0.2543945
vn -0.08758545 -0.9628906 -0.2543945
vn 0.01072693 -0.6342773 -0.7734375
vn 0.01072693 -0.6342773 -0.7734375
vn 0.01072693 -0.6342773 -0.7734375
vn -0.9711914 0.1107788 -0.2108154
vn -0.9711914 0.1107788 -0.2108154
vn -0.9711914 0.1107788 -0.2108154
vn -0.4643555 0.7075195 0.5327148
vn -0.4643555 0.7075195 0.5327148
vn -0.4643555 0.7075195 0.5327148
vn 0.470459 0.6362305 0.6118164
vn 0.470459 0.6362305 0.6118164
vn 0.470459 0.6362305 0.6118164
vn -0.3852539 0.9121094 0.1414795
vn -0.3791504 0.9145508 0.1411133
vn -0.3991699 0.9057617 0.1422119
vn -0.3791504 0.9145508 0.1411133
vn -0.3852539 0.9121094 0.1414795
vn -0.3710938 0.9179688 0.140625
vn 0.5678711 0.4733887 -0.6733398
vn 0.5678711 0.4733887 -0.6733398
vn 0.5678711 0.4733887 -0.6733398
vn 0.5927734 0.4760742 -0.6494141
vn -0.3151855 0.3642578 -0.8764648
vn -0.3151855 0.3642578 -0.8764648
vn -0.3151855 0.3642578 -0.8764648
vn -0.3164063 0.3640137 -0.8759766
vn -0.9819336 -0.09185791 -0.1641846
vn -0.9819336 -0.09185791 -0.1641846
vn -0.9819336 -0.09185791 -0.1641846
vn -0.9804688 -0.08898926 -0.175293
vn -0.6113281 -0.3959961 0.6850586
vn -0.6113281 -0.3959961 0.6850586
vn -0.6113281 -0.3959961 0.6850586
vn -0.5922852 -0.3937988 0.7026367
vn 0.326416 -0.2780762 0.9033203
vn 0.326416 -0.2780762 0.9033203
vn 0.326416 -0.2780762 0.9033203
vn 0.3300781 -0.2775879 0.9023438
vn 0.9643555 0.2000732 0.1723633
vn 0.9643555 0.2000732 0.1723633
vn 0.9643555 0.2000732 0.1723633
vn 0.965332 0.201416 0.166748
vn 0.6342773 0.07171631 -0.7695313
vn 0.6342773 0.07171631 -0.7695313
vn 0.6342773 0.07171631 -0.7695313
vn 0.6357422 0.07189941 -0.7685547
vn -0.3369141 0.05319214 -0.9399414
vn -0.3369141 0.05319214 -0.9399414
vn -0.3369141 0.05319214 -0.9399414
vn -0.3552246 0.05505371 -0.9331055
vn -0.9853516 0.002576828 -0.1694336
vn -0.9853516 0.002576828 -0.1694336
vn -0.9873047 0.003372192 -0.1602783
vn -0.9853516 0.002576828 -0.1694336
vn -0.984375 0.03469849 -0.1723633
vn -0.984375 0.03469849 -0.1723633
vn -0.637207 -0.02787781 0.7700195
vn -0.637207 -0.02787781 0.7700195
vn -0.637207 -0.02787781 0.7700195
vn -0.6333008 -0.02728271 0.7734375
vn 0.3417969 -0.009941101 0.9399414
vn 0.3417969 -0.009941101 0.9399414
vn 0.3417969 -0.009941101 0.9399414
vn 0.3579102 -0.01150513 0.9335938
vn 0.9858398 0.03781128 0.1635742
vn 0.9858398 0.03781128 0.1635742
vn 0.9858398 0.03768921 0.1621094
vn 0.9858398 0.03781128 0.1635742
vn 0.9858398 0.005664825 0.1689453
vn 0.9858398 0.005664825 0.1689453
vn 0.5991211 -0.3024902 -0.7416992
vn 0.5991211 -0.3024902 -0.7416992
vn 0.5991211 -0.3024902 -0.7416992
vn 0.6181641 -0.2966309 -0.7280273
vn -0.3574219 -0.2800293 -0.8911133
vn -0.3708496 -0.2758789 -0.8867188
vn -0.3718262 -0.2753906 -0.8862305
vn -0.3564453 -0.2802734 -0.8911133
vn -0.5893555 0.3361816 0.7348633
vn -0.5893555 0.3361816 0.7348633
vn -0.5893555 0.3361816 0.7348633
vn -0.6113281 0.3347168 0.7172852
vn 0.3728027 0.314209 0.8730469
vn 0.3571777 0.3190918 0.8779297
vn 0.3740234 0.3137207 0.8725586
vn 0.3562012 0.3193359 0.8779297
vn 0.2266846 0.06750488 -0.9716797
vn 0.2266846 0.06750488 -0.9716797
vn 0.2220459 0.09674072 -0.9702148
vn 0.2266846 0.06750488 -0.9716797
vn 0.2435303 0.07299805 -0.9672852
vn -0.1290283 0.862793 -0.4887695
vn -0.1290283 0.862793 -0.4887695
vn -0.1290283 0.862793 -0.4887695
vn -0.1351318 0.8774414 -0.4599609
vn -0.1903076 -0.05575562 0.9799805
vn -0.1903076 -0.05575562 0.9799805
vn -0.1903076 -0.05575562 0.9799805
vn -0.1849365 -0.08862305 0.9785156
vn 0.6748047 0.08410645 0.7333984
vn 0.6748047 0.08410645 0.7333984
vn 0.6748047 0.08410645 0.7333984
vn 0.6782227 0.1072388 0.7270508
vn 0.5195313 0.8476563 0.1077271
vn 0.5195313 0.8476563 0.1077271
vn 0.5195313 0.8476563 0.1077271
vn 0.53125 0.8417969 0.09576416
vn -0.1580811 0.7646484 -0.6245117
vn -0.1580811 0.7646484 -0.6245117
vn -0.1580811 0.7646484 -0.6245117
vn -0.1402588 0.7553711 -0.6401367
vn -0.6870117 -0.07904053 -0.722168
vn -0.6870117 -0.07904053 -0.722168
vn -0.6870117 -0.07904053 -0.722168
vn -0.690918 -0.1036987 -0.715332
vn -0.9985352 0.03173828 0.04083252
vn -0.9985352 0.03173828 0.04083252
vn -0.9985352 0.03173828 0.04083252
vn -0.996582 0.07208252 0.04580688
vn -0.4645996 0.8554688 0.2285156
vn -0.4645996 0.8554688 0.2285156
vn -0.4645996 0.8554688 0.2285156
vn -0.4299316 0.8740234 0.2261963
vn 0.5380859 0.8256836 0.170166
vn 0.5380859 0.8256836 0.170166
vn 0.5380859 0.8256836 0.170166
vn 0.5708008 0.8056641 0.1577148
vn 0.996582 -0.01916504 -0.07995605
vn 0.996582 -0.01916504 -0.07995605
vn 0.9941406 -0.06317139 -0.08551025
vn 0.996582 -0.01916504 -0.07995605
vn 0.9985352 -0.03231812 -0.03900146
vn 0.3310547 -0.8500977 -0.4094238
vn 0.295166 -0.8720703 -0.3903809
vn 0.2734375 -0.8842773 -0.378418
vn 0.3430176 -0.8422852 -0.4157715
vn -0.203125 -0.8442383 -0.4958496
vn -0.201416 -0.8198242 -0.5356445
vn -0.2004395 -0.8076172 -0.5546875
vn -0.2034912 -0.8505859 -0.4846191
vn -0.6069336 -0.7880859 -0.1016846
vn -0.6523438 -0.7451172 -0.1397705
vn -0.6791992 -0.715332 -0.1636963
vn -0.5878906 -0.8046875 -0.08599854
vn -0.4291992 -0.7026367 0.5673828
vn -0.4494629 -0.684082 0.574707
vn -0.463623 -0.6704102 0.5795898
vn -0.4196777 -0.7114258 0.5639648
vn 0.2324219 -0.6757813 0.699707
vn 0.236084 -0.6972656 0.6767578
vn 0.2385254 -0.7124023 0.6601563
vn 0.230957 -0.6669922 0.7084961
vn 0.6113281 -0.7734375 0.1674805
vn 0.5649414 -0.8149414 0.1307373
vn 0.5263672 -0.8442383 0.1016846
vn 0.6293945 -0.7553711 0.1824951
vn 0.2561035 0.8945313 -0.3669434
vn 0.2546387 0.8974609 -0.3603516
vn 0.2536621 0.8994141 -0.3557129
vn 0.2578125 0.8901367 -0.3757324
vn -0.1322021 0.8691406 -0.4768066
vn -0.1420898 0.8618164 -0.4865723
vn -0.1461182 0.8588867 -0.4904785
vn -0.1234741 0.875 -0.4677734
vn -0.4348145 0.8862305 -0.1608887
vn -0.4541016 0.8774414 -0.1550293
vn -0.4633789 0.8730469 -0.1519775
vn -0.4165039 0.8935547 -0.1663818
vn -0.2702637 0.9111328 0.3105469
vn -0.2712402 0.9086914 0.3178711
vn -0.2719727 0.9067383 0.3222656
vn -0.269043 0.9145508 0.3022461
vn 0.1730957 0.9111328 0.3737793
vn 0.1662598 0.9150391 0.3674316
vn 0.1624756 0.9169922 0.3637695
vn 0.1799316 0.9072266 0.380127
vn 0.4067383 0.9130859 0.02635193
vn 0.3930664 0.9189453 0.0305481
vn 0.3828125 0.9233398 0.03372192
vn 0.4240723 0.9052734 0.0209198
vn -0.00705719 -1 -0.01953125
vn -0.00705719 -1 -0.01953125
vn -0.00705719 -1 -0.01953125
vn -0.00705719 -1 -0.01953125
vn -0.00705719 -1 -0.01953125
vn -0.00705719 -1 -0.01953125
vn 0.4638672 -0.6982422 -0.5449219
vn 0.4506836 -0.7114258 -0.5390625
vn 0.442627 -0.7192383 -0.5356445
vn 0.4689941 -0.6933594 -0.5473633
vn -0.2841797 -0.6455078 -0.7089844
vn -0.2841797 -0.6455078 -0.7089844
vn -0.2841797 -0.6455078 -0.7089844
vn -0.2839355 -0.6450195 -0.7094727
vn -0.8212891 -0.5556641 -0.1293945
vn -0.8276367 -0.5444336 -0.1376953
vn -0.8305664 -0.5380859 -0.1420898
vn -0.8188477 -0.5600586 -0.1263428
vn -0.5332031 -0.423584 0.7324219
vn -0.546875 -0.4033203 0.7333984
vn -0.5546875 -0.3916016 0.734375
vn -0.5273438 -0.4318848 0.7319336
vn 0.2875977 -0.3933105 0.8730469
vn 0.2888184 -0.3991699 0.8701172
vn 0.2893066 -0.4025879 0.8686523
vn 0.2871094 -0.3911133 0.8745117
vn 0.7817383 -0.5737305 0.2434082
vn 0.7666016 -0.5996094 0.2297363
vn 0.7548828 -0.6181641 0.2196045
vn 0.7890625 -0.5615234 0.2498779
vn 0.3720703 0.7592773 -0.5341797
vn 0.3522949 0.7734375 -0.5268555
vn 0.392334 0.7436523 -0.5415039
vn 0.342041 0.7807617 -0.5229492
vn -0.1567383 0.7641602 -0.6254883
vn -0.1600342 0.7851563 -0.5986328
vn -0.1519775 0.7348633 -0.6606445
vn -0.1621094 0.7983398 -0.5800781
vn -0.4318848 0.8764648 -0.2120361
vn -0.4279785 0.8793945 -0.2081299
vn -0.4433594 0.8681641 -0.2232666
vn -0.4208984 0.8842773 -0.2012939
vn -0.253418 0.9331055 0.2558594
vn -0.2531738 0.9345703 0.2504883
vn -0.2524414 0.9370117 0.2403564
vn -0.2543945 0.9282227 0.2722168
vn 0.2080078 0.8950195 0.3950195
vn 0.1896973 0.9072266 0.3759766
vn 0.1759033 0.9155273 0.3615723
vn 0.2346191 0.8754883 0.4221191
vn 0.5356445 0.8442383 0.0109787
vn 0.550293 0.8344727 0.02601624
vn 0.5195313 0.8544922 -0.004917145
vn 0.5581055 0.8291016 0.03405762
vn 0.09667969 0.9853516 -0.1419678
vn 0.09667969 0.9853516 -0.1419678
vn 0.09667969 0.9853516 -0.1419678
vn 0.09667969 0.9853516 -0.1419678
vn 0.09667969 0.9853516 -0.1419678
vn 0.09667969 0.9853516 -0.1419678
vn 0.3127441 0.8525391 -0.4187012
vn 0.3120117 0.8530273 -0.4187012
vn 0.3181152 0.8500977 -0.4194336
vn 0.3093262 0.8540039 -0.4182129
vn -0.04605103 0.8686523 -0.4929199
vn -0.04663086 0.8701172 -0.4909668
vn -0.04296875 0.862793 -0.5039063
vn -0.04812622 0.8730469 -0.4855957
vn -0.2587891 0.9428711 -0.2103271
vn -0.2587891 0.9428711 -0.2102051
vn -0.2631836 0.9404297 -0.2154541
vn -0.2563477 0.9438477 -0.2075195
vn -0.1292725 0.9819336 0.137207
vn -0.1292725 0.9819336 0.1373291
vn -0.1291504 0.980957 0.144043
vn -0.1293945 0.9824219 0.1335449
vn 0.204834 0.9541016 0.2193604
vn 0.2062988 0.953125 0.220459
vn 0.2155762 0.949707 0.227417
vn 0.2001953 0.9555664 0.2158203
vn 0.4372559 0.8979492 -0.04656982
vn 0.4377441 0.8979492 -0.04681396
vn 0.442627 0.8955078 -0.04910278
vn 0.4345703 0.8994141 -0.04534912
vn 0.4462891 -0.7128906 -0.5410156
vn 0.4433594 -0.7241211 -0.5283203
vn 0.4472656 -0.7094727 -0.5444336
vn 0.4421387 -0.7290039 -0.5229492
vn -0.331543 -0.5400391 -0.7734375
vn -0.3225098 -0.5615234 -0.7617188
vn -0.3339844 -0.5341797 -0.7763672
vn -0.3183594 -0.5708008 -0.7568359
vn -0.9482422 -0.2668457 -0.1712646
vn -0.9458008 -0.2751465 -0.1721191
vn -0.9492188 -0.2644043 -0.1710205
vn -0.9448242 -0.2788086 -0.1724854
vn -0.6108398 -0.1140137 0.7832031
vn -0.6137695 -0.1054688 0.7822266
vn -0.6147461 -0.1030884 0.7817383
vn -0.6098633 -0.1174316 0.7836914
vn 0.2807617 -0.2939453 0.9135742
vn 0.2790527 -0.2663574 0.9228516
vn 0.2785645 -0.2592773 0.9248047
vn 0.2814941 -0.3054199 0.909668
vn 0.7490234 -0.6103516 0.2575684
vn 0.7587891 -0.5957031 0.2631836
vn 0.7617188 -0.5913086 0.2648926
vn 0.7446289 -0.6166992 0.255127
vn -0.02493286 -0.8876953 -0.4597168
vn -0.03656006 -0.90625 -0.4213867
vn -0.04302979 -0.9155273 -0.3999023
vn -0.02145386 -0.8818359 -0.4709473
vn -0.4101563 -0.8945313 -0.1781006
vn -0.4353027 -0.8764648 -0.2053223
vn -0.4477539 -0.8666992 -0.2191162
vn -0.402832 -0.8994141 -0.1702881
vn -0.4377441 -0.8383789 0.3244629
vn -0.4992676 -0.7993164 0.3347168
vn -0.5317383 -0.7758789 0.3395996
vn -0.416748 -0.8505859 0.3208008
vn 0.05581665 -0.765625 0.6411133
vn 0.04641724 -0.746582 0.6635742
vn 0.04055786 -0.734375 0.6772461
vn 0.05929565 -0.7724609 0.6323242
vn 0.5771484 -0.7583008 0.3029785
vn 0.5615234 -0.777832 0.282959
vn 0.550293 -0.7900391 0.2692871
vn 0.5830078 -0.7509766 0.3103027
vn 0.4855957 -0.8251953 -0.2890625
vn 0.4245605 -0.8618164 -0.2775879
vn 0.3835449 -0.8833008 -0.2692871
vn 0.5058594 -0.8115234 -0.2924805
vn -0.0473938 0.9233398 -0.3811035
vn -0.04412842 0.9257813 -0.3752441
vn -0.04223633 0.9272461 -0.3720703
vn -0.05105591 0.9204102 -0.3876953
vn -0.3515625 0.9125977 -0.2093506
vn -0.3637695 0.9077148 -0.2097168
vn -0.3691406 0.9052734 -0.2098389
vn -0.3400879 0.9169922 -0.2089844
vn -0.3562012 0.9179688 0.1733398
vn -0.3662109 0.9111328 0.1901855
vn -0.3703613 0.9077148 0.1976318
vn -0.3474121 0.9243164 0.1585693
vn 0.006877899 0.9355469 0.3530273
vn 0.0105896 0.9331055 0.3591309
vn 0.01255798 0.9321289 0.3623047
vn 0.003252029 0.9379883 0.3474121
vn 0.3134766 0.9423828 0.1184082
vn 0.3059082 0.9448242 0.1186523
vn 0.3010254 0.9462891 0.1187744
vn 0.3217773 0.9394531 0.1181641
vn 0.2614746 0.9360352 -0.2352295
vn 0.2548828 0.940918 -0.2233887
vn 0.2502441 0.9438477 -0.215332
vn 0.2695313 0.9301758 -0.2496338
vn -0.01468658 -1 -0.007183075
vn -0.01468658 -1 -0.007183075
vn -0.01468658 -1 -0.007183075
vn -0.01468658 -1 -0.007183075
vn -0.01468658 -1 -0.007183075
vn -0.01468658 -1 -0.007183075
vn -0.01971436 -0.7587891 -0.6508789
vn -0.02516174 -0.7714844 -0.6357422
vn -0.02796936 -0.777832 -0.6274414
vn -0.01794434 -0.7543945 -0.6557617
vn -0.6230469 -0.7314453 -0.2768555
vn -0.6230469 -0.7319336 -0.2766113
vn -0.6230469 -0.7319336 -0.2763672
vn -0.6230469 -0.7314453 -0.2768555
vn -0.6235352 -0.625 0.4699707
vn -0.6357422 -0.6123047 0.4699707
vn -0.640625 -0.6069336 0.4699707
vn -0.6201172 -0.628418 0.4699707
vn 0.09100342 -0.4916992 0.8662109
vn 0.08129883 -0.4663086 0.8808594
vn 0.07702637 -0.4550781 0.887207
vn 0.09381104 -0.4990234 0.8613281
vn 0.7768555 -0.4772949 0.4104004
vn 0.7744141 -0.484375 0.4067383
vn 0.7734375 -0.487793 0.4047852
vn 0.777832 -0.4753418 0.4116211
vn 0.6699219 -0.644043 -0.3696289
vn 0.644043 -0.671875 -0.3652344
vn 0.6289063 -0.6879883 -0.3625488
vn 0.6787109 -0.6337891 -0.3708496
vn -0.07159424 0.8139648 -0.5761719
vn -0.08026123 0.8276367 -0.5551758
vn -0.06341553 0.8007813 -0.5957031
vn -0.0838623 0.8334961 -0.5463867
vn -0.4675293 0.8330078 -0.2958984
vn -0.4506836 0.8491211 -0.2749023
vn -0.4899902 0.809082 -0.3249512
vn -0.439209 0.8598633 -0.260498
vn -0.01239014 0.9511719 0.3085938
vn -0.01577759 0.9526367 0.3041992
vn -0.02067566 0.9541016 0.2980957
vn -0.004276276 0.9477539 0.3190918
vn 0.3483887 0.9306641 0.1101074
vn 0.326416 0.9389648 0.1096191
vn 0.3081055 0.9448242 0.1091919
vn 0.3830566 0.9169922 0.1107788
vn 0.3361816 0.8823242 -0.329834
vn 0.3566895 0.8735352 -0.3310547
vn 0.317627 0.8896484 -0.3286133
vn 0.3659668 0.8696289 -0.331543
vn -0.03518677 0.9931641 -0.1097412
vn -0.03518677 0.9931641 -0.1097412
vn -0.03518677 0.9931641 -0.1097412
vn -0.03518677 0.9931641 -0.1097412
vn -0.03518677 0.9931641 -0.1097412
vn -0.03518677 0.9931641 -0.1097412
vn 0.3439941 -0.9360352 -0.07403564
vn 0.3100586 -0.9477539 -0.07769775
vn 0.2922363 -0.953125 -0.07952881
vn 0.3532715 -0.9326172 -0.07305908
vn 0.08435059 -0.9404297 -0.3291016
vn 0.1032715 -0.9291992 -0.3549805
vn 0.1123047 -0.9233398 -0.3674316
vn 0.07940674 -0.9433594 -0.3222656
vn -0.3037109 -0.9057617 -0.2961426
vn -0.3261719 -0.8774414 -0.3518066
vn -0.3371582 -0.8618164 -0.3791504
vn -0.2971191 -0.9125977 -0.2802734
vn -0.5029297 -0.8549805 0.1263428
vn -0.5288086 -0.8398438 0.1224365
vn -0.5424805 -0.831543 0.1203003
vn -0.4953613 -0.859375 0.1274414
vn -0.1693115 -0.8486328 0.5014648
vn -0.15271 -0.8637695 0.4804688
vn -0.1430664 -0.8720703 0.4680176
vn -0.1743164 -0.84375 0.5078125
vn 0.2851563 -0.8950195 0.3427734
vn 0.2629395 -0.9204102 0.2888184
vn 0.2497559 -0.9335938 0.2570801
vn 0.2915039 -0.8867188 0.3586426
vn 0.2768555 0.9575195 -0.08032227
vn 0.2724609 0.9589844 -0.07696533
vn 0.2702637 0.9599609 -0.07519531
vn 0.2817383 0.9560547 -0.0838623
vn 0.1141357 0.9511719 -0.2866211
vn 0.1131592 0.9482422 -0.296875
vn 0.112793 0.9467773 -0.3010254
vn 0.1149292 0.9536133 -0.2775879
vn -0.1707764 0.9545898 -0.2440186
vn -0.1856689 0.9501953 -0.2504883
vn -0.1916504 0.9482422 -0.2529297
vn -0.1585693 0.9580078 -0.2386475
vn -0.2592773 0.9648438 0.04656982
vn -0.2636719 0.9633789 0.0501709
vn -0.2658691 0.9624023 0.05197144
vn -0.255127 0.9658203 0.04321289
vn -0.05020142 0.9682617 0.2442627
vn -0.0512085 0.9697266 0.2381592
vn -0.05181885 0.9707031 0.2346191
vn -0.04910278 0.9667969 0.2507324
vn 0.2042236 0.9648438 0.164917
vn 0.1939697 0.9677734 0.1610107
vn 0.1873779 0.9692383 0.1584473
vn 0.2161865 0.9614258 0.1695557
vn 0.003458023 -1 -0.01131439
vn 0.003458023 -1 -0.01131439
vn 0.003458023 -1 -0.01131439
vn 0.003458023 -1 -0.01131439
vn 0.003458023 -1 -0.01131439
vn 0.003458023 -1 -0.01131439
vn 0.519043 -0.8491211 -0.09887695
vn 0.5019531 -0.8588867 -0.1008301
vn 0.4941406 -0.8632813 -0.1016846
vn 0.5234375 -0.8461914 -0.09838867
vn 0.1435547 -0.8291016 -0.5405273
vn 0.1433105 -0.8291016 -0.5400391
vn 0.1433105 -0.8291016 -0.5400391
vn 0.1435547 -0.8291016 -0.5405273
vn -0.4829102 -0.7421875 -0.4645996
vn -0.487793 -0.7299805 -0.4787598
vn -0.4892578 -0.7260742 -0.4833984
vn -0.4819336 -0.7446289 -0.4616699
vn -0.7597656 -0.6166992 0.2053223
vn -0.784668 -0.5869141 0.1999512
vn -0.7924805 -0.5771484 0.1981201
vn -0.7548828 -0.6225586 0.2062988
vn -0.2575684 -0.6000977 0.7573242
vn -0.253418 -0.6079102 0.7524414
vn -0.251709 -0.6113281 0.7504883
vn -0.2583008 -0.5981445 0.7587891
vn 0.4016113 -0.7568359 0.515625
vn 0.388916 -0.7827148 0.486084
vn 0.3823242 -0.7949219 0.4714355
vn 0.4050293 -0.7495117 0.5234375
vn 0.4414063 0.8881836 -0.1275635
vn 0.4196777 0.8979492 -0.1311035
vn 0.4594727 0.8793945 -0.1244507
vn 0.4118652 0.9013672 -0.1323242
vn 0.1716309 0.9008789 -0.3986816
vn 0.1549072 0.9125977 -0.3786621
vn 0.1928711 0.8847656 -0.4238281
vn 0.1453857 0.918457 -0.3671875
vn -0.1512451 0.9506836 -0.2702637
vn -0.1500244 0.9526367 -0.2651367
vn -0.1539307 0.9472656 -0.2814941
vn -0.1485596 0.9545898 -0.2590332
vn -0.2272949 0.9736328 0.02708435
vn -0.2242432 0.9741211 0.02391052
vn -0.2200928 0.9750977 0.01966858
vn -0.2342529 0.9716797 0.03421021
vn -0.04019165 0.9619141 0.2705078
vn -0.04232788 0.9667969 0.2526855
vn -0.04397583 0.9702148 0.2388916
vn -0.03683472 0.9541016 0.2978516
vn 0.2895508 0.9331055 0.213623
vn 0.2944336 0.9272461 0.230835
vn 0.2856445 0.9375 0.199585
vn 0.2963867 0.9248047 0.237793
vn 0.074646 0.996582 -0.03778076
vn 0.074646 0.996582 -0.03778076
vn 0.074646 0.996582 -0.03778076
vn 0.074646 0.996582 -0.03778076
vn 0.074646 0.996582 -0.03778076
vn 0.074646 0.996582 -0.03778076
vn 0.4960938 -0.8618164 -0.1072388
vn 0.4553223 -0.8828125 -0.1136475
vn 0.4311523 -0.8945313 -0.1173096
vn 0.5087891 -0.8544922 -0.1052246
vn 0.1231689 -0.8691406 -0.4790039
vn 0.1473389 -0.8486328 -0.5083008
vn 0.1599121 -0.8369141 -0.5234375
vn 0.1157837 -0.875 -0.4699707
vn -0.4250488 -0.8037109 -0.4165039
vn -0.4423828 -0.7607422 -0.4750977
vn -0.4511719 -0.7338867 -0.5073242
vn -0.418457 -0.8178711 -0.3947754
vn -0.6708984 -0.722168 0.1676025
vn -0.6928711 -0.7026367 0.1612549
vn -0.7070313 -0.6894531 0.1568604
vn -0.6616211 -0.7304688 0.1702881
vn -0.2227783 -0.715332 0.6621094
vn -0.2056885 -0.7358398 0.6450195
vn -0.1933594 -0.75 0.6328125
vn -0.2296143 -0.7070313 0.6689453
vn 0.3933105 -0.7895508 0.4709473
vn 0.3742676 -0.8305664 0.4123535
vn 0.3598633 -0.855957 0.3706055
vn 0.3996582 -0.7734375 0.4916992
vn 0.4106445 0.9038086 -0.1190186
vn 0.4052734 0.9067383 -0.114563
vn 0.4020996 0.9086914 -0.1119385
vn 0.4169922 0.9003906 -0.1241455
vn 0.1679688 0.890625 -0.4221191
vn 0.1660156 0.8852539 -0.4348145
vn 0.1651611 0.8823242 -0.4406738
vn 0.1696777 0.8959961 -0.4099121
vn -0.2531738 0.8974609 -0.3608398
vn -0.2724609 0.8891602 -0.3679199
vn -0.28125 0.8852539 -0.3710938
vn -0.2353516 0.9047852 -0.354248
vn -0.3884277 0.9189453 0.06988525
vn -0.3937988 0.9160156 0.0748291
vn -0.3969727 0.9145508 0.07757568
vn -0.3828125 0.9213867 0.06481934
vn -0.07556152 0.9272461 0.3671875
vn -0.07714844 0.9301758 0.3591309
vn -0.07818604 0.9321289 0.3540039
vn -0.07373047 0.9233398 0.3762207
vn 0.3054199 0.9194336 0.2469482
vn 0.2919922 0.925293 0.2420654
vn 0.2822266 0.9291992 0.2386475
vn 0.3222656 0.9121094 0.2529297
vn 0.005432129 -1 -0.01777649
vn 0.005435944 -1 -0.01777649
vn 0.005432129 -1 -0.01777649
vn 0.005435944 -1 -0.01777649
vn 0.005435944 -1 -0.01777649
vn 0.005435944 -1 -0.01777649
vn 0.06002808 0.9970703 -0.04226685
vn 0.06002808 0.9970703 -0.04226685
vn 0.06002808 0.9970703 -0.04226685
vn 0.06002808 0.9970703 -0.04226685
vn 0.06002808 0.9970703 -0.04226685
vn 0.06002808 0.9970703 -0.04226685

vt 0.8266602 0.4970703
vt 0.7890625 0.4775391
vt 0.8217773 0.4960938
vt 0.7890625 0.4775391
vt 0.8266602 0.4970703
vt 0.7924805 0.4780273
vt 0.7875977 0.4870605
vt 0.8217773 0.5083008
vt 0.8198242 0.5039063
vt 0.8217773 0.5083008
vt 0.7875977 0.4870605
vt 0.7885742 0.4924316
vt 0.8217773 0.4960938
vt 0.8486328 0.5424805
vt 0.8266602 0.4970703
vt 0.8251953 0.5048828
vt 0.8486328 0.5424805
vt 0.8217773 0.5083008
vt 0.8217773 0.5083008
vt 0.8486328 0.5424805
vt 0.8198242 0.5039063
vt 0.8198242 0.5039063
vt 0.8486328 0.5424805
vt 0.8217773 0.4960938
vt 0.7275391 0.5292969
vt 0.784668 0.4968262
vt 0.7871094 0.4931641
vt 0.7265625 0.5317383
vt 0.78125 0.4924316
vt 0.784668 0.4968262
vt 0.7265625 0.5224609
vt 0.7802734 0.4846191
vt 0.7231445 0.5219727
vt 0.7802734 0.4846191
vt 0.7265625 0.5224609
vt 0.7866211 0.4851074
vt 0.7265625 0.5224609
vt 0.699707 0.5498047
vt 0.7275391 0.5292969
vt 0.7241211 0.5283203
vt 0.699707 0.5498047
vt 0.7231445 0.5219727
vt 0.7231445 0.5219727
vt 0.699707 0.5498047
vt 0.7265625 0.5224609
vt 0.7954102 0.4970703
vt 0.7919922 0.4775391
vt 0.8041992 0.4960938
vt 0.7919922 0.4775391
vt 0.7954102 0.4970703
vt 0.7807617 0.4780273
vt 0.8041992 0.4960938
vt 0.8134766 0.5463867
vt 0.7954102 0.4970703
vt 0.7954102 0.4970703
vt 0.8134766 0.5463867
vt 0.7954102 0.5048828
vt 0.7954102 0.5048828
vt 0.8134766 0.5463867
vt 0.7993164 0.5083008
vt 0.7993164 0.5083008
vt 0.8134766 0.5463867
vt 0.8041992 0.5039063
vt 0.1964111 0.5068359
vt 0.2272949 0.5209961
vt 0.2443848 0.5292969
vt 0.2272949 0.5209961
vt 0.1964111 0.5068359
vt 0.1676025 0.4951172
vt 0.8217773 0.357666
vt 0.7924805 0.4421387
vt 0.8149414 0.357666
vt 0.7978516 0.4404297
vt 0.8007813 0.357666
vt 0.7924805 0.4421387
vt 0.7822266 0.4428711
vt 0.8149414 0.357666
vt 0.7939453 0.357666
vt 0.7822266 0.4428711
vt 0.7768555 0.4421387
vt 0.8007813 0.357666
vt 0.8007813 0.357666
vt 0.7768555 0.4421387
vt 0.7822266 0.4404297
vt 0.7939453 0.357666
vt 0.8007813 0.357666
vt 0.7929688 0.4396973
vt 0.8149414 0.357666
vt 0.7822266 0.4404297
vt 0.8149414 0.357666
vt 0.7978516 0.4404297
vt 0.8217773 0.357666
vt 0.7929688 0.4396973
vt 0.7890625 0.5507813
vt 0.7978516 0.4404297
vt 0.793457 0.5512695
vt 0.7924805 0.4421387
vt 0.7822266 0.4428711
vt 0.7890625 0.5507813
vt 0.7802734 0.5522461
vt 0.7924805 0.4421387
vt 0.7802734 0.5522461
vt 0.7768555 0.4421387
vt 0.7822266 0.4428711
vt 0.7758789 0.5537109
vt 0.7958984 0.6645508
vt 0.7924805 0.6655273
vt 0.7822266 0.4404297
vt 0.7758789 0.5537109
vt 0.7802734 0.5541992
vt 0.7768555 0.4421387
vt 0.7890625 0.5532227
vt 0.7822266 0.4404297
vt 0.7802734 0.5541992
vt 0.7929688 0.4396973
vt 0.7929688 0.4396973
vt 0.793457 0.5512695
vt 0.7978516 0.4404297
vt 0.7890625 0.5532227
vt 0.8066406 0.6621094
vt 0.8032227 0.6630859
vt 0.8032227 0.6630859
vt 0.793457 0.5512695
vt 0.8066406 0.6621094
vt 0.7890625 0.5507813
vt 0.7802734 0.5522461
vt 0.8032227 0.6630859
vt 0.7958984 0.6645508
vt 0.7890625 0.5507813
vt 0.7958984 0.6645508
vt 0.7758789 0.5537109
vt 0.7924805 0.6655273
vt 0.7802734 0.5541992
vt 0.8032227 0.6630859
vt 0.7802734 0.5541992
vt 0.7958984 0.6645508
vt 0.7890625 0.5532227
vt 0.8266602 0.4970703
vt 0.7910156 0.487793
vt 0.7924805 0.4780273
vt 0.8251953 0.5048828
vt 0.8486328 0.5424805
vt 0.7885742 0.4924316
vt 0.8251953 0.5048828
vt 0.8217773 0.5083008
vt 0.7910156 0.487793
vt 0.8217773 0.4960938
vt 0.7875977 0.4870605
vt 0.8198242 0.5039063
vt 0.7890625 0.4775391
vt 0.7871094 0.4931641
vt 0.7265625 0.5224609
vt 0.7275391 0.5292969
vt 0.7866211 0.4851074
vt 0.784668 0.4968262
vt 0.7275391 0.5292969
vt 0.7265625 0.5317383
vt 0.699707 0.5498047
vt 0.78125 0.4924316
vt 0.7265625 0.5317383
vt 0.7241211 0.5283203
vt 0.699707 0.5498047
vt 0.7231445 0.5219727
vt 0.78125 0.4924316
vt 0.7241211 0.5283203
vt 0.7802734 0.4846191
vt 0.7807617 0.487793
vt 0.7954102 0.4970703
vt 0.7954102 0.5048828
vt 0.7807617 0.4780273
vt 0.7866211 0.4924316
vt 0.7954102 0.5048828
vt 0.7993164 0.5083008
vt 0.7807617 0.487793
vt 0.7919922 0.4870605
vt 0.7993164 0.5083008
vt 0.8041992 0.5039063
vt 0.7866211 0.4924316
vt 0.7919922 0.4870605
vt 0.8041992 0.4960938
vt 0.7919922 0.4775391
vt 0.8041992 0.5039063
vt 0.8134766 0.5463867
vt 0.4284668 0.1466064
vt 0.3933105 0.1734619
vt 0.3649902 0.1486816
vt 0.4833984 0.1766357
vt 0.3649902 0.1486816
vt 0.2131348 0.1793213
vt 0.2376709 0.1486816
vt 0.3933105 0.1734619
vt 0.2376709 0.1486816
vt 0.1229858 0.1884766
vt 0.1740723 0.1466064
vt 0.2131348 0.1793213
vt 0.1740723 0.1466064
vt 0.2131348 0.1917725
vt 0.2376709 0.1445313
vt 0.1229858 0.1884766
vt 0.2376709 0.1445313
vt 0.3933105 0.185791
vt 0.3649902 0.1445313
vt 0.2131348 0.1917725
vt 0.3649902 0.1445313
vt 0.4833984 0.1766357
vt 0.4284668 0.1466064
vt 0.3933105 0.185791
vt 0.4833984 0.1766357
vt 0.3540039 0.2030029
vt 0.3933105 0.1734619
vt 0.4084473 0.2060547
vt 0.3933105 0.1734619
vt 0.2451172 0.2080078
vt 0.2131348 0.1793213
vt 0.3540039 0.2030029
vt 0.2131348 0.1793213
vt 0.1906738 0.2161865
vt 0.1229858 0.1884766
vt 0.2451172 0.2080078
vt 0.1229858 0.1884766
vt 0.2451172 0.2192383
vt 0.2131348 0.1917725
vt 0.1906738 0.2161865
vt 0.2131348 0.1917725
vt 0.3540039 0.2141113
vt 0.3933105 0.185791
vt 0.2451172 0.2192383
vt 0.3933105 0.185791
vt 0.4084473 0.2060547
vt 0.4833984 0.1766357
vt 0.3540039 0.2141113
vt 0.3649902 0.1445313
vt 0.1740723 0.1466064
vt 0.2376709 0.1445313
vt 0.4284668 0.1466064
vt 0.2376709 0.1486816
vt 0.3649902 0.1486816
vt 0.4020996 0.4448242
vt 0.3557129 0.484375
vt 0.3254395 0.4406738
vt 0.4545898 0.4951172
vt 0.3254395 0.4406738
vt 0.1575928 0.4943848
vt 0.1722412 0.4477539
vt 0.3557129 0.484375
vt 0.1722412 0.4477539
vt 0.05856323 0.5151367
vt 0.09570313 0.4589844
vt 0.1575928 0.4943848
vt 0.09570313 0.4589844
vt 0.1575928 0.5258789
vt 0.1722412 0.4633789
vt 0.05856323 0.5151367
vt 0.1722412 0.4633789
vt 0.3557129 0.515625
vt 0.3254395 0.4562988
vt 0.1575928 0.5258789
vt 0.3254395 0.4562988
vt 0.4545898 0.4951172
vt 0.4020996 0.4448242
vt 0.3557129 0.515625
vt 0.3557129 0.484375
vt 0.3908691 0.5332031
vt 0.3347168 0.5292969
vt 0.4545898 0.4951172
vt 0.1575928 0.4943848
vt 0.3347168 0.5292969
vt 0.2225342 0.5400391
vt 0.3557129 0.484375
vt 0.05856323 0.5151367
vt 0.2225342 0.5400391
vt 0.1665039 0.5546875
vt 0.1575928 0.4943848
vt 0.05856323 0.5151367
vt 0.2225342 0.5585938
vt 0.1575928 0.5258789
vt 0.1665039 0.5546875
vt 0.1575928 0.5258789
vt 0.3347168 0.5473633
vt 0.3557129 0.515625
vt 0.2225342 0.5585938
vt 0.4545898 0.4951172
vt 0.3347168 0.5473633
vt 0.3908691 0.5332031
vt 0.3557129 0.515625
vt 0.2423096 0.8666992
vt 0.3605957 0.8442383
vt 0.3212891 0.855957
vt 0.2028809 0.8662109
vt 0.3212891 0.8432617
vt 0.2423096 0.8540039
vt 0.3659668 0.7915039
vt 0.3605957 0.8442383
vt 0.3212891 0.8432617
vt 0.4621582 0.7954102
vt 0.1734619 0.815918
vt 0.3212891 0.8432617
vt 0.2423096 0.8540039
vt 0.3659668 0.7915039
vt 0.07714844 0.84375
vt 0.2423096 0.8540039
vt 0.2028809 0.8662109
vt 0.1734619 0.815918
vt 0.2423096 0.8666992
vt 0.07714844 0.84375
vt 0.2028809 0.8662109
vt 0.1734619 0.847168
vt 0.3212891 0.855957
vt 0.1734619 0.847168
vt 0.2423096 0.8666992
vt 0.3659668 0.8227539
vt 0.3605957 0.8442383
vt 0.3659668 0.8227539
vt 0.3212891 0.855957
vt 0.4621582 0.7954102
vt 0.3369141 0.7519531
vt 0.4621582 0.7954102
vt 0.3659668 0.7915039
vt 0.4194336 0.7573242
vt 0.1717529 0.7680664
vt 0.3659668 0.7915039
vt 0.1734619 0.815918
vt 0.3369141 0.7519531
vt 0.08929443 0.7895508
vt 0.1734619 0.815918
vt 0.07714844 0.84375
vt 0.1717529 0.7680664
vt 0.1734619 0.847168
vt 0.08929443 0.7895508
vt 0.07714844 0.84375
vt 0.1717529 0.7949219
vt 0.3659668 0.8227539
vt 0.1717529 0.7949219
vt 0.1734619 0.847168
vt 0.3369141 0.7788086
vt 0.4621582 0.7954102
vt 0.3369141 0.7788086
vt 0.3659668 0.8227539
vt 0.4194336 0.7573242
vt 0.3896484 0.1519775
vt 0.253418 0.1755371
vt 0.2644043 0.1538086
vt 0.4306641 0.1783447
vt 0.2644043 0.1538086
vt 0.1193237 0.1806641
vt 0.170166 0.1538086
vt 0.253418 0.1755371
vt 0.170166 0.1538086
vt 0.1627197 0.1887207
vt 0.2009277 0.1519775
vt 0.1193237 0.1806641
vt 0.2009277 0.1519775
vt 0.3400879 0.1916504
vt 0.3259277 0.1501465
vt 0.1627197 0.1887207
vt 0.3259277 0.1501465
vt 0.4741211 0.1864014
vt 0.4204102 0.1501465
vt 0.3400879 0.1916504
vt 0.4204102 0.1501465
vt 0.4306641 0.1783447
vt 0.3896484 0.1519775
vt 0.4741211 0.1864014
vt 0.4306641 0.1783447
vt 0.2631836 0.2015381
vt 0.253418 0.1755371
vt 0.3703613 0.2042236
vt 0.253418 0.1755371
vt 0.1820068 0.2059326
vt 0.1193237 0.1806641
vt 0.2631836 0.2015381
vt 0.1193237 0.1806641
vt 0.2080078 0.2131348
vt 0.1627197 0.1887207
vt 0.1820068 0.2059326
vt 0.1627197 0.1887207
vt 0.3151855 0.2158203
vt 0.3400879 0.1916504
vt 0.2080078 0.2131348
vt 0.3400879 0.1916504
vt 0.3962402 0.2113037
vt 0.4741211 0.1864014
vt 0.3151855 0.2158203
vt 0.4741211 0.1864014
vt 0.3703613 0.2042236
vt 0.4306641 0.1783447
vt 0.3962402 0.2113037
vt 0.4204102 0.1501465
vt 0.2009277 0.1519775
vt 0.3259277 0.1501465
vt 0.3896484 0.1519775
vt 0.170166 0.1538086
vt 0.2644043 0.1538086
vt 0.3635254 0.4672852
vt 0.2624512 0.4897461
vt 0.2670898 0.4648438
vt 0.3859863 0.4956055
vt 0.2670898 0.4648438
vt 0.1676025 0.4951172
vt 0.1939697 0.4689941
vt 0.2624512 0.4897461
vt 0.1939697 0.4689941
vt 0.1964111 0.5068359
vt 0.2174072 0.4753418
vt 0.1676025 0.4951172
vt 0.2174072 0.4753418
vt 0.3198242 0.5126953
vt 0.3139648 0.4777832
vt 0.1964111 0.5068359
vt 0.3139648 0.4777832
vt 0.4147949 0.5073242
vt 0.3869629 0.4736328
vt 0.3198242 0.5126953
vt 0.3869629 0.4736328
vt 0.3859863 0.4956055
vt 0.3635254 0.4672852
vt 0.4147949 0.5073242
vt 0.2624512 0.4897461
vt 0.3527832 0.5170898
vt 0.2814941 0.5146484
vt 0.3859863 0.4956055
vt 0.1676025 0.4951172
vt 0.2814941 0.5146484
vt 0.2272949 0.5209961
vt 0.2624512 0.4897461
vt 0.1964111 0.5068359
vt 0.3156738 0.53125
vt 0.3198242 0.5126953
vt 0.2443848 0.5292969
vt 0.3198242 0.5126953
vt 0.369873 0.5249023
vt 0.4147949 0.5073242
vt 0.3156738 0.53125
vt 0.3859863 0.4956055
vt 0.369873 0.5249023
vt 0.3527832 0.5170898
vt 0.4147949 0.5073242
vt 0.3527832 0.5170898
vt 0.2272949 0.5209961
vt 0.2814941 0.5146484
vt 0.2443848 0.5292969
vt 0.369873 0.5249023
vt 0.3156738 0.53125
vt 0.3562012 0.1541748
vt 0.4208984 0.1708984
vt 0.3706055 0.1553955
vt 0.4003906 0.1729736
vt 0.3706055 0.1553955
vt 0.2749023 0.1745605
vt 0.2670898 0.1553955
vt 0.4208984 0.1708984
vt 0.2670898 0.1553955
vt 0.1082153 0.1802979
vt 0.1494141 0.1541748
vt 0.2749023 0.1745605
vt 0.1494141 0.1541748
vt 0.08764648 0.182373
vt 0.1350098 0.152832
vt 0.1082153 0.1802979
vt 0.1350098 0.152832
vt 0.2337646 0.1785889
vt 0.2382813 0.152832
vt 0.08764648 0.182373
vt 0.2382813 0.152832
vt 0.4003906 0.1729736
vt 0.3562012 0.1541748
vt 0.2337646 0.1785889
vt 0.4003906 0.1729736
vt 0.355957 0.1894531
vt 0.4208984 0.1708984
vt 0.3435059 0.1912842
vt 0.4208984 0.1708984
vt 0.2678223 0.1925049
vt 0.2749023 0.1745605
vt 0.355957 0.1894531
vt 0.2749023 0.1745605
vt 0.1673584 0.1976318
vt 0.1082153 0.1802979
vt 0.2678223 0.1925049
vt 0.1082153 0.1802979
vt 0.1549072 0.1994629
vt 0.08764648 0.182373
vt 0.1673584 0.1976318
vt 0.08764648 0.182373
vt 0.2429199 0.1964111
vt 0.2337646 0.1785889
vt 0.1549072 0.1994629
vt 0.2337646 0.1785889
vt 0.3435059 0.1912842
vt 0.4003906 0.1729736
vt 0.2429199 0.1964111
vt 0.2382813 0.152832
vt 0.1494141 0.1541748
vt 0.1350098 0.152832
vt 0.3562012 0.1541748
vt 0.2670898 0.1553955
vt 0.3706055 0.1553955
vt 0.2666016 0.4758301
vt 0.3095703 0.4914551
vt 0.277832 0.4741211
vt 0.2961426 0.4958496
vt 0.277832 0.4741211
vt 0.2072754 0.4956055
vt 0.1984863 0.4768066
vt 0.3095703 0.4914551
vt 0.1984863 0.4768066
vt 0.09161377 0.5039063
vt 0.1079712 0.4814453
vt 0.2072754 0.4956055
vt 0.1079712 0.4814453
vt 0.07818604 0.5078125
vt 0.09680176 0.4831543
vt 0.09161377 0.5039063
vt 0.09680176 0.4831543
vt 0.1804199 0.5039063
vt 0.1760254 0.4802246
vt 0.07818604 0.5078125
vt 0.1760254 0.4802246
vt 0.2961426 0.4958496
vt 0.2666016 0.4758301
vt 0.1804199 0.5039063
vt 0.3095703 0.4914551
vt 0.265625 0.5107422
vt 0.2741699 0.5097656
vt 0.2961426 0.4958496
vt 0.2072754 0.4956055
vt 0.2741699 0.5097656
vt 0.2166748 0.5136719
vt 0.3095703 0.4914551
vt 0.09161377 0.5039063
vt 0.2166748 0.5136719
vt 0.1503906 0.5195313
vt 0.2072754 0.4956055
vt 0.09161377 0.5039063
vt 0.1417236 0.5209961
vt 0.07818604 0.5078125
vt 0.1503906 0.5195313
vt 0.07818604 0.5078125
vt 0.1993408 0.5166016
vt 0.1804199 0.5039063
vt 0.1417236 0.5209961
vt 0.2961426 0.4958496
vt 0.1993408 0.5166016
vt 0.265625 0.5107422
vt 0.1804199 0.5039063
vt 0.265625 0.5107422
vt 0.2166748 0.5136719
vt 0.2741699 0.5097656
vt 0.1503906 0.5195313
vt 0.1993408 0.5166016
vt 0.1417236 0.5209961
vt 0.3833008 0.1602783
vt 0.4335938 0.1806641
vt 0.3945313 0.1618652
vt 0.4174805 0.1832275
vt 0.3945313 0.1618652
vt 0.3203125 0.1851807
vt 0.3144531 0.1618652
vt 0.4335938 0.1806641
vt 0.3144531 0.1618652
vt 0.1911621 0.1922607
vt 0.2230225 0.1602783
vt 0.3203125 0.1851807
vt 0.2230225 0.1602783
vt 0.1751709 0.1947021
vt 0.2119141 0.1586914
vt 0.1911621 0.1922607
vt 0.2119141 0.1586914
vt 0.2883301 0.1901855
vt 0.2919922 0.1586914
vt 0.1751709 0.1947021
vt 0.2919922 0.1586914
vt 0.4174805 0.1832275
vt 0.3833008 0.1602783
vt 0.2883301 0.1901855
vt 0.4174805 0.1832275
vt 0.3830566 0.2032471
vt 0.4335938 0.1806641
vt 0.3735352 0.2055664
vt 0.4335938 0.1806641
vt 0.3149414 0.2071533
vt 0.3203125 0.1851807
vt 0.3830566 0.2032471
vt 0.3203125 0.1851807
vt 0.2369385 0.2132568
vt 0.1911621 0.1922607
vt 0.3149414 0.2071533
vt 0.1911621 0.1922607
vt 0.2272949 0.2155762
vt 0.1751709 0.1947021
vt 0.2369385 0.2132568
vt 0.1751709 0.1947021
vt 0.2956543 0.211792
vt 0.2883301 0.1901855
vt 0.2272949 0.2155762
vt 0.2883301 0.1901855
vt 0.3735352 0.2055664
vt 0.4174805 0.1832275
vt 0.2956543 0.211792
vt 0.2919922 0.1586914
vt 0.2230225 0.1602783
vt 0.2119141 0.1586914
vt 0.3833008 0.1602783
vt 0.3144531 0.1618652
vt 0.3945313 0.1618652
vt 0.2956543 0.211792
vt 0.3830566 0.2032471
vt 0.3735352 0.2055664
vt 0.3149414 0.2071533
vt 0.2272949 0.2155762
vt 0.2369385 0.2132568

g Tree_11_Green_(6)_390_80
usemtl Tree_11_Green_(6)_390_80
usemap Tree_11_Green_(6)_390_80
f 1/1/1 3/3/3 2/2/2
f 4/4/4 6/6/6 5/5/5
f 7/7/7 9/9/9 8/8/8
f 10/10/10 12/12/12 11/11/11
f 13/13/13 15/15/15 14/14/14
f 16/16/16 18/18/18 17/17/17
f 19/19/19 21/21/21 20/20/20
f 22/22/22 24/24/24 23/23/23
f 25/25/25 27/27/27 26/26/26
f 28/28/28 30/30/30 29/29/29
f 31/31/31 33/33/33 32/32/32
f 34/34/34 36/36/36 35/35/35
f 37/37/37 39/39/39 38/38/38
f 40/40/40 42/42/42 41/41/41
f 43/43/43 45/45/45 44/44/44
f 46/46/46 48/48/48 47/47/47
f 49/49/49 51/51/51 50/50/50
f 52/52/52 54/54/54 53/53/53
f 55/55/55 57/57/57 56/56/56
f 58/58/58 60/60/60 59/59/59
f 61/61/61 63/63/63 62/62/62
f 64/64/64 66/66/66 65/65/65
f 67/67/67 69/69/69 68/68/68
f 70/70/70 72/72/72 71/71/71
f 71/71/71 73/73/73 70/70/70
f 74/74/74 76/76/76 75/75/75
f 75/75/75 77/77/77 74/74/74
f 78/78/78 80/80/80 79/79/79
f 79/79/79 81/81/81 78/78/78
f 82/82/82 84/84/84 83/83/83
f 83/83/83 85/85/85 82/82/82
f 86/86/86 88/88/88 87/87/87
f 87/87/87 89/89/89 86/86/86
f 90/90/90 92/92/92 91/91/91
f 91/91/91 93/93/93 90/90/90
f 94/94/94 96/96/96 95/95/95
f 95/95/95 97/97/97 94/94/94
f 98/98/98 100/100/100 99/99/99
f 99/99/99 101/101/101 98/98/98
f 102/102/102 104/104/104 103/103/103
f 103/103/103 105/105/105 102/102/102
f 106/106/106 102/102/102 105/105/105
f 105/105/105 107/107/107 106/106/106
f 108/108/108 110/110/110 109/109/109
f 109/109/109 111/111/111 108/108/108
f 112/112/112 114/114/114 113/113/113
f 113/113/113 115/115/115 112/112/112
f 116/116/116 118/118/118 117/117/117
f 117/117/117 119/119/119 116/116/116
f 119/119/119 117/117/117 120/120/120
f 120/120/120 121/121/121 119/119/119
f 122/122/122 124/124/124 123/123/123
f 123/123/123 125/125/125 122/122/122
f 126/126/126 128/128/128 127/127/127
f 127/127/127 129/129/129 126/126/126
f 130/130/130 132/132/132 131/131/131
f 131/131/131 133/133/133 130/130/130
f 134/134/134 136/136/136 135/135/135
f 135/135/135 137/137/137 134/134/134
f 138/138/138 140/140/140 139/139/139
f 139/139/139 141/141/141 138/138/138
f 138/138/138 141/141/141 142/142/142
f 143/143/143 145/145/145 144/144/144
f 144/144/144 146/146/146 143/143/143
f 147/147/147 149/149/149 148/148/148
f 148/148/148 150/150/150 147/147/147
f 151/151/151 153/153/153 152/152/152
f 152/152/152 154/154/154 151/151/151
f 155/155/155 157/157/157 156/156/156
f 156/156/156 157/157/157 158/158/158
f 159/159/159 161/161/161 160/160/160
f 160/160/160 161/161/161 162/162/162
f 163/163/163 165/165/165 164/164/164
f 164/164/164 166/166/166 163/163/163
f 167/167/167 169/169/169 168/168/168
f 168/168/168 170/170/170 167/167/167
f 171/171/171 173/173/173 172/172/172
f 172/172/172 174/174/174 171/171/171
f 175/175/175 177/177/177 176/176/176
f 176/176/176 178/178/178 175/175/175
f 179/179/179 181/181/181 180/180/180
f 180/180/180 182/182/182 179/179/179
f 182/182/182 180/180/180 183/183/183
f 184/184/184 186/186/186 185/185/185
f 185/185/185 187/187/187 184/184/184
f 188/188/188 190/190/190 189/189/189
f 189/189/189 191/191/191 188/188/188
f 192/192/192 194/194/194 193/193/193
f 193/193/193 195/195/195 192/192/192
f 196/196/196 198/198/198 197/197/197
f 197/197/197 199/199/199 196/196/196
f 200/200/200 202/202/202 201/201/201
f 201/201/201 203/203/203 200/200/200
f 204/204/204 206/206/206 205/205/205
f 205/205/205 207/207/207 204/204/204
f 208/208/208 210/210/210 209/209/209
f 209/209/209 211/211/211 208/208/208
f 212/212/212 214/214/214 213/213/213
f 213/213/213 215/215/215 212/212/212
f 216/216/216 218/218/218 217/217/217
f 217/217/217 219/219/219 216/216/216
f 220/220/220 222/222/222 221/221/221
f 221/221/221 223/223/223 220/220/220
f 224/224/224 226/226/226 225/225/225
f 225/225/225 227/227/227 224/224/224
f 228/228/228 230/230/230 229/229/229
f 229/229/229 231/231/231 228/228/228
f 232/232/232 234/234/234 233/233/233
f 233/233/233 235/235/235 232/232/232
f 235/235/235 233/233/233 236/236/236
f 236/236/236 237/237/237 235/235/235
f 238/238/238 240/240/240 239/239/239
f 239/239/239 241/241/241 238/238/238
f 242/242/242 244/244/244 243/243/243
f 243/243/243 245/245/245 242/242/242
f 246/246/246 248/248/248 247/247/247
f 247/247/247 249/249/249 246/246/246
f 250/250/250 252/252/252 251/251/251
f 251/251/251 253/253/253 250/250/250
f 254/254/254 256/256/256 255/255/255
f 255/255/255 257/257/257 254/254/254
f 258/258/258 260/260/260 259/259/259
f 259/259/259 261/261/261 258/258/258
f 262/262/262 264/264/264 263/263/263
f 263/263/263 265/265/265 262/262/262
f 266/266/266 268/268/268 267/267/267
f 267/267/267 269/269/269 266/266/266
f 270/270/270 272/272/272 271/271/271
f 271/271/271 273/273/273 270/270/270
f 274/274/274 276/276/276 275/275/275
f 275/275/275 277/277/277 274/274/274
f 278/278/278 280/280/280 279/279/279
f 279/279/279 281/281/281 278/278/278
f 282/282/282 284/284/284 283/283/283
f 283/283/283 285/285/285 282/282/282
f 286/286/286 288/288/288 287/287/287
f 287/287/287 289/289/289 286/286/286
f 289/289/289 287/287/287 290/290/290
f 290/290/290 291/291/291 289/289/289
f 292/292/292 294/294/294 293/293/293
f 293/293/293 295/295/295 292/292/292
f 296/296/296 298/298/298 297/297/297
f 297/297/297 299/299/299 296/296/296
f 300/300/300 302/302/302 301/301/301
f 301/301/301 303/303/303 300/300/300
f 304/304/304 306/306/306 305/305/305
f 305/305/305 307/307/307 304/304/304
f 308/308/308 310/310/310 309/309/309
f 309/309/309 311/311/311 308/308/308
f 312/312/312 314/314/314 313/313/313
f 313/313/313 315/315/315 312/312/312
f 316/316/316 318/318/318 317/317/317
f 317/317/317 319/319/319 316/316/316
f 320/320/320 322/322/322 321/321/321
f 321/321/321 323/323/323 320/320/320
f 324/324/324 326/326/326 325/325/325
f 325/325/325 327/327/327 324/324/324
f 328/328/328 330/330/330 329/329/329
f 329/329/329 331/331/331 328/328/328
f 332/332/332 334/334/334 333/333/333
f 333/333/333 335/335/335 332/332/332
f 336/336/336 338/338/338 337/337/337
f 337/337/337 339/339/339 336/336/336
f 340/340/340 342/342/342 341/341/341
f 341/341/341 343/343/343 340/340/340
f 344/344/344 346/346/346 345/345/345
f 345/345/345 347/347/347 344/344/344
f 348/348/348 350/350/350 349/349/349
f 349/349/349 351/351/351 348/348/348
f 352/352/352 354/354/354 353/353/353
f 353/353/353 355/355/355 352/352/352
f 356/356/356 358/358/358 357/357/357
f 357/357/357 359/359/359 356/356/356
f 360/360/360 362/362/362 361/361/361
f 361/361/361 363/363/363 360/360/360
f 364/364/364 366/366/366 365/365/365
f 365/365/365 367/367/367 364/364/364
f 368/368/368 370/370/370 369/369/369
f 369/369/369 371/371/371 368/368/368
f 372/372/372 374/374/374 373/373/373
f 373/373/373 375/375/375 372/372/372
f 376/376/376 378/378/378 377/377/377
f 377/377/377 379/379/379 376/376/376
f 380/380/380 382/382/382 381/381/381
f 381/381/381 383/383/383 380/380/380
f 384/384/384 386/386/386 385/385/385
f 385/385/385 387/387/387 384/384/384
f 388/388/388 390/390/390 389/389/389
f 389/389/389 391/391/391 388/388/388
f 391/391/391 389/389/389 392/392/392
f 392/392/392 393/393/393 391/391/391
f 394/394/394 396/396/396 395/395/395
f 395/395/395 397/397/397 394/394/394
f 398/398/398 400/400/400 399/399/399
f 399/399/399 401/401/401 398/398/398
f 402/402/402 404/404/404 403/403/403
f 403/403/403 405/405/405 402/402/402
f 406/406/406 408/408/408 407/407/407
f 407/407/407 409/409/409 406/406/406
f 410/410/410 412/412/412 411/411/411
f 411/411/411 413/413/413 410/410/410
f 414/414/414 416/416/416 415/415/415
f 415/415/415 417/417/417 414/414/414
f 418/418/418 420/420/420 419/419/419
f 419/419/419 421/421/421 418/418/418
f 422/422/422 424/424/424 423/423/423
f 423/423/423 425/425/425 422/422/422
f 426/426/426 428/428/428 427/427/427
f 427/427/427 429/429/429 426/426/426
f 430/430/430 432/432/432 431/431/431
f 431/431/431 433/433/433 430/430/430
f 434/434/434 436/436/436 435/435/435
f 435/435/435 437/437/437 434/434/434
f 438/438/438 440/440/440 439/439/439
f 439/439/439 441/441/441 438/438/438
f 442/442/442 438/438/438 441/441/441
f 441/441/441 443/443/443 442/442/442
f 444/444/444 446/446/446 445/445/445
f 445/445/445 447/447/447 444/444/444
f 448/448/448 450/450/450 449/449/449
f 449/449/449 451/451/451 448/448/448
f 452/452/452 454/454/454 453/453/453
f 453/453/453 455/455/455 452/452/452
f 456/456/456 458/458/458 457/457/457
f 457/457/457 459/459/459 456/456/456
f 460/460/460 462/462/462 461/461/461
f 461/461/461 463/463/463 460/460/460
f 464/464/464 466/466/466 465/465/465
f 465/465/465 467/467/467 464/464/464
f 468/468/468 470/470/470 469/469/469
f 469/469/469 471/471/471 468/468/468
f 472/472/472 474/474/474 473/473/473
f 473/473/473 475/475/475 472/472/472
f 476/476/476 478/478/478 477/477/477
f 477/477/477 479/479/479 476/476/476
f 480/480/480 482/482/482 481/481/481
f 481/481/481 483/483/483 480/480/480
f 484/484/484 486/486/486 485/485/485
f 485/485/485 487/487/487 484/484/484
f 488/488/488 490/490/490 489/489/489
f 489/489/489 491/491/491 488/488/488
f 492/492/492 494/494/494 493/493/493
f 493/493/493 495/495/495 492/492/492
f 495/495/495 493/493/493 496/496/496
f 496/496/496 497/497/497 495/495/495
f 498/498/498 500/500/500 499/499/499
f 499/499/499 501/501/501 498/498/498
f 502/502/502 504/504/504 503/503/503
f 503/503/503 505/505/505 502/502/502
f 506/506/506 508/508/508 507/507/507
f 507/507/507 509/509/509 506/506/506
f 510/510/510 512/512/512 511/511/511
f 511/511/511 513/513/513 510/510/510
f 514/514/514 516/516/516 515/515/515
f 515/515/515 517/517/517 514/514/514
f 518/518/518 520/520/520 519/519/519
f 519/519/519 521/521/521 518/518/518
f 522/522/522 524/524/524 523/523/523
f 523/523/523 525/525/525 522/522/522
f 526/526/526 528/528/528 527/527/527
f 527/527/527 529/529/529 526/526/526
f 530/530/530 532/532/532 531/531/531
f 531/531/531 533/533/533 530/530/530
f 534/534/534 536/536/536 535/535/535
f 535/535/535 537/537/537 534/534/534
f 538/538/538 540/540/540 539/539/539
f 539/539/539 541/541/541 538/538/538
f 542/542/542 544/544/544 543/543/543
f 543/543/543 545/545/545 542/542/542
f 546/546/546 548/548/548 547/547/547
f 547/547/547 549/549/549 546/546/546
f 550/550/550 546/546/546 549/549/549
f 549/549/549 551/551/551 550/550/550
f 552/552/552 554/554/554 553/553/553
f 553/553/553 555/555/555 552/552/552
f 556/556/556 558/558/558 557/557/557
f 557/557/557 559/559/559 556/556/556
f 560/560/560 562/562/562 561/561/561
f 561/561/561 563/563/563 560/560/560
f 564/564/564 566/566/566 565/565/565
f 565/565/565 567/567/567 564/564/564
f 568/568/568 570/570/570 569/569/569
f 569/569/569 571/571/571 568/568/568
f 572/572/572 574/574/574 573/573/573
f 573/573/573 575/575/575 572/572/572
f 576/576/576 578/578/578 577/577/577
f 577/577/577 579/579/579 576/576/576
f 580/580/580 582/582/582 581/581/581
f 581/581/581 583/583/583 580/580/580
f 584/584/584 586/586/586 585/585/585
f 585/585/585 587/587/587 584/584/584
f 588/588/588 590/590/590 589/589/589
f 589/589/589 591/591/591 588/588/588
f 592/592/592 594/594/594 593/593/593
f 593/593/593 595/595/595 592/592/592
f 596/596/596 598/598/598 597/597/597
f 597/597/597 599/599/599 596/596/596
f 600/600/600 602/602/602 601/601/601
f 601/601/601 603/603/603 600/600/600
f 603/603/603 601/601/601 604/604/604
f 604/604/604 605/605/605 603/603/603
f 606/606/606 608/608/608 607/607/607
f 607/607/607 609/609/609 606/606/606
f 610/610/610 606/606/606 609/609/609
f 609/609/609 611/611/611 610/610/610
