#Tree_06_(11)_467_48.obj

v 0.2514985 -0.6991792 1.816888
v 0.6453677 -1.000071 2.053999
v 0.6422303 -0.9614299 2.080755
v 0.6453677 -1.000071 2.053999
v 0.2514985 -0.6991792 1.816888
v 0.2381232 -0.7664144 1.7669
v 0.2265327 -0.6511593 1.766318
v 0.6422303 -0.9614299 2.080755
v 0.6118614 -0.9601018 2.116739
v 0.6422303 -0.9614299 2.080755
v 0.2265327 -0.6511593 1.766318
v 0.2514985 -0.6991792 1.816888
v 0.5846334 -0.9974155 2.125969
v 0.2265327 -0.6511593 1.766318
v 0.6118614 -0.9601018 2.116739
v 0.2265327 -0.6511593 1.766318
v 0.5846334 -0.9974155 2.125969
v 0.1881896 -0.7205513 1.796528
v 0.5877743 -1.036058 2.099213
v 0.1881896 -0.7205513 1.796528
v 0.5846334 -0.9974155 2.125969
v 0.1881896 -0.7205513 1.796528
v 0.5877743 -1.036058 2.099213
v 0.1748109 -0.7877865 1.746542
v 0.6181431 -1.037385 2.06323
v 0.1748109 -0.7877865 1.746542
v 0.5877743 -1.036058 2.099213
v 0.1748109 -0.7877865 1.746542
v 0.6181431 -1.037385 2.06323
v 0.19978 -0.835806 1.797112
v 0.2381232 -0.7664144 1.7669
v 0.6181431 -1.037385 2.06323
v 0.6453677 -1.000071 2.053999
v 0.6181431 -1.037385 2.06323
v 0.2381232 -0.7664144 1.7669
v 0.19978 -0.835806 1.797112
v -0.9728607 0.502397 2.540282
v -0.8487297 0.1826442 2.407863
v -0.8604268 0.2368041 2.305744
v -0.8487297 0.1826442 2.407863
v -0.9728607 0.502397 2.540282
v -0.8922052 0.4537731 2.572353
v -0.788826 0.4021412 2.517352
v -0.7767401 0.2848826 2.268867
v -0.7923614 0.1916924 2.397731
v -0.7767401 0.2848826 2.268867
v -0.788826 0.4021412 2.517352
v -0.8265769 0.4024137 2.363517
v -0.7381151 0.07393318 3.112648
v -0.6390102 -0.008743908 2.916964
v -0.7158951 0.005310112 3.077405
v -0.6304314 0.03759275 2.922344
v -0.6942443 0.07659713 2.86637
v -0.6390102 -0.008743908 2.916964
v -0.6942443 0.07659713 2.86637
v -0.6304314 0.03759275 2.922344
v -0.7214555 0.1364324 2.856302
v 0.3682911 -0.8928909 2.016426
v 0.4120793 -0.9477977 2.013025
v 0.3393295 -0.923067 2.00292
v 0.401729 -0.7853169 1.923197
v 0.2747676 -0.7471124 1.962428
v 0.2969922 -0.7200513 1.813807
v 0.2747676 -0.7471124 1.962428
v 0.401729 -0.7853169 1.923197
v 0.3124011 -0.8021567 1.972101
v 0.4726161 -0.8983775 2.007884
v 0.2320335 -0.8645697 1.83398
v 0.4120793 -0.9477977 2.013025
v 0.2320335 -0.8645697 1.83398
v 0.401729 -0.7853169 1.923197
v 0.2969922 -0.7200513 1.813807
v 0.4726161 -0.8983775 2.007884
v 0.401729 -0.7853169 1.923197
v 0.2320335 -0.8645697 1.83398
v 0.3682911 -0.8928909 2.016426
v 0.2747676 -0.7471124 1.962428
v 0.3124011 -0.8021567 1.972101
v -0.09396648 -0.2286734 1.383583
v 0.05985213 -0.5657347 1.76775
v 0.07010646 -0.6429518 1.64099
v 0.05985213 -0.5657347 1.76775
v -0.09396648 -0.2286734 1.383583
v 0.02193786 -0.2633517 1.543051
v 0.8127303 0.7007558 1.843931
v 0.8436877 0.6774158 1.757191
v 0.8235268 0.6272908 1.843931
v 0.8436877 0.6774158 1.757191
v 0.8127303 0.7007558 1.843931
v 0.8781265 0.7779869 1.783051
v 0.1048187 -0.0351111 1.566176
v -0.5006623 0.06507893 2.195878
v -0.572662 0.0948086 2.186091
v -0.5006623 0.06507893 2.195878
v 0.1048187 -0.0351111 1.566176
v -0.006831549 -0.07823895 1.740156
v -0.5449793 0.005498359 2.195878
v -0.572662 0.0948086 2.186091
v -0.5006623 0.06507893 2.195878
v -0.572662 0.0948086 2.186091
v -0.5449793 0.005498359 2.195878
v -0.6458286 -0.002872391 2.134998
v 0.4978454 0.5551324 1.594591
v 0.5728523 0.5230884 1.636423
v 0.3849641 0.4444487 1.593928
v 0.311748 1.916051E-07 3.519614E-23
v 0.1428771 0.1926837 0.6786004
v 0.1558734 0.2699815 4.959317E-17
v 0.2734301 -0.02979309 0.7166381
v 0.05243958 0.1153857 1.411715
v 0.1576745 -0.05958624 1.48779
v -0.4076201 0.04344445 2.046885
v -0.4653523 0.1932993 1.96963
v -0.6104057 0.1464755 2.368714
v -0.6824229 0.271213 2.368714
v -0.4460335 0.1084071 3.166455
v -0.4100298 0.03228026 3.141246
v 0.1558734 0.2699815 4.959317E-17
v -0.1182324 0.1853856 0.6513638
v -0.1558747 0.2699817 4.959322E-17
v 0.1428771 0.1926837 0.6786004
v -0.1580279 0.10079 1.357242
v 0.05243958 0.1153857 1.411715
v -0.4653523 0.1932993 1.96963
v -0.6052384 0.1860015 1.857417
v -0.6824229 0.271213 2.368714
v -0.8264579 0.2712127 2.368714
v -0.5180392 0.1084071 3.216874
v -0.4460335 0.1084071 3.166455
v -0.1182324 0.1853856 0.6513638
v -0.311748 -1.916051E-07 -3.519614E-23
v -0.1558747 0.2699817 4.959322E-17
v -0.2487854 -0.04438892 0.6621652
v -0.1580279 0.10079 1.357242
v -0.2632605 -0.08877836 1.378844
v -0.6052384 0.1860015 1.857417
v -0.687389 0.02884861 1.822459
v -0.8264579 0.2712127 2.368714
v -0.8984756 0.1464754 2.368714
v -0.5540411 0.03228028 3.242085
v -0.5180392 0.1084071 3.216874
v -0.2487854 -0.04438892 0.6621652
v -0.1558734 -0.2699815 -4.959317E-17
v -0.311748 -1.916051E-07 -3.519614E-23
v -0.1182323 -0.2668661 0.7002029
v -0.2632605 -0.08877836 1.378844
v -0.1580256 -0.2637503 1.45492
v -0.6296569 -0.1210062 1.899713
v -0.687389 0.02884861 1.822459
v -0.8264585 0.02173788 2.368714
v -0.8984756 0.1464754 2.368714
v -0.5180373 -0.04384658 3.216874
v -0.5540411 0.03228028 3.242085
v -0.1182323 -0.2668661 0.7002029
v 0.1558747 -0.2699817 -4.959322E-17
v -0.1558734 -0.2699815 -4.959317E-17
v 0.1428772 -0.259568 0.7274393
v -0.1580256 -0.2637503 1.45492
v 0.05243854 -0.2491542 1.509393
v -0.4897707 -0.1137085 2.011926
v -0.6296569 -0.1210062 1.899713
v -0.6824235 0.02173774 2.368714
v -0.8264585 0.02173788 2.368714
v -0.4460317 -0.04384658 3.166455
v -0.5180373 -0.04384658 3.216874
v 0.1558747 -0.2699817 -4.959322E-17
v 0.2734301 -0.02979309 0.7166381
v 0.311748 1.916051E-07 3.519614E-23
v 0.1428772 -0.259568 0.7274393
v 0.1576745 -0.05958624 1.48779
v 0.05243854 -0.2491542 1.509393
v -0.4076201 0.04344445 2.046885
v -0.4897707 -0.1137085 2.011926
v -0.6104057 0.1464755 2.368714
v -0.6824235 0.02173774 2.368714
v -0.4100298 0.03228026 3.141246
v -0.4460317 -0.04384658 3.166455
v -0.5180392 0.1084071 3.216874
v -0.5180373 -0.04384658 3.216874
v -0.5540411 0.03228028 3.242085
v -0.4460335 0.1084071 3.166455
v -0.4460317 -0.04384658 3.166455
v -0.4100298 0.03228026 3.141246
v -0.5773628 0.0825443 2.82145
v -0.9303764 0.06062462 3.143831
v -0.5949994 0.1543694 2.772995
v -0.9045996 0.01678999 3.161881
v -0.5949994 0.1543694 2.772995
v -0.9819328 0.06062429 3.107731
v -0.6302695 0.1543695 2.676088
v -0.9303764 0.06062462 3.143831
v -0.6302695 0.1543695 2.676088
v -1.007709 0.01678981 3.089682
v -0.6479064 0.0825443 2.627634
v -0.9819328 0.06062429 3.107731
v -0.6479064 0.0825443 2.627634
v -0.9819322 -0.02704482 3.107731
v -0.6302698 0.01071916 2.676088
v -1.007709 0.01678981 3.089682
v -0.6302698 0.01071916 2.676088
v -0.9303758 -0.02704492 3.143831
v -0.5949997 0.01071914 2.772995
v -0.9819322 -0.02704482 3.107731
v -0.5949997 0.01071914 2.772995
v -0.9045996 0.01678999 3.161881
v -0.5773628 0.0825443 2.82145
v -0.9303758 -0.02704492 3.143831
v -0.9819328 0.06062429 3.107731
v -0.9819322 -0.02704482 3.107731
v -1.007709 0.01678981 3.089682
v -0.9303764 0.06062462 3.143831
v -0.9303758 -0.02704492 3.143831
v -0.9045996 0.01678999 3.161881
v -0.6602595 0.1540793 2.008635
v -0.9596097 0.4482019 2.336961
v -0.7300022 0.07173346 2.039906
v -0.9071586 0.4987167 2.307436
v -1.003026 0.6595643 2.693948
v -0.9798264 0.6918145 2.6817
v -0.7300022 0.07173346 2.039906
v -0.9394969 0.4009643 2.396447
v -0.7119943 0.01631389 2.135962
v -0.9596097 0.4482019 2.336961
v -0.9855106 0.6279944 2.714561
v -1.003026 0.6595643 2.693948
v -0.7119943 0.01631389 2.135962
v -0.8669296 0.4042424 2.42641
v -0.6242437 0.0432402 2.200749
v -0.9394969 0.4009643 2.396447
v -0.9447931 0.6286755 2.722925
v -0.9855106 0.6279944 2.714561
v -0.6242437 0.0432402 2.200749
v -0.8144751 0.4547572 2.396889
v -0.5545011 0.1255861 2.169479
v -0.8669296 0.4042424 2.42641
v -0.9215906 0.6609258 2.710677
v -0.9447931 0.6286755 2.722925
v -0.5545011 0.1255861 2.169479
v -0.8345913 0.5019947 2.337402
v -0.5725089 0.1810061 2.073422
v -0.8144751 0.4547572 2.396889
v -0.939109 0.6924957 2.690065
v -0.9215906 0.6609258 2.710677
v -0.5725089 0.1810061 2.073422
v -0.9071586 0.4987167 2.307436
v -0.6602595 0.1540793 2.008635
v -0.8345913 0.5019947 2.337402
v -0.9798264 0.6918145 2.6817
v -0.939109 0.6924957 2.690065
v -0.9855106 0.6279944 2.714561
v -0.9215906 0.6609258 2.710677
v -0.9447931 0.6286755 2.722925
v -1.003026 0.6595643 2.693948
v -0.939109 0.6924957 2.690065
v -0.9798264 0.6918145 2.6817
v -0.003042591 -0.2429987 1.140666
v 0.292422 -0.6375099 1.518534
v 0.1501999 -0.1642176 1.205792
v 0.1939321 -0.6804753 1.461254
v 0.1818018 -0.990114 2.060861
v 0.2755333 -0.9319322 2.096819
v -0.004425543 -0.9903099 2.552495
v 0.04687533 -0.95834 2.574782
v 0.1501999 -0.1642176 1.205792
v 0.2837299 -0.5381454 1.588375
v 0.1388453 -0.03446196 1.336043
v 0.292422 -0.6375099 1.518534
v 0.2755333 -0.9319322 2.096819
v 0.2666999 -0.8203889 2.122978
v 0.1388453 -0.03446196 1.336043
v 0.1765481 -0.4817459 1.600938
v -0.02574835 0.01651263 1.401169
v 0.2837299 -0.5381454 1.588375
v 0.2666999 -0.8203889 2.122978
v 0.1641317 -0.7670264 2.113184
v -0.0152717 -0.8663278 2.585843
v 0.04145057 -0.8963495 2.591453
v -0.02574835 0.01651263 1.401169
v 0.07805826 -0.5247109 1.543661
v -0.1789908 -0.06226891 1.336043
v 0.1765481 -0.4817459 1.600938
v 0.0704002 -0.825206 2.077229
v 0.1641317 -0.7670264 2.113184
v -0.06657258 -0.8982973 2.563558
v -0.0152717 -0.8663278 2.585843
v -0.1789908 -0.06226891 1.336043
v 0.08675027 -0.6240754 1.473819
v -0.1676362 -0.1920246 1.205791
v 0.07805826 -0.5247109 1.543661
v 0.07923355 -0.9367497 2.051068
v 0.0704002 -0.825206 2.077229
v -0.06114782 -0.9602874 2.546884
v -0.06657258 -0.8982973 2.563558
v -0.1676362 -0.1920246 1.205791
v 0.1939321 -0.6804753 1.461254
v -0.003042591 -0.2429987 1.140666
v 0.08675027 -0.6240754 1.473819
v 0.07923355 -0.9367497 2.051068
v 0.1818018 -0.990114 2.060861
v -0.06114782 -0.9602874 2.546884
v -0.004425543 -0.9903099 2.552495
v 0.04145057 -0.8963495 2.591453
v -0.06657258 -0.8982973 2.563558
v -0.0152717 -0.8663278 2.585843
v 0.04687533 -0.95834 2.574782
v -0.06114782 -0.9602874 2.546884
v -0.004425543 -0.9903099 2.552495
v 0.2666999 -0.8203889 2.122978
v 0.04687533 -0.95834 2.574782
v 0.04145057 -0.8963495 2.591453
v 0.2755333 -0.9319322 2.096819
v 0.6118614 -0.9601018 2.116739
v 0.5877743 -1.036058 2.099213
v 0.5846334 -0.9974155 2.125969
v 0.6422303 -0.9614299 2.080755
v 0.6181431 -1.037385 2.06323
v 0.6453677 -1.000071 2.053999
v 0.1316118 -0.03875423 1.008595
v 0.540886 0.5793729 1.315461
v 0.03238037 0.09817593 1.01851
v 0.6446309 0.5116746 1.313367
v 1.076965 0.8698114 1.809313
v 1.000193 0.9594684 1.811852
v 0.03238037 0.09817593 1.01851
v 0.4670311 0.576488 1.414893
v -0.09465061 0.1027891 1.130477
v 0.540886 0.5793729 1.315461
v 1.000193 0.9594684 1.811852
v 0.8875416 0.9385821 1.835169
v 0.9945332 0.9418285 2.46778
v 0.9318048 0.9303816 2.482963
v -0.09465061 0.1027891 1.130477
v 0.4969177 0.5059075 1.512232
v -0.1224502 -0.02952697 1.232531
v 0.4670311 0.576488 1.414893
v 0.8875416 0.9385821 1.835169
v 0.8516631 0.8280405 1.855954
v 0.9114714 0.8690961 2.494249
v 0.9318048 0.9303816 2.482963
v -0.1224502 -0.02952697 1.232531
v 0.6006592 0.4382113 1.51014
v -0.0232187 -0.1664571 1.222616
v 0.4969177 0.5059075 1.512232
v 0.9284358 0.7383835 1.853417
v 0.8516631 0.8280405 1.855954
v -0.0232187 -0.1664571 1.222616
v 0.6745175 0.4410947 1.410708
v 0.1038123 -0.1710712 1.110647
v 0.6006592 0.4382113 1.51014
v 1.041087 0.7592693 1.830097
v 0.9284358 0.7383835 1.853417
v 1.016598 0.8307029 2.475162
v 0.9538698 0.8192568 2.490346
v 0.1038123 -0.1710712 1.110647
v 0.6446309 0.5116746 1.313367
v 0.1316118 -0.03875423 1.008595
v 0.6745175 0.4410947 1.410708
v 1.041087 0.7592693 1.830097
v 1.076965 0.8698114 1.809313
v 1.016598 0.8307029 2.475162
v 1.036932 0.8919888 2.463876
v 0.9318048 0.9303816 2.482963
v 0.9538698 0.8192568 2.490346
v 0.9114714 0.8690961 2.494249
v 0.9945332 0.9418285 2.46778
v 1.016598 0.8307029 2.475162
v 1.036932 0.8919888 2.463876
v 1.000193 0.9594684 1.811852
v 1.036932 0.8919888 2.463876
v 0.9945332 0.9418285 2.46778
v 1.076965 0.8698114 1.809313
v 0.9538698 0.8192568 2.490346
v 0.8516631 0.8280405 1.855954
v 0.9114714 0.8690961 2.494249
v 0.9284358 0.7383835 1.853417
v 0.7421166 0.1956514 2.013897
v 0.7461008 0.09001523 1.993628
v 0.7135924 0.1406418 2.009185
v 0.8031492 0.2000341 2.003055
v 0.8071335 0.09439876 1.982785
v 0.8356577 0.149408 1.987497
v 0.7400478 0.2011628 1.592859
v 0.3496632 0.3378129 1.230649
v 0.3814199 0.24613 1.174844
v 0.7016824 0.2962736 1.626723
v 0.8356577 0.149408 1.987497
v 0.8031492 0.2000341 2.003055
v 0.7016824 0.2962736 1.626723
v 0.2643094 0.3323391 1.30116
v 0.3496632 0.3378129 1.230649
v 0.6207305 0.2903706 1.667941
v 0.8031492 0.2000341 2.003055
v 0.7421166 0.1956514 2.013897
v 0.6207305 0.2903706 1.667941
v 0.2107157 0.2351829 1.315871
v 0.2643094 0.3323391 1.30116
v 0.5781438 0.1893567 1.675302
v 0.7421166 0.1956514 2.013897
v 0.7135924 0.1406418 2.009185
v 0.2107157 0.2351829 1.315871
v 0.6165058 0.09424498 1.641442
v 0.2424758 0.1434996 1.260069
v 0.5781438 0.1893567 1.675302
v 0.7461008 0.09001523 1.993628
v 0.7135924 0.1406418 2.009185
v 0.2424758 0.1434996 1.260069
v 0.6974577 0.1001484 1.600221
v 0.3278262 0.1489733 1.189556
v 0.6165058 0.09424498 1.641442
v 0.8071335 0.09439876 1.982785
v 0.7461008 0.09001523 1.993628
v 0.3278262 0.1489733 1.189556
v 0.7400478 0.2011628 1.592859
v 0.3814199 0.24613 1.174844
v 0.6974577 0.1001484 1.600221
v 0.8356577 0.149408 1.987497
v 0.8071335 0.09439876 1.982785
v 0.0835012 0.1740081 1.434738
v 0.4306101 0.1514668 1.540931
v 0.148342 0.03657997 1.434738
v 0.4198136 0.2249314 1.540931
v 0.1956394 0.2617081 1.504217
v 0.1448438 -0.08434788 1.27527
v 0.4306101 0.1514668 1.540931
v 0.5025418 0.181355 1.414171
v 0.148342 0.03657997 1.434738
v 0.4198136 0.2249314 1.540931
v 0.5025418 0.181355 1.414171
v 0.4306101 0.1514668 1.540931
v 0.4852098 0.3021629 1.363077
v 0.2004371 0.3181605 1.27527
v 0.0835012 0.1740081 1.434738
v 0.01609467 0.1574465 1.173083
v 0.1956394 0.2617081 1.504217
v 0.01609467 0.1574465 1.173083
v 0.148342 0.03657997 1.434738
v 0.1448438 -0.08434788 1.27527
v 0.0835012 0.1740081 1.434738
v 0.1956394 0.2617081 1.504217
v 0.4852098 0.3021629 1.363077
v 0.4198136 0.2249314 1.540931
v 0.2004371 0.3181605 1.27527
v -0.8160532 0.5149693 2.581771
v -0.8487297 0.1826442 2.407863
v -0.8922052 0.4537731 2.572353
v -0.7923614 0.1916924 2.397731
v -0.788826 0.4021412 2.517352
v -0.7923614 0.1916924 2.397731
v -0.8604268 0.2368041 2.305744
v -0.8487297 0.1826442 2.407863
v -0.7767401 0.2848826 2.268867
v -0.8265769 0.4024137 2.363517
v -0.8160532 0.5149693 2.581771
v -0.8774384 0.5620582 2.526276
v -0.788826 0.4021412 2.517352
v -0.8774384 0.5620582 2.526276
v -0.8922052 0.4537731 2.572353
v -0.9728607 0.502397 2.540282
v -0.8160532 0.5149693 2.581771
v -0.6390102 -0.008743908 2.916964
v -0.7381151 0.07393318 3.112648
v -0.6304314 0.03759275 2.922344
v -0.6889896 0.0786179 3.050777
v -0.8504595 -0.003728753 3.028817
v -0.6390102 -0.008743908 2.916964
v -0.6942443 0.07659713 2.86637
v -0.7158951 0.005310112 3.077405
v -0.7881898 0.08214942 2.959609
v -0.7381151 0.07393318 3.112648
v -0.882093 0.06171805 3.03543
v -0.6889896 0.0786179 3.050777
v -0.882093 0.06171805 3.03543
v -0.7158951 0.005310112 3.077405
v -0.8504595 -0.003728753 3.028817
v -0.7381151 0.07393318 3.112648
v -0.6889896 0.0786179 3.050777
v -0.7214555 0.1364324 2.856302
v -0.6304314 0.03759275 2.922344
v -0.7881898 0.08214942 2.959609
v 0.2747676 -0.7471124 1.962428
v 0.3393295 -0.923067 2.00292
v 0.2343294 -0.82521 1.94357
v 0.3682911 -0.8928909 2.016426
v 0.2320335 -0.8645697 1.83398
v 0.3393295 -0.923067 2.00292
v 0.4120793 -0.9477977 2.013025
v 0.2343294 -0.82521 1.94357
v 0.4120793 -0.9477977 2.013025
v 0.3682911 -0.8928909 2.016426
v 0.4726161 -0.8983775 2.007884
v 0.3124011 -0.8021567 1.972101
v 0.401729 -0.7853169 1.923197
v 0.2969922 -0.7200513 1.813807
v 0.2343294 -0.82521 1.94357
v 0.2320335 -0.8645697 1.83398
v 0.2747676 -0.7471124 1.962428
v 0.1714643 -0.2362883 1.543051
v 0.05985213 -0.5657347 1.76775
v 0.02193786 -0.2633517 1.543051
v 0.1336095 -0.5743219 1.767751
v 0.2271515 -0.3673028 1.731037
v 0.1336095 -0.5743219 1.767751
v 0.07010646 -0.6429518 1.64099
v 0.05985213 -0.5657347 1.76775
v 0.1912837 -0.6574762 1.589897
v 0.2804398 -0.3865481 1.51793
v 0.1714643 -0.2362883 1.543051
v 0.1729128 -0.1668915 1.417045
v 0.2271515 -0.3673028 1.731037
v 0.1729128 -0.1668915 1.417045
v 0.02193786 -0.2633517 1.543051
v -0.09396648 -0.2286734 1.383583
v 0.1714643 -0.2362883 1.543051
v 0.2271515 -0.3673028 1.731037
v 0.1912837 -0.6574762 1.589897
v 0.1336095 -0.5743219 1.767751
v 0.2804398 -0.3865481 1.51793
v 0.8436877 0.6774158 1.757191
v 0.6297552 0.4818028 1.605603
v 0.8235268 0.6272908 1.843931
v 0.6156113 0.4521435 1.506064
v 0.4359837 0.3363147 1.532287
v 0.3875316 0.2268707 1.419949
v 0.4554372 0.5611303 1.438508
v 0.3849641 0.4444487 1.593928
v 0.2953501 0.3999924 1.346784
v 0.4978454 0.5551324 1.594591
v 0.6155243 0.7222682 1.695243
v 0.6107266 0.6658162 1.760267
v 0.2953501 0.3999924 1.346784
v 0.4359837 0.3363147 1.532287
v 0.3875316 0.2268707 1.419949
v 0.3849641 0.4444487 1.593928
v 0.6107266 0.6658162 1.760267
v 0.8781265 0.7779869 1.783051
v 0.8127303 0.7007558 1.843931
v 0.6155243 0.7222682 1.695243
v 0.6107266 0.6658162 1.760267
v 0.5728523 0.5230884 1.636423
v 0.4978454 0.5551324 1.594591
v 0.8127303 0.7007558 1.843931
v 0.8235268 0.6272908 1.843931
v 0.6297552 0.4818028 1.605603
v 0.3849641 0.4444487 1.593928
v 0.4359837 0.3363147 1.532287
v -0.04721703 -0.1907781 1.740156
v -0.5006623 0.06507893 2.195878
v -0.006831549 -0.07823895 1.740156
v -0.5449793 0.005498359 2.195878
v -0.3774316 -0.1126344 2.006941
v -0.4207425 -0.1491598 1.941918
v -0.04721703 -0.1907781 1.740156
v 0.0475879 -0.2227096 1.493012
v -0.3774316 -0.1126344 2.006941
v 0.0475879 -0.2227096 1.493012
v -0.006831549 -0.07823895 1.740156
v 0.1048187 -0.0351111 1.566176
v -0.04721703 -0.1907781 1.740156
v -0.3774316 -0.1126344 2.006941
v -0.6458286 -0.002872391 2.134998
v -0.5449793 0.005498359 2.195878
v -0.4207425 -0.1491598 1.941918

vn 0.6928711 -0.5698242 -0.4418945
vn 0.6928711 -0.5698242 -0.4418945
vn 0.6928711 -0.5698242 -0.4418945
vn 0.6704102 -0.6557617 -0.3466797
vn 0.6704102 -0.6557617 -0.3466797
vn 0.6704102 -0.6557617 -0.3466797
vn 0.416748 0.3110352 -0.8540039
vn 0.416748 0.3110352 -0.8540039
vn 0.416748 0.3110352 -0.8540039
vn -0.04202271 -0.6796875 0.7324219
vn -0.04202271 -0.6796875 0.7324219
vn -0.04202271 -0.6796875 0.7324219
vn -0.3566895 0.8081055 -0.46875
vn -0.3566895 0.8081055 -0.46875
vn -0.3566895 0.8081055 -0.46875
vn -0.2978516 0.800293 -0.5205078
vn -0.2978516 0.800293 -0.5205078
vn -0.2978516 0.800293 -0.5205078
vn -0.7407227 0.527832 0.4160156
vn -0.7407227 0.527832 0.4160156
vn -0.7407227 0.527832 0.4160156
vn -0.7226563 0.6186523 0.3078613
vn -0.7226563 0.6186523 0.3078613
vn -0.7226563 0.6186523 0.3078613
vn -0.345459 -0.2485352 0.9047852
vn -0.345459 -0.2485352 0.9047852
vn -0.345459 -0.2485352 0.9047852
vn -0.1141357 0.7143555 -0.6904297
vn -0.1141357 0.7143555 -0.6904297
vn -0.1141357 0.7143555 -0.6904297
vn 0.3244629 -0.831543 0.4506836
vn 0.3244629 -0.831543 0.4506836
vn 0.3244629 -0.831543 0.4506836
vn 0.2685547 -0.8164063 0.5107422
vn 0.2685547 -0.8164063 0.5107422
vn 0.2685547 -0.8164063 0.5107422
vn -0.7099609 0.5166016 0.4785156
vn -0.9301758 0.04174805 0.3649902
vn -0.9433594 -0.07037354 0.3237305
vn -0.9301758 0.04174805 0.3649902
vn -0.7099609 0.5166016 0.4785156
vn -0.5673828 0.6645508 0.486084
vn 0.9775391 -0.05484009 -0.2045898
vn 0.9169922 -0.2792969 0.2851563
vn 0.6489258 -0.3342285 0.6835938
vn 0.9169922 -0.2792969 0.2851563
vn 0.9775391 -0.05484009 -0.2045898
vn 0.8383789 -0.2032471 -0.5058594
vn 0.8676758 0.4748535 0.1469727
vn 0.8496094 0.4990234 0.1705322
vn 0.902832 0.4257813 -0.06216431
vn 0.8115234 -0.4680176 -0.3496094
vn 0.7099609 -0.6835938 -0.1685791
vn 0.6474609 -0.7607422 0.03970337
vn 0.7099609 -0.6835938 -0.1685791
vn 0.8115234 -0.4680176 -0.3496094
vn 0.4770508 0.006896973 -0.8789063
vn -0.004764557 0.9853516 -0.1695557
vn 0.0008015633 0.9980469 0.06060791
vn -0.2115479 0.9516602 0.2229004
vn 0.3913574 0.4450684 -0.8056641
vn 0.3974609 0.5029297 -0.7675781
vn 0.3535156 0.2176514 -0.909668
vn 0.3974609 0.5029297 -0.7675781
vn 0.3913574 0.4450684 -0.8056641
vn 0.3840332 0.8320313 -0.4006348
vn 0.4118652 -0.6938477 0.5908203
vn 0.4118652 -0.6938477 0.5908203
vn 0.4118652 -0.6938477 0.5908203
vn 0.5551758 -0.7485352 0.3630371
vn 0.5551758 -0.7485352 0.3630371
vn 0.5551758 -0.7485352 0.3630371
vn 0.5380859 -0.7998047 0.2661133
vn 0.5380859 -0.7998047 0.2661133
vn 0.5380859 -0.7998047 0.2661133
vn -0.4130859 0.9077148 -0.07562256
vn -0.3613281 0.9248047 -0.1187744
vn 0.8056641 0.1728516 -0.5664063
vn -0.8666992 0.4743652 -0.1551514
vn -0.9599609 0.2086182 0.1872559
vn -0.9492188 0.1099854 0.2944336
vn -0.9599609 0.2086182 0.1872559
vn -0.8666992 0.4743652 -0.1551514
vn -0.7133789 0.5991211 -0.3640137
vn 0.5161133 0.7197266 -0.4643555
vn 0.9042969 0.3752441 0.2026367
vn 0.9458008 0.2995605 -0.1269531
vn 0.9042969 0.3752441 0.2026367
vn 0.5161133 0.7197266 -0.4643555
vn 0.3039551 0.8608398 -0.407959
vn 0.6328125 0.5068359 -0.5854492
vn 0.3813477 0.2120361 -0.8999023
vn 0.3632813 0.192749 -0.9116211
vn 0.3813477 0.2120361 -0.8999023
vn 0.6328125 0.5068359 -0.5854492
vn 0.6630859 0.5493164 -0.5078125
vn -0.3256836 0.8276367 0.456543
vn -0.3347168 0.9423828 -0.003629684
vn -0.1021729 0.9916992 -0.07800293
vn -0.3347168 0.9423828 -0.003629684
vn -0.3256836 0.8276367 0.456543
vn -0.3339844 0.6699219 0.6630859
vn -0.4560547 0.8852539 -0.09112549
vn -0.2893066 0.8208008 0.4926758
vn -0.05145264 0.9365234 0.3466797
vn 0.8681641 0.07189941 -0.4912109
vn 0.8569336 0.1079102 -0.5039063
vn 0.8696289 0.07336426 -0.487793
vn 0.8525391 0.1153564 -0.5102539
vn 0.7529297 0.3283691 -0.5703125
vn 0.737793 0.3447266 -0.5800781
vn 0.7358398 0.4458008 -0.5097656
vn 0.7397461 0.4484863 -0.5019531
vn 0.8652344 0.1185303 -0.4870605
vn 0.8681641 0.09320068 -0.4870605
vn 0.8754883 -0.1569824 -0.4567871
vn 0.8774414 -0.1574707 -0.4533691
vn 0.002759933 0.1248169 -0.9921875
vn -0.02183533 0.1166992 -0.9931641
vn 0.01233673 0.1287842 -0.9916992
vn -0.0324707 0.1123047 -0.9931641
vn -0.03503418 -0.03942871 -0.9985352
vn -0.05249023 -0.0165863 -0.9985352
vn 0.06665039 -0.1429443 -0.9873047
vn 0.06512451 -0.1392822 -0.9882813
vn 0.02168274 0.003135681 -1
vn 0.01243591 0.01676941 -1
vn 0.114502 0.168335 -0.9790039
vn 0.1280518 0.1655273 -0.9780273
vn -0.8598633 0.06762695 -0.5063477
vn -0.8544922 0.1144409 -0.5068359
vn -0.8540039 0.1142578 -0.5073242
vn -0.8608398 0.06039429 -0.5053711
vn -0.8447266 -0.2880859 -0.4511719
vn -0.8081055 -0.3959961 -0.4360352
vn -0.6894531 -0.5478516 -0.473877
vn -0.6728516 -0.5595703 -0.4838867
vn -0.8569336 -0.02256775 -0.5151367
vn -0.859375 -0.0249176 -0.5107422
vn -0.777832 0.3791504 -0.5014648
vn -0.7753906 0.3793945 -0.5048828
vn -0.8691406 0.006595612 0.4946289
vn -0.8710938 0.04876709 0.4885254
vn -0.8710938 0.04876709 0.4885254
vn -0.8676758 -0.004058838 0.4975586
vn -0.7832031 -0.265625 0.5620117
vn -0.7729492 -0.2766113 0.5712891
vn -0.7841797 -0.3754883 0.4938965
vn -0.7871094 -0.3759766 0.4890137
vn -0.8740234 0.009658813 0.4858398
vn -0.871582 0.02958679 0.4890137
vn -0.840332 0.2658691 0.472168
vn -0.840332 0.2658691 0.472168
vn 0.01094055 0.009117126 1
vn -0.006397247 0.006813049 1
vn -0.01243591 0.004447937 1
vn 0.01779175 0.01143646 1
vn 0.006145477 0.1459961 0.9892578
vn 0.0249939 0.121521 0.9921875
vn -0.1412354 0.2398682 0.9604492
vn -0.1313477 0.2346191 0.9633789
vn -0.02830505 0.1136475 0.9931641
vn -0.01411438 0.1046753 0.9946289
vn -0.05187988 -0.06317139 0.996582
vn -0.05541992 -0.0614624 0.996582
vn 0.8603516 0.02485657 0.5092773
vn 0.8623047 0.06378174 0.5024414
vn 0.859375 0.0255127 0.5107422
vn 0.8632813 0.06835938 0.5
vn 0.8203125 0.3791504 0.4277344
vn 0.7807617 0.4726563 0.4091797
vn 0.6142578 0.6430664 0.4570313
vn 0.6069336 0.6464844 0.4624023
vn 0.84375 0.1531982 0.5141602
vn 0.8481445 0.1633301 0.5039063
vn 0.8208008 -0.2849121 0.494873
vn 0.8203125 -0.2849121 0.4956055
vn 0.5737305 0.8193359 0.007133484
vn 0.5737305 0.8193359 0.007133484
vn 0.5737305 0.8193359 0.007133484
vn 0.5737305 0.8193359 0.007133484
vn 0.5737305 0.8193359 0.007133484
vn 0.5737305 0.8193359 0.007133484
vn 0.5473633 0.6293945 -0.5517578
vn 0.5419922 0.6245117 -0.5629883
vn 0.5473633 0.6298828 -0.5507813
vn 0.5410156 0.6235352 -0.5639648
vn -0.1643066 0.07092285 -0.9838867
vn -0.1028442 0.142334 -0.984375
vn -0.1685791 0.0657959 -0.9833984
vn -0.09423828 0.1520996 -0.9838867
vn -0.7075195 -0.482666 -0.5161133
vn -0.6835938 -0.4389648 -0.5834961
vn -0.7089844 -0.4853516 -0.5117188
vn -0.6801758 -0.4335938 -0.5913086
vn -0.6362305 -0.5605469 0.5297852
vn -0.6108398 -0.5512695 0.5683594
vn -0.6386719 -0.5615234 0.5263672
vn -0.6079102 -0.550293 0.5722656
vn 0.06311035 -0.03201294 0.9975586
vn 0.03050232 -0.05300903 0.9980469
vn 0.06762695 -0.02911377 0.9970703
vn 0.02650452 -0.05557251 0.9980469
vn 0.6533203 0.5336914 0.5366211
vn 0.6274414 0.5141602 0.5844727
vn 0.6557617 0.5356445 0.5322266
vn 0.6245117 0.5117188 0.5898438
vn -0.5737305 0.8193359 -0.007125854
vn -0.5737305 0.8193359 -0.007125854
vn -0.5737305 0.8193359 -0.007125854
vn -0.5737305 0.8193359 -0.007129669
vn -0.5737305 0.8193359 -0.007133484
vn -0.5737305 0.8193359 -0.007133484
vn -0.6079102 -0.7587891 -0.2332764
vn -0.7006836 -0.5922852 -0.3977051
vn -0.6064453 -0.7592773 -0.2352295
vn -0.6967773 -0.6123047 -0.373291
vn -0.7998047 -0.3867188 -0.4594727
vn -0.8071289 -0.3840332 -0.4487305
vn -0.8891602 -0.09588623 0.4472656
vn -0.9257813 0.0005435944 0.3774414
vn -0.8896484 -0.09777832 0.4458008
vn -0.9204102 -0.003715515 0.3903809
vn -0.9121094 0.12854 0.3891602
vn -0.90625 0.1345215 0.4008789
vn -0.3178711 0.6977539 0.6420898
vn -0.2457275 0.644043 0.7246094
vn -0.322998 0.6953125 0.6420898
vn -0.2385254 0.6445313 0.7265625
vn -0.1243896 0.5668945 0.8144531
vn -0.1131592 0.5678711 0.8154297
vn 0.543457 0.8261719 0.1485596
vn 0.652832 0.7026367 0.2839355
vn 0.5400391 0.828125 0.151001
vn 0.6650391 0.6850586 0.2973633
vn 0.7719727 0.4975586 0.3952637
vn 0.7797852 0.4919434 0.3874512
vn 0.831543 0.1580811 -0.5327148
vn 0.8706055 0.09960938 -0.4819336
vn 0.831543 0.1585693 -0.5327148
vn 0.8725586 0.09320068 -0.479248
vn 0.887207 -0.008110046 -0.4611816
vn 0.8842773 -0.01425934 -0.467041
vn 0.2548828 -0.6386719 -0.7260742
vn 0.199707 -0.5454102 -0.8139648
vn 0.2558594 -0.6376953 -0.7265625
vn 0.1990967 -0.5512695 -0.8100586
vn 0.09674072 -0.453125 -0.8862305
vn 0.08978271 -0.4555664 -0.8857422
vn -0.1800537 0.8666992 -0.4650879
vn -0.1800537 0.8666992 -0.4650879
vn -0.1800537 0.8666992 -0.4650879
vn -0.1800537 0.8666992 -0.4650879
vn -0.1800537 0.8666992 -0.4650879
vn -0.1800537 0.8666992 -0.4650879
vn 0.519043 -0.7763672 0.3579102
vn 0.5727539 -0.5698242 0.5893555
vn 0.5107422 -0.777832 0.3657227
vn 0.581543 -0.6279297 0.5175781
vn 0.5380859 -0.09613037 0.8374023
vn 0.5410156 -0.09796143 0.8349609
vn 0.454834 0.1749268 0.8730469
vn 0.4543457 0.1745605 0.8735352
vn 0.9711914 -0.1314697 -0.1993408
vn 0.9912109 -0.05667114 -0.1184692
vn 0.9707031 -0.1287842 -0.2019043
vn 0.9941406 -0.03967285 -0.102356
vn 0.9667969 0.2548828 -0.003557205
vn 0.9697266 0.2440186 -0.007232666
vn 0.4440918 0.7568359 -0.4794922
vn 0.4179688 0.6660156 -0.6181641
vn 0.4533691 0.7524414 -0.4777832
vn 0.4416504 0.5737305 -0.6894531
vn 0.4104004 0.394043 -0.8222656
vn 0.4030762 0.3991699 -0.8232422
vn 0.4240723 0.3359375 -0.8408203
vn 0.4248047 0.3364258 -0.840332
vn -0.4594727 0.8759766 -0.1478271
vn -0.5708008 0.7080078 -0.4160156
vn -0.4477539 0.8813477 -0.1513672
vn -0.5839844 0.6391602 -0.5
vn -0.5566406 0.1888428 -0.809082
vn -0.5595703 0.1917725 -0.8061523
vn -0.512207 -0.01928711 -0.8588867
vn -0.512207 -0.01934814 -0.8588867
vn -0.8955078 0.2868652 0.3400879
vn -0.9760742 0.1306152 0.1740723
vn -0.8974609 0.2756348 0.34375
vn -0.9624023 0.1832275 0.2015381
vn -0.9858398 -0.1657715 0.02606201
vn -0.9873047 -0.1577148 0.02882385
vn -0.9619141 -0.2727051 -0.0009493828
vn -0.9619141 -0.2727051 -0.001113892
vn -0.4494629 -0.6186523 0.6445313
vn -0.4541016 -0.5058594 0.7333984
vn -0.453125 -0.6147461 0.6455078
vn -0.4436035 -0.565918 0.6948242
vn -0.4306641 -0.3068848 0.8486328
vn -0.4284668 -0.2995605 0.8525391
vn -0.4580078 -0.1695557 0.8725586
vn -0.4587402 -0.1699219 0.8720703
vn -0.2393799 0.9331055 0.2685547
vn -0.2393799 0.9331055 0.2685547
vn -0.2393799 0.9331055 0.2685547
vn -0.2393799 0.9331055 0.2685547
vn -0.2393799 0.9331055 0.2687988
vn -0.2393799 0.9331055 0.2687988
vn 0.9697266 0.2440186 -0.007232666
vn 0.9023438 0.4284668 0.04656982
vn 0.9023438 0.4282227 0.04742432
vn 0.9667969 0.2548828 -0.003557205
vn 0.7006836 0.6083984 0.3728027
vn 0.7006836 0.6083984 0.3728027
vn 0.7006836 0.6083984 0.3728027
vn 0.7006836 0.6083984 0.3728027
vn 0.7006836 0.6083984 0.3728027
vn 0.7006836 0.6083984 0.3728027
vn 0.2753906 -0.9213867 -0.2739258
vn 0.2888184 -0.8564453 -0.4284668
vn 0.2849121 -0.9204102 -0.2670898
vn 0.2988281 -0.8300781 -0.4709473
vn 0.6821289 -0.4243164 -0.5952148
vn 0.6938477 -0.4121094 -0.5908203
vn -0.4050293 -0.4790039 -0.7788086
vn -0.4455566 -0.3398438 -0.828125
vn -0.394043 -0.4897461 -0.777832
vn -0.458252 -0.3242188 -0.8276367
vn -0.2164307 -0.1811523 -0.9594727
vn -0.2163086 -0.2619629 -0.9404297
vn -0.1618652 0.0243988 -0.9863281
vn -0.161499 0.02433777 -0.9868164
vn -0.6777344 0.5048828 -0.5341797
vn -0.7431641 0.5214844 -0.4191895
vn -0.6777344 0.5009766 -0.5385742
vn -0.7280273 0.5322266 -0.432373
vn -0.9023438 0.2481689 -0.3522949
vn -0.8779297 0.3183594 -0.3571777
vn -0.9389648 0.06848145 -0.3364258
vn -0.9389648 0.06854248 -0.3371582
vn -0.2171631 0.9487305 0.229248
vn -0.2731934 0.862793 0.4255371
vn -0.2207031 0.9492188 0.223877
vn -0.2546387 0.8857422 0.3884277
vn -0.6401367 0.5205078 0.5654297
vn -0.6577148 0.5004883 0.5629883
vn 0.4599609 0.5336914 0.7094727
vn 0.4711914 0.3483887 0.8100586
vn 0.4506836 0.5498047 0.703125
vn 0.46875 0.3469238 0.8125
vn 0.2329102 0.265625 0.9355469
vn 0.2260742 0.328125 0.9169922
vn 0.1929932 0.1152344 0.9746094
vn 0.1931152 0.1152344 0.9746094
vn 0.7587891 -0.4331055 0.4865723
vn 0.769043 -0.503418 0.3937988
vn 0.762207 -0.4187012 0.4938965
vn 0.7792969 -0.5039063 0.3725586
vn 0.90625 -0.2370605 0.3496094
vn 0.925293 -0.1610107 0.34375
vn 0.9467773 0.06848145 0.3137207
vn 0.9467773 0.06842041 0.3146973
vn 0.2167969 0.9707031 -0.1045532
vn 0.2167969 0.9707031 -0.1045532
vn 0.2167969 0.9707031 -0.1045532
vn 0.2166748 0.9707031 -0.1045532
vn 0.2167969 0.9707031 -0.1045532
vn 0.2167969 0.9707031 -0.1045532
vn 0.6938477 -0.4121094 -0.5908203
vn 0.7700195 0.02401733 -0.6376953
vn 0.7705078 0.02397156 -0.637207
vn 0.6821289 -0.4243164 -0.5952148
vn -0.7607422 0.1122437 0.6396484
vn -0.6577148 0.5004883 0.5629883
vn -0.7607422 0.1122437 0.6396484
vn -0.6401367 0.5205078 0.5654297
vn 0.182251 0.9663086 0.1807861
vn 0.182251 0.9663086 0.1807861
vn 0.182251 0.9663086 0.1807861
vn 0.182251 0.9663086 0.1807861
vn 0.182373 0.9663086 0.1807861
vn 0.182373 0.9663086 0.1807861
vn 0.8120117 -0.3686523 -0.4528809
vn 0.6743164 -0.5180664 -0.5263672
vn 0.6723633 -0.5126953 -0.5341797
vn 0.8095703 -0.3701172 -0.4553223
vn 0.8466797 -0.09442139 -0.5239258
vn 0.8339844 -0.08087158 -0.5458984
vn 0.03393555 0.1778564 -0.9833984
vn 0.02287292 0.09613037 -0.9951172
vn 0.02529907 0.09295654 -0.9951172
vn 0.02757263 0.1787109 -0.9833984
vn 0.001625061 0.265625 -0.9638672
vn -0.009017944 0.270752 -0.9624023
vn -0.7436523 0.5541992 -0.3747559
vn -0.6171875 0.6586914 -0.4309082
vn -0.612793 0.6513672 -0.4475098
vn -0.7426758 0.5610352 -0.3659668
vn -0.8251953 0.3947754 -0.4035645
vn -0.8242188 0.3942871 -0.4064941
vn -0.6391602 0.5537109 0.5341797
vn -0.7578125 0.4580078 0.4645996
vn -0.637207 0.546875 0.543457
vn -0.7563477 0.4589844 0.4658203
vn -0.8022461 0.2469482 0.543457
vn -0.7910156 0.2340088 0.5654297
vn -0.02932739 -0.1040649 0.9941406
vn 0.01727295 -0.07861328 0.996582
vn -0.03182983 -0.100769 0.9946289
vn 0.01751709 -0.08483887 0.9960938
vn 0.05151367 -0.0352478 0.9980469
vn 0.05282593 -0.03598022 0.9980469
vn 0.6513672 -0.6147461 0.4448242
vn 0.7949219 -0.4645996 0.3898926
vn 0.6464844 -0.6083984 0.4599609
vn 0.7900391 -0.479248 0.3820801
vn 0.8642578 -0.2568359 0.4321289
vn 0.8618164 -0.255127 0.4384766
vn -0.2797852 0.9375 0.2071533
vn -0.2966309 0.953125 0.06298828
vn -0.2998047 0.9443359 0.1368408
vn -0.2851563 0.9521484 0.1082764
vn -0.2189941 0.8798828 0.4213867
vn 0.2514648 0.4675293 0.8476563
vn 0.470459 0.2327881 0.8510742
vn 0.5498047 0.1246338 0.8261719
vn 0.08758545 0.6000977 0.7954102
vn 0.5820313 0.5371094 -0.6108398
vn 0.8496094 0.4611816 -0.255127
vn 0.8515625 0.5117188 -0.1143188
vn 0.3845215 0.4299316 -0.8168945
vn -0.6748047 0.1452637 -0.7236328
vn -0.6713867 0.1499023 -0.7260742
vn -0.6835938 0.1334229 -0.7177734
vn -0.659668 0.1646729 -0.7329102
vn -0.8891602 0.2719727 0.3679199
vn -0.8886719 0.2702637 0.3706055
vn -0.8950195 0.2871094 0.3417969
vn -0.8803711 0.251709 0.4020996
vn 0.03062439 0.3110352 -0.949707
vn 0.3845215 0.4299316 -0.8168945
vn 0.5820313 0.5371094 -0.6108398
vn -0.007072449 0.2390137 -0.9711914
vn 0.2276611 0.8496094 0.4753418
vn 0.2287598 0.8515625 0.4716797
vn 0.2653809 0.8417969 0.470459
vn 0.2125244 0.8549805 0.4733887
vn 0.002403259 0.8691406 0.4943848
vn 0.6489258 -0.3342285 0.6835938
vn 0.1691895 -0.5371094 0.8266602
vn 0.04522705 -0.4729004 0.8798828
vn 0.9169922 -0.2792969 0.2851563
vn 0.8540039 -0.2744141 -0.4423828
vn 0.8149414 -0.2998047 -0.4958496
vn 0.7519531 -0.3337402 -0.5683594
vn 0.9150391 -0.2229004 -0.3356934
vn -0.2734375 0.8696289 -0.411377
vn -0.2546387 0.8754883 -0.4111328
vn -0.1133423 0.9077148 -0.4038086
vn -0.4191895 0.8110352 -0.4082031
vn 0.8496094 0.4990234 0.1705322
vn 0.8676758 0.4748535 0.1469727
vn 0.8208008 0.512207 0.2524414
vn 0.6577148 0.4846191 0.5766602
vn -0.1422119 -0.2025146 0.96875
vn -0.2790527 -0.4702148 0.8374023
vn -0.3791504 -0.6733398 0.6347656
vn 0.01776123 0.1015625 0.9946289
vn -0.08905029 0.08636475 -0.9921875
vn -0.05844116 0.07653809 -0.9951172
vn -0.1235962 0.09741211 -0.9873047
vn -0.007190704 0.05999756 -0.9980469
vn -0.3422852 0.8759766 0.3398438
vn -0.3649902 0.8168945 0.4462891
vn -0.317627 0.9169922 0.2408447
vn -0.376709 0.7719727 0.5117188
vn 0.3095703 0.2259521 -0.9238281
vn 0.4770508 0.006896973 -0.8789063
vn 0.8115234 -0.4680176 -0.3496094
vn -0.2451172 0.3144531 -0.9169922
vn -0.3613281 0.9248047 -0.1187744
vn -0.4584961 0.8876953 -0.04159546
vn -0.4697266 0.8818359 -0.03631592
vn -0.4130859 0.9077148 -0.07562256
vn -0.675293 0.171875 0.7172852
vn -0.4138184 -0.06072998 0.9082031
vn -0.3137207 -0.1348877 0.9399414
vn -0.7392578 0.2440186 0.6274414
vn 0.0008015633 0.9980469 0.06060791
vn -0.004764557 0.9853516 -0.1695557
vn 0.151123 0.9155273 -0.3725586
vn 0.2089844 0.7602539 -0.6152344
vn 0.2600098 0.6923828 -0.6733398
vn -0.8950195 -0.08959961 -0.4370117
vn -0.8930664 -0.08526611 -0.4414063
vn -0.9067383 -0.1219482 -0.4040527
vn -0.8764648 -0.04669189 -0.479248
vn -0.2709961 0.7729492 -0.5737305
vn 0.03475952 0.8300781 -0.5566406
vn -0.09851074 0.8046875 -0.5859375
vn -0.1384277 0.8164063 -0.5605469
vn -0.7363281 0.5170898 -0.4360352
vn 0.439209 0.5371094 0.7202148
vn 0.02641296 0.4611816 0.8867188
vn -0.1099854 0.5117188 0.8520508
vn 0.6777344 0.4382324 0.590332
vn 0.815918 0.1983643 -0.543457
vn 0.8105469 0.2457275 -0.5317383
vn 0.8017578 0.2993164 -0.5170898
vn 0.8188477 0.1520996 -0.5532227
vn -0.1959229 0.4262695 -0.8833008
vn -0.2108154 0.4111328 -0.8867188
vn -0.2424316 0.3779297 -0.8935547
vn -0.1459961 0.4750977 -0.8676758
vn 0.9047852 0.3210449 0.2797852
vn 0.6777344 0.4382324 0.590332
vn 0.439209 0.5371094 0.7202148
vn 0.9331055 0.2558594 0.251709
vn 0.71875 -0.166748 0.6748047
vn 0.5986328 0.1226807 0.7915039
vn 0.7270508 -0.2028809 0.6557617
vn 0.5546875 0.2097168 0.8051758
vn 0.5253906 0.4189453 0.7407227
vn 0.5175781 0.4658203 0.7177734
vn -0.7470703 0.1943359 -0.6357422
vn -0.7089844 0.1799316 -0.6816406
vn -0.7348633 0.1522217 -0.6606445
vn -0.796875 0.2443848 -0.5527344
vn -0.8505859 0.2902832 -0.4384766
vn -0.8500977 0.302002 -0.4311523
vn -0.8032227 0.4824219 0.3491211
vn -0.7915039 0.4506836 0.4130859
vn -0.8149414 0.546875 0.1914063
vn -0.7480469 0.3696289 0.5512695
vn -0.345459 0.5898438 -0.7299805
vn 0.3039551 0.8608398 -0.407959
vn 0.5161133 0.7197266 -0.4643555
vn -0.34375 0.5986328 -0.7236328
vn -0.279541 0.7612305 0.5849609
vn -0.2893066 0.8208008 0.4926758
vn -0.4560547 0.8852539 -0.09112549
vn -0.5253906 0.815918 0.2410889
vn -0.5874023 0.7924805 0.1630859
vn -0.09503174 0.75 0.6547852
vn -0.05145264 0.9365234 0.3466797
vn 0.02604675 0.8745117 0.4838867
vn 0.6074219 0.7495117 0.2629395
vn 0.5356445 0.7509766 0.3859863
vn 0.6220703 0.7475586 0.2320557
vn 0.519043 0.7480469 0.4135742
vn 0.4645996 0.7285156 0.503418
vn 0.08959961 0.3769531 0.921875
vn -0.05099487 0.1326904 0.9897461
vn -0.06445313 0.1082764 0.9921875
vn 0.1156616 0.420166 0.8999023
vn 0.828125 0.4042969 0.3879395
vn 0.8442383 0.3935547 0.3640137
vn 0.8051758 0.4182129 0.4204102
vn 0.8686523 0.3752441 0.3239746
vn -0.1165161 0.5097656 0.8525391
vn -0.3339844 0.6699219 0.6630859
vn -0.3256836 0.8276367 0.456543
vn -0.1004639 0.5327148 0.840332

vt 0.1572266 0.4711914
vt 0.182251 0.4863281
vt 0.1820068 0.4880371
vt 0.182251 0.4863281
vt 0.1572266 0.4711914
vt 0.1563721 0.4680176
vt 0.1556396 0.4680176
vt 0.1820068 0.4880371
vt 0.1800537 0.4902344
vt 0.1820068 0.4880371
vt 0.1556396 0.4680176
vt 0.1572266 0.4711914
vt 0.1783447 0.4909668
vt 0.1556396 0.4680176
vt 0.1800537 0.4902344
vt 0.1556396 0.4680176
vt 0.1783447 0.4909668
vt 0.1531982 0.4699707
vt 0.1785889 0.4892578
vt 0.1531982 0.4699707
vt 0.1783447 0.4909668
vt 0.1531982 0.4699707
vt 0.1785889 0.4892578
vt 0.1523438 0.4667969
vt 0.180542 0.4868164
vt 0.1523438 0.4667969
vt 0.1785889 0.4892578
vt 0.1523438 0.4667969
vt 0.180542 0.4868164
vt 0.1539307 0.4699707
vt 0.1563721 0.4680176
vt 0.180542 0.4868164
vt 0.182251 0.4863281
vt 0.180542 0.4868164
vt 0.1563721 0.4680176
vt 0.1539307 0.4699707
vt 0.8422852 0.597168
vt 0.8432617 0.5771484
vt 0.8349609 0.5693359
vt 0.8432617 0.5771484
vt 0.8422852 0.597168
vt 0.8515625 0.5942383
vt 0.8564453 0.5825195
vt 0.8398438 0.5605469
vt 0.8476563 0.5727539
vt 0.8398438 0.5605469
vt 0.8564453 0.5825195
vt 0.8422852 0.5722656
vt 0.902832 0.6289063
vt 0.8974609 0.6054688
vt 0.9023438 0.6245117
vt 0.8984375 0.6054688
vt 0.8891602 0.6049805
vt 0.8974609 0.6054688
vt 0.8891602 0.6049805
vt 0.8984375 0.6054688
vt 0.8862305 0.6064453
vt 0.918457 0.4580078
vt 0.921875 0.4545898
vt 0.9150391 0.4587402
vt 0.9150391 0.4477539
vt 0.9067383 0.4599609
vt 0.8979492 0.4458008
vt 0.9067383 0.4599609
vt 0.9150391 0.4477539
vt 0.9106445 0.458252
vt 0.9267578 0.449707
vt 0.894043 0.4521484
vt 0.921875 0.4545898
vt 0.894043 0.4521484
vt 0.9150391 0.4477539
vt 0.8979492 0.4458008
vt 0.9267578 0.449707
vt 0.9150391 0.4477539
vt 0.894043 0.4521484
vt 0.918457 0.4580078
vt 0.9067383 0.4599609
vt 0.9106445 0.458252
vt 0.8344727 0.4372559
vt 0.875 0.4587402
vt 0.8666992 0.4472656
vt 0.875 0.4587402
vt 0.8344727 0.4372559
vt 0.8554688 0.4423828
vt 0.9438477 0.4118652
vt 0.9404297 0.4023438
vt 0.9448242 0.4111328
vt 0.9404297 0.4023438
vt 0.9438477 0.4118652
vt 0.9453125 0.4020996
vt 0.8642578 0.4384766
vt 0.8579102 0.534668
vt 0.8510742 0.5390625
vt 0.8579102 0.534668
vt 0.8642578 0.4384766
vt 0.8671875 0.4611816
vt 0.8540039 0.5380859
vt 0.8510742 0.5390625
vt 0.8579102 0.534668
vt 0.8510742 0.5390625
vt 0.8540039 0.5380859
vt 0.8413086 0.5400391
vt 0.8994141 0.4130859
vt 0.9086914 0.411377
vt 0.8901367 0.4208984
vt 0.1610107 0.3557129
vt 0.1502686 0.3989258
vt 0.151123 0.3557129
vt 0.1585693 0.4013672
vt 0.1445313 0.4455566
vt 0.1512451 0.4504395
vt 0.1153564 0.4858398
vt 0.1116943 0.480957
vt 0.102478 0.5063477
vt 0.09790039 0.5063477
vt 0.112915 0.5571289
vt 0.1151733 0.5551758
vt 0.151123 0.3557129
vt 0.1337891 0.3972168
vt 0.1313477 0.3557129
vt 0.1502686 0.3989258
vt 0.1312256 0.4421387
vt 0.1445313 0.4455566
vt 0.1116943 0.480957
vt 0.1027832 0.473877
vt 0.09790039 0.5063477
vt 0.08874512 0.5063477
vt 0.1083374 0.5600586
vt 0.112915 0.5571289
vt 0.1337891 0.3972168
vt 0.12146 0.3557129
vt 0.1313477 0.3557129
vt 0.1254883 0.3979492
vt 0.1312256 0.4421387
vt 0.1245117 0.4433594
vt 0.1027832 0.473877
vt 0.09759521 0.4716797
vt 0.08874512 0.5063477
vt 0.08416748 0.5063477
vt 0.1060181 0.5620117
vt 0.1083374 0.5600586
vt 0.1254883 0.3979492
vt 0.1313477 0.3557129
vt 0.12146 0.3557129
vt 0.1337891 0.4003906
vt 0.1245117 0.4433594
vt 0.1312256 0.4482422
vt 0.1012573 0.4765625
vt 0.09759521 0.4716797
vt 0.08874512 0.5063477
vt 0.08416748 0.5063477
vt 0.1083374 0.5600586
vt 0.1060181 0.5620117
vt 0.1337891 0.4003906
vt 0.151123 0.3557129
vt 0.1313477 0.3557129
vt 0.1502686 0.4020996
vt 0.1312256 0.4482422
vt 0.1445313 0.4516602
vt 0.1101074 0.4836426
vt 0.1012573 0.4765625
vt 0.09790039 0.5063477
vt 0.08874512 0.5063477
vt 0.112915 0.5571289
vt 0.1083374 0.5600586
vt 0.151123 0.3557129
vt 0.1585693 0.4013672
vt 0.1610107 0.3557129
vt 0.1502686 0.4020996
vt 0.1512451 0.4504395
vt 0.1445313 0.4516602
vt 0.1153564 0.4858398
vt 0.1101074 0.4836426
vt 0.102478 0.5063477
vt 0.09790039 0.5063477
vt 0.1151733 0.5551758
vt 0.112915 0.5571289
vt 0.1083374 0.5600586
vt 0.1083374 0.5600586
vt 0.1060181 0.5620117
vt 0.112915 0.5571289
vt 0.112915 0.5571289
vt 0.1151733 0.5551758
vt 0.1045532 0.5351563
vt 0.08215332 0.5556641
vt 0.1034546 0.5317383
vt 0.08380127 0.5566406
vt 0.1034546 0.5317383
vt 0.07885742 0.5532227
vt 0.1011963 0.5258789
vt 0.08215332 0.5556641
vt 0.1011963 0.5258789
vt 0.07720947 0.5522461
vt 0.1000977 0.5229492
vt 0.07885742 0.5532227
vt 0.1000977 0.5229492
vt 0.07885742 0.5532227
vt 0.1011963 0.5258789
vt 0.07720947 0.5522461
vt 0.1011963 0.5258789
vt 0.08215332 0.5556641
vt 0.1034546 0.5317383
vt 0.07885742 0.5532227
vt 0.1034546 0.5317383
vt 0.08380127 0.5566406
vt 0.1045532 0.5351563
vt 0.08215332 0.5556641
vt 0.07885742 0.5532227
vt 0.07885742 0.5532227
vt 0.07720947 0.5522461
vt 0.08215332 0.5556641
vt 0.08215332 0.5556641
vt 0.08380127 0.5566406
vt 0.0993042 0.4833984
vt 0.08026123 0.5043945
vt 0.09484863 0.4853516
vt 0.08361816 0.5024414
vt 0.07751465 0.5268555
vt 0.07897949 0.5263672
vt 0.09484863 0.4853516
vt 0.08154297 0.5078125
vt 0.0960083 0.4914551
vt 0.08026123 0.5043945
vt 0.07861328 0.5283203
vt 0.07751465 0.5268555
vt 0.0960083 0.4914551
vt 0.08618164 0.5097656
vt 0.1015625 0.4956055
vt 0.08154297 0.5078125
vt 0.08123779 0.5288086
vt 0.07861328 0.5283203
vt 0.1015625 0.4956055
vt 0.08947754 0.5083008
vt 0.1060181 0.4936523
vt 0.08618164 0.5097656
vt 0.08270264 0.527832
vt 0.08123779 0.5288086
vt 0.1060181 0.4936523
vt 0.0881958 0.5043945
vt 0.1048584 0.4875488
vt 0.08947754 0.5083008
vt 0.081604 0.5268555
vt 0.08270264 0.527832
vt 0.1048584 0.4875488
vt 0.08361816 0.5024414
vt 0.0993042 0.4833984
vt 0.0881958 0.5043945
vt 0.07897949 0.5263672
vt 0.081604 0.5268555
vt 0.07861328 0.5283203
vt 0.08270264 0.527832
vt 0.08123779 0.5288086
vt 0.07751465 0.5268555
vt 0.081604 0.5268555
vt 0.07897949 0.5263672
vt 0.1409912 0.4282227
vt 0.15979 0.4523926
vt 0.1507568 0.432373
vt 0.1535645 0.4487305
vt 0.152832 0.4868164
vt 0.1586914 0.4890137
vt 0.1409912 0.5180664
vt 0.144165 0.5195313
vt 0.1507568 0.432373
vt 0.1593018 0.4567871
vt 0.1500244 0.4406738
vt 0.15979 0.4523926
vt 0.1586914 0.4890137
vt 0.1582031 0.4907227
vt 0.1500244 0.4406738
vt 0.1524658 0.4575195
vt 0.1396484 0.4448242
vt 0.1593018 0.4567871
vt 0.1582031 0.4907227
vt 0.1516113 0.4899902
vt 0.1402588 0.5200195
vt 0.1439209 0.5205078
vt 0.1396484 0.4448242
vt 0.1462402 0.4538574
vt 0.1298828 0.4406738
vt 0.1524658 0.4575195
vt 0.145752 0.487793
vt 0.1516113 0.4899902
vt 0.1369629 0.5185547
vt 0.1402588 0.5200195
vt 0.1298828 0.4406738
vt 0.1467285 0.4494629
vt 0.1306152 0.432373
vt 0.1462402 0.4538574
vt 0.1462402 0.486084
vt 0.145752 0.487793
vt 0.1373291 0.5175781
vt 0.1369629 0.5185547
vt 0.1306152 0.432373
vt 0.1535645 0.4487305
vt 0.1409912 0.4282227
vt 0.1467285 0.4494629
vt 0.1462402 0.486084
vt 0.152832 0.4868164
vt 0.1373291 0.5175781
vt 0.1409912 0.5180664
vt 0.1439209 0.5205078
vt 0.1369629 0.5185547
vt 0.1402588 0.5200195
vt 0.144165 0.5195313
vt 0.1373291 0.5175781
vt 0.1409912 0.5180664
vt 0.1582031 0.4907227
vt 0.144165 0.5195313
vt 0.1439209 0.5205078
vt 0.1586914 0.4890137
vt 0.1800537 0.4902344
vt 0.1785889 0.4892578
vt 0.1783447 0.4909668
vt 0.1820068 0.4880371
vt 0.180542 0.4868164
vt 0.182251 0.4863281
vt 0.1496582 0.4199219
vt 0.1756592 0.4394531
vt 0.1433105 0.4204102
vt 0.182251 0.439209
vt 0.2097168 0.4707031
vt 0.204834 0.4709473
vt 0.1433105 0.4204102
vt 0.1708984 0.4458008
vt 0.1352539 0.4277344
vt 0.1756592 0.4394531
vt 0.204834 0.4709473
vt 0.1976318 0.4724121
vt 0.2044678 0.5126953
vt 0.2004395 0.5136719
vt 0.1352539 0.4277344
vt 0.1728516 0.4519043
vt 0.1334229 0.434082
vt 0.1708984 0.4458008
vt 0.1976318 0.4724121
vt 0.1953125 0.4736328
vt 0.1990967 0.5141602
vt 0.2004395 0.5136719
vt 0.1334229 0.434082
vt 0.1794434 0.4516602
vt 0.1397705 0.4335938
vt 0.1728516 0.4519043
vt 0.2001953 0.4736328
vt 0.1953125 0.4736328
vt 0.1397705 0.4335938
vt 0.184082 0.4453125
vt 0.1478271 0.4262695
vt 0.1794434 0.4516602
vt 0.2073975 0.472168
vt 0.2001953 0.4736328
vt 0.2058105 0.5131836
vt 0.2017822 0.5141602
vt 0.1478271 0.4262695
vt 0.182251 0.439209
vt 0.1496582 0.4199219
vt 0.184082 0.4453125
vt 0.2073975 0.472168
vt 0.2097168 0.4707031
vt 0.2058105 0.5131836
vt 0.2071533 0.512207
vt 0.2004395 0.5136719
vt 0.2017822 0.5141602
vt 0.1990967 0.5141602
vt 0.2044678 0.5126953
vt 0.2058105 0.5131836
vt 0.2071533 0.512207
vt 0.204834 0.4709473
vt 0.2071533 0.512207
vt 0.2044678 0.5126953
vt 0.2097168 0.4707031
vt 0.2017822 0.5141602
vt 0.1953125 0.4736328
vt 0.1990967 0.5141602
vt 0.2001953 0.4736328
vt 0.1883545 0.4836426
vt 0.1885986 0.4824219
vt 0.1865234 0.4833984
vt 0.1922607 0.4831543
vt 0.1925049 0.4816895
vt 0.1943359 0.4821777
vt 0.1882324 0.4570313
vt 0.1634521 0.434082
vt 0.1655273 0.4304199
vt 0.185791 0.4592285
vt 0.1943359 0.4821777
vt 0.1922607 0.4831543
vt 0.185791 0.4592285
vt 0.1580811 0.4384766
vt 0.1634521 0.434082
vt 0.1806641 0.4616699
vt 0.1922607 0.4831543
vt 0.1883545 0.4836426
vt 0.1806641 0.4616699
vt 0.1546631 0.4394531
vt 0.1580811 0.4384766
vt 0.1779785 0.4621582
vt 0.1883545 0.4836426
vt 0.1865234 0.4833984
vt 0.1546631 0.4394531
vt 0.1804199 0.4602051
vt 0.1566162 0.435791
vt 0.1779785 0.4621582
vt 0.1885986 0.4824219
vt 0.1865234 0.4833984
vt 0.1566162 0.435791
vt 0.1855469 0.4575195
vt 0.1621094 0.4313965
vt 0.1804199 0.4602051
vt 0.1925049 0.4816895
vt 0.1885986 0.4824219
vt 0.1621094 0.4313965
vt 0.1882324 0.4570313
vt 0.1655273 0.4304199
vt 0.1855469 0.4575195
vt 0.1943359 0.4821777
vt 0.1925049 0.4816895
vt 0.8530273 0.4289551
vt 0.8901367 0.4133301
vt 0.8588867 0.4243164
vt 0.8891602 0.4140625
vt 0.8676758 0.4267578
vt 0.847168 0.4111328
vt 0.8901367 0.4133301
vt 0.887207 0.3974609
vt 0.8588867 0.4243164
vt 0.8891602 0.4140625
vt 0.887207 0.3974609
vt 0.8901367 0.4133301
vt 0.8823242 0.3942871
vt 0.8515625 0.4072266
vt 0.8530273 0.4289551
vt 0.8291016 0.4116211
vt 0.8676758 0.4267578
vt 0.8291016 0.4116211
vt 0.8588867 0.4243164
vt 0.847168 0.4111328
vt 0.8530273 0.4289551
vt 0.8676758 0.4267578
vt 0.8823242 0.3942871
vt 0.8891602 0.4140625
vt 0.8515625 0.4072266
vt 0.8583984 0.5898438
vt 0.8432617 0.5771484
vt 0.8515625 0.5942383
vt 0.8476563 0.5727539
vt 0.8564453 0.5825195
vt 0.8476563 0.5727539
vt 0.8349609 0.5693359
vt 0.8432617 0.5771484
vt 0.8398438 0.5605469
vt 0.8422852 0.5722656
vt 0.8583984 0.5898438
vt 0.8496094 0.5893555
vt 0.8564453 0.5825195
vt 0.8496094 0.5893555
vt 0.8515625 0.5942383
vt 0.8422852 0.597168
vt 0.8583984 0.5898438
vt 0.8974609 0.6054688
vt 0.902832 0.6289063
vt 0.8984375 0.6054688
vt 0.9023438 0.6206055
vt 0.887207 0.6298828
vt 0.8974609 0.6054688
vt 0.8891602 0.6049805
vt 0.9023438 0.6245117
vt 0.8876953 0.6196289
vt 0.902832 0.6289063
vt 0.8852539 0.6328125
vt 0.9023438 0.6206055
vt 0.8852539 0.6328125
vt 0.9023438 0.6245117
vt 0.887207 0.6298828
vt 0.902832 0.6289063
vt 0.9023438 0.6206055
vt 0.8862305 0.6064453
vt 0.8984375 0.6054688
vt 0.8876953 0.6196289
vt 0.9067383 0.4599609
vt 0.9150391 0.4587402
vt 0.9018555 0.4611816
vt 0.918457 0.4580078
vt 0.894043 0.4521484
vt 0.9150391 0.4587402
vt 0.921875 0.4545898
vt 0.9018555 0.4611816
vt 0.921875 0.4545898
vt 0.918457 0.4580078
vt 0.9267578 0.449707
vt 0.9106445 0.458252
vt 0.9150391 0.4477539
vt 0.8979492 0.4458008
vt 0.9018555 0.4611816
vt 0.894043 0.4521484
vt 0.9067383 0.4599609
vt 0.8681641 0.4318848
vt 0.875 0.4587402
vt 0.8554688 0.4423828
vt 0.8808594 0.4536133
vt 0.8862305 0.4438477
vt 0.8808594 0.4536133
vt 0.8666992 0.4472656
vt 0.875 0.4587402
vt 0.8735352 0.4343262
vt 0.8759766 0.421875
vt 0.8681641 0.4318848
vt 0.859375 0.4211426
vt 0.8862305 0.4438477
vt 0.859375 0.4211426
vt 0.8554688 0.4423828
vt 0.8344727 0.4372559
vt 0.8681641 0.4318848
vt 0.8862305 0.4438477
vt 0.8735352 0.4343262
vt 0.8808594 0.4536133
vt 0.8759766 0.421875
vt 0.9404297 0.4023438
vt 0.9116211 0.404541
vt 0.9448242 0.4111328
vt 0.9033203 0.3972168
vt 0.8901367 0.4121094
vt 0.8779297 0.4060059
vt 0.8847656 0.402832
vt 0.8901367 0.4208984
vt 0.8647461 0.4064941
vt 0.8994141 0.4130859
vt 0.9165039 0.4130859
vt 0.9208984 0.4189453
vt 0.8647461 0.4064941
vt 0.8901367 0.4121094
vt 0.8779297 0.4060059
vt 0.8901367 0.4208984
vt 0.9208984 0.4189453
vt 0.9453125 0.4020996
vt 0.9438477 0.4118652
vt 0.9165039 0.4130859
vt 0.9208984 0.4189453
vt 0.9086914 0.411377
vt 0.8994141 0.4130859
vt 0.9438477 0.4118652
vt 0.9448242 0.4111328
vt 0.9116211 0.404541
vt 0.8901367 0.4208984
vt 0.8901367 0.4121094
vt 0.8637695 0.4641113
vt 0.8579102 0.534668
vt 0.8671875 0.4611816
vt 0.8540039 0.5380859
vt 0.8549805 0.5102539
vt 0.8466797 0.5078125
vt 0.8637695 0.4641113
vt 0.8544922 0.4365234
vt 0.8549805 0.5102539
vt 0.8544922 0.4365234
vt 0.8671875 0.4611816
vt 0.8642578 0.4384766
vt 0.8637695 0.4641113
vt 0.8549805 0.5102539
vt 0.8413086 0.5400391
vt 0.8540039 0.5380859
vt 0.8466797 0.5078125

g Tree_06_(11)_467_48
usemtl Tree_06_(11)_467_48
usemap Tree_06_(11)_467_48
f 1/1/1 3/3/3 2/2/2
f 4/4/4 6/6/6 5/5/5
f 7/7/7 9/9/9 8/8/8
f 10/10/10 12/12/12 11/11/11
f 13/13/13 15/15/15 14/14/14
f 16/16/16 18/18/18 17/17/17
f 19/19/19 21/21/21 20/20/20
f 22/22/22 24/24/24 23/23/23
f 25/25/25 27/27/27 26/26/26
f 28/28/28 30/30/30 29/29/29
f 31/31/31 33/33/33 32/32/32
f 34/34/34 36/36/36 35/35/35
f 37/37/37 39/39/39 38/38/38
f 40/40/40 42/42/42 41/41/41
f 43/43/43 45/45/45 44/44/44
f 46/46/46 48/48/48 47/47/47
f 49/49/49 51/51/51 50/50/50
f 52/52/52 54/54/54 53/53/53
f 55/55/55 57/57/57 56/56/56
f 58/58/58 60/60/60 59/59/59
f 61/61/61 63/63/63 62/62/62
f 64/64/64 66/66/66 65/65/65
f 67/67/67 69/69/69 68/68/68
f 70/70/70 72/72/72 71/71/71
f 73/73/73 75/75/75 74/74/74
f 76/76/76 78/78/78 77/77/77
f 79/79/79 81/81/81 80/80/80
f 82/82/82 84/84/84 83/83/83
f 85/85/85 87/87/87 86/86/86
f 88/88/88 90/90/90 89/89/89
f 91/91/91 93/93/93 92/92/92
f 94/94/94 96/96/96 95/95/95
f 97/97/97 99/99/99 98/98/98
f 100/100/100 102/102/102 101/101/101
f 103/103/103 105/105/105 104/104/104
f 106/106/106 108/108/108 107/107/107
f 107/107/107 109/109/109 106/106/106
f 109/109/109 107/107/107 110/110/110
f 110/110/110 111/111/111 109/109/109
f 112/112/112 111/111/111 110/110/110
f 110/110/110 113/113/113 112/112/112
f 114/114/114 112/112/112 113/113/113
f 113/113/113 115/115/115 114/114/114
f 114/114/114 115/115/115 116/116/116
f 116/116/116 117/117/117 114/114/114
f 118/118/118 120/120/120 119/119/119
f 119/119/119 121/121/121 118/118/118
f 121/121/121 119/119/119 122/122/122
f 122/122/122 123/123/123 121/121/121
f 124/124/124 123/123/123 122/122/122
f 122/122/122 125/125/125 124/124/124
f 126/126/126 124/124/124 125/125/125
f 125/125/125 127/127/127 126/126/126
f 126/126/126 127/127/127 128/128/128
f 128/128/128 129/129/129 126/126/126
f 130/130/130 132/132/132 131/131/131
f 131/131/131 133/133/133 130/130/130
f 134/134/134 130/130/130 133/133/133
f 133/133/133 135/135/135 134/134/134
f 136/136/136 134/134/134 135/135/135
f 135/135/135 137/137/137 136/136/136
f 138/138/138 136/136/136 137/137/137
f 137/137/137 139/139/139 138/138/138
f 138/138/138 139/139/139 140/140/140
f 140/140/140 141/141/141 138/138/138
f 142/142/142 144/144/144 143/143/143
f 143/143/143 145/145/145 142/142/142
f 146/146/146 142/142/142 145/145/145
f 145/145/145 147/147/147 146/146/146
f 146/146/146 147/147/147 148/148/148
f 148/148/148 149/149/149 146/146/146
f 149/149/149 148/148/148 150/150/150
f 150/150/150 151/151/151 149/149/149
f 151/151/151 150/150/150 152/152/152
f 152/152/152 153/153/153 151/151/151
f 154/154/154 156/156/156 155/155/155
f 155/155/155 157/157/157 154/154/154
f 158/158/158 154/154/154 157/157/157
f 157/157/157 159/159/159 158/158/158
f 158/158/158 159/159/159 160/160/160
f 160/160/160 161/161/161 158/158/158
f 161/161/161 160/160/160 162/162/162
f 162/162/162 163/163/163 161/161/161
f 163/163/163 162/162/162 164/164/164
f 164/164/164 165/165/165 163/163/163
f 166/166/166 168/168/168 167/167/167
f 167/167/167 169/169/169 166/166/166
f 169/169/169 167/167/167 170/170/170
f 170/170/170 171/171/171 169/169/169
f 171/171/171 170/170/170 172/172/172
f 172/172/172 173/173/173 171/171/171
f 173/173/173 172/172/172 174/174/174
f 174/174/174 175/175/175 173/173/173
f 175/175/175 174/174/174 176/176/176
f 176/176/176 177/177/177 175/175/175
f 178/178/178 180/180/180 179/179/179
f 179/179/179 181/181/181 178/178/178
f 181/181/181 179/179/179 182/182/182
f 182/182/182 183/183/183 181/181/181
f 184/184/184 186/186/186 185/185/185
f 185/185/185 187/187/187 184/184/184
f 188/188/188 190/190/190 189/189/189
f 189/189/189 191/191/191 188/188/188
f 192/192/192 194/194/194 193/193/193
f 193/193/193 195/195/195 192/192/192
f 196/196/196 198/198/198 197/197/197
f 197/197/197 199/199/199 196/196/196
f 200/200/200 202/202/202 201/201/201
f 201/201/201 203/203/203 200/200/200
f 204/204/204 206/206/206 205/205/205
f 205/205/205 207/207/207 204/204/204
f 208/208/208 210/210/210 209/209/209
f 209/209/209 211/211/211 208/208/208
f 211/211/211 209/209/209 212/212/212
f 212/212/212 213/213/213 211/211/211
f 214/214/214 216/216/216 215/215/215
f 215/215/215 217/217/217 214/214/214
f 217/217/217 215/215/215 218/218/218
f 218/218/218 219/219/219 217/217/217
f 220/220/220 222/222/222 221/221/221
f 221/221/221 223/223/223 220/220/220
f 223/223/223 221/221/221 224/224/224
f 224/224/224 225/225/225 223/223/223
f 226/226/226 228/228/228 227/227/227
f 227/227/227 229/229/229 226/226/226
f 229/229/229 227/227/227 230/230/230
f 230/230/230 231/231/231 229/229/229
f 232/232/232 234/234/234 233/233/233
f 233/233/233 235/235/235 232/232/232
f 235/235/235 233/233/233 236/236/236
f 236/236/236 237/237/237 235/235/235
f 238/238/238 240/240/240 239/239/239
f 239/239/239 241/241/241 238/238/238
f 241/241/241 239/239/239 242/242/242
f 242/242/242 243/243/243 241/241/241
f 244/244/244 246/246/246 245/245/245
f 245/245/245 247/247/247 244/244/244
f 247/247/247 245/245/245 248/248/248
f 248/248/248 249/249/249 247/247/247
f 250/250/250 252/252/252 251/251/251
f 251/251/251 253/253/253 250/250/250
f 253/253/253 251/251/251 254/254/254
f 254/254/254 255/255/255 253/253/253
f 256/256/256 258/258/258 257/257/257
f 257/257/257 259/259/259 256/256/256
f 260/260/260 259/259/259 257/257/257
f 257/257/257 261/261/261 260/260/260
f 262/262/262 260/260/260 261/261/261
f 261/261/261 263/263/263 262/262/262
f 264/264/264 266/266/266 265/265/265
f 265/265/265 267/267/267 264/264/264
f 268/268/268 267/267/267 265/265/265
f 265/265/265 269/269/269 268/268/268
f 270/270/270 272/272/272 271/271/271
f 271/271/271 273/273/273 270/270/270
f 274/274/274 273/273/273 271/271/271
f 271/271/271 275/275/275 274/274/274
f 274/274/274 275/275/275 276/276/276
f 276/276/276 277/277/277 274/274/274
f 278/278/278 280/280/280 279/279/279
f 279/279/279 281/281/281 278/278/278
f 281/281/281 279/279/279 282/282/282
f 282/282/282 283/283/283 281/281/281
f 283/283/283 282/282/282 284/284/284
f 284/284/284 285/285/285 283/283/283
f 286/286/286 288/288/288 287/287/287
f 287/287/287 289/289/289 286/286/286
f 289/289/289 287/287/287 290/290/290
f 290/290/290 291/291/291 289/289/289
f 291/291/291 290/290/290 292/292/292
f 292/292/292 293/293/293 291/291/291
f 294/294/294 296/296/296 295/295/295
f 295/295/295 297/297/297 294/294/294
f 298/298/298 297/297/297 295/295/295
f 295/295/295 299/299/299 298/298/298
f 300/300/300 298/298/298 299/299/299
f 299/299/299 301/301/301 300/300/300
f 302/302/302 304/304/304 303/303/303
f 303/303/303 305/305/305 302/302/302
f 305/305/305 303/303/303 306/306/306
f 306/306/306 307/307/307 305/305/305
f 308/308/308 310/310/310 309/309/309
f 309/309/309 311/311/311 308/308/308
f 312/312/312 314/314/314 313/313/313
f 313/313/313 315/315/315 312/312/312
f 315/315/315 313/313/313 316/316/316
f 316/316/316 317/317/317 315/315/315
f 318/318/318 320/320/320 319/319/319
f 319/319/319 321/321/321 318/318/318
f 322/322/322 321/321/321 319/319/319
f 319/319/319 323/323/323 322/322/322
f 324/324/324 326/326/326 325/325/325
f 325/325/325 327/327/327 324/324/324
f 328/328/328 327/327/327 325/325/325
f 325/325/325 329/329/329 328/328/328
f 330/330/330 328/328/328 329/329/329
f 329/329/329 331/331/331 330/330/330
f 332/332/332 334/334/334 333/333/333
f 333/333/333 335/335/335 332/332/332
f 336/336/336 335/335/335 333/333/333
f 333/333/333 337/337/337 336/336/336
f 336/336/336 337/337/337 338/338/338
f 338/338/338 339/339/339 336/336/336
f 340/340/340 342/342/342 341/341/341
f 341/341/341 343/343/343 340/340/340
f 343/343/343 341/341/341 344/344/344
f 344/344/344 345/345/345 343/343/343
f 346/346/346 348/348/348 347/347/347
f 347/347/347 349/349/349 346/346/346
f 349/349/349 347/347/347 350/350/350
f 350/350/350 351/351/351 349/349/349
f 351/351/351 350/350/350 352/352/352
f 352/352/352 353/353/353 351/351/351
f 354/354/354 356/356/356 355/355/355
f 355/355/355 357/357/357 354/354/354
f 358/358/358 357/357/357 355/355/355
f 355/355/355 359/359/359 358/358/358
f 360/360/360 358/358/358 359/359/359
f 359/359/359 361/361/361 360/360/360
f 362/362/362 364/364/364 363/363/363
f 363/363/363 365/365/365 362/362/362
f 365/365/365 363/363/363 366/366/366
f 366/366/366 367/367/367 365/365/365
f 368/368/368 370/370/370 369/369/369
f 369/369/369 371/371/371 368/368/368
f 372/372/372 374/374/374 373/373/373
f 373/373/373 375/375/375 372/372/372
f 376/376/376 378/378/378 377/377/377
f 377/377/377 379/379/379 376/376/376
f 379/379/379 377/377/377 380/380/380
f 380/380/380 381/381/381 379/379/379
f 382/382/382 384/384/384 383/383/383
f 383/383/383 385/385/385 382/382/382
f 386/386/386 382/382/382 385/385/385
f 385/385/385 387/387/387 386/386/386
f 388/388/388 390/390/390 389/389/389
f 389/389/389 391/391/391 388/388/388
f 392/392/392 388/388/388 391/391/391
f 391/391/391 393/393/393 392/392/392
f 394/394/394 396/396/396 395/395/395
f 395/395/395 397/397/397 394/394/394
f 398/398/398 394/394/394 397/397/397
f 397/397/397 399/399/399 398/398/398
f 400/400/400 402/402/402 401/401/401
f 401/401/401 403/403/403 400/400/400
f 403/403/403 401/401/401 404/404/404
f 404/404/404 405/405/405 403/403/403
f 406/406/406 408/408/408 407/407/407
f 407/407/407 409/409/409 406/406/406
f 409/409/409 407/407/407 410/410/410
f 410/410/410 411/411/411 409/409/409
f 412/412/412 414/414/414 413/413/413
f 413/413/413 415/415/415 412/412/412
f 415/415/415 413/413/413 416/416/416
f 416/416/416 417/417/417 415/415/415
f 418/418/418 420/420/420 419/419/419
f 419/419/419 421/421/421 418/418/418
f 421/421/421 422/422/422 418/418/418
f 423/423/423 425/425/425 424/424/424
f 424/424/424 426/426/426 423/423/423
f 427/427/427 429/429/429 428/428/428
f 428/428/428 430/430/430 427/427/427
f 431/431/431 433/433/433 432/432/432
f 432/432/432 434/434/434 431/431/431
f 435/435/435 437/437/437 436/436/436
f 436/436/436 438/438/438 435/435/435
f 439/439/439 441/441/441 440/440/440
f 440/440/440 442/442/442 439/439/439
f 443/443/443 445/445/445 444/444/444
f 444/444/444 446/446/446 443/443/443
f 446/446/446 447/447/447 443/443/443
f 448/448/448 450/450/450 449/449/449
f 449/449/449 451/451/451 448/448/448
f 452/452/452 454/454/454 453/453/453
f 453/453/453 455/455/455 452/452/452
f 456/456/456 458/458/458 457/457/457
f 457/457/457 459/459/459 456/456/456
f 460/460/460 462/462/462 461/461/461
f 462/462/462 463/463/463 461/461/461
f 464/464/464 466/466/466 465/465/465
f 465/465/465 467/467/467 464/464/464
f 468/468/468 470/470/470 469/469/469
f 469/469/469 471/471/471 468/468/468
f 472/472/472 474/474/474 473/473/473
f 473/473/473 475/475/475 472/472/472
f 476/476/476 478/478/478 477/477/477
f 477/477/477 479/479/479 476/476/476
f 480/480/480 482/482/482 481/481/481
f 481/481/481 483/483/483 480/480/480
f 484/484/484 486/486/486 485/485/485
f 485/485/485 487/487/487 484/484/484
f 488/488/488 490/490/490 489/489/489
f 491/491/491 489/489/489 490/490/490
f 490/490/490 492/492/492 491/491/491
f 493/493/493 495/495/495 494/494/494
f 494/494/494 496/496/496 493/493/493
f 497/497/497 499/499/499 498/498/498
f 498/498/498 500/500/500 497/497/497
f 500/500/500 501/501/501 497/497/497
f 502/502/502 504/504/504 503/503/503
f 503/503/503 505/505/505 502/502/502
f 506/506/506 508/508/508 507/507/507
f 507/507/507 509/509/509 506/506/506
f 510/510/510 512/512/512 511/511/511
f 511/511/511 513/513/513 510/510/510
f 514/514/514 516/516/516 515/515/515
f 515/515/515 517/517/517 514/514/514
f 518/518/518 520/520/520 519/519/519
f 519/519/519 521/521/521 518/518/518
f 521/521/521 519/519/519 522/522/522
f 522/522/522 523/523/523 521/521/521
f 524/524/524 526/526/526 525/525/525
f 525/525/525 527/527/527 524/524/524
f 528/528/528 524/524/524 527/527/527
f 527/527/527 529/529/529 528/528/528
f 530/530/530 532/532/532 531/531/531
f 531/531/531 533/533/533 530/530/530
f 534/534/534 536/536/536 535/535/535
f 535/535/535 537/537/537 534/534/534
f 538/538/538 540/540/540 539/539/539
f 539/539/539 541/541/541 538/538/538
f 542/542/542 541/541/541 539/539/539
f 539/539/539 543/543/543 542/542/542
f 543/543/543 539/539/539 544/544/544
f 544/544/544 545/545/545 543/543/543
f 546/546/546 548/548/548 547/547/547
f 547/547/547 549/549/549 546/546/546
f 549/549/549 550/550/550 546/546/546
f 551/551/551 553/553/553 552/552/552
f 552/552/552 554/554/554 551/551/551
f 555/555/555 557/557/557 556/556/556
f 556/556/556 558/558/558 555/555/555
f 559/559/559 561/561/561 560/560/560
f 560/560/560 562/562/562 559/559/559
